<?xml version="1.0" encoding="utf-8"?>
<!-- Generator: Adobe Illustrator 23.0.1, SVG Export Plug-In . SVG Version: 6.00 Build 0)  -->
<svg version="1.1" id="Layer_1" xmlns="http://www.w3.org/2000/svg" xmlns:xlink="http://www.w3.org/1999/xlink" x="0px" y="0px"
	 viewBox="0 0 64.7 93.2" style="enable-background:new 0 0 64.7 93.2;" xml:space="preserve">
<style type="text/css">
	.st0{fill:#7FC9C9;}
	.st1{fill:#FFFFFF;}
	.st2{fill:#BE1E2D;}
	.st3{fill:#A4A4A4;}
	.st4{fill:#070E0D;}
	.st5{fill:#F6F7F7;}
	.st6{fill:#F6F7F7;stroke:#000000;stroke-width:5.000000e-02;stroke-linecap:square;stroke-linejoin:bevel;stroke-miterlimit:10;}
	.st7{fill:#666667;}
	.st8{fill:#996633;stroke:#000000;stroke-width:5.000000e-02;stroke-linecap:square;stroke-linejoin:bevel;stroke-miterlimit:10;}
	.st9{fill:none;stroke:#824929;stroke-width:0.25;stroke-linecap:square;stroke-linejoin:bevel;stroke-miterlimit:10;}
	.st10{fill:none;stroke:#5A321E;stroke-width:0.25;stroke-linecap:round;stroke-linejoin:bevel;stroke-miterlimit:10;}
	.st11{fill:none;stroke:#5A321E;stroke-width:0.25;stroke-linecap:square;stroke-linejoin:bevel;stroke-miterlimit:10;}
	.st12{opacity:0.13;fill:#262626;}
	.st13{fill:#007042;}
	.st14{fill:#009900;}
	.st15{fill:#FFFF99;}
	.st16{opacity:0.75;fill:#383838;}
</style>
<title>Asset 6</title>
<g>
	<rect class="st0" width="64.7" height="93.2"/>
	<g>
		<ellipse class="st1" cx="20.6" cy="22.5" rx="3.5" ry="3.1"/>
		<ellipse class="st1" cx="23.5" cy="24.1" rx="4" ry="2.3"/>
		<path class="st1" d="M17.1,25.6v1.1c1.6,0.1,3.4,0.2,5.5,0.2c5.4,0,9.7-0.5,9.7-1.1c0-0.4-2-0.8-5-0.9c-1.3-0.1-2.7-0.1-4.3-0.1
			h-0.4c-1,0-2,0-2.9,0c-0.1,0-0.1,0-0.2,0c-0.4,0-0.8,0-1.2,0.1c-0.4,0-0.9,0-1.2,0.1V25.6z"/>
		<path class="st1" d="M27.3,26.1v-1.1c-2.2-0.1-4.8-0.2-7.6-0.2c-7.4,0-13.4,0.5-13.4,1.1c0,0.4,2.8,0.8,6.9,0.9
			c1.8,0.1,3.8,0.1,5.9,0.1h0.6c1.4,0,2.7,0,4,0c0.1,0,0.2,0,0.2,0c0.6,0,1.1,0,1.6-0.1c0.6,0,1.2,0,1.7-0.1V26.1z"/>
	</g>
	<g>
		<ellipse class="st1" cx="51.5" cy="30.8" rx="4.1" ry="2.4"/>
		<ellipse class="st1" cx="54.9" cy="32.1" rx="4.8" ry="1.8"/>
		<path class="st1" d="M65.3,33.7v-0.9c-3.1-0.1-6.9-0.2-11.1-0.2c-10.8,0-19.6,0.4-19.6,0.8c0,0.3,4.1,0.6,10.1,0.7
			c2.6,0.1,5.5,0.1,8.6,0.1h0.8c2,0,4,0,5.8,0c0.1,0,0.2,0,0.3,0c0.8,0,1.6,0,2.4,0c0.9,0,1.7,0,2.5-0.1L65.3,33.7z"/>
	</g>
	<path class="st1" d="M64.7,1.6v6c-0.1,0-0.2,0-0.3,0.1c-2,0.4-4,0.6-6,0.6c-2,0-4.1-0.2-6.1-0.6c-3-0.7-5-1.8-5-3
		c0-2,4.9-3.6,11-3.6C60.5,0.9,62.6,1.1,64.7,1.6z"/>
	<ellipse class="st1" cx="46.1" cy="6.8" rx="9" ry="1.8"/>
	<path class="st1" d="M64.7,7.6v1c-2.5,0-5.2,0-8,0c-14.6,0-26.4-0.2-26.4-0.5c0-0.3,9.5-0.5,22-0.5h0c1.4,0,2.9,0,4.3,0
		c2.7,0,5.3,0,7.7,0L64.7,7.6z"/>
	<ellipse class="st1" cx="7.1" cy="7.2" rx="7.1" ry="6.3"/>
	<ellipse class="st1" cx="13" cy="10.5" rx="8.1" ry="4.6"/>
	<path class="st1" d="M0,13.5v2.3c3.1,0.3,7,0.4,11.1,0.4c10.8,0,19.6-1,19.6-2.2c0-0.8-4.1-1.5-10.2-1.9c-2.6-0.2-5.5-0.3-8.6-0.3
		h-0.8c-2,0-4,0-5.8,0.1c-0.1,0-0.2,0-0.3,0c-0.8,0-1.6,0.1-2.4,0.1c-0.9,0.1-1.7,0.1-2.5,0.2L0,13.5z"/>
	<path class="st1" d="M0,13.5c0.1,0,0.2,0,0.3,0c1.2,0,2.4-0.2,3.4-0.8h0c0.4-0.2,0.9-0.5,1.2-0.9c0.1-0.1,0.1-0.2,0.2-0.2
		c0.3-0.4,0.5-0.8,0.5-1.3c0-0.5-0.2-0.9-0.5-1.3C4.4,8,2.5,7.2,0.3,7.2c-0.1,0-0.2,0-0.3,0V13.5z"/>
	<g>
		<ellipse class="st1" cx="9.7" cy="43.5" rx="2.1" ry="1.3"/>
		<ellipse class="st1" cx="11.5" cy="44.1" rx="2.4" ry="0.9"/>
		<path class="st1" d="M16.8,44.9v-0.5c-1.6-0.1-3.6-0.1-5.7-0.1c-5.5,0-10,0.2-10,0.4c0,0.2,2.1,0.3,5.2,0.4c1.3,0,2.8,0.1,4.4,0.1
			h0.4c1,0,2,0,3,0c0.1,0,0.1,0,0.2,0c0.4,0,0.8,0,1.2,0c0.4,0,0.9,0,1.3,0L16.8,44.9z"/>
	</g>
	<g>
		
			<rect x="45.8" y="63.1" transform="matrix(0.9997 2.336784e-02 -2.336784e-02 0.9997 1.5533 -1.0849)" class="st2" width="2.8" height="5.6"/>
		<path class="st3" d="M47.3,60.7L47.3,60.7c0.7,0,1.3,0.6,1.3,1.3l0,1.1L46,63.1l0-1.1C46,61.2,46.6,60.7,47.3,60.7z"/>
		<g>
			<polygon class="st2" points="51.9,61.7 51.7,70.6 55.8,70.7 56,65.7 56.7,65.7 56.3,65.3 56,65.2 56,64.3 53.6,62.3 53.7,62.4 
				53.6,62 			"/>
			<polygon class="st2" points="51.9,61.7 51.7,70.6 47.6,70.5 47.7,65.5 47,65.5 47.4,65.1 47.7,65.1 47.8,64.1 50.3,62.2 
				50.2,62.3 50.3,61.9 			"/>
			
				<rect x="49.5" y="63.9" transform="matrix(2.336784e-02 -0.9997 0.9997 2.336784e-02 -14.8157 113.4245)" class="st2" width="2.2" height="0.8"/>
			<path class="st4" d="M49.6,66.9L54,67c0,0,0,3.5-0.1,3.5c0,0-4.5-0.1-4.5-0.1L49.6,66.9z"/>
			
				<rect x="48.7" y="67.7" transform="matrix(2.336784e-02 -0.9997 0.9997 2.336784e-02 -19.3766 117.557)" class="st2" width="3.5" height="1.9"/>
			
				<rect x="50.2" y="61.8" transform="matrix(0.9964 -8.479867e-02 8.479867e-02 0.9964 -5.056 4.5548)" class="st5" width="1.7" height="0.1"/>
			
				<rect x="50.2" y="61.8" transform="matrix(0.9262 0.3769 -0.3769 0.9262 27.0994 -14.3443)" class="st5" width="0.1" height="0.5"/>
			
				<rect x="48.9" y="61.7" transform="matrix(0.5934 0.8049 -0.8049 0.5934 70.7544 -13.6904)" class="st5" width="0.1" height="3"/>
			
				<rect x="47.7" y="64" transform="matrix(0.9997 2.336784e-02 -2.336784e-02 0.9997 1.5213 -1.0975)" class="st5" width="0.1" height="1"/>
			
				<rect x="47.4" y="65.1" transform="matrix(0.9764 -0.2159 0.2159 0.9764 -12.9271 11.8065)" class="st5" width="0.3" height="0"/>
			<rect x="47.2" y="65" transform="matrix(0.6631 0.7485 -0.7485 0.6631 64.7794 -13.3396)" class="st5" width="0" height="0.6"/>
			
				<rect x="47" y="65.5" transform="matrix(0.9997 2.336784e-02 -2.336784e-02 0.9997 1.5437 -1.0884)" class="st5" width="0.8" height="0"/>
			
				<rect x="47.6" y="65.5" transform="matrix(0.9997 2.336784e-02 -2.336784e-02 0.9997 1.602 -1.0946)" class="st5" width="0" height="5"/>
			
				<rect x="49.4" y="66.9" transform="matrix(0.9997 2.336784e-02 -2.336784e-02 0.9997 1.6196 -1.1373)" class="st6" width="0.1" height="3.6"/>
			
				<rect x="49.5" y="66.7" transform="matrix(0.9997 2.336784e-02 -2.336784e-02 0.9997 1.5757 -1.1651)" class="st6" width="2.4" height="0.2"/>
			
				<rect x="49.5" y="70.5" transform="matrix(0.9997 2.336784e-02 -2.336784e-02 0.9997 1.6617 -1.1635)" class="st6" width="2.2" height="0.1"/>
			
				<rect x="49.9" y="65.4" transform="matrix(0.9997 2.336784e-02 -2.336784e-02 0.9997 1.5445 -1.1715)" class="st6" width="1.9" height="0.2"/>
			
				<rect x="50.1" y="63.2" transform="matrix(0.9997 2.336784e-02 -2.336784e-02 0.9997 1.5159 -1.1543)" class="st6" width="0.2" height="2.2"/>
			
				<rect x="50" y="63" transform="matrix(0.9997 2.336784e-02 -2.336784e-02 0.9997 1.4878 -1.1734)" class="st6" width="1.9" height="0.2"/>
			<path class="st7" d="M54,68.8"/>
			
				<rect x="50.7" y="65.8" transform="matrix(0.9997 2.336784e-02 -2.336784e-02 0.9997 1.5602 -1.193)" class="st8" width="2.3" height="0.7"/>
			
				<rect x="51.9" y="63.8" transform="matrix(2.336784e-02 -0.9997 0.9997 2.336784e-02 -12.5744 115.8287)" class="st2" width="2.2" height="1"/>
			
				<rect x="51.9" y="61.8" transform="matrix(-0.9913 -0.1313 0.1313 -0.9913 96.9644 130.0563)" class="st5" width="1.7" height="0.1"/>
			
				<rect x="53.6" y="61.9" transform="matrix(-0.9428 0.3332 -0.3332 -0.9428 124.9261 102.8796)" class="st5" width="0.1" height="0.5"/>
			
				<rect x="51.2" y="67.7" transform="matrix(2.336784e-02 -0.9997 0.9997 2.336784e-02 -16.9943 120.1124)" class="st2" width="3.5" height="2"/>
			
				<rect x="54.8" y="61.8" transform="matrix(-0.6303 0.7763 -0.7763 -0.6303 138.6027 60.6439)" class="st5" width="0.1" height="3"/>
			
				<rect x="56" y="64.2" transform="matrix(-0.9997 -2.336784e-02 2.336784e-02 -0.9997 110.4781 130.7704)" class="st5" width="0.1" height="1"/>
			
				<rect x="56" y="65.3" transform="matrix(-0.9653 -0.2613 0.2613 -0.9653 93.2366 142.9457)" class="st5" width="0.3" height="0"/>
			
				<rect x="56.5" y="65.2" transform="matrix(-0.6974 0.7167 -0.7167 -0.6974 142.822 70.7284)" class="st5" width="0" height="0.6"/>
			
				<rect x="56" y="65.7" transform="matrix(-0.9997 -2.336784e-02 2.336784e-02 -0.9997 111.1256 132.7307)" class="st5" width="0.8" height="0"/>
			
				<rect x="55.9" y="65.7" transform="matrix(-0.9997 -2.336784e-02 2.336784e-02 -0.9997 110.2479 137.6741)" class="st5" width="0" height="5"/>
			
				<rect x="54" y="67" transform="matrix(-0.9997 -2.336784e-02 2.336784e-02 -0.9997 106.4942 138.9172)" class="st6" width="0.1" height="3.6"/>
			
				<rect x="49.5" y="66.8" transform="matrix(-0.9997 -2.336784e-02 2.336784e-02 -0.9997 102.0442 134.9221)" class="st6" width="4.7" height="0.2"/>
			
				<rect x="49.5" y="70.5" transform="matrix(-0.9997 -2.336784e-02 2.336784e-02 -0.9997 101.7862 142.2767)" class="st6" width="4.5" height="0.1"/>
			
				<rect x="50" y="65.4" transform="matrix(-0.9997 -2.336784e-02 2.336784e-02 -0.9997 102.1947 132.238)" class="st6" width="3.7" height="0.2"/>
			
				<rect x="53.5" y="63.3" transform="matrix(-0.9997 -2.336784e-02 2.336784e-02 -0.9997 105.6619 129.9629)" class="st6" width="0.2" height="2.2"/>
			
				<rect x="50" y="63" transform="matrix(-0.9997 -2.336784e-02 2.336784e-02 -0.9997 102.3085 127.3849)" class="st6" width="3.8" height="0.2"/>
			
				<rect x="50.7" y="63.6" transform="matrix(2.336784e-02 -0.9997 0.9997 2.336784e-02 -13.7414 114.5768)" class="st4" width="2.2" height="1.4"/>
		</g>
		<line class="st9" x1="47" y1="68.4" x2="44.5" y2="70.6"/>
		<polyline class="st9" points="46.9,70.7 44.6,68.2 49.4,68.3 49.3,70.7 47,68.4 46.9,70.6 49.3,68.4 		"/>
		<line class="st9" x1="56.6" y1="68.6" x2="58.9" y2="70.9"/>
		<polyline class="st9" points="56.5,71 59,68.5 54.2,68.4 54.2,70.8 56.6,68.6 56.5,70.9 54.2,68.5 		"/>
		<line class="st9" x1="58.9" y1="71" x2="44.5" y2="70.7"/>
		<g>
			<polyline class="st10" points="55.9,68.3 56.1,60.7 55,61.7 56,62.7 55.2,63.6 			"/>
			<line class="st10" x1="55.5" y1="60.6" x2="54.6" y2="63"/>
			<polyline class="st11" points="58.4,68.4 57.3,63.3 56.8,60.9 56.1,61.8 57.3,63.3 56.2,64.4 58,66.4 56,68.4 			"/>
			<circle class="st3" cx="56.2" cy="59.3" r="1.8"/>
			<circle class="st12" cx="56.3" cy="59.3" r="0.7"/>
		</g>
	</g>
	<g>
		<ellipse class="st1" cx="38.9" cy="21.5" rx="2.1" ry="1.3"/>
		<ellipse class="st1" cx="40.6" cy="22.2" rx="2.4" ry="0.9"/>
		<path class="st1" d="M46,23v-0.5c-1.6-0.1-3.6-0.1-5.7-0.1c-5.5,0-10,0.2-10,0.4c0,0.2,2.1,0.3,5.2,0.4c1.3,0,2.8,0.1,4.4,0.1h0.4
			c1,0,2,0,3,0c0.1,0,0.1,0,0.2,0c0.4,0,0.8,0,1.2,0c0.4,0,0.9,0,1.3,0L46,23z"/>
	</g>
	<g>
		<ellipse class="st1" cx="36.4" cy="43.3" rx="1.5" ry="0.9"/>
		<ellipse class="st1" cx="37.6" cy="43.8" rx="1.7" ry="0.6"/>
		<path class="st1" d="M41.4,44.3V44c-1.1,0-2.5-0.1-4-0.1c-3.9,0-7.1,0.1-7.1,0.3c0,0.1,1.5,0.2,3.7,0.3c0.9,0,2,0,3.1,0h0.3
			c0.7,0,1.4,0,2.1,0c0,0,0.1,0,0.1,0c0.3,0,0.6,0,0.9,0c0.3,0,0.6,0,0.9,0L41.4,44.3z"/>
	</g>
	<g>
		<ellipse class="st1" cx="51" cy="50.1" rx="1.5" ry="0.9"/>
		<ellipse class="st1" cx="52.2" cy="50.5" rx="1.7" ry="0.6"/>
		<path class="st1" d="M56,51.1v-0.3c-1.1,0-2.5-0.1-4-0.1c-3.9,0-7.1,0.1-7.1,0.3c0,0.1,1.5,0.2,3.7,0.3c0.9,0,2,0,3.1,0H52
			c0.7,0,1.4,0,2.1,0c0,0,0.1,0,0.1,0c0.3,0,0.6,0,0.9,0c0.3,0,0.6,0,0.9,0L56,51.1z"/>
		<path class="st1" d="M47.5,51v0.3c1.1,0,2.5,0.1,4,0.1c3.9,0,7.1-0.1,7.1-0.3c0-0.1-1.5-0.2-3.7-0.3c-0.9,0-2,0-3.1,0h-0.3
			c-0.7,0-1.4,0-2.1,0c0,0-0.1,0-0.1,0c-0.3,0-0.6,0-0.9,0c-0.3,0-0.6,0-0.9,0L47.5,51z"/>
		<path class="st1" d="M36.4,44.2v0.3c1.1,0,2.5,0.1,4,0.1c3.9,0,7.1-0.1,7.1-0.3c0-0.1-1.5-0.2-3.7-0.3c-0.9,0-2,0-3.1,0h-0.3
			c-0.7,0-1.4,0-2.1,0c0,0-0.1,0-0.1,0c-0.3,0-0.6,0-0.9,0c-0.3,0-0.6,0-0.9,0L36.4,44.2z"/>
		<path class="st13" d="M65.3,70C43.5,63.9,21.8,63.9,0,70v23.2h65.3C65.3,93.2,64.3,70,65.3,70z"/>
	</g>
</g>
<path class="st1" d="M55.1,51.2"/>
<polygon class="st14" points="16.1,66.6 14.3,62.8 17.1,66.4 17.3,64.1 17.3,66.4 "/>
<polyline class="st14" points="17.3,66.4 17.9,65 17.6,66.3 "/>
<circle class="st15" cx="14.2" cy="62.8" r="0.2"/>
<circle class="st15" cx="13.7" cy="62.3" r="0.4"/>
<circle class="st15" cx="13.6" cy="63.1" r="0.4"/>
<circle class="st15" cx="14.3" cy="63.4" r="0.4"/>
<circle class="st15" cx="14.8" cy="62.8" r="0.4"/>
<circle class="st15" cx="14.4" cy="62.2" r="0.4"/>
<circle class="st15" cx="17.3" cy="64.5" r="0.2"/>
<circle class="st15" cx="17" cy="64.3" r="0.2"/>
<circle class="st15" cx="16.9" cy="64.8" r="0.2"/>
<circle class="st15" cx="17.4" cy="64.9" r="0.2"/>
<circle class="st15" cx="17.7" cy="64.5" r="0.2"/>
<circle class="st15" cx="17.4" cy="64.1" r="0.2"/>
<polygon class="st14" points="55.4,67.8 56.8,64.9 54.6,67.7 54.5,65.9 54.4,67.6 "/>
<polyline class="st14" points="54.4,67.6 54,66.6 54.2,67.6 "/>
<circle class="st15" cx="56.9" cy="64.8" r="0.2"/>
<circle class="st15" cx="57.3" cy="64.5" r="0.3"/>
<circle class="st15" cx="57.3" cy="65.1" r="0.3"/>
<circle class="st15" cx="56.7" cy="65.3" r="0.3"/>
<circle class="st15" cx="56.4" cy="64.9" r="0.3"/>
<circle class="st15" cx="56.7" cy="64.4" r="0.3"/>
<circle class="st15" cx="54.5" cy="66.2" r="0.1"/>
<circle class="st15" cx="54.7" cy="66" r="0.2"/>
<circle class="st15" cx="54.8" cy="66.4" r="0.2"/>
<circle class="st15" cx="54.4" cy="66.5" r="0.2"/>
<circle class="st15" cx="54.1" cy="66.2" r="0.2"/>
<circle class="st15" cx="54.4" cy="65.9" r="0.2"/>
<polygon class="st14" points="48.3,66.6 48.8,65.5 48,66.6 48,65.9 47.9,66.6 "/>
<polyline class="st14" points="47.9,66.6 47.8,66.2 47.9,66.6 "/>
<polygon class="st14" points="48.9,66.8 49.4,65.7 48.6,66.7 48.6,66 48.5,66.7 "/>
<polyline class="st14" points="48.5,66.7 48.4,66.3 48.5,66.7 "/>
<path class="st16" d="M47,66.2c-36.8,4.2-36.8,14.9-29,27c0,0,29.9,0.1,29.3,0c-18-2.9-9.8-27.7,10.4-25.2"/>
</svg>
