<svg xmlns="http://www.w3.org/2000/svg" width="65.454" height="64.369" viewBox="0 0 65.454 64.369">
  <title>Asset 5</title>
  <g>
    <rect x="0.616" width="64.131" height="63.662" fill="#7fc9c9"/>
    <rect x="5.917" y="29.714" width="12.505" height="25.011" fill="#be1e2d"/>
    <path d="M11.823,18.977h.821a5.337,5.337,0,0,1,5.337,5.337v5.4a0,0,0,0,1,0,0H6.486a0,0,0,0,1,0,0v-5.4A5.337,5.337,0,0,1,11.823,18.977Z" fill="#f7f7f7"/>
    <g>
      <ellipse cx="21.079" cy="22.47" rx="3.47" ry="3.123" fill="#fff"/>
      <ellipse cx="23.961" cy="24.063" rx="3.983" ry="2.281" fill="#fff"/>
      <path d="M17.4,25.59v1.122c1.543.124,3.412.193,5.43.193,5.31,0,9.617-.484,9.617-1.078,0-.405-2.012-.761-4.979-.939-1.261-.084-2.695-.129-4.223-.139h-.415c-.989,0-1.944.015-2.844.05-.059,0-.113,0-.168,0-.4.015-.8.034-1.182.054-.43.025-.845.05-1.236.084Z" transform="translate(0.206)" fill="#fff"/>
    </g>
    <g>
      <ellipse cx="51.626" cy="30.844" rx="4.108" ry="2.444" fill="#fff"/>
      <ellipse cx="55.039" cy="32.091" rx="4.715" ry="1.785" fill="#fff"/>
      <path d="M47.31,33.285v.879c1.826.1,4.039.151,6.428.151,6.287,0,11.386-.379,11.386-.844,0-.317-2.383-.6-5.895-.735-1.493-.066-3.191-.1-5-.108h-.492c-1.171,0-2.3.011-3.366.038-.071,0-.135,0-.2,0-.48.012-.949.027-1.4.043-.51.019-1,.038-1.464.065Z" transform="translate(0.206)" fill="#fff"/>
    </g>
    <g>
      <polygon points="32.727 23.146 32.727 62.556 51.111 62.556 51.111 40.451 54.327 40.451 52.464 38.683 51.111 38.304 51.111 34.009 40.051 25.293 40.598 25.724 40.051 24.03 32.727 23.146" fill="#be1e2d"/>
      <polygon points="32.823 23.146 32.823 62.556 14.438 62.556 14.438 40.451 11.223 40.451 13.086 38.683 14.438 38.304 14.438 34.009 25.498 25.293 24.952 25.724 25.498 24.03 32.823 23.146" fill="#be1e2d"/>
      <rect x="25.498" y="29.714" width="3.662" height="9.853" fill="#f7f7f7"/>
      <path d="M22.638,46.388H42.5s.22,15.758,0,15.663-19.862,0-19.862,0Z" transform="translate(0.206)" fill="#080f0e"/>
      <rect x="22.844" y="46.388" width="8.416" height="15.663" fill="#f7f7f7"/>
      <rect x="25.055" y="23.298" width="7.554" height="0.347" transform="translate(-2.162 3.253) rotate(-6.203)" fill="#f7f7f7"/>
      <rect x="24.775" y="23.707" width="0.299" height="2.202" transform="translate(10.642 -7.235) rotate(20.804)" fill="#f7f7f7"/>
      <rect x="19.237" y="23.261" width="0.266" height="13.232" transform="translate(31.349 -3.727) rotate(52.265)" fill="#f7f7f7"/>
      <rect x="14.225" y="33.814" width="0.266" height="4.492" fill="#f7f7f7"/>
      <rect x="12.844" y="38.319" width="1.463" height="0.217" transform="translate(-8.573 4.35) rotate(-13.807)" fill="#f7f7f7"/>
      <rect x="11.859" y="38.106" width="0.194" height="2.713" transform="translate(32.944 3.849) rotate(47.121)" fill="#f7f7f7"/>
      <rect x="11.095" y="40.279" width="3.343" height="0.172" fill="#f7f7f7"/>
      <rect x="14.225" y="40.279" width="0.213" height="22.278" fill="#f7f7f7"/>
      <rect x="22.307" y="46.388" width="0.537" height="16.168" stroke-width="0.05" stroke="#000" stroke-linecap="square" stroke-linejoin="bevel" fill="#f7f7f7"/>
      <rect x="22.307" y="45.496" width="10.516" height="0.892" stroke-width="0.05" stroke="#000" stroke-linecap="square" stroke-linejoin="bevel" fill="#f7f7f7"/>
      <rect x="22.844" y="62.051" width="9.979" height="0.505" stroke-width="0.05" stroke="#000" stroke-linecap="square" stroke-linejoin="bevel" fill="#f7f7f7"/>
      <rect x="24.32" y="39.567" width="8.503" height="0.798" stroke-width="0.05" stroke="#000" stroke-linecap="square" stroke-linejoin="bevel" fill="#f7f7f7"/>
      <rect x="24.746" y="29.714" width="0.752" height="9.853" stroke-width="0.05" stroke="#000" stroke-linecap="square" stroke-linejoin="bevel" fill="#f7f7f7"/>
      <rect x="24.32" y="28.633" width="8.503" height="1.082" stroke-width="0.05" stroke="#000" stroke-linecap="square" stroke-linejoin="bevel" fill="#f7f7f7"/>
      <rect x="27.565" y="41.209" width="10.42" height="3.189" stroke-width="0.05" stroke="#000" stroke-linecap="square" stroke-linejoin="bevel" fill="#f7f7f7"/>
      <rect x="35.523" y="29.714" width="4.528" height="9.853" fill="#f7f7f7"/>
      <rect x="32.528" y="23.298" width="7.554" height="0.347" transform="translate(70.067 50.73) rotate(-173.797)" fill="#f7f7f7"/>
      <rect x="40.064" y="23.707" width="0.299" height="2.202" transform="translate(86.821 33.716) rotate(159.196)" fill="#f7f7f7"/>
      <rect x="33.628" y="46.388" width="9.078" height="15.663" fill="#f7f7f7"/>
      <rect x="45.635" y="23.261" width="0.266" height="13.232" transform="translate(97.612 11.966) rotate(127.735)" fill="#f7f7f7"/>
      <rect x="50.852" y="33.814" width="0.266" height="4.492" transform="translate(102.177 72.119) rotate(-180)" fill="#f7f7f7"/>
      <rect x="50.831" y="38.319" width="1.463" height="0.217" transform="translate(92.67 88.049) rotate(-166.193)" fill="#f7f7f7"/>
      <rect x="53.085" y="38.106" width="0.194" height="2.713" transform="translate(118.493 27.342) rotate(132.879)" fill="#f7f7f7"/>
      <rect x="50.906" y="40.279" width="3.343" height="0.172" transform="translate(105.36 80.73) rotate(-180)" fill="#f7f7f7"/>
      <rect x="50.906" y="40.279" width="0.213" height="22.278" transform="translate(102.23 102.835) rotate(-180)" fill="#f7f7f7"/>
      <rect x="42.5" y="46.388" width="0.537" height="16.168" transform="translate(85.742 108.944) rotate(-180)" stroke-width="0.05" stroke="#000" stroke-linecap="square" stroke-linejoin="bevel" fill="#f7f7f7"/>
      <rect x="22.101" y="45.496" width="20.936" height="0.892" transform="translate(65.344 91.884) rotate(-180)" stroke-width="0.05" stroke="#000" stroke-linecap="square" stroke-linejoin="bevel" fill="#f7f7f7"/>
      <rect x="22.638" y="62.051" width="19.862" height="0.505" transform="translate(65.344 124.607) rotate(-180)" stroke-width="0.05" stroke="#000" stroke-linecap="square" stroke-linejoin="bevel" fill="#f7f7f7"/>
      <rect x="24.114" y="39.567" width="16.909" height="0.798" transform="translate(65.344 79.932) rotate(-180)" stroke-width="0.05" stroke="#000" stroke-linecap="square" stroke-linejoin="bevel" fill="#f7f7f7"/>
      <rect x="39.845" y="29.714" width="0.752" height="9.853" transform="translate(80.648 69.281) rotate(-180)" stroke-width="0.05" stroke="#000" stroke-linecap="square" stroke-linejoin="bevel" fill="#f7f7f7"/>
      <rect x="24.114" y="28.633" width="16.909" height="1.082" transform="translate(65.344 58.347) rotate(-180)" stroke-width="0.05" stroke="#000" stroke-linecap="square" stroke-linejoin="bevel" fill="#f7f7f7"/>
      <rect x="29.161" y="29.714" width="6.362" height="9.853" fill="#080f0e"/>
    </g>
    <line x1="11.365" y1="53.051" x2="0.707" y2="63.188" fill="none" stroke="#834929" stroke-linecap="square" stroke-linejoin="bevel"/>
    <polyline points="11.365 63.662 0.707 52.483 22.023 52.483 21.815 63.188 11.365 53.051 11.365 63.188 21.815 53.051" fill="none" stroke="#834929" stroke-linecap="square" stroke-linejoin="bevel"/>
    <line x1="54.137" y1="53.051" x2="64.747" y2="63.188" fill="none" stroke="#834929" stroke-linecap="square" stroke-linejoin="bevel"/>
    <polyline points="54.137 63.662 64.747 52.483 43.527 52.483 43.734 63.188 54.137 53.051 54.137 63.188 43.734 53.051" fill="none" stroke="#834929" stroke-linecap="square" stroke-linejoin="bevel"/>
    <line x1="64.746" y1="63.66" x2="0.706" y2="63.66" fill="none" stroke="#834929" stroke-linecap="square" stroke-linejoin="bevel"/>
    <path d="M64.541,1.56V7.51c-.1.02-.211.04-.322.07a28.755,28.755,0,0,1-5.968.59,28.38,28.38,0,0,1-6.008-.6C49.269,6.92,47.31,5.8,47.31,4.53,47.31,2.52,52.2.9,58.251.9A28.568,28.568,0,0,1,64.541,1.56Z" transform="translate(0.206)" fill="#fff"/>
    <ellipse cx="46.356" cy="6.823" rx="8.955" ry="1.797" fill="#fff"/>
    <path d="M64.541,7.58V8.6c-2.506.01-5.183.02-7.949.02-14.454,0-26.172-.24-26.172-.53,0-.26,9.452-.48,21.852-.52h.01c1.4-.01,2.846-.01,4.31-.01,2.656,0,5.212.01,7.628.02Z" transform="translate(0.206)" fill="#fff"/>
    <g>
      <polyline points="51.325 52.009 51.218 18.093 46.571 22.74 51.191 27.188 47.499 30.88" fill="none" stroke="#5a321e" stroke-linecap="round" stroke-linejoin="bevel"/>
      <line x1="48.36" y1="17.62" x2="44.583" y2="28.633" fill="none" stroke="#5a321e" stroke-linecap="round" stroke-linejoin="bevel"/>
      <polyline points="62.286 52.009 56.914 29.714 54.327 18.977 51.191 23.126 56.914 29.714 51.878 34.75 60.398 43.27 51.477 52.191" fill="none" stroke="#5a321e" stroke-linecap="square" stroke-linejoin="bevel"/>
      <circle cx="51.58" cy="11.936" r="8.053" fill="#a5a4a4"/>
      <circle cx="51.768" cy="11.842" r="3.223" fill="#262626" opacity="0.13"/>
    </g>
    <ellipse cx="7.638" cy="7.23" rx="7.017" ry="6.316" fill="#fff"/>
    <ellipse cx="13.466" cy="10.453" rx="8.054" ry="4.612" fill="#fff"/>
    <path d="M.41,13.54v2.27c3.12.25,6.9.39,10.98.39,10.74,0,19.45-.98,19.45-2.18,0-.82-4.07-1.54-10.07-1.9-2.55-.17-5.45-.26-8.54-.28h-.84c-2,0-3.93.03-5.75.1-.12,0-.23.01-.34.01-.82.03-1.62.07-2.39.11-.87.05-1.71.1-2.5.17Z" transform="translate(0.206)" fill="#fff"/>
    <path d="M.41,13.54a2.437,2.437,0,0,0,.27.01A7.606,7.606,0,0,0,4.1,12.8h.01a3.984,3.984,0,0,0,1.19-.85,2.253,2.253,0,0,0,.21-.24A2.156,2.156,0,0,0,6,10.39a2.094,2.094,0,0,0-.45-1.27C4.73,8,2.86,7.23.68,7.23a2.437,2.437,0,0,0-.27.01v6.3Z" transform="translate(0.206)" fill="#fff"/>
  </g>
</svg>
