<?xml version="1.0" encoding="utf-8"?>
<!-- Generator: Adobe Illustrator 23.0.1, SVG Export Plug-In . SVG Version: 6.00 Build 0)  -->
<svg version="1.1" id="Layer_1" xmlns="http://www.w3.org/2000/svg" xmlns:xlink="http://www.w3.org/1999/xlink" x="0px" y="0px"
	 viewBox="0 0 90.5 83.7" style="enable-background:new 0 0 90.5 83.7;" xml:space="preserve">
<style type="text/css">
	.st0{fill:#FFFFFF;}
	.st1{opacity:0.14;fill:#FFFFFF;enable-background:new    ;}
	.st2{opacity:0.97;fill:#FFFFFF;enable-background:new    ;}
	.st3{fill:#666766;}
	.st4{fill:#CCCCCB;}
	.st5{fill:#231F20;}
	.st6{opacity:0.14;fill:#666766;enable-background:new    ;}
	.st7{fill:#F69799;}
	.st8{fill:#FFFFFF;stroke:#999999;stroke-width:0.25;stroke-miterlimit:10;}
	.st9{fill:#CCCCCB;stroke:#999999;stroke-width:0.25;stroke-miterlimit:10;}
	.st10{fill:#999999;}
	.st11{fill:#333333;}
	.st12{opacity:0.97;}
</style>
<title>Asset 3</title>
<g>
	<g>
		<g>
			<g>
				<g>
					<path class="st0" d="M86.5,9.1c5.9,8.2-0.4,11.7-4.9,12.9c-0.2-2.7-7.2-8.9,0.3-12.4c1.3-4.8,5.2-7.5,8.7-6.4L86.5,9.1z"/>
					<path class="st0" d="M82.4,21.8c-4.8,1.7-9,4.6-12.3,8.5l-0.6-0.9c3.4-4,7.3-6.8,11.8-7.9"/>
				</g>
				<g>
					<g>
						<g>
							<g>
								<path class="st0" d="M25.5,10.9L20,22.5c-4.3,4.2-9.8-6.4-14.9-12c-1.1-1.3-1.8-2-2.6-2.1c-0.1,0-0.1,0-0.2,0
									c-1.9,3.6-3.9-0.2,0.1-0.8v0c1.3-0.8,2.3-1.3,2.8,1C7.7,3.9,15.6,6.9,25.5,10.9z"/>
								<path class="st0" d="M53.1,8c0.7-1.3,13.3,3.2,13.9,4c1.6,2.3,10.9-6.4,9.9-7.5c0.8,3.4,0.8,6.3-2.2,7.1
									c-1.4,7.3-6.3,10.6-14.8,10L53.1,8z"/>
							</g>
							<polygon class="st0" points="73.2,46.5 62.8,76.3 59.9,76.2 59.9,46.5 							"/>
							<polygon class="st1" points="69.7,47.3 62,76.3 59.9,76.2 59.9,47.3 							"/>
							<polygon class="st0" points="28.5,46.5 38.9,76.3 41.8,76.2 41.8,46.5 							"/>
							<polygon class="st1" points="30.7,46.5 38.7,76.3 40.9,76.2 40.9,46.5 							"/>
							<path class="st0" d="M59.9,67.2c0.7-0.4,6.1-5,6.9-5.8c1-0.9,2-6.2,1.9-6.2c1,0.1,1.6,0.7,0,4.2L66,67.2
								C64.3,71.2,60.3,70.4,59.9,67.2z"/>
							<path class="st0" d="M62.9,62.3C65.9,78,46.5,82,38.3,71L62.9,62.3z"/>
							<polygon class="st0" points="61,50.2 50.5,79.9 47.7,79.9 47.7,50.2 							"/>
							<polygon class="st0" points="17.4,50.2 27.8,79.9 30.6,79.9 30.6,50.2 							"/>
							<polygon class="st1" points="19.1,50.2 27.5,79.9 29.8,79.9 29.8,50.2 							"/>
							<polygon class="st1" points="57.4,50.9 49.7,79.9 47.5,79.9 47.5,50.9 							"/>
						</g>
						<path class="st0" d="M73.6,43.3c0,12.2-8,23-19.7,26.5c-3.2,1.8-6.8,2.9-10.5,3.3c-1,0.1-2,0.2-3,0.2
							c-15.3,0-27.6-12.4-27.6-27.6c0-12.2,8.1-23,19.8-26.5c4.1-2.3,8.7-3.5,13.4-3.5C61.3,15.7,73.6,28.1,73.6,43.3
							C73.6,43.3,73.6,43.3,73.6,43.3z"/>
						<path class="st1" d="M41.8,16C-4.7,26.2,9.5,82.8,49.6,71.2c14.7-4.2,13.8-9.4,1.1-8.9C33.7,62.9,35.1,37.3,41.8,16z"/>
						<ellipse class="st0" cx="57.9" cy="47.7" rx="8.4" ry="7.2"/>
						<path class="st0" d="M46.1,67.4c0,2.1-0.7,4.1-2.1,5.7c-1.1,0.1-2.2,0.2-3.3,0.2c-3.2,0-6.4-0.5-9.4-1.4
							c-0.8-1.4-1.2-2.9-1.2-4.5c-0.1-4.6,3.5-8.3,8-8.5C42.6,59,46.2,62.8,46.1,67.4z"/>
						<path class="st0" d="M33.1,56.3l14.7,0.6l0,0l0,0.1c-0.1,1.7-1.5,3-3.2,3L36,59.6c-1.7-0.1-3-1.5-2.9-3.1v0L33.1,56.3
							L33.1,56.3z"/>
						<ellipse class="st0" cx="19.4" cy="51.7" rx="5.4" ry="7.2"/>
						<path class="st0" d="M51.1,5.3L28.6,5C21.7,17.9,16,30.5,12.3,42.7l20.3,15.2l13.8,0.5l16.8-12C64.3,31.7,60,17.1,51.1,5.3z"
							/>
						<path class="st0" d="M72.2,10.1c3.9,0.5,5-0.8,3.7-3.6L72.2,10.1z"/>
						<path class="st0" d="M56.1,8.2c3.5,0.9,6.9,2,10.1,3.4c-0.2,4.5-2.5,7.1-7.5,7.1c1,3.1-4.4,4.9-6.5,3.7
							C42.1,17,42.8,5.4,56.1,8.2z"/>
						<path class="st1" d="M41.7,58.3c-1.5,0.5-1.4,1.1,0,1.6c-4.8,0.3-8-0.1-8.1-1.8L41.7,58.3z"/>
						<path class="st1" d="M39.6,5.1c-9.2,19.5-14.1,46.5,6.8,53.3l-13.8-0.5L12.3,42.7C16.5,29.6,22,17,28.6,5L39.6,5.1z"/>
					</g>
					<g>
						<path class="st0" d="M41.7,76.3l-0.2,2.6c0,0.2-0.2,0.3-0.3,0.3l-8.3,0.1C29.3,76.3,35.7,73.3,41.7,76.3z"/>
						<path class="st0" d="M47.7,80v2.6c0,0.2,0.1,0.3,0.3,0.3l8.2,0.8C60.1,81,53.9,77.5,47.7,80z"/>
						<path class="st0" d="M59.9,76.2v2.6c0,0.2,0.1,0.3,0.3,0.3l8.2,0.8C72.3,77.2,66.1,73.8,59.9,76.2z"/>
						<path class="st0" d="M30.3,79l-0.2,2.6c0,0.2-0.2,0.3-0.3,0.3L21.5,82C17.9,79,24.3,76.1,30.3,79z"/>
						<path class="st0" d="M56.5,83.4c1-1.3,0.8-2.2-0.6-2.8C56.9,81.3,57,82.2,56.5,83.4z"/>
						<path class="st0" d="M21.4,81.7c-1-1.3-0.8-2.2,0.6-2.8C21.1,79.5,20.9,80.5,21.4,81.7z"/>
						<path class="st0" d="M32.7,79.1c-1-1.3-0.8-2.2,0.6-2.8C32.4,76.9,32.3,77.8,32.7,79.1z"/>
						<path class="st0" d="M68.8,79.6c1-1.3,0.8-2.2-0.6-2.8C69.1,77.4,69.3,78.3,68.8,79.6z"/>
					</g>
				</g>
				<circle class="st0" cx="25.8" cy="25.5" r="3.5"/>
				<g>
					<path class="st0" d="M41.3,54.1c0.7,0.6-6.3,3.6-7.2,2.7c-0.4-0.4-0.7-0.9-1-1.4c-6-3.4-12-6.7-14.8-10c-1.3-1.5-3-2.6-4.9-3.3
						c0.2-0.8,0.5-1.4,1.3-1.4c4.5-21.7,45.8-20.2,49.1,0L62,44.2l0.5,0.3l-0.5,1.1l0.5,0.3c-3.9,4.5-9.2,8.1-15.4,11
						C44.4,56.4,42.3,55.6,41.3,54.1z"/>
					<path class="st0" d="M41.2,53.2c0.7,0.5-6.3,3.5-7.2,2.6c-0.3-0.4-0.7-0.8-1-1.3c-6-3.2-12-6.4-14.8-9.6
						c-1.4-1.4-3-2.5-4.9-3.2c0.2-0.8,0.5-1.4,1.3-1.4c4.5-20.8,45.7-19.4,49,0l-1.8,3.4l0.5,0.3l-0.5,1l0.5,0.3
						c-3.9,4.3-9.2,7.8-15.4,10.6C44.3,55.4,42.3,54.6,41.2,53.2z"/>
					<path class="st1" d="M13.4,41.7c4.8-10.4,11.7-15.9,20.8-16.1c-3.9,7.7-2.3,15.1,7.1,21.9c-1.8,0.8,4.7,8,5.6,8.3
						c0.8,0.3-5.9-1.1-5.7-2.7L41,53.7c-2,1.4-4.4,2.1-6.9,2.2l-1-1.3c-6.2-3.2-12.1-6.5-15.9-10.7L13.4,41.7l1.3-1.1"/>
				</g>
				<g>
					<path class="st0" d="M22.2,41c-11.8,0.5,0.3-14.2,2.6-2"/>
					<path class="st0" d="M22,40.6c-7.1,0.3,0.2-9.9,1.6-1.4"/>
				</g>
				<circle class="st0" cx="33.9" cy="12.1" r="2"/>
				<g>
					
						<ellipse transform="matrix(3.760296e-02 -0.9993 0.9993 3.760296e-02 27.3304 63.3053)" class="st0" cx="46.5" cy="17.5" rx="7.5" ry="7"/>
					<ellipse class="st0" cx="46.1" cy="17.8" rx="6.5" ry="6.8"/>
					
						<ellipse transform="matrix(0.1959 -0.9806 0.9806 0.1959 18.8113 60.3606)" class="st0" cx="46.2" cy="18.7" rx="2.9" ry="2.3"/>
					<path class="st1" d="M45,11c-0.3,5.9,1.2,10,5.5,11.8C42.2,30.6,33.7,14.5,45,11z"/>
					<path class="st1" d="M31.5,13.7c-0.3,4.5,1,7.7,4.3,9C28.6,29.4,23,14.8,31.5,13.7z"/>
				</g>
				<g>
					
						<ellipse transform="matrix(0.9679 -0.2513 0.2513 0.9679 -3.6788 8.5942)" class="st2" cx="31.8" cy="18.7" rx="4.7" ry="5.9"/>
					
						<ellipse transform="matrix(0.9908 -0.1353 0.1353 0.9908 -2.2908 4.4617)" class="st0" cx="31.7" cy="19.1" rx="4.4" ry="5.4"/>
					<ellipse transform="matrix(0.9587 -0.2844 0.2844 0.9587 -4.4835 9.9171)" class="st0" cx="31.9" cy="20.4" rx="2" ry="3"/>
				</g>
				<path class="st0" d="M55.4,1.1c-2,0.8-4,1.5-4.1,3.4l-1.6-1.1c-5.6-0.7-11.2-0.6-16.8,0.3c-1.1-1.6-1.6-2.9-0.9-3.5
					c-0.8-0.6-1,0.4-0.3,3.2c-1.3-1.6-3.4-2.3-6.2-2.3c1.6,0.7,2.5,1.8,2.1,3.4c-1.3-0.4-1.6,0.8-2.1,1.7c1.6-0.7,3.1,0.6,4.5,2.4
					c1.9,0.7,4,0.7,5.9,0c-0.4,0.4-1,0.4,0.5,1c1.2,0.4,5.1,0.1,4.9-0.5c0,0,0,0.6,0,0.5c0.1-0.7,3.2-1.1,3.2-0.5
					c1.9,0.3,2.6-0.4,2.7-1.8c0.5-0.5,3,1.9,3.4,1.5c0.3-0.3,2.5,0.4,2.2,0.7c-0.5-0.8-0.7-1.5-0.1-1.8l1.3,0.1
					c-0.6-0.2-0.2-1.3,0.5-1.1c0.2,0,1,0.5,1,0.5l1.3-1.2c-0.9,0.4-1.9,0.4-2.8,0C53.6,4.2,54,2.6,55.4,1.1z"/>
				<g>
					<path class="st0" d="M55.3,41.5c11.8,0.5-0.3-14.2-2.6-2"/>
					<path class="st0" d="M55.6,41.2c7.1,0.3-0.2-9.9-1.6-1.4"/>
				</g>
				<path class="st0" d="M71.4,32.5c-4,6.8-3.7,12.1,1.8,15.6C74.1,42.8,73.5,37.4,71.4,32.5z"/>
				<path class="st0" d="M53.9,69.8c-0.4,1.7-0.9,3.4-1.6,5.1c-0.9,2.2-4.5,2.2-4.6,0.2c0.5,0,0.1-2.9-0.1-2.7
					C47,72.7,53.9,70.1,53.9,69.8z"/>
				<path class="st0" d="M15.8,7.3c-7,1.8-1.5,16.6,4.6,14.4c1.1-0.4,5.1-10.7,5.1-10.7L15.8,7.3z"/>
				<path class="st0" d="M0.2,8.6c1.5-0.4,3.1-0.3,2.9,0l2,0C4.9,7.3,4.5,6.3,2.6,7.3C1.7,7.5,0.9,7.9,0.2,8.6z"/>
				<ellipse class="st0" cx="8.3" cy="10.9" rx="1.3" ry="1.5"/>
				<ellipse class="st0" cx="64.2" cy="30.5" rx="1" ry="1.5"/>
				<path class="st0" d="M61.3,66.1c-3.4-3.7-5.4-2-6.5,3.3C57.2,68.8,59.4,67.6,61.3,66.1z"/>
				<path class="st2" d="M37.8,24.9c0.1-0.3,0.4-3.3,0.4-3.3l0.8,3.3L37.8,24.9z"/>
				<path class="st0" d="M60.7,23.9c-6.4,0.7-4,10.2,1.9,8.1C62.1,29.3,61.5,26.6,60.7,23.9z"/>
				<path class="st0" d="M87.7,3c-1.4,1.8-2.9,3.8-3.4,6.1c-0.2,1.2-0.2,2.4,0.2,3.6c0.2,0.6,0.4,1.1,0.6,1.7c0.8,2.8-0.4,5.9-3,7.4
					l4.5-3.1c0.1,0.1-0.1,0.2-0.2,0.1s0-0.2,0.1-0.3c0.5-0.6,0.8-1.3,0.9-2c0.1-0.6,0.2-1.2,0.2-1.8c-0.3-1.3-0.8-2.6-1.6-3.7
					c-0.8-1.1-1-2.6-0.5-3.9c0.2-0.5,0.5-0.9,0.9-1.2c0.9-1,1.8-2,2.7-2.9"/>
				<path class="st0" d="M81.7,21.8c0.4-0.9,0.9-1.9,1.5-2.7c0.5-0.9,0.8-1.9,0.6-3c-0.1-0.4-0.3-0.9-0.4-1.3
					C83.1,13.9,83,13,83,12.1c-0.1-1.1,0-2.3,0.3-3.4C83.9,6.6,85.5,5,87,3.4"/>
				<path class="st0" d="M89.9,3.3c-1,1.2-2,2.5-2.9,3.7c-0.1,0.6-0.2,1.3-0.3,1.9v0"/>
				<path class="st0" d="M86.6,9.3L86.6,9.3c0,0.2,0,0.4,0,0.6c0.2,2.1,1.4,4,1.2,6.1c-0.2,1.8-1.1,3.4-2.6,4.5c0,0,0,0,0,0v0"/>
				<path class="st0" d="M83.9,7.1c-1.4,2-2.2,4.3-2.3,6.6c-0.1,1.1,0,2.1,0.3,3.2c0.1,0.2,0.1,0.4,0.2,0.6c0,0.3,0,0.5-0.1,0.8
					c-0.2,0.9-0.4,1.9-0.7,2.8"/>
				<path class="st0" d="M80.7,19.9c-0.6-3.8,0-7.6,1.7-11"/>
				<path class="st0" d="M79.3,17.3c0-0.2,0-0.4,0-0.6c0.1-2.3,0.6-4.5,1.5-6.6"/>
				<path class="st0" d="M79.7,11c-0.2,0.8-0.4,1.5-0.6,2.3c-0.1,0.3-0.2,0.7-0.2,1c-0.1,0.6-0.1,1.2,0,1.7v0"/>
				<path class="st0" d="M23.5,67.5c2.4,6,4.8,6.5,7.2,4.1C28.1,70.6,25.7,69.2,23.5,67.5z"/>
			</g>
			<path class="st0" d="M43.2,1.3c1.5,0.3,3,1,4.2,2"/>
			<path class="st0" d="M43.4,5.5c-0.1-1.2,3.4-1.3,3.6-0.4"/>
			<path class="st0" d="M41.9,6.5c0,0.5,2.2,1.3,3.1,0.8c1.2,0.4,2.4,0.2,3.5-0.4"/>
			<path class="st0" d="M37.9,4.1c0.5-1,14.7-1,14.7,0"/>
			<path class="st0" d="M42.7,8.3c0.1,0.3,3.5-0.6,3.5-0.6c1.2-0.3,1.5-0.8,1.5-1.3"/>
			<path class="st0" d="M46.4,2c-1.2,0.6-2.1,1.4-2.2,2.5"/>
			<path class="st0" d="M43.7,6c0.7,0.4,1.4,0.8,2.1,1.3l1,0.4"/>
			<polyline class="st0" points="47.1,6 45.3,5 43.4,5 			"/>
		</g>
		<g>
			<g>
				<g>
					<path class="st3" d="M85.3,11c5.7,8-0.3,11.4-4.8,12.6c-0.2-2.6-7-8.7,0.3-12c1.3-4.7,5.1-7.3,8.4-6.2L85.3,11z"/>
					<g>
						<path class="st4" d="M81.4,23.3c-4.6,1.6-8.7,4.5-11.9,8.2l-0.6-0.9c3.3-3.8,7.1-6.6,11.4-7.7"/>
						<path class="st5" d="M81.4,23.3c-1.1,0.4-2.3,0.9-3.3,1.5c-1.1,0.6-2.1,1.2-3.1,1.9c-1,0.7-2,1.4-2.9,2.3
							c-0.9,0.8-1.7,1.7-2.5,2.6l-0.1,0.1l0-0.1l-0.6-0.9l0,0l0,0c1.5-1.8,3.2-3.4,5.1-4.8c1-0.7,2-1.3,3.1-1.7
							c1.1-0.5,2.2-0.9,3.3-1.1l0,0c-1.1,0.3-2.2,0.8-3.3,1.3c-1,0.5-2,1.1-3,1.8c-1.9,1.4-3.6,2.9-5.2,4.7l0-0.1l0.5,0.9l-0.1,0
							c0.8-0.9,1.7-1.8,2.6-2.6c0.9-0.8,1.8-1.6,2.8-2.3C76.8,25.1,79,24,81.4,23.3L81.4,23.3z"/>
					</g>
				</g>
				<g>
					<g>
						<g>
							<g>
								<path class="st4" d="M26.2,12.8L20.8,24c-4.2,4.1-9.5-6.2-14.5-11.7c-1.1-1.2-1.8-1.9-2.5-2.1c-0.1,0-0.1,0-0.2,0
									c-1.8,3.5-3.8-0.1,0-0.8v0c1.3-0.8,2.2-1.3,2.7,1C8.9,6,16.5,8.9,26.2,12.8z"/>
								<path class="st4" d="M52.9,10c0.6-1.3,12.9,3.1,13.4,3.8c1.5,2.2,10.6-6.2,9.6-7.3c0.7,3.3,0.7,6.1-2.1,6.9
									c-1.4,7.1-6.1,10.3-14.3,9.7L52.9,10z"/>
							</g>
							<polygon class="st0" points="72.4,47.3 62.3,76.2 59.5,76.1 59.5,47.3 							"/>
							<polygon class="st6" points="69,48 61.5,76.2 59.4,76.1 59.4,48 							"/>
							<polygon class="st0" points="29.1,47.3 39.2,76.2 41.9,76.1 41.9,47.3 							"/>
							<polygon class="st6" points="31.2,47.3 38.9,76.2 41,76.1 41,47.3 							"/>
							<path class="st3" d="M59.5,67.3c0.7-0.4,5.9-4.9,6.7-5.6c0.9-0.8,2-6,1.8-6.1c1,0.1,1.6,0.7,0,4l-2.7,7.6
								C63.7,71.2,59.8,70.4,59.5,67.3z"/>
							<path class="st7" d="M62.4,62.6c2.9,15.2-15.9,19-23.9,8.4L62.4,62.6z"/>
							<polygon class="st0" points="60.5,50.8 50.4,79.7 47.6,79.6 47.6,50.8 							"/>
							<polygon class="st0" points="18.3,50.8 28.4,79.7 31.1,79.6 31.1,50.8 							"/>
							<polygon class="st6" points="20,50.8 28.1,79.7 30.3,79.6 30.3,50.8 							"/>
							<polygon class="st6" points="57.1,51.6 49.6,79.7 47.5,79.6 47.5,51.6 							"/>
						</g>
						<path class="st8" d="M72.8,44.2c0,11.8-7.8,22.3-19.1,25.7c-3.1,1.8-6.6,2.9-10.2,3.2c-1,0.1-1.9,0.2-2.9,0.2
							c-14.8,0-26.8-12-26.8-26.8c0-11.9,7.8-22.3,19.2-25.7c4-2.2,8.4-3.4,13-3.4C60.8,17.4,72.8,29.4,72.8,44.2z"/>
						<path class="st6" d="M41.9,17.7c-45,9.9-31.3,64.7,7.6,53.5c14.3-4.1,13.3-9.1,1.1-8.7C34.1,63.2,35.5,38.4,41.9,17.7z"/>
						<ellipse class="st3" cx="57.5" cy="48.4" rx="8.2" ry="7"/>
						<path class="st3" d="M46.1,67.5c0,2-0.7,4-2.1,5.6c-1.1,0.1-2.1,0.2-3.2,0.2c-3.1,0-6.2-0.5-9.1-1.4c-0.8-1.3-1.2-2.8-1.2-4.3
							c-0.1-4.4,3.4-8.1,7.8-8.2C42.7,59.4,46.2,63.1,46.1,67.5z"/>
						<path class="st9" d="M33.5,56.8l14.3,0.6l0,0l0,0c-0.1,1.7-1.5,3-3.2,3h0L36.4,60C34.8,59.9,33.5,58.5,33.5,56.8L33.5,56.8
							L33.5,56.8L33.5,56.8z"/>
						<ellipse class="st3" cx="20.3" cy="52.3" rx="5.2" ry="7"/>
						<g>
							<path class="st0" d="M51,7.3L29.1,7.1c-6.7,12.5-12.2,24.7-15.8,36.5l19.7,14.8l13.4,0.5l16.3-11.6
								C63.8,32.9,59.6,18.8,51,7.3z"/>
							<path class="st10" d="M51,7.3L29.1,7.1l0.1,0c-3.1,5.9-6,11.8-8.8,17.9c-2.7,6.1-5.1,12.3-7.1,18.6l0,0l19.7,14.7l0,0
								l13.4,0.5l-0.1,0l16.3-11.6l0,0.1c0.5-7.1-0.3-14.2-2.2-21C58.4,19.4,55.2,13,51,7.3z M51,7.3c4.3,5.7,7.5,12.1,9.6,18.9
								c2,6.8,2.8,14,2.3,21.1v0.1l0,0L46.5,58.9l0,0h0l-13.4-0.5h0l0,0L13.3,43.6l0,0l0,0c2-6.3,4.3-12.6,7-18.6
								c2.7-6.1,5.6-12,8.8-17.9l0,0h0L51,7.3z"/>
						</g>
						<path class="st3" d="M71.4,12c3.8,0.4,4.8-0.8,3.6-3.5L71.4,12z"/>
						<path class="st3" d="M55.9,10.1c3.4,0.8,6.7,1.9,9.8,3.3c-0.2,4.3-2.4,6.9-7.3,6.9c0.9,3-4.3,4.7-6.3,3.6
							C42.2,18.7,42.9,7.4,55.9,10.1z"/>
						<path class="st6" d="M41.9,58.8c-1.4,0.5-1.4,1,0,1.6c-4.7,0.3-7.7-0.1-7.9-1.7L41.9,58.8z"/>
						<path class="st6" d="M39.8,7.2c-9,18.9-13.7,45.1,6.6,51.7l-13.4-0.5L13.3,43.6c4.1-12.6,9.4-24.9,15.8-36.5L39.8,7.2z"/>
					</g>
					<g>
						<path class="st11" d="M41.9,76.2l-0.2,2.5c0,0.2-0.2,0.3-0.3,0.3l-8,0.1C29.8,76.2,36.1,73.3,41.9,76.2z"/>
						<path class="st11" d="M47.6,79.7v2.5c0,0.2,0.1,0.3,0.3,0.3l8,0.7C59.6,80.7,53.7,77.3,47.6,79.7z"/>
						<path class="st11" d="M59.5,76.1v2.5c0,0.2,0.1,0.3,0.3,0.3l8,0.7C71.5,77.1,65.5,73.7,59.5,76.1z"/>
						<path class="st11" d="M30.8,78.8l-0.2,2.5c0,0.2-0.2,0.3-0.3,0.3l-8,0.1C18.8,78.8,25,75.9,30.8,78.8z"/>
						<path class="st0" d="M56.2,83.1c1-1.2,0.8-2.1-0.5-2.7C56.6,81,56.8,82.2,56.2,83.1z"/>
						<path class="st0" d="M22.1,81.4c-1-1.2-0.8-2.1,0.5-2.7C21.8,79.3,21.6,80.5,22.1,81.4z"/>
						<path class="st0" d="M33.2,78.9c-1-1.2-0.8-2.1,0.5-2.7C32.9,76.8,32.6,77.9,33.2,78.9z"/>
						<path class="st0" d="M68.1,79.4c1-1.2,0.8-2.1-0.5-2.7C68.4,77.3,68.6,78.4,68.1,79.4z"/>
					</g>
				</g>
				<circle class="st3" cx="26.5" cy="26.9" r="3.4"/>
				<g>
					<path class="st7" d="M41.4,54.6c0.7,0.5-6.1,3.5-6.9,2.7c-0.3-0.4-0.7-0.9-0.9-1.3c-5.9-3.3-11.6-6.5-14.3-9.7
						c-1.3-1.4-2.9-2.5-4.8-3.2c0.2-0.8,0.5-1.4,1.3-1.4c4.4-21,44.4-19.6,47.6,0L61.5,45l0.4,0.3l-0.5,1l0.5,0.3
						c-3.8,4.4-9,7.9-15,10.7C44.5,56.9,42.5,56.1,41.4,54.6z"/>
					<path class="st7" d="M41.4,53.8c0.7,0.5-6.1,3.4-6.9,2.5c-0.3-0.4-0.7-0.8-0.9-1.3c-5.8-3.1-11.6-6.3-14.3-9.3
						c-1.3-1.4-2.9-2.5-4.7-3.1c0.2-0.8,0.5-1.3,1.3-1.3c4.4-20.1,44.3-18.8,47.5,0l-1.8,3.3l0.4,0.3l-0.5,1l0.5,0.2
						c-3.8,4.2-8.9,7.5-14.9,10.3C44.4,55.9,42.4,55.2,41.4,53.8z"/>
					<path class="st6" d="M14.4,42.6C19.1,32.5,25.8,27.2,34.6,27c-3.8,7.5-2.3,14.6,6.9,21.3c-1.7,0.8,4.5,7.7,5.5,8.1
						c0.8,0.3-5.7-1.1-5.5-2.6l-0.2,0.4c-2,1.3-4.3,2.1-6.7,2.1l-0.9-1.3c-6-3.1-11.7-6.3-15.4-10.4L14.4,42.6l1.3-1"/>
				</g>
				<g>
					<path class="st5" d="M23,41.9c-0.8,0-1.6,0-2.3-0.2c-0.8-0.1-1.5-0.5-2-1.1c-0.5-0.6-0.7-1.4-0.5-2.2c0.2-0.8,0.6-1.5,1.1-2
						c0.5-0.6,1.2-1,2-1.2c0.8-0.2,1.6,0,2.3,0.5c0.6,0.5,1.1,1.2,1.4,1.9c0.3,0.7,0.5,1.5,0.7,2.3c0,0.1,0,0.1-0.1,0.1
						c-0.1,0-0.1,0-0.1-0.1v0c-0.1-0.8-0.4-1.5-0.6-2.2c-0.3-0.7-0.7-1.4-1.3-1.9c-0.6-0.5-1.4-0.7-2.1-0.5c-0.8,0.2-1.4,0.6-2,1.1
						c-0.6,0.5-1,1.2-1.2,2c-0.2,0.8-0.1,1.6,0.4,2.2c0.5,0.6,1.3,0.9,2,1.1C21.4,41.9,22.2,41.9,23,41.9L23,41.9L23,41.9z"/>
					<path class="st5" d="M22.7,41.6c-0.5,0.1-1,0-1.5,0c-0.6-0.1-1.1-0.4-1.4-0.8c-0.3-0.5-0.4-1.1-0.2-1.7
						c0.1-0.5,0.4-1.1,0.6-1.5c0.3-0.6,0.8-1.1,1.4-1.4c0.4-0.2,0.9-0.3,1.3-0.2c0.5,0.1,0.9,0.3,1.2,0.6c0.5,0.5,1,1.1,1.2,1.8
						c0.2,0.6,0.3,1.2,0.3,1.8c0,0.8-0.7,1.4-1.5,1.4c-0.6,0-1.1-0.4-1.3-0.9l0-0.1c-0.3-0.8-0.5-1.7-0.7-2
						c-0.1-0.2,0.1-0.4-0.2-0.5c-0.4-0.2-0.8-0.1-1.1,0.2c-0.7,0.6-1,1.6-0.6,2.4C20.8,41.2,21.8,41.6,22.7,41.6
						C22.7,41.5,22.8,41.6,22.7,41.6C22.8,41.6,22.8,41.6,22.7,41.6C22.8,41.6,22.7,41.6,22.7,41.6z"/>
				</g>
				<circle class="st3" cx="34.3" cy="14" r="1.9"/>
				<g>
					<g>
						
							<ellipse transform="matrix(3.760296e-02 -0.9993 0.9993 3.760296e-02 25.6656 64.9163)" class="st7" cx="46.5" cy="19.1" rx="7.3" ry="6.8"/>
						<path d="M48.3,12.1c1.8,0.5,3.3,1.7,4.2,3.4c0.9,1.7,1.2,3.6,0.8,5.4c-0.4,1.9-1.5,3.5-3.1,4.6c-1.6,1.1-3.6,1.4-5.5,1
							c-1.9-0.5-3.5-1.8-4.4-3.5c-0.9-1.7-1.2-3.7-0.8-5.6c0.5-1.9,1.6-3.5,3.3-4.5C44.5,11.8,46.4,11.5,48.3,12.1z M48.2,12.1
							c-0.9-0.2-1.8-0.3-2.7-0.1c-0.9,0.2-1.7,0.6-2.5,1.1c-1.4,1.1-2.4,2.6-2.8,4.4c-0.4,1.7-0.2,3.5,0.7,5.1
							c0.8,1.6,2.2,2.8,3.9,3.3c1.7,0.5,3.6,0.2,5.1-0.8c1.5-1,2.6-2.5,3-4.3c0.5-1.8,0.2-3.7-0.6-5.3C51.5,13.9,50,12.6,48.2,12.1z
							"/>
					</g>
					<g>
						<ellipse class="st4" cx="46.1" cy="19.4" rx="6.3" ry="6.6"/>
						<path d="M46.2,12.8c1.7,0,3.4,0.8,4.5,2.1c2.4,2.7,2.4,6.7-0.1,9.3c-2.3,2.5-6.2,2.7-8.7,0.4c-0.2-0.1-0.3-0.3-0.5-0.5
							c-2.4-2.7-2.3-6.8,0.2-9.4C42.8,13.4,44.5,12.7,46.2,12.8z M46.2,12.8c-1.7,0-3.3,0.7-4.5,2c-2.3,2.6-2.4,6.5-0.1,9.1
							c2.1,2.5,5.9,2.8,8.4,0.6c0.2-0.1,0.3-0.3,0.5-0.5c2.4-2.6,2.5-6.5,0.2-9.2C49.5,13.6,47.9,12.8,46.2,12.8z"/>
					</g>
					<ellipse transform="matrix(0.196 -0.9806 0.9806 0.196 17.1958 61.691)" cx="46.2" cy="20.4" rx="2.8" ry="2.2"/>
					<path class="st6" d="M45.1,12.9c-0.3,5.7,1.2,9.7,5.3,11.4C42.3,31.9,34.1,16.3,45.1,12.9z"/>
					<path class="st6" d="M32,15.5c-0.3,4.4,1,7.4,4.2,8.8C29.1,30.7,23.7,16.6,32,15.5z"/>
				</g>
				<g>
					<g class="st12">
						
							<ellipse transform="matrix(0.9679 -0.2513 0.2513 0.9679 -4.0746 8.7606)" class="st7" cx="32.3" cy="20.3" rx="4.6" ry="5.7"/>
						<path d="M30.5,14.8c1.3-0.4,2.8-0.2,3.9,0.6c1.1,0.8,2,2,2.4,3.3c0.5,1.3,0.5,2.8,0.1,4.1c-0.4,1.4-1.4,2.6-2.7,3.1
							c-1.4,0.5-3,0.2-4.2-0.7c-2.4-1.8-3.3-4.9-2.3-7.7C28.1,16.4,29.2,15.4,30.5,14.8z M30.5,14.9c-1.2,0.5-2.1,1.6-2.4,3
							c-0.3,1.3-0.2,2.6,0.2,3.8c0.4,1.2,1.1,2.3,2.1,3.1c1,0.8,2.3,1.1,3.5,0.7c1.2-0.5,2.1-1.5,2.5-2.7c0.4-1.3,0.4-2.6,0-3.9
							c-0.3-1.3-1.1-2.4-2.1-3.3C33.2,14.7,31.8,14.5,30.5,14.9z"/>
					</g>
					<g>
						
							<ellipse transform="matrix(0.9908 -0.1353 0.1353 0.9908 -2.5056 4.5384)" class="st4" cx="32.1" cy="20.7" rx="4.2" ry="5.3"/>
						<path d="M30.1,15.9c1.1-0.6,2.5-0.6,3.6,0c1.1,0.6,1.9,1.6,2.3,2.8c0.4,1.2,0.5,2.5,0.2,3.7c-0.3,1.3-1,2.4-2.1,3
							c-1.1,0.7-2.5,0.7-3.7,0c-1.1-0.7-1.9-1.7-2.4-2.9c-0.4-1.2-0.5-2.5-0.2-3.7C28.3,17.7,29.1,16.6,30.1,15.9z M30.2,16
							c-1.1,0.7-1.8,1.8-2,3c-0.3,1.2-0.2,2.5,0.3,3.6c0.4,1.2,1.2,2.2,2.2,2.8c1.1,0.6,2.4,0.6,3.5,0c1.1-0.7,1.8-1.7,2.1-2.9
							c0.3-1.2,0.2-2.5-0.2-3.6c-0.4-1.2-1.2-2.2-2.3-2.8C32.6,15.3,31.3,15.3,30.2,16z"/>
					</g>
					<ellipse transform="matrix(0.9587 -0.2844 0.2844 0.9587 -4.9143 10.1109)" cx="32.4" cy="22" rx="1.9" ry="2.9"/>
				</g>
				<path class="st11" d="M55.1,3.2c-1.9,0.7-3.9,1.4-4,3.3l-1.6-1.1c-5.4-0.6-10.9-0.6-16.3,0.3c-1-1.6-1.5-2.8-0.8-3.4
					c-0.8-0.6-0.9,0.4-0.3,3.1c-1.2-1.5-3.3-2.2-6-2.2c1.6,0.7,2.4,1.7,2.1,3.3c-1.2-0.4-1.6,0.8-2.1,1.7c1.5-0.7,3,0.5,4.4,2.3
					c1.9,0.7,3.9,0.7,5.8,0c-0.4,0.4-0.9,0.4,0.5,0.9c1.1,0.4,5,0.1,4.8-0.5c0,0,0,0.6,0,0.5c0.1-0.7,3.1-1.1,3.1-0.4
					c1.8,0.3,2.5-0.4,2.7-1.7c0.5-0.5,2.9,1.9,3.3,1.5c0.3-0.2,2.4,0.3,2.2,0.7c-0.5-0.7-0.7-1.4-0.1-1.8l1.3,0.1
					c-0.6-0.2-0.2-1.2,0.5-1.1c0.2,0,1,0.4,1,0.4L56.8,8c-0.9,0.4-1.8,0.4-2.7,0C53.3,6.3,53.8,4.7,55.1,3.2z"/>
				<g>
					<path class="st5" d="M55,42.5c0.8,0,1.6,0,2.3-0.2c0.8-0.1,1.5-0.5,2-1.1c0.5-0.6,0.7-1.4,0.4-2.2c-0.2-0.8-0.6-1.4-1.1-2
						c-0.5-0.6-1.2-0.9-2-1.1c-0.7-0.2-1.5,0-2.1,0.5c-0.6,0.5-1,1.1-1.3,1.9c-0.3,0.7-0.5,1.5-0.7,2.2v0c0,0.1-0.1,0.1-0.1,0.1
						c0,0,0,0,0,0c-0.1,0-0.1-0.1-0.1-0.1c0.1-0.8,0.4-1.5,0.7-2.3c0.3-0.8,0.8-1.4,1.4-1.9c0.7-0.5,1.5-0.7,2.3-0.5
						c0.8,0.2,1.5,0.6,2,1.2c0.6,0.6,1,1.3,1.2,2c0.2,0.8,0,1.6-0.5,2.2c-0.6,0.6-1.3,0.9-2,1.1C56.6,42.5,55.8,42.5,55,42.5
						L55,42.5L55,42.5z"/>
					<path class="st5" d="M55.3,42.1c1,0.1,1.9-0.3,2.5-1c0.4-0.8,0.1-1.8-0.6-2.4c-0.3-0.3-0.7-0.4-1.1-0.2
						c-0.3,0.2-0.1,0.4-0.2,0.5c-0.2,0.4-0.4,1.2-0.7,2l0,0.1c-0.3,0.7-1.1,1.1-1.9,0.8c-0.5-0.2-0.9-0.7-0.9-1.3
						c0-0.6,0.1-1.2,0.3-1.8c0.2-0.7,0.7-1.3,1.2-1.8c0.4-0.3,0.8-0.5,1.2-0.6c0.5-0.1,0.9,0,1.3,0.2c0.6,0.3,1,0.8,1.4,1.4
						c0.3,0.5,0.5,1,0.6,1.5c0.2,0.6,0.1,1.2-0.2,1.7c-0.3,0.5-0.8,0.8-1.4,0.8C56.3,42.3,55.8,42.3,55.3,42.1
						C55.3,42.2,55.2,42.2,55.3,42.1C55.2,42.2,55.2,42.2,55.3,42.1C55.2,42.1,55.3,42.1,55.3,42.1C55.3,42.1,55.3,42.1,55.3,42.1z"
						/>
				</g>
				<path class="st3" d="M70.7,33.7c-3.8,6.6-3.6,11.8,1.7,15.1C73.3,43.7,72.7,38.5,70.7,33.7z"/>
				<path class="st3" d="M53.7,69.8c-0.4,1.7-0.9,3.3-1.6,4.9c-0.9,2.1-4.3,2.1-4.5,0.2c0.4,0,0.1-2.8-0.1-2.6
					C47,72.7,53.6,70.2,53.7,69.8z"/>
				<path class="st3" d="M16.7,9.3c-6.7,1.7-1.4,16,4.4,13.9c1.1-0.4,5-10.4,5-10.4L16.7,9.3z"/>
				<path class="st3" d="M1.6,10.5c1.4-0.4,3-0.3,2.8,0l1.9,0C6.2,9.3,5.8,8.3,4,9.3C3.1,9.4,2.3,9.9,1.6,10.5z"/>
				<ellipse class="st3" cx="9.5" cy="12.8" rx="1.3" ry="1.5"/>
				<ellipse class="st3" cx="63.7" cy="31.8" rx="0.9" ry="1.5"/>
				<path class="st3" d="M60.9,66.3c-3.3-3.6-5.3-2-6.3,3.2C56.8,68.9,59,67.8,60.9,66.3z"/>
				<g class="st12">
					<path d="M38.1,26.4c0.1-0.3,0.3-3.2,0.3-3.2l0.8,3.2L38.1,26.4z"/>
					<path class="st4" d="M38.1,26.4l0-0.8l0-0.8l0-1.6l0-1.5l0.5,1.4l0.5,1.6c0.2,0.5,0.3,1.1,0.3,1.6l0.1,0.4l-0.4,0
						C38.9,26.6,38.5,26.5,38.1,26.4z M38.1,26.4c0.5-0.1,0.8-0.2,1.1-0.3L39,26.5c-0.2-0.5-0.4-1-0.5-1.6l-0.3-1.6l0.5,0
						c-0.1,0.5-0.2,1.1-0.2,1.6l-0.1,0.8C38.3,25.9,38.2,26.1,38.1,26.4z"/>
				</g>
				<path class="st3" d="M60.2,25.4c-6.2,0.7-3.9,9.9,1.8,7.9C61.7,30.6,61,28,60.2,25.4z"/>
				<path class="st10" d="M86.4,5.2c-1.1,1.3-2,2.8-2.7,4.3c-0.7,1.6-0.8,3.3-0.3,4.9l0.4,1.2c0.2,0.4,0.3,0.8,0.3,1.2
					c0.1,0.8,0.1,1.7-0.1,2.6c-0.4,1.7-1.5,3.1-3,4L81,23.3l4.4-3l0,0l0.1,0c0.1,0.1,0.1,0.1,0,0.2c0,0-0.1,0.1-0.1,0.1
					c-0.1,0-0.2,0-0.2-0.1c0-0.1,0-0.3,0.1-0.3c0.1-0.1,0.2-0.3,0.3-0.4c0.2-0.3,0.3-0.6,0.4-1c0.2-0.7,0.3-1.4,0.3-2.1
					c-0.1-1.5-1.1-2.7-1.7-4c-0.3-0.7-0.5-1.4-0.6-2.2c0-0.8,0.3-1.5,0.8-2.1c1-1.1,2-2.1,3.1-3.2l0,0c-1,1.1-2,2.2-2.9,3.3
					c-0.5,0.5-0.7,1.2-0.7,2c0,0.7,0.2,1.4,0.6,2.1c0.6,1.3,1.6,2.5,1.7,4.1c0,0.8-0.1,1.5-0.3,2.2c-0.1,0.4-0.2,0.7-0.4,1
					c-0.1,0.2-0.2,0.3-0.3,0.5c-0.1,0.1-0.1,0.1-0.1,0.1s-0.1,0,0,0c0,0,0,0,0,0c0,0,0,0.1,0,0.1l0.1,0l-4.4,2.9L81,23.3
					c1.5-0.8,2.6-2.2,2.9-3.9c0.2-0.8,0.2-1.7,0.1-2.5c-0.1-0.4-0.2-0.8-0.3-1.2l-0.4-1.2c-0.5-1.7-0.3-3.5,0.4-5
					C84.3,7.8,85.3,6.4,86.4,5.2L86.4,5.2z"/>
				<path class="st10" d="M80.6,23.3c0.5-1.6,1.7-2.8,2-4.4c0.1-0.4,0.1-0.8,0-1.2c-0.1-0.4-0.3-0.8-0.4-1.2
					c-0.2-0.8-0.4-1.6-0.4-2.4c-0.2-1.7,0.1-3.3,0.8-4.8c0.8-1.4,1.9-2.7,3.1-3.8l0,0c-1.1,1.2-2.1,2.5-2.9,3.9
					c-0.7,1.5-1,3.1-0.9,4.7c0,0.8,0.1,1.6,0.3,2.4c0.1,0.4,0.3,0.8,0.4,1.2c0.1,0.4,0.1,0.8,0.1,1.2C82.6,20.6,81.3,21.8,80.6,23.3
					L80.6,23.3z"/>
				<path class="st10" d="M88.5,5.4c-0.2,0.3-0.4,0.6-0.6,1c-0.2,0.3-0.5,0.6-0.8,0.9c-0.5,0.6-0.9,1.3-1.4,1.8l0-0.1
					c-0.1,0.6-0.2,1.2-0.4,1.8l0,0v0h0v0l0,0c0-0.6,0.1-1.2,0.1-1.9v0l0,0c0.5-0.6,1-1.1,1.5-1.7c0.2-0.3,0.4-0.6,0.7-0.9
					C88,5.9,88.2,5.6,88.5,5.4L88.5,5.4z"/>
				<path class="st10" d="M85.4,11.2c0.1,1,0.3,1.9,0.6,2.9c0.2,1,0.5,1.9,0.7,2.9c0.1,1-0.1,2-0.6,2.9c-0.5,0.9-1.2,1.6-2,2.2h0
					l0,0h0c0,0,0,0,0,0c0,0,0,0,0,0h0c0.7-0.7,1.3-1.4,1.8-2.3c0.5-0.9,0.7-1.8,0.7-2.8c-0.1-1-0.3-1.9-0.7-2.9
					C85.5,13.2,85.3,12.2,85.4,11.2L85.4,11.2z"/>
				<path class="st10" d="M82.7,9.1c-0.6,1-1.1,2.1-1.5,3.2c-0.4,1.1-0.6,2.3-0.7,3.4c0,0.6,0,1.2,0.1,1.7c0.1,0.6,0.3,1.2,0.5,1.7
					c0,0.6-0.2,1.2-0.4,1.8c-0.2,0.6-0.3,1.1-0.5,1.7l0,0c0.1-0.6,0.2-1.2,0.3-1.7c0.1-0.6,0.2-1.1,0.3-1.7
					c-0.2-0.6-0.3-1.1-0.4-1.7c-0.1-0.6-0.1-1.2,0-1.8c0.1-1.2,0.3-2.4,0.6-3.5C81.4,11.1,81.9,10,82.7,9.1L82.7,9.1z"/>
				<path class="st10" d="M79.7,21.5c-0.2-0.9-0.3-1.8-0.3-2.7c0.1-0.9,0.2-1.8,0.3-2.7c0.2-1.8,0.8-3.6,1.7-5.2l0,0
					c-0.7,1.7-1.2,3.4-1.6,5.2c-0.2,0.9-0.2,1.8-0.2,2.7C79.6,19.7,79.7,20.6,79.7,21.5L79.7,21.5z"/>
				<path class="st10" d="M78.3,19c-0.1-0.6-0.1-1.2,0-1.8c0.1-0.6,0.2-1.2,0.3-1.8c0.2-1.2,0.6-2.4,1.2-3.4l0,0
					c-0.4,1.2-0.7,2.3-1.1,3.4c-0.2,0.6-0.2,1.2-0.2,1.8C78.5,17.8,78.4,18.4,78.3,19L78.3,19z"/>
				<path class="st10" d="M78.7,12.9c0,0.4-0.1,0.8-0.2,1.2c-0.2,0.4-0.3,0.8-0.4,1.2c0,0.4-0.1,0.8-0.1,1.2l-0.1,1.2v0h0v0l0,0
					c-0.1-0.4-0.2-0.8-0.1-1.3c0-0.4,0.1-0.8,0.3-1.2c0.1-0.4,0.2-0.8,0.3-1.2C78.3,13.7,78.5,13.3,78.7,12.9L78.7,12.9z"/>
				<path class="st3" d="M24.2,67.6c2.3,5.8,4.6,6.3,7,3.9C28.7,70.6,26.3,69.3,24.2,67.6z"/>
			</g>
			<path class="st3" d="M43.3,3.5c1.5,0.3,2.9,1,4,1.9"/>
			<path class="st3" d="M43.5,7.5c-0.1-1.2,3.3-1.3,3.5-0.4"/>
			<path class="st3" d="M42.1,8.5c0.2,0.1,0.5,0.1,0.7,0.2c0.2,0,0.5,0.1,0.7,0.2c0.2,0.1,0.5,0.3,0.7,0.4c0.2,0.1,0.5,0,0.7-0.2
				l0,0l0.2,0C45.5,9,45.8,9,46,9l0.8-0.1c0.3,0,0.5,0,0.8,0c0.3,0,0.6,0,0.9,0l0,0.1c-0.2,0.3-0.4,0.5-0.7,0.7
				c-0.3,0.2-0.6,0.3-0.9,0.3c-0.3,0-0.7,0-1-0.1c-0.3-0.1-0.6-0.2-0.9-0.4l0.2,0c-0.3,0.1-0.6,0.1-0.9,0.1
				c-0.3,0.1-0.6,0.1-0.9,0.1c-0.3,0-0.6-0.2-0.8-0.4c-0.1-0.1-0.2-0.2-0.3-0.3C42.1,8.9,42,8.7,42.1,8.5L42.1,8.5z"/>
			<path class="st3" d="M38.2,6.1c0.2-0.2,0.5-0.4,0.8-0.4c0.3-0.1,0.6-0.1,0.9-0.2c0.6-0.1,1.2-0.2,1.8-0.2l1.8,0.1
				c0.6,0,1.2,0,1.8-0.1c1.2-0.1,2.4-0.1,3.6,0c0.6,0,1.2,0.1,1.8,0.2c0.3,0.1,0.6,0.1,0.9,0.2c0.1,0,0.3,0.1,0.4,0.2
				c0.1,0.1,0.3,0.1,0.4,0.3h0c-0.2-0.2-0.5-0.2-0.8-0.2c-0.3,0-0.6,0-0.9-0.1l-1.8-0.1c-1.2-0.1-2.4-0.1-3.6-0.2
				c-0.6,0-1.2-0.1-1.8,0c-0.6,0-1.2,0.1-1.8,0.2s-1.2,0.1-1.8,0.1c-0.3,0-0.6,0-0.9,0.1C38.8,6,38.5,6,38.2,6.1L38.2,6.1z"/>
			<path class="st3" d="M42.9,10.3c0.4,0,0.9-0.1,1.3-0.2c0.4-0.1,0.9-0.2,1.3-0.4l1.3-0.4c0.4-0.1,0.8-0.4,0.9-0.8h0
				c0.1,0.3,0,0.5-0.1,0.7c-0.2,0.2-0.4,0.4-0.6,0.5c-0.4,0.2-0.9,0.3-1.4,0.4c-0.5,0.1-0.9,0.1-1.4,0.2c-0.2,0-0.5,0-0.7,0.1
				C43.3,10.4,43.1,10.4,42.9,10.3L42.9,10.3z"/>
			<path class="st3" d="M46.4,4.1c-0.5,0.3-0.9,0.6-1.3,1c-0.4,0.4-0.6,0.9-0.6,1.4l-0.5,0c0.1-0.6,0.4-1.2,0.9-1.6
				C45.3,4.6,45.8,4.3,46.4,4.1z"/>
			<path class="st3" d="M43.8,8c0.4,0.1,0.7,0.3,1.1,0.5c0.3,0.2,0.7,0.4,1,0.6l-0.1,0c0.3,0.1,0.6,0.4,0.9,0.6l0,0
				c-0.4,0-0.7-0.1-1-0.2l0,0l0,0c-0.3-0.2-0.6-0.5-0.9-0.8S44.2,8.2,43.8,8L43.8,8z"/>
			<path class="st3" d="M47.1,8c-0.6-0.2-1.2-0.5-1.8-0.8l0.1,0c-0.3,0-0.6,0.1-0.9,0c-0.3,0-0.6-0.1-0.9-0.2V7
				c0.3-0.1,0.6-0.2,0.9-0.2c0.3,0,0.6,0,0.9,0l0.1,0l0,0C46,7.2,46.6,7.6,47.1,8L47.1,8z"/>
		</g>
	</g>
</g>
</svg>
