<svg xmlns="http://www.w3.org/2000/svg" width="216.574" height="73.287" viewBox="0 0 216.574 73.287">
  <title>Asset 8</title>
  <g>
    <path d="M49.607,33.012A159.3,159.3,0,0,1,93.351,21.628a148.194,148.194,0,0,1,87.865,17.5c1.637.9,3.29,1.763,4.9,2.694l4.7,3.023c1.567,1,3.118,2.019,4.656,3.048.782.494,1.519,1.061,2.26,1.619s1.481,1.114,2.212,1.684l4.379,3.4,2.16,1.719c.706.592,1.388,1.219,2.071,1.841,2.734,2.483,5.424,4.991,8.014,7.587l-1.148,1.638c-3.411-1.371-6.722-2.829-9.989-4.313-.824-.359-1.622-.758-2.445-1.111l-2.5-1-4.944-2.037c-1.66-.645-3.231-1.444-4.91-2.024-1.669-.6-3.327-1.2-4.969-1.83l-4.921-1.855c-1.65-.58-3.326-1.087-4.981-1.633a219.162,219.162,0,0,0-40.035-9.412,190.77,190.77,0,0,0-40.5-1,227.958,227.958,0,0,0-40.367,7.1Z" fill="#c33"/>
    <polygon points="80.734 73.287 0 66.561 46.183 0 80.734 73.287" fill="#c33"/>
  </g>
</svg>
