<svg xmlns="http://www.w3.org/2000/svg" width="112.892" height="112.892" viewBox="0 0 112.892 112.892">
  <title>Asset 11turkey</title>
  <g style="isolation: isolate">
    <g>
      <rect x="0.125" y="0.125" width="112.642" height="112.642" rx="8.069" fill="#e2e3e8" stroke="#f9fcff" stroke-miterlimit="10" stroke-width="0.25"/>
      <g>
        <g>
          <g>
            <path d="M56.443,15.245V69l-4.7-.488h-.009L42.7,67.573l-4.664-.48-.009-.009L32.1,66.472l-3.749-.391-.16-.018L16.88,64.89,5.448,63.7c-5.925-1.892-1.8-14.772,4.13-12.871-5.6-3.046,1.128-15.42,6.724-12.373-5.391-4.273,3.527-15.545,8.927-11.272-3.837-6.227,12.143-16.078,15.98-9.851C40.206,10.014,55.439,7.917,56.443,15.245Z" fill="#f05a28"/>
            <path d="M56.443,24.492V69l-4.7-.488h-.009L42.7,67.573l-4.664-.48h-.009L32.1,66.472l-3.749-.382-.16-.018L16.915,64.9c-.009,0-.026-.009-.035-.009-4.672-1.314-1.954-11.423,2.762-10.161-5.178-2.079-.941-12.6,4.237-10.508-3.9-3.163,3.42-12.2,7.32-9.043C28.507,30.71,41.476,22.9,44.167,27.37,43.1,22.84,55.377,19.953,56.443,24.492Z" fill="#ffeec1" opacity="0.57"/>
          </g>
          <g>
            <path d="M107.438,63.7,96.015,64.89l-10.632,1.1-.169.018-4.806.5-4.858.506-5.312.56-.116.009-9.353.968L56.443,69V15.245c.391-2.815,2.878-4.237,5.747-4.512,4.584-.435,10.117,2.1,9.5,6.6,3.837-6.227,19.817,3.624,15.979,9.851,5.4-4.273,14.319,7,8.919,11.272,5.6-3.047,12.338,9.327,6.733,12.373C109.25,48.928,113.372,61.808,107.438,63.7Z" fill="#f05a28"/>
            <path d="M56.446,24.489c1.066-4.537,13.344-1.653,12.279,2.884C71.417,22.9,84.388,30.706,81.7,35.18c3.9-3.158,11.219,5.88,7.321,9.038,5.173-2.083,9.408,8.431,4.234,10.514,4.726-1.269,7.455,8.894,2.73,10.163l-39.535,4.11Z" fill="#ffeec1" opacity="0.57"/>
          </g>
          <g>
            <path d="M76.909,89.673c.017.551.017,1.11,0,1.661a29.32,29.32,0,0,1-1.182,7.559c-.16.569-.337,1.128-.542,1.7v.009c-.044.142-.088.275-.142.417H71.3c.044-.178.08-.355.115-.542a16.245,16.245,0,0,0-.4-6.608c-.186-.844-.426-1.715-.7-2.621-.151-.515-.329-1.039-.507-1.572Z" fill="#f05a28"/>
            <path d="M45.153,89.673c-.169.489-.328.977-.462,1.448a34.451,34.451,0,0,0-.9,3.429,14.838,14.838,0,0,0-.186,6.235c.017.08.035.16.053.231h-3.74c-.257-.7-.479-1.4-.684-2.105a30.25,30.25,0,0,1-1.11-6.058,29.1,29.1,0,0,1-.071-3.18Z" fill="#f05a28"/>
          </g>
          <path d="M83.508,87.248a49.375,49.375,0,0,1-6.6,4.086c-.969.506-1.955.968-2.941,1.395s-1.954.79-2.949,1.137c-8.651,2.993-17.747,3.073-27.225.684-1.874-.462-3.757-1.031-5.667-1.7a89.023,89.023,0,0,1-12.649-5.6q1.665-5.943,3.553-11.761a.169.169,0,0,1,.018-.071l.08-.239c.1-.3.2-.613.293-.915q1.293-3.918,2.674-7.79,1.837-5.1,3.855-10.1,2.451-6.088,5.2-12.018,1.972-4.29,4.122-8.483c1.954-1.137,3.935-2.31,5.933-1,.018.009.036.027.053.036a5.76,5.76,0,0,0,1.919.763.066.066,0,0,0,.044.009,8.389,8.389,0,0,0,2.594.116.43.43,0,0,0,.107-.009c.177-.018.346-.044.515-.071a11.631,11.631,0,0,0,3.3-1.057c.142-.071.285-.142.418-.213A8.376,8.376,0,0,1,65.086,33.3a8.471,8.471,0,0,1,4.477,1.981q2.118,4.143,3.9,8.518a125.347,125.347,0,0,1,4.37,12.525q1.454,4.969,2.576,10.188v.009q.867,4.036,1.519,8.208c.107.55.2,1.11.276,1.669.1.667.195,1.333.284,2a.017.017,0,0,1,0,.027C82.9,81.314,83.233,84.263,83.508,87.248Z" fill="#8a5d3b"/>
          <path d="M67.05,58.57a91.891,91.891,0,0,1,6.9,31.1c-12.024,6.007-24.241,4.21-36.553-1.4,1.7-11.185,4.769-21.158,9.456-29.706Z" fill="#ffeec1" opacity="0.57"/>
          <g>
            <path d="M84.1,101.8a1.027,1.027,0,0,1-.986.408l-7.719-.275-4.193-.151c-.178,0-.32-.089-.311-.187a1.782,1.782,0,0,1,.524-1.119A6.635,6.635,0,0,1,74.946,99c.257-.045.515-.08.781-.107C79.875,98.4,85.045,99.435,84.1,101.8Z" fill="#bb2026"/>
            <path d="M43.892,101.593c0,.1-.142.187-.32.187l-11.912.426a1.019,1.019,0,0,1-.977-.408c-.959-2.4,4.38-3.438,8.554-2.887,1.99.258,3.722.87,4.371,1.874A1.6,1.6,0,0,1,43.892,101.593Z" fill="#bb2026"/>
          </g>
          <g>
            <path d="M72.782,44.072h0a2.307,2.307,0,0,0-.87,2.96c3.42,7.1,4.7,14.3,3.384,21.608.892,2.783,2.134,4.315,3.758,4.488,1.2,3.7,2.643,6.131,4.769,5.049q5.3-16.775-7.984-33.551A2.333,2.333,0,0,0,72.782,44.072Z" fill="#8a5d3b"/>
            <path d="M78.673,56.275c2.634.279,4.895,2.331,6.535,7.318a2.883,2.883,0,0,1,.141.8,48.5,48.5,0,0,1-.5,9.722,2.781,2.781,0,0,1-5.35.443c-.041-.115-.08-.232-.119-.35a2.514,2.514,0,0,0-1.3-1.427,5.691,5.691,0,0,1-2.6-3.506,2.68,2.68,0,0,1-.083-1.286,30.184,30.184,0,0,0,.252-8.6A2.783,2.783,0,0,1,78.673,56.275Z" fill="#fafae6"/>
            <path d="M84.853,74.113l-1.03,4.064c-1.678.952-2.923-.6-4.019-3.008Z" fill="#fafae6"/>
          </g>
          <ellipse cx="56.178" cy="79.594" rx="15.05" ry="11.599" fill="#fff"/>
          <path d="M55.688,37.559a18.436,18.436,0,0,1,.284-2.8c-.026.9-.1,1.865-.2,2.869Z" fill="#f05a28"/>
          <path d="M53.13,36.3h.035a4.876,4.876,0,0,1,2.523,1.262.638.638,0,0,0,.08.071,11.111,11.111,0,0,1,1.519,1.838H57.5a13.965,13.965,0,0,0,2.061-12.329,14.9,14.9,0,0,0-3.589,7.622,10.283,10.283,0,0,0-.959-5.517c-.9.258-1.412,2.221-1.714,5.126.044-1.546-.16-2.612-.88-2.647-1.448,1.314-1.421,2.913-.773,4.628A4.2,4.2,0,0,1,53.13,36.3c.053-.675.106-1.323.169-1.927-.009.586-.063,1.234-.134,1.927Z" fill="#f05a28"/>
          <g>
            <path d="M41.662,47.036A35.556,35.556,0,0,0,37.887,65.8c.036.4.08.791.133,1.191a.355.355,0,0,1,.009.1c.009,0,0,.009,0,.009.027.142.045.285.071.427.045.373.107.746.178,1.119-.044.133-.089.266-.133.391a.11.11,0,0,1-.009.053,9.592,9.592,0,0,1-1.4,2.709c-.017.027-.044.045-.062.071a3.531,3.531,0,0,1-1.528,1.12,3.1,3.1,0,0,1-.63.142c-.231.719-.471,1.385-.729,1.989a.126.126,0,0,0-.017.054c-.054.115-.107.239-.169.355a6.445,6.445,0,0,1-1.617,2.407,2.288,2.288,0,0,1-.4.284c-.088.045-.186.089-.275.125a1.9,1.9,0,0,1-1.563-.16q-.427-1.346-.72-2.692c-.08-.328-.151-.648-.213-.977v-.017a2.7,2.7,0,0,1-.062-.374c-.116-.568-.2-1.136-.276-1.7-.017-.151-.035-.293-.053-.444-.026-.258-.053-.524-.071-.782-.018-.186-.027-.373-.044-.568a28.549,28.549,0,0,1,.035-4.53v-.009a30.233,30.233,0,0,1,.631-4.131q1.892-8.66,8.758-17.321a2.333,2.333,0,0,1,3.056-.559,1.873,1.873,0,0,1,.364.284A2.3,2.3,0,0,1,41.662,47.036Z" fill="#8a5d3b"/>
            <path d="M38.145,69.03a.11.11,0,0,1-.009.053.786.786,0,0,1-.053.187,7.335,7.335,0,0,1-1.342,2.522c-.017.027-.044.045-.062.071a4.014,4.014,0,0,1-1.19.915,2.6,2.6,0,0,0-.338.2,2.349,2.349,0,0,0-.959,1.225c-.044.116-.08.231-.124.347a2.312,2.312,0,0,1-.276.559.066.066,0,0,1-.035.054,2.806,2.806,0,0,1-4.628.009,2.575,2.575,0,0,1-.311-.667v-.017l-.1-.382c-.1-.551-.177-1.12-.24-1.7-.017-.151-.035-.293-.053-.444-.026-.258-.053-.524-.071-.782-.018-.186-.027-.373-.044-.568-.107-1.439-.142-2.958-.125-4.548v-.009c0-.542.018-1.1.036-1.67a3.084,3.084,0,0,1,.142-.8c.2-.587.4-1.137.613-1.644,1.563-3.8,3.6-5.427,5.925-5.676a2.747,2.747,0,0,1,1.048.1,2.806,2.806,0,0,1,1.963,3.011,28.123,28.123,0,0,0-.027,6.413c.027.4.071.791.133,1.191a.22.22,0,0,0,.018.106,2.417,2.417,0,0,0,.062.427,4.222,4.222,0,0,0,.063.471A2.729,2.729,0,0,1,38.145,69.03Z" fill="#fafae6"/>
            <path d="M33.775,75.168c-.054.115-.107.239-.169.355a7.667,7.667,0,0,1-1.617,2.407,3.553,3.553,0,0,1-.4.284c-.088.045-.186.089-.275.125a1.723,1.723,0,0,1-1.563-.16l-.7-2.763-.231-.906v-.017l-.1-.382.036.008.666.143,4.335.906Z" fill="#fafae6"/>
          </g>
        </g>
        <ellipse cx="64.819" cy="45.016" rx="3.787" ry="6.191" fill="#8a5d3b"/>
        <ellipse cx="64.819" cy="45.016" rx="3.492" ry="5.71" fill="#f8fbf6" stroke="#000" stroke-miterlimit="10" stroke-width="0.25"/>
        <ellipse cx="64.882" cy="45.043" rx="1.494" ry="2.63" opacity="0.5"/>
        <path d="M42.435,40.9a5.671,5.671,0,0,1-.674-1.864,12.633,12.633,0,0,1,.875-1.142,5.4,5.4,0,0,1,2.761-1.74,5.062,5.062,0,0,1,3.292.38,8.474,8.474,0,0,1,1.277.711,6,6,0,0,1,.126,1.972c-.7.207-1.26.327-1.793.522a5.537,5.537,0,0,0-.82-.46,2.079,2.079,0,0,0-1.391-.206,2.44,2.44,0,0,0-1.218.824,4.1,4.1,0,0,0-.564.782C43.738,40.708,43.187,40.834,42.435,40.9Z" fill="#12160d"/>
        <path d="M69.888,38.825c-.753.049-1.317.008-1.884.062a4.129,4.129,0,0,0-.675-.689A2.439,2.439,0,0,0,66,37.567a2.08,2.08,0,0,0-1.345.412,5.548,5.548,0,0,0-.742.579c-.556-.113-1.129-.147-1.851-.247a6.023,6.023,0,0,1-.171-1.969,8.43,8.43,0,0,1,1.156-.895,5.061,5.061,0,0,1,3.2-.87,5.4,5.4,0,0,1,2.99,1.306,12.668,12.668,0,0,1,1.037,1A5.688,5.688,0,0,1,69.888,38.825Z" fill="#12160d"/>
        <g>
          <path d="M73.543,51.5c-3.1,3.869-6.755,6.586-12.118,5.806l-4.979,5.049v-15.9c3.344.666,5.842,1.782,6.662,3.787C66.4,52.43,69.928,52.377,73.543,51.5Z" fill="#cbc740"/>
          <path d="M73.543,51.5a52.17,52.17,0,0,1-17.1,17.5v-5.47l2.539.168C63.824,62.132,68.681,57.327,73.543,51.5Z" fill="#cbc740"/>
          <path d="M56.446,62.357l4.979-5.049,10.646-4.076A34.249,34.249,0,0,1,58.985,63.7l-2.539-.168Z" fill="#181818"/>
          <path d="M70.058,50.891A1.684,1.684,0,0,0,71.486,51a1.768,1.768,0,0,0,.566-.38,2.9,2.9,0,0,0,.428-.56l.256-.407.351.4a3.414,3.414,0,0,1,.941,1.8,2.822,2.822,0,0,1-.476,1.928l-.1-.017c-.184-.649-.276-1.209-.427-1.729a4.749,4.749,0,0,0-.539-1.522l.607-.01a3.6,3.6,0,0,1-.656.6,2.115,2.115,0,0,1-.832.353,1.971,1.971,0,0,1-1.6-.479Z" fill="#181818"/>
          <path d="M61.632,51.533a5.887,5.887,0,0,1-.289.909c-.06.142-.053.338-.2.407a.914.914,0,0,1-.629.059l-.077-.064a.906.906,0,0,1-.068-.628c.036-.161.231-.193.358-.28a5.888,5.888,0,0,1,.832-.466Z" fill="#181818"/>
          <path d="M39.349,51.5c3.1,3.869,6.755,6.586,12.118,5.806l4.979,5.049v-15.9c-3.344.666-5.841,1.782-6.662,3.787C46.492,52.43,42.964,52.377,39.349,51.5Z" fill="#cbc740"/>
          <path d="M39.349,51.5a52.17,52.17,0,0,0,17.1,17.5v-5.47l-2.538.168C49.068,62.132,44.211,57.327,39.349,51.5Z" fill="#cbc740"/>
          <path d="M56.446,62.357l-4.979-5.049L40.822,53.232A34.249,34.249,0,0,0,53.908,63.7l2.538-.168Z" fill="#181818"/>
          <path d="M42.887,50.976a1.972,1.972,0,0,1-1.6.479,2.115,2.115,0,0,1-.832-.353,3.557,3.557,0,0,1-.655-.6l.606.01a4.747,4.747,0,0,0-.538,1.522c-.152.52-.244,1.08-.427,1.729l-.1.017a2.822,2.822,0,0,1-.475-1.928,3.413,3.413,0,0,1,.94-1.8l.352-.4.255.407a2.906,2.906,0,0,0,.429.56,1.757,1.757,0,0,0,.566.38,1.682,1.682,0,0,0,1.427-.108Z" fill="#181818"/>
          <path d="M51.338,51.47a5.888,5.888,0,0,1,.832.466c.127.087.321.119.358.28a.918.918,0,0,1-.068.628l-.078.064a.914.914,0,0,1-.629-.059c-.15-.069-.143-.265-.2-.407a5.889,5.889,0,0,1-.29-.909Z" fill="#181818"/>
        </g>
        <ellipse cx="48.073" cy="45.016" rx="3.787" ry="6.191" fill="#8a5d3b"/>
        <ellipse cx="48.073" cy="45.016" rx="3.492" ry="5.71" fill="#f8fbf6" stroke="#000" stroke-miterlimit="10" stroke-width="0.25"/>
        <ellipse cx="48.011" cy="45.043" rx="1.494" ry="2.63" opacity="0.5"/>
        <path d="M47.859,50.259c4.084-11.144,19.049-7.095,17.549-1.019a1.85,1.85,0,0,1-2.392,1.23c-5.268-1.736-9.547-2.088-14.5.388A.481.481,0,0,1,47.859,50.259Z" fill="#bb2026"/>
        <path d="M74.946,99c-2.15-.308.866-4.867-.978-6.271-.872-.666-2.084-1.416-.435-2.852-.018-.071.035-.219-.035-.2-4.366.928-4.374-1.95-3.282-5.891-8.368-.361-8.417-5.56-3.643-12.574a9.676,9.676,0,0,1,2.149-12.946c-9.571.04-12.147-3.506-.934-6.286-6.4-1.479-8.578-4.556-4.1-6.857-2.436-1.229-1.617-6.9.056-10.057a4.707,4.707,0,0,0-1.235.182c-.916.283-1.555-1.183-.66-1.564.069-.03.14-.049.209-.076l0-.011c.035-.011.07-.015.106-.025a6.911,6.911,0,0,1,2.309-.4c.023,0,.04.009.062.01s.031-.01.05-.01a.794.794,0,0,1,.473.156c.011-.011.022-.022.033-.031-5.506-4.068-5.523-8.345-1.466-10.7-4.552-2.624-6.252-9.1-1.43-11.858-2.869.275-5.356,1.7-5.747,4.512-1-7.328-16.237-5.231-15.234,2.088-3.837-6.227-19.817,3.624-15.98,9.851-5.4-4.273-14.318,7-8.927,11.272-5.6-3.047-12.329,9.327-6.724,12.373C3.645,48.928-.477,61.808,5.448,63.7L16.88,64.89c.009,0,.026.009.035.009l11.272,1.173c-.017,1.59.018,3.109.125,4.548.017.195.026.382.044.568.018.258.045.524.071.782.018.151.036.293.053.444.063.577.143,1.146.24,1.7l.1.382v.017c.062.329.133.649.213.977Q27.14,81.31,25.478,87.248a89.023,89.023,0,0,0,12.649,5.6,30.25,30.25,0,0,0,1.11,6.058c-4.174-.551-9.513.488-8.554,2.887a1.019,1.019,0,0,0,.977.408l11.912-.426c.178,0,.32-.089.32-.187a1.6,1.6,0,0,0-.284-.808,14.838,14.838,0,0,1,.186-6.235c9.478,2.389,18.574,2.309,27.225-.684a16.245,16.245,0,0,1,.4,6.608,1.782,1.782,0,0,0-.524,1.119c-.009.1.133.187.311.187l4.193.151C84.867,102.282,82.344,100.06,74.946,99ZM36.764,69.033a12.5,12.5,0,0,1-.718-9.543.444.444,0,0,1,.856.236,11.583,11.583,0,0,0,.629,8.858C37.806,69.086,37.039,69.534,36.764,69.033ZM48.2,43.559a.445.445,0,0,1,0-.889A.445.445,0,0,1,48.2,43.559Zm9.546-6.9a13,13,0,0,0,1.342-6.676c-.03-.572.858-.569.888,0a13.937,13.937,0,0,1-1.463,7.124C58.259,37.625,57.493,37.174,57.745,36.663ZM52.6,42.5c-.017-.573-.12-1.137-.163-1.709a2.713,2.713,0,0,0-.267-1.351c-.6-.931.885-1.789,1.479-.864a3.669,3.669,0,0,1,.478,1.8c.047.707.164,1.412.186,2.12C54.349,43.6,52.636,43.6,52.6,42.5Zm1.666,1.828c2.064-.963,4.65-.721,6.823-.255,1.079.232.62,1.882-.455,1.651-1.626-.349-3.944-.645-5.5.082C54.138,46.266,53.27,44.79,54.268,44.325Zm.743,7.161c-1.079.16-1.541-1.49-.455-1.652,3-.445,5.419.583,8.327.938,1.082.131,1.092,1.845,0,1.712-.776-.095-1.529-.253-2.276-.419a1.056,1.056,0,0,1-.378.262c.222-.086-.115.083-.185.131a2.69,2.69,0,0,0-.268.218,3.307,3.307,0,0,0-.315.318c.021-.029-.009.019-.033.056a.854.854,0,0,1-1.693-.118A1.892,1.892,0,0,1,58.38,51.6,10.345,10.345,0,0,0,55.011,51.486Zm1.513,8.65c.615-.563,1.206-1.15,1.8-1.74a.445.445,0,0,1,.628.629c-.59.589-1.181,1.176-1.8,1.739C56.731,61.149,56.1,60.522,56.524,60.136Zm1.3,5.873c-.16.709-.278,1.426-.449,2.132-.135.556-.991.319-.857-.236.172-.706.29-1.423.449-2.132C57.1,65.215,57.953,65.453,57.828,66.009Zm1.193-2.341a19.539,19.539,0,0,0,7.153-4.374c.427-.377,1.057.249.628.628a20.6,20.6,0,0,1-7.545,4.6A.444.444,0,0,1,59.021,63.668Z" fill="#471e0e" opacity="0.14" style="mix-blend-mode: multiply"/>
        <path d="M73.951,55.232a33.691,33.691,0,0,1,.394,13.633A3.9,3.9,0,0,0,75.8,72.543l2.3,1.784a2.563,2.563,0,0,1,.66.765l1.649,2.929a2.107,2.107,0,0,0,2.168,1.048h0l-.092-.65c-1.311-.215-2.436-2.543-3.545-5.066-1.833-.651-2.917-2.418-3.646-4.713C76.429,63.687,76.082,59.187,73.951,55.232Z" fill="#471e0e" opacity="0.14" style="mix-blend-mode: multiply"/>
        <path d="M39.413,51.829c3.909,8.369,8.944,15.14,16.208,18.744a57.551,57.551,0,0,0,10.06-8.91,56.622,56.622,0,0,1-9.235,7.342C50.767,66.125,44.97,59.481,39.413,51.829Z" fill="#471e0e" opacity="0.14" style="mix-blend-mode: multiply"/>
        <path d="M29.031,75.487l.72,2.692c1.448,1.252,3.109-.545,4.942-4.8,1.782-.669,2.877-2.455,3.552-4.923-.053,2.759-.508,5.335-2.753,7.091a1.508,1.508,0,0,1-.142.277l-1.692,2.6a3.737,3.737,0,0,1-4.575,1.409h0a.821.821,0,0,1-.5-.86Z" fill="#471e0e" opacity="0.14" style="mix-blend-mode: multiply"/>
        <path d="M79.8,72.539c1.348-1.753,1.862-4.167,1.742-7.084Z" fill="#471e0e" opacity="0.14" style="mix-blend-mode: multiply"/>
        <path d="M33.088,72.539c-1.349-1.753-1.863-4.167-1.742-7.084Z" fill="#471e0e" opacity="0.14" style="mix-blend-mode: multiply"/>
        <g opacity="0.31">
          <path d="M95.68,34.776A24.714,24.714,0,0,1,92.6,38.465a31.936,31.936,0,0,1-3.695,3.076,54.567,54.567,0,0,1-8.211,4.934l-.023-.045a60.166,60.166,0,0,0,7.992-5.208c1.249-.982,2.425-2.048,3.592-3.119s2.279-2.2,3.385-3.358Z" fill="#fff"/>
        </g>
        <g opacity="0.31">
          <path d="M85.061,22.672a24.76,24.76,0,0,1-2.492,4.107,31.879,31.879,0,0,1-3.194,3.594,54.581,54.581,0,0,1-7.381,6.106l-.03-.04a60.354,60.354,0,0,0,7.124-6.345c1.088-1.158,2.091-2.387,3.085-3.621s1.924-2.519,2.845-3.826Z" fill="#fff"/>
        </g>
        <g opacity="0.31">
          <path d="M69.129,13.193a24.842,24.842,0,0,1-1.118,4.673,31.922,31.922,0,0,1-1.943,4.4,54.589,54.589,0,0,1-5.163,8.07l-.04-.029a60.423,60.423,0,0,0,4.844-8.218c.683-1.435,1.262-2.912,1.831-4.39s1.063-2.987,1.54-4.513Z" fill="#fff"/>
        </g>
        <g opacity="0.31">
          <path d="M104.171,48.242a34.794,34.794,0,0,1-4.642,2.443,40.943,40.943,0,0,1-4.954,1.735A56.991,56.991,0,0,1,84.3,54.43l-.006-.05a62.092,62.092,0,0,0,10.16-2.342c1.653-.539,3.266-1.18,4.88-1.815s3.206-1.333,4.811-2.025Z" fill="#fff"/>
        </g>
        <g opacity="0.31">
          <path d="M107.451,55.2a34.563,34.563,0,0,1-4.642,2.443,40.777,40.777,0,0,1-4.954,1.736,56.929,56.929,0,0,1-10.273,2.009l-.006-.05a62,62,0,0,0,10.161-2.342c1.652-.538,3.266-1.179,4.88-1.815s3.206-1.332,4.81-2.025Z" fill="#fff"/>
        </g>
      </g>
    </g>
  </g>
</svg>
