<svg xmlns="http://www.w3.org/2000/svg" width="112.892" height="112.892" viewBox="0 0 112.892 112.892">
  <title>Asset 16Cat</title>
  <g style="isolation: isolate">
    <g>
      <rect x="0.125" y="0.125" width="112.642" height="112.642" rx="8.069" fill="#e2e3e8" stroke="#f9fcff" stroke-miterlimit="10" stroke-width="0.25"/>
      <g>
        <g>
          <g>
            <g>
              <polygon points="79.419 66.77 75.299 78.54 69.789 94.25 69.589 94.82 69.309 95.63 66.529 95.57 66.529 66.77 79.419 66.77" fill="#735245"/>
              <polygon points="67.539 70.3 66.529 73.19 65.769 75.36 60.909 89.25 57.699 98.44 57.439 99.17 54.889 99.11 54.659 99.1 54.659 70.3 67.539 70.3" fill="#735245"/>
              <path d="M38.149,70.3V99.1l-.38.01-2.4.06-.67-1.91-3.62-10.34L25.269,70.3Z" fill="#735245"/>
              <polygon points="48.959 66.77 48.959 95.57 48.759 95.57 46.179 95.63 45.829 94.62 45.109 92.57 39.739 77.23 38.149 72.71 37.309 70.3 36.719 68.62 36.149 66.99 36.069 66.77 48.959 66.77" fill="#735245"/>
            </g>
            <path d="M79.809,63.65A26.659,26.659,0,0,1,75.3,78.54a27.062,27.062,0,0,1-7.18,7.25c-.52.35-1.05.68-1.59,1a26.111,26.111,0,0,1-5.62,2.46l-.18.06a26.667,26.667,0,0,1-11.77,3.36c-.41.02-.84.03-1.26.03a24.68,24.68,0,0,1-2.59-.13,26.719,26.719,0,0,1-14.03-5.65,26.739,26.739,0,0,1-10.16-21c0-.74.03-1.48.09-2.21a27.1,27.1,0,0,1,1.04-5.51c.11-.36.22-.71.35-1.06a25.733,25.733,0,0,1,1.87-4.18,26.927,26.927,0,0,1,15.84-12.73c.56-.31,1.14-.61,1.73-.88a26.532,26.532,0,0,1,11.24-2.48,23.774,23.774,0,0,1,3.17.2,25.288,25.288,0,0,1,5,1.08c.28.08.56.18.83.28a25.193,25.193,0,0,1,3.15,1.37,2.1,2.1,0,0,1,.26.13c.24.12.48.26.72.39A26.779,26.779,0,0,1,79.809,63.65Z" fill="#735245"/>
            <g>
              <path d="M42.709,30.24,30.069,41.32c-.03-.13-.06-.25-.09-.37-.12-.5-.24-.98-.34-1.46-2.79-12.32-1.54-20.4,1.41-22.51.07-.04.14-.09.2-.13.13-.07.26-.13.39-.19a2.765,2.765,0,0,1,1.37-.2,2.512,2.512,0,0,1,.27.04,3.229,3.229,0,0,1,.84.26.035.035,0,0,0,.02.01c2.19.97,4.73,4.13,7.16,9.83C41.769,27.71,42.249,28.93,42.709,30.24Z"/>
              <path d="M41.689,30.7l-3.18,2.78-.27.24-5.29,4.63-2.97,2.6-.93.82c-.05-.23-.11-.46-.16-.69-2.98-13.13-1.16-21.94,2.16-24.1.07-.04.14-.09.2-.13.13-.07.26-.13.39-.19a3.032,3.032,0,0,1,1.37-.2,2.512,2.512,0,0,1,.27.04,3.866,3.866,0,0,1,.84.26.035.035,0,0,0,.02.01c2.13.97,4.44,4.14,6.37,9.88C40.919,27.88,41.319,29.23,41.689,30.7Z" fill="#4f2421"/>
              <path d="M38.51,33.483c-3.74-12.081-8.8-6.629-5.558,4.868l5.29-4.633Z" fill="#fff"/>
            </g>
            <g>
              <path d="M52.227,30.243c8.35-23.636,19.136-14.919,12.64,11.073Z"/>
              <path d="M53.246,30.7c6.227-24.58,18.825-15.058,12.641,11.073Z" fill="#4f2421"/>
              <path d="M56.421,33.483c3.741-12.081,8.8-6.629,5.559,4.868l-5.29-4.633Z" fill="#fff"/>
            </g>
            <path d="M69.879,62.03a9.305,9.305,0,0,1-.13,1.59,8.921,8.921,0,0,1-3.22,5.37c-.1.08-.21.16-.32.24l-1.5,1.07-.11.08-8.72,6.21a8.941,8.941,0,0,1-1.22.73,8.848,8.848,0,0,1-4.18.89l-1.52-.06-6.16-.23a8.473,8.473,0,0,1-3.06-.69,7.65,7.65,0,0,1-1.59-.86c-.09-.06-.18-.12-.27-.19l-7.84-5.88-4.65-3.49a8.574,8.574,0,0,1-2.32-2.64,8.676,8.676,0,0,1-1.02-5.97,7.133,7.133,0,0,1,.29-1.1,1.655,1.655,0,0,1,.06-.21c.49-1.39,1.01-2.78,1.55-4.18,1.48-3.84,3.14-7.72,4.94-11.63q.36-.8.75-1.59c.79-1.71,1.62-3.42,2.47-5.14.5-1,1.01-2.01,1.52-3.01a8.716,8.716,0,0,1,6.88-4.69,6.837,6.837,0,0,1,.79-.05h.21l11.95.13a.41.41,0,0,1,.11.01h.01a5.386,5.386,0,0,1,.8.06,8.713,8.713,0,0,1,4.21,1.67,8.9,8.9,0,0,1,2.19,2.38c.72,1.15,1.41,2.31,2.04,3.49a56.6,56.6,0,0,1,2.48,5.15c.07.15.13.29.19.44.18.44.36.88.52,1.32a57.065,57.065,0,0,1,3.54,14.88C69.749,58.06,69.859,60.02,69.879,62.03Z" fill="#613f31"/>
          </g>
          <g>
            <path d="M48.9,95.64l-.21,2.54a.318.318,0,0,1-.32.3l-8.01.08c-2.88-2.42.82-4.79,5.47-3.94a11.622,11.622,0,0,1,2.93.95C48.809,95.59,48.849,95.62,48.9,95.64Z" fill="#a78f84"/>
            <path d="M62.929,102.79l-7.98-.73a.31.31,0,0,1-.29-.32V99.19a2.094,2.094,0,0,1,.23-.08,10.8,10.8,0,0,1,2.81-.67C62.449,97.92,66.019,100.6,62.929,102.79Z" fill="#a78f84"/>
            <path d="M74.8,99.17l-4.29-.4-3.68-.34a.318.318,0,0,1-.3-.32V95.57a11.579,11.579,0,0,1,3.06-.75,1.526,1.526,0,0,1,.3-.03C74.479,94.42,77.819,97.02,74.8,99.17Z" fill="#a78f84"/>
            <path d="M37.839,98.29l-.07.82-.14,1.71a.318.318,0,0,1-.32.3l-8.01.08c-2.87-2.41.79-4.76,5.4-3.94A11.312,11.312,0,0,1,37.839,98.29Z" fill="#a78f84"/>
          </g>
        </g>
        <path d="M79.916,60.09a7.527,7.527,0,0,0,4.338-3.164,12.567,12.567,0,0,0,1.54-4.125,24.888,24.888,0,0,0,.436-4.414,20.241,20.241,0,0,0-.169-3.867,4.133,4.133,0,0,0-.516-1.4,1.273,1.273,0,0,0-.2-.285l-.11-.137-.408-.318a16.868,16.868,0,0,1-1.586-1.445,12.994,12.994,0,0,1-2.558-3.719,10.61,10.61,0,0,1-.384-1c-.108-.317-.223-.625-.3-.958a17.155,17.155,0,0,1-.441-2,13.347,13.347,0,0,1,1.336-8.005,17.931,17.931,0,0,1,4.689-5.592l-.165.189a12.721,12.721,0,0,0,3.068-4.361A4.955,4.955,0,0,0,88.708,13a6.756,6.756,0,0,0-1.065-2.56l.743-.67A8.221,8.221,0,0,1,90.478,12.4a6.857,6.857,0,0,1,.646,3.548,11.319,11.319,0,0,1-.847,3.448A21.827,21.827,0,0,1,88.721,22.4l-.165.189a14.49,14.49,0,0,0-2.489,4.776,7.587,7.587,0,0,0,.206,4.437,10.455,10.455,0,0,0,.449,1.042,5.5,5.5,0,0,0,.277.515,3.562,3.562,0,0,0,.269.441A5.621,5.621,0,0,0,88.6,35.048a8.031,8.031,0,0,0,.9.519l.251.121.53.331a8.885,8.885,0,0,1,1.033.712,13.455,13.455,0,0,1,3.241,3.659,14.906,14.906,0,0,1,2.08,8.489A16.461,16.461,0,0,1,94.058,56.7a13.281,13.281,0,0,1-6.5,5.466,8.79,8.79,0,0,1-4.273.465,7.389,7.389,0,0,1-3.577-1.567Z" fill="#735245"/>
        <path d="M38.023,67.027H52.3a0,0,0,0,1,0,0V69.47a7.175,7.175,0,0,1-7.175,7.175h0a7.1,7.1,0,0,1-7.1-7.1v-2.52a0,0,0,0,1,0,0Z" transform="translate(2.968 -1.783) rotate(2.338)" fill="#4f2421"/>
        <path d="M38.04,66.148H52.313a0,0,0,0,1,0,0v0a7.175,7.175,0,0,1-7.175,7.175h0a7.1,7.1,0,0,1-7.1-7.1v-.076a0,0,0,0,1,0,0Z" transform="translate(2.883 -1.785) rotate(2.338)" fill="#735245"/>
        <path d="M62.578,61.518c1.122,6.407-16.414,9.653-17.384,7.872-1.666,1.7-18.638-2.242-17.385-7.872.945-4.244,7.784-7.873,17.385-7.873S61.828,57.235,62.578,61.518Z" fill="#4f2421"/>
        <path d="M45.194,52.006h0a4.074,4.074,0,0,1,4.074,4.074v.639A1.966,1.966,0,0,1,47.3,58.685H43.086a1.966,1.966,0,0,1-1.966-1.966v-.639a4.074,4.074,0,0,1,4.074-4.074Z" fill="#a35556"/>
        <path d="M48.687,56.351a1.4,1.4,0,0,1-.187.836c-.117.225-.38.307-.581.451a13.794,13.794,0,0,1-1.269.8l-.071-.07a13.773,13.773,0,0,1,.768-1.286c.139-.2.215-.469.438-.591a1.4,1.4,0,0,1,.831-.207Z"/>
        <path d="M41.771,56.281a1.4,1.4,0,0,1,.831.207c.223.122.3.387.438.591a13.773,13.773,0,0,1,.768,1.286l-.071.07a13.794,13.794,0,0,1-1.269-.8c-.2-.144-.463-.226-.581-.451a1.4,1.4,0,0,1-.187-.836Z"/>
        <g opacity="0.61">
          <path d="M45.133,58.733c-.107.056-.115.289-.116.455a4.8,4.8,0,0,0,.044.546c.048.364.119.727.2,1.088.161.721.357,1.436.573,2.143s.458,1.405.72,2.09c.133.342.274.68.431,1a4.437,4.437,0,0,0,.254.454,1.11,1.11,0,0,0,.134.173c.033.059.1.014-.085.022l-.061.024a.955.955,0,0,1,.235-.05l.117-.008.229-.013.447-.02.891-.03,1.777-.054c1.184-.037,2.368-.079,3.551-.079.592.016,1.184.014,1.776.046a2.837,2.837,0,0,0,1.508-.25,2.79,2.79,0,0,0,1.174-1.033c.3-.5.617-1.013.949-1.506a.05.05,0,0,1,.09.042c-.178.574-.362,1.131-.579,1.7a3.249,3.249,0,0,1-1.243,1.494,3.422,3.422,0,0,1-1.906.524c-.592.024-1.183.014-1.775.023l-6.948-.2-.061.023a.561.561,0,0,1-.558-.221,1.8,1.8,0,0,1-.194-.276,4.7,4.7,0,0,1-.264-.533c-.152-.355-.28-.711-.4-1.069-.238-.715-.428-1.44-.6-2.168s-.319-1.462-.431-2.2c-.056-.37-.1-.742-.127-1.117a4.66,4.66,0,0,1-.006-.567c.032-.178-.012-.413.227-.548a.049.049,0,0,1,.048.085h0Z"/>
        </g>
        <g opacity="0.61">
          <path d="M45.133,58.636c.239.135.2.37.228.548a4.871,4.871,0,0,1-.007.567c-.024.375-.071.747-.127,1.117-.112.74-.261,1.473-.431,2.2s-.362,1.453-.6,2.168c-.118.358-.245.714-.4,1.069a4.7,4.7,0,0,1-.264.533,1.731,1.731,0,0,1-.194.276.56.56,0,0,1-.557.221l-.062-.023-6.948.2c-.592-.009-1.183,0-1.775-.023a3.422,3.422,0,0,1-1.906-.524,3.249,3.249,0,0,1-1.243-1.494c-.217-.567-.4-1.124-.579-1.7a.049.049,0,0,1,.033-.063.051.051,0,0,1,.057.021c.332.493.648,1.009.949,1.506a2.79,2.79,0,0,0,1.174,1.033,2.839,2.839,0,0,0,1.509.25c.591-.032,1.183-.03,1.775-.046,1.183,0,2.367.042,3.551.079l1.778.054.89.03.447.02.229.013.117.008a.955.955,0,0,1,.235.05l-.061-.024c-.187-.008-.118.037-.085-.022A1.11,1.11,0,0,0,43,66.51a4.437,4.437,0,0,0,.254-.454c.157-.321.3-.659.431-1,.262-.685.5-1.384.72-2.09s.412-1.422.573-2.143c.08-.361.151-.724.2-1.088a4.582,4.582,0,0,0,.044-.546c0-.166-.009-.4-.116-.455l-.021-.011a.049.049,0,0,1-.02-.066.048.048,0,0,1,.066-.02Z"/>
        </g>
        <g>
          <ellipse cx="54.514" cy="45.801" rx="7.164" ry="8.195" fill="#fff"/>
          <path d="M61.729,45.8a9.994,9.994,0,0,1-1.746,5.792,6.541,6.541,0,0,1-5.469,2.819A7.2,7.2,0,0,1,49.162,51.5a9.893,9.893,0,0,1-2.086-5.7,8.874,8.874,0,0,1,1.848-5.891,7.135,7.135,0,0,1,5.59-2.837A6.8,6.8,0,0,1,60,40,10,10,0,0,1,61.729,45.8Zm-.1,0a7.963,7.963,0,0,0-2.143-5.384,6.841,6.841,0,0,0-4.972-2.277,6.463,6.463,0,0,0-4.862,2.366,8.957,8.957,0,0,0-2.029,5.3,8.034,8.034,0,0,0,1.79,5.49,6.381,6.381,0,0,0,5.1,2.289A7.207,7.207,0,0,0,59.5,51.2,7.961,7.961,0,0,0,61.629,45.8Z"/>
        </g>
        <ellipse cx="54.336" cy="46.274" rx="1.089" ry="1.563"/>
        <g>
          <circle cx="39.156" cy="44.923" r="6.182" fill="#fff"/>
          <path d="M45.387,44.923a7.054,7.054,0,0,1-1.638,4.593,5.785,5.785,0,0,1-4.593,2.005,6.641,6.641,0,0,1-4.486-2.112,6.987,6.987,0,0,1-1.97-4.486,6.277,6.277,0,0,1,1.752-4.7,6.489,6.489,0,0,1,4.7-2.012,6.086,6.086,0,0,1,4.6,2.112A7.045,7.045,0,0,1,45.387,44.923Zm-.1,0a5.46,5.46,0,0,0-1.993-4.138,6.421,6.421,0,0,0-4.138-1.51,5.924,5.924,0,0,0-4.039,1.61,6.138,6.138,0,0,0-1.869,4.038A5.5,5.5,0,0,0,34.9,49.18a5.754,5.754,0,0,0,4.257,1.509,6.926,6.926,0,0,0,4.149-1.617A5.461,5.461,0,0,0,45.287,44.923Z"/>
        </g>
        <ellipse cx="39.156" cy="45.801" rx="1.089" ry="1.563"/>
        <path d="M61.354,56.432a11.641,11.641,0,0,0,1.69-1.367L64.7,53.588a15.025,15.025,0,0,1,1.668-1.465,8.681,8.681,0,0,1,2-1.057l.064.077A8.141,8.141,0,0,1,67,52.9a13.368,13.368,0,0,1-1.8,1.315l-1.852,1.249-.96.581a3.821,3.821,0,0,1-1.047.486Z" fill="#4f2421"/>
        <path d="M61.354,56.432a11.641,11.641,0,0,0,1.69-1.367L64.7,53.588a15.025,15.025,0,0,1,1.668-1.465,8.681,8.681,0,0,1,2-1.057l.064.077A8.141,8.141,0,0,1,67,52.9a13.368,13.368,0,0,1-1.8,1.315l-1.852,1.249-.96.581a3.821,3.821,0,0,1-1.047.486Z"/>
        <path d="M62.933,60.033a11.6,11.6,0,0,0,1.829-1.176l1.807-1.29a15.058,15.058,0,0,1,1.816-1.276,8.7,8.7,0,0,1,2.106-.834l.055.084a8.169,8.169,0,0,1-1.619,1.59A13.249,13.249,0,0,1,67,58.244l-1.977,1.042L64,59.759a3.858,3.858,0,0,1-1.093.371Z"/>
        <path d="M63.222,64.839a11.6,11.6,0,0,0,2.117-.5l2.135-.609a15.153,15.153,0,0,1,2.139-.594,8.685,8.685,0,0,1,2.263-.079l.024.1a8.174,8.174,0,0,1-2.058.956,13.387,13.387,0,0,1-2.194.4l-2.211.319-1.117.1a3.835,3.835,0,0,1-1.154-.017Z"/>
        <path d="M29.048,56.531A3.821,3.821,0,0,1,28,56.045l-.96-.581-1.852-1.249a13.368,13.368,0,0,1-1.8-1.315,8.17,8.17,0,0,1-1.438-1.757l.064-.077a8.681,8.681,0,0,1,2,1.057,14.935,14.935,0,0,1,1.668,1.465l1.657,1.477a11.594,11.594,0,0,0,1.691,1.367Z"/>
        <path d="M27.479,60.13a3.858,3.858,0,0,1-1.093-.371l-1.017-.473-1.977-1.042a13.249,13.249,0,0,1-1.932-1.113,8.169,8.169,0,0,1-1.619-1.59l.055-.084A8.7,8.7,0,0,1,22,56.291a15.058,15.058,0,0,1,1.816,1.276l1.807,1.29a11.6,11.6,0,0,0,1.829,1.176Z"/>
        <path d="M27.221,64.922a3.834,3.834,0,0,1-1.154.017l-1.117-.1-2.211-.319a13.356,13.356,0,0,1-2.193-.4,8.164,8.164,0,0,1-2.059-.956l.024-.1a8.685,8.685,0,0,1,2.263.079,15.153,15.153,0,0,1,2.139.594l2.135.609a11.6,11.6,0,0,0,2.117.5Z"/>
        <path d="M44.562,44.9a1.785,1.785,0,0,1,1.022-.183c.171.036.341.109.512.127a1.541,1.541,0,0,0,.511-.056,2.969,2.969,0,0,1,2.044.112v.05a2.963,2.963,0,0,1-2.044.112A1.568,1.568,0,0,0,46.1,45c-.171.019-.341.092-.512.127a1.777,1.777,0,0,1-1.022-.183Z"/>
        <path d="M44.562,46.249a1.785,1.785,0,0,1,1.022-.183c.171.036.341.109.512.127a1.541,1.541,0,0,0,.511-.056,2.969,2.969,0,0,1,2.044.112v.05a2.963,2.963,0,0,1-2.044.112,1.541,1.541,0,0,0-.511-.056c-.171.018-.341.091-.512.127a1.785,1.785,0,0,1-1.022-.183Z"/>
        <path d="M44.562,47.812a1.785,1.785,0,0,1,1.022-.183c.171.036.341.109.512.127a1.541,1.541,0,0,0,.511-.056,2.969,2.969,0,0,1,2.044.112v.05a2.963,2.963,0,0,1-2.044.112,1.568,1.568,0,0,0-.511-.056c-.171.019-.341.091-.512.127a1.777,1.777,0,0,1-1.022-.183Z"/>
        <g>
          <circle cx="55.295" cy="58.617" r="0.217" fill="#4f2421"/>
          <path d="M55.524,58.617a.464.464,0,0,1-.02.209.194.194,0,0,1-.209.112.49.49,0,0,1-.286-.321.281.281,0,0,1,.286-.346C55.514,58.261,55.552,58.522,55.524,58.617Zm-.025,0c-.021-.137-.191-.083-.2-.088-.038.013-.1.006-.149.088-.065.1.089.183.149.114C55.316,58.7,55.479,58.756,55.5,58.617Z"/>
        </g>
        <g>
          <circle cx="54.657" cy="56.483" r="0.217" fill="#4f2421"/>
          <path d="M54.886,56.483a.466.466,0,0,1-.02.209.193.193,0,0,1-.209.111.491.491,0,0,1-.286-.32.281.281,0,0,1,.286-.346C54.876,56.126,54.914,56.388,54.886,56.483Zm-.025,0c-.021-.137-.191-.084-.2-.089-.038.013-.1.007-.149.089-.065.1.089.183.149.113C54.678,56.564,54.841,56.621,54.861,56.483Z"/>
        </g>
        <g>
          <circle cx="59.379" cy="59.83" r="0.217" fill="#4f2421"/>
          <path d="M59.608,59.83a.465.465,0,0,1-.02.209.2.2,0,0,1-.209.112.494.494,0,0,1-.286-.321.281.281,0,0,1,.286-.346C59.6,59.473,59.636,59.735,59.608,59.83Zm-.025,0c-.021-.137-.191-.084-.2-.088-.038.013-.1.006-.149.088-.065.1.088.183.149.114C59.4,59.911,59.562,59.969,59.583,59.83Z"/>
        </g>
        <g>
          <circle cx="57.659" cy="61.777" r="0.217" fill="#4f2421"/>
          <path d="M57.889,61.777a.466.466,0,0,1-.021.209.193.193,0,0,1-.209.112.488.488,0,0,1-.285-.321.281.281,0,0,1,.285-.346C57.878,61.421,57.916,61.682,57.889,61.777Zm-.025,0c-.021-.137-.192-.083-.2-.088-.037.013-.1.006-.148.088-.065.1.088.183.148.114C57.681,61.859,57.843,61.916,57.864,61.777Z"/>
        </g>
        <g>
          <circle cx="56.204" cy="60.909" r="0.217" fill="#4f2421"/>
          <path d="M56.434,60.909a.467.467,0,0,1-.021.209.193.193,0,0,1-.209.112.493.493,0,0,1-.285-.321.281.281,0,0,1,.285-.346C56.423,60.552,56.461,60.814,56.434,60.909Zm-.025,0c-.021-.137-.192-.084-.2-.088-.037.013-.1.006-.148.088-.065.1.088.183.148.114C56.226,60.99,56.388,61.048,56.409,60.909Z"/>
        </g>
        <g>
          <circle cx="59.813" cy="61.343" r="0.217" fill="#4f2421"/>
          <path d="M60.042,61.343a.465.465,0,0,1-.02.209.194.194,0,0,1-.209.112.492.492,0,0,1-.286-.321A.281.281,0,0,1,59.813,61C60.032,60.987,60.07,61.248,60.042,61.343Zm-.025,0c-.021-.137-.191-.084-.2-.088-.038.013-.1.006-.149.088-.065.1.089.183.149.114C59.834,61.424,60,61.482,60.017,61.343Z"/>
        </g>
        <g>
          <circle cx="57.442" cy="58.4" r="0.217" fill="#4f2421"/>
          <path d="M57.672,58.4a.481.481,0,0,1-.021.209.194.194,0,0,1-.209.112.488.488,0,0,1-.285-.321.281.281,0,0,1,.285-.346C57.661,58.044,57.7,58.305,57.672,58.4Zm-.025,0c-.021-.137-.192-.083-.2-.088-.037.013-.1.006-.148.088-.065.1.088.183.148.114C57.464,58.482,57.626,58.539,57.647,58.4Z"/>
        </g>
        <g>
          <circle cx="32.264" cy="57.791" r="0.217" fill="#4f2421"/>
          <path d="M32.493,57.791a.465.465,0,0,1-.02.209.2.2,0,0,1-.209.112.492.492,0,0,1-.286-.321.281.281,0,0,1,.286-.346C32.483,57.435,32.521,57.7,32.493,57.791Zm-.025,0c-.021-.137-.191-.083-.2-.088-.038.013-.1.006-.149.088-.065.1.088.183.149.114C32.285,57.872,32.447,57.93,32.468,57.791Z"/>
        </g>
        <g>
          <circle cx="31.248" cy="59.613" r="0.217" fill="#4f2421"/>
          <path d="M31.477,59.613a.453.453,0,0,1-.021.209.193.193,0,0,1-.208.112.494.494,0,0,1-.286-.321.281.281,0,0,1,.286-.346C31.467,59.256,31.505,59.518,31.477,59.613Zm-.025,0c-.021-.137-.191-.084-.2-.088-.038.013-.1.006-.149.088-.065.1.088.183.149.114C31.269,59.694,31.431,59.752,31.452,59.613Z"/>
        </g>
        <g>
          <circle cx="34.658" cy="57.574" r="0.217" fill="#4f2421"/>
          <path d="M34.888,57.574a.482.482,0,0,1-.021.209.194.194,0,0,1-.209.112.492.492,0,0,1-.286-.321.281.281,0,0,1,.286-.346C34.877,57.218,34.915,57.479,34.888,57.574Zm-.025,0c-.022-.137-.192-.084-.2-.088-.037.013-.1.006-.149.088-.065.1.089.183.149.114C34.679,57.655,34.842,57.713,34.863,57.574Z"/>
        </g>
        <g>
          <circle cx="37.476" cy="59.731" r="0.217" fill="#4f2421"/>
          <path d="M37.706,59.731a.454.454,0,0,1-.021.209.193.193,0,0,1-.209.111.492.492,0,0,1-.285-.32.281.281,0,0,1,.285-.346C37.7,59.374,37.733,59.636,37.706,59.731Zm-.025,0c-.021-.137-.191-.084-.2-.089-.037.013-.1.007-.148.089-.065.1.088.183.148.113C37.5,59.812,37.66,59.869,37.681,59.731Z"/>
        </g>
        <g>
          <circle cx="34.019" cy="59.514" r="0.217" fill="#4f2421"/>
          <path d="M34.248,59.514a.466.466,0,0,1-.02.209.2.2,0,0,1-.209.111.491.491,0,0,1-.286-.32.281.281,0,0,1,.286-.347C34.238,59.157,34.276,59.418,34.248,59.514Zm-.025,0c-.021-.138-.191-.084-.2-.089-.038.013-.1.006-.149.089-.065.1.088.183.149.113C34.04,59.6,34.2,59.652,34.223,59.514Z"/>
        </g>
        <g>
          <circle cx="32.481" cy="61.242" r="0.217" fill="#4f2421"/>
          <path d="M32.71,61.242a.464.464,0,0,1-.02.209.194.194,0,0,1-.209.112.49.49,0,0,1-.286-.321.281.281,0,0,1,.286-.346C32.7,60.886,32.738,61.147,32.71,61.242Zm-.025,0c-.021-.137-.191-.083-.2-.088-.038.013-.1.006-.149.088-.065.1.089.183.149.114C32.5,61.324,32.665,61.381,32.685,61.242Z"/>
        </g>
        <g>
          <circle cx="33.801" cy="56.483" r="0.217" fill="#4f2421"/>
          <path d="M34.031,56.483a.454.454,0,0,1-.021.209.193.193,0,0,1-.209.111.492.492,0,0,1-.285-.32.281.281,0,0,1,.285-.346C34.02,56.126,34.058,56.388,34.031,56.483Zm-.025,0c-.021-.137-.191-.084-.2-.089-.037.013-.1.007-.148.089-.065.1.088.183.148.113C33.823,56.564,33.985,56.621,34.006,56.483Z"/>
        </g>
        <path d="M69.889,94.79c-.03-.18-.06-.36-.1-.54-.43-2.46-1-5.32-1.67-8.46-5.688-.8-7.983-12.376-3.52-15.41a.235.235,0,0,1-.02-.08c-9.17-.084-12.62-6.261-13.319-13.265-.5-.084-1.035.011-1.439-.386a1.023,1.023,0,0,1-.283-.486,5.245,5.245,0,0,1-.866-.169.891.891,0,0,1-.513.07.788.788,0,0,1-.281.026c-.853-.082-1.894.2-2.414-.689a2.25,2.25,0,0,1-.159-1.432.96.96,0,0,1,.851-1.178.947.947,0,0,1,1.3-.051c.234.2.5.418.757.644a.614.614,0,0,1,.1.082c.007.008.011.016.018.025.115.1.235.2.338.316a.93.93,0,0,1,.593-.105c.629.1,1.244.213,1.853.33.029-8.524,3.407-17.17,5.135-16.962,0,0-4.634-9.964-2.68-10.31v-.02a.41.41,0,0,0-.11-.01l-11.95-.13H41.3c-2.43-5.7-4.97-8.86-7.16-9.83a.035.035,0,0,1-.02-.01,3.229,3.229,0,0,0-.84-.26,2.512,2.512,0,0,0-.27-.04,2.765,2.765,0,0,0-1.37.2c-.13.06-.26.12-.39.19-.06.04-.13.09-.2.13-3.32,2.16-5.14,10.97-2.16,24.1-1.8,3.91-3.46,7.79-4.94,11.63-.54,1.4-1.06,2.79-1.55,4.18a1.655,1.655,0,0,0-.06.21,7.133,7.133,0,0,0-.29,1.1,27.1,27.1,0,0,0-1.04,5.51c-.06.73-.09,1.47-.09,2.21a26.739,26.739,0,0,0,10.16,21L34.7,97.26c-4.61-.82-8.27,1.53-5.4,3.94l8.01-.08a.318.318,0,0,0,.32-.3l.14-1.71.38-.01V90.94a26.47,26.47,0,0,0,6.96,1.63l.72,2.05c-4.65-.85-8.35,1.52-5.47,3.94l8.01-.08a.318.318,0,0,0,.32-.3l.21-2.54c-.05-.02-.09-.05-.14-.07h.2v-2.9a26.791,26.791,0,0,0,5.7-.89V99.1l.23.01a2.094,2.094,0,0,0-.23.08v2.55a.31.31,0,0,0,.29.32l7.98.73c3.09-2.19-.48-4.87-5.23-4.35l3.21-9.19a26.111,26.111,0,0,0,5.62-2.46V98.11a.318.318,0,0,0,.3.32l3.68.34C70.359,97.62,70.149,96.28,69.889,94.79Z" fill="#735245" opacity="0.14" style="mix-blend-mode: multiply"/>
        <path d="M71.907,47.347a21.567,21.567,0,0,1,3.356,4.439A20.136,20.136,0,0,1,77.282,57a20.6,20.6,0,0,1,.575,5.569,24,24,0,0,1-.871,5.514l-.049-.01a43.25,43.25,0,0,0,.42-5.515,26.419,26.419,0,0,0-.466-5.471,20.567,20.567,0,0,0-5.021-9.7Z" fill="#e9b090"/>
        <path d="M86.312,21.89a10.421,10.421,0,0,0,2.723-4.426,12.236,12.236,0,0,0,.374-2.559,24.854,24.854,0,0,0,0-2.632l.049-.009a8.3,8.3,0,0,1,.454,2.654,7.886,7.886,0,0,1-.492,2.667,10.068,10.068,0,0,1-3.071,4.342Z" fill="#e9b090"/>
        <path d="M88.008,36.793a10.471,10.471,0,0,1,2.345,1.094,9.423,9.423,0,0,1,1.97,1.7,7.68,7.68,0,0,1,2.1,4.648l-.049.006a7.816,7.816,0,0,0-2.335-4.377A18.172,18.172,0,0,0,90.072,38.3c-.67-.509-1.387-.956-2.086-1.463Z" fill="#e9b090"/>
        <path d="M59.182,30.464A33.954,33.954,0,0,1,61.858,34.4a35.658,35.658,0,0,1,2.083,4.285,37.636,37.636,0,0,1,2.613,9.128l-.049.008a40.226,40.226,0,0,0-2.93-8.975c-.658-1.432-1.415-2.813-2.153-4.2s-1.524-2.758-2.281-4.152Z" fill="#e9b090"/>
        <path d="M61.656,61.037a14.485,14.485,0,0,0-1.679-1.959,12.661,12.661,0,0,0-1.983-1.6,25.19,25.19,0,0,0-4.755-2.1l.015-.048A22.036,22.036,0,0,1,58.2,57.129a7.945,7.945,0,0,1,2.14,1.6A6.707,6.707,0,0,1,61.7,61.014Z" fill="#e9b090"/>
        <path d="M73,83.189a11.9,11.9,0,0,1-.4,1.813c-.175.59-.433,1.151-.664,1.721q-.678,1.716-1.4,3.417l-.047-.016Q71,88.35,71.553,86.589c.18-.588.333-1.186.569-1.754a11.876,11.876,0,0,1,.829-1.663Z" fill="#e9b090"/>
        <path d="M59.565,91.488a7.893,7.893,0,0,1-.309,1.482,12.4,12.4,0,0,1-.567,1.386q-.582,1.38-1.2,2.746l-.047-.017q.419-1.442.875-2.868a12.587,12.587,0,0,1,.473-1.421,7.889,7.889,0,0,1,.731-1.325Z" fill="#e9b090"/>
        <path d="M50.389,71.839a1.668,1.668,0,0,1-.69,1.508,3.5,3.5,0,0,1-1.55.606,12.772,12.772,0,0,1-3.2.154v-.05a15.871,15.871,0,0,0,3.1-.492,5.977,5.977,0,0,0,1.357-.625,2.1,2.1,0,0,0,.93-1.106Z" fill="#e9b090"/>
      </g>
    </g>
  </g>
</svg>
