<svg xmlns="http://www.w3.org/2000/svg" width="112.892" height="112.892" viewBox="0 0 112.892 112.892">
  <title>Asset 8cow</title>
  <g style="isolation: isolate">
    <g>
      <rect x="0.125" y="0.125" width="112.642" height="112.642" rx="8.069" fill="#e2e3e8" stroke="#f9fcff" stroke-miterlimit="10" stroke-width="0.25"/>
      <g>
        <g>
          <g>
            <g>
              <path d="M97.688,23.688c5.913,8.229-.357,11.711-4.931,12.947-.175-2.728-7.21-8.928.258-12.42,1.332-4.838,5.237-7.493,8.686-6.407Z" fill="#fff"/>
              <path d="M93.639,36.374A27.867,27.867,0,0,0,81.38,44.857l-.574-.929c3.44-3.969,7.316-6.779,11.811-7.944" fill="#fff"/>
            </g>
            <g>
              <g>
                <g>
                  <g>
                    <path d="M36.7,25.525l-5.55,11.6c-4.322,4.229-9.831-6.355-14.917-12.049-1.114-1.248-1.826-2.012-2.61-2.125a1.293,1.293,0,0,0-.206-.011c-1.888,3.6-3.91-.154.052-.784v.011c1.31-.836,2.279-1.334,2.8,1.018C18.877,18.5,26.792,21.526,36.7,25.525Z" fill="#fff"/>
                    <path d="M64.265,22.652c.656-1.312,13.325,3.187,13.865,3.966,1.56,2.25,10.93-6.365,9.92-7.525.759,3.4.761,6.286-2.2,7.134Q83.75,37.171,71.1,36.194Z" fill="#fff"/>
                  </g>
                  <polygon points="84.404 61.121 73.98 90.896 71.113 90.831 71.113 61.121 84.404 61.121" fill="#fff"/>
                  <polygon points="80.908 61.875 73.171 90.896 71.044 90.832 71.044 61.875 80.908 61.875" fill="#fff" opacity="0.14" style="mix-blend-mode: multiply"/>
                  <polygon points="39.692 61.121 50.116 90.896 52.983 90.831 52.983 61.121 39.692 61.121" fill="#fff"/>
                  <polygon points="41.891 61.121 49.861 90.896 52.053 90.831 52.053 61.121 41.891 61.121" fill="#fff" opacity="0.14" style="mix-blend-mode: multiply"/>
                  <path d="M71.113,81.777c.728-.44,6.089-5,6.948-5.769.957-.851,2.026-6.22,1.863-6.243.989.126,1.645.676,0,4.152l-2.752,7.86C75.459,85.777,71.452,85,71.113,81.777Z" fill="#fff"/>
                  <path d="M74.072,76.936c3.03,15.636-16.418,19.643-24.627,8.7Z" fill="#fff"/>
                  <polygon points="72.155 64.77 61.731 94.544 58.864 94.479 58.864 64.77 72.155 64.77" fill="#fff"/>
                  <polygon points="28.547 64.77 38.971 94.544 41.838 94.479 41.838 64.77 28.547 64.77" fill="#fff"/>
                  <polygon points="30.325 64.77 38.667 94.544 40.96 94.479 40.96 64.77 30.325 64.77" fill="#fff" opacity="0.14" style="mix-blend-mode: multiply"/>
                  <polygon points="68.59 65.524 60.854 94.544 58.726 94.481 58.726 65.524 68.59 65.524" fill="#fff" opacity="0.14" style="mix-blend-mode: multiply"/>
                </g>
                <path d="M84.814,57.906a27.615,27.615,0,0,1-19.693,26.47A27.415,27.415,0,0,1,54.64,87.708a25.515,25.515,0,0,1-2.961.165A27.623,27.623,0,0,1,43.86,33.757,27.288,27.288,0,0,1,57.24,30.28,27.6,27.6,0,0,1,84.814,57.906Z" fill="#fff"/>
                <path d="M52.983,30.61C6.515,40.788,20.646,97.358,60.81,85.792c14.721-4.24,13.76-9.418,1.11-8.925C44.919,77.53,46.306,51.916,52.983,30.61Z" fill="#fff" opacity="0.14" style="mix-blend-mode: multiply"/>
                <ellipse cx="69.055" cy="62.286" rx="8.442" ry="7.171" fill="#fff"/>
                <path d="M57.289,81.969A8.611,8.611,0,0,1,55.165,87.7a29.5,29.5,0,0,1-3.294.177,31.813,31.813,0,0,1-9.424-1.42,8.8,8.8,0,0,1-1.217-4.484,8.04,8.04,0,1,1,16.059,0Z" fill="#fff"/>
                <path d="M44.249,71.218H58.973a0,0,0,0,1,0,0v.1a3.094,3.094,0,0,1-3.094,3.094H47.267a3.018,3.018,0,0,1-3.018-3.018v-.174a0,0,0,0,1,0,0Z" transform="translate(3.014 -2.045) rotate(2.338)" fill="#fff"/>
                <ellipse cx="30.618" cy="66.294" rx="5.408" ry="7.218" fill="#fff"/>
                <path d="M62.317,19.88l-22.542-.261C32.9,32.489,27.2,45.1,23.486,57.277L43.814,72.523l13.812.521,16.81-11.988A60.849,60.849,0,0,0,62.317,19.88Z" fill="#fff"/>
                <path d="M83.4,24.66c3.89.451,4.968-.84,3.728-3.566Z" fill="#fff"/>
                <path d="M67.334,22.758A62,62,0,0,1,77.473,26.2c-.241,4.468-2.473,7.081-7.487,7.1.958,3.094-4.437,4.851-6.544,3.722C53.269,31.578,54,19.96,67.334,22.758Z" fill="#fff"/>
                <path d="M52.922,72.951c-1.492.53-1.412,1.07,0,1.618-4.815.274-7.973-.126-8.107-1.755Z" fill="#fff" opacity="0.14" style="mix-blend-mode: multiply"/>
                <path d="M50.8,19.746c-9.24,19.456-14.095,46.548,6.83,53.3l-13.812-.521L23.486,57.277A214.2,214.2,0,0,1,39.775,19.619Z" fill="#fff" opacity="0.14" style="mix-blend-mode: multiply"/>
              </g>
              <g>
                <path d="M52.922,90.912l-.215,2.618a.334.334,0,0,1-.329.307l-8.266.078C40.5,90.886,46.923,87.936,52.922,90.912Z" fill="#fff"/>
                <path d="M58.864,94.574V97.2a.333.333,0,0,0,.3.332l8.232.754C71.243,95.563,65.086,92.1,58.864,94.574Z" fill="#fff"/>
                <path d="M71.113,90.831v2.627a.334.334,0,0,0,.3.332l8.232.754C83.492,91.82,77.335,88.355,71.113,90.831Z" fill="#fff"/>
                <path d="M41.516,93.637,41.3,96.256a.333.333,0,0,1-.329.306l-8.266.079C29.1,93.611,35.517,90.661,41.516,93.637Z" fill="#fff"/>
                <path d="M67.741,98.05q1.511-1.882-.556-2.819Q68.471,96.167,67.741,98.05Z" fill="#fff"/>
                <path d="M32.542,96.34q-1.511-1.884.557-2.819Q31.813,94.456,32.542,96.34Z" fill="#fff"/>
                <path d="M43.928,93.673q-1.51-1.884.556-2.819Q43.2,91.789,43.928,93.673Z" fill="#fff"/>
                <path d="M79.957,94.19q1.511-1.884-.556-2.819Q80.687,92.306,79.957,94.19Z" fill="#fff"/>
              </g>
            </g>
            <circle cx="37.039" cy="40.124" r="3.489" fill="#fff"/>
            <g>
              <path d="M52.444,68.69c.735.559-6.329,3.616-7.167,2.737a15.318,15.318,0,0,1-.977-1.352c-6.042-3.365-11.971-6.729-14.775-10.041a12.485,12.485,0,0,0-4.9-3.332c.171-.814.5-1.421,1.3-1.433,4.5-21.7,45.8-20.2,49.06,0l-1.825,3.518.456.289L73.1,60.155l.521.261c-3.923,4.534-9.233,8.1-15.441,11.045C55.584,71,53.512,70.189,52.444,68.69Z" fill="#fff"/>
              <path d="M52.4,67.807c.734.535-6.32,3.464-7.157,2.622a14.48,14.48,0,0,1-.975-1.3c-6.034-3.224-11.954-6.447-14.754-9.62a12.482,12.482,0,0,0-4.894-3.192c.17-.78.5-1.362,1.3-1.373,4.489-20.786,45.736-19.35,48.989,0l-1.822,3.37.456.277-.521,1.034.521.25c-3.918,4.343-9.22,7.762-15.419,10.581C55.54,70.022,53.47,69.243,52.4,67.807Z" fill="#fff"/>
              <path d="M24.624,56.322C29.453,45.9,36.328,40.412,45.4,40.214c-3.933,7.7-2.336,15.063,7.106,21.929-1.762.829,4.688,7.983,5.626,8.318.849.3-5.859-1.092-5.725-2.654l-.246.459a12.655,12.655,0,0,1-6.911,2.163l-.975-1.3c-6.206-3.166-12.082-6.478-15.9-10.714l-3.749-2.1,1.3-1.053" fill="#fff" opacity="0.14" style="mix-blend-mode: multiply"/>
            </g>
            <g>
              <path d="M33.438,55.558c-11.754.479.323-14.226,2.588-2.019" fill="#fff"/>
              <path d="M33.159,55.236c-7.1.333.2-9.87,1.563-1.4" fill="#fff"/>
            </g>
            <circle cx="45.088" cy="26.738" r="1.989" fill="#fff"/>
            <g>
              <ellipse cx="57.723" cy="32.068" rx="7.485" ry="7.036" transform="matrix(0.038, -0.999, 0.999, 0.038, 23.507, 88.544)" fill="#fff"/>
              <ellipse cx="57.289" cy="32.37" rx="6.493" ry="6.848" fill="#fff"/>
              <ellipse cx="57.396" cy="33.333" rx="2.94" ry="2.312" transform="translate(13.461 83.084) rotate(-78.698)" fill="#fff"/>
              <path d="M56.238,25.618c-.351,5.878,1.249,10,5.481,11.752C53.387,45.244,44.913,29.1,56.238,25.618Z" fill="#fff" opacity="0.14" style="mix-blend-mode: multiply"/>
              <path d="M42.7,28.343c-.278,4.516.989,7.683,4.341,9.028C39.761,43.979,34.211,29.406,42.7,28.343Z" fill="#fff" opacity="0.14" style="mix-blend-mode: multiply"/>
            </g>
            <g>
              <ellipse cx="42.997" cy="33.304" rx="4.742" ry="5.923" transform="matrix(0.968, -0.251, 0.251, 0.968, -6.991, 11.876)" fill="#fff" opacity="0.97"/>
              <ellipse cx="42.875" cy="33.691" rx="4.379" ry="5.417" transform="matrix(0.991, -0.135, 0.135, 0.991, -4.164, 6.11)" fill="#fff"/>
              <ellipse cx="43.098" cy="35.002" rx="1.959" ry="2.951" transform="translate(-8.175 13.704) rotate(-16.524)" fill="#fff"/>
            </g>
            <path d="M66.582,15.656c-1.971.765-4.049,1.462-4.1,3.437L60.849,18a62.942,62.942,0,0,0-16.81.26c-1.082-1.608-1.595-2.9-.854-3.493-.812-.582-.963.363-.31,3.168-1.269-1.568-3.373-2.281-6.174-2.281,1.6.716,2.453,1.792,2.126,3.437-1.272-.37-1.624.8-2.126,1.715,1.562-.745,3.055.553,4.529,2.406a8.7,8.7,0,0,0,5.937,0c-.386.414-.961.432.542.977,1.171.425,5.147.086,4.927-.521,0,0-.006.589,0,.521.069-.7,3.2-1.1,3.2-.456,1.85.293,2.61-.44,2.746-1.759.466-.532,2.96,1.945,3.443,1.5.277-.256,2.522.351,2.244.716-.493-.772-.742-1.457-.094-1.824l1.322.072c-.616-.211-.171-1.278.5-1.114.19.046,1.042.456,1.042.456l1.267-1.238a3.631,3.631,0,0,1-2.765,0C64.746,18.82,65.237,17.2,66.582,15.656Z" fill="#fff"/>
            <g>
              <path d="M66.479,56.143c11.753.479-.323-14.226-2.588-2.019" fill="#fff"/>
              <path d="M66.758,55.821c7.1.333-.195-9.87-1.564-1.4" fill="#fff"/>
            </g>
            <path d="M82.634,47.123c-3.964,6.809-3.748,12.126,1.77,15.553A27.787,27.787,0,0,0,82.634,47.123Z" fill="#fff"/>
            <path d="M65.121,84.376a35.764,35.764,0,0,1-1.611,5.087c-.94,2.156-4.485,2.177-4.646.212.454.022.142-2.91-.138-2.718C58.193,87.324,65.044,84.726,65.121,84.376Z" fill="#fff"/>
            <path d="M26.987,21.917c-6.957,1.8-1.49,16.557,4.569,14.357,1.1-.4,5.145-10.749,5.145-10.749Z" fill="#fff"/>
            <path d="M11.4,23.214c1.452-.413,3.113-.327,2.913,0l1.965-.034c-.173-1.292-.592-2.25-2.439-1.263A4.407,4.407,0,0,0,11.4,23.214Z" fill="#fff"/>
            <ellipse cx="19.509" cy="25.527" rx="1.336" ry="1.531" fill="#fff"/>
            <ellipse cx="75.396" cy="45.138" rx="0.974" ry="1.525" fill="#fff"/>
            <path d="M72.514,80.693c-3.41-3.71-5.439-2.015-6.538,3.324A17.925,17.925,0,0,0,72.514,80.693Z" fill="#fff"/>
            <path d="M49.026,39.554c.095-.313.356-3.28.356-3.28l.846,3.281Z" fill="#fff" opacity="0.97"/>
            <path d="M71.87,38.518c-6.36.7-4.031,10.163,1.9,8.145A59.037,59.037,0,0,0,71.87,38.518Z" fill="#fff"/>
            <path d="M98.879,17.65c-1.446,1.848-2.937,3.792-3.378,6.1a7.445,7.445,0,0,0,.192,3.558c.177.581.426,1.139.592,1.724A6.46,6.46,0,0,1,93.3,36.38l4.524-3.07c.081.066-.115.157-.157.061s.037-.2.106-.277a4.441,4.441,0,0,0,.881-2,5.838,5.838,0,0,0,.156-1.794A10.478,10.478,0,0,0,97.252,25.6a4.549,4.549,0,0,1-.542-3.87A5.01,5.01,0,0,1,97.6,20.49q1.335-1.5,2.744-2.936" fill="#fff"/>
            <path d="M92.912,36.378a27.381,27.381,0,0,1,1.473-2.733A4.525,4.525,0,0,0,95,30.662a12.72,12.72,0,0,0-.433-1.273,9.185,9.185,0,0,1-.359-2.7,11.475,11.475,0,0,1,.306-3.38c.592-2.089,2.156-3.739,3.668-5.3" fill="#fff"/>
            <path d="M101.051,17.87q-1.47,1.842-2.93,3.683c-.113.629-.216,1.259-.268,1.888v.01" fill="#fff"/>
            <path d="M97.832,23.9v.01c0,.217.011.423.021.629.155,2.084,1.372,4.024,1.248,6.107a6.474,6.474,0,0,1-2.6,4.488.01.01,0,0,0-.011.01" fill="#fff"/>
            <path d="M95.057,21.739a12.739,12.739,0,0,0-2.29,6.643,7.938,7.938,0,0,0,.32,3.157,3.206,3.206,0,0,1,.186.608,2.441,2.441,0,0,1-.093.764c-.217.928-.444,1.867-.66,2.806" fill="#fff"/>
            <path d="M91.932,34.51a18.467,18.467,0,0,1,1.723-11.018" fill="#fff"/>
            <path d="M90.539,31.931c-.01-.207-.01-.413-.01-.609a16.946,16.946,0,0,1,1.516-6.592" fill="#fff"/>
            <path d="M90.88,25.618c-.238.773-.444,1.547-.63,2.321-.082.34-.154.68-.206,1.031a7.021,7.021,0,0,0-.021,1.744v.01" fill="#fff"/>
            <path d="M34.722,82.057c2.375,5.991,4.788,6.528,7.223,4.053A24.471,24.471,0,0,1,34.722,82.057Z" fill="#fff"/>
          </g>
          <path d="M54.369,15.94a9.287,9.287,0,0,1,4.154,2" fill="#fff"/>
          <path d="M54.64,20.094c-.12-1.245,3.36-1.3,3.616-.391" fill="#fff"/>
          <path d="M53.13,21.12c.025.469,2.171,1.345,3.127.8a4.305,4.305,0,0,0,3.505-.4" fill="#fff"/>
          <path d="M49.117,18.677c.537-.965,14.658-.99,14.659,0" fill="#fff"/>
          <path d="M53.941,22.921c.1.291,3.531-.559,3.531-.559,1.224-.324,1.472-.78,1.48-1.268" fill="#fff"/>
          <path d="M57.546,16.575c-1.234.623-2.148,1.384-2.2,2.518" fill="#fff"/>
          <path d="M54.931,20.582a14.751,14.751,0,0,1,2.053,1.335l.977.413" fill="#fff"/>
          <polyline points="58.316 20.582 56.53 19.619 54.576 19.619" fill="#fff"/>
        </g>
        <g>
          <g>
            <g>
              <path d="M96.468,25.615c5.732,7.976-.347,11.352-4.78,12.55-.17-2.645-6.99-8.655.25-12.04,1.291-4.69,5.076-7.263,8.42-6.21Z" fill="#666667"/>
              <g>
                <path d="M92.543,37.911a27.033,27.033,0,0,0-11.884,8.224l-.557-.9c3.335-3.848,7.093-6.571,11.45-7.7" fill="#cccbcb"/>
                <path d="M92.547,37.923A31.734,31.734,0,0,0,89.213,39.4,33.752,33.752,0,0,0,86.1,41.291a28.249,28.249,0,0,0-2.866,2.253,25.634,25.634,0,0,0-2.524,2.634l-.058.068L80.6,46.17l-.569-.892L80,45.229l.039-.047a27.1,27.1,0,0,1,5.136-4.777,18.46,18.46,0,0,1,3.052-1.748,16.663,16.663,0,0,1,3.32-1.135l.006.024A20.72,20.72,0,0,0,88.3,38.814a24.06,24.06,0,0,0-2.986,1.792,30.758,30.758,0,0,0-5.155,4.682l.008-.095.544.907-.106-.008c.8-.923,1.679-1.773,2.557-2.621a27.608,27.608,0,0,1,2.823-2.337,22.505,22.505,0,0,1,6.55-3.234Z" fill="#231f20"/>
              </g>
            </g>
            <g>
              <g>
                <g>
                  <g>
                    <path d="M37.348,27.4l-5.38,11.24c-4.19,4.1-9.53-6.16-14.46-11.68-1.08-1.21-1.77-1.95-2.53-2.06a1.34,1.34,0,0,0-.2-.01c-1.83,3.49-3.79-.15.05-.76v.01c1.27-.81,2.209-1.293,2.719.987C20.069,20.587,27.742,23.518,37.348,27.4Z" fill="#cccbcb"/>
                    <path d="M64.068,24.61c.635-1.272,12.917,3.089,13.441,3.845,1.511,2.18,10.6-6.171,9.615-7.295.737,3.3.739,6.093-2.131,6.916q-2.037,10.608-14.3,9.661Z" fill="#cccbcb"/>
                  </g>
                  <polygon points="83.59 61.901 73.485 90.764 70.706 90.701 70.706 61.901 83.59 61.901" fill="#fff"/>
                  <polygon points="80.201 62.632 72.702 90.764 70.639 90.703 70.639 62.632 80.201 62.632" fill="#666667" opacity="0.14" style="mix-blend-mode: multiply"/>
                  <polygon points="40.247 61.901 50.352 90.764 53.131 90.701 53.131 61.901 40.247 61.901" fill="#fff"/>
                  <polygon points="42.379 61.901 50.105 90.764 52.23 90.701 52.23 61.901 42.379 61.901" fill="#666667" opacity="0.14" style="mix-blend-mode: multiply"/>
                  <path d="M70.706,81.925c.7-.427,5.9-4.852,6.735-5.592.928-.826,1.964-6.03,1.806-6.052.96.122,1.595.655,0,4.025L76.58,81.925C74.919,85.8,71.035,85.044,70.706,81.925Z" fill="#666667"/>
                  <path d="M73.575,77.232C76.512,92.39,57.659,96.274,49.7,85.664Z" fill="#f59698"/>
                  <polygon points="71.717 65.438 61.611 94.301 58.832 94.238 58.832 65.438 71.717 65.438" fill="#fff"/>
                  <polygon points="29.443 65.438 39.548 94.301 42.327 94.238 42.327 65.438 29.443 65.438" fill="#fff"/>
                  <polygon points="31.167 65.438 39.253 94.301 41.477 94.238 41.477 65.438 31.167 65.438" fill="#666667" opacity="0.14" style="mix-blend-mode: multiply"/>
                  <polygon points="68.261 66.169 60.761 94.301 58.699 94.24 58.699 66.169 68.261 66.169" fill="#666667" opacity="0.14" style="mix-blend-mode: multiply"/>
                </g>
                <path d="M83.988,58.785A26.77,26.77,0,0,1,64.9,84.445a26.581,26.581,0,0,1-10.16,3.23,24.846,24.846,0,0,1-2.87.16,26.777,26.777,0,0,1-7.58-52.46,26.453,26.453,0,0,1,12.97-3.37A26.757,26.757,0,0,1,83.988,58.785Z" fill="#fff" stroke="#989898" stroke-miterlimit="10" stroke-width="0.25"/>
                <path d="M53.131,32.325c-45.045,9.866-31.347,64.7,7.587,53.492,14.271-4.11,13.34-9.13,1.077-8.652C45.314,77.808,46.658,52.979,53.131,32.325Z" fill="#666667" opacity="0.14" style="mix-blend-mode: multiply"/>
                <ellipse cx="68.711" cy="63.03" rx="8.184" ry="6.952" fill="#666667"/>
                <path d="M57.305,82.111a8.35,8.35,0,0,1-2.058,5.552,28.665,28.665,0,0,1-3.194.172,30.839,30.839,0,0,1-9.136-1.377,8.535,8.535,0,0,1-1.179-4.347,7.794,7.794,0,1,1,15.567,0Z" fill="#666667"/>
                <path d="M44.665,71.689H58.938a0,0,0,0,1,0,0v0a3.094,3.094,0,0,1-3.094,3.094H47.683a3.018,3.018,0,0,1-3.018-3.018v-.076A0,0,0,0,1,44.665,71.689Z" transform="translate(3.031 -2.052) rotate(2.338)" fill="#cccbcb" stroke="#989898" stroke-miterlimit="10" stroke-width="0.25"/>
                <ellipse cx="31.451" cy="66.916" rx="5.242" ry="6.997" fill="#666667"/>
                <g>
                  <path d="M62.18,21.922,40.327,21.67c-6.662,12.476-12.19,24.7-15.789,36.5L44.243,72.954l13.389.505,16.3-11.621A58.987,58.987,0,0,0,62.18,21.922Z" fill="#fff"/>
                  <path d="M62.174,21.933,40.326,21.75l.072-.043c-3.1,5.87-6.047,11.82-8.752,17.88a168.488,168.488,0,0,0-7.065,18.6l-.016-.049L44.3,72.884l-.049-.017,13.391.479-.07.021L73.857,61.74l-.051.091a62.541,62.541,0,0,0-2.208-21A59.982,59.982,0,0,0,62.174,21.933Zm.011-.022a59.93,59.93,0,0,1,9.578,18.875,60.55,60.55,0,0,1,2.285,21.059l0,.058L74,61.937,57.7,73.551l-.031.023h-.039L44.24,73.041h-.028l-.021-.016L24.511,58.211l-.026-.019.009-.03a167.8,167.8,0,0,1,6.983-18.65c2.658-6.088,5.628-12.035,8.78-17.88l.023-.043h.048Z" fill="#989898"/>
                </g>
                <path d="M82.618,26.557c3.771.437,4.815-.815,3.614-3.457Z" fill="#666667"/>
                <path d="M67.043,24.713a60.125,60.125,0,0,1,9.828,3.34c-.233,4.332-2.4,6.864-7.257,6.883.928,3-4.3,4.7-6.344,3.608C53.409,33.263,54.12,22,67.043,24.713Z" fill="#666667"/>
                <path d="M53.072,73.369c-1.446.514-1.369,1.037,0,1.568-4.668.266-7.729-.122-7.858-1.7Z" fill="#666667" opacity="0.14" style="mix-blend-mode: multiply"/>
                <path d="M51.011,21.793c-8.957,18.861-13.663,45.123,6.621,51.666l-13.389-.505L24.538,58.175a207.565,207.565,0,0,1,15.789-36.5Z" fill="#666667" opacity="0.14" style="mix-blend-mode: multiply"/>
              </g>
              <g>
                <path d="M53.072,90.78l-.208,2.539a.324.324,0,0,1-.319.3l-8.013.076C41.034,90.755,47.257,87.9,53.072,90.78Z" fill="#333"/>
                <path d="M58.832,94.33v2.547a.324.324,0,0,0,.294.322l7.98.731C70.832,95.289,64.864,91.93,58.832,94.33Z" fill="#333"/>
                <path d="M70.706,90.7v2.547A.324.324,0,0,0,71,93.57l7.98.731C82.706,91.661,76.738,88.3,70.706,90.7Z" fill="#333"/>
                <path d="M42.015,93.422l-.208,2.538a.323.323,0,0,1-.32.3l-8.012.077C29.977,93.4,36.2,90.537,42.015,93.422Z" fill="#333"/>
                <path d="M67.438,97.7q1.464-1.825-.54-2.733A2.1,2.1,0,0,1,67.438,97.7Z" fill="#fff"/>
                <path d="M33.316,96.042q-1.464-1.826.54-2.733A2.1,2.1,0,0,0,33.316,96.042Z" fill="#fff"/>
                <path d="M44.353,93.457q-1.464-1.827.54-2.733A2.1,2.1,0,0,0,44.353,93.457Z" fill="#fff"/>
                <path d="M79.28,93.958q1.464-1.826-.54-2.733A2.1,2.1,0,0,1,79.28,93.958Z" fill="#fff"/>
              </g>
            </g>
            <circle cx="37.675" cy="41.547" r="3.382" fill="#666667"/>
            <g>
              <path d="M52.609,69.239c.712.541-6.135,3.5-6.948,2.653a14.767,14.767,0,0,1-.947-1.31c-5.857-3.263-11.6-6.524-14.322-9.735a12.109,12.109,0,0,0-4.752-3.229c.166-.789.489-1.378,1.263-1.39,4.358-21.031,44.4-19.579,47.558,0l-1.768,3.411.442.28-.505,1.046.505.253c-3.8,4.395-8.95,7.854-14.968,10.706C55.653,71.48,53.644,70.692,52.609,69.239Z" fill="#f59698"/>
              <path d="M52.57,68.383c.711.518-6.126,3.357-6.938,2.541a14.3,14.3,0,0,1-.946-1.255c-5.848-3.126-11.587-6.25-14.3-9.326a12.121,12.121,0,0,0-4.745-3.094c.166-.756.488-1.32,1.262-1.331,4.351-20.149,44.336-18.758,47.489,0l-1.766,3.267.442.268-.5,1,.5.242c-3.8,4.211-8.938,7.525-14.947,10.257C55.61,70.53,53.6,69.775,52.57,68.383Z" fill="#f59698"/>
              <path d="M25.64,57.249c4.682-10.1,11.346-15.423,20.137-15.614-3.813,7.469-2.264,14.6,6.889,21.257-1.708.8,4.545,7.738,5.454,8.063.823.3-5.68-1.058-5.55-2.572l-.239.445a12.257,12.257,0,0,1-6.7,2.1l-.946-1.255c-6.015-3.069-11.712-6.28-15.412-10.386L25.64,57.249,26.9,56.228" fill="#666667" opacity="0.14" style="mix-blend-mode: multiply"/>
            </g>
            <g>
              <path d="M34.184,56.513a9.943,9.943,0,0,1-2.33-.157A3.638,3.638,0,0,1,29.8,55.3a2.421,2.421,0,0,1-.463-2.219A4.4,4.4,0,0,1,30.5,51.06a4.036,4.036,0,0,1,2-1.221,2.691,2.691,0,0,1,2.3.481,4.678,4.678,0,0,1,1.373,1.939,10.491,10.491,0,0,1,.657,2.27.125.125,0,0,1-.245.052v-.007a12.316,12.316,0,0,0-.65-2.213,4.436,4.436,0,0,0-1.284-1.851,2.489,2.489,0,0,0-2.112-.517,3.933,3.933,0,0,0-1.978,1.115,4.353,4.353,0,0,0-1.15,1.986,2.367,2.367,0,0,0,.442,2.178,3.594,3.594,0,0,0,2.021,1.058,9.9,9.9,0,0,0,2.325.174l.005,0Z" fill="#231f20"/>
              <path d="M33.916,56.247A5.221,5.221,0,0,1,32.37,56.2a2.209,2.209,0,0,1-1.4-.847,2.125,2.125,0,0,1-.217-1.66,5.676,5.676,0,0,1,.646-1.532,3.522,3.522,0,0,1,1.362-1.435,2.262,2.262,0,0,1,1.321-.214,2.57,2.57,0,0,1,1.226.574,4.26,4.26,0,0,1,1.209,1.764,4.662,4.662,0,0,1,.324,1.756,1.455,1.455,0,0,1-2.807.517l-.023-.06c-.328-.828-.526-1.657-.681-2.03-.075-.152.083-.368-.193-.543a1.066,1.066,0,0,0-1.13.191A2.006,2.006,0,0,0,31.4,55.1a2.823,2.823,0,0,0,2.51,1.049.05.05,0,0,1,.051.049A.052.052,0,0,1,33.916,56.247Z" fill="#231f20"/>
            </g>
            <circle cx="45.478" cy="28.571" r="1.928" fill="#666667"/>
            <g>
              <g>
                <ellipse cx="57.726" cy="33.738" rx="7.256" ry="6.82" transform="translate(21.842 90.154) rotate(-87.845)" fill="#f59698"/>
                <path d="M59.456,26.673A7.087,7.087,0,0,1,63.7,30.048a7.729,7.729,0,0,1,.824,5.44,7.515,7.515,0,0,1-3.1,4.611,6.746,6.746,0,0,1-5.5.957,7.163,7.163,0,0,1-4.434-3.489,7.771,7.771,0,0,1-.75-5.622,7.347,7.347,0,0,1,3.3-4.533A6.812,6.812,0,0,1,59.456,26.673Zm-.019.072a6.317,6.317,0,0,0-2.715-.083,6.392,6.392,0,0,0-2.455,1.085,7.274,7.274,0,0,0-2.793,4.368,7.428,7.428,0,0,0,.671,5.1,6.493,6.493,0,0,0,3.939,3.265,6.194,6.194,0,0,0,5.077-.785,7.078,7.078,0,0,0,3-4.289,7.462,7.462,0,0,0-.6-5.279A6.582,6.582,0,0,0,59.437,26.745Z"/>
              </g>
              <g>
                <ellipse cx="57.305" cy="34.03" rx="6.294" ry="6.639" fill="#cccbcb"/>
                <path d="M57.4,27.38a6.153,6.153,0,0,1,4.5,2.071,6.918,6.918,0,0,1-.084,9.331,6.166,6.166,0,0,1-9.164-.108,6.9,6.9,0,0,1,.168-9.385A6.152,6.152,0,0,1,57.4,27.38Zm0,.025a6.073,6.073,0,0,0-4.487,1.976,6.878,6.878,0,0,0-.081,9.128,5.952,5.952,0,0,0,8.862.161,6.86,6.86,0,0,0,.163-9.183A6.109,6.109,0,0,0,57.4,27.405Z"/>
              </g>
              <ellipse cx="57.409" cy="34.964" rx="2.85" ry="2.242" transform="translate(11.872 84.408) rotate(-78.698)"/>
              <path d="M56.286,27.485c-.339,5.7,1.211,9.7,5.314,11.392C53.523,46.511,45.309,30.858,56.286,27.485Z" fill="#666667" opacity="0.14" style="mix-blend-mode: multiply"/>
              <path d="M43.165,30.127c-.269,4.377.959,7.447,4.208,8.751C40.314,45.284,34.934,31.157,43.165,30.127Z" fill="#666667" opacity="0.14" style="mix-blend-mode: multiply"/>
            </g>
            <g>
              <g opacity="0.97">
                <ellipse cx="43.451" cy="34.936" rx="4.597" ry="5.742" transform="matrix(0.968, -0.251, 0.251, 0.968, -7.386, 12.043)" fill="#f59698"/>
                <path d="M41.658,29.448a4.341,4.341,0,0,1,3.908.642,6.594,6.594,0,0,1,2.414,3.3,6.94,6.94,0,0,1,.091,4.137,4.731,4.731,0,0,1-2.738,3.147,4.486,4.486,0,0,1-4.17-.652,6.7,6.7,0,0,1-2.291-7.658A4.772,4.772,0,0,1,41.658,29.448Zm.026.071a4.168,4.168,0,0,0-2.43,2.963,6.873,6.873,0,0,0,.205,3.836,6.372,6.372,0,0,0,2.141,3.1,3.811,3.811,0,0,0,3.528.689,4.186,4.186,0,0,0,2.478-2.73,6.516,6.516,0,0,0,.016-3.878,6.324,6.324,0,0,0-2.148-3.281A3.962,3.962,0,0,0,41.684,29.519Z"/>
              </g>
              <g>
                <ellipse cx="43.333" cy="35.311" rx="4.245" ry="5.251" transform="translate(-4.378 6.187) rotate(-7.775)" fill="#cccbcb"/>
                <path d="M41.336,30.538a3.6,3.6,0,0,1,3.588.009A5.292,5.292,0,0,1,47.267,33.4a6.4,6.4,0,0,1,.229,3.719,4.78,4.78,0,0,1-2.122,3.044,3.7,3.7,0,0,1-3.679,0,5.369,5.369,0,0,1-2.355-2.913,6.43,6.43,0,0,1-.156-3.737A4.727,4.727,0,0,1,41.336,30.538Zm.013.022a4.651,4.651,0,0,0-2.036,2.982,6.242,6.242,0,0,0,.262,3.619,5.126,5.126,0,0,0,2.24,2.782,3.471,3.471,0,0,0,3.459.043,4.607,4.607,0,0,0,2.065-2.91,6.27,6.27,0,0,0-.189-3.637A5.2,5.2,0,0,0,44.9,30.593,3.561,3.561,0,0,0,41.349,30.56Z"/>
              </g>
              <ellipse cx="43.549" cy="36.582" rx="1.899" ry="2.86" transform="translate(-8.606 13.897) rotate(-16.524)"/>
            </g>
            <path d="M66.314,17.828c-1.911.742-3.926,1.418-3.979,3.332L60.756,20.1a60.975,60.975,0,0,0-16.3.253c-1.049-1.559-1.546-2.811-.828-3.387-.787-.563-.934.352-.3,3.071-1.23-1.52-3.27-2.211-5.985-2.211,1.551.694,2.378,1.737,2.061,3.332-1.234-.359-1.575.773-2.061,1.663,1.514-.723,2.961.535,4.39,2.332a8.44,8.44,0,0,0,5.755,0c-.374.4-.931.418.525.947,1.136.412,4.99.083,4.777-.5,0,0-.006.571,0,.5.066-.682,3.1-1.064,3.1-.442,1.794.283,2.53-.427,2.662-1.705.452-.516,2.869,1.885,3.338,1.452.268-.247,2.444.341,2.175.7-.478-.749-.719-1.413-.091-1.768l1.281.07c-.6-.2-.166-1.24.488-1.081.184.045,1.01.442,1.01.442l1.228-1.2a3.517,3.517,0,0,1-2.681,0C64.534,20.9,65.01,19.328,66.314,17.828Z" fill="#333"/>
            <g>
              <path d="M66.214,57.071a9.891,9.891,0,0,0,2.325-.174,3.6,3.6,0,0,0,2.022-1.058A2.368,2.368,0,0,0,71,53.661a4.351,4.351,0,0,0-1.149-1.986,3.936,3.936,0,0,0-1.979-1.115,2.489,2.489,0,0,0-2.112.517,4.445,4.445,0,0,0-1.284,1.851,12.4,12.4,0,0,0-.65,2.213v.006a.125.125,0,0,1-.244-.052,10.5,10.5,0,0,1,.657-2.269,4.669,4.669,0,0,1,1.373-1.939,2.689,2.689,0,0,1,2.294-.481,4.043,4.043,0,0,1,2,1.221,4.409,4.409,0,0,1,1.154,2.021,2.415,2.415,0,0,1-.463,2.219,3.635,3.635,0,0,1-2.049,1.056,9.952,9.952,0,0,1-2.331.157l0,0Z" fill="#231f20"/>
              <path d="M66.487,56.714A2.823,2.823,0,0,0,69,55.665a2.008,2.008,0,0,0-.61-2.413,1.065,1.065,0,0,0-1.129-.191c-.277.175-.118.39-.194.543-.154.373-.353,1.2-.68,2.03l-.023.059a1.455,1.455,0,0,1-2.807-.516,4.642,4.642,0,0,1,.324-1.756,4.259,4.259,0,0,1,1.209-1.765,2.575,2.575,0,0,1,1.225-.573,2.254,2.254,0,0,1,1.321.214A3.532,3.532,0,0,1,69,52.732a5.7,5.7,0,0,1,.645,1.532,2.121,2.121,0,0,1-.217,1.66,2.211,2.211,0,0,1-1.4.847,5.221,5.221,0,0,1-1.546.043.05.05,0,0,1-.046-.054A.051.051,0,0,1,66.487,56.714Z" fill="#231f20"/>
            </g>
            <path d="M81.874,48.332c-3.843,6.6-3.633,11.755,1.716,15.077A26.933,26.933,0,0,0,81.874,48.332Z" fill="#666667"/>
            <path d="M64.9,84.445a34.618,34.618,0,0,1-1.562,4.93c-.911,2.091-4.348,2.111-4.5.206.441.021.138-2.821-.133-2.634C58.181,87.3,64.823,84.783,64.9,84.445Z" fill="#666667"/>
            <path d="M27.931,23.9c-6.744,1.749-1.444,16.05,4.429,13.917,1.064-.387,4.988-10.42,4.988-10.42Z" fill="#666667"/>
            <path d="M12.819,25.154c1.407-.4,3.017-.317,2.823,0l1.905-.032c-.168-1.253-.573-2.181-2.364-1.224A4.269,4.269,0,0,0,12.819,25.154Z" fill="#666667"/>
            <ellipse cx="20.682" cy="27.397" rx="1.295" ry="1.484" fill="#666667"/>
            <ellipse cx="74.858" cy="46.407" rx="0.944" ry="1.479" fill="#666667"/>
            <path d="M72.064,80.874c-3.3-3.6-5.272-1.953-6.337,3.222A17.359,17.359,0,0,0,72.064,80.874Z" fill="#666667"/>
            <g opacity="0.97">
              <path d="M49.3,41c.092-.3.344-3.18.344-3.18L50.461,41Z"/>
              <path d="M49.265,41.017l.043-.825.022-.8.05-1.6.046-1.454.467,1.412.517,1.562a8.19,8.19,0,0,1,.347,1.607l.056.424-.352-.041A6.433,6.433,0,0,1,49.265,41.017Zm.061-.045c.5-.089.833-.228,1.135-.283l-.3.383a8.238,8.238,0,0,1-.473-1.574l-.3-1.618.512-.042c-.081.529-.152,1.058-.249,1.586l-.145.79A4.534,4.534,0,0,1,49.326,40.972Z" fill="#cccbcb"/>
            </g>
            <path d="M71.44,39.99c-6.165.679-3.907,9.852,1.844,7.9A57.25,57.25,0,0,0,71.44,39.99Z" fill="#666667"/>
            <path d="M97.632,19.769a21.109,21.109,0,0,0-2.7,4.283,7.481,7.481,0,0,0-.342,4.918l.4,1.208a6.347,6.347,0,0,1,.333,1.236,6.513,6.513,0,0,1-.109,2.553,6.246,6.246,0,0,1-2.975,4l-.061-.1,4.358-3.017.035-.024.1.03a.158.158,0,0,1,.024.213.217.217,0,0,1-.116.073.2.2,0,0,1-.245-.13.392.392,0,0,1,.126-.348,2.78,2.78,0,0,0,.308-.432,4.3,4.3,0,0,0,.407-.993,6.276,6.276,0,0,0,.266-2.14c-.134-1.451-1.074-2.66-1.71-4a5.443,5.443,0,0,1-.549-2.172,3.02,3.02,0,0,1,.8-2.072c.987-1.1,2.03-2.141,3.054-3.2l.018.018c-.974,1.105-1.987,2.178-2.948,3.284a2.831,2.831,0,0,0-.715,1.968A5.307,5.307,0,0,0,95.955,27c.608,1.3,1.576,2.536,1.719,4.081a6.525,6.525,0,0,1-.28,2.223,4.507,4.507,0,0,1-.433,1.045,3.043,3.043,0,0,1-.333.464c-.059.062-.091.134-.081.141s-.055-.033-.028-.023c0,0,.011-.007,0,0s0,.1.008.091l.131.007-4.414,2.934-.061-.1a5.808,5.808,0,0,0,2.921-3.924,6.384,6.384,0,0,0,.063-2.5,6.214,6.214,0,0,0-.349-1.212l-.417-1.2a7.249,7.249,0,0,1,.381-5.038,18.25,18.25,0,0,1,2.829-4.234Z" fill="#989898"/>
            <path d="M91.826,37.912c.523-1.562,1.709-2.833,1.959-4.432a3.1,3.1,0,0,0-.013-1.184c-.084-.392-.251-.768-.377-1.159a9.4,9.4,0,0,1-.365-2.429,8.764,8.764,0,0,1,.77-4.831A14.909,14.909,0,0,1,96.937,20.1l.018.018a19.109,19.109,0,0,0-2.925,3.874,9.609,9.609,0,0,0-.863,4.71,7.77,7.77,0,0,0,.311,2.406c.127.384.313.75.429,1.152a3.182,3.182,0,0,1,.083,1.248c-.241,1.708-1.479,2.939-2.141,4.411Z" fill="#989898"/>
            <path d="M99.737,19.982a8,8,0,0,1-.635.952,9.559,9.559,0,0,1-.757.855c-.5.572-.871,1.25-1.354,1.837l.027-.058a13.09,13.09,0,0,1-.377,1.808h0v.01h-.025v-.012a12.946,12.946,0,0,1,.144-1.852l0-.029.022-.029c.464-.6,1.042-1.115,1.486-1.733a9.56,9.56,0,0,1,.664-.93,8.1,8.1,0,0,1,.784-.833Z" fill="#989898"/>
            <path d="M96.62,25.815a13.582,13.582,0,0,0,.6,2.876,29.522,29.522,0,0,1,.668,2.9,4.731,4.731,0,0,1-.555,2.927,6.575,6.575,0,0,1-2.012,2.2l-.008,0,0,0H95.3a.023.023,0,0,1,.022-.024l-.008,0a9.484,9.484,0,0,0,1.8-2.3,5.382,5.382,0,0,0,.647-2.793,9.3,9.3,0,0,0-.731-2.851,7.07,7.07,0,0,1-.432-2.937Z" fill="#989898"/>
            <path d="M93.928,23.732a15.2,15.2,0,0,0-1.5,3.171,10.176,10.176,0,0,0-.672,3.443,9.959,9.959,0,0,0,.1,1.746,13.187,13.187,0,0,0,.457,1.712,7.389,7.389,0,0,1-.358,1.77q-.229.855-.488,1.7l-.025-.006c.1-.583.206-1.164.323-1.742a10.406,10.406,0,0,0,.292-1.7,8.661,8.661,0,0,1-.434-1.708,8.74,8.74,0,0,1-.008-1.786,21.924,21.924,0,0,1,.612-3.5,8.809,8.809,0,0,1,1.678-3.122Z" fill="#989898"/>
            <path d="M90.875,36.107a10.338,10.338,0,0,1-.3-2.737c.054-.922.167-1.83.252-2.745a12.63,12.63,0,0,1,1.716-5.206l.023.011a30.334,30.334,0,0,0-1.6,5.216,10.083,10.083,0,0,0-.18,2.724c.017.91.059,1.816.115,2.733Z" fill="#989898"/>
            <path d="M89.525,33.6A5.945,5.945,0,0,1,89.5,31.8c.111-.595.244-1.179.313-1.779a8.814,8.814,0,0,1,1.175-3.4l.023.01c-.354,1.153-.731,2.268-1.064,3.418A6.1,6.1,0,0,0,89.7,31.82c-.039.595-.092,1.182-.154,1.784Z" fill="#989898"/>
            <path d="M89.88,27.488a5.287,5.287,0,0,1-.242,1.241,4.165,4.165,0,0,0-.352,1.208c-.037.42-.113.828-.146,1.237l-.088,1.249v0l0,.01h-.025l0-.01h0a3.678,3.678,0,0,1-.14-1.27,5.094,5.094,0,0,1,.271-1.248,6.112,6.112,0,0,0,.284-1.233,5.164,5.164,0,0,1,.418-1.194Z" fill="#989898"/>
            <path d="M35.43,82.2c2.3,5.807,4.641,6.328,7,3.928A23.708,23.708,0,0,1,35.43,82.2Z" fill="#666667"/>
          </g>
          <path d="M54.475,18.1A9,9,0,0,1,58.5,20.046" fill="#666667"/>
          <path d="M54.737,22.13c-.115-1.207,3.258-1.264,3.5-.379" fill="#666667"/>
          <path d="M53.324,23.122a3.972,3.972,0,0,0,.734.189,3.553,3.553,0,0,1,.72.223,3.277,3.277,0,0,0,.721.358.687.687,0,0,0,.682-.212l.007-.01.169-.018c.3-.032.591-.077.862-.078l.789-.053c.253,0,.494-.011.764-.022a8.7,8.7,0,0,1,.908-.033l.045.089a2.248,2.248,0,0,1-.686.7,2.3,2.3,0,0,1-.949.337,3.028,3.028,0,0,1-.965-.091,3.1,3.1,0,0,1-.871-.355l.176-.028a8.091,8.091,0,0,1-.937.121,4.147,4.147,0,0,1-.929.118A1.758,1.758,0,0,1,53.718,24a1.531,1.531,0,0,1-.345-.346.617.617,0,0,1-.149-.526Z" fill="#666667"/>
          <path d="M49.361,20.744a1.562,1.562,0,0,1,.824-.436,8.715,8.715,0,0,1,.894-.2,12.1,12.1,0,0,1,1.808-.167l1.813.051c.6,0,1.2-.04,1.8-.083a27.346,27.346,0,0,1,3.621-.049c.6.04,1.206.113,1.807.212a8.741,8.741,0,0,1,.894.2,3.043,3.043,0,0,1,.438.155c.128.077.32.119.354.324h-.05c-.153-.2-.518-.188-.791-.231-.293-.037-.593-.042-.889-.064L60.1,20.394c-1.194-.065-2.391-.118-3.592-.21a14.847,14.847,0,0,0-1.8-.029c-.6.035-1.2.132-1.792.2s-1.193.1-1.787.137c-.3.021-.595.035-.889.071a2.02,2.02,0,0,0-.831.2Z" fill="#666667"/>
          <path d="M54.083,24.863a3.855,3.855,0,0,0,1.313-.207c.446-.11.891-.231,1.334-.36l1.278-.4a1.175,1.175,0,0,0,.884-.793h.05a.869.869,0,0,1-.138.746,1.684,1.684,0,0,1-.6.492,4.292,4.292,0,0,1-1.384.358c-.458.076-.917.15-1.379.21-.232.027-.464.049-.7.062-.232-.012-.471.077-.708-.088Z" fill="#666667"/>
          <path d="M57.554,18.719a5.658,5.658,0,0,0-1.32,1.037,2.013,2.013,0,0,0-.562,1.415l-.5-.022a2.386,2.386,0,0,1,.887-1.572A5.76,5.76,0,0,1,57.554,18.719Z" fill="#666667"/>
          <path d="M55.031,22.581a7,7,0,0,1,1.1.5c.346.2.709.378,1.038.615l-.057-.033a2.684,2.684,0,0,1,.857.614l-.02.047a2.661,2.661,0,0,1-1.038-.186l-.029-.01-.028-.023c-.3-.243-.582-.529-.895-.767a11.8,11.8,0,0,0-.948-.709Z" fill="#666667"/>
          <path d="M58.29,22.626c-.613-.246-1.217-.507-1.816-.777l.1.024a4.776,4.776,0,0,1-.947.044,3.433,3.433,0,0,1-.948-.222v-.05a3.4,3.4,0,0,1,.948-.223,4.852,4.852,0,0,1,.947.044l.068.006.029.019c.555.352,1.1.714,1.646,1.091Z" fill="#666667"/>
          <ellipse cx="56.488" cy="95.614" rx="36.679" ry="2.637" fill="#666667" opacity="0.41" style="mix-blend-mode: multiply"/>
        </g>
      </g>
    </g>
  </g>
</svg>
