<svg xmlns="http://www.w3.org/2000/svg" width="112.892" height="112.892" viewBox="0 0 112.892 112.892">
  <title>Asset 1chick</title>
  <g style="isolation: isolate">
    <g>
      <rect x="0.125" y="0.125" width="112.642" height="112.642" rx="8.069" fill="#f9fcff" stroke="#567c9a" stroke-miterlimit="10" stroke-width="0.25"/>
      <g>
        <g>
          <path d="M78.265,46.839,79.43,67.733a1.722,1.722,0,0,0,2.013,1.59,11.311,11.311,0,0,0,8.548-6.55c3.6-1.6,4.806-5.73,4.476-10.137a.291.291,0,0,1,.032-.156c2.585-4.962,3.634-11.212.7-15.584a1.2,1.2,0,0,0-1.931-.123C88.753,42.306,83.8,45.892,78.265,46.839Z" fill="#cbc740"/>
          <path d="M81.475,37.022a10.491,10.491,0,0,1-.67,2.39,3.365,3.365,0,0,1-1.96,1.95,2.72,2.72,0,0,1-.51.13c-2.27.48-5.56-.58-9.21-2.58-.03-.02-.06-.03-.09-.05-.08-.04-.16-.09-.24-.14a51.708,51.708,0,0,1-4.5-2.84c-.33-.24-.67-.48-1-.72a2.2,2.2,0,0,0-.18-.14c-1.8-1.32-3.6-2.78-5.33-4.32-1.15-1.02-2.28-2.08-3.36-3.15-1.46-1.45-2.83-2.94-4.06-4.41a43.611,43.611,0,0,1-3.46-4.66c-1.79-2.8-2.82-5.38-2.72-7.38a3.565,3.565,0,0,1,1.97-2.94,10.488,10.488,0,0,1,1.33-.58c4.73-1.7,10.72-.25,16.35,2.97C74,16.362,83.005,27.912,81.475,37.022Z" fill="#7b796a" stroke="#7f7f7f" stroke-miterlimit="10"/>
          <path d="M81.9,60.782a54.8,54.8,0,0,1-.27,5.48c-.1,1.04-.23,2.06-.39,3.07-2.58,16.6-12.52,29.1-24.54,29.82-.36.02-.72.03-1.09.03s-.72-.01-1.08-.03a18.5,18.5,0,0,1-3.24-.49,22.1,22.1,0,0,1-10.04-5.72c-.51-.48-1.01-.99-1.49-1.53-5-5.52-8.6-13.59-9.91-22.88a.881.881,0,0,0-.02-.17,56.866,56.866,0,0,1-.51-7.58,54.791,54.791,0,0,1,.89-9.89c.24-1.39.55-2.75.91-4.08,2.24-8.4,6.45-15.35,11.8-19.67a21.878,21.878,0,0,1,7.45-4,18.449,18.449,0,0,1,5.24-.76,18.051,18.051,0,0,1,4.29.51,21.262,21.262,0,0,1,8.41,4.27c.5.39.98.82,1.46,1.26.16.16.33.31.49.47a33.1,33.1,0,0,1,4.88,6.18c.09.15.18.31.27.46a39.769,39.769,0,0,1,2.93,5.96A44.206,44.206,0,0,1,80,46.442c.37,1.32.68,2.67.94,4.05A54.605,54.605,0,0,1,81.9,60.782Z" fill="#cbc740"/>
          <path d="M84.325,69.492c-1.19,9.85-4.19,17.06-8.79,21.91a22.683,22.683,0,0,1-2.93,2.63c-4.28,3.23-9.6,4.93-15.85,5.27-.05,0-.1.01-.15.01-.71-.04-1.4-.09-2.08-.16a32.749,32.749,0,0,1-3.24-.49,25.588,25.588,0,0,1-10.77-4.7,21.169,21.169,0,0,1-2.94-2.67c-4.56-4.86-7.52-12.03-8.7-21.8l.28-.33.67-.8.22-.27,7.4-8.83s7.66,10.49,8,10.87c.2.22,3.91-3.46,6.99-6.59,2.25-2.29,4.17-4.28,4.17-4.28s10.82,11.25,11.15,10.87,8.01-10.87,8.01-10.87l3.42,4.09,2.44,2.91,2.05,2.45Z" fill="#e7e7d8"/>
          <path d="M73.115,32.532l-7.58-4.17-7.01-.51-4.1-.3-7.74-.56,2.04-1.37a17.556,17.556,0,0,1-5.81,1.52c-6.59.34-8.06-5.99-8.45-13.7,1.55,8.93,5.31,14.28,15.25,9.62q-12.885.18-8.71-12.7c.27,3.55,2.94,6.23,5.9,8.12a28.773,28.773,0,0,0,8.31,3.57c-.02-.03-.08-.05-.19-.08-3.48-1.09-5.81-6.84-5.49-10.1.14-1.52.86-2.51,2.31-2.22a2.852,2.852,0,0,0-1.01,1.84c-.3,2.55,2.91,6.14,9.29,10.64.1.08.2.15.3.22l-.27-.33c-2.36-2.91-3.29-5.04-3.19-6.62a3.4,3.4,0,0,1,1.94-2.81,3.317,3.317,0,0,0-.67,2.67,9.969,9.969,0,0,0,2.58,4.55c.61.72,1.36,1.51,2.24,2.36.25.24.51.49.79.75.15.14.3.28.46.42a3.234,3.234,0,0,1-.38-.45,5.715,5.715,0,0,1-.96-2.37,10.637,10.637,0,0,1-.13-2.68,8.63,8.63,0,0,1,.1-.99,17.167,17.167,0,0,0,2.12,5.62,35.064,35.064,0,0,0,3.25,4.69C69.745,28.962,71.385,30.752,73.115,32.532Z" fill="#bb2026"/>
          <path d="M64.969,48.4a49.76,49.76,0,0,1-10.09-6.577v-.149c-.031.025-.063.049-.094.075l-.095-.075v.149A49.732,49.732,0,0,1,44.6,48.4l-3.268.616s1.231.379,1.515.426,3.985,1.357,5.116.995c1.032-.33,5.752,1.838,6.727,2.524v.176c0-.023.039-.061.095-.107.055.045.092.084.094.107v-.176c.975-.686,5.7-2.854,6.727-2.524,1.132.362,4.832-.947,5.116-.995s1.516-.426,1.516-.426Z" fill="#9d8933"/>
          <path d="M50.815,53.424a18.917,18.917,0,0,1,3.839,2.5v.057l.035-.029.036.029v-.057a18.917,18.917,0,0,1,3.839-2.5l1.243-.235s-.468-.144-.576-.162a6.082,6.082,0,0,0-1.947-.378,6.814,6.814,0,0,1-2.559-.96v-.067c0,.009-.014.023-.036.04-.021-.017-.035-.031-.035-.04v.067a6.813,6.813,0,0,1-2.56.96,6.075,6.075,0,0,0-1.946.378c-.108.018-.576.162-.576.162Z" fill="#9d8933"/>
          <ellipse cx="64.946" cy="39.71" rx="4.145" ry="5.234" fill="#010202"/>
          <ellipse cx="65.657" cy="39.805" rx="3.245" ry="4.334" fill="#edefaa"/>
          <ellipse cx="65.61" cy="40.397" rx="2.155" ry="2.321" fill="#010202"/>
          <path d="M60.8,39.71c1.373-7.745,8.573-5.945,8.384.4C66.695,38.485,63.9,38.34,60.8,39.71Z" fill="#bb2026"/>
          <path d="M55.4,36.538a4.761,4.761,0,0,0-.107,1.26c.013.2.137.367.08.541a2.383,2.383,0,0,1-.3.666l-.033.056-.06-.02a.928.928,0,0,1-.6-.606,1.129,1.129,0,0,1,.127-.765,2.891,2.891,0,0,1,.809-1.182l.039-.036.058.034Z" fill="#d17575"/>
          <path d="M50.924,37.936A2.018,2.018,0,0,1,52.2,38.7c.161.2.379.4.38.671a1.048,1.048,0,0,1-.3.783l-.044.047-.056-.033a1.693,1.693,0,0,1-.564-.521c-.123-.16-.066-.372-.12-.561a2.29,2.29,0,0,0-.615-1.059l-.037-.037.03-.06Z" fill="#d17575"/>
          <ellipse cx="45.194" cy="39.71" rx="4.145" ry="5.234" fill="#010202"/>
          <ellipse cx="44.483" cy="39.805" rx="3.245" ry="4.334" fill="#edefaa"/>
          <ellipse cx="44.531" cy="40.397" rx="2.155" ry="2.321" fill="#010202"/>
          <path d="M49.338,39.71c-.631-8.013-8.508-6-8.384.4C43.445,38.485,46.238,38.34,49.338,39.71Z" fill="#bb2026"/>
          <path d="M31.275,46.842l-.24,4.2-.93,16.69a2.254,2.254,0,0,1-.06.36,1.458,1.458,0,0,1-.2.44,1.619,1.619,0,0,1-.69.63,1.722,1.722,0,0,1-1.06.16,11.319,11.319,0,0,1-8.55-6.55c-3.59-1.6-4.8-5.73-4.47-10.14a.4.4,0,0,0-.03-.15c-2.59-4.96-3.64-11.21-.71-15.59a1.2,1.2,0,0,1,1.93-.12c4.48,5.48,9.37,9.05,14.85,10.04Z" fill="#cbc740"/>
          <polygon points="75.107 89.96 71.696 92.739 75.107 97.539 76.875 95.897 75.107 89.96" fill="#f05a28"/>
          <path d="M76.875,95.9l9.912-4.009a.737.737,0,0,1,.924,1.037c-.8,1.418-2.776,2.5-5.673,3.306-.217,3.312-2.754,4.807-6.584,5.286a5.382,5.382,0,0,1-2.827,3.156.723.723,0,0,1-.934-1.008l3.414-6.126Z" fill="#bb2026"/>
          <polygon points="41.385 92.742 41.245 92.942 40.515 93.962 37.965 97.542 36.205 95.892 37.575 91.292 37.965 89.962 39.755 91.412 41.385 92.742" fill="#f05a28"/>
          <path d="M40.445,104.672a5.379,5.379,0,0,1-2.82-3.15c-3.83-.48-6.37-1.98-6.59-5.29-2.89-.81-4.86-1.89-5.67-3.31a.732.732,0,0,1,.92-1.03l9.92,4,1.76,1.65,3.42,6.12A.726.726,0,0,1,40.445,104.672Z" fill="#bb2026"/>
          <polygon points="41.385 92.742 41.245 92.942 40.515 93.962 37.965 97.542 36.205 95.892 37.575 91.292 37.965 89.962 39.755 91.412 41.385 92.742" fill="#f05a28"/>
          <path d="M66.386,47.089q.925-.311,1.86-.538a2.674,2.674,0,0,1,.937-.194,2,2,0,0,1,.993.353l.01.1a2,2,0,0,1-.9.542,2.632,2.632,0,0,1-.957,0q-.961-.038-1.93-.158Z" fill="#d17575"/>
          <path d="M71.457,49.082a9.554,9.554,0,0,1-1.043.653c-.178.094-.333.272-.542.254a1.124,1.124,0,0,1-.689-.276l-.026-.1a1.113,1.113,0,0,1,.448-.591c.169-.124.394-.051.595-.062a9.4,9.4,0,0,1,1.23.022Z" fill="#d17575"/>
          <path d="M42.138,46.305a13.917,13.917,0,0,1-1.452.35,1.579,1.579,0,0,1-.726.1,1.4,1.4,0,0,1-.727-.45v-.1a1.389,1.389,0,0,1,.727-.45,1.553,1.553,0,0,1,.726.1,13.669,13.669,0,0,1,1.452.35Z" fill="#d17575"/>
          <path d="M60.138,21.307s.143,7.864.379,7.579,7.058-4.358,7.058-4.358.285,9.379.853,9.095,5.542-2.747,5.542-2.747-2.842,7.531-1.847,7.437,7.815.094,7.815.094-.9-9.663-1.089-9.947-8.716-10.611-8.716-10.611l-6.442-2.321-3.046-.536Z" fill="#666667" opacity="0.14" style="mix-blend-mode: multiply"/>
          <path d="M81.475,37.022a.578.578,0,0,1-.05.14l-6.02-1.63-.3-.08.03-.38.41-6.06-5.29-.12-.45-.01-.04-.46-.6-7.49-4.11,1.54-1.13.42-.08.03-.74.28-.05-1.03-.09-1.65-.13-2.68-.04-.7-1.18.09-1.29.1.32-2.34-2.41.27-1.27.14-2.45.28.38-5.36-4.06,1.17-1.3.38-3.17.91-.21-4.62a10.488,10.488,0,0,1,1.33-.58c4.91-1.83,10.84-.31,16.38,2.91C74.9,16.9,84.405,30.042,81.475,37.022Z" fill="#e7e7d8"/>
          <path d="M39.972,48.827a9.122,9.122,0,0,1-1.207-.118c-.2-.034-.424.013-.575-.129a1.105,1.105,0,0,1-.365-.637l.038-.092a1.1,1.1,0,0,1,.708-.2c.207.005.336.2.5.313a9.291,9.291,0,0,1,.94.766Z" fill="#d17575"/>
          <path d="M32.028,51.231a14.758,14.758,0,0,1-5.531-.952A17.728,17.728,0,0,1,21.651,47.4a31.688,31.688,0,0,1-7.217-8.444l.083-.055a34.163,34.163,0,0,0,7.614,7.858,28.4,28.4,0,0,0,4.744,2.594,33.361,33.361,0,0,0,5.164,1.778Z" fill="#bb2026"/>
          <path d="M77.5,51.131a33.361,33.361,0,0,0,5.164-1.778,28.4,28.4,0,0,0,4.744-2.594A34.163,34.163,0,0,0,95.023,38.9l.083.055A31.688,31.688,0,0,1,87.889,47.4a17.728,17.728,0,0,1-4.846,2.879,14.758,14.758,0,0,1-5.531.952Z" fill="#bb2026"/>
          <path d="M76.86,38.36l1.475,3.132c1.9-.8,2.866-2.059,2.551-3.937l-1.232-.284C80.894,38.454,79.237,38.543,76.86,38.36Z" fill="#666667" opacity="0.14" style="mix-blend-mode: multiply"/>
        </g>
        <path d="M63.865,10.492l-.03.06c-.68,1.94-1.43,4.18-2.22,6.68-.26.83-.53,1.69-.8,2.58-.22.72-.44,1.45-.66,2.21-.01.03-.02.07-.03.11-.08.25-.15.51-.23.76-.46,1.59-.92,3.25-1.37,4.96-.25.93-.5,1.88-.74,2.85-.91,3.6-1.78,7.43-2.55,11.41-.64,3.28-1.2,6.67-1.68,10.12a.277.277,0,0,1-.01.09c-.11.83-.22,1.68-.32,2.52-.34,2.87-.61,5.78-.79,8.7-.72,12.28.22,24.74,4.26,35.61l.06.15c-.05,0-.1.01-.15.01-.71-.04-1.4-.09-2.08-.16a18.5,18.5,0,0,1-3.24-.49,25.588,25.588,0,0,1-10.77-4.7l-2.55,3.58,3.42,6.12a.726.726,0,0,1-.94,1.01,5.379,5.379,0,0,1-2.82-3.15c-3.83-.48-6.37-1.98-6.59-5.29-2.89-.81-4.86-1.89-5.67-3.31a.732.732,0,0,1,.92-1.03l9.92,4,1.37-4.6c-4.56-4.86-7.52-12.03-8.7-21.8l.28-.33a1.722,1.722,0,0,1-1.06.16,11.319,11.319,0,0,1-8.55-6.55c-3.59-1.6-4.8-5.73-4.47-10.14a.4.4,0,0,0-.03-.15c-2.59-4.96-3.64-11.21-.71-15.59a1.2,1.2,0,0,1,1.93-.12c4.48,5.48,9.37,9.05,14.85,10.04,2.24-8.4,6.45-15.35,11.8-19.67-6.59.34-8.06-5.99-8.45-13.7,1.55,8.93,5.31,14.28,15.25,9.62q-12.885.18-8.71-12.7c.27,3.55,2.94,6.23,5.9,8.12-1.79-2.8-2.82-5.38-2.72-7.38a3.565,3.565,0,0,1,1.97-2.94,10.488,10.488,0,0,1,1.33-.58C52.4,5.752,58.325,7.272,63.865,10.492Z" fill="#666667" opacity="0.14" style="mix-blend-mode: multiply"/>
        <polygon points="74.065 57.876 66.77 69.149 67.755 70.132 75.765 59.262 74.065 57.876" fill="#666667" opacity="0.14" style="mix-blend-mode: multiply"/>
        <polygon points="56.605 59.262 45.445 70.132 55.591 58.539 56.605 59.262" fill="#666667" opacity="0.14" style="mix-blend-mode: multiply"/>
        <polygon points="37.445 59.262 30.045 68.092 29.633 65.834 35.981 58.349 37.445 59.262" fill="#666667" opacity="0.14" style="mix-blend-mode: multiply"/>
        <path d="M30.012,51.907c-2.181,4.521-1.615,10.137.033,16.185A48.622,48.622,0,0,1,30.012,51.907Z" fill="#666667" opacity="0.14" style="mix-blend-mode: multiply"/>
        <path d="M30.3,51.339c-12.231.382-16.513-5.214-15.961-14.447C14.055,41.35,19.209,46.155,30.3,51.339Z" fill="#666667" opacity="0.14" style="mix-blend-mode: multiply"/>
        <path d="M15.423,52.192c.6,3.024,3.558,3.51,7.863,2.557C19.917,54.48,17.06,53.811,15.423,52.192Z" fill="#666667" opacity="0.14" style="mix-blend-mode: multiply"/>
        <path d="M20.031,62.91C22.265,65,24.291,64,26.2,61.257,24.072,62.611,21.994,63.414,20.031,62.91Z" fill="#666667" opacity="0.14" style="mix-blend-mode: multiply"/>
        <path d="M45.833,34.523c-1.128,1.471-1.762,2.918-1.279,4.311a5.568,5.568,0,0,0-3.6,1.279C41.32,36.445,42.721,34.257,45.833,34.523Z" fill="#666667" opacity="0.14" style="mix-blend-mode: multiply"/>
        <path d="M40.954,40.113c2.4-1.748,5.215-1.8,8.384-.4A20.4,20.4,0,0,0,40.954,40.113Z" fill="#666667" opacity="0.14" style="mix-blend-mode: multiply"/>
        <path d="M66.344,34.807a5.462,5.462,0,0,0-.142,4.074,8.731,8.731,0,0,0-5.4.829C61.521,36.1,63.154,34.089,66.344,34.807Z" fill="#666667" opacity="0.14" style="mix-blend-mode: multiply"/>
        <path d="M60.8,39.71c3.093-1.4,5.9-1.329,8.384.4A17.235,17.235,0,0,0,60.8,39.71Z" fill="#666667" opacity="0.14" style="mix-blend-mode: multiply"/>
        <path d="M41.005,10.362c-2.772,11.23,3.075,14.043,14.21,11.69C44.74,23.783,39.849,20.038,41.005,10.362Z" fill="#666667" opacity="0.14" style="mix-blend-mode: multiply"/>
        <path d="M50.049,12.213c-.179,6.315,3.038,9.075,8.147,9.852C53.738,20.477,50.608,17.6,50.049,12.213Z" fill="#666667" opacity="0.14" style="mix-blend-mode: multiply"/>
        <path d="M60.9,22.207c-.513.535-4.237-5.628-3.694-6.394A24.782,24.782,0,0,0,60.9,22.018" fill="#666667" opacity="0.14" style="mix-blend-mode: multiply"/>
        <path d="M53.412,22.918c.213.634-6.056,2.592-6.347,2.416C42.944,27.844,35,23.305,34.8,15.86c1.053,9.42,4.673,13.547,12.269,9.474A30.7,30.7,0,0,0,53.412,22.918Z" fill="#666667" opacity="0.14" style="mix-blend-mode: multiply"/>
        <path d="M54.69,41.825a24.4,24.4,0,0,0,0,11.314c.119-.238-2.965-1.739-2.841-1.658.786.516,1.431-8.2.947-8.053Z" fill="#666667" opacity="0.14" style="mix-blend-mode: multiply"/>
        <polygon points="51.328 52.807 54.028 53.281 54.69 52.963 55.828 53.66 57.533 52.902 59.807 53.189 56.065 52.239 54.69 52.963 53.317 52.286 52.323 52.571 51.328 52.807" fill="#666667" opacity="0.14" style="mix-blend-mode: multiply"/>
        <path d="M95,38.928c-2.8,10.054-8.418,14.583-17.495,12.316C84.979,50.815,90.652,46.354,95,38.928Z" fill="#666667" opacity="0.14" style="mix-blend-mode: multiply"/>
        <path d="M93.549,53.076c-1.288,2.688-3.679,3.52-6.568,2.652A10.594,10.594,0,0,0,93.549,53.076Z" fill="#666667" opacity="0.14" style="mix-blend-mode: multiply"/>
        <path d="M89.8,63.013c-2.716,1.228-5.082.326-6.734-2.2A10.6,10.6,0,0,0,89.8,63.013Z" fill="#666667" opacity="0.14" style="mix-blend-mode: multiply"/>
        <path d="M73.086,91.6a12.8,12.8,0,0,0,2.842,5.116c1.339,1.192,3.235,1.539,5.874.758-.607,2.161-2.839,3.445-6.348,4.041-2.169,3.327-3.335,3.735-3.947,2.527l3.6-6.5-3.411-4.8Z" fill="#666667" opacity="0.14" style="mix-blend-mode: multiply"/>
        <path d="M39.755,91.412l-2.8,5.495s1.078,4.556.665,4.615c-1.8.249-6.653-1.832-6.59-5.29-5.145-1.807-6.96-3.935-4.75-4.34,0,0,10.113,4.311,9.92,4s1.76-5.93,1.76-5.93Z" fill="#666667" opacity="0.14" style="mix-blend-mode: multiply"/>
        <path d="M76.37,86.107a33.78,33.78,0,0,1-13.705,8.716c-.888,4.363,2.028,4.538,9.94-.791L71.7,92.739l3.411-2.779a18.766,18.766,0,0,0,5.242-9.095Z" fill="#666667" opacity="0.14" style="mix-blend-mode: multiply"/>
        <path d="M88.244,64.886C86.257,67.205,76.253,60.94,76.812,59.9l7.137,8.463A7.107,7.107,0,0,0,88.244,64.886Z" fill="#666667" opacity="0.14" style="mix-blend-mode: multiply"/>
        <path d="M59.507,40.949q.188,4.8,5.937,6.569A17.518,17.518,0,0,1,59.507,40.949Z" fill="#666667" opacity="0.14" style="mix-blend-mode: multiply"/>
        <path d="M39.36,41.076c-.905,1.428,2.121,4.322,2.842,4.1A8.179,8.179,0,0,1,39.36,41.076Z" fill="#666667" opacity="0.14" style="mix-blend-mode: multiply"/>
        <path d="M50.223,45.244a7.138,7.138,0,0,0-.253,5.621L48.328,50.3a4.787,4.787,0,0,1,.253-4.042Z" fill="#666667" opacity="0.14" style="mix-blend-mode: multiply"/>
        <path d="M68.238,49.018l-12.552,4.5-1.658-.237-12.7-4.263,5.828,1.531,1.168-.252a24.654,24.654,0,0,1,6.362,2.666,31.613,31.613,0,0,1,6.743-2.6s.569.253.7.189S68.238,49.018,68.238,49.018Z" fill="#666667" opacity="0.14" style="mix-blend-mode: multiply"/>
        <polygon points="54.69 53.139 54.654 55.926 50.815 53.424 49.572 53.189 51.928 52.634 54.028 53.281 54.69 53.139" fill="#666667" opacity="0.14" style="mix-blend-mode: multiply"/>
        <path d="M65.254,34.571a4.919,4.919,0,0,0-.331,4.263L60.8,39.71C61.247,36.352,62.7,34.589,65.254,34.571Z" fill="#666667" opacity="0.14" style="mix-blend-mode: multiply"/>
        <path d="M44.412,34.628a5.963,5.963,0,0,0-.268,4.264l-3.337.876C41.167,36.409,42.344,34.647,44.412,34.628Z" fill="#666667" opacity="0.14" style="mix-blend-mode: multiply"/>
        <path d="M93.991,37.792c-3.37,5.594-7.811,9.644-14.084,11.052A49.776,49.776,0,0,0,93.991,37.792Z" fill="#fff" opacity="0.28" style="mix-blend-mode: lighten"/>
        <path d="M95.76,40.7c.674,2.765,1.06,5.408-.569,7.2A18.5,18.5,0,0,0,95.76,40.7Z" fill="#fff" opacity="0.28" style="mix-blend-mode: lighten"/>
        <ellipse cx="67.591" cy="37.413" rx="0.568" ry="0.758" fill="#fff" opacity="0.28" style="mix-blend-mode: lighten"/>
        <ellipse cx="66.328" cy="40.223" rx="0.316" ry="0.411" fill="#fff" opacity="0.28" style="mix-blend-mode: lighten"/>
        <path d="M63.107,48.023a20.843,20.843,0,0,1-6.569-4.042c-.674,1.449-.773,3.668-.694,6.126C57.861,48.361,60.129,47.265,63.107,48.023Z" fill="#fff" opacity="0.28" style="mix-blend-mode: lighten"/>
        <g opacity="0.31">
          <path d="M57.821,53.248c-.321.239-.635.492-.968.7l-.491.333a1,1,0,0,1-.52.261l-.374.037-.067-.07a1.475,1.475,0,0,1-.4-.758l.051-.086a1.475,1.475,0,0,1,.859,0l-.44-.033a.994.994,0,0,1,.553-.181l.583-.11c.383-.087.784-.129,1.18-.185Z" fill="#fff"/>
        </g>
        <g opacity="0.31">
          <path d="M82.968,69.471a32.631,32.631,0,0,1-3.907-3.855,18.162,18.162,0,0,1-1.768-2.095,11.369,11.369,0,0,1-1.279-2.458L76.1,61a13.733,13.733,0,0,1,1.992,1.909,26.044,26.044,0,0,1,1.6,2.2q.791,1.107,1.623,2.182a23.632,23.632,0,0,0,1.728,2.1Z" fill="#fff"/>
        </g>
        <g opacity="0.31">
          <path d="M66.293,70.8q-2.442-2.1-4.825-4.267a29.614,29.614,0,0,1-2.36-2.187,17.05,17.05,0,0,1-1.973-2.578l.07-.071a17.042,17.042,0,0,1,2.606,1.937,29.962,29.962,0,0,1,2.219,2.329q2.2,2.353,4.333,4.765Z" fill="#fff"/>
        </g>
        <g opacity="0.31">
          <path d="M43.361,70.221Q41.653,68.1,40.01,65.936A21.22,21.22,0,0,1,38.4,63.749a12.3,12.3,0,0,1-1.161-2.5l.083-.056a12.316,12.316,0,0,1,1.9,1.986,20.982,20.982,0,0,1,1.448,2.3q1.422,2.318,2.776,4.685Z" fill="#fff"/>
        </g>
        <g opacity="0.31">
          <path d="M83.151,70.526c.222.212.183.463.222.689.02.232.02.462.018.693-.006.46-.034.918-.07,1.375-.09.912-.216,1.818-.363,2.722a14.362,14.362,0,0,1-.58,2.691,9.2,9.2,0,0,1-.576,1.276,4.723,4.723,0,0,1-.39.6c-.169.172-.305.416-.613.466l-.016-.1a3.855,3.855,0,0,0,.361-1.219l.275-1.308c.178-.875.52-1.713.757-2.583s.465-1.743.651-2.625c.1-.439.194-.881.265-1.324.035-.222.068-.445.081-.666a1.064,1.064,0,0,0-.068-.6Z" fill="#fff"/>
        </g>
        <g opacity="0.31">
          <path d="M85.553,93.1c-1.127.646-2.281,1.179-3.442,1.718a10.346,10.346,0,0,1-1.755.761,6.287,6.287,0,0,1-1.948.24l-.034-.093a6.419,6.419,0,0,1,1.634-1.085,10.653,10.653,0,0,1,1.822-.573l1.837-.534c.614-.168,1.243-.323,1.836-.521Z" fill="#fff"/>
        </g>
        <g opacity="0.31">
          <path d="M76.133,94.964q-.445-.744-.81-1.512a2.092,2.092,0,0,1-.333-.777,1.677,1.677,0,0,1,.2-.932l.1-.029a1.672,1.672,0,0,1,.669.679,2.088,2.088,0,0,1,.141.833q.108.843.138,1.709Z" fill="#fff"/>
        </g>
        <g opacity="0.31">
          <path d="M38.248,95.864a12.794,12.794,0,0,1,.653-1.273c.12-.2.175-.462.383-.587a1.319,1.319,0,0,1,.8-.224l.075.066a1.327,1.327,0,0,1-.12.818c-.1.222-.348.31-.533.455a12.583,12.583,0,0,1-1.179.811Z" fill="#fff"/>
        </g>
        <g opacity="0.31">
          <path d="M47.115,36.528a2.648,2.648,0,0,0-.026.364.4.4,0,0,1-.34.392.608.608,0,0,1-.536-.293,1.114,1.114,0,0,1-.18-.463,1.208,1.208,0,0,1,.028-.538.685.685,0,0,1,.688-.467.506.506,0,0,1,.485.569C47.214,36.285,47.126,36.415,47.115,36.528Zm-.1,0a.273.273,0,0,0-.259-.2c-.123-.025-.209.144-.007.191.2.02.23-.105.2-.088-.04-.008-.084.039-.112.093-.066.118-.007.248-.084.256-.038.05.062.073.152.013A.258.258,0,0,0,47.015,36.528Z" fill="#fff"/>
        </g>
        <g opacity="0.31">
          <path d="M45.473,40.444a.254.254,0,0,0,.023.187c.019.068.071.233-.2.316a.466.466,0,0,1-.406-.24.91.91,0,0,1-.12-.263.882.882,0,0,1-.039-.322.525.525,0,0,1,.565-.43.421.421,0,0,1,.383.269.341.341,0,0,1-.03.24C45.584,40.324,45.486,40.389,45.473,40.444Zm-.1,0c-.014-.047-.126-.084-.226-.057-.079,0-.25.2.149.3.409-.036.363-.226.363-.226a.07.07,0,0,0-.089-.022c-.025.011-.047.029-.07.037s-.029-.029-.2-.034c-.161.077-.05.133,0,.111S45.394,40.49,45.373,40.444Z" fill="#fff"/>
        </g>
        <g opacity="0.31">
          <path d="M64.35,21.451q1.02-.674,2.073-1.269a4.2,4.2,0,0,1,1.066-.566,2.853,2.853,0,0,1,1.282-.06l.04.092a2.842,2.842,0,0,1-.928.887,4.172,4.172,0,0,1-1.145.382q-1.158.351-2.348.626Z" fill="#fff"/>
        </g>
        <g opacity="0.31">
          <path d="M71.183,27.763a11.1,11.1,0,0,1,2.538-.517,4.026,4.026,0,0,1,1.294-.051,2.773,2.773,0,0,1,1.235.568l-.013.1a3.528,3.528,0,0,1-1.287.331,5.48,5.48,0,0,1-1.237-.147,23.923,23.923,0,0,0-2.514-.184Z" fill="#fff"/>
        </g>
        <g opacity="0.31">
          <path d="M76.764,34.46l4.008,1.171-.191.132a21.673,21.673,0,0,0-1.065-7.4,20.721,20.721,0,0,0-3.583-6.5A37.764,37.764,0,0,0,70.6,16.66c-1.936-1.582-4.017-3-6.131-4.4l.047-.089a33.29,33.29,0,0,1,6.655,3.753,24.275,24.275,0,0,1,5.465,5.4,22.174,22.174,0,0,1,3.458,6.86,21.106,21.106,0,0,1,.776,7.594l-.014.193-.177-.061-3.949-1.355Z" fill="#fff"/>
        </g>
      </g>
    </g>
  </g>
</svg>
