<svg xmlns="http://www.w3.org/2000/svg" width="84.401" height="98.377" viewBox="0 0 84.401 98.377">
  <title>Asset 10</title>
  <g style="isolation: isolate">
    <g>
      <g>
        <path d="M65.7,40.475l1.166,20.893a1.72,1.72,0,0,0,2.013,1.59,11.309,11.309,0,0,0,8.548-6.549c3.6-1.6,4.8-5.73,4.475-10.138a.293.293,0,0,1,.032-.156c2.585-4.961,3.634-11.211.7-15.583a1.206,1.206,0,0,0-1.932-.124C76.184,35.942,71.233,39.528,65.7,40.475Z" fill="#ccc840"/>
        <path d="M68.906,30.658a10.491,10.491,0,0,1-.67,2.39A3.365,3.365,0,0,1,66.276,35a2.72,2.72,0,0,1-.51.13c-2.27.48-5.56-.58-9.21-2.58-.03-.02-.06-.03-.09-.05-.08-.04-.16-.09-.24-.14a51.708,51.708,0,0,1-4.5-2.84c-.33-.24-.67-.48-1-.72a2.2,2.2,0,0,0-.18-.14c-1.8-1.32-3.6-2.78-5.33-4.32-1.15-1.02-2.28-2.08-3.36-3.15-1.46-1.45-2.83-2.94-4.06-4.41a43.611,43.611,0,0,1-3.46-4.66c-1.79-2.8-2.82-5.38-2.72-7.38a3.565,3.565,0,0,1,1.97-2.94,10.488,10.488,0,0,1,1.33-.58c4.73-1.7,10.72-.25,16.35,2.97C61.426,10,70.436,21.548,68.906,30.658Z" fill="#7a786a" stroke="#7f7f7f" stroke-miterlimit="10"/>
        <path d="M69.326,54.418a54.8,54.8,0,0,1-.27,5.48c-.1,1.04-.23,2.06-.39,3.07-2.58,16.6-12.52,29.1-24.54,29.82-.36.02-.72.03-1.09.03s-.72-.01-1.08-.03a18.5,18.5,0,0,1-3.24-.49,22.1,22.1,0,0,1-10.04-5.72c-.51-.48-1.01-.99-1.49-1.53-5-5.52-8.6-13.59-9.91-22.88a.881.881,0,0,0-.02-.17,56.866,56.866,0,0,1-.51-7.58,54.791,54.791,0,0,1,.89-9.89c.24-1.39.55-2.75.91-4.08,2.24-8.4,6.45-15.35,11.8-19.67a21.878,21.878,0,0,1,7.45-4,18.449,18.449,0,0,1,5.24-.76,18.051,18.051,0,0,1,4.29.51,21.262,21.262,0,0,1,8.41,4.27c.5.39.98.82,1.46,1.26.16.16.33.31.49.47a33.1,33.1,0,0,1,4.88,6.18c.09.15.18.31.27.46a39.769,39.769,0,0,1,2.93,5.96,44.206,44.206,0,0,1,1.66,4.95c.37,1.32.68,2.67.94,4.05A54.605,54.605,0,0,1,69.326,54.418Z" fill="#ccc840"/>
        <path d="M71.756,63.128c-1.19,9.85-4.19,17.06-8.79,21.91a22.683,22.683,0,0,1-2.93,2.63c-4.28,3.23-9.6,4.93-15.85,5.27-.05,0-.1.01-.15.01-.71-.04-1.4-.09-2.08-.16a32.749,32.749,0,0,1-3.24-.49,25.588,25.588,0,0,1-10.77-4.7,21.169,21.169,0,0,1-2.94-2.67c-4.56-4.86-7.52-12.03-8.7-21.8l.28-.33.67-.8.22-.27,7.4-8.83s7.66,10.49,8,10.87c.2.22,3.91-3.46,6.99-6.59,2.25-2.29,4.17-4.28,4.17-4.28s10.82,11.25,11.15,10.87S63.2,52.9,63.2,52.9l3.42,4.09,2.44,2.91,2.05,2.45Z" fill="#e8e8d9"/>
        <path d="M60.546,26.168,52.966,22l-7.01-.51-4.1-.3-7.74-.56,2.04-1.37a17.556,17.556,0,0,1-5.81,1.52c-6.59.34-8.06-5.99-8.45-13.7,1.55,8.93,5.31,14.28,15.25,9.62q-12.885.18-8.71-12.7c.27,3.55,2.94,6.23,5.9,8.12a28.773,28.773,0,0,0,8.31,3.57c-.02-.03-.08-.05-.19-.08-3.48-1.09-5.81-6.84-5.49-10.1.14-1.52.86-2.51,2.31-2.22a2.852,2.852,0,0,0-1.01,1.84c-.3,2.55,2.91,6.14,9.29,10.64.1.08.2.15.3.22l-.27-.33c-2.36-2.91-3.29-5.04-3.19-6.62a3.4,3.4,0,0,1,1.94-2.81,3.317,3.317,0,0,0-.67,2.67,9.969,9.969,0,0,0,2.58,4.55c.61.72,1.36,1.51,2.24,2.36.25.24.51.49.79.75.15.14.3.28.46.42a3.234,3.234,0,0,1-.38-.45,5.715,5.715,0,0,1-.96-2.37,10.637,10.637,0,0,1-.13-2.68,8.63,8.63,0,0,1,.1-.99,17.167,17.167,0,0,0,2.12,5.62,35.064,35.064,0,0,0,3.25,4.69C57.176,22.6,58.816,24.388,60.546,26.168Z" fill="#bc2026"/>
        <path d="M52.4,42.038a49.787,49.787,0,0,1-10.09-6.577v-.149l-.094.074-.094-.074v.149a49.765,49.765,0,0,1-10.091,6.577l-3.268.616s1.231.379,1.516.426,3.984,1.357,5.115,1c1.032-.33,5.753,1.838,6.728,2.524v.176c0-.024.038-.062.094-.107.055.045.092.083.094.107V46.6c.975-.686,5.7-2.854,6.727-2.524,1.132.362,4.832-.948,5.116-1s1.516-.426,1.516-.426Z" fill="#9e8a33"/>
        <path d="M38.246,47.06a18.953,18.953,0,0,1,3.839,2.5v.057l.036-.028.035.028v-.057A18.953,18.953,0,0,1,46,47.06l1.243-.235s-.468-.144-.576-.162a6.075,6.075,0,0,0-1.946-.378,6.815,6.815,0,0,1-2.56-.961v-.066c0,.008-.014.023-.035.04-.022-.017-.036-.032-.036-.04v.066a6.817,6.817,0,0,1-2.559.961,6.076,6.076,0,0,0-1.947.378c-.108.018-.576.162-.576.162Z" fill="#9e8a33"/>
        <ellipse cx="52.377" cy="33.346" rx="4.145" ry="5.234" fill="#020203"/>
        <ellipse cx="53.088" cy="33.441" rx="3.245" ry="4.334" fill="#edf0ab"/>
        <ellipse cx="53.041" cy="34.033" rx="2.155" ry="2.321" fill="#020203"/>
        <path d="M48.233,33.346c1.373-7.745,8.573-5.945,8.384.4C54.126,32.121,51.333,31.976,48.233,33.346Z" fill="#bc2026"/>
        <path d="M42.829,30.173a4.768,4.768,0,0,0-.106,1.261c.012.2.136.367.079.541a2.386,2.386,0,0,1-.3.666l-.034.055-.06-.019a.924.924,0,0,1-.6-.606,1.126,1.126,0,0,1,.126-.766,2.894,2.894,0,0,1,.809-1.181l.039-.036.058.034Z" fill="#d17575"/>
        <path d="M38.355,31.572a2.018,2.018,0,0,1,1.271.763c.161.2.379.4.38.67a1.049,1.049,0,0,1-.3.784l-.044.047L39.61,33.8a1.7,1.7,0,0,1-.565-.52c-.123-.16-.066-.373-.119-.561a2.292,2.292,0,0,0-.616-1.059l-.037-.037.03-.06Z" fill="#d17575"/>
        <ellipse cx="32.625" cy="33.346" rx="4.145" ry="5.234" fill="#020203"/>
        <ellipse cx="31.914" cy="33.441" rx="3.245" ry="4.334" fill="#edf0ab"/>
        <ellipse cx="31.962" cy="34.033" rx="2.155" ry="2.321" fill="#020203"/>
        <path d="M36.77,33.346c-.632-8.013-8.509-6-8.385.4C30.876,32.121,33.669,31.976,36.77,33.346Z" fill="#bc2026"/>
        <path d="M18.706,40.478l-.24,4.2-.93,16.69a2.254,2.254,0,0,1-.06.36,1.458,1.458,0,0,1-.2.44,1.619,1.619,0,0,1-.69.63,1.722,1.722,0,0,1-1.06.16,11.319,11.319,0,0,1-8.55-6.55c-3.59-1.6-4.8-5.73-4.47-10.14a.4.4,0,0,0-.03-.15c-2.59-4.96-3.64-11.21-.71-15.59a1.2,1.2,0,0,1,1.93-.12c4.48,5.48,9.37,9.05,14.85,10.04Z" fill="#ccc840"/>
        <polygon points="62.538 83.596 59.127 86.375 62.538 91.175 64.306 89.533 62.538 83.596" fill="#f15a29"/>
        <path d="M64.306,89.533l9.912-4.01a.738.738,0,0,1,.924,1.038c-.8,1.418-2.776,2.5-5.673,3.306-.217,3.312-2.753,4.806-6.584,5.286a5.382,5.382,0,0,1-2.827,3.156.724.724,0,0,1-.934-1.009l3.414-6.125Z" fill="#bc2026"/>
        <polygon points="28.816 86.378 28.676 86.578 27.946 87.598 25.396 91.178 23.636 89.528 25.006 84.928 25.396 83.598 27.186 85.048 28.816 86.378" fill="#f15a29"/>
        <path d="M27.876,98.308a5.379,5.379,0,0,1-2.82-3.15c-3.83-.48-6.37-1.98-6.59-5.29-2.89-.81-4.86-1.89-5.67-3.31a.732.732,0,0,1,.92-1.03l9.92,4,1.76,1.65,3.42,6.12A.726.726,0,0,1,27.876,98.308Z" fill="#bc2026"/>
        <polygon points="28.816 86.378 28.676 86.578 27.946 87.598 25.396 91.178 23.636 89.528 25.006 84.928 25.396 83.598 27.186 85.048 28.816 86.378" fill="#f15a29"/>
        <path d="M53.817,40.725q.925-.31,1.86-.538a2.68,2.68,0,0,1,.938-.194,1.994,1.994,0,0,1,.992.353l.01.1a2,2,0,0,1-.9.542,2.632,2.632,0,0,1-.957-.005q-.961-.038-1.93-.158Z" fill="#d17575"/>
        <path d="M58.888,42.718a9.554,9.554,0,0,1-1.043.653c-.178.094-.332.272-.542.254a1.119,1.119,0,0,1-.688-.276l-.027-.1a1.125,1.125,0,0,1,.448-.592c.17-.123.394-.05.595-.061a9.394,9.394,0,0,1,1.23.021Z" fill="#d17575"/>
        <path d="M29.57,39.941a14,14,0,0,1-1.453.35,1.579,1.579,0,0,1-.726.1,1.4,1.4,0,0,1-.727-.45v-.1a1.392,1.392,0,0,1,.727-.45,1.553,1.553,0,0,1,.726.1,13.5,13.5,0,0,1,1.453.35Z" fill="#d17575"/>
        <path d="M47.57,14.943s.142,7.863.379,7.579,7.057-4.358,7.057-4.358.285,9.379.853,9.095S61.4,24.512,61.4,24.512s-2.842,7.531-1.847,7.437,7.816.094,7.816.094-.9-9.663-1.09-9.947-8.716-10.611-8.716-10.611L51.122,9.164l-3.046-.536Z" fill="#666766" opacity="0.14" style="mix-blend-mode: multiply"/>
        <path d="M68.906,30.658a.578.578,0,0,1-.05.14l-6.02-1.63-.3-.08.03-.38.41-6.06-5.29-.12-.45-.01-.04-.46-.6-7.49-4.11,1.54-1.13.42-.08.03-.74.28-.05-1.03-.09-1.65-.13-2.68-.04-.7-1.18.09-1.29.1.32-2.34-2.41.27-1.27.14-2.45.28.38-5.36-4.06,1.17-1.3.38-3.17.91-.21-4.62a10.488,10.488,0,0,1,1.33-.58c4.91-1.83,10.84-.31,16.38,2.91C62.326,10.538,71.836,23.678,68.906,30.658Z" fill="#e8e8d9"/>
        <path d="M27.4,42.463a9.294,9.294,0,0,1-1.207-.118c-.2-.034-.424.013-.575-.129a1.105,1.105,0,0,1-.365-.637l.038-.093a1.116,1.116,0,0,1,.708-.2c.207.006.336.2.5.314a9.157,9.157,0,0,1,.94.766Z" fill="#d17575"/>
        <path d="M19.459,44.867a14.762,14.762,0,0,1-5.531-.952,17.706,17.706,0,0,1-4.846-2.88,31.686,31.686,0,0,1-7.217-8.443l.083-.055A34.163,34.163,0,0,0,9.562,40.4a28.319,28.319,0,0,0,4.744,2.593,33.259,33.259,0,0,0,5.164,1.779Z" fill="#bc2026"/>
        <path d="M64.932,44.767A33.307,33.307,0,0,0,70.1,42.988,28.349,28.349,0,0,0,74.84,40.4a34.163,34.163,0,0,0,7.614-7.858l.084.055a31.69,31.69,0,0,1-7.218,8.443,17.706,17.706,0,0,1-4.846,2.88,14.757,14.757,0,0,1-5.53.952Z" fill="#bc2026"/>
        <path d="M64.291,32l1.475,3.132c1.9-.8,2.866-2.059,2.551-3.937l-1.232-.285C68.325,32.09,66.668,32.179,64.291,32Z" fill="#666766" opacity="0.14" style="mix-blend-mode: multiply"/>
      </g>
      <path d="M51.3,4.128l-.03.06c-.68,1.94-1.43,4.18-2.22,6.68-.26.83-.53,1.69-.8,2.58-.22.72-.44,1.45-.66,2.21-.01.03-.02.07-.03.11-.08.25-.15.51-.23.76-.46,1.59-.92,3.25-1.37,4.96-.25.93-.5,1.88-.74,2.85-.91,3.6-1.78,7.43-2.55,11.41-.64,3.28-1.2,6.67-1.68,10.12a.277.277,0,0,1-.01.09c-.11.83-.22,1.68-.32,2.52-.34,2.87-.61,5.78-.79,8.7-.72,12.28.22,24.74,4.26,35.61l.06.15c-.05,0-.1.01-.15.01-.71-.04-1.4-.09-2.08-.16a18.5,18.5,0,0,1-3.24-.49,25.588,25.588,0,0,1-10.77-4.7l-2.55,3.58,3.42,6.12a.726.726,0,0,1-.94,1.01,5.379,5.379,0,0,1-2.82-3.15c-3.83-.48-6.37-1.98-6.59-5.29-2.89-.81-4.86-1.89-5.67-3.31a.732.732,0,0,1,.92-1.03l9.92,4,1.37-4.6c-4.56-4.86-7.52-12.03-8.7-21.8l.28-.33a1.722,1.722,0,0,1-1.06.16,11.319,11.319,0,0,1-8.55-6.55c-3.59-1.6-4.8-5.73-4.47-10.14a.4.4,0,0,0-.03-.15c-2.59-4.96-3.64-11.21-.71-15.59a1.2,1.2,0,0,1,1.93-.12c4.48,5.48,9.37,9.05,14.85,10.04,2.24-8.4,6.45-15.35,11.8-19.67-6.59.34-8.06-5.99-8.45-13.7,1.55,8.93,5.31,14.28,15.25,9.62q-12.885.18-8.71-12.7c.27,3.55,2.94,6.23,5.9,8.12-1.79-2.8-2.82-5.38-2.72-7.38a3.565,3.565,0,0,1,1.97-2.94,10.488,10.488,0,0,1,1.33-.58C39.826-.612,45.756.908,51.3,4.128Z" fill="#666766" opacity="0.14" style="mix-blend-mode: multiply"/>
      <polygon points="61.496 51.512 54.201 62.785 55.186 63.768 63.196 52.898 61.496 51.512" fill="#666766" opacity="0.14" style="mix-blend-mode: multiply"/>
      <polygon points="44.036 52.898 32.876 63.768 43.022 52.175 44.036 52.898" fill="#666766" opacity="0.14" style="mix-blend-mode: multiply"/>
      <polygon points="24.876 52.898 17.476 61.728 17.064 59.47 23.412 51.985 24.876 52.898" fill="#666766" opacity="0.14" style="mix-blend-mode: multiply"/>
      <path d="M17.443,45.543c-2.181,4.521-1.615,10.137.033,16.185A48.622,48.622,0,0,1,17.443,45.543Z" fill="#666766" opacity="0.14" style="mix-blend-mode: multiply"/>
      <path d="M17.727,44.975C5.5,45.357,1.214,39.761,1.766,30.528,1.486,34.986,6.64,39.791,17.727,44.975Z" fill="#666766" opacity="0.14" style="mix-blend-mode: multiply"/>
      <path d="M2.854,45.827c.6,3.025,3.558,3.511,7.863,2.558C7.348,48.115,4.492,47.446,2.854,45.827Z" fill="#666766" opacity="0.14" style="mix-blend-mode: multiply"/>
      <path d="M7.462,56.546c2.235,2.086,4.26,1.091,6.168-1.653C11.5,56.247,9.425,57.05,7.462,56.546Z" fill="#666766" opacity="0.14" style="mix-blend-mode: multiply"/>
      <path d="M33.264,28.159c-1.128,1.471-1.762,2.918-1.279,4.311a5.568,5.568,0,0,0-3.6,1.279C28.752,30.08,30.152,27.893,33.264,28.159Z" fill="#666766" opacity="0.14" style="mix-blend-mode: multiply"/>
      <path d="M28.385,33.749c2.4-1.748,5.215-1.8,8.385-.4A20.4,20.4,0,0,0,28.385,33.749Z" fill="#666766" opacity="0.14" style="mix-blend-mode: multiply"/>
      <path d="M53.775,28.443a5.462,5.462,0,0,0-.142,4.074,8.731,8.731,0,0,0-5.4.829C48.952,29.734,50.586,27.725,53.775,28.443Z" fill="#666766" opacity="0.14" style="mix-blend-mode: multiply"/>
      <path d="M48.233,33.346c3.094-1.4,5.9-1.33,8.384.4A17.235,17.235,0,0,0,48.233,33.346Z" fill="#666766" opacity="0.14" style="mix-blend-mode: multiply"/>
      <path d="M28.436,4c-2.772,11.23,3.075,14.042,14.21,11.69C32.171,17.419,27.28,13.674,28.436,4Z" fill="#666766" opacity="0.14" style="mix-blend-mode: multiply"/>
      <path d="M37.48,5.849c-.178,6.315,3.038,9.075,8.147,9.852C41.169,14.113,38.039,11.232,37.48,5.849Z" fill="#666766" opacity="0.14" style="mix-blend-mode: multiply"/>
      <path d="M48.327,15.843c-.512.535-4.237-5.628-3.694-6.394a24.782,24.782,0,0,0,3.694,6.205" fill="#666766" opacity="0.14" style="mix-blend-mode: multiply"/>
      <path d="M40.843,16.554c.213.634-6.056,2.592-6.347,2.416C30.375,21.48,22.428,16.941,22.227,9.5,23.28,18.916,26.9,23.043,34.5,18.97A30.7,30.7,0,0,0,40.843,16.554Z" fill="#666766" opacity="0.14" style="mix-blend-mode: multiply"/>
      <path d="M42.122,35.461a24.373,24.373,0,0,0,0,11.314c.118-.238-2.966-1.739-2.842-1.658.786.516,1.431-8.2.947-8.053Z" fill="#666766" opacity="0.14" style="mix-blend-mode: multiply"/>
      <polygon points="38.759 46.443 41.459 46.917 42.122 46.599 43.259 47.296 44.964 46.538 47.238 46.825 43.496 45.875 42.122 46.599 40.749 45.922 39.754 46.206 38.759 46.443" fill="#666766" opacity="0.14" style="mix-blend-mode: multiply"/>
      <path d="M82.433,32.564c-2.8,10.054-8.418,14.582-17.5,12.316C72.411,44.451,78.083,39.99,82.433,32.564Z" fill="#666766" opacity="0.14" style="mix-blend-mode: multiply"/>
      <path d="M80.98,46.712c-1.288,2.688-3.679,3.52-6.568,2.652A10.6,10.6,0,0,0,80.98,46.712Z" fill="#666766" opacity="0.14" style="mix-blend-mode: multiply"/>
      <path d="M77.232,56.649c-2.716,1.228-5.082.326-6.734-2.2A10.6,10.6,0,0,0,77.232,56.649Z" fill="#666766" opacity="0.14" style="mix-blend-mode: multiply"/>
      <path d="M60.517,85.238a12.81,12.81,0,0,0,2.842,5.116c1.339,1.192,3.235,1.539,5.874.758-.607,2.161-2.839,3.445-6.348,4.041-2.169,3.327-3.335,3.735-3.947,2.527l3.6-6.505-3.411-4.8Z" fill="#666766" opacity="0.14" style="mix-blend-mode: multiply"/>
      <path d="M27.186,85.048l-2.8,5.5s1.079,4.556.665,4.615c-1.8.248-6.652-1.832-6.59-5.29-5.145-1.807-6.96-3.935-4.75-4.34,0,0,10.114,4.311,9.92,4S25.4,83.6,25.4,83.6Z" fill="#666766" opacity="0.14" style="mix-blend-mode: multiply"/>
      <path d="M63.8,79.743A33.78,33.78,0,0,1,50.1,88.459c-.888,4.363,2.028,4.538,9.94-.791l-.909-1.293L62.538,83.6A18.766,18.766,0,0,0,67.78,74.5Z" fill="#666766" opacity="0.14" style="mix-blend-mode: multiply"/>
      <path d="M75.675,58.522c-1.987,2.319-11.991-3.946-11.432-4.989L71.38,62A7.107,7.107,0,0,0,75.675,58.522Z" fill="#666766" opacity="0.14" style="mix-blend-mode: multiply"/>
      <path d="M46.938,34.585q.188,4.8,5.937,6.569A17.526,17.526,0,0,1,46.938,34.585Z" fill="#666766" opacity="0.14" style="mix-blend-mode: multiply"/>
      <path d="M26.791,34.712c-.9,1.428,2.122,4.322,2.842,4.1A8.179,8.179,0,0,1,26.791,34.712Z" fill="#666766" opacity="0.14" style="mix-blend-mode: multiply"/>
      <path d="M37.654,38.88A7.138,7.138,0,0,0,37.4,44.5l-1.642-.568a4.787,4.787,0,0,1,.253-4.042Z" fill="#666766" opacity="0.14" style="mix-blend-mode: multiply"/>
      <path d="M55.669,42.654l-12.552,4.5-1.658-.237-12.7-4.263,5.828,1.531,1.168-.252A24.64,24.64,0,0,1,42.122,46.6,31.588,31.588,0,0,1,48.864,44s.569.253.7.189S55.669,42.654,55.669,42.654Z" fill="#666766" opacity="0.14" style="mix-blend-mode: multiply"/>
      <polygon points="42.122 46.775 42.085 49.561 38.246 47.06 37.003 46.825 39.359 46.27 41.459 46.917 42.122 46.775" fill="#666766" opacity="0.14" style="mix-blend-mode: multiply"/>
      <path d="M52.685,28.206a4.928,4.928,0,0,0-.331,4.264l-4.121.876C48.678,29.987,50.131,28.225,52.685,28.206Z" fill="#666766" opacity="0.14" style="mix-blend-mode: multiply"/>
      <path d="M31.843,28.264a5.961,5.961,0,0,0-.268,4.263l-3.337.877C28.6,30.045,29.775,28.283,31.843,28.264Z" fill="#666766" opacity="0.14" style="mix-blend-mode: multiply"/>
      <path d="M81.422,31.427c-3.369,5.595-7.811,9.645-14.084,11.053A49.762,49.762,0,0,0,81.422,31.427Z" fill="#fff" opacity="0.28" style="mix-blend-mode: lighten"/>
      <path d="M83.191,34.333c.674,2.764,1.06,5.408-.569,7.2A18.479,18.479,0,0,0,83.191,34.333Z" fill="#fff" opacity="0.28" style="mix-blend-mode: lighten"/>
      <ellipse cx="55.022" cy="31.049" rx="0.568" ry="0.758" fill="#fff" opacity="0.28" style="mix-blend-mode: lighten"/>
      <ellipse cx="53.759" cy="33.859" rx="0.316" ry="0.411" fill="#fff" opacity="0.28" style="mix-blend-mode: lighten"/>
      <path d="M50.538,41.659a20.827,20.827,0,0,1-6.568-4.042c-.674,1.448-.774,3.668-.7,6.126C45.292,42,47.56,40.9,50.538,41.659Z" fill="#fff" opacity="0.28" style="mix-blend-mode: lighten"/>
      <g opacity="0.31">
        <path d="M45.252,46.884c-.32.239-.635.492-.968.7l-.491.333a1.007,1.007,0,0,1-.52.261l-.374.037-.067-.07a1.483,1.483,0,0,1-.4-.758l.052-.086a1.472,1.472,0,0,1,.858,0l-.44-.034a1.011,1.011,0,0,1,.554-.181l.582-.109c.383-.087.784-.129,1.18-.185Z" fill="#fff"/>
      </g>
      <g opacity="0.31">
        <path d="M70.4,63.107a32.631,32.631,0,0,1-3.907-3.855,18.162,18.162,0,0,1-1.768-2.1A11.369,11.369,0,0,1,63.445,54.7l.081-.059a13.733,13.733,0,0,1,1.992,1.909,26.044,26.044,0,0,1,1.6,2.2q.79,1.107,1.623,2.182a23.632,23.632,0,0,0,1.728,2.1Z" fill="#fff"/>
      </g>
      <g opacity="0.31">
        <path d="M53.724,64.431q-2.442-2.1-4.825-4.266a29.6,29.6,0,0,1-2.359-2.187A16.991,16.991,0,0,1,44.566,55.4l.07-.071a16.993,16.993,0,0,1,2.606,1.937A29.962,29.962,0,0,1,49.461,59.6q2.2,2.354,4.333,4.765Z" fill="#fff"/>
      </g>
      <g opacity="0.31">
        <path d="M30.792,63.857q-1.709-2.117-3.35-4.285a21.084,21.084,0,0,1-1.616-2.187,12.358,12.358,0,0,1-1.161-2.5l.083-.056a12.366,12.366,0,0,1,1.9,1.986,21.289,21.289,0,0,1,1.448,2.3q1.421,2.318,2.775,4.684Z" fill="#fff"/>
      </g>
      <g opacity="0.31">
        <path d="M70.582,64.162c.223.212.183.463.222.689.02.232.02.462.018.693-.005.46-.034.918-.07,1.375-.089.912-.216,1.818-.363,2.722a14.362,14.362,0,0,1-.58,2.691,9.2,9.2,0,0,1-.576,1.276,4.723,4.723,0,0,1-.39.6c-.169.172-.305.416-.612.466l-.017-.1a3.855,3.855,0,0,0,.361-1.219l.275-1.308c.178-.875.52-1.713.758-2.583s.464-1.743.65-2.625c.1-.439.194-.881.266-1.324.034-.222.067-.445.08-.666a1.064,1.064,0,0,0-.068-.6Z" fill="#fff"/>
      </g>
      <g opacity="0.31">
        <path d="M72.984,86.734c-1.127.646-2.281,1.178-3.442,1.717a10.237,10.237,0,0,1-1.755.762,6.284,6.284,0,0,1-1.947.24l-.035-.094a6.415,6.415,0,0,1,1.634-1.084,10.709,10.709,0,0,1,1.822-.573l1.837-.534c.614-.168,1.243-.324,1.836-.521Z" fill="#fff"/>
      </g>
      <g opacity="0.31">
        <path d="M63.564,88.6q-.445-.744-.81-1.511a2.092,2.092,0,0,1-.333-.777,1.682,1.682,0,0,1,.2-.933l.1-.028a1.676,1.676,0,0,1,.669.678,2.1,2.1,0,0,1,.141.834q.108.843.138,1.709Z" fill="#fff"/>
      </g>
      <g opacity="0.31">
        <path d="M25.679,89.5a12.794,12.794,0,0,1,.653-1.273c.12-.2.175-.462.383-.587a1.315,1.315,0,0,1,.8-.224l.075.066a1.32,1.32,0,0,1-.12.818c-.1.222-.348.31-.533.455a12.9,12.9,0,0,1-1.178.811Z" fill="#fff"/>
      </g>
      <g opacity="0.31">
        <path d="M34.546,30.164a2.648,2.648,0,0,0-.026.364.4.4,0,0,1-.34.392.61.61,0,0,1-.536-.293,1.114,1.114,0,0,1-.18-.463,1.208,1.208,0,0,1,.028-.538.684.684,0,0,1,.688-.467.506.506,0,0,1,.485.569C34.645,29.92,34.558,30.051,34.546,30.164Zm-.1,0a.272.272,0,0,0-.259-.2c-.123-.025-.208.144-.007.191.2.02.23-.105.2-.089-.039-.007-.084.04-.112.094-.066.117-.006.247-.084.256-.037.05.062.072.152.013A.258.258,0,0,0,34.446,30.164Z" fill="#fff"/>
      </g>
      <g opacity="0.31">
        <path d="M32.9,34.08a.26.26,0,0,0,.023.187c.019.068.071.233-.2.316a.466.466,0,0,1-.407-.24.91.91,0,0,1-.12-.263.882.882,0,0,1-.039-.322.564.564,0,0,1,.1-.229.573.573,0,0,1,.464-.2.422.422,0,0,1,.382.269.337.337,0,0,1-.03.241C33.015,33.96,32.917,34.025,32.9,34.08Zm-.1,0c-.014-.047-.126-.084-.226-.057-.079,0-.249.2.15.3.408-.035.362-.225.362-.225A.068.068,0,0,0,33,34.08c-.025.011-.047.029-.07.037s-.029-.029-.2-.034c-.162.077-.051.133,0,.111S32.825,34.126,32.8,34.08Z" fill="#fff"/>
      </g>
      <g opacity="0.31">
        <path d="M51.781,15.087q1.02-.674,2.073-1.269a4.2,4.2,0,0,1,1.066-.566,2.857,2.857,0,0,1,1.283-.06l.039.092a2.842,2.842,0,0,1-.928.887,4.172,4.172,0,0,1-1.145.382q-1.158.351-2.348.626Z" fill="#fff"/>
      </g>
      <g opacity="0.31">
        <path d="M58.614,21.4a11.118,11.118,0,0,1,2.538-.517,4.026,4.026,0,0,1,1.294-.051,2.781,2.781,0,0,1,1.236.568l-.014.1a3.523,3.523,0,0,1-1.287.331,5.487,5.487,0,0,1-1.237-.147A23.923,23.923,0,0,0,58.63,21.5Z" fill="#fff"/>
      </g>
      <g opacity="0.31">
        <path d="M64.195,28.1,68.2,29.267l-.19.132A21.694,21.694,0,0,0,66.948,22a20.743,20.743,0,0,0-3.584-6.5A37.81,37.81,0,0,0,58.036,10.3c-1.937-1.582-4.018-3-6.132-4.4l.047-.089a33.335,33.335,0,0,1,6.655,3.752,24.3,24.3,0,0,1,5.465,5.4,22.163,22.163,0,0,1,3.458,6.86,21.126,21.126,0,0,1,.777,7.593l-.015.194-.176-.061-3.95-1.355Z" fill="#fff"/>
      </g>
    </g>
  </g>
</svg>
