<svg xmlns="http://www.w3.org/2000/svg" width="112.892" height="112.892" viewBox="0 0 112.892 112.892">
  <title>Asset 9ddog</title>
  <g style="isolation: isolate">
    <g>
      <rect x="0.125" y="0.125" width="112.642" height="112.642" rx="8.069" fill="#e2e3e8" stroke="#f9fcff" stroke-miterlimit="10" stroke-width="0.25"/>
      <g>
        <g>
          <path d="M62.592,58.245c5.519,6.432,22.6-17.429,19.989-24.909a8.686,8.686,0,0,1-.6-2.577c-.151-5.309,2.835-8.1,8.463-8.778" fill="#fff" opacity="0.28" style="mix-blend-mode: lighten"/>
          <path d="M65.64,55.629c-.028-.056-.09-.05-.165-.069-.071-.082-.21-.043-.283-.085a.527.527,0,0,0-.2.013.091.091,0,0,0-.041.048.155.155,0,0,1,.066.007,3.44,3.44,0,0,0,1.649-.483,20.477,20.477,0,0,0,4.522-3.39,44.425,44.425,0,0,0,7.66-9.727,22.27,22.27,0,0,0,2.392-5.561,6.038,6.038,0,0,0,.165-2.615,16.889,16.889,0,0,1-.387-1.735,6.981,6.981,0,0,1-.03-1.888,10.31,10.31,0,0,1,.879-3.461,7.339,7.339,0,0,1,2.226-2.765,11.388,11.388,0,0,1,6.357-1.937,10.9,10.9,0,0,0-5.7,2.693,6.913,6.913,0,0,0-1.757,5.507,4.758,4.758,0,0,0,.228,1.369c.139.444.337.894.554,1.4a8.5,8.5,0,0,1,.441,3.873,25.451,25.451,0,0,1-1.739,6.832A49.358,49.358,0,0,1,75.67,55.692a26.977,26.977,0,0,1-5.238,5.3A11.1,11.1,0,0,1,66.075,63c-.247.046-.494.088-.745.121-.284.012-.572.015-.86.008a6.278,6.278,0,0,1-1.8-.291,7.178,7.178,0,0,1-1.743-.811,10.361,10.361,0,0,1-1.379-1.165Z"/>
        </g>
        <g>
          <g>
            <g>
              <polygon points="81.777 71.44 71.672 100.303 68.893 100.24 68.893 71.44 81.777 71.44"/>
              <polygon points="69.904 74.976 59.799 103.84 57.02 103.776 57.02 74.976 69.904 74.976"/>
              <polygon points="40.51 74.978 40.51 103.778 40.13 103.788 37.74 103.838 37.07 101.928 33.45 91.598 27.63 74.978 40.51 74.978"/>
              <polygon points="51.32 71.438 51.32 100.238 51.1 100.238 48.54 100.298 48.19 99.298 47.47 97.238 42.2 82.198 40.51 77.378 39.97 75.838 39.67 74.978 38.43 71.438 51.32 71.438"/>
            </g>
            <path d="M76.65,52.028a26.364,26.364,0,0,0-6.86-6.29c-.62-.41-1.27-.78-1.93-1.13-.56-.3-1.14-.57-1.72-.83a26.13,26.13,0,0,0-3.73-1.31H62.4a25,25,0,0,0-3.8-.72c-.54-.08-1.1-.12-1.65-.15a2.825,2.825,0,0,0-.29-.02c-.41-.02-.81-.03-1.22-.03H55.1a26.639,26.639,0,0,0-12.63,3.36c-.73.21-1.44.46-2.14.73-.51.2-1.02.42-1.52.65-.58.27-1.14.56-1.7.87-.26.14-.52.28-.77.44h-.01c-.14.09-.28.17-.42.27-.24.14-.48.29-.71.45A26.787,26.787,0,0,0,23.47,67.4a25.9,25.9,0,0,0-.19,3.19,26.767,26.767,0,0,0,17.23,25.02,25.991,25.991,0,0,0,6.96,1.63,24.68,24.68,0,0,0,2.59.13q.63,0,1.26-.03a26.026,26.026,0,0,0,3.78-.45c.65-.11,1.29-.26,1.92-.43a26.668,26.668,0,0,0,6.07-2.47l.18-.06a25.452,25.452,0,0,0,5.62-2.47,26.739,26.739,0,0,0,8.75-8.21.01.01,0,0,0,.01-.01,26.838,26.838,0,0,0-1-31.21Zm-18.85-5c.11.03.22.05.32.07.05.07.09.15.14.22s.1.13.15.2a1.507,1.507,0,0,0,.21.23,1.755,1.755,0,0,0,.34.27.71.71,0,0,0,.14.1c.07.04.14.08.22.12.04.02.08.04.13.06a2.063,2.063,0,0,0,.35.12,1.7,1.7,0,0,0,.31.06,2.433,2.433,0,0,0,.38.03c.1,0,.2-.01.3-.02a2.152,2.152,0,0,0,.57-.13c.09-.03.18-.07.27-.11s.17-.08.25-.13a2.639,2.639,0,0,0,.65-.55c.15-.01.3-.03.45-.05C63.08,52.5,56.81,52.5,57.8,47.028Z"/>
            <path d="M57.47,32.614C63.317,22.585,69.381,12.432,69.9,5.424Q81.273,26.37,68.893,47.315Z" fill="#cccbcb"/>
            <path d="M63.083,39.838C63.06,29.772,69.9,17.645,69.858,5.9c-1.29,6.51-6.542,17.056-12.388,26.718Z"/>
            <path d="M39.73,32.618l-10.04,16.6-.03.06c-8.25-13.96-9.94-29.89-2.36-43.85.01.16.03.31.04.47v.02c.62,5.67,4.64,13.28,9.19,21.2.04.08.09.16.14.24.8,1.4,1.63,2.81,2.45,4.22a.01.01,0,0,0,.01.01C39.33,31.928,39.53,32.278,39.73,32.618Z" fill="#cccbcb"/>
            <path d="M34.12,39.838v-.1c-.03-10.05-6.81-22.12-6.78-33.82,1.06,5.29,4.72,13.23,9.19,21.2.04.08.09.16.14.24.79,1.42,1.61,2.83,2.44,4.23.21.35.41.69.62,1.03Z"/>
            <path d="M68.89,47.318c-.32-.92-.67-1.82-1.03-2.71a61.472,61.472,0,0,0-4.48-8.73c-.62-1-1.27-1.98-1.95-2.95a3.54,3.54,0,0,0-2.87-1.49h-.4l-2.72-.03H55.1l-4.72-.06-3.52-.04-6.17-.07a3.908,3.908,0,0,0-.49.03,1.846,1.846,0,0,0-.23.04c-.06.01-.12.02-.17.03a2.759,2.759,0,0,0-.27.08.433.433,0,0,0-.12.05,1.686,1.686,0,0,0-.28.12.01.01,0,1,0-.02,0,1.865,1.865,0,0,0-.39.22,3.457,3.457,0,0,0-.31.22,1.546,1.546,0,0,0-.27.24,1.593,1.593,0,0,0-.13.13l-.03.03a2.372,2.372,0,0,0-.23.3,2.851,2.851,0,0,0-.26.41c-.57,1.08-1.13,2.17-1.68,3.25-.58,1.12-1.14,2.24-1.69,3.35-.6,1.21-1.18,2.41-1.74,3.61-.31.63-.6,1.26-.89,1.89-.26.54-.51,1.09-.75,1.63-.36.78-.71,1.57-1.05,2.35l-.03.06c-2.38,5.41-4.47,10.75-6.18,16.01a3.4,3.4,0,0,0-.16,1.37l.03.21a2.4,2.4,0,0,0,.12.53l.09.27a1.889,1.889,0,0,0,.11.25l.09.18a1.071,1.071,0,0,0,.13.21,3.712,3.712,0,0,0,.23.32l.02.02a3.974,3.974,0,0,0,.28.3c.11.1.22.19.33.28l7.67,5.75,8.09,6.07,1.03.77a.333.333,0,0,0,.1.06,2.61,2.61,0,0,0,.56.32,3.483,3.483,0,0,0,1.35.33l7.77.3,3.28.12a2.79,2.79,0,0,0,.5-.02,3.538,3.538,0,0,0,1.71-.64l.21-.15,10.05-7.16,1.82-1.3,1.74-1.24.07-.05a3.575,3.575,0,0,0,.91-.95,3.429,3.429,0,0,0,.58-1.79A59.582,59.582,0,0,0,68.89,47.318Zm-5.91.2c.1,4.98-6.17,4.98-5.18-.49.11.03.22.05.32.07.05.07.09.15.14.22s.1.13.15.2a1.507,1.507,0,0,0,.21.23,1.755,1.755,0,0,0,.34.27.71.71,0,0,0,.14.1c.07.04.14.08.22.12.04.02.08.04.13.06a2.063,2.063,0,0,0,.35.12,1.7,1.7,0,0,0,.31.06,2.433,2.433,0,0,0,.38.03c.1,0,.2-.01.3-.02a2.152,2.152,0,0,0,.57-.13c.09-.03.18-.07.27-.11s.17-.08.25-.13a2.639,2.639,0,0,0,.65-.55C62.68,47.558,62.83,47.538,62.98,47.518Z" fill="#cccbcb"/>
            <path d="M46.511,67.954h4.18a6.321,6.321,0,0,1,6.321,6.321v0a5.483,5.483,0,0,1-5.483,5.483H45.6a5.407,5.407,0,0,1-5.407-5.407v-.076a6.321,6.321,0,0,1,6.321-6.321Z" transform="translate(3.054 -1.921) rotate(2.338)"/>
            <path d="M65.018,63.146c0,1.544-.406,2.988-.51,4.392-.441,5.906-3.644,9.037-7.7,8.235C52.362,74.894,48.6,70.12,48.6,63.146s3.675-12.627,8.208-12.627S65.018,56.172,65.018,63.146Z"/>
            <path d="M32.184,63.146c0,1.544.405,2.988.51,4.392.44,5.906,3.644,9.037,7.7,8.235C44.84,74.894,48.6,70.12,48.6,63.146s-3.675-12.627-8.209-12.627S32.184,56.172,32.184,63.146Z"/>
            <path d="M53.06,38.538c-1.22,1.69-3.68,1.71-5.76,1.56-1.61-.11-3.23-.23-4.84-.34a14.976,14.976,0,0,0-4.68.16,5.086,5.086,0,0,0-3.57,2.78c-.43,1.05-1.08,2.33-.56,3.34,1.33,2.6-1.26,4.36-3.3,6.19a9.5,9.5,0,0,0-2.2,2.97,21.824,21.824,0,0,0-1.79,6.08,12.718,12.718,0,0,0,1.9,9.52,1.218,1.218,0,0,0,.64.53,16.874,16.874,0,0,1,6.65,3.65c1.02.81,2,1.66,3,2.48a10.4,10.4,0,0,1,1.88,1.87.567.567,0,0,1,.08.13,9.717,9.717,0,0,1,1.13,2.42.333.333,0,0,1-.1-.06l-1.03-.77-8.09-6.07-7.67-5.75c-.11-.09-.22-.18-.33-.28a3.974,3.974,0,0,1-.28-.3l-.02-.02a3.712,3.712,0,0,1-.23-.32,1.071,1.071,0,0,1-.13-.21l-.09-.18a1.889,1.889,0,0,1-.11-.25l-.09-.27a2.4,2.4,0,0,1-.12-.53l-.03-.21a3.4,3.4,0,0,1,.16-1.37c1.71-5.26,3.8-10.6,6.18-16.01l.03-.06c.34-.78.69-1.57,1.05-2.35.24-.54.49-1.09.75-1.63.29-.63.58-1.26.89-1.89.56-1.2,1.14-2.4,1.74-3.61.55-1.11,1.11-2.23,1.69-3.35.55-1.08,1.11-2.17,1.68-3.25a2.851,2.851,0,0,1,.26-.41,2.372,2.372,0,0,1,.23-.3l.03-.03a1.593,1.593,0,0,1,.13-.13,1.546,1.546,0,0,1,.27-.24,3.457,3.457,0,0,1,.31-.22,1.865,1.865,0,0,1,.39-.22c.01-.01.01-.01.02,0a1.686,1.686,0,0,1,.28-.12.433.433,0,0,1,.12-.05,2.759,2.759,0,0,1,.27-.08c.05-.01.11-.02.17-.03a1.846,1.846,0,0,1,.23-.04,3.908,3.908,0,0,1,.49-.03l6.17.07,3.52.04a4.22,4.22,0,0,1,.36.27,8.607,8.607,0,0,1,2.56,3.07A3.988,3.988,0,0,1,53.06,38.538Z"/>
            <path d="M64.38,77.058l-.23.17C64.17,77.1,64.27,76.988,64.38,77.058Z"/>
            <path d="M68.89,47.318c-.32-.92-.67-1.82-1.03-2.71a61.472,61.472,0,0,0-4.48-8.73c-.62-1-1.27-1.98-1.95-2.95a3.54,3.54,0,0,0-2.87-1.49h-.4l-2.72-.03h-.03l.07.07a10.587,10.587,0,0,1,1.47,1.74q.18.285.33.57a7.443,7.443,0,0,1,.14,6.48,10.637,10.637,0,0,1-.76,1.31c-.49.73-1.05,1.41-1.56,2.12a8.367,8.367,0,0,0-1.45,2.75,8.547,8.547,0,0,0-.19,2.62c.01.28.04.56.07.85q.09.75.24,1.5a14.257,14.257,0,0,0,1.33,3.67c.05.1.1.2.16.3a9.9,9.9,0,0,0,4.73,4.42,24.393,24.393,0,0,0,4.91,1.16,10.084,10.084,0,0,1,4.45,1.68c2.45,1.89,3.07,5.54,1.95,8.42-.05.13-.1.25-.16.37a8.535,8.535,0,0,1-.51,1l.07-.05a3.575,3.575,0,0,0,.91-.95,3.429,3.429,0,0,0,.58-1.79A59.582,59.582,0,0,0,68.89,47.318Zm-5.91.2c.1,4.98-6.17,4.98-5.18-.49.11.03.22.05.32.07.05.07.09.15.14.22s.1.13.15.2a1.507,1.507,0,0,0,.21.23,1.755,1.755,0,0,0,.34.27.71.71,0,0,0,.14.1c.07.04.14.08.22.12.04.02.08.04.13.06a2.063,2.063,0,0,0,.35.12,1.7,1.7,0,0,0,.31.06,2.433,2.433,0,0,0,.38.03c.1,0,.2-.01.3-.02a2.152,2.152,0,0,0,.57-.13c.09-.03.18-.07.27-.11s.17-.08.25-.13a2.639,2.639,0,0,0,.65-.55C62.68,47.558,62.83,47.538,62.98,47.518Z"/>
            <path d="M62.98,47.518c.1,4.98-6.17,4.98-5.18-.49.11.03.22.05.32.07a2.691,2.691,0,0,0,4.41.47C62.68,47.558,62.83,47.538,62.98,47.518Z" fill="#cccbcb"/>
          </g>
          <g>
            <path d="M51.26,100.318l-.21,2.54a.326.326,0,0,1-.32.3l-8.01.07c-2.88-2.41.82-4.78,5.47-3.93a11.326,11.326,0,0,1,2.91.94C51.15,100.268,51.21,100.288,51.26,100.318Z"/>
            <path d="M57.02,103.868v2.547a.323.323,0,0,0,.294.322l7.979.731C69.02,104.827,63.051,101.468,57.02,103.868Z"/>
            <path d="M68.893,100.24v2.547a.324.324,0,0,0,.294.322l7.98.731C80.893,101.2,74.925,97.84,68.893,100.24Z"/>
            <path d="M40.2,102.958l-.07.83-.14,1.71a.318.318,0,0,1-.32.3l-8.01.07c-2.87-2.4.8-4.76,5.41-3.94A11.59,11.59,0,0,1,40.2,102.958Z"/>
          </g>
          <ellipse cx="49.07" cy="53.456" rx="6.789" ry="4.705" fill="#30302f"/>
          <path d="M55.347,31.283c.834,1.413,2.284,2.475,2.747,4.05A5.749,5.749,0,0,1,58.277,37a8.348,8.348,0,0,1-.156,1.625,9.27,9.27,0,0,1-.59,1.748,11.968,11.968,0,0,1-1.893,3.162,7.528,7.528,0,0,0-1.307,1.671,3.39,3.39,0,0,0-.266.981,4.16,4.16,0,0,0,.521,2.682,3.206,3.206,0,0,0,2.224,1.522" fill="none"/>
          <circle cx="37.651" cy="45.818" r="2.688" fill="#e4f3f8"/>
          <circle cx="37.678" cy="46.17" r="1.145" fill="#060606"/>
          <path d="M35.157,44.816c-.1-4.978,6.175-4.978,5.182.492A14.717,14.717,0,0,0,35.157,44.816Z"/>
          <path d="M35.157,47.523c-.1,4.979,6.175,4.979,5.182-.492A14.694,14.694,0,0,1,35.157,47.523Z"/>
          <circle cx="60.49" cy="45.818" r="2.688" fill="#e4f3f8"/>
          <circle cx="60.463" cy="46.17" r="1.145" fill="#060606"/>
          <path d="M62.984,44.816c.1-4.978-6.175-4.978-5.182.492A14.715,14.715,0,0,1,62.984,44.816Z" stroke="#fff" stroke-miterlimit="10" stroke-width="0.05"/>
          <path d="M62.984,47.523c.1,4.979-6.175,4.979-5.182-.492A14.692,14.692,0,0,0,62.984,47.523Z"/>
          <circle cx="61.465" cy="42.229" r="0.363" stroke="#fff" stroke-miterlimit="10" stroke-width="0.05"/>
        </g>
        <path d="M55.1,31.408c-9.949,16.034-6.178,40.056,0,65.48a26.026,26.026,0,0,1-3.78.45v2.9H51.1c.05.03.11.05.16.08l-.21,2.54a.326.326,0,0,1-.32.3l-8.01.07c-2.88-2.41.82-4.78,5.47-3.93l-.72-2.06a25.991,25.991,0,0,1-6.96-1.63v8.17l-.38.01-.14,1.71a.318.318,0,0,1-.32.3l-8.01.07c-2.87-2.4.8-4.76,5.41-3.94L33.45,91.6a26.753,26.753,0,0,1-10.17-21.01,25.9,25.9,0,0,1,.19-3.19,2.4,2.4,0,0,1-.12-.53l-.03-.21a3.4,3.4,0,0,1,.16-1.37c1.71-5.26,3.8-10.6,6.18-16.01-8.25-13.96-9.94-29.89-2.36-43.85.01.16.03.31.04.47v.02c1.06,5.29,4.72,13.23,9.19,21.2.04.08.09.16.14.24.8,1.4,1.63,2.81,2.45,4.22a.01.01,0,0,0,.01.01,1.686,1.686,0,0,1,.28-.12.433.433,0,0,1,.12-.05,2.759,2.759,0,0,1,.27-.08c.05-.01.11-.02.17-.03a1.846,1.846,0,0,1,.23-.04,3.908,3.908,0,0,1,.49-.03l6.17.07,3.52.04Z" fill="#471e0e" opacity="0.14" style="mix-blend-mode: multiply"/>
        <g opacity="0.31">
          <path d="M64.018,39.824a29.853,29.853,0,0,1,4,7.978,33.57,33.57,0,0,1,1.2,4.318,37.671,37.671,0,0,1,.605,4.434l-.049.008c-.381-1.444-.683-2.9-1.045-4.334s-.664-2.886-1.09-4.3a31.633,31.633,0,0,0-3.661-8.072Z" fill="#fff"/>
        </g>
        <g opacity="0.31">
          <path d="M53.914,50.937a1.166,1.166,0,0,1-1.092,1.111,1.2,1.2,0,0,1-1.267-1.111A1.211,1.211,0,0,1,52.822,49.7,1.178,1.178,0,0,1,53.914,50.937Zm-.05,0a.733.733,0,0,0-.392-.611,1.182,1.182,0,0,0-.65-.125.8.8,0,1,0,0,1.6A.912.912,0,0,0,53.864,50.937Z" fill="#fff"/>
        </g>
        <g opacity="0.31">
          <path d="M54.866,52.837a.54.54,0,0,1-.432.531.57.57,0,0,1-.607-.531.589.589,0,0,1,.607-.657.466.466,0,0,1,.382.275A.74.74,0,0,1,54.866,52.837Zm-.05,0a.222.222,0,0,0-.189-.193.359.359,0,0,0-.193.036c-.066.03-.169.038-.207.157a.241.241,0,0,0,.207.281C54.567,53.17,54.843,53.068,54.816,52.837Z" fill="#fff"/>
        </g>
        <g opacity="0.31">
          <path d="M58.287,51.9a7,7,0,0,1,2.878,1.8,4.579,4.579,0,0,1,.981,1.436,4.235,4.235,0,0,1,.307,1.7l-.049.01c-.248-.52-.444-1.028-.712-1.5a9.553,9.553,0,0,0-.829-1.385,7.543,7.543,0,0,0-2.595-2.009Z" fill="#fff"/>
        </g>
        <g opacity="0.31">
          <path d="M71.792,48.487a31.15,31.15,0,0,1,4.5,4.463A22.3,22.3,0,0,1,79.56,58.4a19.274,19.274,0,0,1,1.482,6.2,21.354,21.354,0,0,1-.589,6.325l-.049-.009a30.556,30.556,0,0,0,.14-6.279,22,22,0,0,0-1.355-6.086A26.132,26.132,0,0,0,71.76,48.525Z" fill="#fff"/>
        </g>
        <path d="M68.551,15.914c2.187,8.422,1.824,16.483-2.922,23.924l-2.249-3.96A195.206,195.206,0,0,1,68.551,15.914Z" fill="#353535" opacity="0.14" style="mix-blend-mode: multiply"/>
        <path d="M28.651,15.914c-2.86,13.043-.4,20.294,5.469,23.824C33.858,33.559,31.528,25.046,28.651,15.914Z" fill="#353535" opacity="0.14" style="mix-blend-mode: multiply"/>
      </g>
    </g>
  </g>
</svg>
