<svg xmlns="http://www.w3.org/2000/svg" width="112.892" height="112.892" viewBox="0 0 112.892 112.892">
  <title>Asset 7ldog</title>
  <g style="isolation: isolate">
    <g>
      <rect x="0.125" y="0.125" width="112.642" height="112.642" rx="8.069" fill="#e2e3e8" stroke="#f9fcff" stroke-miterlimit="10" stroke-width="0.25"/>
      <g>
        <g>
          <g>
            <g>
              <polygon points="84.57 61.171 74.465 90.034 71.686 89.971 71.686 61.171 84.57 61.171" fill="#694537"/>
              <polygon points="72.698 64.711 72.238 66.021 71.688 67.591 66.058 83.651 62.838 92.851 62.588 93.571 60.858 93.531 60.038 93.521 59.808 93.511 59.808 64.711 72.698 64.711" fill="#694537"/>
              <polygon points="43.308 64.711 43.308 93.511 42.928 93.521 40.528 93.571 39.858 91.661 36.238 81.321 35.268 78.551 33.008 72.111 31.208 66.971 30.418 64.711 43.308 64.711" fill="#694537"/>
              <polygon points="54.108 61.171 54.108 89.971 53.888 89.971 51.328 90.031 50.978 89.031 50.258 86.981 50.258 86.971 47.378 78.751 46.508 76.251 46.368 75.871 44.658 70.961 43.618 68.011 43.308 67.111 42.468 64.711 42.468 64.701 41.818 62.861 41.248 61.241 41.228 61.171 54.108 61.171" fill="#694537"/>
            </g>
            <path d="M84.968,58.051A23.971,23.971,0,0,1,84.8,61a26.489,26.489,0,0,1-4.35,11.95,26.867,26.867,0,0,1-8.76,8.24,26.47,26.47,0,0,1-5.63,2.46l-.18.06a26.342,26.342,0,0,1-5.31,2.26c-.25.08-.5.15-.76.22a26.784,26.784,0,0,1-5.7.88c-.41.02-.84.03-1.26.03q-1.275,0-2.52-.12a.2.2,0,0,1-.07-.01,26.01,26.01,0,0,1-6.95-1.63c-.74-.27-1.46-.59-2.17-.93a26.457,26.457,0,0,1-4.9-3.09,26.772,26.772,0,0,1-9.05-13.31,25.894,25.894,0,0,1-.86-4.04,13.6,13.6,0,0,1-.16-1.43c-.07-.73-.1-1.47-.1-2.22s.03-1.47.09-2.19a.487.487,0,0,1,.01-.12v-.08a26.754,26.754,0,0,1,13.85-21.1,24.184,24.184,0,0,1,2.82-1.33,22.575,22.575,0,0,1,2.43-.86c.28-.16.57-.31.86-.45a24.8,24.8,0,0,1,2.52-1.13,26.9,26.9,0,0,1,2.67-.88,24.253,24.253,0,0,1,3.63-.7,26.112,26.112,0,0,1,3.08-.21h.21a2.437,2.437,0,0,1,.27.01,26.3,26.3,0,0,1,6.38.82,27.289,27.289,0,0,1,5.76,2.23,26.8,26.8,0,0,1,14.32,23.72Z" fill="#694537"/>
            <path d="M67.988,69.961A16.857,16.857,0,0,1,60.5,83.9a8.178,8.178,0,0,1-.69.45,17.759,17.759,0,0,1-5.7,2.26,18.6,18.6,0,0,1-3.68.37h-.17a17.858,17.858,0,0,1-6.95-1.46,17.042,17.042,0,0,1-2.17-1.11,17.41,17.41,0,0,1-5.87-5.86,16.464,16.464,0,0,1-2.26-6.44,16.879,16.879,0,0,1-.14-2.15,16.4,16.4,0,0,1,.26-2.91,15.143,15.143,0,0,1,.6-2.34c-.01-.01,0-.01,0-.01a5.541,5.541,0,0,1,.25-.68.67.67,0,0,1,.07-.18,16.028,16.028,0,0,1,1.62-3.1,16.463,16.463,0,0,1,1.5-1.94,17.625,17.625,0,0,1,8.29-5.17,18.027,18.027,0,0,1,4.97-.69c.41,0,.81.01,1.21.04a.035.035,0,0,1,.02.01,17.656,17.656,0,0,1,12.95,6.93c.12.15.23.31.34.47a.834.834,0,0,1,.08.12c.01.01.01.01.01,0,.05.07.1.15.15.23a.435.435,0,0,1,.04.07,16.137,16.137,0,0,1,1.9,3.89v.01c.12.32.22.66.31,1,.05.2.1.41.14.62a16.369,16.369,0,0,1,.39,2.82C67.978,69.421,67.988,69.691,67.988,69.961Z" fill="#d8ccc5"/>
            <path d="M74.907,61.108c-16.972,23.1-33.161,20.127-48.746-2.977Z" fill="#181818"/>
            <path d="M75.018,57.971c-.01,1.04-.05,2.08-.11,3.14l-.08.06-.83.59-1.42,1.01-.89.64-1.81,1.29-.02.01-2.28,1.62-3.27,2.34a20.173,20.173,0,0,1-4.3,2.34c-.07.03-.14.06-.2.08a20.551,20.551,0,0,1-5.7,1.31c-.57.05-1.14.07-1.71.07-.25,0-.51,0-.77-.01a20.474,20.474,0,0,1-6.97-1.5c-.46-.19-.91-.39-1.35-.61a20.036,20.036,0,0,1-3.21-1.97l-4.01-3.01-.88-.66-.01-.01-1.15-.86-1.69-1.27-.35-.26-1.82-1.37-3.73-2.79-.21-.16-.08-.06-.65-.49a185.635,185.635,0,0,1,11.08-27.3q2.115-4.335,4.45-8.7c.08-.17.17-.33.26-.5l5.14.06,11.68.13.89.01,4.14.05c.21.28.41.56.61.84a63.021,63.021,0,0,1,5.01,8.23c.68,1.33,1.3,2.69,1.87,4.07A58.935,58.935,0,0,1,75.018,57.971Z" fill="#c0ada3"/>
            <g>
              <path d="M54.048,90.051l-.2,2.54a.332.332,0,0,1-.32.29l-8.02.08c-2.87-2.42.83-4.78,5.47-3.93a11.326,11.326,0,0,1,2.91.94C53.938,90,54,90.021,54.048,90.051Z" fill="#c0ada3"/>
              <path d="M68.088,97.2l-7.12-.65-.86-.08a.333.333,0,0,1-.3-.32V93.6a2.094,2.094,0,0,1,.23-.08,6.41,6.41,0,0,1,.81-.27,9.888,9.888,0,0,1,1.99-.4C67.6,92.321,71.178,95.011,68.088,97.2Z" fill="#c0ada3"/>
              <path d="M71.686,89.971v2.547a.323.323,0,0,0,.294.322l7.979.731C83.686,90.93,77.717,87.571,71.686,89.971Z" fill="#c0ada3"/>
              <path d="M43,92.691l-.07.83-.14,1.71a.334.334,0,0,1-.32.3l-8.01.07c-2.87-2.4.79-4.75,5.4-3.94A11.652,11.652,0,0,1,43,92.691Z" fill="#c0ada3"/>
            </g>
          </g>
          <polygon points="63.768 22.032 73.541 15.696 83.773 25.257 68.773 30.257 63.768 22.032" fill="#694537"/>
          <path d="M73.541,15.7l4.884,23.539a3.246,3.246,0,0,0,3.288,2.587c1.943-.066,4.207-.215,4.207-.547,0-.582-2.147-16.018-2.147-16.018Z" fill="#c0ada3"/>
          <path d="M84.357,52.359c5.989-1.77,7.864-7.5,6.356-16.489a.8.8,0,0,1,1.467-.555q9.064,14.357-7.61,25.856Z" fill="#c0ada3"/>
          <ellipse cx="50.888" cy="76.598" rx="4.631" ry="3.316" fill="#664234"/>
          <ellipse cx="61.194" cy="35.83" rx="4.579" ry="6.316" fill="#181818"/>
          <ellipse cx="60.919" cy="36.777" rx="2.138" ry="3.284" fill="#e0d7d3"/>
          <ellipse cx="61.087" cy="37.441" rx="1.275" ry="2.337" fill="#181818"/>
          <path d="M32.412,53.636H72.089c-7.941-4.131-14.547-9.552-19.2-16.859C47.976,43.58,41.087,49.16,32.412,53.636Z" fill="#e0d7d3"/>
          <path d="M59.028,21.081c0,.02-.01.04-.01.06a25.9,25.9,0,0,1-.77,3.21,28.491,28.491,0,0,1-3.3,7.13,30.879,30.879,0,0,1-2.08,2.85,22.052,22.052,0,0,1-1.55-2.15A41.355,41.355,0,0,1,46.448,21a.127.127,0,0,1-.01-.06l11.69.13Z" fill="#e0d7d3"/>
          <ellipse cx="52.096" cy="58.131" rx="21.674" ry="10.73" fill="#8d6e60"/>
          <path d="M44.508,65.137H58.781a0,0,0,0,1,0,0v0a3.094,3.094,0,0,1-3.094,3.094H47.526a3.018,3.018,0,0,1-3.018-3.018v-.076A0,0,0,0,1,44.508,65.137Z" fill="#ab9286"/>
          <path d="M47.647,44.419h8.084a2.589,2.589,0,0,1,2.589,2.589v0A4.989,4.989,0,0,1,53.331,52H50.047a4.989,4.989,0,0,1-4.989-4.989v0A2.589,2.589,0,0,1,47.647,44.419Z" fill="#6c6969"/>
          <path d="M51.644,52l.031,5.294a2.456,2.456,0,0,0,2.411,2.441c3.149,2.165,7.58,1.646,12.445.223q-14.858,10.383-29.773,0c4.646,1.44,8.953,1.98,12.444-.223a2.456,2.456,0,0,0,2.412-2.441L51.644,52Z"/>
          <g>
            <rect x="30.193" y="60.737" width="43.807" height="3.966" fill="#ede7e4"/>
            <ellipse cx="76.434" cy="60.975" rx="4.68" ry="3.158" fill="#ede7e4"/>
            <ellipse cx="76.321" cy="65.174" rx="4.273" ry="2.883" fill="#ede7e4"/>
            <path d="M32.058,62.231a.922.922,0,0,0-.05.08,2.786,2.786,0,0,1-.35.42,3.38,3.38,0,0,1-.63.5,4,4,0,0,1-.82.43.035.035,0,0,1-.02.01,6.556,6.556,0,0,1-3.86.3,5.227,5.227,0,0,1-1.16-.37,5.643,5.643,0,0,1-.55-.29c-1.7-1.04-2.06-2.77-.75-4.09a4.85,4.85,0,0,1,2.3-1.21.235.235,0,0,1,.08-.02,6.593,6.593,0,0,1,4.11.36.251.251,0,0,1,.07.04c.01-.01.01,0,.01,0a3.091,3.091,0,0,1,1.98,2.35A2.162,2.162,0,0,1,32.058,62.231Z" fill="#ede7e4"/>
            <path d="M32.038,65.831a2.482,2.482,0,0,1-.61.94,2.089,2.089,0,0,1-.22.2,5.9,5.9,0,0,1-5.71.6c-1.96-.88-2.49-2.67-1.18-4a2.547,2.547,0,0,1,.3-.26,4.18,4.18,0,0,1,1.55-.77,5.919,5.919,0,0,1,3.1-.08,4.107,4.107,0,0,1,.92.29c.02.01.03.01.05.02a4,4,0,0,1,.79.46,2.633,2.633,0,0,1,1.06,1.47v.01A1.951,1.951,0,0,1,32.038,65.831Z" fill="#ede7e4"/>
          </g>
          <ellipse cx="44.536" cy="35.83" rx="4.579" ry="6.316" fill="#181818"/>
          <ellipse cx="44.81" cy="36.777" rx="2.138" ry="3.284" fill="#e0d7d3"/>
          <ellipse cx="44.642" cy="37.441" rx="1.275" ry="2.337" fill="#181818"/>
          <polygon points="41.958 22.031 36.958 30.261 21.958 25.261 32.188 15.691 41.048 21.441 41.958 22.031" fill="#694537"/>
          <path d="M32.188,15.691l-2.52,12.14-2.36,11.4a3.251,3.251,0,0,1-3.29,2.59c-1.94-.07-4.21-.21-4.21-.55,0-.58,2.15-16.01,2.15-16.01Z" fill="#c0ada3"/>
          <path d="M54.086,59.733c3.7,2.177,7.87,2.141,12.445.223Z" fill="#8d6e60"/>
          <path d="M49.2,59.733c-3.7,2.177-7.869,2.141-12.444.223Z" fill="#8d6e60"/>
        </g>
        <path d="M60.858,93.531l-.01-.28-.28-7.28L60.5,83.9c-2.538-2.785-2.689-5.794-.34-9.04l-.15-3.85c-2.263-.864-2.736-1.8-.11-2.87-1.487-.851-1.453-2.013-.13-3.44-3.081-.939-2.444-2.165-.13-3.52-2.8-4.091-2.832-8.507-.5-13.2a3.781,3.781,0,0,1-.13-3.67c-2.157-2.7-1.371-3.054-.12-3.04-1.728-2.638-1.227-6.495-.4-10.53-3.717-3.182-2.915-6.391-.36-9.61v-.06l-11.69-.13a.127.127,0,0,0,.01.06l-5.14-.06c-.09.17-.18.33-.26.5l-8.86-5.75-10.23,9.57s-2.15,15.43-2.15,16.01c0,.34,2.27.48,4.21.55a3.251,3.251,0,0,0,3.29-2.59l2.36-11.4,6.93,2.31a185.635,185.635,0,0,0-11.08,27.3l.65.49v.08a4.85,4.85,0,0,0-2.3,1.21c-1.31,1.32-.95,3.05.75,4.09a2.547,2.547,0,0,0-.3.26c-1.31,1.33-.78,3.12,1.18,4a5.405,5.405,0,0,0,1.69.44,26.772,26.772,0,0,0,9.05,13.31l3.62,10.34c-4.61-.81-8.27,1.54-5.4,3.94l8.01-.07a.334.334,0,0,0,.32-.3l.14-1.71.38-.01v-7.99a17.858,17.858,0,0,0,6.95,1.46l.72,2.05c-4.64-.85-8.34,1.51-5.47,3.93l8.02-.08a.332.332,0,0,0,.32-.29l.2-2.54c-.05-.03-.11-.05-.16-.08h.22v-2.9a26.784,26.784,0,0,0,5.7-.88v7.32l.23.01a2.094,2.094,0,0,0-.23.08v2.55a.333.333,0,0,0,.3.32l.86.08C69.429,97.165,71.28,96.518,60.858,93.531ZM57.231,46.517a.718.718,0,0,1-.481.288l-.084.012a1.123,1.123,0,0,1-.887-.209.3.3,0,0,1-.032.007H50.868a.965.965,0,0,1,0-1.928h4.879a.788.788,0,0,1,.152.029,1.258,1.258,0,0,1,.341,0,1.512,1.512,0,0,1,.538.2.967.967,0,0,1,.529,1.48c-.012.022-.023.044-.037.065S57.245,46.5,57.231,46.517Z" fill="#471e0e" opacity="0.14" style="mix-blend-mode: multiply"/>
        <path d="M80.141,69.24c-1.923,5.036-4.66,9.115-8.453,11.951l0,11.593,7.362.7c1.992-.228,1.42-1.034.193-1.989a14.062,14.062,0,0,0-4.565-.669,1,1,0,0,1-.946-1.352A138.829,138.829,0,0,0,80.141,69.24Z" fill="#471e0e" opacity="0.14" style="mix-blend-mode: multiply"/>
        <polygon points="73.541 15.696 76.059 27.828 68.773 30.257 63.768 22.032 73.541 15.696" fill="#471e0e" opacity="0.14" style="mix-blend-mode: multiply"/>
        <path d="M73.541,15.7l4.994,23.921c.394.953.615,1.036.612,0L73.926,16.056Z" fill="#471e0e" opacity="0.14" style="mix-blend-mode: multiply"/>
        <path d="M91.315,34.965c4.11,9.6,3.6,17.533-6.85,21.865l.1,4.341C95.338,53.543,98.858,44.974,91.315,34.965Z" fill="#471e0e" opacity="0.14" style="mix-blend-mode: multiply"/>
        <g opacity="0.31">
          <path d="M65.005,25.932a58.689,58.689,0,0,1,4.953,9.487,41.115,41.115,0,0,1,1.771,5.066,34.764,34.764,0,0,1,.994,5.27l-.049.009c-.457-1.727-.894-3.448-1.425-5.142s-1.037-3.394-1.663-5.057a63.982,63.982,0,0,0-4.624-9.607Z" fill="#fff"/>
        </g>
        <g opacity="0.31">
          <path d="M83.25,25.679Q81.44,24.1,79.656,22.49c-.6-.533-1.215-1.045-1.771-1.622a19.818,19.818,0,0,1-1.582-1.82l.035-.036a19.823,19.823,0,0,1,1.892,1.5c.6.529,1.142,1.122,1.7,1.694q1.691,1.706,3.353,3.442Z" fill="#fff"/>
        </g>
        <g opacity="0.31">
          <path d="M83.293,27.174l1.023,6.847c.169,1.141.366,2.279.475,3.428s.2,2.3.2,3.462l-.05.006c-.283-1.127-.461-2.268-.648-3.407s-.261-2.292-.376-3.44l-.676-6.89Z" fill="#fff"/>
        </g>
        <g opacity="0.31">
          <path d="M74.012,39A18.635,18.635,0,0,1,79.989,43.6a11.66,11.66,0,0,1,2.83,6.97l-.05.008a23.717,23.717,0,0,0-1.244-3.524,16.686,16.686,0,0,0-1.849-3.205,19.451,19.451,0,0,0-5.688-4.811Z" fill="#fff"/>
        </g>
        <g opacity="0.31">
          <circle cx="78.099" cy="60.08" r="0.894" fill="#fce4e0" opacity="0.28" style="mix-blend-mode: lighten"/>
          <path d="M79.018,60.08A1.027,1.027,0,0,1,78.1,61.1a1.059,1.059,0,0,1-1.094-1.019A1.075,1.075,0,0,1,78.1,58.936a.934.934,0,0,1,.726.417A1.21,1.21,0,0,1,79.018,60.08Zm-.05,0a.657.657,0,0,0-.332-.537.9.9,0,0,0-.537-.107.707.707,0,0,0,0,1.413A.775.775,0,0,0,78.968,60.08Z" fill="#fff"/>
        </g>
        <g opacity="0.31">
          <path d="M76.826,90.034c.568-.823,3.768.585,3.768,1.326" fill="#fce4e0" opacity="0.28" style="mix-blend-mode: lighten"/>
          <path d="M76.805,90.02a1.185,1.185,0,0,1,1.057-.33,5.184,5.184,0,0,1,1.105.224,3.38,3.38,0,0,1,1.038.458c.273.233.662.53.614.988h-.05a2.182,2.182,0,0,0-.83-.565c-.308-.152-.6-.352-.916-.508a4.821,4.821,0,0,0-.995-.349,1.062,1.062,0,0,0-.982.11Z" fill="#fff"/>
        </g>
        <g opacity="0.31">
          <path d="M64.525,93.487a2.543,2.543,0,0,1,3.111,1.505" fill="#fce4e0" opacity="0.28" style="mix-blend-mode: lighten"/>
          <path d="M64.519,93.463a2.635,2.635,0,0,1,1.942-.013,1.859,1.859,0,0,1,.835.595,1.9,1.9,0,0,1,.362.936L67.614,95c-.273-.209-.466-.44-.693-.629a4.788,4.788,0,0,0-.64-.568,2.723,2.723,0,0,0-1.75-.3Z" fill="#fff"/>
        </g>
      </g>
    </g>
  </g>
</svg>
