<svg xmlns="http://www.w3.org/2000/svg" width="112.892" height="112.892" viewBox="0 0 112.892 112.892">
  <title>Asset 5Bsheep</title>
  <g style="isolation: isolate">
    <g>
      <rect x="0.125" y="0.125" width="112.642" height="112.642" rx="8.069" fill="#e2e3e8" stroke="#f9fcff" stroke-miterlimit="10" stroke-width="0.25"/>
      <g>
        <g>
          <g>
            <g>
              <polygon points="86.902 62.289 76.797 91.153 74.018 91.089 74.018 62.289 86.902 62.289"/>
              <polygon points="75.028 65.826 64.923 94.689 62.144 94.626 62.144 65.826 75.028 65.826"/>
              <polygon points="45.636 65.827 45.636 94.627 45.546 94.627 43.966 94.667 42.856 94.687 42.166 92.727 40.416 87.727 38.566 82.437 32.756 65.827 45.636 65.827"/>
              <polygon points="56.446 62.287 56.446 91.087 56.226 91.097 55.476 91.107 53.666 91.157 53.316 90.147 52.886 88.937 52.596 88.087 47.386 73.217 46.516 70.737 45.636 68.227 44.796 65.827 43.556 62.287 56.446 62.287"/>
            </g>
            <path d="M87.3,59.173A26.721,26.721,0,0,0,47.6,35.758,26.779,26.779,0,1,0,68.213,84.834,26.779,26.779,0,0,0,87.3,59.173Z" fill="#e5e5e4"/>
            <path d="M89.586,61.757c-.15-.75-.3-1.51-.45-2.27.42-.08.84-.17,1.26-.25-.23-.56-.46-1.12-.7-1.68l1.15-.09a3.7,3.7,0,0,0-1.93-3.34,1.67,1.67,0,0,0-.64-2.93,1.71,1.71,0,0,0-.78-2.66c.37.07.75.13,1.12.2a5.849,5.849,0,0,0-.8-1.47,7.368,7.368,0,0,0-4.15-2.81c-.22.05-.44.1-.67.15-1.75.38-3.54.76-5.34,1.15-.41.09-.82.18-1.23.26-.07.02-.15.03-.22.05-2.51.54-5.05,1.08-7.57,1.62-.83.18-1.65.36-2.48.53q-3.36.735-6.62,1.44c-1.1-.56-2.22-1.12-3.35-1.63a28.212,28.212,0,0,0-6.36-2.21c-.03-.01-.06-.01-.1-.02l-.15-.03c-.02,0-.05-.01-.08-.01-.49-.09-1-.16-1.51-.21a13.333,13.333,0,0,0-1.9-.04h-.12c-.19.01-.37.02-.56.04-.26.02-.51.06-.76.09-3.07.46-5.93,1.94-7.31,4.46-.36.66-.62,1.37-.93,2.05a5.961,5.961,0,0,1-.91,1.48l-.02.02c-.85.96-2.56,1.44-3.53.64a.552.552,0,0,1-.17-.14c-.21.29-.42.57-.63.86-.64.86-1.27,1.72-1.9,2.58-.23.3-.45.6-.68.9v.01c-.09.13-.19.27-.29.4-.05.07-.1.14-.16.21-.12.18-.25.35-.38.53-.34.45-.67.9-1,1.35a11.327,11.327,0,0,0-2.49,4.87,5.367,5.367,0,0,0,.49,3.02l.33,1.89c-.37.07-.75.13-1.12.19a1.236,1.236,0,0,0,1.39,1.34.037.037,0,0,1,.01.03c-.73.4-1.48.78-2.21,1.18a5.528,5.528,0,0,1,2.23,2.74,5.016,5.016,0,0,1,.26,2.6l.9.15c.01.05.02.11.03.16a4.085,4.085,0,0,0,.66,1.88,1.913,1.913,0,0,0,1.34.72,1.957,1.957,0,0,0,.34,1.5,2.464,2.464,0,0,0,2.79.74c-.68.87.55,2.29,1.63,1.87.06,1.33,2.3,1.96,3.16.9a3.063,3.063,0,0,0,3.49,1.18,2.347,2.347,0,0,0,.45-.22,2.616,2.616,0,0,0,1-.98,3.356,3.356,0,0,0,1.51,2.42,3.805,3.805,0,0,0,2.71.47,3.637,3.637,0,0,0,1.98-1.02c-.18.92,1.19,1.71,2.01,1.16-.09-.39-.18-.79-.27-1.18a2.313,2.313,0,0,0,1.85,1.37,1.722,1.722,0,0,0,.64.01,1.925,1.925,0,0,0,.53-.11c.08-.33.16-.67.25-1,.09.02.17.05.26.07.46.13.93.27,1.4.4-.13-.3-.26-.59-.4-.88a3.411,3.411,0,0,0,1.64,1.16,2.839,2.839,0,0,0,.92.18h.01a2.808,2.808,0,0,0,.41-.01,3.476,3.476,0,0,0,2.82-1.95,3.044,3.044,0,0,0,.14-.39l.96.18h.01l1.35.24c.51.1,1.02.19,1.53.28-.08-.4-.17-.81-.26-1.22-.07-.33-.14-.65-.21-.98a1.893,1.893,0,0,0,.63.84,3.309,3.309,0,0,0,3.81.12,2.054,2.054,0,0,0,.64-.76,3.7,3.7,0,0,0,2.11-1.57,2.777,2.777,0,0,0,.33-.64,3.05,3.05,0,0,0,.21-.95,3.26,3.26,0,0,0-.34-1.56,6.455,6.455,0,0,0,3.17.82,2.175,2.175,0,0,0,.25-.01.708.708,0,0,0,.14-.01c.03,0,.07-.01.1-.01a6.2,6.2,0,0,0,4.61-2.7,1.794,1.794,0,0,0,1.93.23,1.628,1.628,0,0,0,1.16-1.62l2.5.51-.69-2.82a.406.406,0,0,0,.34-.01,3.913,3.913,0,0,0-.18-3.61,3.837,3.837,0,0,0-.32-.5,4.168,4.168,0,0,0-1.17-1.08,4.631,4.631,0,0,0,1.44.31,3.361,3.361,0,0,0,.71-.01,4.688,4.688,0,0,0,3.96-2.49,1.726,1.726,0,0,0,.2-3.03,2.124,2.124,0,0,0,2.53-1.4A1.964,1.964,0,0,0,89.586,61.757Zm-64.48,7.8a5.573,5.573,0,0,0,.88,1.06c-.19.03-.37.07-.56.09Z"/>
            <path d="M65.491,22.311l-21.852-.253c-6.663,12.476-12.191,24.7-15.79,36.505L47.555,73.342l13.389.5,16.3-11.621A58.985,58.985,0,0,0,65.491,22.311Z" fill="#636464"/>
            <path d="M47.407,71.925H61.68a0,0,0,0,1,0,0v0a3.094,3.094,0,0,1-3.094,3.094H50.425A3.018,3.018,0,0,1,47.407,72v-.076A0,0,0,0,1,47.407,71.925Z" transform="translate(3.043 -2.164) rotate(2.338)" fill="#cccbcb" stroke="#989898" stroke-miterlimit="10" stroke-width="0.25"/>
            <path d="M55.522,70.417h-5.9c-.12,4.453,2.268,5.572,5.9,5.039,3.629.532,6.018-.586,5.9-5.039Z" fill="#ec93bd"/>
            <path d="M73.925,40.354a11.569,11.569,0,0,0-7.579-5.369c-2.188-2.806-4.415-2.822-6.677-.316-.375-1.977-1.922-3.222-4.147-4.042-2.224.82-3.771,2.065-4.146,4.042-2.262-2.506-4.489-2.49-6.677.316a11.569,11.569,0,0,0-7.579,5.369C26.576,53.07,29.731,63.4,47.513,71.175a33.334,33.334,0,0,0,7.573.505,4.856,4.856,0,0,0,.436-1.523,4.882,4.882,0,0,0,.437,1.523,33.337,33.337,0,0,0,7.573-.505C81.314,63.4,84.468,53.07,73.925,40.354Z" fill="#cececd"/>
          </g>
          <g>
            <path d="M56.386,91.167l-.21,2.54a.323.323,0,0,1-.3.3h-.02l-8.01.07c-2.42-2.03-.18-4.03,3.36-4.11.21,0,.42,0,.64.01a11.053,11.053,0,0,1,1.47.17,10.818,10.818,0,0,1,2.17.63c.24.09.49.2.74.32A1.111,1.111,0,0,1,56.386,91.167Z"/>
            <path d="M62.144,94.718v2.547a.324.324,0,0,0,.294.322l7.98.731C74.144,95.677,68.176,92.318,62.144,94.718Z"/>
            <path d="M74.018,91.089v2.547a.324.324,0,0,0,.294.323l7.979.73C86.018,92.049,80.049,88.689,74.018,91.089Z"/>
            <path d="M45.606,93.807l-.06.82-.14,1.72a.564.564,0,0,1-.04.12.035.035,0,0,1-.01.02.435.435,0,0,1-.06.07.359.359,0,0,1-.1.07.188.188,0,0,1-.08.02h-.03l-8.02.07c-2.79-2.35.63-4.65,5.1-3.99a10.241,10.241,0,0,1,1.65.37A11.686,11.686,0,0,1,45.606,93.807Z"/>
          </g>
        </g>
        <g>
          <g>
            <ellipse cx="65.979" cy="41.912" rx="3.149" ry="4.942"/>
            <path d="M69.178,41.912a8,8,0,0,1-.659,3.156,4.1,4.1,0,0,1-.952,1.358,2.581,2.581,0,0,1-1.588.678,2.646,2.646,0,0,1-1.652-.6,4.321,4.321,0,0,1-1.084-1.335,7.731,7.731,0,0,1-.151-6.592,4.391,4.391,0,0,1,1.087-1.435,2.886,2.886,0,0,1,1.8-.672,2.688,2.688,0,0,1,1.733.752,4.2,4.2,0,0,1,.951,1.459A8.5,8.5,0,0,1,69.178,41.912Zm-.1,0a5.761,5.761,0,0,0-.89-2.985,2.77,2.77,0,0,0-2.209-1.457,2.627,2.627,0,0,0-2.007,1.561,6.493,6.493,0,0,0-.742,2.881,6.587,6.587,0,0,0,.591,2.959A2.71,2.71,0,0,0,65.979,46.6a2.848,2.848,0,0,0,2.353-1.632A6.11,6.11,0,0,0,69.078,41.912Z" fill="#666667"/>
          </g>
          <ellipse cx="65.505" cy="42.102" rx="2.675" ry="4.753" fill="#cccbcb" stroke="#666667" stroke-miterlimit="10" stroke-width="0.25"/>
          <ellipse cx="64.979" cy="43.204" rx="1.878" ry="3.568" transform="translate(-8.845 17.927) rotate(-14.718)" fill="none" stroke="#666667" stroke-miterlimit="10" stroke-width="0.25"/>
          <ellipse cx="64.979" cy="43.204" rx="1.878" ry="3.568" transform="translate(-8.845 17.927) rotate(-14.718)" fill="#fff" stroke="#666667" stroke-miterlimit="10" stroke-width="0.25"/>
          <ellipse cx="65.33" cy="44.638" rx="1.747" ry="2.093" transform="matrix(0.967, -0.254, 0.254, 0.967, -9.197, 18.063)"/>
        </g>
        <g>
          <g>
            <ellipse cx="47.513" cy="42.461" rx="5.491" ry="3.149" transform="matrix(0.135, -0.991, 0.991, 0.135, -0.986, 83.792)"/>
            <path d="M44.442,42.042A7.392,7.392,0,0,0,44.7,45.43c.351,1.043,1.076,2.113,2.107,2.224a2.836,2.836,0,0,0,2.439-1.694,8.078,8.078,0,0,0,.993-3.127,7.987,7.987,0,0,0-.281-3.231c-.308-.994-.928-1.951-1.767-2.086a2.884,2.884,0,0,0-2.454,1.416A6.98,6.98,0,0,0,44.442,42.042Zm-.1-.013a10.412,10.412,0,0,1,.936-3.379A4.866,4.866,0,0,1,46.4,37.17a2.607,2.607,0,0,1,1.928-.645A2.78,2.78,0,0,1,50.09,37.6a5.056,5.056,0,0,1,.815,1.725A9.384,9.384,0,0,1,49.8,46.3a4.993,4.993,0,0,1-1.241,1.347,2.537,2.537,0,0,1-1.818.5A2.478,2.478,0,0,1,45.2,47.119a4.753,4.753,0,0,1-.7-1.63A9.784,9.784,0,0,1,44.343,42.029Z" fill="#666667"/>
          </g>
          <ellipse cx="47.954" cy="42.734" rx="5.281" ry="2.675" transform="matrix(0.135, -0.991, 0.991, 0.135, -0.875, 84.465)" fill="#cccbcb" stroke="#666667" stroke-miterlimit="10" stroke-width="0.25"/>
          <ellipse cx="48.309" cy="44.019" rx="3.942" ry="1.888" transform="translate(-9.678 74.166) rotate(-69.809)" fill="none" stroke="#666667" stroke-miterlimit="10" stroke-width="0.25"/>
          <ellipse cx="48.309" cy="44.019" rx="3.942" ry="1.888" transform="translate(-9.678 74.166) rotate(-69.809)" fill="#fff" stroke="#666667" stroke-miterlimit="10" stroke-width="0.25"/>
          <ellipse cx="47.746" cy="45.55" rx="2.315" ry="1.755" transform="translate(-9.793 77.856) rotate(-72.964)"/>
        </g>
        <path d="M50.836,61.706c-.79-1.31-2.26-2.59-3.1-2.62C48.566,59,49.986,59.946,50.836,61.706Z" fill="none" stroke="#666667" stroke-miterlimit="10" stroke-width="0.25"/>
        <path d="M51.386,63.376h-.01v-.04C51.376,63.346,51.386,63.366,51.386,63.376Z" fill="none" stroke="#666667" stroke-miterlimit="10" stroke-width="0.25"/>
        <path d="M50.836,61.706c-.79-1.31-2.26-2.59-3.1-2.62C48.566,59,49.986,59.946,50.836,61.706Z" fill="none" stroke="#666667" stroke-miterlimit="10" stroke-width="0.25"/>
        <path d="M51.386,63.376h-.01v-.04C51.376,63.346,51.386,63.366,51.386,63.376Z" fill="none" stroke="#666667" stroke-miterlimit="10" stroke-width="0.25"/>
        <path d="M60.306,63.376c0-.01.01-.03.01-.04v.04Z" fill="none" stroke="#666667" stroke-miterlimit="10" stroke-width="0.25"/>
        <path d="M63.966,59.086c-.84.02-2.31,1.31-3.1,2.62C61.706,59.946,63.146,58.986,63.966,59.086Z" fill="none" stroke="#666667" stroke-miterlimit="10" stroke-width="0.25"/>
        <path d="M64.466,59.337a2.724,2.724,0,0,1-.08,1.94,14.674,14.674,0,0,0,1.27-2.21c-1.55-3.22-5.21-5.64-9.81-7.72-4.6,2.08-8.26,4.5-9.81,7.72a14.674,14.674,0,0,0,1.27,2.21,2.724,2.724,0,0,1-.08-1.94.472.472,0,0,1,.37-.23.627.627,0,0,0-.46.48,8.346,8.346,0,0,0,1.94,2.7,4.322,4.322,0,0,0,2.3,1.09v-.04c0,.01.01.03.01.04h-.01a1.044,1.044,0,0,1-.82.97,11.041,11.041,0,0,0,5.29,1.48c.2-.01.4-.02.6-.04a10.811,10.811,0,0,0,4.69-1.44,1.1,1.1,0,0,1-.67-.48,1.042,1.042,0,0,1-.15-.49h-.01c0-.01.01-.03.01-.04v.04c1.78-.25,3.16-1.57,4.24-3.79a.627.627,0,0,0-.46-.48A.472.472,0,0,1,64.466,59.337Zm-16.73-.25c.83-.09,2.25.86,3.1,2.62C50.046,60.4,48.576,59.117,47.736,59.087Zm13.13,2.62c.84-1.76,2.28-2.72,3.1-2.62C63.126,59.107,61.656,60.4,60.866,61.707Z" fill="#f59698"/>
        <path d="M60.306,63.376c0-.01.01-.03.01-.04v.04Z" fill="none" stroke="#666667" stroke-miterlimit="10" stroke-width="0.25"/>
        <path d="M63.966,59.086c-.84.02-2.31,1.31-3.1,2.62C61.706,59.946,63.146,58.986,63.966,59.086Z" fill="none" stroke="#666667" stroke-miterlimit="10" stroke-width="0.25"/>
        <path d="M61.769,39.326a6.025,6.025,0,0,0-1.793,1.31,3.8,3.8,0,0,0-.951,1.852,8.812,8.812,0,0,0,0,2.091c.031.718.123,1.45.117,2.258l-.093.034a5.106,5.106,0,0,1-1.015-2.158,4.548,4.548,0,0,1,.217-2.438,4.463,4.463,0,0,1,1.381-2,6.312,6.312,0,0,1,2.1-1.037Z" fill="#666667"/>
        <path d="M53.7,39.246a4.844,4.844,0,0,1,1.727,2.518,2.712,2.712,0,0,1,.036,1.636,2.373,2.373,0,0,1-1,1.263l-.086-.051c.005-.558.077-1.006.112-1.441a9.538,9.538,0,0,0,.147-1.277,5.326,5.326,0,0,0-1.011-2.58Z" fill="#666667"/>
        <path d="M69.128,46.854a1.94,1.94,0,0,1-.467,1.084,1.868,1.868,0,0,1-1.083.6,2.6,2.6,0,0,1-1.2-.084,3.449,3.449,0,0,1-1.046-.506,7.85,7.85,0,0,0,2.16.1,2.11,2.11,0,0,0,.906-.39A3.681,3.681,0,0,0,69.128,46.854Z" fill="#666667"/>
        <path d="M47.746,49.006a3.436,3.436,0,0,1-1.5.6,2.085,2.085,0,0,1-1.641-.468A3.023,3.023,0,0,1,43.75,47.7a5.214,5.214,0,0,1-.191-1.6c.191.5.336,1,.552,1.466a3.614,3.614,0,0,0,.817,1.2,2.007,2.007,0,0,0,1.292.464A6.479,6.479,0,0,0,47.746,49.006Z" fill="#666667"/>
        <path d="M82.4,39.207c1.77,1.76,4.77,3.77,10.37,6.2q-3.24-9.27-12.64-16.53a2.188,2.188,0,0,0-.12-.95,2.158,2.158,0,0,0-2.22-1.42,4.224,4.224,0,0,0-2.08-4.64,3.6,3.6,0,0,0-4.53,1.5,4.7,4.7,0,0,0-2.12-5.03,3.8,3.8,0,0,0-3.37-.08,3.3,3.3,0,0,0-1.91-2.3,2.427,2.427,0,0,0-1.16-.13,3.306,3.306,0,0,0-2.32,1.49.662.662,0,0,0-.15-.22,1.135,1.135,0,0,0-1.53.13,3.966,3.966,0,0,0-.85,1.55,5.017,5.017,0,0,0-4.48-4.2,4.878,4.878,0,0,0-4.52,3.25,2.177,2.177,0,0,0-2.05-.21,2.581,2.581,0,0,0-1.44,2.22,1.246,1.246,0,0,0-1.14-1.41,1.261,1.261,0,0,0-1.07,1.47,3.739,3.739,0,0,0-5.11.82,4,4,0,0,0-.64,1.33.076.076,0,0,0-.04-.02.685.685,0,0,0-.84.32,2.255,2.255,0,0,0-1.71.08l.27.24a1.854,1.854,0,0,0-1.12,1.18,2.082,2.082,0,0,0,.22,1.69.6.6,0,0,0-.38.68.553.553,0,0,0,.45.44.591.591,0,0,0-.43.7.528.528,0,0,0,.56.38c-.18.13-.36.26-.54.4h-.55c-.09.2-.16.39-.23.57q-9.585,7.335-12.85,16.7c5.59-2.43,8.59-4.44,10.36-6.2a24.462,24.462,0,0,1-10.36,6.2c3.8,2.04,7.32,2.73,10.96,1.48a4.378,4.378,0,0,0-.16,1.49,3.643,3.643,0,0,0,.15.8,1.545,1.545,0,0,0,.06.23l.06.15a3.257,3.257,0,0,0,.26.53.991.991,0,0,0,.11.17.076.076,0,0,0,.02.04l-.04.04a5.8,5.8,0,0,0-1.03,1.23,5.605,5.605,0,0,0-.68,1.53,7.164,7.164,0,0,0-.3,1.69c.02-.01.03-.02.05-.02a.41.41,0,0,1,.47.06,1,1,0,0,0-.54.1,1.1,1.1,0,0,0-.37.23,1.419,1.419,0,0,0-.34.53.687.687,0,0,0-.05.24,1.359,1.359,0,0,0,.04.6.564.564,0,0,0,.04.12,1.235,1.235,0,0,0,.4.57,1.067,1.067,0,0,0-.52.14,1.51,1.51,0,0,0-.69,1.34.978.978,0,0,0,.09.41c0,.01.01.02.01.03a2.392,2.392,0,0,0-.38.52,2.083,2.083,0,0,0-.2.36,6.764,6.764,0,0,0-.33.89c-.17.56-.35,1.13-.53,1.7a2.47,2.47,0,0,0-.15.86.736.736,0,0,0,.44.67,1.531,1.531,0,0,0,.94,1.6.958.958,0,0,0-.53,1,.9.9,0,0,0,.79.77c-.05.16-.1.32-.14.49l.54.24a.836.836,0,0,0-.12,1.17.69.69,0,0,0,1.08-.09,1.965,1.965,0,0,0,.13.25,1.621,1.621,0,0,0,2.09.61,1.378,1.378,0,0,0,.52-1.93,2.159,2.159,0,0,0,.24-1.97,14.167,14.167,0,0,0-.87-1.85,7.691,7.691,0,0,1-.59-1.89,9.493,9.493,0,0,1-.17-1.69,11.112,11.112,0,0,1,.03-1.29c.03-.42.08-.84.14-1.26.09-.59.21-1.17.34-1.75v-.01c.14-.63.3-1.25.45-1.87.03-.13.06-.25.1-.38.36-1.46.73-2.93,1.1-4.39-.12-.05-.24-.1-.36-.14a10.428,10.428,0,0,1,4.8-6.2c.93-.5,1.94-.84,2.82-1.43a3.771,3.771,0,0,0,1.79-2.65c.66.64,1.9-.35,1.53-1.23.81-.07,1.62-.13,2.43-.2l.75-.06a1.234,1.234,0,0,0,.22-.73,1.366,1.366,0,0,0-.48-1.07.345.345,0,0,0,.27-.18.59.59,0,0,0,.08-.39c.06.11.12.21.18.31a2.679,2.679,0,0,0,2.78,1.11,2.984,2.984,0,0,0,2.03-2.63A2.3,2.3,0,0,0,54,36.347a3.463,3.463,0,0,0,2.84-1.75,6.3,6.3,0,0,0,.54-1.03,8.89,8.89,0,0,0,.38-1.02c.07-.21.13-.41.19-.62.07-.25.14-.49.21-.74.03.25.07.49.1.74.42-.04.83-.07,1.25-.11.02.2.04.4.07.6.01.12.02.24.04.36.45.02.9.03,1.36.05a2.175,2.175,0,0,0-.06.72A2.073,2.073,0,0,0,62,35.237a1.841,1.841,0,0,0,2.34-.75,1.607,1.607,0,0,0,.31,1.95,1.332,1.332,0,0,0,1.81-.13,1.349,1.349,0,0,0,.39,1.49,1.054,1.054,0,0,0,1,.13,1.034,1.034,0,0,0,.41-.25,3.6,3.6,0,0,0,1.52.88,5.293,5.293,0,0,0-.07.9,2.842,2.842,0,0,0,.84,2.01,1.528,1.528,0,0,0,1.94.1,1.138,1.138,0,0,0,.53,1.25.961.961,0,0,0,1.22-.34.546.546,0,0,0,.57.18.782.782,0,0,0,.22-.15c.01,0,.02.02.04.02a2.131,2.131,0,0,0,.93,2.58,1.326,1.326,0,0,0,.89.18,3.456,3.456,0,0,0-.46.73,2.274,2.274,0,0,0-.16.39,4.409,4.409,0,0,0,.35,3.8q.36,2.9.71,5.79c.2,1.55.39,3.09.58,4.64.05.41.1.83.15,1.24,1.29.01,2.15-1.96,1.33-3.04a5.634,5.634,0,0,0,.62-7.29c-.27-1.47-.55-2.94-.83-4.4.49.4,1.28-.31,1.08-.91a11.865,11.865,0,0,0,4.35,1.23,11.224,11.224,0,0,0,3.21-.2,17.43,17.43,0,0,0,4.95-1.86A24.562,24.562,0,0,1,82.4,39.207Zm-1.59-1.97c.13.2.26.4.41.6-.15-.19-.29-.4-.44-.6Zm-46.15-4.67-.18.42a1.269,1.269,0,0,0-.27.48.749.749,0,0,0-.02.21,18.788,18.788,0,0,1-2.26,3.8C33.146,35.677,33.426,34.117,34.656,32.567Z"/>
        <path d="M32.006,49.357l-.02.05-.19.41-.21.48-.08.17-1.92,4.3-.07.16-.26.58-.35.79-.11.23-.27.61-.18-.15a1.935,1.935,0,0,1-.28-.36,1.893,1.893,0,0,1-.12-1.76c-.07.06-.14.11-.21.16l1.83-2.43c.15-.21.31-.41.46-.62.07-.09.13-.17.2-.26.13-.17.26-.35.4-.52.27-.37.55-.74.83-1.11.08-.1.15-.21.24-.31l.15-.21a2.307,2.307,0,0,0,.14-.19Z"/>
        <path d="M32.268,47.463l-1.156,5.793.425-.766Z"/>
        <path d="M31.616,47.747l-.02.08-.46,1.58-.19.65-.32,1.14-.11.37-.51,1.77c-.06-.08-.11-.16-.17-.24a1.091,1.091,0,0,1-.06-.11.879.879,0,0,1-.06-.1,1.593,1.593,0,0,1-.15-.29c-.57-1.27-.23-2.66,1.36-4.22Q31.241,48.062,31.616,47.747Z"/>
        <path d="M29.356,55.427l-.11,2.16-.11,1.95-.06,1.19c-.23-.14-.45-.29-.65-.44a3.784,3.784,0,0,1-.68-.63c-.01-.01-.01-.01-.01-.02-.68-.82-.73-1.78.33-3.01a5.531,5.531,0,0,1,.59-.61.9.9,0,0,1,.1-.09c.08-.07.17-.15.27-.23.07-.06.15-.12.23-.19C29.286,55.477,29.326,55.457,29.356,55.427Z"/>
        <path d="M30.116,57.89c1.857.56,2.621,1.811,1.146,4.475l-.672.546Z"/>
        <path d="M70.646,98.209q1.464-1.826-.54-2.733A2.1,2.1,0,0,1,70.646,98.209Z" fill="#fff"/>
        <path d="M36.808,96.551q-1.464-1.825.539-2.733A2.1,2.1,0,0,0,36.808,96.551Z" fill="#fff"/>
        <path d="M47.561,93.966q-1.464-1.827.54-2.733A2.1,2.1,0,0,0,47.561,93.966Z" fill="#fff"/>
        <path d="M82.488,94.467q1.464-1.825-.54-2.733A2.1,2.1,0,0,1,82.488,94.467Z" fill="#fff"/>
        <path d="M64.369,94.08l1.619-6.632c.577.288,1.132.11,1.664-.553l-2.729,7.794h-.554Z" fill="#fff" opacity="0.28"/>
        <path d="M76.677,89.305,78.3,82.082c.577.314,1.133.12,1.665-.6l-2.729,8.49h-.554Z" fill="#fff" opacity="0.28"/>
        <path d="M64.246,85.538l-1.7.808a2.6,2.6,0,0,0,.244,1.059.886.886,0,0,0,.9.489,1.089,1.089,0,0,0,.7-.805,2.044,2.044,0,0,0,.087-.968,1.251,1.251,0,0,0-.5-.815,1.036,1.036,0,1,0-1.045,1.783"/>
        <path d="M74.312,81.337a5.312,5.312,0,0,1-.345,1.967,2.641,2.641,0,0,1-5.044-1.011,2.283,2.283,0,0,1,.451-1.469,2.547,2.547,0,0,1,2.343-.837,5.178,5.178,0,0,1,2.34,1.079.739.739,0,0,1,.259.277.267.267,0,0,1-.087.338Z"/>
        <path d="M45.636,94.627h-.09l-.14,1.72a.564.564,0,0,1-.04.12.035.035,0,0,1-.01.02.435.435,0,0,1-.06.07.359.359,0,0,1-.1.07.188.188,0,0,1-.08.02h-.03l-.94-.1-.18-1.88-.15-1.57-1.17-4.12h.02a3.239,3.239,0,0,0,2.94.66v.01Z" fill="#fff" opacity="0.28"/>
        <path d="M56.866,89.5v.29a2.808,2.808,0,0,1-.41.01h-.01v1.29l-.22.01a1.111,1.111,0,0,1,.16.07l-.21,2.54a.323.323,0,0,1-.3.3h-.02l-.48-.04.1-2.86.01-.33.04-1.16.92-.08Z" fill="#fff" opacity="0.28"/>
        <path d="M55.547,69.559a8.381,8.381,0,0,1-.32,2.063.191.191,0,0,1-.139.119.255.255,0,0,1-.161-.053.461.461,0,0,1-.142-.26,2.15,2.15,0,0,1-.044-.533,8.827,8.827,0,0,1,.094-1.042,37.27,37.27,0,0,1,.876-4.065l.341-1.288-.066,1.335c-.056,1.121-.094,2.245-.1,3.366,0,.56.005,1.122.051,1.67.011.137.027.272.049.4a1.526,1.526,0,0,0,.042.179c-.005.05.1.1-.049.025.213,0,.537-.027.8-.045l3.363-.258c1.123-.073,2.243-.18,3.367-.232l-.087.024c1.881-.9,3.77-1.792,5.689-2.621l.023.045c-1.811,1.043-3.653,2.027-5.5,3L63.6,71.4l-.052,0c-1.12.116-2.244.174-3.367.26s-2.247.137-3.374.192c-.3.008-.534.032-.882.019-.289-.115-.227-.234-.279-.308a2.038,2.038,0,0,1-.05-.233c-.022-.148-.036-.293-.045-.437-.035-.574-.028-1.139-.016-1.7.028-1.13.09-2.255.17-3.38l.275.047a40.62,40.62,0,0,0-.973,4.016,8.841,8.841,0,0,0-.12,1.019,2.012,2.012,0,0,0,.026.5c0,.155.178.3.21.168a8.608,8.608,0,0,0,.373-2.011Z" fill="#666667"/>
        <path d="M47.5,71.2a34,34,0,0,1-9.852-5.406,19.844,19.844,0,0,1-3.89-4.117,17,17,0,0,1-2.389-5.118l.047-.016a24.267,24.267,0,0,0,2.75,4.845,24.974,24.974,0,0,0,3.74,4.1,35.34,35.34,0,0,0,9.612,5.665Z" fill="#666667"/>
        <path d="M58.486,66.887l-.02.02a8.84,8.84,0,0,0,.52,3.51l.15,1.08.03.18.01.01.43.44c-.018.925.551,1.242,1.32,1.35l-.02.37-.02.37c2.752,3.784-8.2,4.046-12.31,2.39-.91-.367-1.96.31-2.94.46-2.99.47-5.97.93-8.49,1.31-.86.14-1.67.26-2.4.36-2.54.38-4.22.6-4.28.56-.08-.06-2.2-1.32-5.1-3.05a5.528,5.528,0,0,0-2.23-2.74c.73-.4,1.48-.78,2.21-1.18a.037.037,0,0,0-.01-.03,1.236,1.236,0,0,1-1.39-1.34c.37-.06.75-.12,1.12-.19l-.33-1.89a5.367,5.367,0,0,1-.49-3.02,11.327,11.327,0,0,1,2.49-4.87c.33-.45.66-.9,1-1.35-.68-.82-.73-1.78.33-3.01a1.893,1.893,0,0,1-.12-1.76c-.07.06-.14.11-.21.16l1.83-2.43c-.57-1.27-.23-2.66,1.36-4.22a4.378,4.378,0,0,1,.16-1.49c-3.64,1.25-7.16.56-10.96-1.48q3.255-9.375,12.85-16.7c.07-.18.14-.37.23-.57h.55c.18-.14.36-.27.54-.4a.528.528,0,0,1-.56-.38.591.591,0,0,1,.43-.7.553.553,0,0,1-.45-.44.6.6,0,0,1,.38-.68,2.082,2.082,0,0,1-.22-1.69A1.854,1.854,0,0,1,35,22.667l-.27-.24a2.255,2.255,0,0,1,1.71-.08.685.685,0,0,1,.84-.32.076.076,0,0,1,.04.02,4,4,0,0,1,.64-1.33,3.739,3.739,0,0,1,5.11-.82,1.261,1.261,0,0,1,1.07-1.47,1.246,1.246,0,0,1,1.14,1.41,2.581,2.581,0,0,1,1.44-2.22,2.177,2.177,0,0,1,2.05.21,4.878,4.878,0,0,1,4.52-3.25,5.017,5.017,0,0,1,4.48,4.2,3.966,3.966,0,0,1,.85-1.55,1.135,1.135,0,0,1,1.53-.13.662.662,0,0,1,.15.22,3.306,3.306,0,0,1,2.32-1.49c-2.132,2.266-3.457,4.466-1.9,6.43-4.817,1.254-3.544,5.581-2.84,9.62l-.2.68-.3,1.01c-1.58,1.158-2.039,2.915-1.53,5.19-.577,2.49-.578,4.812.6,6.79a7.431,7.431,0,0,0-.6,5.8,52.374,52.374,0,0,0-.32,8.96,5.381,5.381,0,0,0,4.94,3.56l.67.48C59.74,65.274,58.729,66.141,58.486,66.887Z" fill="#666667" opacity="0.14" style="mix-blend-mode: multiply"/>
        <circle cx="26.293" cy="70.433" r="1.557"/>
        <circle cx="83.471" cy="70.523" r="2.474"/>
        <circle cx="59.485" cy="31.827" r="2.961"/>
        <g opacity="0.57">
          <path d="M55.6,70.1a4.369,4.369,0,0,1,.95.755,2.912,2.912,0,0,1,.665,1.169,1.686,1.686,0,0,1-.018,1.529,1.4,1.4,0,0,1-1.464.579l-.142-.141c-.145-.638-.2-.96-.244-1.2-.071-.22.214-.327.277-.6a2.684,2.684,0,0,0,.029-.895,6.67,6.67,0,0,0-.212-1.076Z" fill="#ee434c"/>
        </g>
        <g opacity="0.57">
          <path d="M55.314,66.635a6.7,6.7,0,0,0,.133-1.088,2.7,2.7,0,0,0-.093-.891c-.083-.266-.375-.352-.32-.577.031-.242.058-.567.156-1.214l.131-.151a1.407,1.407,0,0,1,1.5.472,1.689,1.689,0,0,1,.129,1.524,2.923,2.923,0,0,1-.579,1.213,4.343,4.343,0,0,1-.894.822Z" fill="#ee434c"/>
        </g>
        <g opacity="0.57">
          <path d="M81.885,34.391a23.4,23.4,0,0,1,4.021,3.67,16.921,16.921,0,0,1,2.961,4.569l-.023.011a43.083,43.083,0,0,0-3.09-4.451,24.93,24.93,0,0,0-3.884-3.779Z" fill="#fff"/>
        </g>
        <g opacity="0.57">
          <path d="M90.572,42.909a24.606,24.606,0,0,0-4.534-7.244,27.181,27.181,0,0,0-3.121-2.929A27.571,27.571,0,0,0,79.4,30.284l.012-.022a21.205,21.205,0,0,1,3.662,2.279,22.533,22.533,0,0,1,3.115,2.991A24.093,24.093,0,0,1,90.6,42.9Z" fill="#fff"/>
        </g>
        <g opacity="0.57">
          <path d="M33.01,31.687a17.925,17.925,0,0,1-3.3,6.2,15.26,15.26,0,0,1-5.5,4.373l-.011-.022a22.4,22.4,0,0,0,5.353-4.479,18.326,18.326,0,0,0,3.431-6.078Z" fill="#fff"/>
        </g>
        <g opacity="0.57">
          <path d="M32.2,30.36a22.162,22.162,0,0,1-2.932,5.346,17.184,17.184,0,0,1-4.367,4.256l-.015-.02a33.546,33.546,0,0,0,4.222-4.357,23.161,23.161,0,0,0,3.069-5.234Z" fill="#fff"/>
        </g>
        <g opacity="0.57">
          <path d="M31.205,31.539a37.672,37.672,0,0,0-5,5.258,58.024,58.024,0,0,0-4.014,6.046l-.022-.012a26.82,26.82,0,0,1,3.879-6.159,35.723,35.723,0,0,1,5.142-5.152Z" fill="#fff"/>
        </g>
        <g opacity="0.57">
          <path d="M57.449,52.7a33.675,33.675,0,0,1,3.25,2.05,15.828,15.828,0,0,1,2.909,2.51l-.017.018c-1.032-.765-2.014-1.57-3.011-2.367q-1.518-1.166-3.144-2.189Z" fill="#fff"/>
        </g>
        <g opacity="0.57">
          <path d="M62.946,57.908c-.822.728-1.76,1.312-2.541,2.064a4.617,4.617,0,0,0-.967,1.252,1.445,1.445,0,0,0,.064,1.484l-.02.015a1.406,1.406,0,0,1-.273-1.6,3.865,3.865,0,0,1,1.061-1.3c.831-.735,1.8-1.267,2.66-1.935Z" fill="#fff"/>
        </g>
        <ellipse cx="32.241" cy="63.462" rx="1.79" ry="2.185"/>
        <ellipse cx="36.522" cy="66.678" rx="1.263" ry="2.199"/>
        <ellipse cx="34.837" cy="64.381" rx="1.22" ry="0.919"/>
        <circle cx="41.481" cy="70.07" r="1.611"/>
        <ellipse cx="39.309" cy="70.164" rx="1.523" ry="2.4"/>
        <ellipse cx="36.529" cy="72.2" rx="2.267" ry="2.069"/>
        <ellipse cx="30.55" cy="71.671" rx="2.814" ry="3.908"/>
        <ellipse cx="31.273" cy="75.389" rx="1.917" ry="1.332"/>
        <ellipse cx="26.57" cy="71.771" rx="1.834" ry="1.701"/>
        <circle cx="24.985" cy="68.398" r="0.634"/>
        <circle cx="23.825" cy="65.989" r="0.689"/>
        <circle cx="25.066" cy="64.934" r="0.553"/>
        <circle cx="26.421" cy="63.604" r="1.315"/>
        <circle cx="27.26" cy="61.016" r="1.273"/>
        <ellipse cx="26.068" cy="74.104" rx="2.243" ry="1.996"/>
        <ellipse cx="26.139" cy="72.894" rx="2.563" ry="1.719"/>
        <ellipse cx="29.648" cy="81.089" rx="3.97" ry="3.411"/>
        <ellipse cx="38.199" cy="82.545" rx="1.67" ry="2.584"/>
        <ellipse cx="44.584" cy="79.916" rx="2.251" ry="0.342"/>
        <ellipse cx="40.139" cy="79.379" rx="1.342" ry="3.026"/>
        <ellipse cx="36.475" cy="80.039" rx="4.207" ry="2.106"/>
        <ellipse cx="36.414" cy="85.479" rx="2.382" ry="2.116"/>
        <ellipse cx="39.489" cy="81.374" rx="4.652" ry="2.368"/>
        <ellipse cx="43.985" cy="79.253" rx="4.115" ry="3.152"/>
        <ellipse cx="52.364" cy="81.279" rx="1.527" ry="2.779" fill="#161616"/>
        <ellipse cx="39.573" cy="82.82" rx="4.313" ry="2.904" fill="#161616"/>
        <path d="M39.6,75.868l1.592.862a1.811,1.811,0,1,1,.218-.862Z" fill="#161616"/>
        <circle cx="47.058" cy="81.368" r="1.452" fill="#161616"/>
        <circle cx="49.117" cy="81.975" r="2.059" fill="#161616"/>
        <ellipse cx="58.799" cy="80.892" rx="2.952" ry="1.513" fill="#161616"/>
        <ellipse cx="64.42" cy="82.382" rx="1.59" ry="2.466" fill="#161616"/>
        <circle cx="74.791" cy="76.673" r="3.527" fill="#161616"/>
        <circle cx="71.47" cy="76.606" r="2.548" fill="#161616"/>
        <circle cx="63.69" cy="80.739" r="3.169" fill="#161616"/>
        <circle cx="53.27" cy="82.399" r="1.66" fill="#161616"/>
        <circle cx="56.942" cy="80.862" r="1.856" fill="#161616"/>
        <circle cx="49.738" cy="79.004" r="2.904" fill="#161616"/>
        <circle cx="42.031" cy="78.304" r="2.435"/>
        <ellipse cx="51.12" cy="86.674" rx="4.062" ry="1.545"/>
        <circle cx="59.905" cy="85.929" r="3.784"/>
        <circle cx="69.284" cy="84.661" r="4.914"/>
        <circle cx="80.192" cy="76.143" r="1.874"/>
        <circle cx="82.666" cy="69.654" r="1.89"/>
        <circle cx="85.927" cy="66.858" r="1.371"/>
        <circle cx="85.367" cy="70.167" r="3.489" fill="#161616"/>
        <circle cx="85.733" cy="60.152" r="2.263" fill="#161616"/>
        <circle cx="87.843" cy="55.447" r="2.11" fill="#161616"/>
        <circle cx="83.038" cy="54.757" r="2.042" fill="#161616"/>
        <circle cx="79.191" cy="58.267" r="1.805" fill="#161616"/>
        <circle cx="78.885" cy="65.047" r="2.332" fill="#161616"/>
        <circle cx="80.238" cy="62.969" r="2.332" fill="#161616"/>
        <circle cx="76.902" cy="70.114" r="2.884" fill="#161616"/>
        <circle cx="74.926" cy="75.606" r="2.46" fill="#161616"/>
        <circle cx="66.276" cy="80.808" r="2.31" fill="#161616"/>
        <circle cx="60.906" cy="83.21" r="3.464" fill="#161616"/>
        <circle cx="52.215" cy="85.185" r="3.906" fill="#161616"/>
        <circle cx="45.158" cy="79.96" r="2.066" fill="#161616"/>
        <circle cx="48.06" cy="77.369" r="1.226" fill="#161616"/>
        <circle cx="45.36" cy="74.107" r="1.474" fill="#161616"/>
        <circle cx="46.135" cy="72.479" r="0.808" fill="#161616"/>
        <circle cx="46.987" cy="77.208" r="1.627" fill="#161616"/>
        <circle cx="63.468" cy="73.528" r="0.53" fill="#161616"/>
        <circle cx="67.815" cy="74.802" r="1.804" fill="#161616"/>
        <circle cx="65.762" cy="79.177" r="2.824" fill="#161616"/>
        <circle cx="61.896" cy="82.029" r="3.434" fill="#161616"/>
        <circle cx="72.351" cy="75.139" r="1.666" fill="#161616"/>
        <circle cx="72.641" cy="71.9" r="1.377"/>
        <circle cx="71.746" cy="84.889" r="2.596"/>
        <circle cx="60.611" cy="81.023" r="1.448"/>
        <circle cx="66.094" cy="76.154" r="0.764"/>
        <circle cx="68.511" cy="77.687" r="0.616"/>
        <circle cx="68.348" cy="80.924" r="2.337"/>
        <circle cx="64.165" cy="82.951" r="2.693"/>
        <circle cx="58.214" cy="85.456" r="2.092"/>
        <circle cx="76.06" cy="36.119" r="1.718"/>
        <circle cx="73.119" cy="36.085" r="1.855" fill="#161616"/>
        <circle cx="72.255" cy="30.678" r="2.149" fill="#161616"/>
        <circle cx="68.006" cy="28.163" r="1.73" fill="#161616"/>
        <circle cx="62.795" cy="27.64" r="2.184" fill="#161616"/>
        <circle cx="56.233" cy="24.102" r="2.566" fill="#161616"/>
        <circle cx="73.548" cy="31.724" r="2.677" fill="#161616"/>
        <circle cx="79.484" cy="31.828" r="2.582" fill="#161616"/>
        <circle cx="85.017" cy="41.416" r="3.14" fill="#161616"/>
        <circle cx="84.602" cy="36.845" r="1.131" fill="#161616"/>
        <circle cx="81.82" cy="38.724" r="3.914" fill="#161616"/>
        <circle cx="83.867" cy="47.025" r="3.629" fill="#161616"/>
        <circle cx="88.743" cy="50.179" r="1.841" fill="#161616"/>
        <circle cx="90.305" cy="65.372" r="2.461" fill="#161616"/>
        <circle cx="90.842" cy="61.526" r="0.889" fill="#161616"/>
        <circle cx="90.237" cy="60.573" r="1.494" fill="#161616"/>
        <circle cx="86.461" cy="56.139" r="1.382"/>
        <circle cx="82.909" cy="49.918" r="1.693"/>
        <circle cx="81.662" cy="59.033" r="0.446"/>
        <circle cx="83.629" cy="67.045" r="3.669"/>
        <circle cx="76.403" cy="70.932" r="1.375"/>
        <circle cx="73.405" cy="70.333" r="1.935"/>
        <circle cx="68.007" cy="73.696" r="2.678"/>
        <circle cx="74.589" cy="68.849" r="1.47"/>
        <circle cx="77.785" cy="61.414" r="1.107"/>
        <circle cx="79.533" cy="59.801" r="1.215"/>
        <circle cx="79.547" cy="56.223" r="1.229"/>
        <circle cx="81.437" cy="53.661" r="3.119" fill="#161616"/>
        <circle cx="77.266" cy="46.857" r="0.84" fill="#161616"/>
        <circle cx="77.212" cy="44.639" r="0.535" fill="#161616"/>
        <circle cx="77.021" cy="43.411" r="0.344" fill="#161616"/>
        <circle cx="45.701" cy="28.803" r="2.608" fill="#161616"/>
        <circle cx="40.671" cy="31.925" r="2.885" fill="#161616"/>
        <circle cx="36.413" cy="39.021" r="0.356" fill="#161616"/>
        <circle cx="29.322" cy="63.545" r="1.426" fill="#161616"/>
        <circle cx="29.882" cy="60.929" r="0.777" fill="#161616"/>
        <circle cx="29.768" cy="58.238" r="0.349" fill="#161616"/>
        <circle cx="31.47" cy="55.716" r="0.722" fill="#161616"/>
        <circle cx="32.491" cy="54.137" r="0.801" fill="#161616"/>
        <circle cx="33.054" cy="51.91" r="0.563" fill="#161616"/>
        <circle cx="33.152" cy="49.291" r="0.466" fill="#161616"/>
        <circle cx="31.677" cy="73.758" r="3.688" fill="#161616"/>
        <circle cx="32.452" cy="84.941" r="3.033" fill="#161616"/>
        <circle cx="46.547" cy="90.183" r="1.963" fill="#161616"/>
        <circle cx="55.903" cy="92.352" r="3.26" fill="#161616"/>
        <circle cx="59.632" cy="88.967" r="1.419" fill="#161616"/>
        <circle cx="62.541" cy="87.071" r="0.397" fill="#161616"/>
        <circle cx="63.406" cy="91.323" r="2.356" fill="#161616"/>
        <circle cx="63.133" cy="86.7" r="1.237" fill="#161616"/>
        <circle cx="69.001" cy="86.561" r="1.105" fill="#161616"/>
        <circle cx="50.382" cy="89.316" r="1.768" fill="#161616"/>
        <circle cx="45.6" cy="88.117" r="1.459" fill="#161616"/>
        <circle cx="37.708" cy="87.826" r="1.888" fill="#161616"/>
        <path d="M33.054,86.85v0Z" fill="#161616"/>
        <circle cx="44.656" cy="89.424" r="3.175" fill="#161616"/>
        <circle cx="70.487" cy="87.764" r="1.203"/>
        <circle cx="47.128" cy="89.143" r="4.482"/>
        <circle cx="44.723" cy="84.092" r="3.891"/>
        <circle cx="37.364" cy="78.204" r="0.835"/>
        <path d="M32.268,72.108h0Z"/>
        <circle cx="49.537" cy="82.507" r="1.583"/>
        <circle cx="51.713" cy="80.307" r="3.099"/>
        <circle cx="53.077" cy="86.74" r="1.466"/>
        <circle cx="27.433" cy="59.529" r="2.449"/>
        <circle cx="28.421" cy="55.994" r="0.684"/>
        <circle cx="31.329" cy="54.633" r="0.217"/>
        <circle cx="30.147" cy="48.127" r="0.38"/>
        <circle cx="30.672" cy="44.66" r="0.525"/>
        <circle cx="28.585" cy="56.435" r="2.164"/>
        <circle cx="28.299" cy="52.43" r="0.403"/>
        <circle cx="30.659" cy="47.893" r="2.096"/>
        <circle cx="26.139" cy="59.414" r="2.563"/>
        <circle cx="28.474" cy="75.018" r="2.053"/>
        <circle cx="30.149" cy="66.305" r="2.905"/>
        <circle cx="41.9" cy="81.799" r="0.747"/>
        <circle cx="53.458" cy="81.661" r="1.745"/>
        <circle cx="83.777" cy="44.594" r="1.957"/>
        <circle cx="83.054" cy="40.765" r="0.813"/>
        <circle cx="80.595" cy="37.718" r="1.646"/>
        <circle cx="78.58" cy="43.885" r="3.24"/>
        <circle cx="85.461" cy="40.888" r="0.466"/>
        <circle cx="83.089" cy="36.08" r="1.269"/>
        <circle cx="85.407" cy="62.189" r="0.805"/>
        <circle cx="87.111" cy="68.97" r="1.744"/>
        <path d="M83.629,74.8h0Z"/>
        <path d="M77.386,75.606h0Z"/>
        <circle cx="70.643" cy="77.675" r="3.414"/>
        <circle cx="77.255" cy="73.158" r="0.852"/>
        <circle cx="75.035" cy="77.436" r="0.631"/>
        <circle cx="75.286" cy="72.473" r="2.82"/>
        <circle cx="78.003" cy="63.271" r="0.982"/>
        <circle cx="64.197" cy="88.176" r="0.03"/>
        <circle cx="62.944" cy="82.738" r="0.473"/>
        <circle cx="62.129" cy="87.47" r="2.497"/>
        <circle cx="61.285" cy="90.23" r="2.122"/>
        <circle cx="56.357" cy="82.18" r="3.75"/>
        <circle cx="46.021" cy="82.196" r="2.465"/>
        <circle cx="41.469" cy="78.417" r="2.673"/>
        <circle cx="28.241" cy="71.788" r="0.77"/>
        <path d="M28.7,52.43h0Z"/>
        <circle cx="26.792" cy="49.183" r="0.806"/>
        <circle cx="31.454" cy="50.803" r="0.814"/>
        <circle cx="28.926" cy="55.23" r="1.19"/>
        <circle cx="80.42" cy="27.185" r="0.576"/>
        <circle cx="74.217" cy="16.928" r="0.574"/>
        <circle cx="65.67" cy="15.676" r="0.341"/>
        <circle cx="61.878" cy="15.168" r="0.593"/>
        <circle cx="57.32" cy="14.952" r="0.378"/>
        <circle cx="35.253" cy="19.593" r="1.222"/>
        <circle cx="31.393" cy="20.31" r="0.645"/>
        <circle cx="25.179" cy="54.137" r="2.859"/>
        <circle cx="24.178" cy="48.572" r="0.603"/>
        <circle cx="28.77" cy="46.399" r="1.978"/>
        <circle cx="28.998" cy="50.95" r="0.961"/>
        <circle cx="29.706" cy="46.796" r="0.695"/>
        <circle cx="35.204" cy="28.724" r="0.876"/>
        <circle cx="29.575" cy="52.487" r="1.537"/>
        <circle cx="30.829" cy="50.436" r="0.257"/>
        <circle cx="32.239" cy="28.284" r="2.089"/>
        <circle cx="33.903" cy="25.388" r="0.904"/>
        <circle cx="84.175" cy="76.55" r="1.752"/>
        <circle cx="81.599" cy="77.894" r="0.823"/>
        <circle cx="40.963" cy="90.131" r="0.824"/>
        <circle cx="28.682" cy="51.073" r="1.89"/>
        <circle cx="28.409" cy="47.51" r="0.811"/>
      </g>
    </g>
  </g>
</svg>
