<svg xmlns="http://www.w3.org/2000/svg" width="199.006" height="133.97" viewBox="0 0 199.006 133.97">
  <title>Asset 7</title>
  <g style="isolation: isolate">
    <g>
      <path d="M199.006,133.758c-3.729,1.333-4.7-4.037-8.659-4.037s-3.962,2.689-7.924,2.689-3.963-1.647-7.927-1.647-3.962-1.062-7.923-1.062-3.964,2.053-7.928,2.053-3.962,1.509-7.925,1.509-3.963-.938-7.927-.938-3.963.953-7.926.953-3.964-1.573-7.928-1.573-3.964.933-7.927.933-3.964.131-7.929.131-3.965.747-7.93.747-3.964-3.719-7.928-3.719-3.965.907-7.929.907-3.965,2.328-7.93,2.328-3.966-.414-7.931-.414-3.965-.322-7.93-.322-3.965.171-7.929.171-3.964-.6-7.929-.6-3.964-1.433-7.929-1.433-3.965,2.015-7.93,2.015-3.967.748-7.934.748-3.966-1.309-7.931-1.309-3.969-1.206-7.937-1.206S3.737,133.17,0,131.836c1.282-2.375,2.658-4.861,4.1-7.13s2.94-4.525,4.543-6.686,3.333-4.241,5.087-6.282,3.548-4.063,5.444-5.975,4.592-2.931,6.62-4.7,4.2-3.246,6.348-4.87S35.537,91.7,37.8,90.236s4.819-2.451,7.182-3.752,5.573-.732,8.025-1.861,4.212-3.646,6.742-4.6c2.512-.943,4.512-3.583,7.1-4.348,2.572-.758,5.193-1.882,7.838-2.458,2.617-.57,5.8,1.66,8.478,1.275,2.65-.379,5.146-2.4,7.851-2.591,2.667-.189,5.424,2.6,8.139,2.6s5.388-1.62,8.055-1.431c2.7.191,5.582-1.034,8.231-.654,2.682.384,5.22,1.812,7.837,2.382,2.645.576,4.758,3.008,7.33,3.766,2.594.765,5.552.232,8.065,1.175,2.529.95,5.42,1.1,7.859,2.221s4.266,3.552,6.62,4.849,5.4,1.516,7.652,2.978,3.138,4.888,5.285,6.509,3.694,3.8,5.721,5.573,7.064.362,8.96,2.274,3.424,4.375,5.18,6.419.356,6.595,1.963,8.76,3.407,4.025,4.855,6.3S197.725,131.383,199.006,133.758Z" fill="#109a48"/>
      <g>
        <g>
          <g>
            <path d="M141.287,9.083c5.914,8.229-.357,11.711-4.93,12.947-.175-2.728-7.211-8.928.257-12.42,1.333-4.838,5.237-7.493,8.686-6.407Z" fill="#fff"/>
            <path d="M137.239,21.769a27.87,27.87,0,0,0-12.26,8.483l-.574-.929c3.441-3.969,7.317-6.779,11.812-7.944" fill="#fff"/>
          </g>
          <g>
            <g>
              <g>
                <g>
                  <path d="M80.3,10.92l-5.549,11.6c-4.323,4.229-9.831-6.355-14.917-12.049-1.114-1.248-1.826-2.012-2.61-2.125a1.293,1.293,0,0,0-.206-.011c-1.888,3.6-3.91-.154.051-.784v.011c1.31-.836,2.28-1.334,2.806,1.018C62.477,3.9,70.391,6.921,80.3,10.92Z" fill="#fff"/>
                  <path d="M107.865,8.047c.655-1.312,13.324,3.187,13.865,3.966,1.559,2.25,10.93-6.365,9.919-7.525.76,3.4.762,6.286-2.2,7.134q-2.1,10.944-14.751,9.967Z" fill="#fff"/>
                </g>
                <polygon points="128.003 46.516 117.579 76.291 114.712 76.226 114.712 46.516 128.003 46.516" fill="#fff"/>
                <polygon points="124.508 47.27 116.771 76.291 114.643 76.227 114.643 47.27 124.508 47.27" fill="#fff" opacity="0.14" style="mix-blend-mode: multiply"/>
                <polygon points="83.291 46.516 93.716 76.291 96.583 76.226 96.583 46.516 83.291 46.516" fill="#fff"/>
                <polygon points="85.49 46.516 93.461 76.291 95.652 76.226 95.652 46.516 85.49 46.516" fill="#fff" opacity="0.14" style="mix-blend-mode: multiply"/>
                <path d="M114.712,67.172c.728-.44,6.09-5,6.948-5.769.958-.851,2.026-6.22,1.863-6.243.99.126,1.646.676,0,4.152l-2.751,7.86C119.059,71.172,115.052,70.39,114.712,67.172Z" fill="#fff"/>
                <path d="M117.672,62.331c3.029,15.636-16.419,19.643-24.628,8.7Z" fill="#fff"/>
                <polygon points="115.755 50.165 105.33 79.939 102.464 79.874 102.464 50.165 115.755 50.165" fill="#fff"/>
                <polygon points="72.146 50.165 82.571 79.939 85.437 79.874 85.437 50.165 72.146 50.165" fill="#fff"/>
                <polygon points="73.925 50.165 82.266 79.939 84.56 79.874 84.56 50.165 73.925 50.165" fill="#fff" opacity="0.14" style="mix-blend-mode: multiply"/>
                <polygon points="112.19 50.919 104.453 79.939 102.326 79.876 102.326 50.919 112.19 50.919" fill="#fff" opacity="0.14" style="mix-blend-mode: multiply"/>
              </g>
              <path d="M128.413,43.3a27.615,27.615,0,0,1-19.693,26.47A27.41,27.41,0,0,1,98.24,73.1a25.515,25.515,0,0,1-2.961.165A27.622,27.622,0,0,1,87.46,19.152a27.284,27.284,0,0,1,13.379-3.477A27.6,27.6,0,0,1,128.413,43.3Z" fill="#fff"/>
              <path d="M96.583,16.005c-46.468,10.178-32.338,66.748,7.826,55.182,14.722-4.24,13.761-9.418,1.11-8.925C88.518,62.925,89.905,37.311,96.583,16.005Z" fill="#fff" opacity="0.14" style="mix-blend-mode: multiply"/>
              <ellipse cx="112.654" cy="47.681" rx="8.442" ry="7.171" fill="#fff"/>
              <path d="M100.888,67.364a8.616,8.616,0,0,1-2.123,5.727,29.516,29.516,0,0,1-3.3.177,31.813,31.813,0,0,1-9.424-1.42,8.8,8.8,0,0,1-1.217-4.484,8.04,8.04,0,1,1,16.059,0Z" fill="#fff"/>
              <path d="M87.848,56.613h14.724a0,0,0,0,1,0,0v.1A3.094,3.094,0,0,1,99.478,59.8H90.866a3.018,3.018,0,0,1-3.018-3.018v-.174A0,0,0,0,1,87.848,56.613Z" transform="translate(2.454 -3.836) rotate(2.338)" fill="#fff"/>
              <ellipse cx="74.217" cy="51.689" rx="5.408" ry="7.218" fill="#fff"/>
              <path d="M105.917,5.275,83.374,5.014C76.5,17.884,70.8,30.5,67.086,42.672L87.414,57.918l13.812.521,16.809-11.988A60.848,60.848,0,0,0,105.917,5.275Z" fill="#fff"/>
              <path d="M127,10.055c3.89.451,4.967-.84,3.727-3.566Z" fill="#fff"/>
              <path d="M110.934,8.153A61.956,61.956,0,0,1,121.072,11.6c-.241,4.468-2.473,7.081-7.487,7.1.958,3.094-4.437,4.851-6.544,3.722C96.869,16.973,97.6,5.355,110.934,8.153Z" fill="#fff"/>
              <path d="M96.521,58.346c-1.491.53-1.412,1.07,0,1.618-4.815.274-7.973-.126-8.106-1.755Z" fill="#fff" opacity="0.14" style="mix-blend-mode: multiply"/>
              <path d="M94.4,5.141c-9.24,19.456-14.1,46.548,6.83,53.3l-13.812-.521L67.086,42.672A214.189,214.189,0,0,1,83.374,5.014Z" fill="#fff" opacity="0.14" style="mix-blend-mode: multiply"/>
            </g>
            <g>
              <path d="M96.521,76.307l-.214,2.618a.335.335,0,0,1-.33.307l-8.266.078C84.1,76.281,90.523,73.331,96.521,76.307Z" fill="#fff"/>
              <path d="M102.464,79.969V82.6a.332.332,0,0,0,.3.332l8.232.754C114.843,80.958,108.686,77.493,102.464,79.969Z" fill="#fff"/>
              <path d="M114.712,76.226v2.627a.334.334,0,0,0,.3.332l8.231.754C127.091,77.215,120.934,73.75,114.712,76.226Z" fill="#fff"/>
              <path d="M85.115,79.032,84.9,81.651a.333.333,0,0,1-.329.306l-8.266.079C72.7,79.006,79.116,76.056,85.115,79.032Z" fill="#fff"/>
              <path d="M111.341,83.445q1.511-1.882-.557-2.819Q112.07,81.562,111.341,83.445Z" fill="#fff"/>
              <path d="M76.142,81.735q-1.51-1.884.557-2.819Q75.414,79.852,76.142,81.735Z" fill="#fff"/>
              <path d="M87.527,79.068q-1.511-1.884.557-2.819Q86.8,77.184,87.527,79.068Z" fill="#fff"/>
              <path d="M123.557,79.585q1.51-1.884-.557-2.819Q124.286,77.7,123.557,79.585Z" fill="#fff"/>
            </g>
          </g>
          <circle cx="80.638" cy="25.519" r="3.489" fill="#fff"/>
          <g>
            <path d="M96.043,54.085c.735.559-6.328,3.616-7.166,2.737A15.171,15.171,0,0,1,87.9,55.47c-6.042-3.365-11.97-6.729-14.774-10.041a12.482,12.482,0,0,0-4.9-3.332c.171-.814.5-1.421,1.3-1.433,4.5-21.7,45.8-20.2,49.06,0l-1.824,3.518.456.289L116.7,45.55l.521.261c-3.924,4.534-9.233,8.1-15.441,11.045C99.184,56.4,97.111,55.584,96.043,54.085Z" fill="#fff"/>
            <path d="M96,53.2c.734.535-6.319,3.464-7.156,2.622a14.543,14.543,0,0,1-.976-1.295c-6.033-3.224-11.953-6.447-14.753-9.62a12.494,12.494,0,0,0-4.895-3.192c.171-.78.5-1.362,1.3-1.373,4.49-20.786,45.737-19.35,48.99,0l-1.822,3.37.455.277-.52,1.034.52.25c-3.918,4.343-9.219,7.762-15.419,10.581C99.139,55.417,97.07,54.638,96,53.2Z" fill="#fff"/>
            <path d="M68.223,41.717C73.053,31.3,79.928,25.807,89,25.609c-3.933,7.7-2.335,15.063,7.106,21.929-1.761.829,4.689,7.983,5.626,8.318.85.3-5.859-1.092-5.725-2.654l-.246.459a12.654,12.654,0,0,1-6.91,2.163l-.976-1.295c-6.2-3.166-12.082-6.478-15.9-10.714l-3.749-2.1,1.3-1.053" fill="#fff" opacity="0.14" style="mix-blend-mode: multiply"/>
          </g>
          <g>
            <path d="M77.037,40.953c-11.753.479.324-14.226,2.588-2.019" fill="#fff"/>
            <path d="M76.758,40.631c-7.1.333.2-9.87,1.564-1.4" fill="#fff"/>
          </g>
          <circle cx="88.687" cy="12.133" r="1.989" fill="#fff"/>
          <g>
            <ellipse cx="101.322" cy="17.463" rx="7.485" ry="7.036" transform="translate(80.062 118.057) rotate(-87.845)" fill="#fff"/>
            <ellipse cx="100.888" cy="17.765" rx="6.493" ry="6.848" fill="#fff"/>
            <ellipse cx="100.996" cy="18.728" rx="2.94" ry="2.312" transform="matrix(0.196, -0.981, 0.981, 0.196, 62.838, 114.095)" fill="#fff"/>
            <path d="M99.837,11.013c-.35,5.878,1.249,10,5.481,11.752C96.986,30.639,88.513,14.492,99.837,11.013Z" fill="#fff" opacity="0.14" style="mix-blend-mode: multiply"/>
            <path d="M86.3,13.738c-.277,4.516.989,7.683,4.342,9.028C83.361,29.374,77.81,14.8,86.3,13.738Z" fill="#fff" opacity="0.14" style="mix-blend-mode: multiply"/>
          </g>
          <g>
            <ellipse cx="86.596" cy="18.699" rx="4.742" ry="5.923" transform="translate(-1.92 22.366) rotate(-14.557)" fill="#fff" opacity="0.97"/>
            <ellipse cx="86.475" cy="19.086" rx="4.379" ry="5.417" transform="translate(-1.787 11.874) rotate(-7.775)" fill="#fff"/>
            <ellipse cx="86.698" cy="20.397" rx="1.959" ry="2.951" transform="translate(-2.221 25.501) rotate(-16.524)" fill="#fff"/>
          </g>
          <path d="M110.182,1.051c-1.971.765-4.05,1.462-4.105,3.437L104.448,3.4a62.934,62.934,0,0,0-16.809.26c-1.083-1.608-1.595-2.9-.854-3.493-.812-.582-.964.363-.31,3.168C85.206,1.764,83.1,1.051,80.3,1.051c1.6.716,2.454,1.792,2.127,3.437-1.273-.37-1.625.8-2.127,1.715,1.563-.745,3.056.553,4.529,2.406a8.705,8.705,0,0,0,5.937,0c-.386.414-.961.432.542.977,1.171.425,5.147.086,4.928-.521,0,0-.007.589,0,.521.068-.7,3.195-1.1,3.195-.456,1.851.293,2.61-.44,2.747-1.759.466-.532,2.96,1.945,3.443,1.5.276-.256,2.521.351,2.244.716-.494-.772-.742-1.457-.094-1.824l1.322.072c-.616-.211-.172-1.278.5-1.114.19.046,1.043.456,1.043.456L111.9,5.938a3.63,3.63,0,0,1-2.765,0C108.346,4.215,108.836,2.6,110.182,1.051Z" fill="#fff"/>
          <g>
            <path d="M110.079,41.538c11.753.479-.324-14.226-2.588-2.019" fill="#fff"/>
            <path d="M110.357,41.216c7.1.333-.195-9.87-1.563-1.4" fill="#fff"/>
          </g>
          <path d="M126.233,32.518c-3.964,6.809-3.747,12.126,1.771,15.553A27.787,27.787,0,0,0,126.233,32.518Z" fill="#fff"/>
          <path d="M108.72,69.771a35.612,35.612,0,0,1-1.61,5.087c-.94,2.156-4.486,2.177-4.646.212.454.022.141-2.91-.138-2.718C101.792,72.719,108.644,70.121,108.72,69.771Z" fill="#fff"/>
          <path d="M70.587,7.312C63.63,9.117,69.1,23.869,75.155,21.669c1.1-.4,5.145-10.749,5.145-10.749Z" fill="#fff"/>
          <path d="M55,8.609c1.451-.413,3.112-.327,2.912,0l1.966-.034c-.174-1.292-.592-2.25-2.439-1.263A4.4,4.4,0,0,0,55,8.609Z" fill="#fff"/>
          <ellipse cx="63.109" cy="10.922" rx="1.336" ry="1.531" fill="#fff"/>
          <ellipse cx="118.996" cy="30.533" rx="0.974" ry="1.525" fill="#fff"/>
          <path d="M116.113,66.088c-3.409-3.71-5.438-2.015-6.537,3.324A17.92,17.92,0,0,0,116.113,66.088Z" fill="#fff"/>
          <path d="M92.626,24.949c.095-.313.355-3.28.355-3.28l.847,3.281Z" fill="#fff" opacity="0.97"/>
          <path d="M115.469,23.913c-6.36.7-4.03,10.163,1.9,8.145A58.892,58.892,0,0,0,115.469,23.913Z" fill="#fff"/>
          <path d="M142.478,3.045c-1.446,1.848-2.937,3.792-3.377,6.1a7.445,7.445,0,0,0,.191,3.558c.178.581.426,1.139.592,1.724a6.459,6.459,0,0,1-2.987,7.351l4.525-3.07c.081.066-.116.157-.158.061s.037-.2.106-.277a4.453,4.453,0,0,0,.882-2,5.838,5.838,0,0,0,.155-1.794,10.476,10.476,0,0,0-1.555-3.706,4.549,4.549,0,0,1-.543-3.87,5.059,5.059,0,0,1,.889-1.237q1.335-1.5,2.743-2.936" fill="#fff"/>
          <path d="M136.511,21.773a27.587,27.587,0,0,1,1.473-2.733,4.513,4.513,0,0,0,.615-2.983,12.471,12.471,0,0,0-.433-1.273,9.218,9.218,0,0,1-.359-2.7,11.442,11.442,0,0,1,.307-3.38c.591-2.089,2.156-3.739,3.667-5.3" fill="#fff"/>
          <path d="M144.65,3.265q-1.47,1.842-2.929,3.683c-.114.629-.217,1.259-.268,1.888v.01" fill="#fff"/>
          <path d="M141.432,9.29V9.3c0,.217.01.423.021.629.154,2.084,1.372,4.024,1.248,6.107a6.475,6.475,0,0,1-2.6,4.488.01.01,0,0,0-.01.01" fill="#fff"/>
          <path d="M138.657,7.134a12.731,12.731,0,0,0-2.29,6.643,7.938,7.938,0,0,0,.32,3.157,3.2,3.2,0,0,1,.185.608,2.412,2.412,0,0,1-.093.764c-.216.928-.443,1.867-.66,2.806" fill="#fff"/>
          <path d="M135.531,19.905a18.474,18.474,0,0,1,1.723-11.018" fill="#fff"/>
          <path d="M134.139,17.326c-.011-.207-.011-.413-.011-.609a16.965,16.965,0,0,1,1.517-6.592" fill="#fff"/>
          <path d="M134.479,11.013c-.237.773-.444,1.547-.629,2.321-.083.34-.155.68-.207,1.031a7.069,7.069,0,0,0-.02,1.744v.01" fill="#fff"/>
          <path d="M78.322,67.452c2.374,5.991,4.787,6.528,7.222,4.053A24.467,24.467,0,0,1,78.322,67.452Z" fill="#fff"/>
        </g>
        <path d="M97.969,1.335a9.283,9.283,0,0,1,4.153,2" fill="#fff"/>
        <path d="M98.239,5.489c-.119-1.245,3.361-1.3,3.616-.391" fill="#fff"/>
        <path d="M96.73,6.515c.024.469,2.17,1.345,3.127.8a4.3,4.3,0,0,0,3.5-.4" fill="#fff"/>
        <path d="M92.716,4.072c.537-.965,14.659-.99,14.659,0" fill="#fff"/>
        <path d="M97.54,8.316c.1.291,3.532-.559,3.532-.559,1.223-.324,1.471-.78,1.479-1.268" fill="#fff"/>
        <path d="M101.145,1.971c-1.234.622-2.147,1.383-2.2,2.517" fill="#fff"/>
        <path d="M98.531,5.977a14.717,14.717,0,0,1,2.052,1.335l.977.413" fill="#fff"/>
        <polyline points="101.916 5.977 100.13 5.014 98.175 5.014" fill="#fff"/>
      </g>
      <g>
        <g>
          <g>
            <path d="M140.067,11.01c5.732,7.976-.346,11.352-4.78,12.55-.169-2.645-6.99-8.655.25-12.04,1.291-4.69,5.076-7.263,8.42-6.21Z" fill="#666766"/>
            <g>
              <path d="M136.142,23.306a27.033,27.033,0,0,0-11.884,8.224l-.556-.9c3.335-3.847,7.092-6.571,11.449-7.7" fill="#cccccb"/>
              <path d="M136.146,23.318a31.718,31.718,0,0,0-3.333,1.481,33.768,33.768,0,0,0-3.115,1.887,28.237,28.237,0,0,0-2.865,2.253,25.644,25.644,0,0,0-2.525,2.634l-.058.068-.048-.076-.569-.892-.031-.049.039-.047a27.042,27.042,0,0,1,5.136-4.777,18.46,18.46,0,0,1,3.052-1.748,16.654,16.654,0,0,1,3.319-1.135l.007.024a20.693,20.693,0,0,0-3.252,1.268A24.048,24.048,0,0,0,128.918,26a30.68,30.68,0,0,0-5.155,4.682l.007-.095.544.907-.106-.008c.8-.923,1.68-1.773,2.558-2.621a27.6,27.6,0,0,1,2.822-2.337,22.517,22.517,0,0,1,6.55-3.234Z" fill="#231f20"/>
            </g>
          </g>
          <g>
            <g>
              <g>
                <g>
                  <path d="M80.947,12.79l-5.38,11.24c-4.19,4.1-9.53-6.16-14.46-11.68-1.08-1.21-1.77-1.95-2.53-2.06a1.34,1.34,0,0,0-.2-.01c-1.83,3.49-3.79-.15.05-.76v.01c1.27-.81,2.21-1.293,2.72.987C63.669,5.982,71.342,8.913,80.947,12.79Z" fill="#cccccb"/>
                  <path d="M107.668,10.005c.635-1.272,12.916,3.089,13.44,3.845,1.512,2.18,10.6-6.171,9.616-7.295.736,3.3.738,6.093-2.132,6.916q-2.037,10.608-14.3,9.661Z" fill="#cccccb"/>
                </g>
                <polygon points="127.19 47.296 117.085 76.159 114.306 76.096 114.306 47.296 127.19 47.296" fill="#fff"/>
                <polygon points="123.801 48.027 116.301 76.159 114.239 76.098 114.239 48.027 123.801 48.027" fill="#666766" opacity="0.14" style="mix-blend-mode: multiply"/>
                <polygon points="83.847 47.296 93.952 76.159 96.731 76.096 96.731 47.296 83.847 47.296" fill="#fff"/>
                <polygon points="85.978 47.296 93.704 76.159 95.829 76.096 95.829 47.296 85.978 47.296" fill="#666766" opacity="0.14" style="mix-blend-mode: multiply"/>
                <path d="M114.306,67.32c.7-.427,5.9-4.852,6.735-5.592.928-.826,1.964-6.03,1.806-6.052.959.122,1.595.655,0,4.025l-2.668,7.619C118.519,71.2,114.634,70.439,114.306,67.32Z" fill="#666766"/>
                <path d="M117.175,62.627c2.936,15.158-15.916,19.042-23.874,8.432Z" fill="#f69799"/>
                <polygon points="115.316 50.833 105.211 79.696 102.432 79.633 102.432 50.833 115.316 50.833" fill="#fff"/>
                <polygon points="73.042 50.833 83.148 79.696 85.927 79.633 85.927 50.833 73.042 50.833" fill="#fff"/>
                <polygon points="74.767 50.833 82.853 79.696 85.076 79.633 85.076 50.833 74.767 50.833" fill="#666766" opacity="0.14" style="mix-blend-mode: multiply"/>
                <polygon points="111.86 51.564 104.361 79.696 102.298 79.635 102.298 51.564 111.86 51.564" fill="#666766" opacity="0.14" style="mix-blend-mode: multiply"/>
              </g>
              <path d="M127.587,44.18A26.77,26.77,0,0,1,108.5,69.84a26.581,26.581,0,0,1-10.16,3.23,24.846,24.846,0,0,1-2.87.16,26.777,26.777,0,0,1-7.58-52.46,26.453,26.453,0,0,1,12.97-3.37A26.757,26.757,0,0,1,127.587,44.18Z" fill="#fff" stroke="#999" stroke-miterlimit="10" stroke-width="0.25"/>
              <path d="M96.731,17.72c-45.045,9.866-31.348,64.7,7.587,53.492,14.271-4.11,13.339-9.13,1.076-8.652C88.913,63.2,90.258,38.374,96.731,17.72Z" fill="#666766" opacity="0.14" style="mix-blend-mode: multiply"/>
              <ellipse cx="112.31" cy="48.425" rx="8.184" ry="6.952" fill="#666766"/>
              <path d="M100.905,67.506a8.351,8.351,0,0,1-2.059,5.552,28.66,28.66,0,0,1-3.193.172,30.834,30.834,0,0,1-9.136-1.377,8.526,8.526,0,0,1-1.18-4.347,7.794,7.794,0,1,1,15.568,0Z" fill="#666766"/>
              <path d="M88.264,57.084h14.274a0,0,0,0,1,0,0v0a3.094,3.094,0,0,1-3.094,3.094H91.282a3.018,3.018,0,0,1-3.018-3.018v-.076A0,0,0,0,1,88.264,57.084Z" transform="translate(2.471 -3.843) rotate(2.338)" fill="#cccccb" stroke="#999" stroke-miterlimit="10" stroke-width="0.25"/>
              <ellipse cx="75.05" cy="52.311" rx="5.242" ry="6.997" fill="#666766"/>
              <g>
                <path d="M105.779,7.317,83.927,7.065c-6.663,12.476-12.191,24.7-15.79,36.505l19.7,14.779,13.39.505,16.3-11.621A58.988,58.988,0,0,0,105.779,7.317Z" fill="#fff"/>
                <path d="M105.774,7.329,83.926,7.145,84,7.1c-3.1,5.87-6.047,11.82-8.752,17.88a168.282,168.282,0,0,0-7.064,18.6l-.017-.049L87.9,58.279l-.049-.017,13.39.479-.07.021,16.29-11.627-.05.091a62.541,62.541,0,0,0-2.209-21A59.942,59.942,0,0,0,105.774,7.329Zm.011-.023a59.972,59.972,0,0,1,9.578,18.875,60.574,60.574,0,0,1,2.285,21.059l0,.058-.047.034L101.3,58.947l-.032.022h-.038l-13.389-.532h-.027l-.022-.016L68.11,43.606l-.025-.019.009-.03a167.511,167.511,0,0,1,6.983-18.649c2.658-6.089,5.628-12.036,8.779-17.881l.023-.043h.049Z" fill="#999"/>
              </g>
              <path d="M126.218,11.952c3.771.437,4.815-.815,3.613-3.457Z" fill="#666766"/>
              <path d="M110.642,10.108a60.135,60.135,0,0,1,9.829,3.34c-.234,4.332-2.4,6.864-7.258,6.883.929,3-4.3,4.7-6.344,3.608C97.008,18.658,97.72,7.4,110.642,10.108Z" fill="#666766"/>
              <path d="M96.672,58.764c-1.447.514-1.369,1.037,0,1.568-4.668.266-7.729-.122-7.859-1.7Z" fill="#666766" opacity="0.14" style="mix-blend-mode: multiply"/>
              <path d="M94.611,7.188c-8.957,18.861-13.664,45.123,6.621,51.666l-13.39-.505L68.137,43.57A207.646,207.646,0,0,1,83.927,7.065Z" fill="#666766" opacity="0.14" style="mix-blend-mode: multiply"/>
            </g>
            <g>
              <path d="M96.672,76.175l-.209,2.539a.324.324,0,0,1-.319.3l-8.013.076C84.633,76.15,90.856,73.29,96.672,76.175Z" fill="#333"/>
              <path d="M102.432,79.725v2.547a.323.323,0,0,0,.294.322l7.98.731C114.432,80.684,108.464,77.325,102.432,79.725Z" fill="#333"/>
              <path d="M114.306,76.1v2.547a.323.323,0,0,0,.294.322l7.979.731C126.306,77.056,120.337,73.7,114.306,76.1Z" fill="#333"/>
              <path d="M85.614,78.817l-.208,2.538a.322.322,0,0,1-.319.3l-8.013.077C73.576,78.792,79.8,75.932,85.614,78.817Z" fill="#333"/>
              <path d="M111.037,83.1q1.464-1.826-.539-2.733A2.1,2.1,0,0,1,111.037,83.1Z" fill="#fff"/>
              <path d="M76.916,81.437q-1.464-1.825.539-2.733A2.1,2.1,0,0,0,76.916,81.437Z" fill="#fff"/>
              <path d="M87.953,78.852q-1.464-1.827.539-2.733A2.1,2.1,0,0,0,87.953,78.852Z" fill="#fff"/>
              <path d="M122.879,79.353q1.465-1.825-.539-2.733A2.1,2.1,0,0,1,122.879,79.353Z" fill="#fff"/>
            </g>
          </g>
          <circle cx="81.274" cy="26.942" r="3.382" fill="#666766"/>
          <g>
            <path d="M96.208,54.634c.713.541-6.135,3.505-6.947,2.653a14.623,14.623,0,0,1-.948-1.31c-5.857-3.263-11.6-6.524-14.322-9.735a12.113,12.113,0,0,0-4.751-3.229c.165-.789.488-1.378,1.263-1.39,4.358-21.031,44.4-19.579,47.558,0l-1.769,3.411.442.28-.5,1.046.5.253c-3.8,4.4-8.95,7.854-14.968,10.706C99.252,56.875,97.243,56.087,96.208,54.634Z" fill="#f69799"/>
            <path d="M96.169,53.778c.712.518-6.126,3.357-6.937,2.541a14.1,14.1,0,0,1-.946-1.255c-5.849-3.126-11.587-6.25-14.3-9.326a12.11,12.11,0,0,0-4.744-3.094c.165-.756.487-1.32,1.261-1.331,4.352-20.149,44.336-18.758,47.489,0l-1.765,3.267.441.268-.5,1,.5.242c-3.8,4.211-8.937,7.525-14.947,10.257C99.209,55.925,97.2,55.17,96.169,53.778Z" fill="#f69799"/>
            <path d="M69.24,42.644c4.682-10.1,11.346-15.423,20.137-15.614-3.813,7.469-2.264,14.6,6.888,21.257-1.708.8,4.545,7.738,5.454,8.063.823.3-5.679-1.058-5.55-2.572l-.238.445a12.26,12.26,0,0,1-6.7,2.1l-.946-1.255C82.271,52,76.574,48.784,72.874,44.678L69.24,42.644,70.5,41.623" fill="#666766" opacity="0.14" style="mix-blend-mode: multiply"/>
          </g>
          <g>
            <path d="M77.784,41.908a9.952,9.952,0,0,1-2.331-.157A3.635,3.635,0,0,1,73.4,40.7a2.415,2.415,0,0,1-.463-2.219A4.409,4.409,0,0,1,74.1,36.455a4.039,4.039,0,0,1,2-1.221,2.689,2.689,0,0,1,2.294.481,4.669,4.669,0,0,1,1.373,1.939,10.491,10.491,0,0,1,.657,2.27.125.125,0,0,1-.244.052l0-.007a12.313,12.313,0,0,0-.649-2.213,4.445,4.445,0,0,0-1.284-1.851,2.489,2.489,0,0,0-2.112-.517A3.936,3.936,0,0,0,74.145,36.5,4.351,4.351,0,0,0,73,38.489a2.367,2.367,0,0,0,.441,2.178,3.6,3.6,0,0,0,2.022,1.058,9.891,9.891,0,0,0,2.325.174l0,0Z" fill="#231f20"/>
            <path d="M77.516,41.642A5.221,5.221,0,0,1,75.97,41.6a2.2,2.2,0,0,1-1.4-.847,2.121,2.121,0,0,1-.217-1.66A5.7,5.7,0,0,1,75,37.56a3.532,3.532,0,0,1,1.363-1.435,2.26,2.26,0,0,1,1.321-.214,2.566,2.566,0,0,1,1.225.574,4.25,4.25,0,0,1,1.209,1.764,4.642,4.642,0,0,1,.324,1.756,1.455,1.455,0,0,1-2.807.517l-.023-.059c-.327-.829-.526-1.658-.68-2.031-.076-.152.083-.368-.194-.543a1.065,1.065,0,0,0-1.129.191A2.008,2.008,0,0,0,75,40.493a2.823,2.823,0,0,0,2.51,1.049.049.049,0,0,1,.051.049A.052.052,0,0,1,77.516,41.642Z" fill="#231f20"/>
          </g>
          <circle cx="89.077" cy="13.966" r="1.928" fill="#666766"/>
          <g>
            <g>
              <ellipse cx="101.326" cy="19.133" rx="7.256" ry="6.82" transform="translate(78.396 119.667) rotate(-87.845)" fill="#f69799"/>
              <path d="M103.056,12.068a7.093,7.093,0,0,1,4.246,3.375,7.734,7.734,0,0,1,.824,5.44,7.513,7.513,0,0,1-3.1,4.611,6.745,6.745,0,0,1-5.5.957,7.166,7.166,0,0,1-4.434-3.489,7.781,7.781,0,0,1-.75-5.622,7.348,7.348,0,0,1,3.3-4.533A6.811,6.811,0,0,1,103.056,12.068Zm-.02.072a6.313,6.313,0,0,0-2.714-.083,6.4,6.4,0,0,0-2.456,1.085,7.278,7.278,0,0,0-2.793,4.368,7.434,7.434,0,0,0,.671,5.1,6.493,6.493,0,0,0,3.94,3.265,6.194,6.194,0,0,0,5.077-.785,7.087,7.087,0,0,0,3-4.288,7.464,7.464,0,0,0-.6-5.28A6.579,6.579,0,0,0,103.036,12.14Z"/>
            </g>
            <g>
              <ellipse cx="100.905" cy="19.425" rx="6.294" ry="6.639" fill="#cccccb"/>
              <path d="M101,12.775a6.155,6.155,0,0,1,4.5,2.071,6.917,6.917,0,0,1-.085,9.331,6.166,6.166,0,0,1-9.164-.108,6.9,6.9,0,0,1,.168-9.385A6.156,6.156,0,0,1,101,12.775Zm0,.025a6.075,6.075,0,0,0-4.487,1.976,6.88,6.88,0,0,0-.08,9.128,5.951,5.951,0,0,0,8.861.161,6.858,6.858,0,0,0,.164-9.183A6.111,6.111,0,0,0,101,12.8Z"/>
            </g>
            <ellipse cx="101.009" cy="20.359" rx="2.85" ry="2.242" transform="translate(61.249 115.419) rotate(-78.698)"/>
            <path d="M99.886,12.88c-.34,5.7,1.211,9.695,5.313,11.392C97.122,31.906,88.908,16.253,99.886,12.88Z" fill="#666766" opacity="0.14" style="mix-blend-mode: multiply"/>
            <path d="M86.764,15.522c-.269,4.378.959,7.447,4.209,8.751C83.914,30.679,78.533,16.552,86.764,15.522Z" fill="#666766" opacity="0.14" style="mix-blend-mode: multiply"/>
          </g>
          <g>
            <g opacity="0.97">
              <ellipse cx="87.05" cy="20.331" rx="4.597" ry="5.742" transform="translate(-2.316 22.532) rotate(-14.557)" fill="#f69799"/>
              <path d="M85.258,14.843a4.342,4.342,0,0,1,3.908.642,6.592,6.592,0,0,1,2.413,3.3,6.948,6.948,0,0,1,.092,4.137,4.733,4.733,0,0,1-2.738,3.147,4.485,4.485,0,0,1-4.17-.652,6.567,6.567,0,0,1-2.42-3.477,6.634,6.634,0,0,1,.128-4.181A4.773,4.773,0,0,1,85.258,14.843Zm.025.071a4.165,4.165,0,0,0-2.429,2.963,6.873,6.873,0,0,0,.2,3.836,6.379,6.379,0,0,0,2.141,3.1,3.811,3.811,0,0,0,3.528.689,4.19,4.19,0,0,0,2.479-2.73,6.509,6.509,0,0,0,.015-3.878,6.318,6.318,0,0,0-2.148-3.281A3.961,3.961,0,0,0,85.283,14.914Z"/>
            </g>
            <g>
              <ellipse cx="86.932" cy="20.706" rx="4.245" ry="5.251" transform="translate(-2.002 11.951) rotate(-7.775)" fill="#cccccb"/>
              <path d="M84.936,15.933a3.6,3.6,0,0,1,3.587.009,5.289,5.289,0,0,1,2.344,2.849A6.412,6.412,0,0,1,91.1,22.51a4.781,4.781,0,0,1-2.123,3.044,3.7,3.7,0,0,1-3.679,0,5.373,5.373,0,0,1-2.355-2.913,6.438,6.438,0,0,1-.156-3.737A4.728,4.728,0,0,1,84.936,15.933Zm.012.022a4.646,4.646,0,0,0-2.035,2.982,6.242,6.242,0,0,0,.261,3.619,5.128,5.128,0,0,0,2.241,2.782,3.469,3.469,0,0,0,3.458.043,4.6,4.6,0,0,0,2.065-2.91,6.261,6.261,0,0,0-.189-3.637A5.2,5.2,0,0,0,88.5,15.988,3.563,3.563,0,0,0,84.948,15.955Z"/>
            </g>
            <ellipse cx="87.149" cy="21.977" rx="1.899" ry="2.86" transform="translate(-2.651 25.694) rotate(-16.524)"/>
          </g>
          <path d="M109.913,3.223c-1.91.742-3.925,1.418-3.979,3.332L104.356,5.5a60.975,60.975,0,0,0-16.295.253c-1.049-1.559-1.546-2.811-.828-3.387-.787-.563-.934.352-.3,3.071-1.23-1.52-3.269-2.211-5.985-2.211,1.552.694,2.378,1.737,2.061,3.332-1.233-.359-1.575.773-2.061,1.663,1.515-.723,2.962.535,4.39,2.332a8.441,8.441,0,0,0,5.755,0c-.373.4-.931.418.526.947,1.135.412,4.99.083,4.777-.5,0,0-.007.571,0,.5.066-.682,3.1-1.064,3.1-.442,1.794.283,2.53-.427,2.663-1.7.451-.516,2.869,1.885,3.337,1.452.268-.247,2.445.341,2.176.7-.479-.749-.72-1.413-.091-1.768l1.281.07c-.6-.205-.166-1.24.487-1.081.184.045,1.011.442,1.011.442l1.227-1.2a3.514,3.514,0,0,1-2.68,0C108.134,6.291,108.609,4.723,109.913,3.223Z" fill="#333"/>
          <g>
            <path d="M109.814,42.466a9.9,9.9,0,0,0,2.325-.174,3.594,3.594,0,0,0,2.021-1.058,2.368,2.368,0,0,0,.442-2.178,4.353,4.353,0,0,0-1.15-1.986,3.933,3.933,0,0,0-1.978-1.115,2.492,2.492,0,0,0-2.113.517,4.443,4.443,0,0,0-1.283,1.851,12.316,12.316,0,0,0-.65,2.213v.007a.125.125,0,0,1-.245-.053,10.5,10.5,0,0,1,.657-2.269,4.669,4.669,0,0,1,1.373-1.939,2.691,2.691,0,0,1,2.3-.481,4.036,4.036,0,0,1,1.995,1.221,4.4,4.4,0,0,1,1.155,2.021,2.421,2.421,0,0,1-.463,2.219,3.638,3.638,0,0,1-2.05,1.056,9.943,9.943,0,0,1-2.33.157l0-.005Z" fill="#231f20"/>
            <path d="M110.086,42.109a2.823,2.823,0,0,0,2.51-1.049,2.006,2.006,0,0,0-.609-2.413,1.067,1.067,0,0,0-1.13-.191c-.276.175-.118.39-.193.543-.155.373-.353,1.2-.681,2.03l-.023.059a1.455,1.455,0,0,1-2.807-.516,4.662,4.662,0,0,1,.324-1.756,4.269,4.269,0,0,1,1.209-1.765,2.578,2.578,0,0,1,1.226-.573,2.255,2.255,0,0,1,1.321.214,3.522,3.522,0,0,1,1.362,1.435,5.676,5.676,0,0,1,.646,1.532,2.129,2.129,0,0,1-.217,1.66,2.213,2.213,0,0,1-1.4.847,5.221,5.221,0,0,1-1.546.043.05.05,0,0,1-.047-.054A.052.052,0,0,1,110.086,42.109Z" fill="#231f20"/>
          </g>
          <path d="M125.474,33.727c-3.843,6.6-3.633,11.755,1.716,15.077A26.933,26.933,0,0,0,125.474,33.727Z" fill="#666766"/>
          <path d="M108.5,69.84a34.489,34.489,0,0,1-1.562,4.93c-.91,2.091-4.348,2.111-4.5.206.44.021.137-2.821-.134-2.634C101.781,72.7,108.423,70.178,108.5,69.84Z" fill="#666766"/>
          <path d="M71.531,9.293c-6.744,1.749-1.445,16.05,4.429,13.917,1.064-.387,4.987-10.42,4.987-10.42Z" fill="#666766"/>
          <path d="M56.418,10.549c1.407-.4,3.017-.317,2.823,0l1.906-.032c-.168-1.253-.574-2.181-2.364-1.224A4.273,4.273,0,0,0,56.418,10.549Z" fill="#666766"/>
          <ellipse cx="64.282" cy="12.792" rx="1.295" ry="1.484" fill="#666766"/>
          <ellipse cx="118.458" cy="31.802" rx="0.944" ry="1.479" fill="#666766"/>
          <path d="M115.663,66.269c-3.3-3.6-5.272-1.953-6.337,3.222A17.343,17.343,0,0,0,115.663,66.269Z" fill="#666766"/>
          <g opacity="0.97">
            <path d="M92.9,26.39c.092-.3.345-3.18.345-3.18l.82,3.181Z"/>
            <path d="M92.865,26.412l.043-.825.022-.8.05-1.6.045-1.454.468,1.412.517,1.562a8.19,8.19,0,0,1,.347,1.607l.055.424L94.06,26.7A6.341,6.341,0,0,1,92.865,26.412Zm.06-.045c.5-.089.834-.228,1.136-.283l-.3.383a8.167,8.167,0,0,1-.473-1.574l-.3-1.618.513-.042c-.081.529-.152,1.058-.249,1.586l-.145.79A4.532,4.532,0,0,1,92.925,26.367Z" fill="#cccccb"/>
          </g>
          <path d="M115.039,25.385c-6.165.679-3.907,9.852,1.844,7.9A57.106,57.106,0,0,0,115.039,25.385Z" fill="#666766"/>
          <path d="M141.231,5.164a21.153,21.153,0,0,0-2.7,4.283,7.474,7.474,0,0,0-.341,4.918l.4,1.208a6.275,6.275,0,0,1,.332,1.236,6.494,6.494,0,0,1-.109,2.553,6.242,6.242,0,0,1-2.975,4l-.061-.1,4.358-3.017.035-.024.1.03a.156.156,0,0,1,.024.213.215.215,0,0,1-.115.073.2.2,0,0,1-.246-.13.4.4,0,0,1,.126-.348,2.786,2.786,0,0,0,.309-.432,4.339,4.339,0,0,0,.407-.993,6.275,6.275,0,0,0,.265-2.14c-.133-1.451-1.074-2.66-1.709-4a5.427,5.427,0,0,1-.55-2.172,3.029,3.029,0,0,1,.8-2.072c.987-1.1,2.031-2.141,3.055-3.2l.017.018c-.973,1.1-1.987,2.178-2.948,3.284a2.836,2.836,0,0,0-.715,1.968,5.324,5.324,0,0,0,.569,2.07c.609,1.3,1.576,2.536,1.719,4.081a6.476,6.476,0,0,1-.28,2.223,4.547,4.547,0,0,1-.432,1.045,2.982,2.982,0,0,1-.334.464c-.059.062-.09.134-.081.141s-.054-.033-.028-.023c0,0,.011-.007,0,0-.025.006,0,.1.009.091l.131.007-4.414,2.934-.061-.1a5.811,5.811,0,0,0,2.921-3.924,6.4,6.4,0,0,0,.062-2.5,6.21,6.21,0,0,0-.348-1.212L138,14.42a7.25,7.25,0,0,1,.381-5.038,18.313,18.313,0,0,1,2.829-4.234Z" fill="#999"/>
          <path d="M135.425,23.307c.524-1.562,1.71-2.833,1.96-4.432a3.1,3.1,0,0,0-.014-1.184c-.084-.392-.251-.768-.376-1.159a9.4,9.4,0,0,1-.365-2.429,8.764,8.764,0,0,1,.77-4.831A14.888,14.888,0,0,1,140.537,5.5l.018.018a19.142,19.142,0,0,0-2.926,3.874,9.6,9.6,0,0,0-.862,4.71,7.8,7.8,0,0,0,.31,2.406c.127.384.314.75.429,1.152a3.182,3.182,0,0,1,.084,1.248c-.242,1.708-1.479,2.939-2.141,4.411Z" fill="#999"/>
          <path d="M143.337,5.378a8.2,8.2,0,0,1-.636.951,9.707,9.707,0,0,1-.756.855c-.5.572-.871,1.25-1.354,1.837l.026-.058a13.086,13.086,0,0,1-.376,1.808h0v.01h-.025l0-.01v0a13.242,13.242,0,0,1,.144-1.852l0-.029.023-.029c.463-.6,1.042-1.115,1.486-1.733a9.551,9.551,0,0,1,.663-.93,8.322,8.322,0,0,1,.784-.833Z" fill="#999"/>
          <path d="M140.22,11.21a13.582,13.582,0,0,0,.6,2.876c.237.96.525,1.911.668,2.9a4.745,4.745,0,0,1-.555,2.927,6.585,6.585,0,0,1-2.012,2.2l-.009,0,0,0H138.9a.023.023,0,0,1,.022-.024l-.008,0a9.48,9.48,0,0,0,1.8-2.3A5.372,5.372,0,0,0,141.357,17a9.269,9.269,0,0,0-.731-2.851,7.07,7.07,0,0,1-.431-2.937Z" fill="#999"/>
          <path d="M137.527,9.127a15.2,15.2,0,0,0-1.5,3.171,10.128,10.128,0,0,0-.672,3.443,9.864,9.864,0,0,0,.1,1.746,13.34,13.34,0,0,0,.456,1.712,7.389,7.389,0,0,1-.357,1.77q-.231.855-.489,1.7l-.024-.006q.145-.875.322-1.742a10.3,10.3,0,0,0,.292-1.7,8.661,8.661,0,0,1-.433-1.708,8.6,8.6,0,0,1-.008-1.786,21.812,21.812,0,0,1,.612-3.5,8.807,8.807,0,0,1,1.677-3.122Z" fill="#999"/>
          <path d="M134.475,21.5a10.3,10.3,0,0,1-.3-2.737c.054-.922.166-1.83.251-2.745a12.617,12.617,0,0,1,1.717-5.206l.022.011a30.511,30.511,0,0,0-1.6,5.216,10.082,10.082,0,0,0-.179,2.724c.017.91.058,1.816.114,2.733Z" fill="#999"/>
          <path d="M133.125,19a5.882,5.882,0,0,1-.027-1.806c.11-.595.244-1.179.312-1.779a8.815,8.815,0,0,1,1.176-3.4l.023.01c-.354,1.153-.732,2.268-1.065,3.418a6.1,6.1,0,0,0-.24,1.772c-.04.595-.093,1.182-.154,1.784Z" fill="#999"/>
          <path d="M133.479,12.883a5.188,5.188,0,0,1-.242,1.241,4.163,4.163,0,0,0-.351,1.208c-.037.42-.114.828-.146,1.237l-.089,1.249v.012h-.025l0-.01h0a3.654,3.654,0,0,1-.14-1.27,5.139,5.139,0,0,1,.27-1.248,6.045,6.045,0,0,0,.284-1.233,5.212,5.212,0,0,1,.418-1.194Z" fill="#999"/>
          <path d="M79.029,67.592c2.3,5.807,4.641,6.328,7,3.928A23.72,23.72,0,0,1,79.029,67.592Z" fill="#666766"/>
        </g>
        <path d="M98.075,3.5A9,9,0,0,1,102.1,5.441" fill="#666766"/>
        <path d="M98.337,7.525c-.116-1.207,3.258-1.264,3.5-.379" fill="#666766"/>
        <path d="M96.923,8.517a3.993,3.993,0,0,0,.734.189,3.553,3.553,0,0,1,.72.223,3.3,3.3,0,0,0,.721.358.686.686,0,0,0,.682-.212l.007-.01.17-.018c.3-.032.59-.077.862-.078l.788-.053c.253,0,.5-.011.765-.022a8.957,8.957,0,0,1,.908-.033l.045.089a2.251,2.251,0,0,1-.687.7,2.293,2.293,0,0,1-.949.337,3.024,3.024,0,0,1-.964-.091,3.1,3.1,0,0,1-.872-.355l.176-.028a8.076,8.076,0,0,1-.936.121,4.155,4.155,0,0,1-.93.118,1.755,1.755,0,0,1-.845-.355,1.555,1.555,0,0,1-.346-.346.623.623,0,0,1-.149-.526Z" fill="#666766"/>
        <path d="M92.961,6.139a1.559,1.559,0,0,1,.823-.436,8.734,8.734,0,0,1,.895-.2,12.083,12.083,0,0,1,1.808-.167l1.812.051c.6,0,1.2-.04,1.806-.083a27.344,27.344,0,0,1,3.621-.049c.6.04,1.206.113,1.806.212a8.759,8.759,0,0,1,.9.2,3.13,3.13,0,0,1,.438.155c.128.077.32.119.353.324h-.05c-.153-.2-.517-.188-.791-.231-.293-.037-.593-.042-.889-.064l-1.79-.067c-1.194-.065-2.392-.118-3.592-.21a14.85,14.85,0,0,0-1.8-.029c-.6.035-1.2.133-1.793.2s-1.192.1-1.786.137c-.3.021-.595.035-.889.071a2.009,2.009,0,0,0-.832.2Z" fill="#666766"/>
        <path d="M97.683,10.258A3.849,3.849,0,0,0,99,10.051c.447-.11.892-.231,1.334-.36l1.279-.4a1.175,1.175,0,0,0,.884-.793h.05a.873.873,0,0,1-.139.746,1.673,1.673,0,0,1-.6.492,4.306,4.306,0,0,1-1.384.358c-.459.076-.918.15-1.379.21-.232.027-.464.049-.7.062-.233-.012-.471.077-.709-.088Z" fill="#666766"/>
        <path d="M101.154,4.115a5.607,5.607,0,0,0-1.32,1.036,2,2,0,0,0-.562,1.415l-.5-.022a2.39,2.39,0,0,1,.887-1.572A5.733,5.733,0,0,1,101.154,4.115Z" fill="#666766"/>
        <path d="M98.63,7.976a7,7,0,0,1,1.1.5c.346.2.71.378,1.039.615l-.058-.033a2.673,2.673,0,0,1,.857.614l-.019.047a2.655,2.655,0,0,1-1.038-.186l-.029-.01-.029-.023c-.3-.243-.582-.529-.894-.767s-.612-.5-.948-.709Z" fill="#666766"/>
        <path d="M101.889,8.021c-.612-.246-1.217-.507-1.816-.777l.1.024a4.769,4.769,0,0,1-.947.044,3.426,3.426,0,0,1-.947-.222V7.04a3.393,3.393,0,0,1,.947-.223,4.845,4.845,0,0,1,.947.044l.068.006.029.019c.555.352,1.1.714,1.647,1.091Z" fill="#666766"/>
        <ellipse cx="100.088" cy="81.009" rx="36.679" ry="2.637" fill="#666766" opacity="0.41" style="mix-blend-mode: multiply"/>
      </g>
    </g>
  </g>
</svg>
