<svg xmlns="http://www.w3.org/2000/svg" width="112.892" height="112.892" viewBox="0 0 112.892 112.892">
  <title>Asset 14Lsheep</title>
  <g style="isolation: isolate">
    <g>
      <rect x="0.125" y="0.125" width="112.642" height="112.642" rx="8.069" fill="#e2e3e8" stroke="#f9fcff" stroke-miterlimit="10" stroke-width="0.25"/>
      <g>
        <g>
          <g>
            <g>
              <path d="M82.111,59.143l-.24.69-.4,1.13-.16.48-.42,1.19-.22.64-.06.17-.7,1.99-.33.93-.13.39-.27.77-.17.48-.58,1.67-.45,1.26-.33.96-.31.88-.51,1.45-.09.28-.15.42-.13.38-.44,1.25-.36,1.01-.01.04-.08.24-.08.23-.63,1.8-2.18,6.21L72.011,88l-1.13-.02-1.65-.04v-28.8h12.88Z"/>
              <polygon points="70.241 62.673 70.071 63.163 69.771 64.033 69.241 65.533 69.231 65.553 67.791 69.663 67.511 70.483 67.471 70.593 66.671 72.873 66.361 73.753 66.041 74.673 65.791 75.383 64.961 77.753 64.901 77.923 64.441 79.233 64.101 80.203 63.851 80.913 63.601 81.623 63.301 82.503 62.761 84.033 62.751 84.053 61.891 86.513 60.791 89.653 60.131 91.543 57.361 91.473 57.361 62.673 70.241 62.673"/>
              <path d="M40.851,62.673v28.8h-.13l-2.65.07-.97-2.77-.85-2.43-.44-1.26-.51-1.46-.32-.91-.1-.28-.68-1.94-.13-.39-.2-.56-.08-.24-.68-1.95-.08-.21-.19-.55-.01-.02-.6-1.73-.46-1.31-.52-1.48-.03-.08-.4-1.15-.05-.15-.35-1.01-.37-1.05-.65-1.84-.83-2.4-.34-.95-.03-.11c0-.01-.01,0-.01,0l-.11-.33-.11-.31Z"/>
              <polygon points="51.651 59.143 51.651 87.943 48.881 88.003 48.181 86.013 47.811 84.943 47.721 84.683 45.601 78.643 45.401 78.053 44.841 76.473 43.751 73.353 42.871 70.833 42.751 70.503 42.401 69.513 42.281 69.153 40.861 65.113 40.851 65.083 40.591 64.343 40.511 64.113 40.011 62.673 39.941 62.473 39.591 61.493 39.031 59.893 38.771 59.143 51.651 59.143"/>
            </g>
            <path d="M82.511,56.023c0,.65-.02,1.29-.07,1.92a2.275,2.275,0,0,1-.02.26,1.635,1.635,0,0,1-.02.22c-.01.14-.02.27-.04.41-.03.38-.08.75-.14,1.13-.04.29-.09.59-.15.88-.09.57-.21,1.13-.35,1.68-.08.3-.16.6-.25.9s-.17.59-.27.88a23.586,23.586,0,0,1-.95,2.51c-.02.06-.05.11-.07.16-.13.28-.25.56-.39.83h-.01a20.281,20.281,0,0,1-1.11,2.05q-.33.555-.69,1.08c-.18.29-.38.57-.58.84q-.225.315-.45.6c-.39.51-.8,1-1.22,1.47a.01.01,0,0,0-.01.01c-.09.11-.19.21-.29.31-.26.29-.54.58-.82.85a6.251,6.251,0,0,1-.45.44c-.4.39-.82.76-1.25,1.11a.406.406,0,0,1-.1.09,27.051,27.051,0,0,1-3.58,2.51,26.139,26.139,0,0,1-3.18,1.58c-.14.06-.29.12-.44.17a5.03,5.03,0,0,1-.54.21c-.14.06-.28.11-.42.16-.35.12-.7.24-1.05.34l-.18.06c-.32.18-.64.35-.97.51-.43.22-.87.43-1.31.62-.21.1-.42.19-.64.27-.04.02-.08.04-.13.06-.47.19-.96.37-1.45.54a1.424,1.424,0,0,0-.16.05c-.12.04-.25.08-.38.12h-.01c-.16.05-.33.1-.5.15l-.51.15c-.09.02-.18.05-.27.07q-1.02.27-2.07.45c-.06.01-.12.02-.17.03-.56.09-1.11.17-1.68.22-.37.05-.75.08-1.13.1-.1.01-.2.01-.3.01a.277.277,0,0,1-.09.01c-.41.02-.84.03-1.26.03-.49,0-.98-.01-1.47-.04-.12-.01-.25-.01-.37-.03-.25-.01-.5-.03-.74-.06-.56-.05-1.12-.12-1.67-.21-.25-.03-.49-.08-.73-.13a.127.127,0,0,1-.06-.01c-.47-.08-.94-.18-1.4-.3a3.383,3.383,0,0,0-.34-.08c-.19-.05-.38-.11-.57-.16-.42-.12-.85-.25-1.26-.4-.31-.1-.62-.21-.93-.34-.42-.15-.84-.32-1.25-.51a.037.037,0,0,1-.03-.01,1.009,1.009,0,0,1-.15-.07c-.44-.19-.86-.39-1.28-.61a25.94,25.94,0,0,1-3.03-1.83q-.36-.24-.72-.51c-.17-.12-.33-.25-.5-.38-.03-.03-.07-.06-.1-.09-.46-.36-.91-.74-1.35-1.13-.13-.12-.26-.24-.39-.37-.21-.19-.41-.39-.62-.59q-.4-.405-.81-.84c-.41-.46-.81-.93-1.19-1.42-.16-.19-.31-.39-.46-.59-.26-.34-.52-.7-.76-1.06-.41-.6-.8-1.23-1.15-1.87-.22-.38-.43-.76-.62-1.15a1.627,1.627,0,0,1-.11-.23c-.32-.65-.62-1.32-.88-2-.13-.32-.25-.65-.36-.98-.14-.39-.27-.79-.38-1.19-.22-.73-.41-1.48-.57-2.24-.05-.28-.1-.56-.15-.85-.07-.4-.13-.8-.17-1.21a.113.113,0,0,1-.01-.08c-.07-.47-.11-.94-.14-1.42v-.05c-.02-.3-.04-.6-.04-.9-.01-.12-.01-.25-.01-.37-.01-.16-.01-.31-.01-.47,0-.92.05-1.84.14-2.74a.037.037,0,0,1,.01-.03.045.045,0,0,1,0-.05c.06-.59.14-1.19.24-1.77l.03-.15c.05-.29.1-.57.16-.85a.292.292,0,0,0,.02-.09l.15-.63c.07-.3.15-.6.24-.89a12.913,12.913,0,0,1,.38-1.25.636.636,0,0,1,.06-.18,7.81,7.81,0,0,1,.29-.81,3.189,3.189,0,0,1,.19-.48c0-.01.01-.02.01-.03a3.762,3.762,0,0,1,.23-.55,1.476,1.476,0,0,1,.12-.29c.01-.01.01-.02.02-.03a5.646,5.646,0,0,1,.28-.62c.13-.3.28-.6.44-.89a.914.914,0,0,1,.07-.14,27.169,27.169,0,0,1,1.59-2.64c.26-.38.52-.74.8-1.1.05-.07.11-.14.17-.21a1.059,1.059,0,0,1,.1-.12c.33-.44.68-.86,1.05-1.27.26-.3.53-.58.8-.86s.53-.54.81-.8c.26-.25.53-.49.8-.73a.763.763,0,0,1,.11-.08,2.094,2.094,0,0,1,.28-.24,7.142,7.142,0,0,1,.62-.5c.28-.24.57-.45.87-.66a10.608,10.608,0,0,1,.88-.61,3.506,3.506,0,0,1,.4-.27v-.01c.54-.34,1.1-.67,1.67-.97.2-.12.4-.22.6-.32h.01c.52-.27,1.04-.52,1.58-.74a.424.424,0,0,1,.14-.06c.51-.22,1.02-.42,1.55-.6q.63-.225,1.29-.42a.212.212,0,0,1,.07-.03v-.01c.13-.07.26-.14.39-.2.31-.18.63-.34.96-.49.22-.11.45-.22.68-.32.13-.06.26-.12.4-.18.45-.19.91-.38,1.37-.54h.01c.01,0,.02-.01.03-.01a.035.035,0,0,1,.02-.01c.34-.13.69-.25,1.04-.35.27-.09.55-.18.83-.25.39-.11.78-.21,1.18-.3a1.163,1.163,0,0,1,.18-.04,1.419,1.419,0,0,1,.22-.05c.27-.06.55-.12.83-.16a.188.188,0,0,1,.08-.02,2,2,0,0,1,.24-.04,27.1,27.1,0,0,1,3.51-.36h.18c.19-.01.39-.01.58-.01h.17c.37,0,.73.01,1.1.02.51.02,1.02.06,1.52.11.38.03.76.08,1.14.14a.308.308,0,0,1,.1.01c.15.02.29.04.43.07.35.05.69.11,1.03.18.05.01.11.02.17.03.2.05.39.09.59.14a21.555,21.555,0,0,1,2.09.58q.525.165,1.05.36c.27.1.53.2.79.31.11.04.21.08.31.12.71.3,1.41.63,2.08.99.24.12.48.25.71.38a3.791,3.791,0,0,1,.34.2,1.178,1.178,0,0,1,.19.11,21.181,21.181,0,0,1,1.89,1.24.054.054,0,0,1,.04.03,1.122,1.122,0,0,1,.22.16.71.71,0,0,1,.14.1,6.264,6.264,0,0,1,.59.46c.16.11.32.24.47.36s.27.23.4.35a1.68,1.68,0,0,1,.21.18,24.837,24.837,0,0,1,2.46,2.46.234.234,0,0,1,.07.07c.39.44.76.9,1.12,1.37q.48.63.93,1.29c.16.24.32.48.46.73.24.37.47.75.68,1.14q.3.525.57,1.08a3.182,3.182,0,0,1,.16.32c.1.2.2.4.28.61a1.55,1.55,0,0,1,.14.29c.09.2.18.41.26.62a25.654,25.654,0,0,1,1.5,5.01c.09.44.17.88.22,1.33a6.933,6.933,0,0,1,.1.78,3.293,3.293,0,0,1,.05.44c.06.62.1,1.25.11,1.88a1.506,1.506,0,0,1,.01.3C82.511,55.733,82.511,55.883,82.511,56.023Z" fill="#666667"/>
            <path d="M42.052,70.759H56.326a0,0,0,0,1,0,0v0a3.094,3.094,0,0,1-3.094,3.094H45.07a3.018,3.018,0,0,1-3.018-3.018v-.076A0,0,0,0,1,42.052,70.759Z" transform="translate(2.991 -1.947) rotate(2.338)" fill="#888"/>
            <path d="M72.541,52.913a8.644,8.644,0,0,1-.01.88,4.866,4.866,0,0,1-.06.76c-.01.14-.03.27-.05.4a10.336,10.336,0,0,1-.49,1.99,11.325,11.325,0,0,1-.87,1.91c-.06.1-.11.19-.18.29a1.644,1.644,0,0,1-.14.22,5.724,5.724,0,0,1-.39.57,10.477,10.477,0,0,1-1.12,1.28s0,.01-.01,0a8.087,8.087,0,0,1-.81.73q-.225.18-.48.36l-.52.37-1.09.77-.42.31-.51.36-.13.09-.76.54-1.99,1.42-1.96,1.39-.15.11-1.19.85a8.645,8.645,0,0,1-1.12.69,4.438,4.438,0,0,1-.57.3.929.929,0,0,1-.1.05.142.142,0,0,1-.06.02,10.682,10.682,0,0,1-2.92.87,10.28,10.28,0,0,1-1.47.11,5.419,5.419,0,0,1-.57,0l-.75-.03-.35-.01h-.11l-.6-.03-.41-.01-1.97-.08-1.34-.05-.66-.02a10.446,10.446,0,0,1-1.77-.22,10.024,10.024,0,0,1-2.02-.61c-.01,0-.02-.01-.03-.01-.14-.06-.28-.12-.41-.18-.17-.08-.33-.16-.49-.24-.22-.12-.43-.24-.64-.37q-.435-.27-.84-.57l-2.24-1.68-.72-.54-.33-.25-.12-.09-1.52-1.14-.05-.04-2.11-1.58-.09-.06-.08-.07-2.26-1.69-1.05-.79c-.08-.06-.16-.12-.24-.19a4.031,4.031,0,0,1-.32-.26.524.524,0,0,1-.11-.1h-.01c-.17-.16-.34-.31-.5-.48a1.365,1.365,0,0,1-.17-.17c-.13-.13-.25-.27-.37-.41a6.364,6.364,0,0,1-.46-.57c-.17-.22-.33-.45-.49-.69a11.581,11.581,0,0,1-1.15-2.41c-.13-.4-.24-.8-.33-1.21a2.381,2.381,0,0,1-.05-.26c-.04-.21-.08-.41-.1-.62a5.7,5.7,0,0,1-.06-.58.757.757,0,0,1-.01-.15,5.781,5.781,0,0,1-.03-.58,11.837,11.837,0,0,1,.1-1.68c.01-.05.02-.1.03-.16a.17.17,0,0,1,.01-.07q.06-.375.15-.75a8.156,8.156,0,0,1,.33-1.14,1.723,1.723,0,0,1,.07-.21c.1-.27.2-.53.3-.8.09-.24.18-.49.28-.73.08-.23.17-.46.26-.69.32-.83.64-1.66.98-2.49.01-.02.02-.05.03-.07.01,0,.01,0,.01-.01.08-.23.18-.47.27-.7.13-.31.25-.61.38-.92a.355.355,0,0,1,.04-.09c.08-.2.16-.4.25-.6.18-.44.36-.87.55-1.31.13-.31.26-.61.4-.92.05-.13.11-.26.17-.39.14-.32.28-.65.42-.97l.39-.87c.14-.33.29-.67.45-1,.22-.5.45-1,.68-1.49.29-.63.58-1.27.89-1.9a1.508,1.508,0,0,1,.12-.26c.12-.27.25-.55.39-.82.13-.29.27-.59.42-.88a.035.035,0,0,0,.01-.02c.15-.32.3-.63.46-.95.01-.01.02-.02.02-.03.18-.39.38-.79.58-1.18,0-.02,0-.03.02-.04a.757.757,0,0,1,.09-.18c.36-.74.73-1.48,1.1-2.22a2.28,2.28,0,0,1,.17-.3v-.01c.08-.15.16-.3.25-.45.09-.13.17-.27.26-.4a10.718,10.718,0,0,1,.97-1.23,9.347,9.347,0,0,1,.9-.88.176.176,0,0,1,.05-.04,9.417,9.417,0,0,1,.86-.67,9.878,9.878,0,0,1,1.7-.98c.08-.04.15-.07.23-.11a11.152,11.152,0,0,1,4.55-.92l1.76.02.72.01.75.01.67.01h.17l5.21.06a11,11,0,0,1,1.82.17,2.381,2.381,0,0,1,.26.05,10.96,10.96,0,0,1,4.19,1.8,7.569,7.569,0,0,1,.85.67,9.854,9.854,0,0,1,1.63,1.78.176.176,0,0,1,.04.05c.03.05.07.09.1.14s.07.11.11.17c.06.09.12.18.17.27.02.01.03.01.02.02.01.02.03.05.04.07.07.12.14.23.21.35.02.03.03.06.05.09.14.23.27.46.4.69.68,1.18,1.31,2.37,1.9,3.59.05.09.09.18.14.27l.06.15a3.709,3.709,0,0,1,.23.5c.24.49.46.98.67,1.48.14.3.26.6.38.9.11.24.21.49.3.74a.052.052,0,0,1,.02.04c.08.2.16.4.23.61.06.14.12.28.17.43.19.49.36.98.52,1.48a.418.418,0,0,1,.04.1.169.169,0,0,1,.03.1c.12.32.22.64.32.97a.266.266,0,0,1,.03.12h.01c.01,0,.01,0,0,.01q.285.84.51,1.71a.749.749,0,0,1,.05.16,1.365,1.365,0,0,1,.07.29c.18.59.33,1.2.47,1.81.12.49.23.98.33,1.48.1.42.18.84.26,1.27s.16.86.23,1.3c.2,1.24.37,2.49.49,3.77.01.1.03.21.03.31a1.942,1.942,0,0,1,.02.24,1.785,1.785,0,0,1,.02.23c.03.31.06.62.08.93,0,.04.01.09.01.13v.04c.02.23.03.46.05.69v.15C72.5,51.913,72.521,52.413,72.541,52.913Z" fill="#cccbcb"/>
          </g>
          <g>
            <path d="M51.811,92.743c-2.63,3.14-5.2-1.53-3.63-6.73.11-.33.22-.67.37-1.01a4.7,4.7,0,0,1,.25-.57,1.22,1.22,0,0,1,.07-.17l.03-.06.07.01,2.47.2a.3.3,0,0,1,.21.1.294.294,0,0,1,.09.22v.3l.01,1.38Z"/>
            <path d="M56.741,96.513l.62-6.78.11-1.2a.332.332,0,0,1,.32-.29h2.55a9.594,9.594,0,0,1,.45,1.41C62.221,95.153,59.171,99.953,56.741,96.513Z"/>
            <path d="M70.751,93.973c-.68.21-1.44-.1-2.14-1.09l.62-6.77.11-1.2a.335.335,0,0,1,.33-.3h2.54a10.432,10.432,0,0,1,.47,1.47C73.671,89.973,72.421,93.493,70.751,93.973Z"/>
            <path d="M40.761,95.383c-2.62,3.11-5.17-1.47-3.66-6.61a10.973,10.973,0,0,1,.75-1.93l.6.05,1.93.16a.325.325,0,0,1,.3.32v.34l.04,3.76Z"/>
          </g>
        </g>
        <g>
          <ellipse cx="48.103" cy="51.874" rx="10.803" ry="10.185" fill="#b7b7b7"/>
          <ellipse cx="60.07" cy="40.308" rx="1.563" ry="3.725"/>
          <ellipse cx="39.37" cy="40.308" rx="1.563" ry="3.725"/>
          <path d="M58.665,45.721c.7,1.461,6.416.167,5.716-1.453" fill="none" stroke="#000" stroke-miterlimit="10" opacity="0.25"/>
          <path d="M59.2,48.626Q65.048,50.537,65.9,44.8" fill="none" stroke="#000" stroke-miterlimit="10" opacity="0.25"/>
          <path d="M38.075,45.721c-.7,1.461-6.416.167-5.715-1.453" fill="none" stroke="#000" stroke-miterlimit="10" opacity="0.25"/>
          <path d="M37.539,48.626q-5.847,1.911-6.695-3.823" fill="none" stroke="#000" stroke-miterlimit="10" opacity="0.25"/>
          <path d="M70.15,15.31c4.349,4.862,3.266,11.272-1.681,18.782L58.332,24.721Z" fill="#edc5d8"/>
          <path d="M58.332,24.721c-.987-1.046,10.573-10.507,11.818-9.411C73.319,18.1,60.718,27.954,58.332,24.721Z" fill="#fff"/>
          <path d="M42.131,24.723l-.25.23-.05.05-.09.08-.5.47-2.03,1.87-.23.22-1.24,1.14-.19.17-3.52,3.26-.28.26v.01l-1.36,1.25-.39.36a1.629,1.629,0,0,1-.11-.17c-.11-.16-.21-.32-.3-.47-.3-.47-.58-.93-.84-1.39-3.77-6.49-4.36-12.09-.69-16.46l.26-.29,7.23,5.76.74.59.22.17.45.37,1.41,1.12.9.71Z" fill="#edc5d8"/>
          <path d="M42.131,24.723a1.482,1.482,0,0,1-.24.26l-.01.01c-.04.03-.09.06-.14.09a1.761,1.761,0,0,1-.77.26,1.087,1.087,0,0,1-.18.01h-.01a.06.06,0,0,1-.04.01,5.316,5.316,0,0,1-1.88-.35c-.05-.02-.09-.03-.14-.05a4.073,4.073,0,0,1-.44-.18c-.1-.03-.2-.08-.3-.12a.01.01,0,0,0-.01-.01c-.29-.13-.59-.28-.89-.44-.23-.12-.47-.26-.71-.4-.28-.16-.55-.34-.83-.52-3.46-2.31-6.67-5.95-5.48-7.69l.26-.29c.71-.63,4.77,2.18,7.94,4.91.31.25.6.51.89.77.7.63,1.33,1.24,1.84,1.78.13.15.26.29.38.43a4.732,4.732,0,0,1,.31.38,4.074,4.074,0,0,1,.31.44C42.191,24.353,42.251,24.593,42.131,24.723Z" fill="#fff"/>
          <path d="M43.562,43.607c-.1.582,1.585,2.095,1.8,3.468a.773.773,0,0,0,.809.54h3.786c.425,0,.961-.161,1.043-.578.251-1.274,1.931-2.876,1.639-3.43C52.253,42.865,43.694,42.824,43.562,43.607Z" fill="#edc5d8"/>
          <path d="M48.37,47.615v7.694a.959.959,0,0,0,.672.928c3.431.993,6.272-.373,8.454-4.363" fill="none" stroke="#000" stroke-miterlimit="10" stroke-width="0.25"/>
          <path d="M56.177,50.226a9,9,0,0,1,.82.62,3.394,3.394,0,0,1,.758.751,2.01,2.01,0,0,1,.358,1.036,1.917,1.917,0,0,1-.257,1.048l-.024,0a9.071,9.071,0,0,0-.176-.982,6.509,6.509,0,0,0-.281-.89,3.871,3.871,0,0,0-.467-.871,4.081,4.081,0,0,0-.745-.686Z"/>
          <path d="M48.37,47.615v7.694a.958.958,0,0,1-.671.928c-3.432.993-6.273-.373-8.455-4.363" fill="none" stroke="#000" stroke-miterlimit="10" stroke-width="0.25"/>
          <path d="M40.577,50.247a4.075,4.075,0,0,0-.744.686,3.793,3.793,0,0,0-.467.871,6.378,6.378,0,0,0-.282.89,8.841,8.841,0,0,0-.175.982l-.025,0a1.926,1.926,0,0,1-.257-1.048,2.01,2.01,0,0,1,.358-1.036,3.377,3.377,0,0,1,.759-.751,8.984,8.984,0,0,1,.819-.62Z"/>
          <g>
            <g>
              <path d="M34.881,34.133v.06a2.621,2.621,0,0,1-.4,1.32c0,.01,0,.01-.01.02a2.428,2.428,0,0,1-.24.32,2.5,2.5,0,0,1-1.19.76.09.09,0,0,1-.05.01,2.259,2.259,0,0,1-.69.1,2.414,2.414,0,0,1-.85-.15,2.508,2.508,0,0,1-.99-.63,2.345,2.345,0,0,1-.59-.93,2.369,2.369,0,0,1-.16-.88,2.64,2.64,0,0,1,1.54-2.37,3.533,3.533,0,0,1,.46-.15,2.324,2.324,0,0,1,.59-.07,1.087,1.087,0,0,1,.18.01,1.265,1.265,0,0,1,.28.03,2.277,2.277,0,0,1,.68.23,2.559,2.559,0,0,1,.59.4,2.26,2.26,0,0,1,.44.53,2.522,2.522,0,0,1,.34.79c.01.05.02.09.03.14A2.316,2.316,0,0,1,34.881,34.133Z" fill="#fff"/>
              <path d="M32.3,39.893a1.477,1.477,0,0,1-.01.21v.01a2.1,2.1,0,0,1-.22.75.539.539,0,0,1-.07.13,2.168,2.168,0,0,1-1.87,1.07,1.97,1.97,0,0,1-.73-.13.938.938,0,0,1-.15-.06,1.992,1.992,0,0,1-.65-.45,1.755,1.755,0,0,1-.27-.34.218.218,0,0,1-.05-.08,2.053,2.053,0,0,1-.31-1.05v-.06a2.152,2.152,0,0,1,1.13-1.9.37.37,0,0,1,.11-.05,2.092,2.092,0,0,1,.44-.16,2.52,2.52,0,0,1,.48-.05,2.163,2.163,0,0,1,1.27.41.558.558,0,0,1,.08.05,2.122,2.122,0,0,1,.53.63A2.069,2.069,0,0,1,32.3,39.893Z" fill="#fff"/>
              <path d="M33,38.583a2.013,2.013,0,0,1-.69,1.51l-.02.02a1.985,1.985,0,0,1-1.28.46,2.046,2.046,0,0,1-.61-.09,1.985,1.985,0,0,1-1.32-1.39,1.7,1.7,0,0,1-.07-.51,1.916,1.916,0,0,1,.09-.59.3.3,0,0,1,.05-.13,1.967,1.967,0,0,1,1.86-1.28,1.679,1.679,0,0,1,.5.07,1.763,1.763,0,0,1,.75.37c.04.03.07.06.11.09a2.092,2.092,0,0,1,.55.9,1.892,1.892,0,0,1,.05.23A1.87,1.87,0,0,1,33,38.583Z" fill="#fff"/>
              <path d="M32.3,36.693v.03a1.032,1.032,0,0,1-.04.3.066.066,0,0,1-.01.06,1.637,1.637,0,0,1-.44.83,1.118,1.118,0,0,1-.33.28,1.35,1.35,0,0,1-.26.15.035.035,0,0,0-.02.01,1.822,1.822,0,0,1-.7.14,1.79,1.79,0,0,1-1.02-.32,1.178,1.178,0,0,1-.27-.23.156.156,0,0,1-.06-.08,1.71,1.71,0,0,1-.45-1.17,1.77,1.77,0,0,1,1.17-1.68,1.681,1.681,0,0,1,.63-.12,1.841,1.841,0,0,1,.41.05.749.749,0,0,1,.16.05A1.784,1.784,0,0,1,32.3,36.693Z" fill="#fff"/>
              <circle cx="35.044" cy="30.057" r="2.747" fill="#fff"/>
              <circle cx="36.59" cy="26.333" r="2.181" fill="#fff"/>
              <circle cx="37.507" cy="23.552" r="1.989" fill="#fff"/>
              <circle cx="33.26" cy="28.715" r="1.784" fill="#fff"/>
              <path d="M42.151,22.153a2.1,2.1,0,0,1-.07.56,2.3,2.3,0,0,1-.4.87c0,.02-.02.03-.03.05a2.863,2.863,0,0,1-.38.4c-.02.01-.04.03-.06.04a2.5,2.5,0,0,1-.74.39,2.681,2.681,0,0,1-.27.07,2.377,2.377,0,0,1-.97,0l-.24-.06a2.544,2.544,0,0,1-.38-.16,2.417,2.417,0,0,1-1.27-1.73,2.024,2.024,0,0,1-.04-.43,2.247,2.247,0,0,1,.07-.58,2.7,2.7,0,0,1,.18-.5,2.347,2.347,0,0,1,.71-.85,2.42,2.42,0,0,1,2.59-.21c.05.03.11.06.16.09A2.42,2.42,0,0,1,42.151,22.153Z" fill="#fff"/>
              <path d="M48.781,21.143a1.219,1.219,0,0,1,0,.27,3.792,3.792,0,0,1-.18,1.05,4.03,4.03,0,0,1-.46.96.71.71,0,0,1-.1.14,1.806,1.806,0,0,1-.18.23,2.848,2.848,0,0,1-.23.26,4.023,4.023,0,0,1-1.83,1.04,3.826,3.826,0,0,1-.59.1,3.994,3.994,0,0,1-2.24-.43c0-.01-.01-.01-.02-.01a4.506,4.506,0,0,1-.94-.7c-.01-.01-.02-.02-.02-.03a2.5,2.5,0,0,1-.34-.39,2.874,2.874,0,0,1-.28-.43,3.494,3.494,0,0,1-.23-.48,4,4,0,0,1-.13-2.62c.02-.07.05-.14.07-.2a3.9,3.9,0,0,1,.93-1.47,3.98,3.98,0,0,1,5.29-.29,4.283,4.283,0,0,1,.33.29,3.792,3.792,0,0,1,.48.58,3.479,3.479,0,0,1,.38.71.694.694,0,0,1,.05.13A3.556,3.556,0,0,1,48.781,21.143Z" fill="#fff"/>
              <path d="M57.341,21.053a4.5,4.5,0,0,1-.29,1.6,5.987,5.987,0,0,1-.35.72,4.3,4.3,0,0,1-.47.63,1.137,1.137,0,0,1-.15.16,4.443,4.443,0,0,1-1.66,1.09,4.333,4.333,0,0,1-1.57.29,4.4,4.4,0,0,1-2.64-.87,1.431,1.431,0,0,1-.24-.19,3.946,3.946,0,0,1-.78-.85,2.464,2.464,0,0,1-.22-.34,4.12,4.12,0,0,1-.37-.83,2.619,2.619,0,0,1-.11-.4,3.381,3.381,0,0,1-.11-.72,2.81,2.81,0,0,1-.01-.29,4.349,4.349,0,0,1,.17-1.2.527.527,0,0,1,.03-.12,3.651,3.651,0,0,1,.29-.71,4.5,4.5,0,0,1,.85-1.17,3.622,3.622,0,0,1,.42-.36,4.418,4.418,0,0,1,2.72-.92,4.484,4.484,0,0,1,4.01,2.47c.05.09.09.18.13.27A4.618,4.618,0,0,1,57.341,21.053Z" fill="#fff"/>
              <path d="M49.851,18.433a1.214,1.214,0,0,1-.15.6,1.165,1.165,0,0,1-.31.39,1.262,1.262,0,0,1-.82.31h-.01a.17.17,0,0,1-.07-.01,1.278,1.278,0,0,1-1.1-.72,1.361,1.361,0,0,1-.13-.57.925.925,0,0,1,.04-.29,1.291,1.291,0,0,1,2.41-.29,1.094,1.094,0,0,1,.12.4A.554.554,0,0,1,49.851,18.433Z" fill="#fff"/>
              <circle cx="60.37" cy="21.342" r="4.2" fill="#fff"/>
              <circle cx="64.72" cy="27.239" r="3.087" fill="#fff"/>
              <path d="M32.3,44.933a2.917,2.917,0,0,1-.83,2.03,2.9,2.9,0,0,1-2.05.85,2.878,2.878,0,0,1-2.38-1.26c-.02-.04-.05-.09-.07-.13a2.643,2.643,0,0,1-.2-.37v-.01c-.03-.07-.05-.14-.08-.22a2.359,2.359,0,0,1-.12-.54c-.01-.11-.02-.23-.02-.35a2.858,2.858,0,0,1,.98-2.16c.02-.02.04-.03.05-.05.01,0,.01,0,.01-.01a2.934,2.934,0,0,1,1.49-.63c.11-.01.22-.02.33-.02h.01A2.872,2.872,0,0,1,32.3,44.933Z" fill="#fff"/>
              <path d="M29.421,42.133a1.054,1.054,0,0,1-1.06,1.06.22.22,0,0,1-.08-.01.987.987,0,0,1-.73-.39c-.02-.01-.02-.01-.02-.02a.418.418,0,0,1-.08-.12,1.011,1.011,0,0,1-.14-.52.127.127,0,0,1,.01-.06.163.163,0,0,1,0-.07,1.041,1.041,0,0,1,.92-.91.277.277,0,0,1,.09-.01h.03a1.142,1.142,0,0,1,.33.05,1.068,1.068,0,0,1,.66.62,1.209,1.209,0,0,1,.05.18.528.528,0,0,1,.01.13A.17.17,0,0,1,29.421,42.133Z" fill="#fff"/>
              <circle cx="27.986" cy="48.868" r="2.511" fill="#fff"/>
              <circle cx="27.463" cy="51.091" r="1.987" fill="#fff"/>
              <circle cx="26.944" cy="55.557" r="2.479" fill="#fff"/>
              <circle cx="25.964" cy="53.456" r="1.499" fill="#fff"/>
              <circle cx="25.507" cy="50.584" r="1.042" fill="#fff"/>
              <path d="M26.971,46.423v.02a.772.772,0,0,1-.02.15.5.5,0,0,1-.48.36.277.277,0,0,1-.09-.01h-.01a.338.338,0,0,1-.19-.09.431.431,0,0,1-.15-.15.528.528,0,0,1-.07-.26.5.5,0,0,1,.35-.47.415.415,0,0,1,.16-.03.772.772,0,0,1,.15.02.53.53,0,0,1,.15.08v.01A.478.478,0,0,1,26.971,46.423Z" fill="#fff"/>
              <path d="M27.6,42.393a.3.3,0,0,1-.15.26.241.241,0,0,1-.18.07.33.33,0,1,1,0-.66.09.09,0,0,1,.05.01A.323.323,0,0,1,27.6,42.393Z" fill="#fff"/>
              <path d="M28.7,40.973a.86.86,0,0,1-.01.16,1.4,1.4,0,0,1-.09.29,1.057,1.057,0,0,1-.74.59.986.986,0,0,1-.24.03,1.032,1.032,0,0,1-.3-.04,1.077,1.077,0,0,1,.3-2.11,1.03,1.03,0,0,1,.35.06,1.008,1.008,0,0,1,.56.45A1.031,1.031,0,0,1,28.7,40.973Z" fill="#fff"/>
              <path d="M28.7,60.573a2.529,2.529,0,0,1-1.18,2.14,2.592,2.592,0,0,1-1.37.4h-.12a3.051,3.051,0,0,1-.54-.08,2.526,2.526,0,0,1-.48-.19,1.692,1.692,0,0,1-.29-.17,2.528,2.528,0,0,1-.9-1.09.488.488,0,0,1-.03-.07,2.422,2.422,0,0,1-.18-.94,2.626,2.626,0,0,1,.05-.49.09.09,0,0,1,.01-.05,2.277,2.277,0,0,1,.45-.97c0-.02.01-.03.03-.04a1.91,1.91,0,0,1,.33-.36,2.367,2.367,0,0,1,.56-.37,2.548,2.548,0,0,1,.99-.26h.12c.1,0,.2.01.3.02a2.49,2.49,0,0,1,1.27.53,1.435,1.435,0,0,1,.33.32,1.709,1.709,0,0,1,.21.26,2.261,2.261,0,0,1,.16.26,2.152,2.152,0,0,1,.19.5,1.356,1.356,0,0,1,.06.29A2.186,2.186,0,0,1,28.7,60.573Z" fill="#fff"/>
              <circle cx="28.272" cy="58.408" r="1.86" fill="#fff"/>
              <circle cx="30.186" cy="66.648" r="4.223" fill="#fff"/>
              <circle cx="32.307" cy="64.917" r="4.34" fill="#fff"/>
              <circle cx="30.233" cy="62.165" r="2.771" fill="#fff"/>
              <circle cx="27.244" cy="65.58" r="2.463" fill="#fff"/>
              <path d="M26.941,64.893a2.254,2.254,0,0,1-.54,1.45,2.051,2.051,0,0,1-.44.39,2.2,2.2,0,0,1-.7.31.508.508,0,0,1-.17.03,1.553,1.553,0,0,1-.37.04,2.131,2.131,0,0,1-1.45-.56,2.159,2.159,0,0,1-.76-1.66,2.188,2.188,0,0,1,.92-1.79,2.354,2.354,0,0,1,.56-.31,2.192,2.192,0,0,1,.73-.12,2.3,2.3,0,0,1,.45.05,1.845,1.845,0,0,1,.4.12,1.918,1.918,0,0,1,.46.27,1.156,1.156,0,0,1,.25.2,2.262,2.262,0,0,1,.28.35,1.828,1.828,0,0,1,.24.46A2.191,2.191,0,0,1,26.941,64.893Z" fill="#fff"/>
              <circle cx="24.923" cy="57.522" r="1.233" fill="#fff"/>
              <path d="M24.721,54.6a.792.792,0,0,1-.1.4.743.743,0,0,1-.13.21.93.93,0,0,1-.69.31h-.04a.406.406,0,0,1-.19-.04.914.914,0,0,1,.23-1.8,1.355,1.355,0,0,1,.2.02.916.916,0,0,1,.71.78A.487.487,0,0,1,24.721,54.6Z" fill="#fff"/>
              <path d="M25.471,52.853a.887.887,0,0,1-.23.59.634.634,0,0,1-.24.19.877.877,0,0,1-.42.11.277.277,0,0,1-.09-.01.845.845,0,0,1-.46-.18.882.882,0,0,1-.34-.7.83.83,0,0,1,.09-.39c0-.01.01-.02.02-.03a.85.85,0,0,1,.56-.45.78.78,0,0,1,.22-.03.906.906,0,0,1,.49.14,1.063,1.063,0,0,1,.11.09.913.913,0,0,1,.28.55A.487.487,0,0,1,25.471,52.853Z" fill="#fff"/>
              <path d="M31.271,71.943c-.01.04-.01.08-.02.11a2.638,2.638,0,0,1-.3.91,2.588,2.588,0,0,1-.47.63c-.04.04-.08.07-.12.11a1.831,1.831,0,0,1-.31.24,2.707,2.707,0,0,1-2.78.13,2.532,2.532,0,0,1-.66-.48,2.728,2.728,0,0,1-.54-3.08,1.929,1.929,0,0,1,.26-.46,2.22,2.22,0,0,1,.28-.33A2.371,2.371,0,0,1,27,69.4a1.089,1.089,0,0,1,.23-.14.757.757,0,0,1,.18-.09,2.718,2.718,0,0,1,3.01.49l.06.06a2.882,2.882,0,0,1,.49.67c.06.12.11.24.16.37A2.782,2.782,0,0,1,31.271,71.943Z" fill="#fff"/>
              <circle cx="35.692" cy="70.495" r="3.079" fill="#fff"/>
              <circle cx="38.423" cy="68.675" r="3.095" fill="#fff"/>
              <circle cx="39.654" cy="67.447" r="3.442" fill="#fff"/>
              <circle cx="38.17" cy="63.121" r="3.347" fill="#fff"/>
              <circle cx="35.975" cy="60.836" r="3.679" fill="#fff"/>
              <circle cx="29.261" cy="58.451" r="1.294" fill="#fff"/>
              <circle cx="33.818" cy="57.799" r="1.51" fill="#fff"/>
              <circle cx="32.709" cy="57.99" r="1.701" fill="#fff"/>
              <circle cx="30.437" cy="57.714" r="1.425" fill="#fff"/>
              <circle cx="30.01" cy="55.191" r="0.998" fill="#fff"/>
              <circle cx="31.993" cy="54.064" r="0.985" fill="#fff"/>
              <circle cx="30.06" cy="53.167" r="1.788" fill="#fff"/>
              <circle cx="29.64" cy="49.647" r="1.368" fill="#fff"/>
              <circle cx="32.993" cy="74.377" r="2.983" fill="#fff"/>
              <circle cx="32.447" cy="71.687" r="1.962" fill="#fff"/>
              <path d="M27.621,69.993v.05a2.021,2.021,0,0,1-1.78,2,1.548,1.548,0,0,1-.22.01,2.01,2.01,0,0,1-1.98-1.66,1.983,1.983,0,0,1-.03-.35,2.01,2.01,0,0,1,1.84-1.99.915.915,0,0,1,.17-.01,1.775,1.775,0,0,1,.61.1,1.994,1.994,0,0,1,1.09.86.7.7,0,0,1,.09.17A1.916,1.916,0,0,1,27.621,69.993Z" fill="#fff"/>
              <path d="M33.111,76.593v.02a1.89,1.89,0,0,1-.08.53.794.794,0,0,1-.06.22,2.006,2.006,0,0,1-.53.81,2.026,2.026,0,0,1-.44.33,2.113,2.113,0,0,1-1.08.3H30.9a2.193,2.193,0,0,1-2.11-1.6,2.046,2.046,0,0,1-.09-.61,2.19,2.19,0,0,1,.73-1.64,2.388,2.388,0,0,1,.59-.38,2.329,2.329,0,0,1,.83-.18h.05a2.2,2.2,0,0,1,1.33.45,2.151,2.151,0,0,1,.87,1.54A1.477,1.477,0,0,1,33.111,76.593Z" fill="#fff"/>
              <path d="M40.851,80.113a.41.41,0,0,1-.01.11,3.382,3.382,0,0,1-.41,1.56s-.01.01,0,.01c-.05.08-.1.16-.15.23a3.6,3.6,0,0,1-.68.78c-.01.01-.03.02-.05.04a.435.435,0,0,1-.07.04,1.572,1.572,0,0,1-.26.19,3.455,3.455,0,0,1-1.83.55h-.06c-.12,0-.24-.01-.36-.02s-.23-.03-.35-.05a3.435,3.435,0,0,1-1.64-.84,1.363,1.363,0,0,1-.24-.24,3.414,3.414,0,0,1-.9-2.01,1.477,1.477,0,0,1-.01-.21.66.66,0,0,1-.01-.14,3.657,3.657,0,0,1,.05-.57.772.772,0,0,1,.02-.15,3.527,3.527,0,0,1,.79-1.58c.06-.07.13-.15.2-.22a3.463,3.463,0,0,1,.87-.63c.04-.02.08-.04.13-.06a3.491,3.491,0,0,1,1.45-.31,3.426,3.426,0,0,1,1.07.17,2.761,2.761,0,0,1,.68.3,3.376,3.376,0,0,1,.93.76c.04.06.09.12.13.18a3.251,3.251,0,0,1,.59,1.21,2.59,2.59,0,0,1,.1.62A1.32,1.32,0,0,1,40.851,80.113Z" fill="#fff"/>
              <circle cx="37.475" cy="77.029" r="2.653" fill="#fff"/>
              <path d="M34.821,78.553a1.949,1.949,0,0,1-.43,1.22,1.993,1.993,0,0,1-.32.33,1.94,1.94,0,0,1-.24.15,2.591,2.591,0,0,1-.29.14,1.907,1.907,0,0,1-.68.12,1.994,1.994,0,0,1-1.96-1.96,1.942,1.942,0,0,1,.53-1.34,1.123,1.123,0,0,1,.2-.18,1.9,1.9,0,0,1,1.17-.44h.06a2.066,2.066,0,0,1,1.32.51,2.123,2.123,0,0,1,.5.71A2.028,2.028,0,0,1,34.821,78.553Z" fill="#fff"/>
              <circle cx="42.229" cy="74.228" r="3.457" fill="#fff"/>
              <circle cx="39.082" cy="73.306" r="2.435" fill="#fff"/>
              <circle cx="37.475" cy="74.959" r="2.653" fill="#fff"/>
              <circle cx="49.475" cy="76.096" r="3.789" fill="#fff"/>
              <circle cx="48.921" cy="73.432" r="3.708" fill="#fff"/>
              <circle cx="44.423" cy="73.728" r="5.053" fill="#fff"/>
              <circle cx="47.549" cy="69.775" r="3.126" fill="#fff"/>
              <circle cx="47.117" cy="81.17" r="3.559" fill="#fff"/>
              <circle cx="42.275" cy="80.702" r="2.147" fill="#fff"/>
              <circle cx="42.275" cy="78.243" r="2.147" fill="#fff"/>
              <path d="M43.041,84.053a1.847,1.847,0,0,1-.49.88,1.822,1.822,0,0,1-1.28.55,1.992,1.992,0,0,1-.42-.04,1.681,1.681,0,0,1-.79-.39.789.789,0,0,1-.15-.12,1.831,1.831,0,0,1-.53-1.2,1.566,1.566,0,0,1,.04-.53,1.294,1.294,0,0,1,.08-.26.235.235,0,0,1,.05-.1c-.01-.02,0-.03.02-.05a1.6,1.6,0,0,1,.34-.49,1.64,1.64,0,0,1,.37-.28.941.941,0,0,1,.22-.12,1.08,1.08,0,0,1,.35-.1,1.842,1.842,0,0,1,1.7.5,1.625,1.625,0,0,1,.33.46.717.717,0,0,1,.1.22A1.78,1.78,0,0,1,43.041,84.053Z" fill="#fff"/>
              <path d="M46.221,84.613a.418.418,0,0,1-.08.12.789.789,0,0,1-.12.15,1.188,1.188,0,0,1-.35.25.849.849,0,0,1-.22.09,1.421,1.421,0,0,1-1.47-.34,1.477,1.477,0,0,1-.3-.45.808.808,0,0,1-.07-.22.842.842,0,0,1-.04-.27,1.273,1.273,0,0,1,.28-.93.7.7,0,0,1,.13-.17,1.212,1.212,0,0,1,.43-.29,1.431,1.431,0,0,1,1.81,2.06Z" fill="#fff"/>
              <circle cx="43.917" cy="83.205" r="0.821" fill="#fff"/>
              <path d="M45.741,85.523a1.31,1.31,0,0,1-1.21,1.31.41.41,0,0,1-.11.01,1.319,1.319,0,0,1-1.32-1.32,1.3,1.3,0,0,1,.58-1.09.867.867,0,0,1,.27-.14,1.193,1.193,0,0,1,.47-.09,1.3,1.3,0,0,1,.93.39.647.647,0,0,1,.08.09.986.986,0,0,1,.24.45A1,1,0,0,1,45.741,85.523Z" fill="#fff"/>
              <path d="M53.261,84.3v.04a1.853,1.853,0,0,1-.09.58,2.236,2.236,0,0,1-.5.89,2.2,2.2,0,0,1-.92.6c-.03.01-.06.02-.1.03a2.065,2.065,0,0,1-.62.09,2.232,2.232,0,0,1-2.11-1.5,2,2,0,0,1-.12-.6.487.487,0,0,1-.01-.12V84.3a2.24,2.24,0,0,1,1.4-2.07,2.014,2.014,0,0,1,.35-.1.319.319,0,0,1,.14-.03,1.983,1.983,0,0,1,.35-.03,1.87,1.87,0,0,1,.34.03,1.266,1.266,0,0,1,.28.06,2.136,2.136,0,0,1,.27.09,2.158,2.158,0,0,1,.62.41,2.233,2.233,0,0,1,.72,1.64Z" fill="#fff"/>
              <path d="M57.911,83.453v.07a1.77,1.77,0,0,1-.01.23,1.068,1.068,0,0,1-.03.25,2.963,2.963,0,0,1-.51,1.27,3.1,3.1,0,0,1-2.58,1.37,3.049,3.049,0,0,1-2.11-.83,2.853,2.853,0,0,1-.63-.79,2.992,2.992,0,0,1-.37-1.15c-.01-.12-.02-.23-.02-.35a3.176,3.176,0,0,1,.27-1.27,2.643,2.643,0,0,1,.2-.37,1.978,1.978,0,0,1,.25-.34c-.01-.01,0-.01,0-.01a3.183,3.183,0,0,1,.91-.76h.01a3.111,3.111,0,0,1,1.49-.38,3.028,3.028,0,0,1,.31.02,2.715,2.715,0,0,1,1.07.31,1.037,1.037,0,0,1,.1.04c.02.01.04.03.06.04a2.9,2.9,0,0,1,1.04.96,2.868,2.868,0,0,1,.43.92A3.257,3.257,0,0,1,57.911,83.453Z" fill="#fff"/>
              <circle cx="55.432" cy="81.629" r="3.075" fill="#fff"/>
              <circle cx="53.411" cy="73.715" r="2.381" fill="#fff"/>
              <circle cx="53.913" cy="80.501" r="2.257" fill="#fff"/>
              <circle cx="51.194" cy="79.678" r="1.435" fill="#fff"/>
              <circle cx="56.557" cy="77.955" r="2.644" fill="#fff"/>
              <circle cx="58.861" cy="76.34" r="2.691" fill="#fff"/>
              <circle cx="55.225" cy="73.149" r="1.815" fill="#fff"/>
              <circle cx="54.818" cy="79.281" r="2.14" fill="#fff"/>
              <circle cx="53.865" cy="75.141" r="1.567" fill="#fff"/>
              <circle cx="52.54" cy="79.069" r="0.725" fill="#fff"/>
              <circle cx="50.701" cy="81.442" r="0.942" fill="#fff"/>
              <circle cx="53.026" cy="76.848" r="1.707" fill="#fff"/>
              <circle cx="52.308" cy="70.2" r="2.157" fill="#fff"/>
              <circle cx="59.833" cy="69.784" r="2.337" fill="#fff"/>
              <circle cx="55.594" cy="70.107" r="2.661" fill="#fff"/>
              <circle cx="58.444" cy="73.608" r="2.274" fill="#fff"/>
              <circle cx="56.044" cy="75.149" r="1.312" fill="#fff"/>
              <path d="M73.041,77.6a4.423,4.423,0,0,1-2.11,3.78,4.157,4.157,0,0,1-1.7.63,4.623,4.623,0,0,1-.65.05,4.433,4.433,0,0,1-1.46-.25,4.482,4.482,0,0,1-1.11-.57.555.555,0,0,1-.08-.06.138.138,0,0,1-.04-.03,2.094,2.094,0,0,1-.28-.24,4.253,4.253,0,0,1-1.17-1.68,4.849,4.849,0,0,1-.29-1.15c-.01-.15-.02-.29-.02-.44V77.6a4.417,4.417,0,0,1,1.09-2.91c.04-.06.08-.1.12-.15a4.357,4.357,0,0,1,1.02-.79,4.065,4.065,0,0,1,.51-.26,4.467,4.467,0,0,1,1.33-.32c.13-.01.25-.02.38-.02a4.623,4.623,0,0,1,.65.05,3.749,3.749,0,0,1,.58.13,4.262,4.262,0,0,1,1.42.69,4.535,4.535,0,0,1,.68.63.934.934,0,0,1,.13.15,4.222,4.222,0,0,1,.87,1.76.564.564,0,0,1,.04.12A4.7,4.7,0,0,1,73.041,77.6Z" fill="#fff"/>
              <path d="M66.151,80.063a2.152,2.152,0,0,1-.1.68,2.05,2.05,0,0,1-.16.41.488.488,0,0,0-.03.07,2.463,2.463,0,0,1-1.24,1.12,2.415,2.415,0,0,1-.93.19,2.385,2.385,0,0,1-1.24-.34,2.465,2.465,0,0,1-1.19-1.69,1.526,1.526,0,0,1-.03-.3.66.66,0,0,1-.01-.14,3.028,3.028,0,0,1,.02-.31,1.863,1.863,0,0,1,.07-.34,2.45,2.45,0,0,1,.86-1.29,2.624,2.624,0,0,1,.87-.43c.06-.02.13-.03.19-.05a2.316,2.316,0,0,1,.46-.04,2.119,2.119,0,0,1,.44.04,2.336,2.336,0,0,1,.63.21.914.914,0,0,1,.14.07A2.464,2.464,0,0,1,66.151,80.063Z" fill="#fff"/>
              <circle cx="59.835" cy="82.957" r="1.328" fill="#fff"/>
              <path d="M64.7,81.753a2.328,2.328,0,0,1-1.94,2.28c-.03,0-.06.01-.09.01a2.825,2.825,0,0,1-.29.02.97.97,0,0,1-.17-.01H62.2a2.246,2.246,0,0,1-1.21-.46,1.981,1.981,0,0,1-.49-.51.138.138,0,0,1-.03-.04,2.267,2.267,0,0,1-.4-1.29v-.09a2.26,2.26,0,0,1,.47-1.3,2.2,2.2,0,0,1,.2-.23.178.178,0,0,1,.08-.07,1.432,1.432,0,0,1,.42-.31,2.187,2.187,0,0,1,1.14-.31,2.463,2.463,0,0,1,.67.09,2.374,2.374,0,0,1,1.05.67,2.256,2.256,0,0,1,.49.85.977.977,0,0,1,.06.23A2.416,2.416,0,0,1,64.7,81.753Z" fill="#fff"/>
              <path d="M67.261,81.353v.03a.714.714,0,0,1-.14.43.684.684,0,0,1-1.22-.43c0-.05.01-.1.01-.15.01-.02.01-.03.02-.05a.68.68,0,0,1,1.33.17Z" fill="#fff"/>
              <circle cx="73.206" cy="75.272" r="1.436" fill="#fff"/>
              <circle cx="73.286" cy="72.642" r="2.147" fill="#fff"/>
              <path d="M63.8,85.343a1.319,1.319,0,0,1-1.32,1.32,1.363,1.363,0,0,1-1.18-.74.639.639,0,0,1-.08-.19,1.226,1.226,0,0,1-.06-.39,1.242,1.242,0,0,1,.23-.73V84.6a1.219,1.219,0,0,1,.38-.37,1.16,1.16,0,0,1,.43-.18h.01a1.241,1.241,0,0,1,.27-.03.615.615,0,0,1,.19.02.22.22,0,0,1,.08.01A1.311,1.311,0,0,1,63.8,85.343Z" fill="#fff"/>
              <circle cx="61.018" cy="84.808" r="0.948" fill="#fff"/>
              <circle cx="60.377" cy="85.201" r="1.175" fill="#fff"/>
              <circle cx="58.629" cy="81.402" r="2.458" fill="#fff"/>
              <circle cx="63.086" cy="74.359" r="3.884" fill="#fff"/>
              <circle cx="60.916" cy="77.269" r="2.17" fill="#fff"/>
              <circle cx="61.286" cy="78.416" r="2.084" fill="#fff"/>
              <circle cx="69.097" cy="67.417" r="3.454" fill="#fff"/>
              <circle cx="63.82" cy="67.328" r="3.443" fill="#fff"/>
              <circle cx="59.17" cy="66.668" r="3.379" fill="#fff"/>
              <circle cx="66.3" cy="61.327" r="2.93" fill="#fff"/>
              <circle cx="68.707" cy="62.517" r="3.063" fill="#fff"/>
              <circle cx="72.94" cy="64.631" r="2.114" fill="#fff"/>
              <circle cx="73.191" cy="60.089" r="2.053" fill="#fff"/>
              <circle cx="72.496" cy="57.513" r="2.558" fill="#fff"/>
              <circle cx="68.488" cy="57.929" r="2.339" fill="#fff"/>
              <circle cx="72.275" cy="54.18" r="2.779" fill="#fff"/>
              <circle cx="77.296" cy="56.173" r="1.863" fill="#fff"/>
              <circle cx="78.905" cy="61.68" r="1.609" fill="#fff"/>
              <circle cx="76.774" cy="63.744" r="2.132" fill="#fff"/>
              <circle cx="75.242" cy="64.443" r="2.302" fill="#fff"/>
              <circle cx="74.139" cy="60.149" r="2.368" fill="#fff"/>
              <circle cx="74.924" cy="62.522" r="2.373" fill="#fff"/>
              <circle cx="80.488" cy="59.589" r="2.023" fill="#fff"/>
              <circle cx="82.475" cy="57.011" r="1.421" fill="#fff"/>
              <circle cx="83.731" cy="52.913" r="2.677" fill="#fff"/>
              <circle cx="79.823" cy="57.87" r="2.279" fill="#fff"/>
              <circle cx="76.15" cy="62.062" r="1.227" fill="#fff"/>
              <circle cx="76.949" cy="61.105" r="1.516" fill="#fff"/>
              <circle cx="76.675" cy="59.264" r="1.751" fill="#fff"/>
              <circle cx="73.713" cy="62.188" r="2.443" fill="#fff"/>
              <circle cx="31.274" cy="31.045" r="0.719" fill="#fff"/>
              <circle cx="60.382" cy="87.086" r="0.005" fill="#fff"/>
              <path d="M37.081,85.723a1.205,1.205,0,0,1-.2.26,1.437,1.437,0,0,1-.63.36,1.408,1.408,0,0,1-1.42-.36,1.461,1.461,0,0,1-.42-1.03,1.415,1.415,0,0,1,.42-1.01,1.633,1.633,0,0,1,.47-.32,1.422,1.422,0,0,1,1.34.13h.01a1.01,1.01,0,0,1,.16.13.435.435,0,0,1,.07.06A1.439,1.439,0,0,1,37.081,85.723Z" fill="#fff"/>
              <circle cx="38.418" cy="83.185" r="1.117" fill="#fff"/>
              <path d="M41.231,86.613a1.355,1.355,0,0,1-.38.95.8.8,0,0,1-.17.15,1.362,1.362,0,0,1-.86.3,1.4,1.4,0,0,1-1.37-1.12,1.265,1.265,0,0,1-.03-.28,1.358,1.358,0,0,1,.03-.29,1.412,1.412,0,0,1,1.37-1.12.584.584,0,0,1,.19.02,1.4,1.4,0,0,1,1.22,1.39Z" fill="#fff"/>
              <circle cx="38.388" cy="84.589" r="1.74" fill="#fff"/>
              <path d="M36.651,83.753v.05a1.411,1.411,0,0,1-.84,1.28,1.265,1.265,0,0,1-.58.13,1.4,1.4,0,0,1-1.41-1.41,1.414,1.414,0,0,1,.92-1.33.573.573,0,0,1,.14-.04,1.345,1.345,0,0,1,.35-.05,1.4,1.4,0,0,1,1.39,1.17.457.457,0,0,1,.02.2Z" fill="#fff"/>
              <path d="M45.461,85.073a.757.757,0,0,1-.01.15,2.116,2.116,0,0,1-.92,1.61,2.082,2.082,0,0,1-1.18.36,2.125,2.125,0,0,1-2.08-1.71,1.84,1.84,0,0,1-.04-.41,2.113,2.113,0,0,1,.55-1.42,2.18,2.18,0,0,1,1.2-.67c.06-.01.11-.01.16-.02a1.477,1.477,0,0,1,.21-.01,2.074,2.074,0,0,1,.5.06,2.469,2.469,0,0,1,.29.1,1.969,1.969,0,0,1,.56.33,2.272,2.272,0,0,1,.59.78,2.4,2.4,0,0,1,.12.38c.01.03.01.05.02.08A2.561,2.561,0,0,1,45.461,85.073Z" fill="#fff"/>
              <circle cx="74.355" cy="77.413" r="1.317" fill="#fff"/>
              <circle cx="75.544" cy="75.242" r="1.405" fill="#fff"/>
              <circle cx="76.825" cy="73.3" r="1.64" fill="#fff"/>
              <circle cx="80.157" cy="70.95" r="1.692" fill="#fff"/>
              <circle cx="79.588" cy="70.177" r="3.432" fill="#fff"/>
              <circle cx="81.622" cy="64.984" r="2.462" fill="#fff"/>
              <circle cx="77.335" cy="65.711" r="2.59" fill="#fff"/>
              <circle cx="74.416" cy="68.226" r="2.645" fill="#fff"/>
              <circle cx="72.275" cy="72.036" r="2.779" fill="#fff"/>
              <circle cx="68.22" cy="73.544" r="3.05" fill="#fff"/>
              <circle cx="65.566" cy="71.692" r="3.017" fill="#fff"/>
              <circle cx="75.338" cy="52.436" r="3.568" fill="#fff"/>
              <circle cx="78.74" cy="49.037" r="2.589" fill="#fff"/>
              <circle cx="80.408" cy="53.608" r="1.982" fill="#fff"/>
              <circle cx="78.886" cy="55.662" r="2.736" fill="#fff"/>
              <circle cx="82.428" cy="44.089" r="2.605" fill="#fff"/>
              <circle cx="80.405" cy="49.183" r="4.249" fill="#fff"/>
              <circle cx="78.602" cy="43.421" r="2.452" fill="#fff"/>
              <circle cx="77.575" cy="40.561" r="2.83" fill="#fff"/>
              <circle cx="74.574" cy="38.419" r="2.804" fill="#fff"/>
              <circle cx="75.35" cy="35.374" r="3.075" fill="#fff"/>
              <circle cx="72.843" cy="33.78" r="1.573" fill="#fff"/>
              <circle cx="69.962" cy="31.909" r="0.864" fill="#fff"/>
              <circle cx="69.978" cy="34.092" r="1.792" fill="#fff"/>
              <circle cx="71.819" cy="41.685" r="3.236" fill="#fff"/>
              <circle cx="70.358" cy="38.827" r="2.138" fill="#fff"/>
              <circle cx="71.019" cy="36.81" r="1.921" fill="#fff"/>
              <circle cx="75.508" cy="48.035" r="3.232" fill="#fff"/>
              <circle cx="76.436" cy="44.766" r="2.723" fill="#fff"/>
              <circle cx="71.792" cy="46.172" r="2.562" fill="#fff"/>
              <circle cx="70.422" cy="52.262" r="2.615" fill="#fff"/>
              <circle cx="52.538" cy="37.762" r="4.42" fill="#fff"/>
              <circle cx="57.283" cy="32.824" r="2.551" fill="#fff"/>
              <circle cx="50.707" cy="33.689" r="2.147" fill="#fff"/>
              <circle cx="53.233" cy="31.072" r="2.558" fill="#fff"/>
              <ellipse cx="49.901" cy="32.315" rx="2.637" ry="1.816" fill="#fff"/>
              <ellipse cx="45.811" cy="36.31" rx="1.894" ry="1.421" fill="#fff"/>
              <circle cx="43.494" cy="37.635" r="2.261" fill="#fff"/>
              <circle cx="42.637" cy="35.87" r="3.554" fill="#fff"/>
              <circle cx="41.026" cy="32.001" r="1.944" fill="#fff"/>
              <circle cx="37.709" cy="33.377" r="1.062" fill="#fff"/>
              <circle cx="59.257" cy="35.853" r="1.761" fill="#fff"/>
              <circle cx="57.339" cy="35.607" r="1.168" fill="#fff"/>
              <circle cx="60.494" cy="32.586" r="1.987" fill="#fff"/>
              <circle cx="58.332" cy="30.877" r="2.162" fill="#fff"/>
              <circle cx="48.465" cy="38.11" r="1.8" fill="#fff"/>
              <circle cx="46.421" cy="39.444" r="1.682" fill="#fff"/>
              <circle cx="45.112" cy="40.852" r="1.553" fill="#fff"/>
              <circle cx="58.147" cy="37.013" r="1.406" fill="#fff"/>
              <circle cx="60.871" cy="33.062" r="1.512" fill="#fff"/>
              <circle cx="47.193" cy="34.315" r="1.729" fill="#fff"/>
              <circle cx="46.144" cy="32.999" r="2.226" fill="#fff"/>
              <circle cx="85.005" cy="39.489" r="4.6" fill="#fff"/>
              <circle cx="88.829" cy="43.534" r="1.143" fill="#fff"/>
              <circle cx="87.29" cy="47.948" r="2.635" fill="#fff"/>
              <circle cx="86.655" cy="46.034" r="2.001" fill="#fff"/>
              <circle cx="82.464" cy="35.88" r="2.539" fill="#fff"/>
              <circle cx="80.41" cy="35.897" r="2.835" fill="#fff"/>
              <circle cx="84.901" cy="48.868" r="2.511" fill="#fff"/>
              <circle cx="86.526" cy="54.666" r="0.924" fill="#fff"/>
              <circle cx="86.457" cy="53.639" r="2.372" fill="#fff"/>
              <circle cx="88.8" cy="47.312" r="2.391" fill="#fff"/>
              <circle cx="86.692" cy="44.398" r="2.914" fill="#fff"/>
              <circle cx="84.942" cy="54.979" r="3.888" fill="#fff"/>
              <circle cx="81.417" cy="61.602" r="1.829" fill="#fff"/>
              <circle cx="81.472" cy="59.417" r="1.547" fill="#fff"/>
              <circle cx="86.573" cy="52.502" r="1.919" fill="#fff"/>
              <circle cx="87.641" cy="50.152" r="1.115" fill="#fff"/>
              <circle cx="69.086" cy="32.433" r="3.189" fill="#fff"/>
              <circle cx="68.469" cy="29.642" r="1.889" fill="#fff"/>
              <circle cx="66.433" cy="32.307" r="3.063" fill="#fff"/>
              <circle cx="64.507" cy="24.316" r="1.137" fill="#fff"/>
              <circle cx="62.776" cy="25.242" r="1.689" fill="#fff"/>
              <circle cx="60.456" cy="25.676" r="1.096" fill="#fff"/>
              <circle cx="65.06" cy="23.529" r="1.373" fill="#fff"/>
              <circle cx="55.917" cy="25.731" r="1.579" fill="#fff"/>
              <circle cx="57.212" cy="23.678" r="1.042" fill="#fff"/>
              <circle cx="49.684" cy="23.896" r="0.939" fill="#fff"/>
              <circle cx="47.201" cy="25.167" r="1.988" fill="#fff"/>
              <circle cx="48.4" cy="22.625" r="1.284" fill="#fff"/>
              <circle cx="41.612" cy="24.121" r="1.484" fill="#fff"/>
              <circle cx="39.73" cy="25.18" r="1.028" fill="#fff"/>
              <path d="M59.171,84.693a2.151,2.151,0,0,1-1.81,2.12,1.983,1.983,0,0,1-.35.03,2.163,2.163,0,0,1-1.21-.37,2.126,2.126,0,0,1-.95-1.77v-.05a2.153,2.153,0,0,1,1.63-2.05,1.882,1.882,0,0,1,.53-.07,1.983,1.983,0,0,1,.35.03,1.62,1.62,0,0,1,.43.12,1.544,1.544,0,0,1,.44.23,1.755,1.755,0,0,1,.3.24,2.077,2.077,0,0,1,.39.53,1.009,1.009,0,0,1,.07.15.679.679,0,0,1,.07.2A2.076,2.076,0,0,1,59.171,84.693Z" fill="#fff"/>
              <circle cx="74.976" cy="78.622" r="1.263" fill="#fff"/>
              <circle cx="76.101" cy="76.598" r="1.356" fill="#fff"/>
              <circle cx="77.059" cy="71.742" r="2.485" fill="#fff"/>
              <circle cx="66.59" cy="65.754" r="2.323" fill="#fff"/>
              <circle cx="70.404" cy="60.973" r="2.219" fill="#fff"/>
              <circle cx="75.595" cy="57.227" r="2.037" fill="#fff"/>
              <circle cx="78.759" cy="65.355" r="2.658" fill="#fff"/>
              <circle cx="83.57" cy="46.523" r="1.72" fill="#fff"/>
              <circle cx="80.835" cy="41.899" r="2.41" fill="#fff"/>
              <circle cx="78.677" cy="38.672" r="1.728" fill="#fff"/>
              <circle cx="75.77" cy="42.887" r="2.579" fill="#fff"/>
              <circle cx="71.807" cy="35.516" r="1.384" fill="#fff"/>
            </g>
            <path d="M25.321,57.333a.2.2,0,0,1-.01.08,1.688,1.688,0,0,1-.27.88,1.467,1.467,0,0,1-.39.43,1.516,1.516,0,0,1-.5.3c-.02.01-.03.02-.05.01a1.46,1.46,0,0,1-.47.1.487.487,0,0,1-.12.01,1.5,1.5,0,0,1-.52-.09,1.776,1.776,0,0,1-1.29-1.72,1.81,1.81,0,0,1,1.81-1.81.986.986,0,0,1,.24.03,1.516,1.516,0,0,1,.72.25v.01a1.526,1.526,0,0,1,.52.49A1.757,1.757,0,0,1,25.321,57.333Z" fill="#fff"/>
            <path d="M25.041,53.963v.01a1.471,1.471,0,0,1-.11.56,1.245,1.245,0,0,1-.31.47.345.345,0,0,1-.12.12,1.542,1.542,0,0,1-.74.35.592.592,0,0,1-.19.01.127.127,0,0,1-.06.01,1.53,1.53,0,1,1,0-3.06,1.241,1.241,0,0,1,.27.03h.05a1.368,1.368,0,0,1,.38.15.91.91,0,0,1,.29.19.27.27,0,0,1,.08.07,1.51,1.51,0,0,1,.42.76A1.242,1.242,0,0,1,25.041,53.963Z" fill="#fff"/>
            <path d="M26.471,51.253a1.536,1.536,0,0,1-.19.74,1.275,1.275,0,0,1-.31.42,1.423,1.423,0,0,1-.51.32.9.9,0,0,1-.32.09,1.241,1.241,0,0,1-.27.03,2.112,2.112,0,0,1-.26-.02.451.451,0,0,1-.11-.03,1.124,1.124,0,0,1-.31-.1,1.414,1.414,0,0,1-.36-.24h-.01c-.01-.01-.02-.01-.02-.03a1.551,1.551,0,0,1-.54-1.18,1.59,1.59,0,0,1,1.18-1.54,1.213,1.213,0,0,1,.43-.07.468.468,0,0,1,.17.02.277.277,0,0,1,.13.01,1.122,1.122,0,0,1,.26.08h.01a1.078,1.078,0,0,1,.24.12.419.419,0,0,1,.14.09,1.507,1.507,0,0,1,.58.85.785.785,0,0,1,.05.22A1.635,1.635,0,0,1,26.471,51.253Z" fill="#fff"/>
            <path d="M26.161,48.663a1.149,1.149,0,0,1-.43.9.642.642,0,0,1-.13.1c-.05.03-.1.06-.16.09h-.01a.961.961,0,0,1-.29.08.86.86,0,0,1-.16.01.554.554,0,0,1-.18-.02.89.89,0,0,1-.36-.11,1.174,1.174,0,0,1,.54-2.22,1.151,1.151,0,0,1,.68.22.3.3,0,0,1,.07.05q.015,0,.03.03A1.123,1.123,0,0,1,26.161,48.663Z" fill="#fff"/>
            <path d="M24.221,59.423a.676.676,0,0,1-.55.66h-.01a.41.41,0,0,1-.11.01.67.67,0,0,1-.67-.67.647.647,0,0,1,.11-.37.678.678,0,0,1,.56-.3.17.17,0,0,1,.07.01.657.657,0,0,1,.48.27c0,.01.01.02.02.03A.719.719,0,0,1,24.221,59.423Z" fill="#fff"/>
            <path d="M25.621,62.5v.06a1.261,1.261,0,0,1-.05.28,1.084,1.084,0,0,1-.08.19,1.261,1.261,0,0,1-.4.46,1.207,1.207,0,0,1-.65.19,1.032,1.032,0,0,1-.3-.04,1.177,1.177,0,0,1-.71-.54,1.107,1.107,0,0,1-.17-.6,1.2,1.2,0,0,1,.53-.99c.01,0,.01,0,.02-.01a1.219,1.219,0,0,1,.63-.18A1.182,1.182,0,0,1,25.621,62.5Z" fill="#fff"/>
            <path d="M27.411,68.333a2.517,2.517,0,0,1-.09.67c-.03.09-.06.18-.09.26s-.08.17-.13.26a2.3,2.3,0,0,1-.66.76,2.846,2.846,0,0,1-.37.23,2.427,2.427,0,0,1-1.11.27,2.381,2.381,0,0,1-1.32-.39,2.458,2.458,0,0,1,1.07-4.51h.09a.86.86,0,0,1,.16-.01A2.4,2.4,0,0,1,26,66.1a2.648,2.648,0,0,1,.4.24,2.434,2.434,0,0,1,.99,1.69C27.4,68.133,27.411,68.233,27.411,68.333Z" fill="#fff"/>
            <path d="M31.011,75.183a2.046,2.046,0,0,1-.32,1.09.607.607,0,0,1-.07.1,2.017,2.017,0,0,1-1.65.84,1.087,1.087,0,0,1-.18-.01,2.033,2.033,0,0,1-1.85-2.02,2.012,2.012,0,0,1,.33-1.11,1.98,1.98,0,0,1,.94-.77,1.909,1.909,0,0,1,.76-.15,2.019,2.019,0,0,1,1.16.36,2.11,2.11,0,0,1,.23.19,1.979,1.979,0,0,1,.49.69A2.063,2.063,0,0,1,31.011,75.183Z" fill="#fff"/>
            <path d="M36.381,78.293a2.025,2.025,0,0,1-.26,1.01,2.091,2.091,0,0,1-1.01.98,2.168,2.168,0,0,1-.91.21h-.01a1.983,1.983,0,0,1-.35-.03c-.1-.02-.2-.04-.3-.07A2.207,2.207,0,0,1,32,78.5a1.477,1.477,0,0,1-.01-.21,1.935,1.935,0,0,1,.06-.49,1.829,1.829,0,0,1,.2-.54,2.245,2.245,0,0,1,.55-.67c.01-.01.02-.02.03-.02.09-.07.18-.13.27-.19a2.245,2.245,0,0,1,1.09-.29,2.082,2.082,0,0,1,.75.14,1.39,1.39,0,0,1,.28.12.01.01,0,0,1,.01.01,2.11,2.11,0,0,1,.65.54,1.688,1.688,0,0,1,.21.31A2.178,2.178,0,0,1,36.381,78.293Z" fill="#fff"/>
            <circle cx="39.662" cy="78.464" r="2.124" fill="#fff"/>
            <ellipse cx="25.996" cy="63.133" rx="1.13" ry="0.611" fill="#fff"/>
            <circle cx="53.135" cy="81.898" r="2.459" fill="#fff"/>
            <circle cx="52.626" cy="27.058" r="3.705" fill="#fff"/>
            <circle cx="60.903" cy="27.072" r="2.756" fill="#fff"/>
            <circle cx="58.502" cy="26.493" r="2.585" fill="#fff"/>
            <circle cx="57.183" cy="29.68" r="2.37" fill="#fff"/>
            <circle cx="62.983" cy="31.991" r="2.913" fill="#fff"/>
            <circle cx="60.101" cy="29.832" r="1.769" fill="#fff"/>
            <circle cx="68.067" cy="35.354" r="2.355" fill="#fff"/>
            <circle cx="69.07" cy="38.299" r="1.611" fill="#fff"/>
            <circle cx="73.475" cy="45.668" r="3.979" fill="#fff"/>
            <circle cx="70.15" cy="49.958" r="2.343" fill="#fff"/>
            <circle cx="72.663" cy="50.233" r="1.05" fill="#fff"/>
            <circle cx="44.959" cy="28.479" r="2.938" fill="#fff"/>
            <circle cx="48.791" cy="27.617" r="3.037" fill="#fff"/>
            <circle cx="47.32" cy="30.645" r="2.581" fill="#fff"/>
            <circle cx="50.242" cy="31.116" r="1.872" fill="#fff"/>
            <circle cx="49.266" cy="37.171" r="1.946" fill="#fff"/>
            <circle cx="56.241" cy="33.84" r="2.424" fill="#fff"/>
            <circle cx="50.467" cy="35.26" r="3.35" fill="#fff"/>
            <circle cx="38.904" cy="32.349" r="2.708" fill="#fff"/>
            <circle cx="36.915" cy="30.66" r="3.655" fill="#fff"/>
            <circle cx="34.477" cy="37.014" r="1.498" fill="#fff"/>
            <circle cx="34.342" cy="35.725" r="1.633" fill="#fff"/>
            <circle cx="36.236" cy="35.127" r="2.139" fill="#fff"/>
            <circle cx="38.833" cy="35.868" r="1.295" fill="#fff"/>
            <circle cx="32.743" cy="35.429" r="1.734" fill="#fff"/>
            <circle cx="32.134" cy="38.99" r="1.126" fill="#fff"/>
            <circle cx="53.044" cy="67.265" r="1.389" fill="#fff"/>
            <circle cx="61.769" cy="62.404" r="0.216" fill="#fff"/>
            <circle cx="63.921" cy="57.775" r="0.262" fill="#fff"/>
            <circle cx="65.308" cy="56.002" r="1.125" fill="#fff"/>
            <circle cx="66.946" cy="53.68" r="0.513" fill="#fff"/>
            <circle cx="68.548" cy="52.693" r="1.602" fill="#fff"/>
            <circle cx="69.804" cy="56.526" r="1.335" fill="#fff"/>
            <circle cx="63.189" cy="56.977" r="1.42" fill="#fff"/>
            <circle cx="60.161" cy="63.341" r="2.014" fill="#fff"/>
            <circle cx="57.593" cy="64.043" r="0.851" fill="#fff"/>
            <circle cx="51.944" cy="64.163" r="0.732" fill="#fff"/>
            <circle cx="49.033" cy="66.784" r="0.663" fill="#fff"/>
            <circle cx="45.49" cy="67.051" r="1.175" fill="#fff"/>
            <circle cx="42.714" cy="65.738" r="0.383" fill="#fff"/>
            <circle cx="42.969" cy="64.953" r="0.948" fill="#fff"/>
            <circle cx="42.063" cy="64.322" r="1.033" fill="#fff"/>
            <circle cx="40.239" cy="63.421" r="0.995" fill="#fff"/>
            <circle cx="37.917" cy="62.342" r="1.327" fill="#fff"/>
            <circle cx="33.976" cy="58.422" r="0.433" fill="#fff"/>
            <circle cx="32.78" cy="57.439" r="0.48" fill="#fff"/>
            <circle cx="32.982" cy="55.712" r="0.835" fill="#fff"/>
            <circle cx="32.499" cy="50.739" r="0.505" fill="#fff"/>
            <circle cx="64.786" cy="36.701" r="0.658" fill="#fff"/>
            <circle cx="62.953" cy="36.583" r="0.968" fill="#fff"/>
            <circle cx="63.658" cy="35.359" r="0.47" fill="#fff"/>
            <circle cx="64.05" cy="34.521" r="0.39" fill="#fff"/>
            <circle cx="66.592" cy="35.832" r="0.478" fill="#fff"/>
            <circle cx="67.454" cy="36.949" r="0.005" fill="#fff"/>
            <circle cx="66.76" cy="39.363" r="1.047" fill="#fff"/>
            <circle cx="67.937" cy="41.256" r="0.13" fill="#fff"/>
            <circle cx="67.671" cy="42.286" r="0.601" fill="#fff"/>
            <circle cx="68.597" cy="43.719" r="0.11" fill="#fff"/>
            <circle cx="68.831" cy="44.185" r="0.083" fill="#fff"/>
            <path d="M68.913,45.13v0Z" fill="#fff"/>
            <circle cx="68.698" cy="45.567" r="0.101" fill="#fff"/>
            <path d="M68.6,47v0Z" fill="#fff"/>
            <circle cx="68.533" cy="47.377" r="0.064" fill="#fff"/>
            <circle cx="35.084" cy="38.907" r="0.607" fill="#fff"/>
            <path d="M34.191,40.561h0Z" fill="#fff"/>
            <circle cx="32.106" cy="40.965" r="0.113" fill="#fff"/>
            <circle cx="36.422" cy="37.987" r="0.225" fill="#fff"/>
            <circle cx="38.311" cy="38.835" r="0.52" fill="#fff"/>
            <circle cx="60.496" cy="38.208" r="0.221" fill="#fff"/>
            <circle cx="60.547" cy="37.184" r="0.17" fill="#fff"/>
            <circle cx="61.188" cy="36.912" r="0.101" fill="#fff"/>
            <circle cx="61.896" cy="36.24" r="0.343" fill="#fff"/>
            <circle cx="61.784" cy="35.143" r="0.231" fill="#fff"/>
            <circle cx="61.212" cy="34.914" r="0.34" fill="#fff"/>
          </g>
          <circle cx="50.088" cy="65.028" r="0.613" fill="#fff"/>
          <circle cx="46.566" cy="65.198" r="0.754" fill="#fff"/>
          <circle cx="55.467" cy="64.919" r="1.034" fill="#fff"/>
          <circle cx="52.966" cy="66.207" r="0.852" fill="#fff"/>
          <circle cx="51.401" cy="67.089" r="1.137" fill="#fff"/>
          <circle cx="45.187" cy="68.096" r="1.628" fill="#fff"/>
          <circle cx="45.619" cy="66.332" r="1.701" fill="#fff"/>
          <circle cx="62.922" cy="61.785" r="1.636" fill="#fff"/>
          <circle cx="66.961" cy="55.11" r="1.654" fill="#fff"/>
          <circle cx="68.038" cy="52.042" r="1.458" fill="#fff"/>
          <circle cx="43.694" cy="31.115" r="6.394" fill="#fff"/>
          <circle cx="40.044" cy="25.648" r="1.969" fill="#fff"/>
        </g>
        <path d="M64.584,82.43a1.475,1.475,0,0,1-.44.071,1.369,1.369,0,0,1-.7-.184,1.408,1.408,0,0,1-1.819-1.982c-.132-.042-.265-.082-.392-.132s-.27-.09-.41-.14a1.22,1.22,0,0,1-.17-.07c-.328-.118-.645-.262-.959-.4-.006.025-.006.05-.013.075a1.333,1.333,0,0,1-.2.4,1.412,1.412,0,1,1-.9,2.675,1.317,1.317,0,0,1-1.353,1.274,1.578,1.578,0,0,1-.3-.03,1.456,1.456,0,0,1-.459.077,1.413,1.413,0,0,1,0-2.824,1.578,1.578,0,0,1,.3.03,1.42,1.42,0,0,1,.956.012,1.5,1.5,0,0,1,.194-.64L57.8,80.6a1.5,1.5,0,0,1-.978-.991,1.559,1.559,0,0,1,.231-1.523c-.11-.08-.223-.158-.331-.24a1.323,1.323,0,0,1-.609.916,1.4,1.4,0,0,1-.461.911,1.338,1.338,0,0,1-1.361,1.451,1.375,1.375,0,0,1-1.31-1.8A1.43,1.43,0,0,1,51.6,77.915c0-.012,0-.023,0-.035a1.38,1.38,0,0,1-.676.168,1.425,1.425,0,0,1-1.03-2.36,1.579,1.579,0,0,1-.013-1.47,1.516,1.516,0,0,1-.333-.105,2.276,2.276,0,0,1-.743-.7,1.11,1.11,0,0,1-.183-.876A1.442,1.442,0,0,1,48.3,70a1.424,1.424,0,0,1,.5-2.734,1.385,1.385,0,0,1,1.293,1.871,1.356,1.356,0,0,1,.65-.166h.007c-.02-.062-.045-.119-.065-.18-.15-.48-.28-.97-.4-1.47-.14-.55-.27-1.12-.37-1.71q-.105-.525-.18-1.08c-.14-.82-.24-1.67-.31-2.55-.01-.06-.01-.13-.02-.2a17.863,17.863,0,0,1-1.12-2.64,19.187,19.187,0,0,1-.7-2.88,25.753,25.753,0,0,1,.18-8.65,44.05,44.05,0,0,1,1.05-4.57c.12-.43.25-.87.38-1.3a15.154,15.154,0,0,1-1-1.86c-.04-.08-.07-.16-.11-.24v-.01c-.2-.47-.38-.94-.54-1.43-.041-.124-.072-.252-.106-.378a1.359,1.359,0,0,1-.723.2,1.413,1.413,0,0,1,0-2.824,1.565,1.565,0,0,1,.172.017c0-.028-.01-.055-.013-.082a.037.037,0,0,1-.01-.03c-.013-.108-.013-.221-.025-.33a1.412,1.412,0,1,1-.6-2.7,1.45,1.45,0,0,1,.467.079c0-.427.007-.854.035-1.288v-.05c0-.031.005-.061.007-.092A1.216,1.216,0,0,1,46.4,30.5a1.361,1.361,0,0,1-1.345,1.644,1.28,1.28,0,0,1-1.156-.631,1.3,1.3,0,0,1-1.023.442A1.4,1.4,0,0,1,41.6,30.02a1.431,1.431,0,0,1,.706-2.638,1.4,1.4,0,0,1,1.274,1.939,1.255,1.255,0,0,1,.45.445,1.3,1.3,0,0,1,1.023-.441,1.32,1.32,0,0,1,.892.317,1.363,1.363,0,0,1,1.1-1.621c.047-.284.1-.576.151-.868.03-.15.06-.3.09-.46.015-.07.029-.144.044-.215A1.3,1.3,0,0,1,46.327,25.4a1.532,1.532,0,0,1-.231.023,1.413,1.413,0,0,1,0-2.824,1.3,1.3,0,0,1,1.334,1.111,1.414,1.414,0,0,1,.569.017c.015-.055.03-.109.042-.163s.03-.11.05-.17c.007-.025.016-.051.023-.076a1.41,1.41,0,1,1,.84-2.661c.141-.409.279-.818.437-1.233.04-.13.09-.26.14-.39l.3-.78c.1-.25.2-.51.3-.76a3.622,3.622,0,0,0-.42.36,1.291,1.291,0,0,0-2.41.29,3.98,3.98,0,0,0-5.29.29,3.9,3.9,0,0,0-.93,1.47c-.08.04-.15.07-.23.11a2.42,2.42,0,0,0-2.59.21c-3.17-2.73-7.23-5.54-7.94-4.91l-.26.29c-3.67,4.37-3.08,9.97.69,16.46a2.575,2.575,0,0,0-1.04,2.07,2.369,2.369,0,0,0,.16.88,1.77,1.77,0,0,0-1.17,1.68,1.71,1.71,0,0,0,.45,1.17.3.3,0,0,0-.05.13,2.152,2.152,0,0,0-1.13,1.9v.06a1.03,1.03,0,0,0-.35-.06,1.077,1.077,0,0,0-.3,2.11.163.163,0,0,0,0,.07.09.09,0,0,0-.05-.01.33.33,0,1,0,0,.66.241.241,0,0,0,.18-.07.418.418,0,0,0,.08.12,2.858,2.858,0,0,0-.98,2.16c0,.12.01.24.02.35-.09.23-.18.46-.26.69a.5.5,0,0,0-.35.47.528.528,0,0,0,.07.26c-.1.27-.2.53-.3.8a1.723,1.723,0,0,0-.07.21,1.151,1.151,0,0,0-.68-.22,1.174,1.174,0,0,0-.54,2.22,1.59,1.59,0,0,0-1.18,1.54,1.551,1.551,0,0,0,.54,1.18c-.01.01-.02.02-.02.03a1.241,1.241,0,0,0-.27-.03,1.53,1.53,0,1,0,0,3.06.127.127,0,0,0,.06-.01.406.406,0,0,0,.19.04.037.037,0,0,0-.01.03.986.986,0,0,0-.24-.03,1.81,1.81,0,0,0-1.81,1.81,1.776,1.776,0,0,0,1.29,1.72.647.647,0,0,0-.11.37.67.67,0,0,0,.67.67.41.41,0,0,0,.11-.01,2.626,2.626,0,0,0-.05.49,2.422,2.422,0,0,0,.18.94,1.2,1.2,0,0,0-.53.99,1.107,1.107,0,0,0,.17.6,2.188,2.188,0,0,0-.92,1.79,2.159,2.159,0,0,0,.76,1.66,2.452,2.452,0,0,0,.37,3.84,2.01,2.01,0,0,0,1.98,1.66,1.548,1.548,0,0,0,.22-.01,2.61,2.61,0,0,0,.77,1.55,2.532,2.532,0,0,0,.66.48,2.012,2.012,0,0,0-.33,1.11,2.033,2.033,0,0,0,1.85,2.02,2.193,2.193,0,0,0,2.11,1.6h.02a1.964,1.964,0,0,0,1.94,1.71,1.907,1.907,0,0,0,.68-.12c.1.03.2.05.3.07a3.414,3.414,0,0,0,.9,2.01,1.419,1.419,0,0,0-.33,2.48,1.461,1.461,0,0,0,.42,1.03,1.408,1.408,0,0,0,1.42.36l.85,2.43c-1.51,5.14,1.04,9.72,3.66,6.61l-.04-3.91h.13v-3.91a1.355,1.355,0,0,0,.38-.95,1.379,1.379,0,0,0-.38-.96v-.21a1.992,1.992,0,0,0,.42.04,2.125,2.125,0,0,0,2.08,1.71,2.082,2.082,0,0,0,1.18-.36,1.31,1.31,0,0,0,1.21-1.31,1,1,0,0,0-.07-.39,1.188,1.188,0,0,0,.35-.25.789.789,0,0,0,.12-.15c.55.09,1.11.16,1.67.21l.37,1.07c-1.57,5.2,1,9.87,3.63,6.73l-.06-6.33a2.2,2.2,0,0,0,.92-.6,3.049,3.049,0,0,0,2.11.83,3.118,3.118,0,0,0,1.02-.17,2.163,2.163,0,0,0,1.21.37,1.983,1.983,0,0,0,.35-.03v2.92l-.62,6.78c2.43,3.44,5.48-1.36,4.05-6.86l1.1-3.14a1.2,1.2,0,0,0,.59.15,1.319,1.319,0,0,0,.27-2.61l.01-.02A2.319,2.319,0,0,0,64.584,82.43ZM46,17.625a1.412,1.412,0,0,1,0,2.823A1.412,1.412,0,0,1,46,17.625ZM36.481,34.564H36.1a1.412,1.412,0,0,1,0-2.824h.379a1.412,1.412,0,0,1,0,2.824ZM40.6,23.006a1.413,1.413,0,0,1,0-2.824A1.413,1.413,0,0,1,40.6,23.006Zm7.2,55.611a1.413,1.413,0,0,1,0-2.824A1.413,1.413,0,0,1,47.8,78.617Zm5.637,5.731a1.285,1.285,0,0,1-1.287-.924,1.323,1.323,0,0,1-1.113-1.311,1.489,1.489,0,0,1-.4.056,1.412,1.412,0,0,1,0-2.823A1.321,1.321,0,0,1,52,80.681a1.489,1.489,0,0,1,.4-.056,1.284,1.284,0,0,1,1.287.924A1.416,1.416,0,0,1,53.439,84.348Z" fill="#aeddd6" opacity="0.14" style="mix-blend-mode: multiply"/>
        <path d="M71.021,81.383l-.07,3.23-.07,3.37-.13,5.99c-.68.21-1.44-.1-2.14-1.09l.62-6.77v-4.1a4.623,4.623,0,0,1-.65.05,4.433,4.433,0,0,1-1.46-.25.684.684,0,0,1-1.22-.43c0-.05.01-.1.01-.15a.34.34,0,0,0,.1.01c.41.05.83.09,1.25.11.64.04,1.29.07,1.97.07.55,0,1.12-.01,1.7-.04Z" fill="#aeddd6" opacity="0.14" style="mix-blend-mode: multiply"/>
      </g>
    </g>
  </g>
</svg>
