<svg xmlns="http://www.w3.org/2000/svg" width="112.892" height="112.892" viewBox="0 0 112.892 112.892">
  <title>Asset 13horse</title>
  <g style="isolation: isolate">
    <g>
      <rect x="0.125" y="0.125" width="112.642" height="112.642" rx="8.069" fill="#e2e3e8" stroke="#f9fcff" stroke-miterlimit="10" stroke-width="0.25"/>
      <g>
        <g>
          <path d="M48.207,39.275a28.227,28.227,0,0,1,4.05,12.1H43A32.848,32.848,0,0,1,48.207,39.275Z" fill="#cccbcb"/>
          <path d="M48.209,39.225a26.328,26.328,0,0,1,1.612,2.842,30.229,30.229,0,0,1,1.285,2.968,25.081,25.081,0,0,1,1.468,6.317l.033.337-.351.007L43,51.873l-.6.011.12-.611a27.356,27.356,0,0,1,2.082-6.38,23.7,23.7,0,0,1,1.6-2.949A19.059,19.059,0,0,1,48.209,39.225Zm0,.1c-.467.919-1.041,1.925-1.507,2.9-.473.99-.907,1.994-1.311,3.007a49.617,49.617,0,0,0-1.907,6.251l-.484-.6,9.26.177-.317.343a26.216,26.216,0,0,0-1.2-6.241,30.075,30.075,0,0,0-1.138-2.99C49.182,41.2,48.65,40.22,48.205,39.325Z" fill="#666667"/>
        </g>
        <g>
          <g>
            <g>
              <path d="M71.949,39.054c3.706-1.015,6.951-1.968,10.473-.63a10.479,10.479,0,0,0,1.888-.33,3.261,3.261,0,0,0,1.27-5.613c-8.78-7.392-12.856-18.453-1.326-20.962-6.093,4.232,8.55,14.35,16.516,19.9.963.671,2.3,11.383-2.832,14.023-5.641-.45-15.471,8.78-16.441,10.785L78.38,62.677,69.953,43.2A3.043,3.043,0,0,1,71.949,39.054Z" fill="#8d8d8d"/>
              <path d="M84.085,11.878c-1.055,2.086-2.2,4.119-3.334,6.157l.044-.277a14.321,14.321,0,0,0,3.019,5.809,26.234,26.234,0,0,0,5.1,4.329,13.446,13.446,0,0,1,4.635,5,13.466,13.466,0,0,1,1.225,6.776,4.537,4.537,0,0,1-1.633,3.231,15.285,15.285,0,0,1-2.961,1.9c-2.051,1.065-4.189,1.839-6.147,2.874a11.351,11.351,0,0,0-4.8,4.333,23.272,23.272,0,0,0-2.348,6.283l-.1-.019a19.732,19.732,0,0,1,1.8-6.622,11.735,11.735,0,0,1,4.952-4.877c2.029-1.143,4.181-1.91,6.189-2.876,1.958-.974,4.111-2.1,4.274-4.314a12.506,12.506,0,0,0-.783-6.531,8.938,8.938,0,0,0-1.886-2.74,15.494,15.494,0,0,0-2.674-2.045,22.692,22.692,0,0,1-5.516-4.122,14.037,14.037,0,0,1-3.073-6.22l-.035-.155.079-.121c1.271-1.956,2.536-3.916,3.888-5.822Z" fill="#49494a"/>
              <path d="M78.493,60.855c.7-5.71,3.64-11.36,8.62-14.22,2.55-1.47,5.48-2.15,8.06-3.55s4.93-3.92,4.79-6.86a7.843,7.843,0,0,0-2.11-4.55c-2.51-2.91-6.01-4.74-9.04-7.1a31.3,31.3,0,0,1-6.97-7.55c.29-.68.57-1.37.85-2.05.36-.86.71-1.72,1.07-2.58.03-.08.06-.15.09-.23l.12-.27c0-.02.01-.03.02-.05a.185.185,0,0,0,.02-.07,2.288,2.288,0,0,0,.1-.23" fill="none" stroke="#49494a" stroke-miterlimit="10"/>
              <path d="M74.983,55.155c.01-.1.01-.19.02-.29a11.72,11.72,0,0,1,3.39-6.96,18.885,18.885,0,0,1,6.88-4.3c2.15-.83,4.59-1.52,5.84-3.46,1.44-2.21.69-5.28-.94-7.36s-3.98-3.44-6.12-4.99-4.24-3.46-4.93-6.01a10.426,10.426,0,0,1-.16-3.94,3.371,3.371,0,0,1,.21-.94,3.611,3.611,0,0,1,.93-1.13c1.03-.95,2.05-1.9,3.08-2.85.16-.14.32-.29.48-.43a.943.943,0,0,1,.1-.1" fill="none" stroke="#49494a" stroke-miterlimit="10"/>
              <path d="M69.453,43.345a3.855,3.855,0,0,1,.32-.72,6.857,6.857,0,0,1,4.13-3.12,22.7,22.7,0,0,1,6.05-.6,15.1,15.1,0,0,0,5.98-1.01,1.772,1.772,0,0,0,.77-.57,1.848,1.848,0,0,0,.2-.96,8.267,8.267,0,0,0-.32-3.1,8.89,8.89,0,0,0-2.09-2.94c-.08-.09-.16-.17-.25-.26-1.61-1.69-3.22-3.4-4.83-5.1-.15-.16-.3-.31-.44-.47-.08-.08-.16-.16-.23-.24" fill="none" stroke="#49494a" stroke-miterlimit="10"/>
              <path d="M77.663,16.085c2.03-1.38,4.23-2.81,6.24-4.19a.405.405,0,0,0,.09-.05v-.01c.09-.05.17-.11.26-.17l-.28.22v.01c-.05.04-.11.08-.16.12-1.92,1.54-3.85,3.08-5.77,4.61-.01.83-.02,1.67-.03,2.5a16.146,16.146,0,0,0,.13,2.87,8.459,8.459,0,0,0,.83,2.5,13.724,13.724,0,0,0,3.9,4.55c.45.35.91.68,1.37,1.02a18.471,18.471,0,0,1,3.18,2.66c1.29,1.47,2.07,3.61,1.3,5.4-.75,1.78-2.76,2.68-4.66,3.03s-3.88.31-5.69.99a11.384,11.384,0,0,0-3.67,2.44c-1.22,1.13-2.39,2.71-1.97,4.32" fill="none" stroke="#49494a" stroke-miterlimit="10"/>
              <path d="M48.207,39.275A19.652,19.652,0,0,1,49.3,48.937h2.511A15.994,15.994,0,0,0,48.207,39.275Z" fill="#666667" opacity="0.14" style="mix-blend-mode: multiply"/>
              <polygon points="80.291 65.345 70.186 94.208 67.407 94.145 67.407 65.345 80.291 65.345" fill="#8a5936"/>
              <polygon points="68.417 68.882 58.312 97.745 55.533 97.682 55.533 68.882 68.417 68.882" fill="#8a5936"/>
              <polygon points="26.143 68.882 36.249 97.745 39.028 97.682 39.028 68.882 26.143 68.882" fill="#8a5936"/>
              <polygon points="36.948 65.345 47.053 94.208 49.832 94.145 49.832 65.345 36.948 65.345" fill="#8a5936"/>
            </g>
            <path d="M35.2,27.877C32.672,29.556,25.746,17.463,27.045,16c-3.068,9.37-2,16.791,4.078,21.853Z" fill="#8a5936" stroke="#8b4920" stroke-miterlimit="10" stroke-width="0.5"/>
            <path d="M59.741,27.877C62.269,29.556,69.2,17.463,67.9,16c3.069,9.37,2,16.791-4.077,21.853Z" fill="#8a5936" stroke="#8b4920" stroke-miterlimit="10" stroke-width="0.5"/>
            <path d="M80.687,62.228a26.721,26.721,0,0,0-39.7-23.414A26.779,26.779,0,1,0,61.6,87.89,26.779,26.779,0,0,0,80.687,62.228Z" fill="#8a5936"/>
            <g>
              <path d="M58.88,25.366l-21.852-.252c-6.663,12.476-12.191,24.7-15.79,36.5L40.943,76.4l13.39.505,16.3-11.621A58.988,58.988,0,0,0,58.88,25.366Z" fill="#8a5936"/>
              <path d="M58.869,25.388l-10.946-.022-10.9-.074.159-.094q-2.323,4.4-4.507,8.872c-1.467,2.975-2.9,5.968-4.247,9a168.681,168.681,0,0,0-7.106,18.577l-.032-.1c3.261,2.493,6.577,4.915,9.864,7.374l9.885,7.346-.092-.033,13.391.443-.14.042L70.487,65.085l-.1.182A63.184,63.184,0,0,0,68.2,44.307,61.175,61.175,0,0,0,58.869,25.388Zm.023-.044a60.881,60.881,0,0,1,5.692,8.988A57.845,57.845,0,0,1,68.56,44.2a58.72,58.72,0,0,1,2.1,10.441A65.125,65.125,0,0,1,70.869,65.3l-.006.116-.095.067-16.3,11.609-.064.045-.077,0-13.387-.567-.052,0-.041-.031L31.025,69.1c-3.281-2.467-6.534-4.972-9.841-7.405l-.051-.037.019-.062a167.077,167.077,0,0,1,6.942-18.673q1.995-4.566,4.185-9.045,2.22-4.461,4.591-8.844l.052-.1.108,0,10.955.178Z" fill="#8b4920"/>
            </g>
            <path d="M58.758,71.258c-5.618,4.935-16.051,4.85-23.262-.95A3.018,3.018,0,0,1,32.6,67.17l0-.077,29.369,1.2h0A3.093,3.093,0,0,1,58.758,71.258Z" fill="#888"/>
          </g>
          <g>
            <path d="M49.773,94.224l-.209,2.538a.322.322,0,0,1-.319.3l-8.013.077C37.734,94.2,43.957,91.339,49.773,94.224Z"/>
            <path d="M55.533,97.774v2.547a.324.324,0,0,0,.294.322l7.98.731C67.533,98.733,61.565,95.374,55.533,97.774Z"/>
            <path d="M67.407,94.145v2.547a.323.323,0,0,0,.294.322l7.979.731C79.407,95.1,73.438,91.745,67.407,94.145Z"/>
            <path d="M38.715,96.866,38.507,99.4a.322.322,0,0,1-.319.3l-8.013.076C26.677,96.841,32.9,93.981,38.715,96.866Z"/>
          </g>
        </g>
        <g opacity="0.51">
          <path d="M52,57.749c1.268-1.759,5.643-1.4,5.626-3.341a1.056,1.056,0,0,0-1.289-.972C53.661,54.011,52.772,55.84,52,57.749Z" fill="#333"/>
          <path d="M52.02,57.705a1.732,1.732,0,0,1,.248-.357,3.345,3.345,0,0,1,.376-.308,5.25,5.25,0,0,1,.844-.471c.585-.266,1.193-.465,1.782-.677a5.516,5.516,0,0,0,1.6-.755.725.725,0,0,0,.192-1.1.679.679,0,0,0-.534-.174,2.694,2.694,0,0,0-.36.1,3.553,3.553,0,0,0-.409.148,5.735,5.735,0,0,0-1.466.836,6.812,6.812,0,0,0-1.2,1.266A16.908,16.908,0,0,1,52.02,57.705Zm-.048.088a6.149,6.149,0,0,1,.522-1.928,5.189,5.189,0,0,1,1.147-1.672,4.554,4.554,0,0,1,1.8-1.017,4.358,4.358,0,0,1,.494-.125,2.842,2.842,0,0,1,.564-.083,1.523,1.523,0,0,1,1.157.526,1.455,1.455,0,0,1-.389,2.162,5.98,5.98,0,0,1-1.852.715C54.183,56.7,52.952,56.834,51.972,57.793Z"/>
        </g>
        <path d="M25.043,60.212c14.391,12.6,29.307,14.016,44.811,2.937C70.707,46.475,33.522,43.065,25.043,60.212Z" fill="#cccbcb"/>
        <g opacity="0.51">
          <path d="M52,57.749c1.268-1.759,5.643-1.4,5.626-3.341a1.056,1.056,0,0,0-1.289-.972c-2.672.575-3.561,2.4-4.337,4.313" fill="#333"/>
          <path d="M51.955,57.72a3.581,3.581,0,0,1,1.533-1.151c.585-.266,1.193-.465,1.782-.677a5.516,5.516,0,0,0,1.6-.755.725.725,0,0,0,.192-1.1.679.679,0,0,0-.534-.174,2.694,2.694,0,0,0-.36.1,3.553,3.553,0,0,0-.409.148,5.735,5.735,0,0,0-1.466.836,11.582,11.582,0,0,0-2.256,2.821l-.092-.038a6.25,6.25,0,0,1,1.691-3.537,4.554,4.554,0,0,1,1.8-1.017,4.358,4.358,0,0,1,.494-.125,2.842,2.842,0,0,1,.564-.083,1.523,1.523,0,0,1,1.157.526,1.455,1.455,0,0,1-.389,2.162,5.98,5.98,0,0,1-1.852.715c-.617.151-1.228.281-1.815.477a3.394,3.394,0,0,0-1.562.93Z"/>
        </g>
        <g opacity="0.51">
          <path d="M43.9,57.749c-1.268-1.759-5.643-1.4-5.626-3.341a1.056,1.056,0,0,1,1.289-.972c2.672.575,3.561,2.4,4.337,4.313" fill="#333"/>
          <path d="M43.854,57.778a3.4,3.4,0,0,0-1.561-.93c-.588-.2-1.2-.326-1.816-.477a5.98,5.98,0,0,1-1.852-.715,1.455,1.455,0,0,1-.389-2.162,1.523,1.523,0,0,1,1.157-.526,2.842,2.842,0,0,1,.564.083,4.358,4.358,0,0,1,.494.125,4.547,4.547,0,0,1,1.8,1.017,6.25,6.25,0,0,1,1.691,3.537l-.092.038a11.582,11.582,0,0,0-2.256-2.821,5.735,5.735,0,0,0-1.466-.836,3.553,3.553,0,0,0-.409-.148,2.694,2.694,0,0,0-.36-.1.679.679,0,0,0-.534.174.725.725,0,0,0,.192,1.1,5.51,5.51,0,0,0,1.606.755c.588.212,1.2.411,1.781.677a3.581,3.581,0,0,1,1.533,1.151Z"/>
        </g>
        <g>
          <ellipse cx="57.958" cy="41.849" rx="3.149" ry="4.942" fill="#3e2412"/>
          <path d="M61.157,41.849a8,8,0,0,1-.659,3.156,4.088,4.088,0,0,1-.953,1.358,2.59,2.59,0,0,1-1.587.678,2.647,2.647,0,0,1-1.652-.6,4.329,4.329,0,0,1-1.084-1.334,7.731,7.731,0,0,1-.151-6.592,4.391,4.391,0,0,1,1.087-1.435,2.881,2.881,0,0,1,1.8-.672,2.688,2.688,0,0,1,1.733.752,4.188,4.188,0,0,1,.951,1.459A8.5,8.5,0,0,1,61.157,41.849Zm-.1,0a5.768,5.768,0,0,0-.89-2.985,2.768,2.768,0,0,0-2.209-1.457,2.626,2.626,0,0,0-2.007,1.561,6.489,6.489,0,0,0-.742,2.881,6.59,6.59,0,0,0,.591,2.959,2.71,2.71,0,0,0,2.158,1.733,2.851,2.851,0,0,0,2.353-1.632A6.11,6.11,0,0,0,61.057,41.849Z" fill="#666667"/>
        </g>
        <ellipse cx="57.484" cy="42.038" rx="2.675" ry="4.753" fill="#cccbcb" stroke="#666667" stroke-miterlimit="10" stroke-width="0.25"/>
        <ellipse cx="56.958" cy="43.141" rx="1.878" ry="3.568" transform="matrix(0.967, -0.254, 0.254, 0.967, -9.092, 15.887)" fill="none" stroke="#666667" stroke-miterlimit="10" stroke-width="0.25"/>
        <ellipse cx="56.958" cy="43.141" rx="1.878" ry="3.568" transform="matrix(0.967, -0.254, 0.254, 0.967, -9.092, 15.887)" fill="#fff" stroke="#666667" stroke-miterlimit="10" stroke-width="0.25"/>
        <ellipse cx="57.309" cy="44.574" rx="1.747" ry="2.093" transform="matrix(0.967, -0.254, 0.254, 0.967, -9.444, 16.023)"/>
        <g>
          <ellipse cx="38.068" cy="42.496" rx="2.195" ry="3.445" fill="#3e2412"/>
          <path d="M35.923,42.5a3.967,3.967,0,0,0,.533,2.118,1.945,1.945,0,0,0,1.612,1.077,1.812,1.812,0,0,0,1.417-1.178,4.488,4.488,0,0,0,.378-2.017,4.383,4.383,0,0,0-.529-1.939,1.732,1.732,0,0,0-1.266-1.006,1.85,1.85,0,0,0-1.467.9A3.727,3.727,0,0,0,35.923,42.5Zm-.1,0a6.494,6.494,0,0,1,.3-2.289,2.983,2.983,0,0,1,.655-1.077,1.974,1.974,0,0,1,1.288-.579,2.173,2.173,0,0,1,1.355.5,3.165,3.165,0,0,1,.79,1.052,5.252,5.252,0,0,1,.45,2.394,5.186,5.186,0,0,1-.6,2.315,2.365,2.365,0,0,1-1.994,1.38,2.192,2.192,0,0,1-1.8-1.481A6.125,6.125,0,0,1,35.823,42.5Z" fill="#666667"/>
        </g>
        <ellipse cx="38.398" cy="42.628" rx="1.865" ry="3.313" fill="#cccbcb" stroke="#666667" stroke-miterlimit="10" stroke-width="0.25" opacity="0.75"/>
        <ellipse cx="38.765" cy="43.396" rx="2.487" ry="1.309" transform="translate(-13.056 69.864) rotate(-75.282)" fill="none" stroke="#666667" stroke-miterlimit="10" stroke-width="0.25" opacity="0.75"/>
        <ellipse cx="38.765" cy="43.396" rx="2.487" ry="1.309" transform="translate(-13.056 69.864) rotate(-75.282)" fill="#fff" stroke="#666667" stroke-miterlimit="10" stroke-width="0.25" opacity="0.75"/>
        <ellipse cx="38.521" cy="44.396" rx="1.459" ry="1.218" transform="translate(-14.205 70.373) rotate(-75.282)" opacity="0.75"/>
        <path d="M83.183,12.925C82.289,20.888,89.19,29.783,94.442,38.9c-7.731.236-13.528,5.253-17.607,14.513L68.417,41.849l5.432-3.308c4.359-.084,8.668-.183,10.784-.938,4.318-1.538,2.09-4.75-.39-7.538C74.592,22.046,77.628,17.173,83.183,12.925Z" fill="#666667" opacity="0.14" style="mix-blend-mode: multiply"/>
        <g style="mix-blend-mode: multiply">
          <path d="M43.759,16.579a1.074,1.074,0,0,1,1.2-.684,3.3,3.3,0,0,1,1.349.571A6.519,6.519,0,0,1,48.3,18.6l.018.029v.047l-.017-.066a11.464,11.464,0,0,1,1.35,3.689A19.778,19.778,0,0,1,50,26.215a16.726,16.726,0,0,1-1.97,7.54l-.046-.02a26.193,26.193,0,0,0,1.06-3.72A25.258,25.258,0,0,0,49.5,26.2a18.892,18.892,0,0,0-.215-3.837,11.135,11.135,0,0,0-1.212-3.623l-.018-.033v-.043l.017.066A6.394,6.394,0,0,0,46.216,16.6a3.175,3.175,0,0,0-1.272-.6,1,1,0,0,0-1.137.593Z" fill="#49494a"/>
        </g>
        <g style="mix-blend-mode: multiply">
          <path d="M46.135,36.937s0,0,0,0,.022.041.021.033l-.022-.047c.064-.2.129-.386.2-.561l.026-.033.008-.012-.024.029a1.191,1.191,0,0,1,.121-.31.633.633,0,0,1,.331-.183l.013-.015a.187.187,0,0,1,.055,0l.036.036a.621.621,0,0,1,.015.075l.012-.015a.586.586,0,0,1-.028.377c-.051.1-.162.166-.239.25l-.024.029-.012.008.026-.033a5.069,5.069,0,0,1-.475.4l-.022-.047c0-.008.041.02.029.042a.044.044,0,0,1-.012.015Z" fill="#49494a"/>
        </g>
        <path d="M50.427,14.325C49.772,14.787,46,38.237,46,38.237c-1.265,3.91-1.349,7.569,1.293,10.65-2.327,6.589-1.545,13.763,2.467,21.543l9.006-1.439c-4.8,2.288-7.149,4.124-6.383,5.389-1.274.832-1.546,1.634-.572,2.4,1.1,7.516,5.1,11.749,15.6,8.591C45.263,96.856,22.915,89.239,21.875,62.39c0,0-.791-.272-.637-.771s9.587-24.228,9.587-24.228C26.143,31.685,23.541,23.657,27.045,16c1.54,5.027,3.608,9.32,6.894,11.927l1.684-.135C37.755,17.379,42.6,12.707,50.427,14.325Z" fill="#666667" opacity="0.14" style="mix-blend-mode: multiply"/>
        <path d="M60.247,88.6c-.132.5-2.625,8.91-2.625,8.91l-2.089.269V90.546Z" fill="#666667" opacity="0.14" style="mix-blend-mode: multiply"/>
        <polygon points="32.01 85.627 35.579 95.833 37.827 96.472 36.165 87.991 32.01 85.627" fill="#666667" opacity="0.14" style="mix-blend-mode: multiply"/>
        <path d="M46.959,93.323s-1.162-1.97-.675-2.048,2.715,0,2.715,0v2.6Z" fill="#666667" opacity="0.14" style="mix-blend-mode: multiply"/>
        <path d="M75.589,75.079c-1.413,4.252-4.384,7.529-8.182,10.29v8.776s2.257-.119,1.852-.563C68.742,93.014,75.012,75.078,75.589,75.079Z" fill="#666667" opacity="0.14" style="mix-blend-mode: multiply"/>
        <path d="M55.664,78.1c-.411-.906-.241-2.484-1.194-2.712-2.588-.618-.42-2.536-1.5-3.675C44.41,62.671,46.958,56.233,47.307,50.3a4.244,4.244,0,0,1-1.382-.062.948.948,0,0,1-.657-1.156c.485-1.416,1.12-2.773,1.658-4.168a.979.979,0,0,1,.172-.272c-.825-6.924-3.1-12.089,1.689-18.209l-10.428-.121a207.46,207.46,0,0,0-15.79,36.506l.659.494c-.659,24.246,21.1,35.609,43.065,24.515Z" fill="#666667" opacity="0.14" style="mix-blend-mode: multiply"/>
        <path d="M64.009,101.247q1.464-1.827-.54-2.733A2.1,2.1,0,0,1,64.009,101.247Z" fill="#fff"/>
        <path d="M29.887,99.589q-1.464-1.826.54-2.733A2.1,2.1,0,0,0,29.887,99.589Z" fill="#fff"/>
        <path d="M40.924,97q-1.464-1.825.54-2.733A2.1,2.1,0,0,0,40.924,97Z" fill="#fff"/>
        <path d="M46.2,37.165c.01.05.02.11.03.16.05-.17.1-.34.15-.5.04-.12.08-.24.11-.36l.01-.01a8.582,8.582,0,0,1,1.06-2.19c.01-.01.01-.01.01-.02l.01-.01a4.006,4.006,0,0,1,.42-.49,3.16,3.16,0,0,1,1.39-.84c.3.01.63.01,1,.02.8.02,1.76.05,2.92.07,1.18.03,2.56.06,4.16.1,1.21-.61,1.82-1.46,1.01-2.84,1.66-1.71,1.56-4.36.37-7.02-1.95-4.32-6.8-8.66-11.68-8.99a8.179,8.179,0,0,0-1.91.08A8.3,8.3,0,0,0,41,16.445a12.274,12.274,0,0,0-1.28,1.38v.01a14.488,14.488,0,0,0-1.49,2.3,28.989,28.989,0,0,0-2.61,7.66l2.97-1.9c4.2,2.02,6.56,5.87,7.56,11.05,0,0,.01,0,0,.01" fill="#b4bbb4" stroke="#666667" stroke-miterlimit="10"/>
        <path d="M75.851,97.505q1.464-1.827-.54-2.733A2.1,2.1,0,0,1,75.851,97.505Z" fill="#fff"/>
        <path d="M45.277,14.305a8.995,8.995,0,0,1,3.2,4.945,18.3,18.3,0,0,1,.743,5.933,25.136,25.136,0,0,1-.849,5.93,34.542,34.542,0,0,1-2.052,5.611l-.046-.018c.578-1.9,1.181-3.788,1.613-5.714a32.964,32.964,0,0,0,.934-5.824,17.952,17.952,0,0,0-.583-5.848,8.852,8.852,0,0,0-2.986-4.975Z" fill="#666667"/>
        <path d="M47.183,14.222a25.29,25.29,0,0,1,4.851,3.05,2.314,2.314,0,0,1,1.026,1.076c.156.487.227.942.337,1.414a21.75,21.75,0,0,1,.45,2.853,14.265,14.265,0,0,1-.658,5.746A10.255,10.255,0,0,1,51.9,30.978a5.068,5.068,0,0,1-2.23,1.83l-.021-.046a7.423,7.423,0,0,0,3.061-4.553,16.338,16.338,0,0,0,.735-5.567,21.573,21.573,0,0,0-.369-2.817c-.095-.46-.165-.955-.29-1.381s-.514-.679-.9-.97a25.178,25.178,0,0,0-4.723-3.206Z" fill="#666667"/>
        <path d="M50.128,15.84a3.592,3.592,0,0,1,2.652.638,7.049,7.049,0,0,1,1.933,2A8.469,8.469,0,0,1,56,23.852a17.366,17.366,0,0,1-1.376,5.423,4,4,0,0,1-.978,1.076l-1.066.882q-1.071.875-2.173,1.711l-.032-.038q.974-.985,1.974-1.935a10.11,10.11,0,0,0,1.835-1.934,21.488,21.488,0,0,0,1.418-5.22,8.133,8.133,0,0,0-1.1-5.2A6.829,6.829,0,0,0,52.7,16.6a3.49,3.49,0,0,0-2.557-.712Z" fill="#666667"/>
        <path d="M52.787,16.414a11.682,11.682,0,0,1,3.136,3.823,12.151,12.151,0,0,1,1.313,4.805,9.834,9.834,0,0,1-.863,4.939,4.849,4.849,0,0,1-3.946,2.856l-.006-.05a5.091,5.091,0,0,0,3.5-3.024,10.915,10.915,0,0,0,.913-4.7A11.808,11.808,0,0,0,55.7,20.347a11.509,11.509,0,0,0-2.943-3.894Z" fill="#666667"/>
        <path d="M56.173,20.252a.941.941,0,0,1,.968.252,4.153,4.153,0,0,1,.659.792,6.387,6.387,0,0,1,.846,1.875,9.649,9.649,0,0,1,.109,4.105,10.664,10.664,0,0,1-.528,2.014,2.925,2.925,0,0,1-.595.93,5.485,5.485,0,0,1-.84.65c-1.139.74-2.272,1.487-3.465,2.146l-.028-.042c1.031-.894,2.121-1.7,3.206-2.514a3.11,3.11,0,0,0,1.268-1.369,10.168,10.168,0,0,0,.589-1.891,9.3,9.3,0,0,0,.041-3.968,6.166,6.166,0,0,0-.729-1.855,4.109,4.109,0,0,0-.6-.8.871.871,0,0,0-.882-.28Z" fill="#666667"/>
        <path d="M58.828,23.235a1.419,1.419,0,0,1-.175-.05c-.027-.008-.083-.017-.05-.025a1.417,1.417,0,0,1,.225-.025h.05a1.435,1.435,0,0,1,.225.025c.033.008-.023.017-.05.025a1.473,1.473,0,0,1-.175.05Z" fill="#666667"/>
        <path d="M39.729,18.432a.763.763,0,0,1-.225-.3c-.029-.056-.084-.119-.047-.176a.364.364,0,0,1,.241-.138l.05.008a.6.6,0,0,1,.208.163c.03.044-.027.082-.052.127a3.2,3.2,0,0,0-.127.3Z" fill="#666667"/>
        <path d="M46.181,37.153l.638-1.277.01-.015.019-.041-.009.013.66-1.612.008-.02.011-.011.01-.01-.018.027a7.41,7.41,0,0,0,.476-2.575,20.839,20.839,0,0,0-.045-2.642,28.275,28.275,0,0,0-.72-5.23,15.732,15.732,0,0,0-2.015-4.8,7.442,7.442,0,0,0-1.77-1.869,3.036,3.036,0,0,0-2.422-.629l-.022-.044a3.022,3.022,0,0,1,2.617.407A7.005,7.005,0,0,1,45.585,18.7a12.881,12.881,0,0,1,2.074,4.961,29.931,29.931,0,0,1,.591,5.317,20.582,20.582,0,0,1-.022,2.674,7.621,7.621,0,0,1-.572,2.614l-.007.017-.011.01-.01.01.019-.031-.72,1.608-.009.013-.021.039.01-.014-.682,1.262Z" fill="#666667"/>
        <path d="M38.23,20.11a3.858,3.858,0,0,1,2.216.63,9.061,9.061,0,0,1,1.871,1.4,15.655,15.655,0,0,1,2.756,3.758,11.767,11.767,0,0,1,1.491,4.439,10.544,10.544,0,0,1-.51,4.631v-.008l-.028.1-.048-.016.012-.082v-.008a14.285,14.285,0,0,0,.075-4.551,13.93,13.93,0,0,0-1.348-4.319,15.313,15.313,0,0,0-2.578-3.765,8.831,8.831,0,0,0-1.77-1.442,3.756,3.756,0,0,0-2.135-.71Z" fill="#666667"/>
        <path d="M46.076,35.9a27.965,27.965,0,0,0-.79-4.712,13.478,13.478,0,0,0-1.921-4.306A10.043,10.043,0,0,0,39.912,23.8a4.558,4.558,0,0,0-2.141-.671.889.889,0,0,0-.764.619A3.117,3.117,0,0,0,36.86,24.9l-.05,0a3.233,3.233,0,0,1-.02-1.226,1.181,1.181,0,0,1,.923-.895,2.582,2.582,0,0,1,1.271.13,7.486,7.486,0,0,1,1.154.439A9.105,9.105,0,0,1,43.7,26.662a13.785,13.785,0,0,1,1.832,4.469,28.055,28.055,0,0,1,.6,4.769Z" fill="#666667"/>
      </g>
    </g>
  </g>
</svg>
