<svg xmlns="http://www.w3.org/2000/svg" width="112.892" height="112.892" viewBox="0 0 112.892 112.892">
  <title>Asset 2Bull</title>
  <g style="isolation: isolate">
    <g>
      <rect x="0.125" y="0.125" width="112.642" height="112.642" rx="8.069" fill="#e2e3e8" stroke="#f9fcff" stroke-miterlimit="10" stroke-width="0.25"/>
      <g>
        <path d="M40.043,23.7a8.994,8.994,0,0,1,4.026,1.942" fill="#666667"/>
        <path d="M39.522,27.727c-.116-1.207,3.258-1.264,3.505-.379" fill="#666667"/>
        <path d="M43.077,28.719a3.893,3.893,0,0,0,.734.188,3.617,3.617,0,0,1,.72.223,3.347,3.347,0,0,0,.721.359.686.686,0,0,0,.682-.212l.007-.01.17-.018c.3-.032.59-.078.862-.079l.788-.052c.253,0,.495-.012.765-.022a8.935,8.935,0,0,1,.908-.034l.045.089a2.251,2.251,0,0,1-.687.7,2.28,2.28,0,0,1-.949.338,3.005,3.005,0,0,1-.965-.092,3.1,3.1,0,0,1-.871-.354l.176-.028a8.076,8.076,0,0,1-.936.121,4.214,4.214,0,0,1-.93.117,1.743,1.743,0,0,1-.846-.355,1.546,1.546,0,0,1-.345-.345.623.623,0,0,1-.149-.526Z" fill="#666667"/>
        <path d="M47.126,26.341a1.571,1.571,0,0,1,.824-.437,8.983,8.983,0,0,1,.894-.2,12.1,12.1,0,0,1,1.808-.168l1.813.051c.6,0,1.2-.039,1.8-.083a27.361,27.361,0,0,1,3.622-.048c.6.039,1.2.113,1.806.212a9.093,9.093,0,0,1,.9.2,3.2,3.2,0,0,1,.437.155c.129.078.32.12.354.325h-.05c-.153-.2-.517-.188-.791-.232-.293-.036-.593-.041-.889-.063l-1.791-.068c-1.194-.064-2.391-.118-3.592-.21a15.264,15.264,0,0,0-1.8-.029c-.6.036-1.2.133-1.792.2s-1.192.095-1.787.137c-.3.021-.595.035-.889.07a2.02,2.02,0,0,0-.831.2Z" fill="#666667"/>
        <path d="M54.277,30.459a3.828,3.828,0,0,0,1.313-.206q.669-.165,1.334-.361l1.278-.4a1.175,1.175,0,0,0,.884-.794h.05a.869.869,0,0,1-.138.746,1.684,1.684,0,0,1-.6.492,4.318,4.318,0,0,1-1.384.358c-.458.076-.917.15-1.379.21-.231.026-.464.049-.7.062-.233-.012-.472.076-.709-.089Z" fill="#666667"/>
        <path d="M66.427,24.316a5.68,5.68,0,0,0-1.32,1.036,2.013,2.013,0,0,0-.562,1.416l-.5-.023a2.388,2.388,0,0,1,.887-1.572A5.756,5.756,0,0,1,66.427,24.316Z" fill="#666667"/>
        <path d="M61.369,28.178a6.959,6.959,0,0,1,1.1.5c.346.2.709.379,1.038.616l-.057-.033a2.654,2.654,0,0,1,.856.614l-.019.046a2.676,2.676,0,0,1-1.038-.185l-.029-.011L63.19,29.7c-.3-.243-.581-.529-.894-.766a11.571,11.571,0,0,0-.948-.709Z" fill="#666667"/>
        <path d="M64.973,28.222c-.612-.246-1.217-.507-1.816-.776l.1.024a4.845,4.845,0,0,1-.947.044,3.393,3.393,0,0,1-.947-.223v-.05a3.426,3.426,0,0,1,.947-.222,4.845,4.845,0,0,1,.947.044l.068.006.029.018c.555.353,1.1.715,1.647,1.091Z" fill="#666667"/>
        <g>
          <path d="M97.853,31.211c5.732,7.977-.346,11.352-4.78,12.55-.169-2.644-6.99-8.654.25-12.04,1.291-4.689,5.076-7.262,8.42-6.21Z" fill="#666667"/>
          <g>
            <path d="M93.928,43.508a27.025,27.025,0,0,0-11.884,8.224l-.556-.9c3.335-3.848,7.092-6.572,11.449-7.7" fill="#cccbcb"/>
            <path d="M93.932,43.52A31.718,31.718,0,0,0,90.6,45a33.768,33.768,0,0,0-3.115,1.887,28.227,28.227,0,0,0-2.865,2.252,25.654,25.654,0,0,0-2.525,2.635l-.058.067-.048-.076-.569-.892-.031-.049.039-.046A27.047,27.047,0,0,1,86.563,46a18.6,18.6,0,0,1,3.052-1.748,16.651,16.651,0,0,1,3.319-1.134l.007.024a20.6,20.6,0,0,0-3.252,1.268A24.164,24.164,0,0,0,86.7,46.2a30.723,30.723,0,0,0-5.155,4.682l.007-.095.544.908-.106-.009c.8-.923,1.68-1.772,2.558-2.62a27.337,27.337,0,0,1,2.822-2.337,22.52,22.52,0,0,1,6.55-3.235Z" fill="#231f20"/>
          </g>
        </g>
        <g>
          <path d="M74.508,95H72.884c-.107,0-.2.051-.2.117l-.467,3.19C73.9,99.8,76.038,97.413,74.508,95Z" fill="#333"/>
          <path d="M54.625,98.25c-1.37,1-2.82-.17-2.72-1.79a1.241,1.241,0,0,1,.03-.27,2.991,2.991,0,0,1,.63-1.43l1.33.11.32.03c.11,0,.2.06.2.13l.09,1.37Z" fill="#333"/>
          <path d="M43.925,101.75c-1.37,1.01-2.82-.16-2.73-1.77-.01-.02,0-.03,0-.05a3.021,3.021,0,0,1,.67-1.66l1.28.1.37.03c.1.01.19.07.19.14l.1,1.39Z" fill="#333"/>
          <path d="M63.175,99.99a1.778,1.778,0,0,1-2.04,1.86,1.729,1.729,0,0,1-.76-.41l.22-1.5v-.01l.24-1.68c.01-.07.1-.12.21-.12h1.62a2.58,2.58,0,0,1,.18.32A2.891,2.891,0,0,1,63.175,99.99Z" fill="#333"/>
          <g>
            <polygon points="85.26 67.593 75.155 96.456 72.376 96.393 72.376 67.593 85.26 67.593" fill="#575757" stroke="#989898" stroke-miterlimit="10" stroke-width="0.25"/>
            <polygon points="81.871 68.324 74.371 96.456 72.309 96.394 72.309 68.324 81.871 68.324" fill="#575757" stroke="#989898" stroke-miterlimit="10" stroke-width="0.25" opacity="0.14" style="mix-blend-mode: multiply"/>
            <polygon points="54.805 67.59 54.805 96.39 54.505 96.4 52.025 96.46 52.025 96.45 51.935 96.19 50.965 93.43 50.955 93.4 50.805 92.97 45.745 78.52 43.995 73.53 43.155 71.13 41.915 67.59 54.805 67.59" fill="#575757" stroke="#989898" stroke-miterlimit="10" stroke-width="0.25"/>
            <polygon points="53.895 67.59 53.895 96.39 52.025 96.45 51.905 96.46 51.775 96.46 50.965 93.43 50.955 93.4 50.845 92.97 50.835 92.97 47.295 79.73 47.085 78.93 47.025 78.72 47.015 78.69 46.775 77.77 46.135 75.4 44.045 67.59 53.895 67.59" fill="#575757" stroke="#989898" stroke-miterlimit="10" stroke-width="0.25" opacity="0.14" style="mix-blend-mode: multiply"/>
            <polygon points="73.386 71.13 63.281 99.993 60.502 99.93 60.502 71.13 73.386 71.13" fill="#575757" stroke="#989898" stroke-miterlimit="10" stroke-width="0.25"/>
            <polygon points="43.995 71.13 43.995 99.93 43.805 99.93 41.215 99.99 41.215 99.98 41.195 99.93 39.755 95.83 37.165 88.43 36.935 87.75 31.115 71.13 43.995 71.13" fill="#575757" stroke="#989898" stroke-miterlimit="10" stroke-width="0.25"/>
            <polygon points="43.145 71.13 43.145 99.93 41.215 99.98 41.195 99.98 40.925 99.99 39.755 95.83 37.805 88.85 37.645 88.3 32.835 71.13 43.145 71.13" fill="#575757" stroke="#989898" stroke-miterlimit="10" stroke-width="0.25" opacity="0.14" style="mix-blend-mode: multiply"/>
            <polygon points="69.935 71.86 66.995 82.89 65.115 89.94 64.905 90.73 64.825 91.02 64.775 91.21 62.845 98.45 62.435 99.97 62.435 99.99 61.405 99.96 60.595 99.94 60.505 99.93 60.365 99.93 60.365 71.86 69.935 71.86" fill="#575757" stroke="#989898" stroke-miterlimit="10" stroke-width="0.25" opacity="0.14" style="mix-blend-mode: multiply"/>
            <g>
              <path d="M39.017,33.086l-5.38,11.24c-4.19,4.1-9.53-6.16-14.46-11.68-1.08-1.21-1.77-1.95-2.53-2.06a1.34,1.34,0,0,0-.2-.01c-1.83,3.49-3.79-.15.05-.76v.01c1.27-.81,2.21-1.293,2.72.987C21.739,26.279,29.412,29.21,39.017,33.086Z" fill="#575757" stroke="#989898" stroke-miterlimit="10" stroke-width="0.25"/>
              <path d="M65.738,30.3c.635-1.272,12.916,3.089,13.44,3.845,1.512,2.181,10.6-6.17,9.616-7.3.736,3.3.738,6.093-2.131,6.916q-2.038,10.608-14.3,9.661Z" fill="#575757" stroke="#989898" stroke-miterlimit="10" stroke-width="0.25"/>
            </g>
          </g>
          <path d="M85.655,64.48a26.612,26.612,0,0,1-4.52,14.89,26.007,26.007,0,0,1-3.27,3.99,26.75,26.75,0,0,1-5.49,4.26.251.251,0,0,0-.07.04,26.731,26.731,0,0,1-5.55,2.42c-.06.02-.13.04-.19.06-.46.26-.93.5-1.4.72a2.6,2.6,0,0,1-.34.16,26.536,26.536,0,0,1-4.32,1.59c-.05.01-.1.02-.14.03a26.078,26.078,0,0,1-3.96.73c-.53.06-1.06.1-1.6.13l-.91.03h-.36a24.49,24.49,0,0,1-2.58-.13,26.288,26.288,0,0,1-5.63-1.15c-.4-.13-.8-.27-1.19-.42a.351.351,0,0,1-.14-.06,8.856,8.856,0,0,1-.85-.34,26.411,26.411,0,0,1-5.5-3.13c-.24-.17-.48-.36-.71-.55a26.682,26.682,0,0,1-10.18-21c0-.8.04-1.6.1-2.39.06-.63.14-1.26.24-1.88a26.779,26.779,0,0,1,16.82-20.71c.66-.26,1.35-.5,2.04-.7.59-.33,1.2-.64,1.82-.93.21-.1.42-.19.63-.28a26.32,26.32,0,0,1,6.38-1.84h.02a26.686,26.686,0,0,1,16.1,2.52c.15.07.29.14.43.22a26.053,26.053,0,0,1,4.16,2.71A26.729,26.729,0,0,1,85.655,64.48Z" fill="#575757" stroke="#989898" stroke-miterlimit="10" stroke-width="0.25"/>
          <path d="M72.375,86.67c-.02.03-.05.06-.07.09-.86,1.02-2.68,2.16-5.54,3.28-.5.2-1.04.4-1.61.6-.08.03-.17.06-.25.09q-1.17.39-2.52.78c-.63.18-1.26.35-1.88.49a.353.353,0,0,1-.14.03,34.774,34.774,0,0,1-5.56.88c-.31.03-.61.05-.91.06a25.857,25.857,0,0,1-3.05,0h-.04a27.676,27.676,0,0,1-6.67-1.14.573.573,0,0,0-.14-.04c-.28-.1-.57-.19-.85-.3a23.517,23.517,0,0,1-5.34-2.64c-.22-.13-.43-.28-.64-.42a25.659,25.659,0,0,1-10.36-24.11c.07-.61.17-1.23.29-1.84,1.55-8.03,6.9-15.81,16.82-20.71a38.107,38.107,0,0,1,3.88-1.69,6.316,6.316,0,0,1,.61-.22,49.923,49.923,0,0,1,6.38-1.84h.02c-3.14,10-5.07,20.98-4.36,29.57a26.654,26.654,0,0,0,1.63,7.61,4.22,4.22,0,0,0,.18.45,13.969,13.969,0,0,0,1.64,2.92c.06.08.12.17.19.25a.526.526,0,0,0,.12.14.276.276,0,0,0,.07.09.789.789,0,0,0,.12.15,4.378,4.378,0,0,0,.41.45,9.983,9.983,0,0,0,5.56,3c.04.01.09.01.14.02a13.405,13.405,0,0,0,2.96.19,33.88,33.88,0,0,1,3.53.03,18.435,18.435,0,0,1,2.19.25,6.454,6.454,0,0,1,3.12,1.2.134.134,0,0,1,.07.06A1.536,1.536,0,0,1,72.375,86.67Z" fill="#666667" opacity="0.14" style="mix-blend-mode: multiply"/>
          <g>
            <path d="M75.6,67.53l-.08.06-1.03.73-2.11,1.51-.07.05-1.76,1.25-1.02.73-9.02,6.43-.14.1-1.06.76-4.5-.17-.6-.02-.31-.01-6.88-.26-1.1-.04-.17-.13L44,77.21l-.85-.64-7.26-5.44-9.03-6.77-.05-.04-.6-.45a161.978,161.978,0,0,1,5.77-15.72c.02-.05.04-.1.06-.14.51-1.23,1.05-2.45,1.6-3.68a1.511,1.511,0,0,1,.09-.18c1.62-3.65,3.39-7.33,5.28-11.03-.01-.01,0-.02.01-.03.96-1.9,1.96-3.81,2.98-5.73l10.69.12,11.16.13c.66.88,1.29,1.78,1.89,2.69a.035.035,0,0,1,.01.02,59.637,59.637,0,0,1,5.59,10.44c.36.87.7,1.75,1.01,2.64.01.01.02.02.02.03A60.243,60.243,0,0,1,75.6,67.53Z" fill="#575757"/>
            <path d="M75.606,67.536,59.348,79.21l-.02.015H59.3L45.911,78.76h-.035l-.028-.022L26.173,63.913l-.031-.023.011-.036c1.676-5.384,3.636-10.67,5.828-15.871l0,0,.836-1.935.418-.968c.146-.325.264-.641.433-.972l0,.01,5.256-11.046.018.114c-.035-.016-.041-.12-.017-.136a.182.182,0,0,1,.027-.033l-.018.025L41.9,27.307l.032-.061H42l21.85.242h.062l.034.048,1.9,2.7-.015-.019a.193.193,0,0,1,.045.106l-.02-.067A60.263,60.263,0,0,1,69.562,36.6q.826,1.644,1.546,3.338c.487,1.126.883,2.289,1.329,3.431l-.023-.037a.2.2,0,0,1,.048.1l-.005-.032A60.6,60.6,0,0,1,75.606,67.536Zm-.022-.012a60.544,60.544,0,0,0-3.311-24.062l0-.032a.031.031,0,0,0,.008.039l-.023-.037c-.453-1.135-.855-2.289-1.348-3.408S69.9,37.8,69.343,36.71a61.834,61.834,0,0,0-3.7-6.322l-.021-.068a.075.075,0,0,0,.026.066l-.015-.019-1.885-2.685.1.049-21.849-.259.1-.059L39.1,33.134l-.009.018-.009.008s-.005.006,0-.007.012-.095-.013-.1l.018.115-5.3,11.013-.005.011c-.151.3-.284.635-.427.951l-.422.964-.844,1.929,0,0a152.212,152.212,0,0,0-5.832,15.848l-.019-.059L45.982,78.562l-.063-.023,13.389.537-.046.013Z" fill="#989898"/>
          </g>
          <path d="M45.766,75.675H60.039a0,0,0,0,1,0,0v0a3.094,3.094,0,0,1-3.094,3.094H48.784a3.018,3.018,0,0,1-3.018-3.018v-.076A0,0,0,0,1,45.766,75.675Z" transform="translate(3.194 -2.094) rotate(2.338)" fill="#cccbcb" stroke="#989898" stroke-miterlimit="10" stroke-width="0.25"/>
          <path d="M54.742,79.06c-1.446.514-1.369,1.038,0,1.569-4.668.265-7.729-.122-7.859-1.7Z" fill="#666667" opacity="0.14" style="mix-blend-mode: multiply"/>
          <path d="M59.305,79.15l-4.5-.17-.6-.02-.31-.01-6.88-.26-1.1-.04-.17-.13L44,77.21l-.85-.64-7.26-5.44-9.03-6.77-.05-.04-.6-.45q2.475-7.815,5.77-15.72c.02-.05.04-.1.06-.14.51-1.22,1.04-2.44,1.58-3.66q2.475-5.61,5.37-11.27c.96-1.9,1.97-3.81,3.01-5.72l10.69.12a91.437,91.437,0,0,0-4.89,12.6.142.142,0,0,1-.02.06c-2.91,9.71-3.95,19.78-.99,27.45a18.535,18.535,0,0,0,5.29,7.61c.18.17.36.32.55.47.4.31.82.62,1.27.91.29.2.6.39.91.57a20.978,20.978,0,0,0,3.3,1.58Q58.69,78.955,59.305,79.15Z" fill="#666667" opacity="0.14" style="mix-blend-mode: multiply"/>
          <path d="M106.187,93.654q.585-.73-.216-1.092A.84.84,0,0,1,106.187,93.654Z" fill="#fff"/>
        </g>
        <g>
          <g opacity="0.97">
            <path d="M65.738,30.3l3.7,7.224c12.7-3.41,14.249-22.788,1.7-26.165a.756.756,0,0,0-.843,1.1C73.237,18.088,71.906,24.008,65.738,30.3Z"/>
            <path d="M65.775,30.307l3.769,7.167-.131-.058a15.036,15.036,0,0,0,3.21-1.36,14.248,14.248,0,0,0,2.733-2.148,14.606,14.606,0,0,0,3.488-5.945,15.128,15.128,0,0,0,.5-6.859,12.064,12.064,0,0,0-2.865-6.152,10.917,10.917,0,0,0-2.672-2.1,12.49,12.49,0,0,0-1.543-.729c-.263-.109-.542-.179-.812-.271l-.406-.13a.351.351,0,0,0-.211.007.4.4,0,0,0-.247.347.44.44,0,0,0,.055.23l.193.409a14.826,14.826,0,0,1,.692,1.673,12.074,12.074,0,0,1,.608,3.571,13.511,13.511,0,0,1-1.918,6.867A24.44,24.44,0,0,1,65.775,30.307ZM65.7,30.3a28.277,28.277,0,0,0,4.094-5.7,13.524,13.524,0,0,0,1.639-6.621,13.242,13.242,0,0,0-.617-3.351,14.034,14.034,0,0,0-.655-1.586l-.183-.389a1.2,1.2,0,0,1-.137-.619,1.144,1.144,0,0,1,.736-1A1.1,1.1,0,0,1,71.235,11l.434.138c.287.1.581.173.861.289a11.418,11.418,0,0,1,1.638.788,11.6,11.6,0,0,1,2.809,2.292,12.794,12.794,0,0,1,2.916,6.512,15.619,15.619,0,0,1-.611,7.083,14.915,14.915,0,0,1-3.673,6.059,14.554,14.554,0,0,1-2.84,2.149,15.2,15.2,0,0,1-3.3,1.326l-.089.025-.041-.083Z" fill="#cccbcb"/>
          </g>
          <g opacity="0.97">
            <path d="M40.657,29.734l-3.7,7.225c-12.695-3.411-14.25-22.789-1.7-26.166a.755.755,0,0,1,.842,1.1C33.157,17.521,34.489,23.441,40.657,29.734Z"/>
            <path d="M40.694,29.728,37.053,37.01l-.041.083-.09-.025a15.236,15.236,0,0,1-3.3-1.326,14.548,14.548,0,0,1-2.839-2.149,14.928,14.928,0,0,1-3.674-6.059,15.647,15.647,0,0,1-.611-7.083,12.8,12.8,0,0,1,2.917-6.512,11.6,11.6,0,0,1,2.809-2.292,11.418,11.418,0,0,1,1.638-.788c.28-.116.574-.192.86-.289l.435-.138a1.1,1.1,0,0,1,.657.028,1.141,1.141,0,0,1,.735,1,1.192,1.192,0,0,1-.137.619l-.183.389a14.1,14.1,0,0,0-.654,1.586,13.242,13.242,0,0,0-.617,3.351A13.513,13.513,0,0,0,36.6,24.027,28.277,28.277,0,0,0,40.694,29.728Zm-.074.012a24.412,24.412,0,0,1-4.442-5.484,13.511,13.511,0,0,1-1.918-6.867,12.042,12.042,0,0,1,.608-3.571,14.643,14.643,0,0,1,.692-1.673l.193-.409a.44.44,0,0,0,.055-.23.4.4,0,0,0-.248-.347.347.347,0,0,0-.21-.007l-.407.13c-.27.092-.548.162-.811.271a12.636,12.636,0,0,0-1.543.729,10.922,10.922,0,0,0-2.672,2.1,12.064,12.064,0,0,0-2.865,6.152,15.127,15.127,0,0,0,.5,6.859,14.62,14.62,0,0,0,3.489,5.945,14.272,14.272,0,0,0,2.732,2.148,15.007,15.007,0,0,0,3.21,1.36l-.13.058Z" fill="#cccbcb"/>
          </g>
        </g>
        <g>
          <path d="M53.671,74.732c.687.521-6.126,3.071-6.9,2.259a13.706,13.706,0,0,1-.9-1.239c-5.674-3.184-11.239-6.363-13.827-9.411a11.962,11.962,0,0,0-4.588-3.122c.184-.726.517-1.262,1.279-1.251,4.843-19.341,44.183-16.871,46.77,1.338l-1.829,3.106.427.271-.524.955.49.248c-3.857,3.96-9.01,7.017-15,9.487C56.606,76.892,54.651,76.106,53.671,74.732Z" fill="#f59698"/>
          <path d="M53.656,73.938c.686.5-6.114,2.935-6.89,2.157a13.172,13.172,0,0,1-.9-1.188C40.2,71.85,34.639,68.8,32.051,65.874a12.01,12.01,0,0,0-4.584-3c.183-.7.515-1.208,1.276-1.2,4.813-18.525,44.1-16.113,46.7,1.335l-1.823,2.975.427.26-.523.914.49.238c-3.846,3.79-8.988,6.712-14.97,9.072C56.588,76.011,54.636,75.256,53.656,73.938Z" fill="#f3b5b7"/>
          <path d="M27.467,62.877c4.872-9.217,11.566-13.954,20.217-13.884C43.736,55.8,45.071,62.442,53.9,68.859c-1.7.7,4.265,7.29,5.151,7.616.8.3-5.558-1.139-5.39-2.537l-.247.405A12.579,12.579,0,0,1,46.766,76.1l-.9-1.188C40.035,71.9,34.517,68.766,30.987,64.861l-3.52-1.984,1.269-.909" fill="#666667" opacity="0.14" style="mix-blend-mode: multiply"/>
        </g>
        <g>
          <path d="M46.559,58.415a9.939,9.939,0,0,1-2.33-.157,3.638,3.638,0,0,1-2.05-1.056,2.421,2.421,0,0,1-.463-2.219,4.4,4.4,0,0,1,1.155-2.021,4.036,4.036,0,0,1,1.995-1.221,2.691,2.691,0,0,1,2.294.48,4.681,4.681,0,0,1,1.374,1.94,10.5,10.5,0,0,1,.657,2.269.125.125,0,0,1-.245.053v-.007a12.316,12.316,0,0,0-.65-2.213,4.436,4.436,0,0,0-1.284-1.851A2.489,2.489,0,0,0,44.9,51.9a3.926,3.926,0,0,0-1.978,1.115A4.353,4.353,0,0,0,41.771,55a2.368,2.368,0,0,0,.441,2.177,3.6,3.6,0,0,0,2.022,1.059,9.891,9.891,0,0,0,2.325.174l.005,0Z" fill="#231f20"/>
          <path d="M46.291,58.149a5.221,5.221,0,0,1-1.546-.043,2.211,2.211,0,0,1-1.4-.847,2.125,2.125,0,0,1-.217-1.66,5.676,5.676,0,0,1,.646-1.532,3.522,3.522,0,0,1,1.362-1.435,2.254,2.254,0,0,1,1.321-.214,2.578,2.578,0,0,1,1.226.573A4.269,4.269,0,0,1,48.9,54.756a4.662,4.662,0,0,1,.324,1.756,1.455,1.455,0,0,1-2.807.517l-.023-.06c-.328-.828-.526-1.657-.681-2.03-.075-.153.083-.368-.193-.543a1.066,1.066,0,0,0-1.13.191A2.006,2.006,0,0,0,43.777,57a2.826,2.826,0,0,0,2.51,1.049.05.05,0,0,1,.051.048A.053.053,0,0,1,46.291,58.149Z" fill="#231f20"/>
        </g>
        <g>
          <g opacity="0.97">
            <ellipse cx="44.27" cy="44.829" rx="1.944" ry="2.428" transform="matrix(0.968, -0.251, 0.251, 0.968, -9.846, 12.566)" fill="#f59698"/>
            <path d="M43.505,42.489a2.363,2.363,0,0,1,2.783,1.653,3.055,3.055,0,0,1,.07,1.824,2.152,2.152,0,0,1-1.233,1.45,2.093,2.093,0,0,1-1.948-.264,2.86,2.86,0,0,1-1.1-1.579A2.552,2.552,0,0,1,43.505,42.489Zm.026.07a1.582,1.582,0,0,0-.925,1.268,3.132,3.132,0,0,0,.183,1.522,2.673,2.673,0,0,0,.824,1.2,1.423,1.423,0,0,0,1.307.3,2.094,2.094,0,0,0,1.01-2.6,2.727,2.727,0,0,0-.831-1.383A1.562,1.562,0,0,0,43.531,42.559Z"/>
          </g>
          <g>
            <ellipse cx="44.22" cy="44.988" rx="1.795" ry="2.22" transform="translate(-5.679 6.396) rotate(-7.775)" fill="#cccbcb"/>
            <path d="M43.372,42.963a1.535,1.535,0,0,1,1.528,0,2.264,2.264,0,0,1,1.018,1.2,2.433,2.433,0,0,1-.806,2.921,1.627,1.627,0,0,1-1.619.013,2.347,2.347,0,0,1-1.029-1.269A2.431,2.431,0,0,1,43.372,42.963Zm.013.022a2.28,2.28,0,0,0-.686,2.76,2.1,2.1,0,0,0,.914,1.139,1.4,1.4,0,0,0,1.4.03,2.274,2.274,0,0,0,.788-2.7,2.174,2.174,0,0,0-.925-1.2A1.5,1.5,0,0,0,43.385,42.985Z"/>
          </g>
          <ellipse cx="44.312" cy="45.525" rx="0.803" ry="1.209" transform="translate(-11.118 14.483) rotate(-16.524)"/>
        </g>
        <g>
          <g opacity="0.97">
            <ellipse cx="59.656" cy="45.304" rx="2.428" ry="1.944" transform="translate(0.812 91.658) rotate(-75.443)" fill="#f59698"/>
            <path d="M60.4,43.034a1.564,1.564,0,0,0-1.568.312A2.722,2.722,0,0,0,58,44.729a2.093,2.093,0,0,0,1.011,2.6,1.421,1.421,0,0,0,1.306-.3,2.673,2.673,0,0,0,.824-1.2A3.119,3.119,0,0,0,61.32,44.3,1.583,1.583,0,0,0,60.4,43.034Zm.025-.07a2.551,2.551,0,0,1,1.432,3.084,2.857,2.857,0,0,1-1.1,1.579,2.094,2.094,0,0,1-1.948.265,2.152,2.152,0,0,1-1.232-1.451,3.055,3.055,0,0,1,.069-1.824A2.363,2.363,0,0,1,60.421,42.964Z"/>
          </g>
          <g>
            <ellipse cx="59.706" cy="45.463" rx="2.22" ry="1.795" transform="translate(6.584 98.47) rotate(-82.225)" fill="#cccbcb"/>
            <path d="M60.541,43.46a1.494,1.494,0,0,0-1.489.022,2.174,2.174,0,0,0-.926,1.2,2.274,2.274,0,0,0,.788,2.705,1.4,1.4,0,0,0,1.4-.03,2.094,2.094,0,0,0,.914-1.139A2.28,2.28,0,0,0,60.541,43.46Zm.013-.021a2.427,2.427,0,0,1,.908,2.867,2.342,2.342,0,0,1-1.028,1.269,1.632,1.632,0,0,1-1.62-.012,2.433,2.433,0,0,1-.8-2.922,2.258,2.258,0,0,1,1.017-1.2A1.533,1.533,0,0,1,60.554,43.439Z"/>
          </g>
          <ellipse cx="59.615" cy="46" rx="1.209" ry="0.803" transform="translate(-1.441 90.07) rotate(-73.476)"/>
        </g>
        <path d="M69.515,20.444c-2.086,1.772-4.285,3.386-4.344,7.96l-1.723-2.528a30.976,30.976,0,0,0-17.787.6c-1.146-3.725-1.688-6.716-.9-8.091-.859-1.347-1.02.841-.328,7.336-1.343-3.632-3.569-5.282-6.534-5.281,1.694,1.658,2.6,4.15,2.25,7.96-1.346-.858-1.719,1.847-2.25,3.973,1.654-1.727,3.233,1.279,4.793,5.571,1.949,1.715,4.061,1.505,6.282,0-.408.959-1.017,1,.573,2.264,1.24.984,5.447.2,5.215-1.208,0,0-.007,1.365,0,1.208.072-1.631,3.381-2.542,3.381-1.057,1.958.678,2.762-1.02,2.907-4.074.492-1.233,3.131,4.5,3.643,3.471.292-.592,2.668.814,2.374,1.66-.522-1.789-.785-3.376-.1-4.226l1.4.168c-.651-.489-.181-2.961.532-2.582A12.461,12.461,0,0,1,70,34.628l1.341-2.867a2.009,2.009,0,0,1-2.926,0A19.225,19.225,0,0,1,69.515,20.444Z" fill="#333"/>
        <g>
          <path d="M57.274,58.025a9.886,9.886,0,0,0,2.324-.173,3.6,3.6,0,0,0,2.022-1.059,2.365,2.365,0,0,0,.441-2.177,4.341,4.341,0,0,0-1.149-1.986,3.922,3.922,0,0,0-1.979-1.115,2.486,2.486,0,0,0-2.112.517,4.451,4.451,0,0,0-1.284,1.85,12.3,12.3,0,0,0-.649,2.214l0,.006a.125.125,0,0,1-.244-.052,10.524,10.524,0,0,1,.657-2.27,4.682,4.682,0,0,1,1.373-1.939,2.693,2.693,0,0,1,2.3-.48,4.046,4.046,0,0,1,2,1.22A4.414,4.414,0,0,1,62.116,54.6a2.414,2.414,0,0,1-.463,2.219A3.623,3.623,0,0,1,59.6,57.877a9.9,9.9,0,0,1-2.331.157l0,0Z" fill="#231f20"/>
          <path d="M57.546,57.668a2.821,2.821,0,0,0,2.51-1.049,2.007,2.007,0,0,0-.61-2.413,1.067,1.067,0,0,0-1.129-.191c-.276.175-.118.391-.194.544-.154.372-.353,1.2-.68,2.03l-.023.058a1.454,1.454,0,0,1-2.807-.515,4.639,4.639,0,0,1,.324-1.756,4.253,4.253,0,0,1,1.209-1.765,2.555,2.555,0,0,1,1.226-.573,2.263,2.263,0,0,1,1.321.213,3.532,3.532,0,0,1,1.362,1.436,5.691,5.691,0,0,1,.645,1.532,2.118,2.118,0,0,1-.217,1.659,2.206,2.206,0,0,1-1.395.848,5.194,5.194,0,0,1-1.547.042.05.05,0,0,1-.046-.053A.054.054,0,0,1,57.546,57.668Z" fill="#231f20"/>
        </g>
        <path d="M99.017,25.365a21.187,21.187,0,0,0-2.7,4.284,7.478,7.478,0,0,0-.342,4.917l.4,1.209a6.335,6.335,0,0,1,.332,1.235,6.493,6.493,0,0,1-.109,2.553,6.24,6.24,0,0,1-2.975,4l-.061-.1,4.358-3.017.035-.025.1.031a.155.155,0,0,1,.024.213.221.221,0,0,1-.115.073.2.2,0,0,1-.246-.131.4.4,0,0,1,.126-.348,2.739,2.739,0,0,0,.309-.432,4.3,4.3,0,0,0,.407-.993,6.294,6.294,0,0,0,.265-2.139c-.133-1.451-1.074-2.66-1.709-4a5.431,5.431,0,0,1-.55-2.172,3.029,3.029,0,0,1,.8-2.072c.987-1.1,2.031-2.141,3.055-3.2l.017.017c-.973,1.105-1.987,2.179-2.948,3.285a2.831,2.831,0,0,0-.715,1.968,5.329,5.329,0,0,0,.569,2.07c.609,1.3,1.576,2.536,1.719,4.081a6.476,6.476,0,0,1-.28,2.223,4.558,4.558,0,0,1-.432,1.044,2.991,2.991,0,0,1-.334.465c-.059.061-.09.134-.081.141s-.055-.034-.028-.023c0,0,.011-.007,0,0-.025.007,0,.1.009.092l.131.006-4.414,2.935-.061-.1a5.815,5.815,0,0,0,2.921-3.924,6.4,6.4,0,0,0,.062-2.5,6.125,6.125,0,0,0-.349-1.212l-.417-1.2a7.247,7.247,0,0,1,.381-5.037A18.271,18.271,0,0,1,99,25.35Z" fill="#989898"/>
        <path d="M93.211,43.508c.524-1.561,1.71-2.833,1.96-4.431a3.1,3.1,0,0,0-.014-1.184c-.084-.392-.251-.768-.376-1.16a9.39,9.39,0,0,1-.365-2.429,8.761,8.761,0,0,1,.77-4.83A14.888,14.888,0,0,1,98.323,25.7l.018.017a19.12,19.12,0,0,0-2.926,3.875,9.6,9.6,0,0,0-.863,4.709,7.8,7.8,0,0,0,.311,2.406c.127.385.314.751.429,1.153a3.182,3.182,0,0,1,.084,1.248c-.242,1.708-1.479,2.938-2.141,4.41Z" fill="#989898"/>
        <path d="M101.123,25.579a8.214,8.214,0,0,1-.636.952,9.707,9.707,0,0,1-.756.855c-.5.572-.871,1.25-1.354,1.837l.026-.058a13.073,13.073,0,0,1-.376,1.807h0v.01H98l0-.01h0a13.23,13.23,0,0,1,.144-1.852l0-.03.023-.029c.463-.6,1.042-1.114,1.486-1.732a9.551,9.551,0,0,1,.663-.93,8.215,8.215,0,0,1,.784-.833Z" fill="#989898"/>
        <path d="M98.006,31.411a13.591,13.591,0,0,0,.605,2.877c.237.96.525,1.91.668,2.9a4.746,4.746,0,0,1-.555,2.927,6.585,6.585,0,0,1-2.012,2.2l-.009,0,0,0h-.025a.022.022,0,0,1,.022-.023l-.009,0a9.479,9.479,0,0,0,1.8-2.3,5.372,5.372,0,0,0,.647-2.793,9.268,9.268,0,0,0-.731-2.852,7.065,7.065,0,0,1-.431-2.937Z" fill="#989898"/>
        <path d="M95.313,29.329a15.2,15.2,0,0,0-1.5,3.171,10.122,10.122,0,0,0-.672,3.442,9.858,9.858,0,0,0,.1,1.746A13.354,13.354,0,0,0,93.7,39.4a7.4,7.4,0,0,1-.357,1.77q-.231.855-.489,1.7l-.024-.006q.145-.875.322-1.742a10.306,10.306,0,0,0,.292-1.7A7.295,7.295,0,0,1,93,35.935a21.824,21.824,0,0,1,.612-3.5,8.811,8.811,0,0,1,1.677-3.121Z" fill="#989898"/>
        <path d="M92.261,41.7a10.292,10.292,0,0,1-.3-2.737c.054-.921.166-1.829.251-2.744a12.612,12.612,0,0,1,1.717-5.206l.022.011a30.511,30.511,0,0,0-1.6,5.216,10.08,10.08,0,0,0-.179,2.724c.017.91.058,1.816.114,2.732Z" fill="#989898"/>
        <path d="M90.911,39.2a5.882,5.882,0,0,1-.027-1.806c.11-.6.244-1.18.312-1.78a8.827,8.827,0,0,1,1.176-3.4l.022.01c-.353,1.154-.731,2.268-1.064,3.419a6.094,6.094,0,0,0-.24,1.771c-.04.6-.093,1.183-.154,1.785Z" fill="#989898"/>
        <path d="M91.265,33.085a5.2,5.2,0,0,1-.242,1.241,4.154,4.154,0,0,0-.351,1.208c-.037.419-.114.828-.146,1.237l-.089,1.249h0v.01h-.025l0-.01v0a3.681,3.681,0,0,1-.141-1.27,5.185,5.185,0,0,1,.271-1.249,6.087,6.087,0,0,0,.284-1.232,5.164,5.164,0,0,1,.418-1.194Z" fill="#989898"/>
        <path d="M55.58,55.1c8.809,15.425-13.121,18.051-7.594.09a.186.186,0,0,1,.363.056c-.212,11.185,8.1,10.865,6.835-.026A.211.211,0,0,1,55.58,55.1Z" fill="#575757"/>
        <path d="M48.411,57.373a9.392,9.392,0,0,0-.355,3.718c5.659,9.071,8.5,2.419,7.318-6.158,1.784,3.32,2.241,7.135-.568,12.174-4.263,2.463-10.634-2.676-6.632-11.984Z" fill="#353535" opacity="0.14" style="mix-blend-mode: multiply"/>
        <path d="M47.31,57.858c-.061-.6,1.452-.773,1.539-.485.035.113-.272-2.748-.272-2.748l-1.48.64.213,2.653" fill="#353535" opacity="0.14" style="mix-blend-mode: multiply"/>
        <path d="M55.8,54.566c.213.462,1.03,2.795,1.03,2.795-.576-.776-1.126-.692-1.658-.071l-.26-2.368Z" fill="#353535" opacity="0.14" style="mix-blend-mode: multiply"/>
        <path d="M47.306,53.662c-.189-.252-1.358-1.168-1.358-1.263a4.323,4.323,0,0,1,.253-.631l1.137.663Z" fill="#353535" opacity="0.14" style="mix-blend-mode: multiply"/>
        <path d="M56.274,52.368c4.461-3.312,8.148,3.852,4.232,5.273C61.1,54.447,59.015,53.171,56.274,52.368Z" fill="#353535" opacity="0.14" style="mix-blend-mode: multiply"/>
        <polygon points="51.917 75.183 52.485 75.799 49.595 76.794 48.743 76.036 51.917 75.183" fill="#353535" opacity="0.14" style="mix-blend-mode: multiply"/>
        <path d="M44.085,38.915a6.473,6.473,0,0,0-2.463,3.979C39.9,44.481,38.554,48.162,37.2,51.8c-2.557,10.663.135,18.474,8.668,23.108l.3,2.282,1.769,1.326.063.379-2.088-.249L26.207,63.866,39.538,32.031l-1.958,1.01-2.906-2.716L40.145,28.4l-2.25-7.96,5.558,7.545,4.864-1.074L47.243,32.41l-.884,3.537,1.7.189-2.211.884Z" fill="#353535" opacity="0.14" style="mix-blend-mode: multiply"/>
        <path d="M36.952,36.959c-6.092,2.323-11.916.453-17.5-5.181a5.89,5.89,0,0,1-2.4-1.7l-2.779,1.516c.65.891,1.472.29,2.373-1,2.661,1.489,7.008,7.194,11.4,13,2.143,1.961,4.024,2.311,5.594.737Z" fill="#353535" opacity="0.14" style="mix-blend-mode: multiply"/>
        <path d="M33.853,35.568c-.936.91-13.5-5.3-13.136-6.443L19.643,30.2c4.049,4.338,9.973,6.1,16.8,6.632Z" fill="#353535" opacity="0.14" style="mix-blend-mode: multiply"/>
        <path d="M58.959,41.852c-4.427,2.2-4.858,4.394-.632,6.568C53.431,46.049,53.576,43.857,58.959,41.852Z" fill="#353535" opacity="0.14" style="mix-blend-mode: multiply"/>
        <path d="M61.453,47.915c1.758-1.366,1.709-3.141-.031-5.274A5.47,5.47,0,0,1,61.453,47.915Z" fill="#353535" opacity="0.14" style="mix-blend-mode: multiply"/>
        <path d="M65.175,91.05l-.4.16-2.25.88-.86,6.04-.26,1.82v.01l-.27,1.89a1.729,1.729,0,0,1-.76-.41l.22-1.5-.09-.01h-.14V92.64a26.078,26.078,0,0,1-3.96.73c-.53.06-1.06.1-1.6.13v2.89l-.3.01.12,1.85c-1.37,1-2.82-.17-2.72-1.79h-.13l-.81-3.03-.01-.03a26.288,26.288,0,0,1-5.63-1.15c-.4-.13-.8-.27-1.19-.42a.573.573,0,0,0-.14-.04v8.14h-.19l.12,1.82c-1.37,1.01-2.82-.16-2.73-1.77l-.27.01-1.17-4.16-2.59-7.4a25.659,25.659,0,0,1-10.36-24.11l.05.04,9.03,6.77,7.26,5.44.85.64,1.75,1.31.17.13,1.11.07,3.52.21.04.06c1.058,3.385,2.4,6.312,4.671,7.767a4.782,4.782,0,0,0,2.416.726l2.693.1c7.091-.417,10.028.253,4.79,3.06Z" fill="#353535" opacity="0.14" style="mix-blend-mode: multiply"/>
        <path d="M78.759,79.715C88.943,62.009,82.588,52.2,73.2,43.841,81.371,52.358,86.58,62.488,78.759,79.715Z" fill="#fff" opacity="0.28" style="mix-blend-mode: lighten"/>
        <g opacity="0.31">
          <path d="M74.288,57.49a42.642,42.642,0,0,0-1.235-4.834q-.707-2.392-1.515-4.756c-.539-1.576-1.149-3.127-1.612-4.726A49.781,49.781,0,0,1,68.733,38.3l.094-.034a35.474,35.474,0,0,1,2.049,4.593c.589,1.566.99,3.193,1.427,4.807a64.037,64.037,0,0,1,2.084,9.811Z" fill="#fff"/>
        </g>
        <g opacity="0.31">
          <path d="M73.911,61.509a2.485,2.485,0,0,0-.621-1.759,12.326,12.326,0,0,0-1.277-1.485,26.393,26.393,0,0,0-2.954-2.593c-1.046-.792-2.163-1.477-3.233-2.2-.535-.362-1.083-.7-1.639-1a4.225,4.225,0,0,0-.857-.364.81.81,0,0,0-.823.1l-.086-.052c.136-.379.613-.488.962-.5a4.479,4.479,0,0,1,1.055.167,9.1,9.1,0,0,1,1.9.8,17.219,17.219,0,0,1,3.227,2.439,27.053,27.053,0,0,1,2.818,2.877,12.514,12.514,0,0,1,1.158,1.658,2.645,2.645,0,0,1,.462,1.952Z" fill="#fff"/>
        </g>
        <g opacity="0.31">
          <path d="M87.517,30.226a16.055,16.055,0,0,1-2.247,3.505A4.868,4.868,0,0,1,83.6,35.118a3.148,3.148,0,0,1-2.181.184l-.007-.1a14.465,14.465,0,0,0,1.719-.967,18.035,18.035,0,0,0,1.582-1.074,22.622,22.622,0,0,0,2.723-2.989Z" fill="#fff"/>
        </g>
        <g opacity="0.31">
          <path d="M73.105,13.486a19.176,19.176,0,0,1,3.457,3.146A9.962,9.962,0,0,1,78.7,20.881a7.926,7.926,0,0,1-.474,4.8,10.985,10.985,0,0,1-2.835,3.793l-.077-.064a26.325,26.325,0,0,0,1.981-4.095,9.4,9.4,0,0,0,.617-4.3,9.313,9.313,0,0,0-1.744-4.083,18.835,18.835,0,0,0-3.121-3.37Z" fill="#fff"/>
        </g>
        <g opacity="0.31">
          <path d="M34.464,12.542a11.674,11.674,0,0,0-1.643,7.015,17.736,17.736,0,0,0,.876,3.481c.364,1.151.835,2.276,1.272,3.471l-.084.054a10.286,10.286,0,0,1-2.123-3.172,9.94,9.94,0,0,1-.739-3.786,10.869,10.869,0,0,1,.578-3.788,13.15,13.15,0,0,1,1.779-3.329Z" fill="#fff"/>
        </g>
        <g opacity="0.31">
          <path d="M40,21.185a8.428,8.428,0,0,1,1.523.644,8.53,8.53,0,0,1,1.364.976,4.542,4.542,0,0,1,1.149,1.237,3.237,3.237,0,0,1,.439,1.664l-.092.038a9.149,9.149,0,0,1-1.168-1.131c-.349-.377-.572-.849-.9-1.251a8.032,8.032,0,0,0-1.08-1.126,8.133,8.133,0,0,0-1.273-.96Z" fill="#fff"/>
        </g>
        <g opacity="0.31">
          <path d="M53.626,24.97c1.647.033,3.3.061,4.939.133.822.029,1.644.064,2.469.073a13.863,13.863,0,0,1,2.451.274l.282.055.068.188a13.23,13.23,0,0,1,.569,2.085l-.091.043a13.2,13.2,0,0,1-1.252-1.762l.35.244a13.965,13.965,0,0,1-2.462-.154c-.814-.134-1.629-.242-2.444-.355-1.632-.214-3.26-.471-4.888-.724Z" fill="#fff"/>
        </g>
        <g opacity="0.31">
          <path d="M60.24,45.452a1.375,1.375,0,0,0-.022.281.337.337,0,0,1-.28.316.657.657,0,0,1-.653-.6.906.906,0,0,1,.041-.488.612.612,0,0,1,.612-.36.447.447,0,0,1,.418.48A1.875,1.875,0,0,1,60.24,45.452Zm-.1,0c-.013-.074-.14-.125-.238-.084a.121.121,0,0,0,.036.236c.155.034.24-.083.228-.116a.054.054,0,0,0-.081-.036.481.481,0,0,1-.147.1c-.035.043.021.092.1.073A.136.136,0,0,0,60.14,45.452Z" fill="#fff"/>
        </g>
        <g opacity="0.31">
          <path d="M44.83,45.01a1.829,1.829,0,0,1-.081.285.42.42,0,0,1-.285.249.613.613,0,0,1-.716-.534.676.676,0,0,1,.716-.785.493.493,0,0,1,.391.375A.8.8,0,0,1,44.83,45.01Zm-.1,0c-.015-.074-.151-.08-.223,0s-.08.2-.043.218c.091.079.151-.13.084-.215-.065-.1-.143-.017-.084.034a.21.21,0,0,0,.149.092A.1.1,0,0,0,44.73,45.01Z" fill="#fff"/>
        </g>
        <g opacity="0.31">
          <path d="M57.209,59.662c-.023.086-.028.163-.059.276a.383.383,0,0,1-.276.259.607.607,0,0,1-.684-.535.776.776,0,0,1,.133-.551.6.6,0,0,1,.551-.233.468.468,0,0,1,.391.394A.879.879,0,0,1,57.209,59.662Zm-.1,0c-.014-.069-.147-.086-.223-.011s-.074.2-.012.227c.157.071.19-.176.116-.216-.053-.067-.138-.02-.116.035a.14.14,0,0,0,.127.092A.1.1,0,0,0,57.109,59.662Z" fill="#fff"/>
        </g>
        <g opacity="0.31">
          <path d="M57.082,63.42a1.148,1.148,0,0,0,0,.337.355.355,0,0,1-.3.418.578.578,0,0,1-.508-.341,1.313,1.313,0,0,1-.145-.414,1.378,1.378,0,0,1-.014-.472.793.793,0,0,1,.139-.3.652.652,0,0,1,.528-.237.467.467,0,0,1,.453.612C57.186,63.2,57.1,63.315,57.082,63.42Zm-.1,0a.3.3,0,0,0-.25-.207c-.1-.048-.3.1.048.2.354-.033.276-.165.261-.123-.045.01-.087.067-.114.128a.728.728,0,0,0-.046.187c-.012.067.019.07-.1.068-.108.074.033.076.1.009A.263.263,0,0,0,56.982,63.42Z" fill="#fff"/>
        </g>
        <g opacity="0.31">
          <path d="M59.988,55.147a.56.56,0,0,0,.011.261c.01.091.047.283-.251.367a.52.52,0,0,1-.457-.29,1.114,1.114,0,0,1-.132-.338,1.14,1.14,0,0,1-.027-.4.675.675,0,0,1,.12-.262.613.613,0,0,1,.5-.219.466.466,0,0,1,.415.287.418.418,0,0,1-.012.273C60.1,54.976,60,55.066,59.988,55.147Zm-.1,0c-.014-.073-.13-.136-.239-.132-.088-.027-.273.15.1.253.381-.035.318-.194.312-.174-.036-.014-.074.017-.1.053a.669.669,0,0,0-.058.112c-.022.043-.005.02-.153.016-.134.076-.008.105.054.06A.164.164,0,0,0,59.888,55.147Z" fill="#fff"/>
        </g>
        <g opacity="0.31">
          <path d="M65.843,91.305q-.469,2.047-1.019,4.068a12.574,12.574,0,0,1-.58,2.01,7.537,7.537,0,0,1-1.1,1.832l-.095-.032A7.559,7.559,0,0,1,63.3,97.06a12.568,12.568,0,0,1,.77-1.945q.8-1.935,1.681-3.843Z" fill="#fff"/>
        </g>
        <g opacity="0.31">
          <path d="M79.864,81.973q-1.016,3.578-2.109,7.126c-.366,1.183-.65,2.394-1.125,3.538A22.623,22.623,0,0,1,74.985,96l-.095-.033a22.633,22.633,0,0,1,.8-3.653c.337-1.193.867-2.319,1.314-3.473q1.346-3.462,2.77-6.895Z" fill="#fff"/>
        </g>
        <g opacity="0.31">
          <path d="M74.6,97.419a2.555,2.555,0,0,1,.131.569c.008.089.095.212,0,.254a.843.843,0,0,1-.506.03l-.091-.041a.837.837,0,0,1-.316-.395c-.036-.1.114-.12.186-.173a2.524,2.524,0,0,1,.509-.284Z" fill="#fff"/>
        </g>
        <g opacity="0.31">
          <path d="M54.145,97.115a3.3,3.3,0,0,1,.374.535c.047.088.181.172.112.263a.842.842,0,0,1-.438.289l-.1,0a.8.8,0,0,1-.462-.256c-.077-.091.049-.188.088-.281a2.744,2.744,0,0,1,.326-.555Z" fill="#fff"/>
        </g>
        <g opacity="0.31">
          <path d="M43.391,92.27c.122.587.169,1.144.244,1.717l.144,1.709a8.159,8.159,0,0,1,.085,1.708,5.14,5.14,0,0,1-.471,1.7h-.1a5.251,5.251,0,0,1-.429-1.71,8.549,8.549,0,0,1,.115-1.7l.156-1.7c.06-.563.141-1.146.16-1.691Z" fill="#fff"/>
        </g>
        <g opacity="0.31">
          <path d="M54.19,94c.052.135.131.307.2.459l.176.472c.054.158.194.31.132.475a.97.97,0,0,1-.413.517l-.1.008a.954.954,0,0,1-.485-.454c-.085-.158.034-.33.067-.5a4.316,4.316,0,0,1,.325-1.012Z" fill="#fff"/>
        </g>
        <g opacity="0.31">
          <path d="M48.414,58.8A4.936,4.936,0,0,0,49.5,61.789a12.659,12.659,0,0,0,1.183.983,15.867,15.867,0,0,1,1.248,1.138L51.9,64a3.208,3.208,0,0,1-1.774-.4,3.5,3.5,0,0,1-1.271-1.343,4.578,4.578,0,0,1-.612-1.717,5.937,5.937,0,0,1,.072-1.75Z" fill="#fff"/>
        </g>
        <g opacity="0.31">
          <path d="M57.845,49.823c-.8-.072-1.722.06-2.58.038-.872.017-1.741-.143-2.618-.2s-1.755-.116-2.633-.146c-.44-.023-.879-.04-1.318-.045-.22,0-.439,0-.657.007a2.781,2.781,0,0,0-.574.071l-.1.024c.017-.148.108-.13.152-.164a1.336,1.336,0,0,1,.166-.054c.109-.03.219-.054.329-.076.22-.042.441-.076.661-.108.442-.061.884-.111,1.326-.155.885-.07,1.771-.119,2.659-.153a15.058,15.058,0,0,1,2.669,0,10.051,10.051,0,0,1,1.327.265,2.6,2.6,0,0,1,1.268.636Z" fill="#fff"/>
        </g>
        <g opacity="0.31">
          <path d="M60.252,34.19a2.74,2.74,0,0,1,.586,1.776,1.569,1.569,0,0,1-.226.977,1.3,1.3,0,0,1-.889.52l-.076-.065a3.012,3.012,0,0,1,.075-.911c.043-.245.241-.416.328-.655a3.148,3.148,0,0,0,.11-1.6Z" fill="#fff"/>
        </g>
        <g opacity="0.31">
          <path d="M54.6,37.9a5.913,5.913,0,0,1-2.566,1.8,2.432,2.432,0,0,1-1.724,0,2.216,2.216,0,0,1-1.174-1.192l.065-.076c.56.11,1,.249,1.418.317a4.825,4.825,0,0,0,1.254.165,6.935,6.935,0,0,0,2.663-1.1Z" fill="#fff"/>
        </g>
        <g opacity="0.31">
          <path d="M68.825,21.82a18.115,18.115,0,0,0-1.062,4.92,22.815,22.815,0,0,0,.132,2.439c.049.811.166,1.614.267,2.5l-.091.042a5.159,5.159,0,0,1-1.166-2.4,7.049,7.049,0,0,1,.063-2.666,15.113,15.113,0,0,1,1.766-4.877Z" fill="#fff"/>
        </g>
      </g>
    </g>
  </g>
</svg>
