<svg xmlns="http://www.w3.org/2000/svg" width="112.892" height="112.892" viewBox="0 0 112.892 112.892">
  <title>Asset 10Bchick</title>
  <g style="isolation: isolate">
    <g>
      <rect x="0.125" y="0.125" width="112.642" height="112.642" rx="8.069" fill="#e2e3e8" stroke="#f9fcff" stroke-miterlimit="10" stroke-width="0.25"/>
      <g>
        <g>
          <g>
            <path d="M70.654,101.746h3.789A33.8,33.8,0,0,0,76.338,89.62h-7.2C70.678,94.367,71.427,98.575,70.654,101.746Z" fill="#f05a28"/>
            <path d="M42.613,101.746H38.824A33.8,33.8,0,0,1,36.929,89.62h7.2C42.589,94.367,41.84,98.575,42.613,101.746Z" fill="#f05a28"/>
          </g>
          <path d="M74.37,44.678c8.893,8.635,14.054,23.483,16.8,42.353C88.4,91.538,84.983,92.1,80.911,88.578Z" fill="#cccbcb"/>
          <path d="M68.885,31.451c7.847,16.207,12.351,34.89,14.148,55.579-17.661,13.571-37.5,12.03-58.863,0A306.211,306.211,0,0,1,44.254,32.083,63.426,63.426,0,0,1,68.885,31.451Z" fill="#cbc740"/>
          <ellipse cx="55.354" cy="78.597" rx="25.232" ry="17.903" fill="#c8c6aa"/>
          <g>
            <path d="M83.633,102.269c1.546-7.1-13.113-7.769-13.4-.381a.342.342,0,0,0,.318.347l12.082.79A.964.964,0,0,0,83.633,102.269Z" fill="#bb2026"/>
            <path d="M29.448,102.269c-1.546-7.1,13.113-7.769,13.4-.381a.342.342,0,0,1-.318.347l-12.083.79A.963.963,0,0,1,29.448,102.269Z" fill="#bb2026"/>
          </g>
          <path d="M74.37,44.678c8.893,8.635,14.054,23.483,16.8,42.353C88.4,91.538,84.983,92.1,80.911,88.578Z" fill="#cbc740"/>
          <path d="M58.644,39.047c-3.032-5.609-6.947-8.544-12.2-7.425l.453-1.433c.541-.867.934-.46,1.279.355L46.9,28.957c-.24-2.686.346-3.651,1.374-3.694.852-.266,1.36,1.168,1.8,2.937a33.139,33.139,0,0,1-3.032-8.811c.537-2.864,1.843-4.1,3.742-4.074.91-.242,3.731,10.369,2.821,10.611a38.15,38.15,0,0,1-1.058-14.779c-.141-1.352,4.4-1.826,4.537-.474A44.28,44.28,0,0,1,58.644,39.047Z" fill="#bb2026"/>
          <polygon points="67.359 54.963 54.001 47.857 41.307 54.963 53.859 52.121 67.359 54.963" fill="#9d8933"/>
          <path d="M38.522,44.678c-8.892,8.635-14.053,23.483-16.8,42.353,2.775,4.507,6.187,5.071,10.259,1.547Z" fill="#cbc740"/>
          <path d="M62.054,55.247l-7.721,5.447L46,55.247A22.683,22.683,0,0,0,62.054,55.247Z" fill="#9d8933"/>
          <path d="M52.034,59.192a27.6,27.6,0,0,1-5,11.5c4.388,5.461,8.8,5.4,13.234,0a41.38,41.38,0,0,1-4-11.5Z" fill="#bb2026"/>
        </g>
        <path d="M75.2,102.524c.075-.326.2-.588.265-.863a4.472,4.472,0,0,0,.222-.792,2.791,2.791,0,0,0-.487-1.656l.039-.031a2.672,2.672,0,0,1,.848,1.687,1.765,1.765,0,0,1-.162.988,1.727,1.727,0,0,1-.686.7Z" fill="#f05a28"/>
        <path d="M79.58,102.832c.076-.326.2-.588.266-.863a4.493,4.493,0,0,0,.221-.792,2.789,2.789,0,0,0-.487-1.656l.039-.031a2.667,2.667,0,0,1,.848,1.687,1.755,1.755,0,0,1-.161.988,1.723,1.723,0,0,1-.687.7Z" fill="#f05a28"/>
        <path d="M82.417,103.011c.075-.326.2-.588.265-.863a4.5,4.5,0,0,0,.222-.792,2.789,2.789,0,0,0-.487-1.656l.039-.031a2.672,2.672,0,0,1,.848,1.687,1.766,1.766,0,0,1-.162.988,1.727,1.727,0,0,1-.686.7Z" fill="#f05a28"/>
        <path d="M37.548,102.555a1.727,1.727,0,0,1-.686-.7,1.765,1.765,0,0,1-.162-.988,2.667,2.667,0,0,1,.848-1.687l.039.031a2.791,2.791,0,0,0-.487,1.656,4.389,4.389,0,0,0,.222.792c.067.275.19.537.265.863Z" fill="#f05a28"/>
        <path d="M33.166,102.863a1.727,1.727,0,0,1-.686-.7,1.755,1.755,0,0,1-.161-.988,2.666,2.666,0,0,1,.847-1.687l.04.031a2.775,2.775,0,0,0-.487,1.656,4.493,4.493,0,0,0,.221.792c.068.275.19.537.266.863Z" fill="#f05a28"/>
        <path d="M30.33,103.042a1.727,1.727,0,0,1-.686-.7,1.766,1.766,0,0,1-.162-.988,2.667,2.667,0,0,1,.848-1.687l.039.031a2.789,2.789,0,0,0-.487,1.656,4.412,4.412,0,0,0,.222.792c.067.275.19.537.265.863Z" fill="#f05a28"/>
        <ellipse cx="63.854" cy="44.794" rx="3.853" ry="2.921" transform="translate(-4.477 82.407) rotate(-63.881)" fill="#010202"/>
        <path d="M62.69,48.328a1.564,1.564,0,0,0,1.435-.336,2.785,2.785,0,0,0,.865-2.755,1.493,1.493,0,0,0-.925-1.057,1.47,1.47,0,0,0-1.347.329,2.59,2.59,0,0,0-.821,1.208,2.778,2.778,0,0,0-.118,1.474A1.491,1.491,0,0,0,62.69,48.328Zm-.008.023a1.674,1.674,0,0,1-1.032-1.125,2.663,2.663,0,0,1,.01-1.588,2.833,2.833,0,0,1,.905-1.324,1.694,1.694,0,0,1,1.563-.324,1.672,1.672,0,0,1,1.019,1.2,2.8,2.8,0,0,1-.99,2.839A1.6,1.6,0,0,1,62.682,48.351Z" fill="#edefaa"/>
        <ellipse cx="63.391" cy="46.496" rx="1.157" ry="0.877" transform="translate(-0.691 92.034) rotate(-71.657)" fill="#edefaa"/>
        <ellipse cx="63.854" cy="44.794" rx="3.853" ry="2.921" transform="translate(-4.477 82.407) rotate(-63.881)" fill="#010202"/>
        <path d="M62.69,48.328a1.564,1.564,0,0,0,1.435-.336,2.785,2.785,0,0,0,.865-2.755,1.493,1.493,0,0,0-.925-1.057,1.47,1.47,0,0,0-1.347.329,2.59,2.59,0,0,0-.821,1.208,2.778,2.778,0,0,0-.118,1.474A1.491,1.491,0,0,0,62.69,48.328Zm-.008.023a1.674,1.674,0,0,1-1.032-1.125,2.663,2.663,0,0,1,.01-1.588,2.833,2.833,0,0,1,.905-1.324,1.694,1.694,0,0,1,1.563-.324,1.672,1.672,0,0,1,1.019,1.2,2.8,2.8,0,0,1-.99,2.839A1.6,1.6,0,0,1,62.682,48.351Z" fill="#edefaa"/>
        <ellipse cx="63.391" cy="46.496" rx="1.157" ry="0.877" transform="translate(-0.691 92.034) rotate(-71.657)" fill="#edefaa"/>
        <ellipse cx="45.85" cy="44.794" rx="2.81" ry="3.706" transform="translate(-15.038 24.759) rotate(-26.119)" fill="#010202"/>
        <path d="M46.977,48.216a1.538,1.538,0,0,1-1.419-.3,2.653,2.653,0,0,1-.874-1.219,2.681,2.681,0,0,1-.081-1.514,1.613,1.613,0,0,1,.982-1.161,1.63,1.63,0,0,1,1.507.312,2.731,2.731,0,0,1,.873,1.275,2.56,2.56,0,0,1,.007,1.53A1.612,1.612,0,0,1,46.977,48.216Zm-.008-.024a1.428,1.428,0,0,0,.874-1.093,2.664,2.664,0,0,0-.116-1.416,2.486,2.486,0,0,0-.788-1.16,1.409,1.409,0,0,0-1.291-.316,1.43,1.43,0,0,0-.888,1.014,2.541,2.541,0,0,0,.043,1.432,2.568,2.568,0,0,0,.787,1.217A1.5,1.5,0,0,0,46.969,48.192Z" fill="#edefaa"/>
        <ellipse cx="46.295" cy="46.431" rx="0.844" ry="1.113" transform="translate(-12.26 16.928) rotate(-18.343)" fill="#edefaa"/>
        <path d="M62.859,54.015c0,.285-9-1.894-9-1.894l-8.481,1.92c-.08,1.431,2.728,2.313,8.277,2.674C59.166,56.4,62.755,55.625,62.859,54.015Z" fill="#edefaa"/>
        <path d="M56.235,9.975l-.881.635a52.868,52.868,0,0,1,2.1,26.441c-2.93,2.784-4.195,6.437-4.093,10.806a7.534,7.534,0,0,0,.5,4.264l9,1.894c-.291,2.437-4.291,2.821-9.2,2.7a2.469,2.469,0,0,0,1.7,2.477c-1.531,6.115-3.055,12.225,0,15.29C56.22,84.838,61.008,91.33,69.138,94.53c-13.617,3.164-26.818,2.025-39.456-4.91-2.343,2.032-5.025.9-7.96-2.589,2.528-17.965,7.453-32.927,16.8-42.353l5.732-12.595,2.189-.461c.146-.9.374-1.7,1.065-1.905-1.213-1.265-1.022-4.146,1.251-4.486l-1.721-5.842c.661-2.836,1.878-4.27,3.742-4.074l1.437,2.893a31.038,31.038,0,0,1,.465-7.507l1.651-.835Z" fill="#666667" opacity="0.14" style="mix-blend-mode: multiply"/>
        <path d="M40.075,94.01l.446,3.893c-3.888-.242-6.289,1.368-7.109,4.945l-3.29.179c-2.583-2.289.61-6.8,7.35-6.388L37,92.975Z" fill="#666667" opacity="0.14" style="mix-blend-mode: multiply"/>
        <path d="M73.956,92.609a8.159,8.159,0,0,1-.2,4.675c4.579-1.066,6.533,1.554,7.439,5.646l-10.638-.7q-.561-.75.4-2.734a22.7,22.7,0,0,0-.578-5.4Z" fill="#666667" opacity="0.14" style="mix-blend-mode: multiply"/>
        <path d="M89.028,89.62A120.9,120.9,0,0,0,74.749,49.326,260.7,260.7,0,0,1,81.067,88.71C84.115,91.318,86.744,91.474,89.028,89.62Z" fill="#666667" opacity="0.14" style="mix-blend-mode: multiply"/>
        <path d="M66.477,46.08c3.535-5.312-3.949-7.933-5.246-2.572C64.944,39.913,66.914,40.268,66.477,46.08Z" fill="#666667" opacity="0.14" style="mix-blend-mode: multiply"/>
        <path d="M47.725,48.047c4.666-2.463-2.913-11.155-4.808-4.95C48.429,40.7,50.259,45.726,47.725,48.047Z" fill="#666667" opacity="0.14" style="mix-blend-mode: multiply"/>
        <g opacity="0.61" style="mix-blend-mode: multiply">
          <path d="M51.18,51.086a4.874,4.874,0,0,0-.05-.728c-.016-.039-.043-.086-.083-.058-.029,0-.018.174.154.247.145.04.157-.032.135-.1a1.874,1.874,0,0,0-.2-.262l-.031-.095a.534.534,0,0,1,.151-.342.434.434,0,0,1,.483-.044.547.547,0,0,1,.3.56.861.861,0,0,1-.133.3,1.7,1.7,0,0,1-.637.574Z" fill="#231f20"/>
        </g>
        <g opacity="0.61" style="mix-blend-mode: multiply">
          <path d="M56.081,51.159a1.38,1.38,0,0,1-.559-.662.85.85,0,0,1-.06-.344.528.528,0,0,1,.308-.418.431.431,0,0,1,.618.341l-.017.1c-.158.24-.221.4-.067.406.081,0,.125-.113.106-.141s-.065-.025-.09,0a2.314,2.314,0,0,0-.147.675Z" fill="#231f20"/>
        </g>
      </g>
    </g>
  </g>
</svg>
