<svg xmlns="http://www.w3.org/2000/svg" width="112.892" height="112.892" viewBox="0 0 112.892 112.892">
  <title>Asset 3maleFarmer</title>
  <g style="isolation: isolate">
    <g>
      <rect x="0.125" y="0.125" width="112.642" height="112.642" rx="8.069" fill="#e2e3e8" stroke="#f9fcff" stroke-miterlimit="10" stroke-width="0.25"/>
      <g>
        <path d="M44.736,40.243l-.56,1.22-2.62,5.67-.01.02-.93,2.02-.07.16-.03.05v.01l-4.78,10.38-1.52,3.28-5.44,11.8v.01l-.93,2.02h-.01c-1.73,1.33-3.42,1.27-5.08-.64-2.78.19-4.88-1.01-5.31-5.73q.915-3.99,2.12-7.55c.35-1.02.71-2.01,1.1-2.98a51.775,51.775,0,0,1,3.73-7.65,36.5,36.5,0,0,1,13.55-13.54c.31-.18.63-.35.95-.52.12-.07.24-.13.37-.19.07-.04.15-.08.23-.12s.16-.08.25-.13h.01c.28-.13.57-.27.86-.4.07-.03.13-.06.2-.09l.78.58.23.17.18.13.31.23.07.05,2.2,1.63Z" fill="#c3996b" stroke="#c3996b" stroke-linejoin="round" stroke-width="0.25"/>
        <path d="M83.106,70.093c-.03,1.05-.11,2.1-.23,3.15v.01c-.01.22-.04.44-.07.66-.01.04-.01.08-.02.12a47.313,47.313,0,0,1-1.7,8.17v.01a55.187,55.187,0,0,1-5.25,12.03c-.13.23-.27.47-.41.7l-3.71,1.38-.08.03c-.01-.07-.01-.15-.02-.22-.4-4.15-2.02-7.26-5.54-8.77-.57.34-1.14.66-1.7.95-.03.01-.07.03-.1.04-3.89,1.94-7.68,2.39-11.33.4l-5.18,1.14c-2.58.81-3.66,3.79-4.1,7.68-.03.23-.05.46-.07.69l-3.66-2.44q-.09-.375-.21-.75a26.323,26.323,0,0,0-4.72-9.98,12.288,12.288,0,0,1-5.81-5.44l-1.26.38c-.06-1.02-.09-2.06-.1-3.15-.01-2.39.12-4.95.37-7.66.13-1.37.29-2.77.48-4.22.17-.83.36-1.64.55-2.44.04-.16.07-.33.11-.49.32-1.35.66-2.65,1.04-3.9.58-2.01,1.23-3.88,1.93-5.63v-.02c.06-.15.12-.29.18-.44a37.454,37.454,0,0,1,5.29-9.31l.3.35.04.05.01.01.31.36v.01l1.15,1.32,1.95,2.28,8.49,9.89h.12l3.49.11,5.89.19h.03l2.54.08c.01.01.01,0,.01,0h.05l.07-.06,1.31-1.08,4.31-3.58,5.59-4.64,1.36-1.12L77,45.123l1.46-1.21v1.64c.07.18.14.35.2.53v.01a65.762,65.762,0,0,1,2.8,8.64c-.01.01,0,.01,0,.01a54.678,54.678,0,0,1,1.13,5.7c.22,1.48.38,2.97.47,4.45v.03A46.935,46.935,0,0,1,83.106,70.093Z" fill="#25443e"/>
        <path d="M87.006,102.053a1.2,1.2,0,0,1-1.23.25c-2.44-.87-11.27-4.03-14.21-5.09l-.09-.03a.494.494,0,0,1-.13-.87l.27-.18c.05-.03.1-.07.15-.1a14.455,14.455,0,0,1,4.07-1.79C83.946,92.083,92.036,97.473,87.006,102.053Z"/>
        <path d="M43.626,99.273l-14.24,4.32a2.1,2.1,0,0,1-1.68-.18c-5.33-3.21,4.49-10.65,12.02-8.34a8.712,8.712,0,0,1,3.94,2.5l.36.42A.807.807,0,0,1,43.626,99.273Z"/>
        <polygon points="38.45 43.548 46.501 64.374 50.606 57.567 38.45 43.548" fill="#335c33"/>
        <path d="M34.056,59.633l-.08.17-.92,1.93v.01l-3.8,7.94c-.35-.15-.69-.29-1.03-.45-.01,0-.01,0-.02-.01a21.74,21.74,0,0,1-8.64-6.26,14.773,14.773,0,0,1-1.82-2.95,13.184,13.184,0,0,1-.68-1.58c1.99-2.36,3.56-6.3,4.99-10.73a27.206,27.206,0,0,0,2.33,4.61l.01.02a14.28,14.28,0,0,0,5.94,5.81.055.055,0,0,0,.05.03,13.723,13.723,0,0,0,1.98.92A15.146,15.146,0,0,0,34.056,59.633Z" fill="#25443e"/>
        <path d="M30.336,58.143a14.28,14.28,0,0,1-5.94-5.81A16.811,16.811,0,0,0,30.336,58.143Z" fill="#25443e"/>
        <polygon points="50.606 57.567 54.459 63.363 59.259 57.567 50.606 57.567" fill="#c3996b" stroke="#c3996b" stroke-linejoin="round" stroke-width="0.25"/>
        <polygon points="59.259 57.567 64.69 63.363 78.775 43.548 59.259 57.567" fill="#335c33"/>
        <path d="M68.049,51.253l-1.722,13.13A2.079,2.079,0,0,1,64.18,66.19l-16.6-.688a1.384,1.384,0,0,1-1.328-1.383V53.961L42.4,48.71,40.087,58.94a4.918,4.918,0,0,1-1.719,2.747c-4.566,3.66-6.748,1.041-6.05-9.163a60.648,60.648,0,0,0-4.392,20.71,1.538,1.538,0,0,0,.375,1.077c14.04,16.041,31.965,17.44,52.792,7.893,2.091-5.608,2.216-13.566,1.787-22.188-7.113,10.757-9.147,2.344-9.44-12.636Z" fill="#5b7fa2"/>
        <path d="M46.248,69.237A62.771,62.771,0,0,0,66.9,72.963c-1.8,3.089-2.616,6.008-1.832,8.653-7.543.694-14.438.463-18.821-3.348A13.8,13.8,0,0,0,46.248,69.237Z" fill="#3a5368"/>
        <path d="M76.876,33.883h-.1c-.37.01-.73.01-1.09.01-.39.01-.78.01-1.16.01h-.01q-2.34.015-4.62,0h-.85c-1.21-.01-2.4-.02-3.57-.04l-1.24-.03h-.2c-.17,0-.34-.01-.5-.02-.34,0-.68-.01-1.01-.02-.42-.01-.83-.02-1.23-.04-1.65-.05-3.25-.13-4.82-.22-1.17-.07-2.31-.15-3.43-.24-1.05-.09-2.08-.18-3.09-.29l-1.26-.15c-1.46-.17-2.88-.37-4.26-.61-.04,0-.07-.01-.1-.01l-.17-.03c-.66-.11-1.31-.23-1.94-.37-.14-.02-.28-.05-.42-.08-.21-.04-.42-.08-.62-.13a50.564,50.564,0,0,1-5.75-1.58,29.632,29.632,0,0,1-10.1-5.52.9.9,0,0,1-.33-.63,1.014,1.014,0,0,1,.74-1.1l.01-.01c.04-.01.09-.02.14-.03a72.034,72.034,0,0,1,17.09-.3h.06v.01h.01c.22.02.44.04.66.07,1.01.11,2.01.25,3.02.41,1.37.21,2.74.46,4.12.76a1.625,1.625,0,0,1,.19.04q3.54.765,7.1,1.9c.59.18,1.18.38,1.78.58.13.04.26.08.39.13.36.13.72.26,1.09.38,1.43.53,2.87,1.09,4.32,1.7,1.23.51,2.46,1.05,3.69,1.63q2.235,1.035,4.48,2.21c.35.18.69.36,1.03.55.01,0,.02,0,.02.01.08.04.16.08.24.13.01,0,.01,0,.02.01s.02.01.03.01a.076.076,0,0,0,.04.02v.01a1.4,1.4,0,0,1,.17.09.3.3,0,0,1,.08.04.467.467,0,0,0,.1.05c.38.21.75.41,1.13.62v.01Z" fill="#424243" stroke="#000" stroke-miterlimit="10" stroke-width="0.25"/>
        <g>
          <g>
            <path d="M94.756,72.213a8.248,8.248,0,0,1-1.26,2.74,3.624,3.624,0,0,1-2.23,1.47,6.336,6.336,0,0,1-3.46-.5c-1.25,1.24-2.78.25-4.3-.63l-1.63-5.3-1.95-6.37-6.27-20.41.73-.63.35-.3c.06-.06.13-.11.19-.17l1.9-1.64c.07-.05.13-.11.19-.16.15-.13.29-.25.42-.37l.65-.57.21-.19.13-.11c.02-.02.03-.02.03-.03a6.124,6.124,0,0,1,1.62.32c.18.06.35.13.53.21a10.23,10.23,0,0,1,3.78,3.15c.14.18.28.36.41.54,2.06,2.79,4.06,7.09,5.98,13.17.97,3.08,1.93,6.62,2.86,10.66Q94.206,69.523,94.756,72.213Z" fill="#c3996b" stroke="#c3996b" stroke-linejoin="round" stroke-width="0.25"/>
            <path d="M91.716,55.153c-.24.37-.51.72-.78,1.07.8-1.42-2.58-8.25-6.14-12.96-.13-.18-.27-.36-.41-.54a17.882,17.882,0,0,0-3.07-3.23,4.252,4.252,0,0,0-.46-.32c-.01-.01-.02-.01-.03-.02a2.791,2.791,0,0,0-.33-.19,2.606,2.606,0,0,0-.58-.25,1.272,1.272,0,0,0-1.46.33c0,.01-.01.01-.03.03l-.13.11-.21.19-.65.57c-.13.12-.27.24-.42.37-.06.05-.12.11-.19.16l-1.9,1.64c-.06.06-.13.11-.19.17l-.35.3-.73.63,6.27,20.41c-.34.15-.68.29-1.03.43l2.98,5.94c.39.04.77.08,1.15.09a.22.22,0,0,0,.08.01,15.818,15.818,0,0,0,7.67-1.17,11.624,11.624,0,0,0,1.39-.74,12.4,12.4,0,0,0,1.47-1.09,13.8,13.8,0,0,0,2.19-2.35A36.2,36.2,0,0,1,91.716,55.153Zm-2.17,2.62v.01c-.2.19-.41.38-.62.57a21.921,21.921,0,0,1-2.71,2.06,21.7,21.7,0,0,0,2.09-1.59l.28-.22.11-.11c.01-.01.02-.02.03-.02.04-.04.09-.08.13-.12.22-.2.44-.4.66-.62a17.211,17.211,0,0,0,1.26-1.3A15.491,15.491,0,0,1,89.546,57.773Z" fill="#25443e"/>
            <path d="M93.636,67.093q.57,2.43,1.12,5.12a8.248,8.248,0,0,1-1.26,2.74,12.775,12.775,0,0,0-1.33-6.77,25.358,25.358,0,0,1-2.62-10.4,13.371,13.371,0,0,1-3.33,2.63,30.982,30.982,0,0,0,3.3-2.68c-3.578-2.279-6.4-10.273-9.32-17.48l.41-.68.25-.4a4.252,4.252,0,0,1,.46.32,17.882,17.882,0,0,1,3.07,3.23c.14.18.28.36.41.54,3.56,4.71,6.94,11.54,6.14,12.96.27-.35.54-.7.78-1.07a36.2,36.2,0,0,0,4.11,9.59A13.8,13.8,0,0,1,93.636,67.093Z" fill="#fff" opacity="0.28" style="mix-blend-mode: lighten"/>
          </g>
          <path d="M91.264,76.427a6.336,6.336,0,0,1-3.46-.5c-1.25,1.24-2.78.25-4.3-.63L81.874,70l-2.98-5.94c.35-.14.69-.28,1.03-.43l-6.27-20.41.73-.63.35-.3c.06-.06.13-.11.19-.17l3.16-2.74.21-.19.13-.11c.02-.02.03-.02.03-.03a1.272,1.272,0,0,1,1.46-.33l.16.65c-2.464,6.491-2.169,12.871,4.66,18.99a4.305,4.305,0,0,0,4.19,0l-.62.47-2.09,1.59c.779,3.631,1.96,6.831,4.56,8.51A7.068,7.068,0,0,0,91.264,76.427Z" fill="#666667" opacity="0.14" style="mix-blend-mode: multiply"/>
        </g>
        <path d="M65.026,77.406a43.148,43.148,0,0,1-18.017-3.683l-1.9-6.381c7.892,2.6,15.724,4.152,23.432,3.474l-3.916,6.976" fill="#24333f"/>
        <path d="M76.283,46.265a44.535,44.535,0,0,1-13.7,10.93,5.988,5.988,0,0,1-.867.394,16.107,16.107,0,0,1-6.731,1.064,10.853,10.853,0,0,1-4.95-1.61c-6.3-2.214-9.695-6.65-11.617-12.214a5.607,5.607,0,0,1,.35-4.4,17.476,17.476,0,0,1,1.414-2.264,5.477,5.477,0,0,0,.892-2.011c.663-2.872,1.717-6.317,2.894-9.93a5.57,5.57,0,0,1,3.1-3.423,23.123,23.123,0,0,1,18-.456,29.143,29.143,0,0,1,5.69,3l.5.13s1.94,4.99,3.6,9.28c.21.53.41,1.06.86,1.24a1.522,1.522,0,0,0,.98,1.73c-.5.46-.34.87-.09,1.3a3.747,3.747,0,0,0,.26.9l.33.85,0,.009A5.666,5.666,0,0,1,76.283,46.265Z" fill="#c3996b" stroke="#c3996b" stroke-linejoin="round" stroke-width="0.25"/>
        <path d="M24.243,49.814c.052.056.1.113.152.17l-.032.067-.12-.237m-1.918-2.126a2.425,2.425,0,0,0-.269.015l2.33,4.61.01.02,1.17-2.49c-1.08-1.431-2.161-2.155-3.241-2.155Z"/>
        <g>
          <path d="M41.936,31.4l-.13.35-.08.22-.04.1-.39,1.05-.06.16-.11.3-1.38,3.71-.02.05-.23.62-.03.08-.07.19-.35.94c-.39-.12-.75-.24-1.1-.38-.18-.07-.35-.14-.52-.21-.14-.07-.28-.13-.42-.2-5.1-2.46-4.58-6.99-1.57-8.34a5.241,5.241,0,0,1,3.81-.08,8.772,8.772,0,0,1,2.32,1.18.01.01,0,0,0,.01.01,1.4,1.4,0,0,1,.18.12l.01.01A.885.885,0,0,1,41.936,31.4Z" fill="#c3996b"/>
          <path d="M41.96,31.4c-.191.7-.4,1.337-.613,2s-.431,1.314-.667,1.964c-.458,1.309-.931,2.6-1.482,3.871l-.008.019a.15.15,0,0,1-.192.079c-.541-.213-1.085-.415-1.609-.656l-.006,0a9.179,9.179,0,0,1-3.563-2.714,4.676,4.676,0,0,1-.855-2.139,3.916,3.916,0,0,1,.472-2.3,4.332,4.332,0,0,1,3.985-2.1A7.25,7.25,0,0,1,41.6,31.1l.023.043c0-.017-.028-.048-.041-.042l.021.006.179.135.005,0,.01.01-.01-.007Zm-.048.012-.163-.092-.009-.007-.011-.01.005,0-.181-.1.022.006c-.025.006-.066-.033-.061-.061l.022.042a8.029,8.029,0,0,0-4.12-1.307,4.08,4.08,0,0,0-3.54,1.892,3.839,3.839,0,0,0,.188,4.023,7.14,7.14,0,0,0,3.405,2.7l-.006,0c.534.214,1.089.354,1.631.524l-.2.1c.414-1.319.905-2.617,1.41-3.9.244-.645.51-1.283.776-1.921S41.626,32.009,41.912,31.409Z" fill="#7f6347"/>
        </g>
        <path d="M41.3,33.12s-3.976,1.46-1.57,4.222Z" fill="#86694d"/>
        <g>
          <path d="M48.816,46.433c1.72,1.72,7.02,1.67,13.02,1.27-5.28,7.02-9.5,5.61-13.03-1.23" fill="#121112"/>
          <path d="M48.825,46.424a5.868,5.868,0,0,0,3.044,1.2,23.667,23.667,0,0,0,3.312.246c2.218.03,4.436-.1,6.649-.253a.09.09,0,0,1,.078.144,18.822,18.822,0,0,1-2.984,3.2,5.732,5.732,0,0,1-4.087,1.459,5.032,5.032,0,0,1-1.088-.255,5.594,5.594,0,0,1-.98-.527,5.232,5.232,0,0,1-.867-.684,6.272,6.272,0,0,1-.764-.791A17.368,17.368,0,0,1,48.8,46.479a.013.013,0,0,1,.006-.017.013.013,0,0,1,.016,0,20.061,20.061,0,0,0,2.45,3.58,5.874,5.874,0,0,0,3.6,2.124,5.607,5.607,0,0,0,3.919-1.391,18.28,18.28,0,0,0,2.981-3.131l.078.144c-2.217.131-4.439.243-6.663.185a23.682,23.682,0,0,1-3.321-.291,5.909,5.909,0,0,1-3.051-1.245.013.013,0,0,1,0-.018A.014.014,0,0,1,48.825,46.424Z"/>
        </g>
        <path d="M63.956,50.019a9.7,9.7,0,0,1-1.923-1.832,3.939,3.939,0,0,1-.659-1.18,2.392,2.392,0,0,1-.028-1.346l.025,0c.037,1.774,1.3,3.185,2.6,4.334Z" fill="#917151"/>
        <path d="M47.993,47.69a2.566,2.566,0,0,0,.774-1.449c.089-.55.129-1.1.263-1.667h.026a3.157,3.157,0,0,1-.1,1.717,2.5,2.5,0,0,1-.952,1.419Z" fill="#917151"/>
        <path d="M58.032,29.566a8.368,8.368,0,0,1,1.489-1.333,5.167,5.167,0,0,1,1.971-.832,3.025,3.025,0,0,1,2.318.213,2.468,2.468,0,0,1,1.174,1.964.132.132,0,0,1-.126.138h-.02c-.828-.075-1.367-.209-1.856-.28-.469-.049-.84-.384-1.379-.438a5.273,5.273,0,0,0-1.673.149,11.443,11.443,0,0,0-1.781.582.1.1,0,0,1-.134-.057A.1.1,0,0,1,58.032,29.566Z"/>
        <path d="M51.969,29.728a11.489,11.489,0,0,0-1.782-.582A5.271,5.271,0,0,0,48.514,29c-.539.054-.91.389-1.379.438-.488.071-1.027.205-1.856.28a.131.131,0,0,1-.145-.117.127.127,0,0,1,0-.02,2.472,2.472,0,0,1,1.175-1.964,3.025,3.025,0,0,1,2.318-.213,5.173,5.173,0,0,1,1.971.832,8.4,8.4,0,0,1,1.488,1.333.1.1,0,0,1-.01.145A.108.108,0,0,1,51.969,29.728Z"/>
        <path d="M66.44,36.63a4.56,4.56,0,0,1-.572,2.275,2.341,2.341,0,0,1-1.9,1.3,2.372,2.372,0,0,1-1.952-1.268,4.815,4.815,0,0,1-.036-4.63,2.422,2.422,0,0,1,1.988-1.309A2.389,2.389,0,0,1,65.9,34.333,4.574,4.574,0,0,1,66.44,36.63Zm-.025,0a4.5,4.5,0,0,0-.627-2.228,2.2,2.2,0,0,0-1.824-1.157,2.175,2.175,0,0,0-1.775,1.186,4.573,4.573,0,0,0-.037,4.42,2.229,2.229,0,0,0,1.812,1.226,2.253,2.253,0,0,0,1.859-1.2A4.528,4.528,0,0,0,66.415,36.63Z" fill="#917151"/>
        <g>
          <ellipse cx="63.843" cy="36.957" rx="2.063" ry="3.183" fill="#f6fbfb"/>
          <path d="M65.919,36.957a4.436,4.436,0,0,1-.454,2.023A1.989,1.989,0,0,1,63.843,40.2a2.014,2.014,0,0,1-1.67-1.2,4.707,4.707,0,0,1-.038-4.117,2.067,2.067,0,0,1,1.708-1.239A2.036,2.036,0,0,1,65.5,34.915,4.452,4.452,0,0,1,65.919,36.957Zm-.025,0a4.377,4.377,0,0,0-.511-1.98,1.849,1.849,0,0,0-1.54-1.078A1.824,1.824,0,0,0,62.354,35a4.46,4.46,0,0,0-.038,3.925,1.877,1.877,0,0,0,1.527,1.148,1.9,1.9,0,0,0,1.576-1.122A4.4,4.4,0,0,0,65.894,36.957Z"/>
        </g>
        <ellipse cx="63.843" cy="38.374" rx="1.22" ry="1.882"/>
        <path d="M46.807,36.461a4.519,4.519,0,0,0,.736,2.206,2,2,0,0,0,3.662-.265,4.578,4.578,0,0,0-.322-4.409,2.175,2.175,0,0,0-1.848-1.068A2.2,2.2,0,0,0,47.289,34.2,4.5,4.5,0,0,0,46.807,36.461Zm-.024,0a4.586,4.586,0,0,1,.386-2.326,2.4,2.4,0,0,1,1.849-1.461,2.421,2.421,0,0,1,2.069,1.179,4.808,4.808,0,0,1,.262,4.621,2.09,2.09,0,0,1-3.85.221A4.556,4.556,0,0,1,46.783,36.462Z" fill="#917151"/>
        <g>
          <ellipse cx="49.395" cy="36.621" rx="2.063" ry="3.183" transform="translate(-2.261 3.265) rotate(-3.701)" fill="#f6fbfb"/>
          <path d="M47.349,36.753a4.392,4.392,0,0,0,.6,1.964A1.9,1.9,0,0,0,49.6,39.735a1.878,1.878,0,0,0,1.45-1.244,4.46,4.46,0,0,0-.291-3.915A1.828,1.828,0,0,0,49.2,33.569a1.85,1.85,0,0,0-1.466,1.176A4.358,4.358,0,0,0,47.349,36.753Zm-.025,0a4.429,4.429,0,0,1,.285-2.065,2.037,2.037,0,0,1,1.572-1.37,2.067,2.067,0,0,1,1.785,1.127,4.71,4.71,0,0,1,.228,4.11,2.018,2.018,0,0,1-1.59,1.3,1.989,1.989,0,0,1-1.7-1.116A4.416,4.416,0,0,1,47.324,36.755Z"/>
        </g>
        <ellipse cx="49.486" cy="38.035" rx="1.22" ry="1.882" transform="translate(-2.352 3.273) rotate(-3.701)"/>
        <path d="M57.1,32.836a2.729,2.729,0,0,0-.782,1.268,3.768,3.768,0,0,0,.122,1.464l-.023.011a1.647,1.647,0,0,1-.357-.716,1.59,1.59,0,0,1,.065-.812,2.6,2.6,0,0,1,.958-1.234Z" fill="#917151"/>
        <path d="M52.657,32.95a2.082,2.082,0,0,1,.815,2.706" fill="#666667" opacity="0.14" style="mix-blend-mode: multiply"/>
        <path d="M38.971,29.944l2.94,1.362a.607.607,0,0,0-.774.463.587.587,0,0,1,.655.3.733.733,0,0,0-.761.511.721.721,0,0,0,.041.484.556.556,0,0,0,.32.32c-.206.142-.4.3-.585.45a3.506,3.506,0,0,1-.376.647.89.89,0,0,1-.128.666c-.009.133-.191.16-.424.124-.054.335-.086.634-.3.653.291.56.4.841.024.828.4.278.244.253-.363.014.594.459.741.739.4,1.3.694-.038.9.2,1.062.958.194-.406.351-.28.634.138.089-.4.233-.514.586-.3-.15-.532-.09-.74.392-.633-.442-.482-.426-.688.171-.666-.493-.388-.406-.547.213-.451-.281-.3-.058-.293.382-.1-.016-.213.186-.235.466-.247-.043-.259-.015-.422.218-.465a1.46,1.46,0,0,1,.176-1.31,1.749,1.749,0,0,1-.014-1.091c.038-.359.1-.738.155-1.116l.35-2.271,0,2.5a10.711,10.711,0,0,1-.131-1.967.881.881,0,0,0,.636-1.388.438.438,0,0,0,.369-.457l.765.261a.874.874,0,0,1,.279-1.112,1.667,1.667,0,0,1,1.233-.082,1.829,1.829,0,0,0,1.241-.041c.37-.207.489-.843.108-1.028a12.965,12.965,0,0,0,1.864.722l.073-1.215a8.5,8.5,0,0,1,4.963,3.321c.055-.754.794-1.249,1.475-1.575a16.066,16.066,0,0,1,3.221-1.14l.128-.515c.093.3.534.074.8-.1a2.4,2.4,0,0,1,1.983,0,17.575,17.575,0,0,1,3.981,1.548,7.1,7.1,0,0,1,1.67,1.346c.239.266.453.552.287.657.529.5.678.827-.08,1.228.919.106.958.3.174.8.587-.213.3-.234-.21-.232.53-.008.562.16.253.576.379-.081.417.085.162.286.337.131.381.3-.011.081.286.2.374.4.339.459-.011.018-.145-.106-.449-.4a3.974,3.974,0,0,1,.538.778c-.006.037-.2-.174-.641-.686a4.911,4.911,0,0,1,.535.976c.125.41-.232.362-1.177.012,1.513.763,1.7.845.145-.317,1.6,1.376,1.457,1.507-.237,1.587,1.763.076,1.978.1.074.165,2,.146,1.89.331.644,1.408,1.322-.924,1.511-.955,1.253.639.395-1.428.344-1.23-.021.127.3-.8.456-1.094.625-.832a3.347,3.347,0,0,1,.278.812,4.394,4.394,0,0,0-.148-.767c-.01.031.017.332.068.852.045-.511.087-.735.15-.729s.147.245.218.65a2.476,2.476,0,0,1,.033-.406.3.3,0,0,1,.154.324c.093-.155.2-.056.1.021.333.095.453.168.091.156.609.12.737.155.089.09.911.087,1.045.074.158-.184,1.049.337,1.074.459-.029.912,1.152-.211,1.177-.089.3.841,1.126-.918,1.366-.99,1.906.58-.05-1.638.2-1.634,1.774-1.052-1.086-.5-.849-.421.149-.029-.827-.438-.869-.595.067-.7-1.011-.2-1.043-.352-.161-.77-.942.121-.969-.026-.337-.616-.683.3-.708.156-.32-.379-.438.246-.464.1.018-.061-.346.1-.383,0-.224-.225-.088.139.022.158.3.144-.307-.134-.45-.3-.411-.425,0-.056.19-.067.623.017-.817-.512-.643-.64.206-.686-.793-.2-1.031-.337,0-.638a3.369,3.369,0,0,1-.916-.079c-.172-.056-.2-.15-.086-.3a2.7,2.7,0,0,1,.655-.62c-.522.189-.762.214-.8.1-.064-.1.071-.348.3-.7-.263.4-.416.654-.343.7-.016.086.194-.034.656-.372-.427.329-.6.44-.595.387a2.487,2.487,0,0,1,.435-.576c-.506.376-.626.332-.319-.266-.436.356-.445.158-.36-.227-.051.358.056.4.338.2-.069.294.037.338.29.226-.177.024-.207-.109-.228-.255-.04-.118-.07-.251-.1-.383-.108.083.1.248.2.156s.078-.254.043-.386a12.042,12.042,0,0,0-3.888-5.894,21.739,21.739,0,0,0-6.591-3.684,34.442,34.442,0,0,0-13.409-2.179,17.722,17.722,0,0,0-4.82.774c-.263.086-.525.182-.772.281-.269.111-.523.225-.4.125-.626.347-.87.48-.39.027-.838.668-.955.742-.4-.006-.779.894-.888.967-.828.148-.333,1.02-.479,1.133-1.11.482.5.731.389.838-.625.8.92.1.94.046.094-.425.711.6.557.772-.285.9.745-.068.8-.184.019-.629.692.532.543.735-.08.844.573-.093.673-.281-.011-.8.6.626.411.919-.036,1.076.278.016.3-.1-.092-.383.357.32.308.48.07.478.352-.116.515-.395,0-.946.581.427.41.713-.007.978.137.157.03.294-.2.43.024.048-.072.1-.229.143.181,0,.276-.019.274-.092.263-.176.429-.407.231-.721.262.226.094.47-.194.732a.91.91,0,0,1-.268.479c-.118.156-.256.318-.431.521a2.465,2.465,0,0,1,.388-.356c.06-.029.055.035.005.193.04-.236-.1-.1-.569.359.405-.491.478-.666-.014-.819.462.184.348.428-.06,1.04.226-.147.158.074-.023.557.119-.387.125-.512-.112-.334.116-.256-.01-.208-.351,0,.3-.175.38-.193.217.028.121-.094,0,.051-.266.34.23-.359.322-.574.074-.632.157-.365-.027-.574-.547-.865.5.265.663.463.473.8.208.069.063.28-.236.6.262-.2.37-.283.245-.206.054-.089-.126-.016-.462.122.312.013.467.09.491.258.072.111.013.312-.108.576.1-.2-.057-.152-.451-.02.308.111.374.3.289.55-.042.138-.237.328-.569.589.358.007.165.3-.207.779.523-.5.7-.608.43-.148.343-.245.234.078.01.631.147-.2.179-.18.124.022.054,0,.021.175-.015.362a.3.3,0,0,0-.352-.243.3.3,0,0,0-.355.179Z"/>
        <path d="M76.446,31.823c.07.65.18,1.31.31,1.99v.01c-.39-.19-.79-.38-1.18-.57-.01,0-.02-.01-.03-.01a.914.914,0,0,1-.14-.07H75.4c-.03-.01-.06-.03-.09-.04a.251.251,0,0,0-.07-.04c-.03-.01-.07-.03-.1-.04a.59.59,0,0,0-.08-.04h-.01a.574.574,0,0,0-.07-.04.01.01,0,0,1-.01-.01.076.076,0,0,1-.05-.02c-.31-.14-.62-.29-.93-.43-1.42-.65-2.85-1.29-4.28-1.89-1.37-.58-2.76-1.14-4.14-1.67-1.66-.65-3.32-1.25-5-1.82-2.03-.68-4.07-1.32-6.13-1.88q-4.185-1.17-8.46-1.97c-.93-.18-1.87-.34-2.81-.48v-.01a.772.772,0,0,1-.15-.02,2.116,2.116,0,0,0,.02-.24.127.127,0,0,0,.01-.06v-.02a2.286,2.286,0,0,0,.02-.25q.045-.555.06-1.08a12.623,12.623,0,0,0-1.19-6.14l2.27-2.15V9.423c10.62-.81,19.17.64,26.11,3.87a37.219,37.219,0,0,1,9.54,6.36C76.936,22.973,75.9,27.063,76.446,31.823Z" fill="#7c7d7d" stroke="#000" stroke-miterlimit="10" stroke-width="0.25"/>
        <path d="M76.766,33.833a.536.536,0,0,1,.11.05h-.1C76.756,33.863,76.756,33.843,76.766,33.833Z" fill="#7c7d7d" stroke="#000" stroke-miterlimit="10" stroke-width="0.25"/>
        <path d="M44.2,12.837c6.526-.52,12.587-.385,17.3,1.642a36.114,36.114,0,0,0-3.411,11.56l-15.071-3.27Z"/>
        <path d="M65.766,28.283c.92.39,1.85.81,2.77,1.24-.92-.42-1.85-.81-2.79-1.18q-2.145-.87-4.32-1.62h-.01c-.37-.13-.74-.25-1.1-.37-.13-.05-.26-.09-.39-.13-.59-.2-1.19-.39-1.78-.57-2.39-.73-4.77-1.37-7.1-1.91a1.625,1.625,0,0,0-.19-.04c-1.34-.32-2.65-.59-3.94-.84-.93-.18-1.85-.34-2.74-.49a.4.4,0,0,1-.15-.03,1.231,1.231,0,0,1-.2-.02c-.25-.04-.5-.08-.74-.12h-.02c-8.56-1.29-15.36-1.07-17.31.58l-.01.01a1.385,1.385,0,0,0-.41,1.73,3.843,3.843,0,0,1-.33-.63c-1.83-4.19,6.38-5.07,18.12-2.77a.292.292,0,0,0,.09.02c.81.16,1.64.34,2.49.53s1.73.4,2.61.63c3.16.8,6.49,1.8,9.88,3,1.16.4,2.32.84,3.48,1.29C63.036,27.123,64.406,27.683,65.766,28.283Z" fill="#7c7d7d" stroke="#000" stroke-miterlimit="10" stroke-width="0.25"/>
        <path d="M76.756,33.813c-.37-.22-.74-.43-1.12-.63a.177.177,0,0,0-.08-.05c-.01-.02-.03-.02-.04-.03s-.03-.02-.05-.03-.03-.01-.04-.02a.914.914,0,0,0-.14-.07v-.01a.037.037,0,0,0-.03-.01c-.01-.01-.02-.02-.03-.02h-.01a1.821,1.821,0,0,0-.27-.15.01.01,0,0,0-.01-.01c-.35-.2-.71-.39-1.07-.59-1.5-.81-3.03-1.58-4.56-2.31-.01,0-.01,0-.01-.01-.19-.09-.38-.17-.57-.27.19.08.38.17.57.26,1.55.7,3.07,1.46,4.54,2.26.38.2.75.41,1.11.62h.01c.1.06.2.11.29.17h.01c.01.01.02.01.03.02h.01l.01.01a.558.558,0,0,1,.08.05.925.925,0,0,0,.1.05C75.916,33.293,76.336,33.553,76.756,33.813Z" fill="#7c7d7d" stroke="#000" stroke-miterlimit="10" stroke-width="0.25"/>
        <g>
          <path d="M76.88,40.6c10.01,2.179,3.758-16.485-2.59-6.348l.192.47a2.165,2.165,0,0,0,.569.915c.1.731.318,1.26,1.463,1.541a1.291,1.291,0,0,0-.047,1.935,1.966,1.966,0,0,0,.221,1.016Z" fill="#c3996b"/>
          <path d="M76.888,40.585a6.5,6.5,0,0,0,2.508.051,3.146,3.146,0,0,0,2.022-1.371,5.644,5.644,0,0,0,.2-4.854,5.929,5.929,0,0,0-1.3-2.119,2.871,2.871,0,0,0-2.179-.962,3.6,3.6,0,0,0-2.172,1.041A9.644,9.644,0,0,0,74.4,34.313l.01-.113a3.659,3.659,0,0,0,.713,1.342l.006,0a.109.109,0,0,1,.038.07,1.615,1.615,0,0,0,.393.989,2.137,2.137,0,0,0,.978.486.083.083,0,0,1,.061.1.089.089,0,0,1-.02.037,1.413,1.413,0,0,0-.452.9,1.722,1.722,0,0,0,.386.951.058.058,0,0,1,.009.042,1.452,1.452,0,0,0,.1.74Zm-.016.019-.314-.723a1.507,1.507,0,0,1-.142-.784l.008.041a1.773,1.773,0,0,1-.439-1.013,1.552,1.552,0,0,1,.468-1.008l.041.136a2.317,2.317,0,0,1-1.075-.507,1.818,1.818,0,0,1-.479-1.1l.044.075a1.769,1.769,0,0,1-.5-.687c-.115-.249-.206-.5-.309-.742a.122.122,0,0,1,.01-.113,9.841,9.841,0,0,1,1.62-1.994,3.789,3.789,0,0,1,2.331-1.074,3.087,3.087,0,0,1,2.319,1.049,6.1,6.1,0,0,1,1.318,2.2,5.741,5.741,0,0,1-.273,4.962A3.231,3.231,0,0,1,79.409,40.7,6.477,6.477,0,0,1,76.872,40.6Z" fill="#c3996b"/>
          <path d="M76.912,40.556a6.571,6.571,0,0,0,2.465-.01A3.029,3.029,0,0,0,81.3,39.185a5.516,5.516,0,0,0,.1-4.693,5.67,5.67,0,0,0-1.276-2,2.542,2.542,0,0,0-1.968-.833,3.287,3.287,0,0,0-1.932.995,11.377,11.377,0,0,0-1.5,1.866l.04-.46a4.306,4.306,0,0,0,.567,1.205l.031.025a.416.416,0,0,1,.151.282,1.334,1.334,0,0,0,.271.81,1.948,1.948,0,0,0,.821.441l.053.018a.349.349,0,0,1,.218.442.362.362,0,0,1-.089.14,1.222,1.222,0,0,0-.439.708,1.529,1.529,0,0,0,.294.858l.023.042a.149.149,0,0,1,.011.125,1.277,1.277,0,0,0,.043.671C76.789,40.077,76.845,40.3,76.912,40.556Zm-.064.077c-.128-.222-.277-.483-.387-.716a1.584,1.584,0,0,1-.2-.853l.034.166a1.872,1.872,0,0,1-.532-1.106,1.829,1.829,0,0,1,.483-1.2l.181.6a2.453,2.453,0,0,1-1.231-.552,2.167,2.167,0,0,1-.6-1.278l.182.307a2.129,2.129,0,0,1-.628-.813c-.133-.27-.217-.5-.326-.751a.494.494,0,0,1,.04-.461,8.814,8.814,0,0,1,1.692-2.071,4.125,4.125,0,0,1,2.571-1.12,3.408,3.408,0,0,1,2.53,1.179A6.339,6.339,0,0,1,82,34.275a5.887,5.887,0,0,1-.375,5.125,3.351,3.351,0,0,1-2.193,1.386A6.416,6.416,0,0,1,76.848,40.633Z" fill="#8a5d3b"/>
        </g>
        <path d="M76.694,40.14c2.381-3.758,2.421-5.563-.443-4.947-.409.088-.877.226-1.376.287-.03.127.044.309.314.245-.033.644.13,1.043,1.15,1.081-.665.832-.473,1.3.221,1.972-.339.2-.176.6-.058.89Z" fill="#86694d"/>
        <path d="M52.035,53.951a2.737,2.737,0,0,0,1.639.565,4.756,4.756,0,0,0,1.639-.565l.016.02a1.979,1.979,0,0,1-1.655.745,2.675,2.675,0,0,1-1.655-.745Z" fill="#917151"/>
        <path d="M66.7,40.475l.1.085a.015.015,0,0,1,0,.022l-.013.005a17.654,17.654,0,0,0-4.116.277A16.878,16.878,0,0,0,60.7,41.4a13.792,13.792,0,0,0-1.914.757l-.014-.021a8.583,8.583,0,0,1,3.878-1.468,16.459,16.459,0,0,1,4.153-.108l-.011.028-.1-.09Z" fill="#917151"/>
        <path d="M68.509,41.267a16.735,16.735,0,0,0-5.318.389,12.162,12.162,0,0,0-2.543.744,4.7,4.7,0,0,0-2.031,1.635l-.021-.013a4.1,4.1,0,0,1,1.947-1.849,9.887,9.887,0,0,1,2.612-.714,16.11,16.11,0,0,1,5.358-.217Z" fill="#917151"/>
        <path d="M42.3,42.272a5.167,5.167,0,0,1,2.178-.9,7.377,7.377,0,0,1,2.373.172,7.105,7.105,0,0,1,2.214.9A3.855,3.855,0,0,1,50.649,44.2l-.023.011a4.612,4.612,0,0,0-1.7-1.554,8.466,8.466,0,0,0-2.131-.918,7.228,7.228,0,0,0-2.314-.241,5.1,5.1,0,0,0-2.179.8Z" fill="#917151"/>
        <path d="M42.242,41.136A5.062,5.062,0,0,1,44.7,40.064a7.5,7.5,0,0,1,2.7.141,5.834,5.834,0,0,1,2.451,1.179,4.7,4.7,0,0,1,1.5,2.243l-.024.009A6.078,6.078,0,0,0,47.349,40.4a7.358,7.358,0,0,0-2.639-.211,4.982,4.982,0,0,0-2.454.969Z" fill="#917151"/>
        <path d="M57.1,43.026a.5.5,0,0,0,0-.067.528.528,0,0,1,.145-.111c.423-.249.852-.488,1.288-.712a1.626,1.626,0,0,0-.833-1.349c-.1.076-.243.036-.37.038a.143.143,0,0,0-.081.021.056.056,0,0,0-.016.075,2.971,2.971,0,0,1-3.406-.125,1.186,1.186,0,0,0-1.3-.145,2.21,2.21,0,0,0-.693.723c-.164.538.163.912.385,1.284h.006c.031.067.06.136.1.2s.08.107.134.086l.424.063a.536.536,0,0,0,0,.106.425.425,0,0,1-.064.044,2.085,2.085,0,0,0,1.036,1.182,2.943,2.943,0,0,0,1.554.3,1.246,1.246,0,0,0,.3-.05A1.488,1.488,0,0,0,56,44.445c.387-.231.847-.561,1.234-.792l-.073-.011a1.054,1.054,0,0,0,.549-.478l-.622-.057A.738.738,0,0,1,57.1,43.026Z" fill="#be7b6b"/>
        <path d="M57.41,37.448c-.718-.064-1.468-.218-2.156-.226a6.176,6.176,0,0,0-1.023.271,1.565,1.565,0,0,0-.915.488l-.022-.012a1.247,1.247,0,0,1,.848-.709,3.607,3.607,0,0,1,1.1-.238,18.586,18.586,0,0,1,2.173.4Z" fill="#917151"/>
        <path d="M56.777,36.929l-.927-.105c-.3-.032-.624-.093-.917-.1a.918.918,0,0,0-.435.042,3.4,3.4,0,0,0-.431.108,1.509,1.509,0,0,0-.78.4l-.022-.012a1.119,1.119,0,0,1,.724-.623,1.865,1.865,0,0,1,.958-.112c.327.037.615.12.924.178l.911.2Z" fill="#917151"/>
        <path d="M42.746,38.033c-.15.14-.29.28-.43.42l-.4.4v.01a51.363,51.363,0,0,0-3.79,4.22c-.02.01-.03.03-.04.04a2.307,2.307,0,0,0-.14.19,41.786,41.786,0,0,0-5.45,8.77,34.8,34.8,0,0,0-1.96,5.37c-.08.23-.14.46-.2.69a16.811,16.811,0,0,1-5.94-5.81c3.33-6.96,8.1-12.01,13.03-13.75.27-.11.54-.19.81-.27h.01a9.347,9.347,0,0,1,1.02-.23,1.766,1.766,0,0,1,.2-.04c.07-.01.14-.02.2-.03.22-.03.44-.06.66-.07a.014.014,0,0,1,.02,0,7.473,7.473,0,0,1,1.25-.02,4.07,4.07,0,0,1,.5.03C42.316,37.973,42.526,37.993,42.746,38.033Z" fill="#25443e"/>
        <path d="M30.336,58.143a14.28,14.28,0,0,1-5.94-5.81A16.811,16.811,0,0,0,30.336,58.143Z" fill="#25443e"/>
        <path d="M46.148,35.116a8.751,8.751,0,0,0-.106,2.745,4.19,4.19,0,0,0,.453,1.261,3.2,3.2,0,0,0,.858,1.035l-.012.021a2.273,2.273,0,0,1-1.062-.931,3.34,3.34,0,0,1-.435-1.357,8.1,8.1,0,0,1,.279-2.778Z" fill="#917151"/>
        <path d="M65,40.3l1.322-1.193a2.612,2.612,0,0,0,.294-.313c.063-.129.136-.248.19-.384a6.43,6.43,0,0,0,.291-.825,4.589,4.589,0,0,0-.6-3.335l.022.009c-.017,0-.039.032-.024.054l-.02.016a.072.072,0,0,1,.035-.115.018.018,0,0,1,.02,0l0,0a3.54,3.54,0,0,1,.76,3.413,6.677,6.677,0,0,1-.334.84c-.062.137-.15.27-.223.4a2.75,2.75,0,0,1-.327.321l-1.388,1.119Z" fill="#917151"/>
        <path d="M62.517,40.337c-.509-.472-1.027-.919-1.53-1.412A3.443,3.443,0,0,1,60.482,38a5.816,5.816,0,0,1-.334-.995,2.462,2.462,0,0,1,.161-2.088c.182-.3.408-.573.615-.855a1.224,1.224,0,0,1,.859-.58l0,.025a1.267,1.267,0,0,0-.723.66c-.172.3-.384.569-.536.871a2.425,2.425,0,0,0-.184,1.923,5.751,5.751,0,0,0,.29.979,3.31,3.31,0,0,0,.45.9c.462.5.969.982,1.451,1.474Z" fill="#917151"/>
        <path d="M80.2,82.889q-1.5,3.882-3.281,7.65c-.13.071-.25-.1-.365-.194a.807.807,0,0,0-.529-.125l-4.3-.008a6.169,6.169,0,0,0,.4-4.168,13.413,13.413,0,0,1,3.134-1.479c1.666-.537,3.482-.768,4.918-1.77" fill="#24333f"/>
        <path d="M30.287,76.907a12.755,12.755,0,0,0,2.7,4.173,12.056,12.056,0,0,0,1.945,1.347,6.492,6.492,0,0,0,2.7,1.078c-.665.242-.919,1.1-1.554,1.412a2.154,2.154,0,0,1-2.062-.477,15.71,15.71,0,0,1-4.7-5.075,4.447,4.447,0,0,0,1.187-2.111" fill="#24333f"/>
        <path d="M64.256,88.1l.02.25c-3.89,1.94-7.68,2.39-11.33.4l-5.18,1.14c-2.58.81-3.66,3.79-4.1,7.68l.36.42a.807.807,0,0,1-.4,1.28l-14.24,4.32a2.1,2.1,0,0,1-1.68-.18c-5.33-3.21,4.49-10.65,12.02-8.34a26.323,26.323,0,0,0-4.72-9.98,12.288,12.288,0,0,1-5.81-5.44l-1.26.38c-.06-1.02-.09-2.06-.1-3.15-1.73,1.33-3.42,1.27-5.08-.64-2.78.19-4.88-1.01-5.31-5.73q.915-3.99,2.12-7.55a14.773,14.773,0,0,1-1.82-2.95,13.184,13.184,0,0,1-.68-1.58c1.99-2.36,3.56-6.3,4.99-10.73,1.17-.13,2.34.59,3.51,2.14l-1.17,2.49c3.33-6.96,8.1-12.01,13.03-13.75-.14-.07-.28-.13-.42-.2.41-.02.82-.05,1.23-.07h.01c.22-.02.43-.03.65-.04.17-.02.33-.03.5-.04.26-.01.52-.03.77-.04.04,0,.07-.01.1-.01h.01c.6-.04,1.14-.07,1.55-.09.13-.01.25-.02.35-.03.36-.02.57-.03.57-.03l-.36.47-3.94,5.04v.01a27.458,27.458,0,0,0,2.1,5.78c.08.17.17.34.26.51.01.01.01.03.02.04.07.12.13.24.21.36.23.43.48.83.74,1.22a14.284,14.284,0,0,0,4.47,4.37,13.811,13.811,0,0,0,4.34,1.71c.03.01.06.01.09.02l.49.09a18.238,18.238,0,0,0,2.82.26,24.282,24.282,0,0,0,4.31-.35c.41-.06.82-.14,1.24-.22.01,0,.03-.01.04-.01a37.231,37.231,0,0,0,3.97-1.05c.5-.16,1-.33,1.51-.52h.01l-2.14,5.72-1.09,2.89.18,1.73.49,4.8.18,1.86.48,4.65.44,4.32.59,5.83v.02Z" fill="#666667" opacity="0.14" style="mix-blend-mode: multiply"/>
        <path d="M73.646,85.2c-.06.19-.45,2.38-.9,5.01-.33,1.91-.69,4.05-.98,5.82a2.931,2.931,0,0,0-.05.29c-.06.31-.11.61-.15.89l-.09-.03a.494.494,0,0,1-.13-.87l.27-.18c-.4-4.15-2.02-7.26-5.54-8.77-.57.34-1.14.66-1.7.95l-.12-.2V88.1l-.29-.48a.077.077,0,0,0,.03-.01c.03-.01.1-.02.2-.05,1.35-.34,8.34-2.1,9.34-2.34A.308.308,0,0,1,73.646,85.2Z" fill="#666667" opacity="0.14" style="mix-blend-mode: multiply"/>
        <polygon points="68.726 53.34 67.314 65.763 64.18 66.19 66.159 64.95 67.638 54.387 68.726 53.34" fill="#666667" opacity="0.14" style="mix-blend-mode: multiply"/>
        <path d="M74.482,34.717c1.364-1.279,2.637-2.071,3.73-1.891a6.855,6.855,0,0,1,2.9,3.477L80.2,40.256C84.739,33.12,78.218,28.918,74.482,34.717Z" fill="#666667" opacity="0.14" style="mix-blend-mode: multiply"/>
        <path d="M42.3,31.209l-2.134,6.984-2.74.39C30.336,35.114,32.606,26.716,42.3,31.209Z" fill="#666667" opacity="0.14" style="mix-blend-mode: multiply"/>
        <path d="M75.051,35.632a3.638,3.638,0,0,1,3.064.671L76.694,40.14C79.311,35.574,78.98,34.25,75.051,35.632Z" fill="#666667" opacity="0.14" style="mix-blend-mode: multiply"/>
        <path d="M76.56,38.778c1.165-1.8.515-2.274-.942-2.157A3.166,3.166,0,0,0,76.56,38.778Z" fill="#666667" opacity="0.14" style="mix-blend-mode: multiply"/>
        <path d="M69.727,53.183c2.17,8.318,2.207,19.617.835,32.89l3.485-.944a287.7,287.7,0,0,0-2.09-33.966Z" fill="#fff" opacity="0.28" style="mix-blend-mode: lighten"/>
        <polyline points="67.375 71.763 60.554 71.763 60.554 70.721 67.754 70.721" fill="#fff" opacity="0.28" style="mix-blend-mode: lighten"/>
        <line x1="68.543" y1="70.816" x2="64.627" y2="77.258" fill="#fff" opacity="0.28" style="mix-blend-mode: lighten"/>
        <g opacity="0.14">
          <path d="M69.269,53.479A126.552,126.552,0,0,1,68.8,86.826" fill="none" stroke="#fff" stroke-miterlimit="10" stroke-width="0.25"/>
        </g>
        <path d="M67.09,41.637c-3.31-.168-5.985.588-7.958,2.368A30.778,30.778,0,0,1,67.09,41.637Z" fill="#fff" opacity="0.28" style="mix-blend-mode: lighten"/>
        <path d="M66.664,40.547c-3.31-.168-5.985.589-7.958,2.369A30.778,30.778,0,0,1,66.664,40.547Z" fill="#fff" opacity="0.28" style="mix-blend-mode: lighten"/>
        <path d="M57.7,40.787c-1.955-.237-2.384-1.788-2.334-3.668a5.112,5.112,0,0,0,.5,4.3A3.318,3.318,0,0,0,57.7,40.787Z" fill="#fff" opacity="0.28" style="mix-blend-mode: lighten"/>
        <path d="M67.848,33.916a28.276,28.276,0,0,0,2,6.039,2.355,2.355,0,0,1,.149.347c.911,2.783.832,7.135.554,11.8.6-4.5,1.026-8.76.41-11.629a1.534,1.534,0,0,0-.292-.607A21.864,21.864,0,0,1,67.848,33.916Z" fill="#fff" opacity="0.28" style="mix-blend-mode: lighten"/>
        <path d="M61.78,45.142c-.042,1.98,1.17,3.566,3.286,4.867C63.512,48.325,62.219,46.764,61.78,45.142Z" fill="#fff" opacity="0.28" style="mix-blend-mode: lighten"/>
        <path d="M61.5,49.383c-.549,1.682-2.42,2.808-5.086,3.622A11.42,11.42,0,0,0,61.5,49.383Z" fill="#fff" opacity="0.28" style="mix-blend-mode: lighten"/>
        <path d="M58.958,31.5c-1.211.971-1.821,2.649-2.178,4.623A17.325,17.325,0,0,1,58.958,31.5Z" fill="#fff" opacity="0.28" style="mix-blend-mode: lighten"/>
        <path d="M60.34,47.131a46.4,46.4,0,0,0-5.019.166A30,30,0,0,0,60.34,47.131Z" fill="#fff" opacity="0.28" style="mix-blend-mode: lighten"/>
        <path d="M87.427,99.616c-.746-5.8-6.323-5.482-12.631-4.232C80.5,94.628,85.528,94.855,87.427,99.616Z" fill="#fff" opacity="0.28" style="mix-blend-mode: lighten"/>
        <path d="M43.461,95.578a7.376,7.376,0,0,1,2.008-5.629A35.577,35.577,0,0,0,43.461,95.578Z" fill="#fff" opacity="0.28" style="mix-blend-mode: lighten"/>
        <path d="M37.19,43.548a54.643,54.643,0,0,0-6.654,13.905l-4.45-2.837c1.688.813,3.426,1.739,4.25.622Z" fill="#666667" opacity="0.14" style="mix-blend-mode: multiply"/>
        <path d="M30.536,57.453a16.305,16.305,0,0,0-2.33,11.77A63.842,63.842,0,0,1,30.536,57.453Z" fill="#666667" opacity="0.14" style="mix-blend-mode: multiply"/>
        <path d="M28.206,69.223l-8.64-6.26c4.341,3.923,7.953,8.177,8.27,13.92A52.323,52.323,0,0,1,28.206,69.223Z" fill="#666667" opacity="0.14" style="mix-blend-mode: multiply"/>
        <path d="M27.852,73.7Q42.385,91.512,64.2,87.563C48.762,91.178,36.771,86.251,27.852,73.7Z" fill="#666667" opacity="0.14" style="mix-blend-mode: multiply"/>
        <path d="M66.076,87.363c3.843,1.845,5.315,5.069,5.64,8.96V91.662a4.458,4.458,0,0,0-5.641-4.3Z" fill="#666667" opacity="0.14" style="mix-blend-mode: multiply"/>
        <path d="M45.111,67.342l1.9,6.381-.761,4.545A47.542,47.542,0,0,0,45.111,67.342Z" fill="#666667" opacity="0.14" style="mix-blend-mode: multiply"/>
        <path d="M64.627,56.027Q58.251,59.546,50.2,57.453l4.292,6.115,4.041-4.875A19.945,19.945,0,0,0,64.627,56.027Z" fill="#666667" opacity="0.14" style="mix-blend-mode: multiply"/>
        <path d="M61.5,47.228c-4.2,1.2-11.3.969-12.647-.9A30.527,30.527,0,0,0,61.5,47.228Z" fill="#666667" opacity="0.14" style="mix-blend-mode: multiply"/>
        <path d="M59.735,51.53c-6.449,4.1-9.71,1.647-11.2-4.445Q51.1,56.323,59.735,51.53Z" fill="#666667" opacity="0.14" style="mix-blend-mode: multiply"/>
        <path d="M50.2,38.778c.615-1.176.4-1.944-.8-2.157A1.947,1.947,0,0,1,50.2,38.778Z" fill="#fff" opacity="0.28" style="mix-blend-mode: lighten"/>
        <path d="M64.566,39.053c.616-1.175.4-1.943-.8-2.156A1.944,1.944,0,0,1,64.566,39.053Z" fill="#fff" opacity="0.28" style="mix-blend-mode: lighten"/>
        <path d="M73.062,31.708a44.645,44.645,0,0,1,3.756-14.559l-1.878-1.3a57.623,57.623,0,0,0-4.108,14.9Z" fill="#fff" opacity="0.28" style="mix-blend-mode: lighten"/>
        <path d="M78.212,18.233a36.668,36.668,0,0,0-3.73,14.3l-.616-.338A47.188,47.188,0,0,1,77.747,17.86Z" fill="#fff" opacity="0.28" style="mix-blend-mode: lighten"/>
        <path d="M44.2,12.837l-2.266,2.146a12.63,12.63,0,0,1,1.19,6.14l1.042-8" fill="#666667" opacity="0.14" style="mix-blend-mode: multiply"/>
        <path d="M65.066,22.343c-.156-1.17,2.692-10.166,3.183-9.939l-1.592-.593-3.546,9.862Z" fill="#666667" opacity="0.14" style="mix-blend-mode: multiply"/>
      </g>
    </g>
  </g>
</svg>
