<svg xmlns="http://www.w3.org/2000/svg" width="112.892" height="112.892" viewBox="0 0 112.892 112.892">
  <title>Asset 6squirrel</title>
  <g style="isolation: isolate">
    <g>
      <rect x="0.125" y="0.125" width="112.642" height="112.642" rx="8.069" fill="#e2e3e8" stroke="#f9fcff" stroke-miterlimit="10" stroke-width="0.25"/>
      <g>
        <path d="M99.03,22.66A6.027,6.027,0,0,1,95.62,27c-4.77,2.28-7.74,5.93-7.33,12.17a9.625,9.625,0,0,0,.55,2.65c10.58,30.12,2.34,41.79-14.78,44.76l-.32-2.54-.31-2.44L72.09,71.08a1.18,1.18,0,0,0,.2-.04c6.87-1.14,10.47-10.21,9.23-30.98a11.816,11.816,0,0,1,.07-2.45q1.59-11.22,11.03-15.97c.44-.21.85-.39,1.24-.55C98.02,19.36,99.48,20.14,99.03,22.66Z" fill="#7b7a6b"/>
        <path d="M93.03,22.57a5.738,5.738,0,0,1-2.76,4.17c-3.85,2.2-6.26,5.71-5.93,11.71A11.451,11.451,0,0,0,84.79,41c8.54,28.93,1.91,40.17-11.9,43.04-.02,0-.03.01-.05.01l-.26-2.45L71.44,71.04c6.87-1.14,10.47-10.21,9.23-30.98a11.816,11.816,0,0,1,.07-2.45q1.59-11.22,11.03-15.97c.44-.21.85-.39,1.24-.55A3.776,3.776,0,0,1,93.03,22.57Z" fill="#6c6162"/>
        <path d="M58.792,33.573c1.953-13.828,20.674-16.26,22.642-16.485Z"/>
        <path d="M81.434,17.088c-.557,14.2-6.56,23.519-19.832,26.329l-2.81-10.16Z" fill="#6c6162"/>
        <path d="M38.014,33.57l-.07-.05-.19-.14-.7-.51-.65-.47-5-3.64-1.35-.99L15.374,17.09c1.26.14,9.47,1.2,15.68,5.62-.01.01,0,.01,0,.01a18.337,18.337,0,0,1,3.76,3.5,14.765,14.765,0,0,1,2.89,5.76c.03.13.06.26.09.4.06.27.12.55.17.84,0,.03.01.06.01.1a.433.433,0,0,1,.01.05C37.994,33.44,38,33.5,38.014,33.57Z"/>
        <path d="M38.014,33.26l-.01.05-.02.06-.04.15-2.74,9.9a30.265,30.265,0,0,1-3.41-.92c-10.9-3.61-15.92-12.49-16.42-25.41l14.55,10.39,1.17.83.01.01,5.57,3.98.58.42.71.5Z" fill="#6c6162"/>
        <g>
          <path d="M74.9,84.03c0,.06-.01.12-.01.18a6.988,6.988,0,0,1-2.37,4.9,7.248,7.248,0,0,1-.83.63c-.61.39-1.22.77-1.83,1.12a43.355,43.355,0,0,1-7.32,3.45,40.6,40.6,0,0,1-10.91,2.38,49.026,49.026,0,0,1-16.59-1.63,67.109,67.109,0,0,1-8.44-2.85c-.6-.24-1.2-.49-1.8-.76-.42-.18-.85-.37-1.27-.57-.19-.08-.39-.17-.58-.26l-1.44-.69a6.966,6.966,0,0,1-3.62-8.17c.91-3.21,1.85-6.39,2.85-9.54a.142.142,0,0,1,.02-.06q.84-2.7,1.74-5.37,1.185-3.555,2.45-7.07,3.165-8.76,6.84-17.22,1.545-3.57,3.18-7.06a7.394,7.394,0,0,1,.91-1.45,6.879,6.879,0,0,1,1.17-1.12c.07-.05.13-.1.2-.15.18-.12.36-.24.54-.34a6.824,6.824,0,0,1,2.24-.8,60.211,60.211,0,0,1,10.32-.83c1.36,0,2.72.05,4.1.14a.2.2,0,0,0,.07.01c.89.05,1.79.13,2.69.23a6.59,6.59,0,0,1,1.97.52,5.965,5.965,0,0,1,1.05.58.939.939,0,0,1,.18.12c.01,0,.02.01.03.02a7.163,7.163,0,0,1,1.41,1.34,7.04,7.04,0,0,1,.91,1.52q1.53,3.45,2.87,7.05a142.473,142.473,0,0,1,5.24,17.22c.51,2.13.99,4.3,1.42,6.49q.495,2.52.93,5.09v.02l.3,1.8a.127.127,0,0,0,.01.06c.12.78.24,1.57.35,2.36.38,2.57.7,5.17.98,7.8C74.894,83.43,74.9,83.73,74.9,84.03Z" fill="#554a4d"/>
          <g>
            <path d="M75.855,95.845c1.546-9.315-13.113-10.2-13.4-.5a.418.418,0,0,0,.318.455l12.082,1.036C75.329,96.878,75.754,96.451,75.855,95.845Z" fill="#151515"/>
            <path d="M35.064,95.35a.411.411,0,0,1-.32.45l-12.08,1.04a.7.7,0,0,1-.32-.05,1.176,1.176,0,0,1-.67-.94,6.1,6.1,0,0,1,1.28-5.23c3.35-3.85,11.67-2.67,12.09,4.44A2.825,2.825,0,0,1,35.064,95.35Z" fill="#151515"/>
          </g>
          <path d="M74.834,96.832a7.441,7.441,0,0,0-.207-3.273c-.157-.524-.4-1.014-.6-1.519s-.434-1.005-.627-1.548l.042-.028a5.286,5.286,0,0,1,1.037,1.363,5.707,5.707,0,0,1,.533,1.636,6.934,6.934,0,0,1-.132,3.38Z" fill="#949385"/>
          <path d="M73.22,96.64a7.01,7.01,0,0,0-.208-3.179c-.158-.508-.4-.98-.6-1.469s-.433-.972-.624-1.5l.041-.029a5.074,5.074,0,0,1,1.033,1.311,5.453,5.453,0,0,1,.535,1.588,6.527,6.527,0,0,1-.13,3.289Z" fill="#949385"/>
          <path d="M71.018,96.44a6.551,6.551,0,0,0-.211-3.081c-.158-.491-.4-.945-.6-1.416s-.431-.939-.622-1.451l.041-.029a4.822,4.822,0,0,1,1.028,1.255,5.19,5.19,0,0,1,.538,1.539,6.133,6.133,0,0,1-.128,3.195Z" fill="#949385"/>
          <path d="M22.332,96.843a6.935,6.935,0,0,1-.133-3.38,5.707,5.707,0,0,1,.533-1.636,5.312,5.312,0,0,1,1.038-1.363l.041.028c-.192.543-.436,1.034-.627,1.548s-.439.995-.6,1.519a7.456,7.456,0,0,0-.207,3.273Z" fill="#949385"/>
          <path d="M23.945,96.651a6.549,6.549,0,0,1-.13-3.289,5.483,5.483,0,0,1,.535-1.588,5.077,5.077,0,0,1,1.034-1.311l.041.029c-.192.528-.434,1-.625,1.5s-.439.961-.6,1.469a7.01,7.01,0,0,0-.209,3.179Z" fill="#949385"/>
          <path d="M26.148,96.452a6.143,6.143,0,0,1-.127-3.195,5.16,5.16,0,0,1,.537-1.539,4.826,4.826,0,0,1,1.029-1.255l.04.029c-.19.512-.431.97-.622,1.451s-.439.925-.6,1.416a6.564,6.564,0,0,0-.21,3.081Z" fill="#949385"/>
        </g>
        <ellipse cx="48.402" cy="77.364" rx="16.8" ry="18.339" fill="#e2dfde" opacity="0.94"/>
        <path d="M54.308,64.141l-10.927-.348v.348a3.538,3.538,0,0,0,3.537,3.537h3.853a3.538,3.538,0,0,0,3.537-3.537Z" fill="#554a4d"/>
        <ellipse cx="48.702" cy="59.341" rx="10.089" ry="6.632" fill="#e2dfde"/>
        <ellipse cx="48.844" cy="53.373" rx="3.411" ry="1.895" fill="#151515"/>
        <g>
          <ellipse cx="57.235" cy="46.56" rx="5.2" ry="7.484" transform="translate(-10.018 16.218) rotate(-14.845)" fill="#e2dfde"/>
          <path d="M62.309,45.215a11.668,11.668,0,0,1,.308,5.06A5.558,5.558,0,0,1,61.543,52.7a4.153,4.153,0,0,1-2.284,1.5,4.341,4.341,0,0,1-2.669-.32,6.9,6.9,0,0,1-2.084-1.531,11.445,11.445,0,0,1-2.562-4.383A9.446,9.446,0,0,1,51.7,42.8a6.524,6.524,0,0,1,1.162-2.433,4.178,4.178,0,0,1,5.089-1.316,5.735,5.735,0,0,1,2.129,1.6A11.663,11.663,0,0,1,62.309,45.215Zm-.1.025a8.3,8.3,0,0,0-2.6-4.118,4.769,4.769,0,0,0-4.163-1.281,4.481,4.481,0,0,0-2.846,3.213,10.182,10.182,0,0,0-.135,4.768,8.452,8.452,0,0,0,2.261,4.293,4.473,4.473,0,0,0,4.311,1.277,5.061,5.061,0,0,0,2.967-3.285A8.3,8.3,0,0,0,62.212,45.24Z" fill="#474748"/>
        </g>
        <path d="M75.345,70.436c2.643,5.2,7.855,6.685,14.963,5.416.356,3.246-12.943,11.27-17.1,10.728-.684-.459-1.97-15.5-1.97-15.5Z" fill="#828b94" opacity="0.14" style="mix-blend-mode: multiply"/>
        <rect x="67.697" y="55.978" width="11.842" height="18.284" rx="5.921" transform="translate(67.609 -32.983) rotate(45)" fill="#554a4d"/>
        <path d="M75.969,71.143C71.108,77.057,61.16,69.9,67.154,63.21,70.788,64.106,73.786,66.6,75.969,71.143Z" fill="#818a94"/>
        <g opacity="0.53">
          <path d="M69.471,73.057a8.45,8.45,0,0,1,.6-1.158l.659-1.073a5.835,5.835,0,0,1,.694-1.047,3.813,3.813,0,0,1,1.024-.8l.06.046a3.836,3.836,0,0,1-.485,1.2,5.954,5.954,0,0,1-.813.956l-.838.936c-.287.287-.579.654-.851.882Z"/>
        </g>
        <g opacity="0.53">
          <path d="M66.136,70.412q.636-1.029,1.321-2.019a5.372,5.372,0,0,1,.7-.974,3.542,3.542,0,0,1,1.023-.712l.058.047a3.546,3.546,0,0,1-.5,1.141,5.408,5.408,0,0,1-.82.879q-.84.863-1.728,1.686Z"/>
        </g>
        <path d="M29.374,70.36a5.715,5.715,0,0,1-.93,1.22c-.14.14-.29.27-.44.4a1.71,1.71,0,0,1-.14.11,5.627,5.627,0,0,1-1.76.93,4.671,4.671,0,0,1-.82.2,2.321,2.321,0,0,1-.46.07,5.828,5.828,0,0,1-4.06-1.13,5.3,5.3,0,0,1-.69-.58l-.44-.44-4.12-4.11a5.922,5.922,0,0,1,8.38-8.37l4.55,4.55a5.651,5.651,0,0,1,1.1,1.54A5.881,5.881,0,0,1,29.374,70.36Z" fill="#554a4d"/>
        <path d="M29.424,70.43a5.868,5.868,0,0,1-.968,1.136l-.012.014c-.14.14-.29.27-.44.4a1.71,1.71,0,0,1-.14.11,6.315,6.315,0,0,1-1.77.91,4.4,4.4,0,0,1-.81.22,2.321,2.321,0,0,1-.46.07,5.529,5.529,0,0,1-4.08-1.07,6.513,6.513,0,0,1-1.1-1.07l-.01-.01a17.472,17.472,0,0,1,2.87-4.35,11.675,11.675,0,0,1,5.94-3.58,8.164,8.164,0,0,1,1.1,1.54A5.326,5.326,0,0,1,29.424,70.43Z" fill="#818a94"/>
        <g opacity="0.53">
          <path d="M26.075,73c-.272-.228-.565-.595-.852-.882l-.838-.936a5.947,5.947,0,0,1-.812-.956,3.862,3.862,0,0,1-.486-1.2l.06-.046a3.8,3.8,0,0,1,1.025.8,5.777,5.777,0,0,1,.693,1.047l.66,1.073a8.562,8.562,0,0,1,.6,1.158Z"/>
        </g>
        <g opacity="0.53">
          <path d="M29.405,70.46q-.888-.823-1.727-1.686a5.408,5.408,0,0,1-.82-.879,3.547,3.547,0,0,1-.5-1.141l.058-.047a3.515,3.515,0,0,1,1.023.712,5.324,5.324,0,0,1,.7.974q.686.989,1.322,2.019Z"/>
        </g>
        <g>
          <ellipse cx="56.613" cy="48.814" rx="0.488" ry="1.243" fill="#050505"/>
          <path d="M57.113,48.814a2.84,2.84,0,0,1-.073.711c-.065.215-.1.519-.427.594-.331-.056-.4-.365-.48-.579a2.892,2.892,0,0,1-.108-.726,2.933,2.933,0,0,1,.067-.738,1.487,1.487,0,0,1,.144-.361.478.478,0,0,1,.377-.27c.4.1.408.425.466.646A4,4,0,0,1,57.113,48.814Zm-.025,0a2.1,2.1,0,0,0-.138-.688c-.073-.2-.235-.448-.337-.431-.1,0-.237.243-.282.446A2.73,2.73,0,0,0,56.29,49.5c.049.207.151.472.323.5.18-.006.309-.276.376-.482A2.781,2.781,0,0,0,57.088,48.814Z"/>
        </g>
        <g>
          <ellipse cx="39.781" cy="46.56" rx="7.484" ry="5.2" transform="translate(-15.416 73.085) rotate(-75.155)" fill="#e2dfde"/>
          <path d="M34.8,45.24a8.3,8.3,0,0,0,.2,4.867,5.061,5.061,0,0,0,2.967,3.285,4.473,4.473,0,0,0,4.311-1.277,8.452,8.452,0,0,0,2.261-4.293,10.182,10.182,0,0,0-.135-4.768,4.481,4.481,0,0,0-2.846-3.213A4.768,4.768,0,0,0,37.4,41.122,8.3,8.3,0,0,0,34.8,45.24Zm-.1-.025a11.663,11.663,0,0,1,2.228-4.559,5.735,5.735,0,0,1,2.129-1.6,4.178,4.178,0,0,1,5.089,1.316A6.524,6.524,0,0,1,45.315,42.8a9.446,9.446,0,0,1-.243,5.159,11.458,11.458,0,0,1-2.562,4.383,6.9,6.9,0,0,1-2.084,1.531,4.341,4.341,0,0,1-2.669.32,4.153,4.153,0,0,1-2.284-1.5A5.558,5.558,0,0,1,34.4,50.275,11.668,11.668,0,0,1,34.707,45.215Z" fill="#474748"/>
        </g>
        <g>
          <ellipse cx="40.403" cy="48.814" rx="0.488" ry="1.243" fill="#050505"/>
          <path d="M39.928,48.814a2.781,2.781,0,0,0,.1.7c.067.206.2.476.376.482.172-.025.273-.29.323-.5a2.73,2.73,0,0,0-.041-1.356c-.045-.2-.184-.45-.282-.446-.1-.017-.264.231-.337.431A2.1,2.1,0,0,0,39.928,48.814Zm-.025,0a4,4,0,0,1,.034-.723c.058-.221.066-.547.466-.646a.478.478,0,0,1,.377.27,1.487,1.487,0,0,1,.144.361,2.933,2.933,0,0,1,.067.738,2.892,2.892,0,0,1-.108.726c-.082.214-.149.523-.48.579-.322-.075-.362-.379-.427-.594A2.84,2.84,0,0,1,39.9,48.814Z"/>
        </g>
        <path d="M48.9,55.267a7.628,7.628,0,0,1,.449,2.1c.013.167.02.37.023.506a1.064,1.064,0,0,0,.048.344,1.012,1.012,0,0,0,.422.594,1.5,1.5,0,0,0,.84.2l1.052.075,2.105.2v.1l-2.105.2-1.052.075a2.238,2.238,0,0,1-1.21-.141A2.014,2.014,0,0,1,48.5,58.6a1.879,1.879,0,0,1-.172-.68c-.007-.215.007-.362.017-.546a7.63,7.63,0,0,1,.45-2.1Z" fill="#554a4d"/>
        <path d="M64.884,26.66a8.266,8.266,0,0,1-.24,2.01c-.05.18-.11.36-.16.52-.01.01,0,.01,0,.01-.05.12-.09.22-.14.33a6.03,6.03,0,0,1-3.19,3.13c-.23-.11-.46-.21-.7-.3-.01-.01-.03-.02-.04-.01a.849.849,0,0,0-.22-.09c-.34-.14-.7-.27-1.06-.38a24.375,24.375,0,0,0-4.61-.98.2.2,0,0,1-.07-.01,38.2,38.2,0,0,0-4.11-.24c-.32-.01-.65-.01-.98-.01-.4-.05-.79-.09-1.19-.12-.09-.01-.18-.01-.27-.02a29.307,29.307,0,0,0-10.2,1.48c-.34.1-.68.21-1.03.32-.09.03-.18.06-.27.1-.25.08-.51.17-.77.26a14.45,14.45,0,0,1-4.23-3.9c-.1-.14-.2-.29-.3-.44l-.01-.01c-.2-.31-.39-.64-.58-.97a14.386,14.386,0,0,1-1-2.38,14.106,14.106,0,0,0,4.17,3.09,10.891,10.891,0,0,0,2.1.79,20.286,20.286,0,0,1-4.07-5.04q-.33-.525-.66-1.08s-.01,0,0-.01c-.37-.59-.73-1.19-1.09-1.8a51.771,51.771,0,0,0,8.2,6.05,15.627,15.627,0,0,0,2.17,1.03l-2.05-2.3-3.92-4.4c3.95,3.16,7.76,5.89,10.9,6.57-2.09-2.46,1.57.98,1.57.98a4.49,4.49,0,0,0,.78-1.88v-.01c.01-.06.01-.11.02-.16a4.911,4.911,0,0,0-.06-1.52,3.892,3.892,0,0,1,.61,2.89,4.688,4.688,0,0,1-.38,1.17l.44-.26.38-.23c.57-.24,1.13-.48,1.66-.74,4.64-2.21,8.05-5.19,10.05-9.08-.35,1.11-.71,2.19-1.08,3.22a23.852,23.852,0,0,1-2.87,6c.44-.21.85-.43,1.24-.65,1.91-1.08,3.19-2.29,3.46-3.68a7.127,7.127,0,0,1,.09,2.1,4.8,4.8,0,0,1-1.14,2.7c.29-.3.56-.61.83-.91,0-.01.01-.02.02-.03l.3-.36a18.933,18.933,0,0,0,1.29-1.77c.01-.01.02-.02.02-.03a14.46,14.46,0,0,0,1.42-2.8c-.04.51-.09,1.02-.17,1.52a3.967,3.967,0,0,1-.07.48,14.793,14.793,0,0,1-2.59,6.33,14.4,14.4,0,0,0,1.51-1.23A8.394,8.394,0,0,0,64.884,26.66Z" fill="#7b7a6b"/>
        <path d="M48.9,55.267a7.628,7.628,0,0,1,.449,2.1,5.227,5.227,0,0,1,.018.546,1.879,1.879,0,0,1-.172.68,2.014,2.014,0,0,1-.968.927,2.238,2.238,0,0,1-1.21.141l-1.052-.075-2.105-.2v-.1l2.105-.2,1.052-.075a1.5,1.5,0,0,0,.84-.2,1.012,1.012,0,0,0,.422-.594,1.064,1.064,0,0,0,.048-.344c0-.136.009-.339.022-.506a7.63,7.63,0,0,1,.45-2.1Z" fill="#554a4d"/>
        <g>
          <path d="M64.884,28.08a7.807,7.807,0,0,1-.05.86,1.942,1.942,0,0,1-.02.24v.01a5.839,5.839,0,0,1-2.96,4.52,7.736,7.736,0,0,1-.7.37,16.935,16.935,0,0,0-2-.77c-.1-.04-.19-.07-.29-.1h-.01a29.98,29.98,0,0,0-8.47-1.14c-.34-.01-.68-.01-1.02-.01A27.328,27.328,0,0,0,38,33.31c-.01-.01-.02,0-.03.01a1.041,1.041,0,0,0-.22.06c-.62.19-1.24.39-1.87.61-.08.03-.17.06-.25.09a13.827,13.827,0,0,1-5.58-6.31,2.55,2.55,0,0,1-.13-.29c-.15-.36-.29-.73-.41-1.11.33.34.66.67,1,.97a12.656,12.656,0,0,0,5.27,2.91,11.728,11.728,0,0,1-2.1-2.2,55.17,55.17,0,0,1-3.72-5.72c.59.5,1.17.99,1.75,1.47,1.05.87,2.09,1.68,3.1,2.42a24.7,24.7,0,0,0,5.52,3.18l-2.17-2.44-3.8-4.25c1.33,1.07,2.64,2.08,3.92,2.98a20.734,20.734,0,0,0,6.98,3.59c-2.09-2.47,1.57.97,1.57.97a4.417,4.417,0,0,0,.78-3.29v-.01c-.01-.08-.02-.17-.04-.26.02.03.04.07.06.1a4.33,4.33,0,0,1,.55,1.37,3.46,3.46,0,0,1,.06.91,4.076,4.076,0,0,1-.34,1.43,1.3,1.3,0,0,1-.1.25l.37-.23.45-.27c.58-.24,1.15-.49,1.69-.75a21.8,21.8,0,0,0,8.94-7.26,16.487,16.487,0,0,0,1.08-1.8,53.752,53.752,0,0,1-2.71,7.15,12.716,12.716,0,0,1-1.24,2.07c2.58-1.25,4.37-2.65,4.7-4.33.04.23.07.45.09.68a6.013,6.013,0,0,1,.02,1.27c0,.04-.01.09-.01.13a4.869,4.869,0,0,1-1.15,2.72,18.422,18.422,0,0,0,3.64-5.32,5.893,5.893,0,0,0,.24-.58,17.1,17.1,0,0,1-1.32,5.68c-.14.33-.3.65-.47.97-.07.15-.16.29-.24.44-.24.42-.51.83-.8,1.24a12.568,12.568,0,0,0,2.87-2.74c.11-.15.21-.3.31-.46.14-.23.26-.46.38-.69A6.07,6.07,0,0,0,64.884,28.08Z"/>
          <path d="M64.886,28.068l-.039.873h0l-.02.241h0v.012a6.1,6.1,0,0,1-1.155,2.955,6.008,6.008,0,0,1-1.137,1.127,8.129,8.129,0,0,1-1.373.825.023.023,0,0,1-.018,0l-2-.766h0l-.288-.1h-.01A32.183,32.183,0,0,0,49.364,32.1h0a27.482,27.482,0,0,0-11.341,1.262l-.049-.012c0,.01.043.013.044.006l0,0a.039.039,0,0,1-.019.012l-.009,0c-.378.1-.776.248-1.163.37s-.782.248-1.166.39a.05.05,0,0,1-.046,0A13.98,13.98,0,0,1,30,27.8l0,0c-.22-.466-.362-.941-.546-1.411a.062.062,0,0,1,.035-.081.061.061,0,0,1,.066.012l.006,0c.454.423.874.883,1.355,1.275a14.36,14.36,0,0,0,1.5,1.1A12,12,0,0,0,35.8,30.181l-.061.125a16.724,16.724,0,0,1-3.229-3.742c-.929-1.364-1.774-2.779-2.616-4.193a.08.08,0,0,1,.027-.11.083.083,0,0,1,.092.008c.811.667,1.595,1.369,2.433,2L34.933,26.2a24.75,24.75,0,0,0,5.433,3.115l-.1.145L34.29,22.776a.1.1,0,0,1,.008-.14.1.1,0,0,1,.128,0l2.55,1.936c.847.648,1.694,1.3,2.591,1.876a18.251,18.251,0,0,0,5.719,2.73l-.1.174a7.535,7.535,0,0,1-.624-.81.307.307,0,0,1-.036-.08c0-.034-.021,0,0-.095a.116.116,0,0,1,.125-.082.372.372,0,0,1,.168.071c.075.049.144.1.211.152l.391.321c.51.437,1,.888,1.492,1.344l-.164.016a4.34,4.34,0,0,0,.759-3.211v-.011l-.038-.25V26.7a.11.11,0,0,1,.092-.126.111.111,0,0,1,.111.05,4.317,4.317,0,0,1,.685,1.915,4.228,4.228,0,0,1-.343,2l.005-.017-.108.273-.162-.148.821-.5.015-.008a34.11,34.11,0,0,0,3.5-1.693,24.219,24.219,0,0,0,3.22-2.159,19.336,19.336,0,0,0,2.776-2.7,15.211,15.211,0,0,0,1.157-1.552l.995-1.661,0-.007a.124.124,0,0,1,.224.1c-.511,1.6-1.05,3.192-1.669,4.757a19.967,19.967,0,0,1-2.317,4.487l-.127-.155a15.664,15.664,0,0,0,2.811-1.679A4.646,4.646,0,0,0,61,25.314l0-.007a.083.083,0,0,1,.1-.065.085.085,0,0,1,.067.073,6.73,6.73,0,0,1,.093.982l.012.991V27.28l-.011.13v.008a4.978,4.978,0,0,1-1.174,2.758l-.107-.095a22.965,22.965,0,0,0,2.233-2.746,15.258,15.258,0,0,0,1.649-3.122.053.053,0,0,1,.067-.033.055.055,0,0,1,.035.054,18.181,18.181,0,0,1-.835,4.378,14,14,0,0,1-.866,2.056,17.915,17.915,0,0,1-1.158,1.908l-.04-.039a14.322,14.322,0,0,0,2.24-1.953,8.842,8.842,0,0,0,.906-1.178A8.721,8.721,0,0,0,64.886,28.068Zm0,.024a6.654,6.654,0,0,1-.641,1.332,8.98,8.98,0,0,1-.9,1.188A14.46,14.46,0,0,1,61.1,32.583a.03.03,0,0,1-.04-.006.032.032,0,0,1,0-.034,17.839,17.839,0,0,0,1.142-1.9,13.745,13.745,0,0,0,.851-2.051,18.16,18.16,0,0,0,.808-4.361l.1.021A15.336,15.336,0,0,1,62.317,27.4a22.889,22.889,0,0,1-2.231,2.775.072.072,0,0,1-.107-.095A4.828,4.828,0,0,0,61.105,27.4v.008l.01-.13v-.008l-.018-.965a6.492,6.492,0,0,0-.1-.962h.167a4.817,4.817,0,0,1-1.9,2.69,15.837,15.837,0,0,1-2.837,1.716.1.1,0,0,1-.138-.046A.107.107,0,0,1,56.3,29.6a19.761,19.761,0,0,0,2.264-4.448C59.174,23.59,59.7,22,60.216,20.4l.228.095-1.012,1.684a15.453,15.453,0,0,1-1.173,1.571,19.608,19.608,0,0,1-2.814,2.727,24.464,24.464,0,0,1-3.254,2.176,34.283,34.283,0,0,1-3.523,1.7l.015-.008-.819.5a.115.115,0,0,1-.157-.039.113.113,0,0,1-.008-.1l0-.008.091-.227.006-.017a3.983,3.983,0,0,0,.328-1.894,4.085,4.085,0,0,0-.646-1.809l.2-.086.041.27v.009a4.563,4.563,0,0,1-.8,3.368.109.109,0,0,1-.153.025l-.011-.009c-.486-.454-.978-.906-1.482-1.339l-.383-.315c-.064-.05-.13-.1-.194-.141-.024-.019-.085-.041-.056-.037s.04,0,.079-.058c.006-.072.005-.021.007-.035s.009.019.017.033a7.661,7.661,0,0,0,.6.774.106.106,0,0,1-.01.15.112.112,0,0,1-.094.023,18.423,18.423,0,0,1-5.788-2.767c-.9-.581-1.749-1.234-2.6-1.886L34.3,22.787l.136-.143,5.964,6.7a.09.09,0,0,1-.007.128.091.091,0,0,1-.093.018,24.879,24.879,0,0,1-5.469-3.147L32.345,24.4c-.84-.634-1.622-1.337-2.432-2.006l.119-.1c.84,1.416,1.681,2.831,2.6,4.191a16.642,16.642,0,0,0,3.191,3.713.071.071,0,0,1,.013.1.07.07,0,0,1-.074.025,12.179,12.179,0,0,1-3.426-1.505A14.4,14.4,0,0,1,30.831,27.7c-.485-.4-.907-.86-1.363-1.286l.107-.064c.18.461.327.948.534,1.388l0,.006a13.856,13.856,0,0,0,5.551,6.29l-.046,0c.385-.143.779-.258,1.168-.389s.769-.262,1.183-.371l-.028.014a.1.1,0,0,1,.023-.02.066.066,0,0,1,.077.01l-.049-.013a27.574,27.574,0,0,1,11.378-1.238h0a32.234,32.234,0,0,1,9.5,1.163l-.007,0h.01l.007,0,.292.1h0l2,.773h-.018a8.088,8.088,0,0,0,1.368-.818,5.929,5.929,0,0,0,1.132-1.117A6.068,6.068,0,0,0,64.8,29.188v-.01l.02-.238v0Z"/>
        </g>
        <path d="M35.044,95.06a2.825,2.825,0,0,1,.02.29.411.411,0,0,1-.32.45l-12.08,1.04a.7.7,0,0,1-.32-.05,1.176,1.176,0,0,1-.67-.94,6.1,6.1,0,0,1,1.28-5.23l-1.44-.69a6.966,6.966,0,0,1-3.62-8.17c.91-3.21,1.85-6.39,2.85-9.54a6.513,6.513,0,0,1-1.1-1.07l-.01-.01-4.12-4.11a5.922,5.922,0,0,1,8.38-8.37l1.06,1.06q3.165-8.76,6.84-17.22c-10.9-3.61-15.92-12.49-16.42-25.41,1.26.14,9.47,1.2,15.68,5.62-.37-.59-.73-1.19-1.09-1.8a51.771,51.771,0,0,0,8.2,6.05l-3.8-4.25c1.33,1.07,2.64,2.08,3.92,2.98l-3.92-4.4c3.95,3.16,7.76,5.89,10.9,6.57-2.09-2.46,1.57.98,1.57.98a4.49,4.49,0,0,0,.78-1.88v-.01c-.01-.08-.02-.17-.04-.26.02.03.04.07.06.1a4.911,4.911,0,0,0-.06-1.52,3.892,3.892,0,0,1,.61,2.89,3.46,3.46,0,0,1,.06.91l.38-.23c.57-.24,1.13-.48,1.66-.74.01.46.02.93.03,1.4.01.38.02.76.03,1.15a.308.308,0,0,1,.01.1,3.786,3.786,0,0,1,.03,1.32,26.138,26.138,0,0,0,.49,19.79c.14.31.01.67.02,1.01.02.66.43,1.445.04,1.99-1.044,1.46-1.3,2.92.11,4.39v.09c-1.623,1.731,1.239,6.055.14,6.42-1.395.463.03,1.79.03,1.79-4.342,1.1-7.85,21.579.41,27.81.367.277.01.9.01,1.33A49.026,49.026,0,0,1,35.044,95.06Z" fill="#828b94" opacity="0.14" style="mix-blend-mode: multiply"/>
        <path d="M65.3,67.678c1.034,3.283,2.3,6.36,8.237,5.282l.522,3.621C66.487,74.662,65.118,72.051,65.3,67.678Z" fill="#828b94" opacity="0.14" style="mix-blend-mode: multiply"/>
        <path d="M16.16,17.467c5.129,9.926,10.642,18.3,17.621,20.748l3.411-5.969Z" fill="#828b94" opacity="0.14" style="mix-blend-mode: multiply"/>
        <path d="M81.15,16.05c-5.128,9.926-10.642,18.3-17.621,20.747l-3.41-5.968Z" fill="#828b94" opacity="0.14" style="mix-blend-mode: multiply"/>
        <path d="M15.514,58.66C8.96,65.12,24.61,77.815,28,71.98Z" fill="#828b94" opacity="0.14" style="mix-blend-mode: multiply"/>
        <path d="M80.1,58.943C86.649,65.4,71,78.1,67.606,72.263Z" fill="#828b94" opacity="0.14" style="mix-blend-mode: multiply"/>
        <g opacity="0.46">
          <path d="M61.681,36.02q1.817,4.738,3.553,9.5c.588,1.586,1.231,3.153,1.706,4.777a42.4,42.4,0,0,1,1.183,4.95l-.094.032a42.617,42.617,0,0,1-2.038-4.665c-.6-1.582-1.03-3.22-1.515-4.839q-1.485-4.851-2.889-9.727Z" fill="#fff"/>
        </g>
        <g opacity="0.46">
          <path d="M73.205,57.968a7.359,7.359,0,0,1,2.605-1.055,2.706,2.706,0,0,1,1.5.03,1.959,1.959,0,0,1,1.117,1.031l-.059.081c-.523-.042-.92-.11-1.316-.146s-.765-.184-1.191-.2a10.151,10.151,0,0,0-2.623.35Z" fill="#fff"/>
        </g>
        <g opacity="0.46">
          <path d="M75.828,19.068c-1.684.674-3.35,1.382-4.938,2.2-.8.411-1.519.932-2.3,1.33s-1.547.83-2.389,1.249l-.069-.072a6.585,6.585,0,0,1,1.932-2.027,11.03,11.03,0,0,1,2.5-1.208A34.761,34.761,0,0,1,75.8,18.972Z" fill="#fff"/>
        </g>
        <g opacity="0.46">
          <circle cx="50.692" cy="52.757" r="0.616" fill="#fff" opacity="0.28" style="mix-blend-mode: lighten"/>
        </g>
      </g>
    </g>
  </g>
</svg>
