<svg xmlns="http://www.w3.org/2000/svg" width="112.892" height="112.892" viewBox="0 0 112.892 112.892">
  <title>Asset 4bunny</title>
  <g style="isolation: isolate">
    <g>
      <rect x="0.125" y="0.125" width="112.642" height="112.642" rx="8.069" fill="#e2e3e8" stroke="#f9fcff" stroke-miterlimit="10" stroke-width="0.25"/>
      <g>
        <g>
          <g>
            <path d="M69.949,41.426C82.64,32.106,91.092,20.592,95.007,6.738L88.252,2.472A326.024,326.024,0,0,0,66.615,38.394Z" fill="#808184"/>
            <path d="M87.413,6.761A355.009,355.009,0,0,0,67.619,39.307l1.688,1.535A62.756,62.756,0,0,0,93.02,8.41Z" fill="#cccbcb"/>
            <g>
              <path d="M88.252,2.472C84.645,16.006,90.9,23.978,103.441,28.4c-4.077-8.364-7.058-16.327-8.434-23.7Z" fill="#808184"/>
              <path d="M88.258,2.483a27.22,27.22,0,0,0-.916,8.373,16.827,16.827,0,0,0,2.509,7.973,20.007,20.007,0,0,0,6.015,5.838,36.232,36.232,0,0,0,7.609,3.642l-.125.14c-1.846-3.781-3.552-7.635-5.015-11.584a72.445,72.445,0,0,1-3.4-12.151l.049.057Zm-.012-.022,6.784,2.17.041.013.009.043a79.6,79.6,0,0,0,3.481,12.1c1.447,3.944,3.138,7.8,4.971,11.578l.108.224-.233-.084a36.357,36.357,0,0,1-7.632-3.695A20.152,20.152,0,0,1,89.744,18.9a16.91,16.91,0,0,1-2.478-8.036A26.887,26.887,0,0,1,88.246,2.461Z" fill="#231f20"/>
            </g>
          </g>
          <g>
            <path d="M46.281,38.4l-.44.4-.57.51-.66.61-1.03.93-.64.58a68.118,68.118,0,0,1-20.02-22.3,59.411,59.411,0,0,1-5.04-12.39l6.76-4.26a328.6,328.6,0,0,1,20.25,33.25C45.361,36.616,45.821,37.506,46.281,38.4Z" fill="#808184"/>
            <path d="M45.271,39.306l-.66.61-1.02.93h-.01a62.013,62.013,0,0,1-19.86-23.08,69.45,69.45,0,0,1-3.85-9.36l5.6-1.64h.01a347.973,347.973,0,0,1,18.81,30.75c.05.09.1.17.14.26C44.721,38.286,44.991,38.8,45.271,39.306Z" fill="#cccbcb"/>
            <path d="M23.721,17.766a14.244,14.244,0,0,1-.8,1.36c-2.71,4.1-7.34,7.11-13.47,9.28,4.08-8.37,7.06-16.33,8.43-23.71l6.76-2.22a29.092,29.092,0,0,1,.83,4.29h.01A18.239,18.239,0,0,1,23.721,17.766Z" fill="#7d7777" stroke="#000" stroke-miterlimit="10" stroke-width="0.25"/>
          </g>
        </g>
        <g>
          <g>
            <path d="M95.152,83.809c-.011.02-.442-.187-.453-.167s.395.272.384.292-.437-.2-.448-.178.388.282.376.3-.432-.208-.444-.188.382.29.37.31-.428-.218-.44-.2.375.3.363.319-.423-.228-.436-.209.369.308.356.327-.418-.237-.431-.218.362.316.348.334-.412-.246-.425-.228.354.324.34.342-.406-.255-.42-.237.347.332.332.35-.4-.264-.415-.247.34.34.325.357-.394-.273-.409-.255.332.346.317.364-.389-.282-.4-.265.325.354.309.371-.382-.29-.4-.273.317.361.3.377-.376-.3-.392-.281.309.367.293.383-.37-.306-.386-.29.3.374.285.39-.363-.314-.38-.3.293.38.276.4-.356-.321-.373-.306.285.386.268.4-.349-.328-.367-.313.277.392.26.407-.343-.336-.36-.322.268.4.25.413-.335-.343-.353-.329.26.4.242.417-.328-.35-.346-.336.251.409.233.423-.321-.357-.339-.344.243.414.224.428-.313-.364-.332-.351.235.419.216.432-.306-.369-.325-.357.226.424.207.436-.3-.376-.318-.363.217.428.2.44-.29-.382-.31-.37.208.433.189.444-.283-.388-.3-.376.2.437.179.448-.274-.394-.294-.383.19.441.17.452-.266-.4-.287-.389.181.445.161.456-.258-.405-.278-.395.171.448.151.458-.249-.41-.27-.4.162.452.141.462-.24-.415-.261-.406.153.455.132.464-.232-.42-.253-.411.143.458.122.467-.223-.425-.244-.416.133.461.112.469-.214-.429-.235-.421.123.464.1.472-.2-.434-.227-.427.114.467.092.474-.2-.438-.217-.431.1.469.082.476-.186-.443-.208-.436.094.471.072.477-.176-.446-.2-.44.083.473.061.479-.167-.45-.189-.444.073.474.051.48-.157-.454-.179-.448.063.476.04.481-.146-.457-.169-.452.053.477.03.481-.137-.46-.159-.455.042.478.019.482-.126-.463-.149-.459.031.479.009.482-.116-.465-.139-.462.02.48,0,.483-.105-.468-.128-.466.01.48-.013.483-.1-.471-.118-.468,0,.48-.024.482-.084-.473-.107-.471-.013.48-.035.481-.073-.474-.1-.473-.024.48-.047.481-.062-.476-.085-.476-.035.479-.058.48-.15-.455-.173-.455c.008.007.27.047.279.054s-.295.376-.287.383.334-.342.342-.335-.309.365-.3.372.346-.329.354-.322-.323.352-.316.36.36-.315.367-.308-.337.34-.33.347.372-.3.379-.293-.35.326-.343.334.383-.286.39-.278-.363.312-.356.321.394-.272.4-.263-.374.3-.368.306.4-.256.41-.247-.385.283-.379.292.413-.241.419-.232-.395.269-.39.278.422-.226.427-.217-.405.255-.4.264.43-.21.435-.2-.414.24-.409.249.437-.2.441-.185-.421.225-.417.235.443-.18.448-.171-.43.211-.425.221.449-.165.453-.155-.436.2-.433.206.455-.15.458-.14-.442.181-.438.191.458-.134.462-.124-.448.167-.445.177.463-.12.466-.11-.453.153-.45.163.466-.1.469-.095-.457.139-.455.149.47-.091.472-.081-.461.125-.459.135.472-.077.474-.066-.465.111-.463.121.474-.063.476-.053-.468.1-.467.109.476-.05.477-.039-.47.084-.469.094.477-.036.478-.025-.473.071-.472.081.478-.022.479-.012-.475.058-.474.069.478-.01.479,0-.476.045-.476.055.479,0,.479.014-.477.033-.477.043.478.016.478.027-.478.02-.478.03.478.029.478.039-.479.007-.479.018.477.041.476.052-.478-.006-.479,0,.476.053.475.064-.478-.018-.479-.007.474.066.473.076-.477-.03-.479-.019.472.078.471.088-.476-.042-.478-.031.47.089.468.1-.475-.054-.476-.043.467.1.465.111-.473-.065-.475-.055.464.113.462.123-.472-.077-.474-.067.462.125.46.135-.47-.089-.473-.079.459.137.456.147-.467-.1-.47-.091.455.148.452.158-.465-.113-.468-.1.451.16.448.17-.461-.125-.465-.115.447.171.444.181-.459-.136-.462-.126.442.182.438.192-.454-.148-.458-.138.437.193.433.2-.45-.16-.454-.15.432.2.428.214-.446-.171-.451-.161.427.215.423.225-.442-.183-.447-.173.421.227.417.236-.437-.195-.442-.185.415.238.41.248-.431-.207-.436-.2.408.25.4.259-.425-.218-.43-.209.4.261.395.27-.419-.231-.424-.222.393.272.388.281-.413-.242-.419-.233.386.282.381.291l-.4-.255.408.248-.409-.247.406.252-.407-.25.4.254-.406-.252.4.256-.4-.254.4.258-.4-.256.4.26-.4-.258.4.262-.4-.26.4.265-.4-.263.4.267-.4-.265.395.269-.4-.267.393.271-.395-.269.392.273-.393-.271.391.275-.392-.273.389.277-.391-.275.388.279-.389-.277.386.281-.388-.279.385.283-.386-.281.383.284L89.4,89.82l.382.286-.383-.284.381.288-.383-.286.38.29-.381-.288.378.292-.38-.29.377.294L89.4,89.83l.375.3-.377-.293.374.3-.375-.3.372.3-.374-.3.371.3-.373-.3.37.3-.371-.3.368.3-.37-.3.367.306-.369-.3.366.307-.367-.306.364.31-.366-.308.363.312-.364-.31.361.313-.363-.311.36.315-.362-.313.358.316-.359-.314.356.318-.358-.316.355.319-.357-.317.354.321-.355-.319.352.322-.354-.321.351.325-.353-.323.35.326-.351-.324.347.328-.349-.326.346.329-.348-.328.345.331-.346-.329.343.333-.345-.331.342.334-.343-.333.339.336-.341-.334.338.338-.359-.315c-.006.008.364.311.358.319s-.387-.282-.393-.274.358.317.352.325-.38-.29-.387-.282.352.324.345.331-.374-.3-.381-.289.345.331.339.338-.369-.305-.375-.3.338.338.331.345-.362-.312-.369-.305.332.345.325.352-.356-.319-.363-.312.325.351.317.358-.349-.326-.356-.319.318.357.31.364-.343-.333-.35-.326.311.363.3.37S89,90.258,89,90.265s.3.369.3.375-.331-.345-.338-.339.3.375.289.381-.324-.351-.331-.345.29.38.282.387-.317-.357-.325-.351.283.385.276.391-.312-.363-.32-.357.277.39.269.4-.3-.368-.313-.362.27.395.262.4-.3-.374-.306-.368.263.4.255.405-.293-.378-.3-.372.257.4.249.409-.286-.383-.3-.378.25.408.242.413-.28-.387-.288-.382.243.412.235.417-.274-.392-.282-.387.237.416.228.421-.267-.4-.276-.391.231.419.222.424-.261-.4-.27-.395.225.422.216.427-.255-.4-.264-.4.218.426.209.431-.249-.408-.258-.4.211.429.2.434-.244-.411-.253-.407.206.432.2.437-.238-.415-.247-.411.2.435.191.44-.232-.419-.241-.414.193.437.184.442-.226-.422-.235-.417.187.44.178.444-.22-.424-.229-.42.181.442.172.446-.215-.427-.224-.423.176.445.167.449-.209-.43-.219-.426.17.447.161.451-.2-.432-.213-.429.164.45.155.453-.2-.435-.208-.431.159.451.15.455-.193-.438-.2-.434.153.453.144.457-.188-.44-.2-.437.148.455.138.459-.182-.442-.192-.439.143.457.133.46-.177-.444-.186-.441.136.458.127.462-.172-.447-.182-.443.132.459.122.463-.167-.448-.176-.445.126.461.117.464-.162-.45-.172-.447.122.462.112.465-.157-.451-.167-.448.116.463.107.466-.152-.453-.162-.45.111.465.1.468-.148-.455-.158-.453.107.467.1.469-.142-.456-.152-.454.1.468.092.47-.138-.458-.148-.455.1.468.087.471-.133-.46-.143-.457.092.469.082.471-.128-.46-.138-.458.087.47.078.472-.124-.461-.134-.459.083.471.073.473-.119-.463-.129-.461.078.472.068.474-.115-.465-.124-.463.074.473.064.475-.108-.466-.115-.464.081.471.074.472-.107-.466-.114-.464.078.471.071.472-.1-.466-.111-.465.075.472.068.474-.1-.467-.108-.466.072.472.065.474-.1-.468-.105-.467.069.473.062.474-.095-.468-.1-.467.066.473.059.475-.093-.469-.1-.468.063.474.056.475-.09-.47-.1-.469.061.475.054.476-.087-.47-.094-.469.058.474.051.475-.084-.47-.091-.469.055.475.048.476-.082-.471-.089-.47.053.475.046.476-.079-.472-.086-.471.049.476.042.477-.076-.472-.083-.471.047.475.04.476-.073-.472-.08-.471.044.476.037.477-.071-.473-.078-.472.042.476.035.477-.068-.473-.075-.473.038.477.031.478-.065-.474-.072-.473.036.476.029.477-.062-.474-.069-.473.032.477.025.477-.059-.474-.066-.473.03.477.023.478-.057-.475-.064-.474.028.477.021.477-.054-.475-.061-.474.024.477.017.478-.051-.475-.058-.475.022.478.015.478-.049-.475-.056-.475.019.478.012.478-.045-.475-.052-.475.016.478.009.478-.043-.476-.05-.476.013.478.006.479-.04-.477-.047-.476.011.478,0,.478-.037-.477-.044-.476.007.478,0,.478-.034-.477-.041-.476,0,.478,0,.478-.032-.477-.039-.477,0,.478,0,.478-.029-.477-.036-.477,0,.478-.008.479-.026-.478-.033-.477,0,.477-.01.478-.023-.478-.03-.478-.007.478-.014.478-.02-.477-.027-.477-.009.478-.016.478-.018-.478-.025-.478-.012.478-.019.478-.015-.477-.022-.477-.014.477-.021.477-.013-.478-.02-.478-.017.478-.024.478-.01-.478-.017-.478-.02.478-.027.478-.006-.478-.013-.478-.023.477-.03.477,0-.478-.011-.478-.026.477-.033.477,0-.478-.008-.478-.028.477-.035.477,0-.478-.006-.479-.031.477-.038.477,0-.478,0-.478-.034.477-.041.476.007-.477,0-.478-.036.477-.043.476.009-.477,0-.478-.039.477-.046.476.012-.478.005-.478-.042.476-.049.476.016-.478.009-.478-.045.475-.052.475.018-.478.011-.478-.048.475-.055.475.021-.478.014-.478-.05.475-.057.475.023-.478.016-.478-.053.475-.06.474.025-.477.018-.478-.046.476-.05.476.028-.477.024-.478-.046.476-.05.476.03-.477.026-.478-.047.476-.051.476.031-.477.027-.478-.049.476-.053.475.033-.476.029-.477-.051.476-.055.475.035-.476.031-.477-.053.475-.057.475.037-.477.033-.477-.054.475-.059.474.039-.476.035-.476-.056.474-.06.474.04-.476.036-.477-.058.474-.062.474.043-.476.038-.476-.06.474-.064.473.045-.476.04-.476-.061.474-.065.473.046-.475.042-.476-.064.474-.068.473.048-.475.044-.476-.066.474-.07.473.05-.475.046-.475-.067.473-.071.472.051-.475.047-.475-.069.472-.073.472.053-.475.049-.475-.071.472-.075.472.055-.475.051-.476-.072.473-.076.472.056-.474.052-.475-.074.472-.078.472.058-.475.054-.475-.076.472-.08.471.06-.474.056-.475-.077.472-.081.471.061-.474.057-.474-.079.471-.083.47.063-.473.059-.474-.08.471-.084.471.065-.474.06-.474-.082.47-.086.47.067-.474.063-.474-.084.47-.088.47.068-.473.064-.474-.086.47-.09.469.07-.472.066-.473-.087.47-.091.469.071-.472.067-.473-.089.47-.093.469.073-.472.069-.473-.09.469-.094.468.074-.472.07-.472-.092.469-.1.468.076-.472.072-.473-.093.469-.1.468.078-.471.073-.472-.095.468-.1.468.08-.472.076-.472-.1.468-.1.467.081-.471.077-.472-.1.468-.1.467.083-.471.079-.471-.1.467-.1.466.084-.47.08-.471-.1.467-.1.466.086-.47.081-.471-.1.467-.107.466.088-.47.084-.471-.105.467-.109.466.089-.47.085-.471-.106.466-.11.465.09-.469.086-.47-.107.466-.111.465.092-.469.087-.47-.109.466-.113.465.094-.469.09-.47-.111.465-.115.464.095-.468.091-.469-.112.465-.116.464.1-.468.092-.469-.113.464-.117.463.1-.468.094-.469-.115.464-.119.463.1-.467.095-.468-.116.463-.12.462.1-.467.1-.468-.117.463-.121.462.1-.466.1-.467-.119.462-.123.462.1-.467.1-.468-.12.462-.125.461.106-.466.1-.467-.122.462-.127.461.107-.465.1-.466-.123.461-.127.46.1-.468.089-.47-.133.459-.142.457.1-.467.092-.47-.137.459-.146.456.1-.466.1-.469-.14.458-.149.455.107-.466.1-.468-.144.456-.152.454.11-.465.1-.468-.147.455-.156.453.115-.464.106-.467-.15.454-.159.452.118-.464.109-.466-.153.452-.162.45.121-.463.113-.465-.157.451-.166.449.125-.462.116-.465-.16.451-.169.448.128-.46.12-.463-.164.449-.172.446.131-.459.122-.462-.166.448-.175.445.135-.459.126-.461-.17.446-.178.444.138-.458.129-.461-.173.445-.181.443.141-.457.132-.46-.176.444-.185.441.145-.456.136-.459-.179.443-.188.44.148-.454.14-.457-.183.441-.191.438.151-.453.142-.456-.186.44-.194.437.154-.453.146-.456-.189.439-.2.436.158-.451.149-.455-.192.438-.2.435.161-.451.152-.454-.2.436-.2.433.163-.449.155-.452-.2.435-.207.431.167-.448.159-.451-.2.433-.21.43.171-.447.162-.45-.2.432-.212.428.173-.445.165-.449-.208.431-.216.427.176-.444.168-.448-.21.429-.219.426.18-.443.172-.447-.214.428-.222.424.183-.442.175-.446-.217.427-.225.423.186-.441.178-.444-.22.424-.228.42.189-.439.181-.443-.223.423-.231.42.192-.438.184-.442-.226.421-.234.417.195-.436.187-.44-.228.42-.236.416.2-.435.19-.439-.232.418-.239.414.2-.434.193-.438-.235.417-.243.413.2-.432.2-.436-.238.415-.246.41.208-.43.2-.435-.241.414-.248.41.21-.43.2-.434-.243.412-.251.407.213-.428.2-.432-.246.41-.253.406.216-.427.208-.431-.249.408-.257.4.219-.425.212-.429-.252.406-.26.4.222-.424.215-.428-.255.405-.263.4.225-.422.218-.426-.258.4-.265.4.228-.42.22-.424-.26.4-.268.4.231-.419.223-.423-.262.4-.27.395.234-.417.226-.422-.265.4-.273.393.237-.416.229-.42-.268.395-.276.391.24-.414.232-.419-.271.394-.278.389.242-.412.234-.417-.273.392-.281.388.245-.411.238-.416-.276.39-.284.385.248-.408.241-.413-.279.388-.287.383.352-.255.345-.26c-.019-.093-.486-.009-.5-.1s.456-.17.441-.264-.487-.017-.5-.111.456-.171.44-.265-.487-.017-.5-.112.456-.171.441-.265-.487-.018-.5-.112.456-.171.441-.266-.487-.018-.5-.112.456-.172.44-.267-.487-.018-.5-.113.456-.171.44-.266-.487-.018-.5-.113.456-.171.44-.266-.487-.017-.5-.112.456-.171.44-.266-.487-.017-.5-.111.456-.172.441-.266-.487-.017-.5-.112.456-.171.441-.265-.487-.017-.5-.111.456-.171.441-.265-.487-.017-.5-.111.456-.171.441-.265-.487-.017-.5-.111.456-.171.441-.265-.487-.017-.5-.111.457-.171.441-.265-.487-.017-.5-.111.456-.172.441-.266-.487-.017-.5-.111.457-.171.441-.265-.487-.017-.5-.111.456-.172.441-.266-.487-.017-.5-.111.456-.172.441-.266-.487-.018-.5-.112.457-.169.442-.261-.487-.015-.5-.107.457-.168.442-.26-.487-.015-.5-.107.457-.169.442-.261-.487-.015-.5-.108.456-.169.441-.261-.486-.015-.5-.108.456-.169.441-.262-.487-.015-.5-.108.456-.17.441-.263-.486-.016-.5-.109.457-.17.441-.263-.486-.017-.5-.11.457-.171.441-.265-.487-.016-.5-.11.456-.172.441-.266-.487-.017-.5-.112.456-.172.441-.267-.487-.018-.5-.113.456-.173.44-.268-.487-.019-.5-.115.455-.174.44-.27-.488-.019-.5-.114.456-.173.44-.269-.487-.018-.5-.113.456-.173.441-.268-.487-.018-.5-.113.456-.172.441-.267-.487-.018-.5-.112.456-.172.441-.267-.487-.018-.5-.113.456-.172.44-.267-.487-.018-.5-.113.456-.172.44-.267-.487-.019-.5-.114.455-.173.44-.269-.487-.019-.5-.115.456-.173.44-.27-.488-.02-.5-.117.455-.173.44-.27-.488-.019-.5-.115.455-.173.44-.269-.487-.019-.5-.115.456-.172.44-.266-.486-.017-.5-.111.456-.172.441-.266-.487-.018-.5-.112.456-.173.441-.268-.487-.018-.5-.114.456-.174.44-.271-.488-.021-.5-.119.456-.175.44-.272-.488-.021-.5-.118.455-.174.439-.271-.487-.021-.5-.119.455-.176.439-.274-.487-.02-.5-.117.455-.175.439-.273-.488-.023-.5-.123.455-.177.439-.277-.494-.033-.506-.134c.008-.009.434.111.442.1s-.344-.332-.336-.342.377.3.385.286-.344-.333-.336-.342.377.3.385.285-.344-.332-.336-.341.377.3.385.285-.344-.332-.336-.342.377.3.385.286-.344-.333-.336-.342.377.3.385.286-.344-.333-.336-.342.377.295.385.285-.344-.332-.336-.341.377.3.385.285-.344-.332-.336-.342.377.295.385.286-.344-.332-.336-.342.377.3.385.286-.344-.333-.336-.342.377.3.385.286-.344-.333-.336-.342.377.3.385.285-.344-.332-.336-.341.377.3.385.285-.344-.332-.336-.341.376.3.385.285-.345-.332-.336-.342.376.3.384.286-.344-.332-.336-.342.377.3.385.286-.344-.332-.336-.342.377.3.385.286-.344-.333-.336-.342.377.3.385.286-.344-.333-.336-.342.377.3.385.286-.344-.333-.336-.342.376.3.384.286-.344-.333-.336-.342.377.3.385.286-.344-.333-.336-.342.377.295.385.285-.344-.332-.336-.341.377.3.385.285-.344-.332-.336-.341.376.3.385.285-.344-.332-.336-.341.376.3.384.285-.344-.332-.336-.341.377.3.385.285-.344-.332-.336-.341.377.294.385.285-.344-.332-.336-.342.377.3.385.286-.344-.332-.336-.342.376.295.385.286-.345-.332-.336-.342.376.3.384.286-.344-.332-.336-.342.377.3.385.286-.344-.332-.336-.342.377.3.385.286-.344-.333-.336-.342.377.3.385.286-.344-.333-.336-.342.376.3.385.286-.344-.333-.336-.342.376.3.384.286-.344-.333-.336-.342.377.3.385.285-.344-.332-.336-.341.377.3.385.285-.344-.332-.336-.341.377.3.385.285-.344-.332-.336-.342.377.3.385.286-.344-.332-.336-.342.377.3.385.286-.344-.333-.336-.342.376.3.385.286-.344-.333-.336-.342.376.295.385.285-.344-.332-.336-.341.376.3.384.285-.344-.332-.335-.342.376.3.384.286-.344-.332-.335-.342.376.3.384.286-.344-.333-.335-.342.376.3.384.286-.344-.333-.335-.342.376.3.384.285-.344-.332-.335-.342.376.3.384.286-.344-.333-.335-.342.376.3.384.286-.343-.333-.335-.342.376.3.385.285l-.353-.322.369.3-.353-.322.368.3-.353-.322.369.3-.353-.322.369.3-.353-.322.369.3-.353-.322.369.3-.353-.322.369.3-.353-.322.369.3-.353-.322.369.3-.353-.322.368.3-.352-.322.368.3-.352-.323.368.3-.352-.322.368.3-.352-.322.368.3-.352-.323.368.3-.352-.322.368.3-.352-.323.368.3-.352-.322.368.3-.352-.323.368.3-.352-.322.368.3-.352-.323.369.3-.353-.322.369.3-.353-.323.369.3-.353-.322.369.3-.353-.323.369.3-.353-.322.369.3-.353-.323.369.3-.353-.322.369.3-.353-.323.369.3-.353-.323.369.3-.353-.323.369.3L80.944,68l.369.3-.352-.322.368.3-.352-.323.368.3-.352-.322.368.3-.352-.323.368.3-.352-.322.368.3-.352-.323.368.3-.353-.322.369.3-.353-.322.369.3-.353-.323.369.3-.353-.322.369.3L81.12,67.8l.369.3-.353-.323.369.3-.353-.322.369.3-.353-.322.369.3-.353-.322.368.3-.353-.322.369.3-.353-.322.369.3-.354-.321.373.3-.38-.289.381.287-.378-.291.379.29-.377-.293.378.292-.375-.3.376.294-.373-.3.374.3-.371-.3.372.3-.369-.3.37.3-.367-.3.368.3-.365-.308.366.307-.363-.31.364.309-.362-.313.362.312-.359-.315.36.314-.356-.318.357.318-.354-.321.355.32-.352-.324.352.323-.349-.326.35.325-.347-.329.347.329-.343-.332.344.331-.341-.334.342.333-.339-.337.339.337-.335-.34.336.339-.333-.343.333.343-.329-.346.33.345-.327-.349.327.349L81.3,67.6l.324.351-.32-.354.321.354-.317-.358.317.357-.314-.36.315.36-.311-.363.311.362-.307-.366.308.366-.3-.369.305.368-.3-.371.3.371-.3-.374.3.373-.294-.376.3.375-.291-.379.292.379-.288-.382.288.381-.284-.384.285.384-.281-.387.282.386-.278-.389.279.388-.275-.391.276.391-.271-.394.272.393-.268-.4.269.395-.265-.4.266.4-.262-.4.263.4-.258-.4.26.4-.256-.4.257.4-.252-.406.253.405-.249-.407.251.406-.247-.409.232.417-.192-.437.174.445-.168-.447.168.447-.162-.449.162.449-.155-.452.155.452-.149-.454.149.454-.143-.456.143.456-.137-.457.137.457-.131-.459.131.459-.125-.461.125.461-.119-.462.119.462-.113-.464.114.464-.108-.465.108.465-.1-.467.1.467-.1-.468.1.468-.092-.469.092.469-.086-.47.087.47-.082-.471.082.471-.076-.472.077.472-.071-.473.072.472-.067-.473.067.473-.062-.473.063.473-.057-.474.058.474-.053-.475.054.475-.049-.475.051.475-.046-.476.047.476-.042-.476.043.476-.038-.477.04.476-.035-.476.036.476-.031-.476.033.476-.028-.477.029.477-.025-.477.027.477-.022-.477.024.477-.019-.477.021.477-.017-.478.019.478-.014-.478.017.478-.013-.478.015.478-.011-.478.013.478-.008-.478.011.477-.007-.477.009.477,0-.477.008.477,0-.477.007.477,0-.477.006.477,0-.477,0,.477v-.477l0,.477v-.477l0,.477v-.477l0,.477v-.477l0,.477v-.477l0,.477,0-.477,0,.477.011-.477c.01,0,0,.478.01.478s.039-.476.049-.476,0,.478.009.479.04-.477.049-.476,0,.478.009.478.04-.476.05-.476,0,.478.008.479.041-.477.05-.476,0,.478.008.478.041-.476.051-.475,0,.478.007.478.042-.476.051-.476,0,.478.006.479.043-.476.053-.476,0,.478,0,.479.043-.476.053-.476,0,.478,0,.479.044-.476.054-.476-.006.478,0,.479.044-.476.054-.476-.006.478,0,.479.045-.476.054-.476-.006.478,0,.479.045-.476.055-.476-.007.478,0,.479.047-.476.056-.475-.008.478,0,.478.047-.476.057-.475-.009.478,0,.479.047-.476.057-.476-.009.478,0,.479.048-.476.057-.475-.01.478,0,.478.049-.475.059-.475-.011.478,0,.479.049-.475.059-.475-.011.478,0,.479.051-.476.061-.475-.013.478,0,.479.051-.476.061-.475-.013.478,0,.478.052-.475.061-.474-.014.478,0,.478.053-.475.063-.474-.015.478-.005.478.053-.475.063-.474-.015.478-.006.479.055-.475.064-.475-.016.478-.006.479.055-.475.065-.474-.017.478-.008.478.057-.474.066-.474-.018.478-.008.479.057-.475.067-.474-.02.478-.01.478.058-.474.068-.473-.02.477-.01.478.059-.474.068-.473-.021.477-.011.478.06-.474.07-.473-.022.477-.013.478.061-.474.071-.473-.023.477-.014.478.063-.474.072-.473-.024.477-.014.478.063-.474.073-.473-.026.478-.016.479.064-.474.074-.473-.026.477-.017.478.066-.474.075-.473-.027.478-.018.479.067-.474.077-.473-.029.477-.019.478.067-.473.077-.472-.03.477-.02.478.069-.473.078-.472-.03.477-.021.478.07-.473.08-.472-.032.477-.023.478.072-.472.081-.471-.033.477-.023.478.072-.473.082-.472-.035.477-.025.478.073-.472.083-.471-.035.477-.026.478.075-.473.085-.471-.037.476-.028.477.076-.472.086-.47-.038.476-.028.477.077-.472.087-.47-.04.476-.03.477.079-.471.088-.47-.04.476-.031.478.08-.472.09-.471-.042.477-.032.478.081-.471.091-.47-.044.476-.034.477.083-.471.092-.469-.045.476-.036.477.09-.47.1-.468-.047.476-.036.478.092-.47.1-.468-.049.476-.038.477.095-.468.106-.467-.05.476-.039.478.1-.469.107-.467-.052.475-.041.477.1-.468.109-.466-.054.475-.043.477.1-.468.111-.466-.056.475-.044.477.1-.468.112-.466-.057.475-.046.477.1-.467.115-.465-.06.474-.049.476.106-.466.117-.464-.062.474-.051.476.108-.466.119-.464-.064.474-.053.476.11-.466.121-.463-.066.473-.055.475.112-.465.123-.462-.069.473-.057.475.114-.464.125-.462-.071.473-.06.475.117-.464.129-.461-.074.472-.063.474.12-.463.131-.46-.077.472-.066.474.123-.462.134-.46-.08.472-.068.474.125-.461.136-.459-.082.471-.071.474.128-.461.139-.459-.085.471-.074.474.131-.46.142-.458-.088.47-.077.473.133-.459.144-.457-.091.47-.08.473.137-.459.148-.456-.094.469-.083.472.14-.458.151-.455-.1.468-.086.471.143-.456.154-.453-.1.467-.09.47.146-.455.157-.452-.1.467-.093.47.15-.455.161-.452-.108.466-.1.469.153-.453.164-.45-.111.466-.1.469.156-.452.167-.449-.115.464-.1.468.161-.451.171-.448-.118.464-.107.467.164-.449.174-.446-.122.462-.111.466.167-.448.178-.445-.126.462-.115.465.171-.446.182-.443-.13.46-.119.464.175-.445.186-.441-.135.459-.124.462.179-.443.19-.439-.138.457-.128.461.184-.442.194-.438-.142.457-.132.461.188-.44.2-.436-.147.455-.136.459.191-.438.2-.434-.151.453-.141.457.2-.436.207-.432-.156.452-.145.457.2-.435.21-.431-.16.451-.15.455.205-.432.215-.428-.164.449-.154.454.209-.431.219-.426-.169.447-.159.452.213-.429.224-.424-.174.446-.164.45.218-.426.228-.421-.179.444-.168.448.222-.423.232-.418-.183.441-.173.446.227-.421.237-.416-.188.44-.178.445.231-.419.242-.414-.194.438-.184.443.237-.416.247-.411-.2.435-.188.44.241-.413.251-.407-.2.432-.193.438.246-.411.256-.405-.209.43-.2.436.251-.407.261-.4-.213.428-.2.434.255-.405.265-.4-.216.426-.206.432.257-.4.267-.4-.221.424-.211.43.263-.4.272-.394-.226.421-.217.427.269-.4.278-.39-.232.418-.222.424.273-.392.283-.386-.238.415-.229.421.279-.389.289-.383-.244.412-.234.418.284-.385.293-.378-.249.408-.24.415.29-.382.3-.375-.254.405-.245.411.294-.377.3-.37-.26.4-.25.408.3-.373.308-.366-.265.4-.256.4.3-.369.313-.362-.27.394-.261.4.309-.364.318-.357-.276.39-.267.4.314-.36.323-.353-.281.386-.272.393.319-.355.328-.348-.287.382-.278.39.324-.352.333-.344-.292.378-.284.385.33-.346.338-.339-.3.374-.289.382.335-.342.343-.334-.3.37-.3.377.34-.337.348-.329-.308.365-.3.373.344-.332.353-.324-.314.361-.306.369.349-.327.357-.319-.319.356-.311.364.354-.322.362-.314-.324.352-.316.36.359-.317.366-.308-.329.346-.321.354.363-.31.371-.3-.335.341-.327.35.368-.306.376-.3-.341.336-.333.344.373-.3.381-.29-.346.33-.338.339.377-.294.385-.285-.351.325-.344.334.383-.288.39-.279-.356.32-.349.329.387-.282.394-.273-.361.314-.354.323.392-.275.4-.266-.367.308-.36.317.4-.269.4-.259-.371.3-.364.31.4-.261.407-.252-.377.3-.37.3.405-.254.411-.245-.381.289-.375.3.409-.248.416-.238-.386.282-.38.291.413-.24.419-.231-.391.275-.385.285.418-.233.424-.224-.4.269-.39.278.421-.226.427-.216-.4.261-.4.271.426-.218.432-.208-.406.254-.4.264.429-.211.435-.2-.41.246-.405.256.434-.2.439-.192-.415.239-.409.249.437-.195.442-.184-.419.23-.414.241.44-.186.445-.176-.423.223-.418.233.444-.178.449-.167-.428.214-.423.225.447-.169.452-.159-.432.206-.427.217.45-.16.455-.15-.436.2-.432.208.454-.151.458-.14-.439.189-.435.2.457-.142.46-.131-.443.18-.439.191.46-.133.463-.122-.446.171-.443.182.462-.124.466-.113-.45.162-.447.173.465-.114.468-.1-.453.153-.45.164.467-.105.47-.094-.457.143-.454.154.469-.091.472-.081-.461.127-.459.138.472-.079.474-.068-.464.117-.461.127.473-.067.475-.057-.466.106-.464.117.474-.057.476-.046-.468.095-.467.106.476-.046.478-.035-.471.084-.47.095.477-.035.479-.024-.473.074-.472.084.478-.024.479-.013-.474.063-.473.074.478-.014.479,0-.475.053-.475.064.479,0,.479.007-.476.043-.476.054.479.006.479.017-.477.033-.477.044.478.017.478.028-.478.022-.478.033.478.027.478.038-.478.012-.479.023.477.038.477.049-.479,0-.479.012.476.048.475.059-.478-.009-.479,0,.475.058.474.069-.478-.019-.479-.008.473.068.472.079-.477-.03-.478-.019.472.079.47.09-.476-.04-.478-.029.47.089.468.1-.475-.05-.477-.04.468.1.466.111-.474-.061-.476-.05.466.109.463.12-.472-.071-.475-.06.463.12.461.13-.471-.082-.473-.071.46.13.457.141-.469-.092-.472-.081.458.14.455.151-.467-.1-.47-.092.454.15.451.161-.465-.113-.468-.1.45.161.447.171-.462-.123-.465-.113.447.171.443.182-.459-.134-.463-.124.443.181.439.192-.455-.145-.459-.135.438.192.434.2-.452-.155-.456-.145.433.2.429.212-.448-.166-.453-.156.429.212.424.222-.444-.177-.448-.167.423.223.418.233-.44-.188-.444-.178.418.232.413.242-.436-.2-.441-.188.413.243.407.252-.43-.208-.435-.2.406.253.4.263-.425-.22-.431-.21.4.263.394.272-.419-.23-.425-.221.393.273.387.282-.413-.24-.419-.231.385.283.379.292-.406-.252-.413-.243.378.293.372.3-.4-.262-.406-.253.37.3.363.312-.393-.273-.4-.264.361.313.355.321-.386-.283-.393-.275.354.323.347.331-.378-.294-.385-.285.344.332.337.34-.369-.3-.376-.3.334.342.327.35-.361-.315-.368-.307.325.351.317.359-.351-.325-.359-.317.315.36.307.368S88.94,74,88.932,74s.3.369.3.376-.332-.344-.34-.337.294.378.285.385-.322-.354-.33-.347.282.386.274.393-.312-.363-.321-.356.271.394.262.4-.3-.372-.309-.366.259.4.25.408l-.306-.364.334.341-.334-.341.332.344-.331-.345.328.348-.328-.348.325.351-.324-.352.321.354-.321-.354.318.357-.317-.358.314.361-.314-.361.311.363-.31-.364L89,74.56l-.307-.367.3.369-.3-.369.3.371-.3-.372.3.375-.3-.375.294.377-.293-.377.291.379-.291-.379.288.381-.288-.381.285.383-.285-.383.282.385-.282-.386.28.388-.28-.388.277.39-.277-.389.275.391-.275-.391.272.392-.272-.392.27.394-.27-.394.268.4-.269-.4.266.4-.266-.4.264.4-.265-.4.263.4-.263-.4.261.4-.262-.4.26.4-.261-.4.259.4-.26-.4.258.4-.259-.4.257.4-.258-.4.257.4-.258-.4.256.4-.258-.4.256.4-.257-.4.256.4-.257-.4.255.4-.257-.4.255.4-.256-.4.255.4-.257-.4.256.4-.258-.4.256.4-.258-.4.257.4-.259-.4.257.4-.259-.4.258.4-.26-.4.259.4-.261-.4.26.4-.262-.4.26.4-.262-.4.261.4-.263-.4.262.4-.265-.4.264.4-.372-.194.238-.243.005.477-.006-.477.011.477-.012-.477.017.477-.018-.477.022.477-.023-.477.027.477-.027-.477.031.476-.032-.476.036.476-.036-.476.039.476-.038-.476.042.476-.042-.476.045.475-.044-.475.047.475-.047-.475.05.475-.049-.476.051.475-.05-.475.053.475-.051-.475.053.475-.052-.475.054.475-.052-.475.054.475-.052-.475.053.474-.051-.475.053.475-.051-.475.052.475-.049-.475.05.475-.047-.475.048.475-.046-.476.047.476-.044-.476.044.476-.04-.476.04.476-.037-.477.037.477-.033-.477.033.477-.029-.477.029.477-.025-.477.024.477-.02-.478.02.478-.016-.478.015.478-.01-.478.009.478,0-.478,0,.478,0-.478,0,.478.009-.478-.011.478.017-.478-.019.478.024-.477-.026.477.032-.477-.034.476.04-.476-.042.476.048-.475-.051.475.058-.474-.061.474.067-.473-.07.472.077-.471-.08.471.086-.47-.089.469.1-.468-.1.467.106-.465-.11.465.117-.464-.12.463.128-.461-.132.46.139-.457-.142.456.056-.466c.022,0,.079.473.1.472s.015-.48.038-.481.07.474.092.473.026-.479.049-.48.059.476.081.476.037-.479.06-.479.048.477.07.477.048-.477.071-.477.037.478.059.479.059-.477.082-.476.026.479.048.48.07-.475.092-.474.016.48.038.481.08-.473.1-.471,0,.48.027.482.09-.472.113-.469-.006.479.017.482.1-.47.123-.467-.016.48.006.483.111-.467.133-.464-.026.479,0,.482.121-.464.143-.46-.037.478-.015.482.131-.462.153-.458-.047.478-.025.482.141-.459.163-.454-.057.476-.035.481.15-.456.172-.451-.067.475-.045.481.16-.453.182-.447-.078.473-.056.479.17-.449.191-.443-.087.472-.065.478.179-.445.2-.439-.1.47-.075.477.188-.442.209-.435-.107.468-.085.475.2-.437.218-.43-.116.465-.095.473.206-.433.228-.425-.127.462-.106.471.216-.429.237-.421-.136.46-.115.469.224-.425.245-.416-.146.457-.125.466.233-.42.254-.41-.155.454-.135.463.242-.415.262-.4-.164.451-.144.46.251-.409.271-.4-.174.447-.154.457.259-.4.279-.394-.183.444-.163.455.267-.4.287-.389-.192.44-.172.451.275-.393.294-.382-.2.436-.181.447.283-.387.3-.376-.209.432-.19.444.291-.382.31-.37-.219.427-.2.439.3-.375.318-.363-.228.422-.209.435.307-.369.325-.356-.236.417-.218.43.315-.362.333-.349-.245.412-.227.426.322-.356.34-.342-.254.407-.236.42.33-.349.348-.335-.263.4-.246.416.337-.342.355-.327-.271.395-.254.41.344-.334.361-.32-.279.39-.262.405.351-.327.368-.312-.288.384-.271.4.358-.319.374-.3-.3.378-.279.393.365-.311.381-.3-.3.371-.289.387.372-.3.388-.288-.312.364-.3.381.379-.3.394-.279-.32.357-.305.374.385-.287.4-.27-.328.35-.313.367.391-.278.406-.261-.337.343-.322.36.4-.269.412-.251-.344.334-.33.352.4-.26.417-.242-.351.326-.337.344.409-.25.423-.232-.359.319-.346.337.415-.241.428-.223-.366.311-.353.329.421-.231.433-.212-.373.3-.36.321.425-.223.438-.2-.379.3-.366.315.43-.213.442-.194-.385.287-.374.306.435-.2.447-.183-.392.277-.381.3.44-.193.451-.173-.4.268-.387.288.444-.183.454-.162-.4.259-.393.279.448-.173.458-.152-.41.25-.4.27.452-.162.461-.142-.415.241-.405.262.455-.153.464-.132-.42.232-.411.253.458-.143.467-.122-.425.222-.417.244.462-.133.47-.112-.43.213-.422.235.464-.123.472-.1-.435.2-.427.225.467-.113.474-.091-.439.194-.432.216.469-.1.476-.081-.443.185-.436.206.471-.092.477-.07-.446.175-.44.2.473-.082.479-.06-.451.166-.445.188.474-.073.48-.05-.454.156-.449.178.476-.062.481-.04-.456.147-.452.169.477-.052.482-.03-.46.137-.456.159.479-.042.483-.019-.463.127-.459.149.479-.032.482-.009-.465.117-.461.14.479-.022.482,0-.467.108-.464.131.479-.012.482.01-.47.1-.467.121.48,0,.482.021-.472.088-.47.111.48.007.482.03-.473.079-.472.1.48.017.481.04-.475.069-.474.092.48.027.48.05-.476.059-.475.082.478.037.479.06-.478.049-.478.072.478.047.478.07-.478.039-.479.062.477.057.476.08-.479.029-.48.052.476.067.475.09-.48.019-.481.042.474.077.472.1-.48.009-.482.032.473.087.47.11-.479,0-.482.022.47.1.468.119-.48-.011-.483.012.468.107.465.129-.479-.021-.482,0,.465.117.462.139-.479-.031-.483-.009.463.127.459.149-.478-.041-.482-.019.46.137.456.159-.477-.051-.482-.029.457.146.452.168-.475-.062-.481-.039.454.156.449.178-.474-.072-.48-.05.45.166.444.188-.472-.083-.478-.061.446.176.44.2-.471-.093-.478-.071.443.185.436.207-.468-.1-.475-.082.438.2.43.217-.466-.114-.473-.092.434.2.426.227-.463-.125-.472-.1.43.216.421.237-.46-.135-.469-.114.424.225.415.246-.457-.146-.466-.125.419.235.41.256-.454-.157-.464-.136.414.244.4.265-.45-.167-.46-.146.407.254.4.274-.446-.177-.456-.157S95.163,83.789,95.152,83.809Z" fill="#fffaf7"/>
            <path d="M95.152,83.809c-.011.02-.442-.187-.453-.167s.395.272.384.292-.437-.2-.448-.178.388.282.376.3-.432-.208-.444-.188.382.29.37.31-.428-.218-.44-.2.375.3.363.319-.423-.228-.436-.209.369.308.356.327-.418-.237-.431-.218.362.316.348.334-.412-.246-.425-.228.354.324.34.342-.406-.255-.42-.237.347.332.332.35-.4-.264-.415-.247.34.34.325.357-.394-.273-.409-.255.332.346.317.364-.389-.282-.4-.265.325.354.309.371-.382-.29-.4-.273.317.361.3.377-.376-.3-.392-.281.309.367.293.383-.37-.306-.386-.29.3.374.285.39-.363-.314-.38-.3.293.38.276.4-.356-.321-.373-.306.285.386.268.4-.349-.328-.367-.313.277.392.26.407-.343-.336-.36-.322.268.4.25.413-.335-.343-.353-.329.26.4.242.417-.328-.35-.346-.336.251.409.233.423-.321-.357-.339-.344.243.414.224.428-.313-.364-.332-.351.235.419.216.432-.306-.369-.325-.357.226.424.207.436-.3-.376-.318-.363.217.428.2.44-.29-.382-.31-.37.208.433.189.444-.283-.388-.3-.376.2.437.179.448-.274-.394-.294-.383.19.441.17.452-.266-.4-.287-.389.181.445.161.456-.258-.405-.278-.395.171.448.151.458-.249-.41-.27-.4.162.452.141.462-.24-.415-.261-.406.153.455.132.464-.232-.42-.253-.411.143.458.122.467-.223-.425-.244-.416.133.461.112.469-.214-.429-.235-.421.123.464.1.472-.2-.434-.227-.427.114.467.092.474-.2-.438-.217-.431.1.469.082.476-.186-.443-.208-.436.094.471.072.477-.176-.446-.2-.44.083.473.061.479-.167-.45-.189-.444.073.474.051.48-.157-.454-.179-.448.063.476.04.481-.146-.457-.169-.452.053.477.03.481-.137-.46-.159-.455.042.478.019.482-.126-.463-.149-.459.031.479.009.482-.116-.465-.139-.462.02.48,0,.483-.105-.468-.128-.466.01.48-.013.483-.1-.471-.118-.468,0,.48-.024.482-.084-.473-.107-.471-.013.48-.035.481-.073-.474-.1-.473-.024.48-.047.481-.062-.476-.085-.476-.035.479-.058.48-.15-.455-.173-.455c.008.007.27.047.279.054s-.295.376-.287.383.334-.342.342-.335-.309.365-.3.372.346-.329.354-.322-.323.352-.316.36.36-.315.367-.308-.337.34-.33.347.372-.3.379-.293-.35.326-.343.334.383-.286.39-.278-.363.312-.356.321.394-.272.4-.263-.374.3-.368.306.4-.256.41-.247-.385.283-.379.292.413-.241.419-.232-.395.269-.39.278.422-.226.427-.217-.405.255-.4.264.43-.21.435-.2-.414.24-.409.249.437-.2.441-.185-.421.225-.417.235.443-.18.448-.171-.43.211-.425.221.449-.165.453-.155-.436.2-.433.206.455-.15.458-.14-.442.181-.438.191.458-.134.462-.124-.448.167-.445.177.463-.12.466-.11-.453.153-.45.163.466-.1.469-.095-.457.139-.455.149.47-.091.472-.081-.461.125-.459.135.472-.077.474-.066-.465.111-.463.121.474-.063.476-.053-.468.1-.467.109.476-.05.477-.039-.47.084-.469.094.477-.036.478-.025-.473.071-.472.081.478-.022.479-.012-.475.058-.474.069.478-.01.479,0-.476.045-.476.055.479,0,.479.014-.477.033-.477.043.478.016.478.027-.478.02-.478.03.478.029.478.039-.479.007-.479.018.477.041.476.052-.478-.006-.479,0,.476.053.475.064-.478-.018-.479-.007.474.066.473.076-.477-.03-.479-.019.472.078.471.088-.476-.042-.478-.031.47.089.468.1-.475-.054-.476-.043.467.1.465.111-.473-.065-.475-.055.464.113.462.123-.472-.077-.474-.067.462.125.46.135-.47-.089-.473-.079.459.137.456.147-.467-.1-.47-.091.455.148.452.158-.465-.113-.468-.1.451.16.448.17-.461-.125-.465-.115.447.171.444.181-.459-.136-.462-.126.442.182.438.192-.454-.148-.458-.138.437.193.433.2-.45-.16-.454-.15.432.2.428.214-.446-.171-.451-.161.427.215.423.225-.442-.183-.447-.173.421.227.417.236-.437-.195-.442-.185.415.238.41.248-.431-.207-.436-.2.408.25.4.259-.425-.218-.43-.209.4.261.395.27-.419-.231-.424-.222.393.272.388.281-.413-.242-.419-.233.386.282.381.291l-.4-.255.408.248-.409-.247.406.252-.407-.25.4.254-.406-.252.4.256-.4-.254.4.258-.4-.256.4.26-.4-.258.4.262-.4-.26.4.265-.4-.263.4.267-.4-.265.395.269-.4-.267.393.271-.395-.269.392.273-.393-.271.391.275-.392-.273.389.277-.391-.275.388.279-.389-.277.386.281-.388-.279.385.283-.386-.281.383.284L89.4,89.82l.382.286-.383-.284.381.288-.383-.286.38.29-.381-.288.378.292-.38-.29.377.294L89.4,89.83l.375.3-.377-.293.374.3-.375-.3.372.3-.374-.3.371.3-.373-.3.37.3-.371-.3.368.3-.37-.3.367.306-.369-.3.366.307-.367-.306.364.31-.366-.308.363.312-.364-.31.361.313-.363-.311.36.315-.362-.313.358.316-.359-.314.356.318-.358-.316.355.319-.357-.317.354.321-.355-.319.352.322-.354-.321.351.325-.353-.323.35.326-.351-.324.347.328-.349-.326.346.329-.348-.328.345.331-.346-.329.343.333-.345-.331.342.334-.343-.333.339.336-.341-.334.338.338-.359-.315c-.006.008.364.311.358.319s-.387-.282-.393-.274.358.317.352.325-.38-.29-.387-.282.352.324.345.331-.374-.3-.381-.289.345.331.339.338-.369-.305-.375-.3.338.338.331.345-.362-.312-.369-.305.332.345.325.352-.356-.319-.363-.312.325.351.317.358-.349-.326-.356-.319.318.357.31.364-.343-.333-.35-.326.311.363.3.37S89,90.258,89,90.265s.3.369.3.375-.331-.345-.338-.339.3.375.289.381-.324-.351-.331-.345.29.38.282.387-.317-.357-.325-.351.283.385.276.391-.312-.363-.32-.357.277.39.269.4-.3-.368-.313-.362.27.395.262.4-.3-.374-.306-.368.263.4.255.405-.293-.378-.3-.372.257.4.249.409-.286-.383-.3-.378.25.408.242.413-.28-.387-.288-.382.243.412.235.417-.274-.392-.282-.387.237.416.228.421-.267-.4-.276-.391.231.419.222.424-.261-.4-.27-.395.225.422.216.427-.255-.4-.264-.4.218.426.209.431-.249-.408-.258-.4.211.429.2.434-.244-.411-.253-.407.206.432.2.437-.238-.415-.247-.411.2.435.191.44-.232-.419-.241-.414.193.437.184.442-.226-.422-.235-.417.187.44.178.444-.22-.424-.229-.42.181.442.172.446-.215-.427-.224-.423.176.445.167.449-.209-.43-.219-.426.17.447.161.451-.2-.432-.213-.429.164.45.155.453-.2-.435-.208-.431.159.451.15.455-.193-.438-.2-.434.153.453.144.457-.188-.44-.2-.437.148.455.138.459-.182-.442-.192-.439.143.457.133.46-.177-.444-.186-.441.136.458.127.462-.172-.447-.182-.443.132.459.122.463-.167-.448-.176-.445.126.461.117.464-.162-.45-.172-.447.122.462.112.465-.157-.451-.167-.448.116.463.107.466-.152-.453-.162-.45.111.465.1.468-.148-.455-.158-.453.107.467.1.469-.142-.456-.152-.454.1.468.092.47-.138-.458-.148-.455.1.468.087.471-.133-.46-.143-.457.092.469.082.471-.128-.46-.138-.458.087.47.078.472-.124-.461-.134-.459.083.471.073.473-.119-.463-.129-.461.078.472.068.474-.115-.465-.124-.463.074.473.064.475-.108-.466-.115-.464.081.471.074.472-.107-.466-.114-.464.078.471.071.472-.1-.466-.111-.465.075.472.068.474-.1-.467-.108-.466.072.472.065.474-.1-.468-.105-.467.069.473.062.474-.095-.468-.1-.467.066.473.059.475-.093-.469-.1-.468.063.474.056.475-.09-.47-.1-.469.061.475.054.476-.087-.47-.094-.469.058.474.051.475-.084-.47-.091-.469.055.475.048.476-.082-.471-.089-.47.053.475.046.476-.079-.472-.086-.471.049.476.042.477-.076-.472-.083-.471.047.475.04.476-.073-.472-.08-.471.044.476.037.477-.071-.473-.078-.472.042.476.035.477-.068-.473-.075-.473.038.477.031.478-.065-.474-.072-.473.036.476.029.477-.062-.474-.069-.473.032.477.025.477-.059-.474-.066-.473.03.477.023.478-.057-.475-.064-.474.028.477.021.477-.054-.475-.061-.474.024.477.017.478-.051-.475-.058-.475.022.478.015.478-.049-.475-.056-.475.019.478.012.478-.045-.475-.052-.475.016.478.009.478-.043-.476-.05-.476.013.478.006.479-.04-.477-.047-.476.011.478,0,.478-.037-.477-.044-.476.007.478,0,.478-.034-.477-.041-.476,0,.478,0,.478-.032-.477-.039-.477,0,.478,0,.478-.029-.477-.036-.477,0,.478-.008.479-.026-.478-.033-.477,0,.477-.01.478-.023-.478-.03-.478-.007.478-.014.478-.02-.477-.027-.477-.009.478-.016.478-.018-.478-.025-.478-.012.478-.019.478-.015-.477-.022-.477-.014.477-.021.477-.013-.478-.02-.478-.017.478-.024.478-.01-.478-.017-.478-.02.478-.027.478-.006-.478-.013-.478-.023.477-.03.477,0-.478-.011-.478-.026.477-.033.477,0-.478-.008-.478-.028.477-.035.477,0-.478-.006-.479-.031.477-.038.477,0-.478,0-.478-.034.477-.041.476.007-.477,0-.478-.036.477-.043.476.009-.477,0-.478-.039.477-.046.476.012-.478.005-.478-.042.476-.049.476.016-.478.009-.478-.045.475-.052.475.018-.478.011-.478-.048.475-.055.475.021-.478.014-.478-.05.475-.057.475.023-.478.016-.478-.053.475-.06.474.025-.477.018-.478-.046.476-.05.476.028-.477.024-.478-.046.476-.05.476.03-.477.026-.478-.047.476-.051.476.031-.477.027-.478-.049.476-.053.475.033-.476.029-.477-.051.476-.055.475.035-.476.031-.477-.053.475-.057.475.037-.477.033-.477-.054.475-.059.474.039-.476.035-.476-.056.474-.06.474.04-.476.036-.477-.058.474-.062.474.043-.476.038-.476-.06.474-.064.473.045-.476.04-.476-.061.474-.065.473.046-.475.042-.476-.064.474-.068.473.048-.475.044-.476-.066.474-.07.473.05-.475.046-.475-.067.473-.071.472.051-.475.047-.475-.069.472-.073.472.053-.475.049-.475-.071.472-.075.472.055-.475.051-.476-.072.473-.076.472.056-.474.052-.475-.074.472-.078.472.058-.475.054-.475-.076.472-.08.471.06-.474.056-.475-.077.472-.081.471.061-.474.057-.474-.079.471-.083.47.063-.473.059-.474-.08.471-.084.471.065-.474.06-.474-.082.47-.086.47.067-.474.063-.474-.084.47-.088.47.068-.473.064-.474-.086.47-.09.469.07-.472.066-.473-.087.47-.091.469.071-.472.067-.473-.089.47-.093.469.073-.472.069-.473-.09.469-.094.468.074-.472.07-.472-.092.469-.1.468.076-.472.072-.473-.093.469-.1.468.078-.471.073-.472-.095.468-.1.468.08-.472.076-.472-.1.468-.1.467.081-.471.077-.472-.1.468-.1.467.083-.471.079-.471-.1.467-.1.466.084-.47.08-.471-.1.467-.1.466.086-.47.081-.471-.1.467-.107.466.088-.47.084-.471-.105.467-.109.466.089-.47.085-.471-.106.466-.11.465.09-.469.086-.47-.107.466-.111.465.092-.469.087-.47-.109.466-.113.465.094-.469.09-.47-.111.465-.115.464.095-.468.091-.469-.112.465-.116.464.1-.468.092-.469-.113.464-.117.463.1-.468.094-.469-.115.464-.119.463.1-.467.095-.468-.116.463-.12.462.1-.467.1-.468-.117.463-.121.462.1-.466.1-.467-.119.462-.123.462.1-.467.1-.468-.12.462-.125.461.106-.466.1-.467-.122.462-.127.461.107-.465.1-.466-.123.461-.127.46.1-.468.089-.47-.133.459-.142.457.1-.467.092-.47-.137.459-.146.456.1-.466.1-.469-.14.458-.149.455.107-.466.1-.468-.144.456-.152.454.11-.465.1-.468-.147.455-.156.453.115-.464.106-.467-.15.454-.159.452.118-.464.109-.466-.153.452-.162.45.121-.463.113-.465-.157.451-.166.449.125-.462.116-.465-.16.451-.169.448.128-.46.12-.463-.164.449-.172.446.131-.459.122-.462-.166.448-.175.445.135-.459.126-.461-.17.446-.178.444.138-.458.129-.461-.173.445-.181.443.141-.457.132-.46-.176.444-.185.441.145-.456.136-.459-.179.443-.188.44.148-.454.14-.457-.183.441-.191.438.151-.453.142-.456-.186.44-.194.437.154-.453.146-.456-.189.439-.2.436.158-.451.149-.455-.192.438-.2.435.161-.451.152-.454-.2.436-.2.433.163-.449.155-.452-.2.435-.207.431.167-.448.159-.451-.2.433-.21.43.171-.447.162-.45-.2.432-.212.428.173-.445.165-.449-.208.431-.216.427.176-.444.168-.448-.21.429-.219.426.18-.443.172-.447-.214.428-.222.424.183-.442.175-.446-.217.427-.225.423.186-.441.178-.444-.22.424-.228.42.189-.439.181-.443-.223.423-.231.42.192-.438.184-.442-.226.421-.234.417.195-.436.187-.44-.228.42-.236.416.2-.435.19-.439-.232.418-.239.414.2-.434.193-.438-.235.417-.243.413.2-.432.2-.436-.238.415-.246.41.208-.43.2-.435-.241.414-.248.41.21-.43.2-.434-.243.412-.251.407.213-.428.2-.432-.246.41-.253.406.216-.427.208-.431-.249.408-.257.4.219-.425.212-.429-.252.406-.26.4.222-.424.215-.428-.255.405-.263.4.225-.422.218-.426-.258.4-.265.4.228-.42.22-.424-.26.4-.268.4.231-.419.223-.423-.262.4-.27.395.234-.417.226-.422-.265.4-.273.393.237-.416.229-.42-.268.395-.276.391.24-.414.232-.419-.271.394-.278.389.242-.412.234-.417-.273.392-.281.388.245-.411.238-.416-.276.39-.284.385.248-.408.241-.413-.279.388-.287.383.352-.255.345-.26c-.019-.093-.486-.009-.5-.1s.456-.17.441-.264-.487-.017-.5-.111.456-.171.44-.265-.487-.017-.5-.112.456-.171.441-.265-.487-.018-.5-.112.456-.171.441-.266-.487-.018-.5-.112.456-.172.44-.267-.487-.018-.5-.113.456-.171.44-.266-.487-.018-.5-.113.456-.171.44-.266-.487-.017-.5-.112.456-.171.44-.266-.487-.017-.5-.111.456-.172.441-.266-.487-.017-.5-.112.456-.171.441-.265-.487-.017-.5-.111.456-.171.441-.265-.487-.017-.5-.111.456-.171.441-.265-.487-.017-.5-.111.456-.171.441-.265-.487-.017-.5-.111.457-.171.441-.265-.487-.017-.5-.111.456-.172.441-.266-.487-.017-.5-.111.457-.171.441-.265-.487-.017-.5-.111.456-.172.441-.266-.487-.017-.5-.111.456-.172.441-.266-.487-.018-.5-.112.457-.169.442-.261-.487-.015-.5-.107.457-.168.442-.26-.487-.015-.5-.107.457-.169.442-.261-.487-.015-.5-.108.456-.169.441-.261-.486-.015-.5-.108.456-.169.441-.262-.487-.015-.5-.108.456-.17.441-.263-.486-.016-.5-.109.457-.17.441-.263-.486-.017-.5-.11.457-.171.441-.265-.487-.016-.5-.11.456-.172.441-.266-.487-.017-.5-.112.456-.172.441-.267-.487-.018-.5-.113.456-.173.44-.268-.487-.019-.5-.115.455-.174.44-.27-.488-.019-.5-.114.456-.173.44-.269-.487-.018-.5-.113.456-.173.441-.268-.487-.018-.5-.113.456-.172.441-.267-.487-.018-.5-.112.456-.172.441-.267-.487-.018-.5-.113.456-.172.44-.267-.487-.018-.5-.113.456-.172.44-.267-.487-.019-.5-.114.455-.173.44-.269-.487-.019-.5-.115.456-.173.44-.27-.488-.02-.5-.117.455-.173.44-.27-.488-.019-.5-.115.455-.173.44-.269-.487-.019-.5-.115.456-.172.44-.266-.486-.017-.5-.111.456-.172.441-.266-.487-.018-.5-.112.456-.173.441-.268-.487-.018-.5-.114.456-.174.44-.271-.488-.021-.5-.119.456-.175.44-.272-.488-.021-.5-.118.455-.174.439-.271-.487-.021-.5-.119.455-.176.439-.274-.487-.02-.5-.117.455-.175.439-.273-.488-.023-.5-.123.455-.177.439-.277-.494-.033-.506-.134c.008-.009.434.111.442.1s-.344-.332-.336-.342.377.3.385.286-.344-.333-.336-.342.377.3.385.285-.344-.332-.336-.341.377.3.385.285-.344-.332-.336-.342.377.3.385.286-.344-.333-.336-.342.377.3.385.286-.344-.333-.336-.342.377.295.385.285-.344-.332-.336-.341.377.3.385.285-.344-.332-.336-.342.377.295.385.286-.344-.332-.336-.342.377.3.385.286-.344-.333-.336-.342.377.3.385.286-.344-.333-.336-.342.377.3.385.285-.344-.332-.336-.341.377.3.385.285-.344-.332-.336-.341.376.3.385.285-.345-.332-.336-.342.376.3.384.286-.344-.332-.336-.342.377.3.385.286-.344-.332-.336-.342.377.3.385.286-.344-.333-.336-.342.377.3.385.286-.344-.333-.336-.342.377.3.385.286-.344-.333-.336-.342.376.3.384.286-.344-.333-.336-.342.377.3.385.286-.344-.333-.336-.342.377.295.385.285-.344-.332-.336-.341.377.3.385.285-.344-.332-.336-.341.376.3.385.285-.344-.332-.336-.341.376.3.384.285-.344-.332-.336-.341.377.3.385.285-.344-.332-.336-.341.377.294.385.285-.344-.332-.336-.342.377.3.385.286-.344-.332-.336-.342.376.295.385.286-.345-.332-.336-.342.376.3.384.286-.344-.332-.336-.342.377.3.385.286-.344-.332-.336-.342.377.3.385.286-.344-.333-.336-.342.377.3.385.286-.344-.333-.336-.342.376.3.385.286-.344-.333-.336-.342.376.3.384.286-.344-.333-.336-.342.377.3.385.285-.344-.332-.336-.341.377.3.385.285-.344-.332-.336-.341.377.3.385.285-.344-.332-.336-.342.377.3.385.286-.344-.332-.336-.342.377.3.385.286-.344-.333-.336-.342.376.3.385.286-.344-.333-.336-.342.376.295.385.285-.344-.332-.336-.341.376.3.384.285-.344-.332-.335-.342.376.3.384.286-.344-.332-.335-.342.376.3.384.286-.344-.333-.335-.342.376.3.384.286-.344-.333-.335-.342.376.3.384.285-.344-.332-.335-.342.376.3.384.286-.344-.333-.335-.342.376.3.384.286-.343-.333-.335-.342.376.3.385.285l-.353-.322.369.3-.353-.322.368.3-.353-.322.369.3-.353-.322.369.3-.353-.322.369.3-.353-.322.369.3-.353-.322.369.3-.353-.322.369.3-.353-.322.369.3-.353-.322.368.3-.352-.322.368.3-.352-.323.368.3-.352-.322.368.3-.352-.322.368.3-.352-.323.368.3-.352-.322.368.3-.352-.323.368.3-.352-.322.368.3-.352-.323.368.3-.352-.322.368.3-.352-.323.369.3-.353-.322.369.3-.353-.323.369.3-.353-.322.369.3-.353-.323.369.3-.353-.322.369.3-.353-.323.369.3-.353-.322.369.3-.353-.323.369.3-.353-.323.369.3-.353-.323.369.3L80.944,68l.369.3-.352-.322.368.3-.352-.323.368.3-.352-.322.368.3-.352-.323.368.3-.352-.322.368.3-.352-.323.368.3-.353-.322.369.3-.353-.322.369.3-.353-.323.369.3-.353-.322.369.3L81.12,67.8l.369.3-.353-.323.369.3-.353-.322.369.3-.353-.322.369.3-.353-.322.368.3-.353-.322.369.3-.353-.322.369.3-.354-.321.373.3-.38-.289.381.287-.378-.291.379.29-.377-.293.378.292-.375-.3.376.294-.373-.3.374.3-.371-.3.372.3-.369-.3.37.3-.367-.3.368.3-.365-.308.366.307-.363-.31.364.309-.362-.313.362.312-.359-.315.36.314-.356-.318.357.318-.354-.321.355.32-.352-.324.352.323-.349-.326.35.325-.347-.329.347.329-.343-.332.344.331-.341-.334.342.333-.339-.337.339.337-.335-.34.336.339-.333-.343.333.343-.329-.346.33.345-.327-.349.327.349L81.3,67.6l.324.351-.32-.354.321.354-.317-.358.317.357-.314-.36.315.36-.311-.363.311.362-.307-.366.308.366-.3-.369.305.368-.3-.371.3.371-.3-.374.3.373-.294-.376.3.375-.291-.379.292.379-.288-.382.288.381-.284-.384.285.384-.281-.387.282.386-.278-.389.279.388-.275-.391.276.391-.271-.394.272.393-.268-.4.269.395-.265-.4.266.4-.262-.4.263.4-.258-.4.26.4-.256-.4.257.4-.252-.406.253.405-.249-.407.251.406-.247-.409.232.417-.192-.437.174.445-.168-.447.168.447-.162-.449.162.449-.155-.452.155.452-.149-.454.149.454-.143-.456.143.456-.137-.457.137.457-.131-.459.131.459-.125-.461.125.461-.119-.462.119.462-.113-.464.114.464-.108-.465.108.465-.1-.467.1.467-.1-.468.1.468-.092-.469.092.469-.086-.47.087.47-.082-.471.082.471-.076-.472.077.472-.071-.473.072.472-.067-.473.067.473-.062-.473.063.473-.057-.474.058.474-.053-.475.054.475-.049-.475.051.475-.046-.476.047.476-.042-.476.043.476-.038-.477.04.476-.035-.476.036.476-.031-.476.033.476-.028-.477.029.477-.025-.477.027.477-.022-.477.024.477-.019-.477.021.477-.017-.478.019.478-.014-.478.017.478-.013-.478.015.478-.011-.478.013.478-.008-.478.011.477-.007-.477.009.477,0-.477.008.477,0-.477.007.477,0-.477.006.477,0-.477,0,.477v-.477l0,.477v-.477l0,.477v-.477l0,.477v-.477l0,.477v-.477l0,.477,0-.477,0,.477.011-.477c.01,0,0,.478.01.478s.039-.476.049-.476,0,.478.009.479.04-.477.049-.476,0,.478.009.478.04-.476.05-.476,0,.478.008.479.041-.477.05-.476,0,.478.008.478.041-.476.051-.475,0,.478.007.478.042-.476.051-.476,0,.478.006.479.043-.476.053-.476,0,.478,0,.479.043-.476.053-.476,0,.478,0,.479.044-.476.054-.476-.006.478,0,.479.044-.476.054-.476-.006.478,0,.479.045-.476.054-.476-.006.478,0,.479.045-.476.055-.476-.007.478,0,.479.047-.476.056-.475-.008.478,0,.478.047-.476.057-.475-.009.478,0,.479.047-.476.057-.476-.009.478,0,.479.048-.476.057-.475-.01.478,0,.478.049-.475.059-.475-.011.478,0,.479.049-.475.059-.475-.011.478,0,.479.051-.476.061-.475-.013.478,0,.479.051-.476.061-.475-.013.478,0,.478.052-.475.061-.474-.014.478,0,.478.053-.475.063-.474-.015.478-.005.478.053-.475.063-.474-.015.478-.006.479.055-.475.064-.475-.016.478-.006.479.055-.475.065-.474-.017.478-.008.478.057-.474.066-.474-.018.478-.008.479.057-.475.067-.474-.02.478-.01.478.058-.474.068-.473-.02.477-.01.478.059-.474.068-.473-.021.477-.011.478.06-.474.07-.473-.022.477-.013.478.061-.474.071-.473-.023.477-.014.478.063-.474.072-.473-.024.477-.014.478.063-.474.073-.473-.026.478-.016.479.064-.474.074-.473-.026.477-.017.478.066-.474.075-.473-.027.478-.018.479.067-.474.077-.473-.029.477-.019.478.067-.473.077-.472-.03.477-.02.478.069-.473.078-.472-.03.477-.021.478.07-.473.08-.472-.032.477-.023.478.072-.472.081-.471-.033.477-.023.478.072-.473.082-.472-.035.477-.025.478.073-.472.083-.471-.035.477-.026.478.075-.473.085-.471-.037.476-.028.477.076-.472.086-.47-.038.476-.028.477.077-.472.087-.47-.04.476-.03.477.079-.471.088-.47-.04.476-.031.478.08-.472.09-.471-.042.477-.032.478.081-.471.091-.47-.044.476-.034.477.083-.471.092-.469-.045.476-.036.477.09-.47.1-.468-.047.476-.036.478.092-.47.1-.468-.049.476-.038.477.095-.468.106-.467-.05.476-.039.478.1-.469.107-.467-.052.475-.041.477.1-.468.109-.466-.054.475-.043.477.1-.468.111-.466-.056.475-.044.477.1-.468.112-.466-.057.475-.046.477.1-.467.115-.465-.06.474-.049.476.106-.466.117-.464-.062.474-.051.476.108-.466.119-.464-.064.474-.053.476.11-.466.121-.463-.066.473-.055.475.112-.465.123-.462-.069.473-.057.475.114-.464.125-.462-.071.473-.06.475.117-.464.129-.461-.074.472-.063.474.12-.463.131-.46-.077.472-.066.474.123-.462.134-.46-.08.472-.068.474.125-.461.136-.459-.082.471-.071.474.128-.461.139-.459-.085.471-.074.474.131-.46.142-.458-.088.47-.077.473.133-.459.144-.457-.091.47-.08.473.137-.459.148-.456-.094.469-.083.472.14-.458.151-.455-.1.468-.086.471.143-.456.154-.453-.1.467-.09.47.146-.455.157-.452-.1.467-.093.47.15-.455.161-.452-.108.466-.1.469.153-.453.164-.45-.111.466-.1.469.156-.452.167-.449-.115.464-.1.468.161-.451.171-.448-.118.464-.107.467.164-.449.174-.446-.122.462-.111.466.167-.448.178-.445-.126.462-.115.465.171-.446.182-.443-.13.46-.119.464.175-.445.186-.441-.135.459-.124.462.179-.443.19-.439-.138.457-.128.461.184-.442.194-.438-.142.457-.132.461.188-.44.2-.436-.147.455-.136.459.191-.438.2-.434-.151.453-.141.457.2-.436.207-.432-.156.452-.145.457.2-.435.21-.431-.16.451-.15.455.205-.432.215-.428-.164.449-.154.454.209-.431.219-.426-.169.447-.159.452.213-.429.224-.424-.174.446-.164.45.218-.426.228-.421-.179.444-.168.448.222-.423.232-.418-.183.441-.173.446.227-.421.237-.416-.188.44-.178.445.231-.419.242-.414-.194.438-.184.443.237-.416.247-.411-.2.435-.188.44.241-.413.251-.407-.2.432-.193.438.246-.411.256-.405-.209.43-.2.436.251-.407.261-.4-.213.428-.2.434.255-.405.265-.4-.216.426-.206.432.257-.4.267-.4-.221.424-.211.43.263-.4.272-.394-.226.421-.217.427.269-.4.278-.39-.232.418-.222.424.273-.392.283-.386-.238.415-.229.421.279-.389.289-.383-.244.412-.234.418.284-.385.293-.378-.249.408-.24.415.29-.382.3-.375-.254.405-.245.411.294-.377.3-.37-.26.4-.25.408.3-.373.308-.366-.265.4-.256.4.3-.369.313-.362-.27.394-.261.4.309-.364.318-.357-.276.39-.267.4.314-.36.323-.353-.281.386-.272.393.319-.355.328-.348-.287.382-.278.39.324-.352.333-.344-.292.378-.284.385.33-.346.338-.339-.3.374-.289.382.335-.342.343-.334-.3.37-.3.377.34-.337.348-.329-.308.365-.3.373.344-.332.353-.324-.314.361-.306.369.349-.327.357-.319-.319.356-.311.364.354-.322.362-.314-.324.352-.316.36.359-.317.366-.308-.329.346-.321.354.363-.31.371-.3-.335.341-.327.35.368-.306.376-.3-.341.336-.333.344.373-.3.381-.29-.346.33-.338.339.377-.294.385-.285-.351.325-.344.334.383-.288.39-.279-.356.32-.349.329.387-.282.394-.273-.361.314-.354.323.392-.275.4-.266-.367.308-.36.317.4-.269.4-.259-.371.3-.364.31.4-.261.407-.252-.377.3-.37.3.405-.254.411-.245-.381.289-.375.3.409-.248.416-.238-.386.282-.38.291.413-.24.419-.231-.391.275-.385.285.418-.233.424-.224-.4.269-.39.278.421-.226.427-.216-.4.261-.4.271.426-.218.432-.208-.406.254-.4.264.429-.211.435-.2-.41.246-.405.256.434-.2.439-.192-.415.239-.409.249.437-.195.442-.184-.419.23-.414.241.44-.186.445-.176-.423.223-.418.233.444-.178.449-.167-.428.214-.423.225.447-.169.452-.159-.432.206-.427.217.45-.16.455-.15-.436.2-.432.208.454-.151.458-.14-.439.189-.435.2.457-.142.46-.131-.443.18-.439.191.46-.133.463-.122-.446.171-.443.182.462-.124.466-.113-.45.162-.447.173.465-.114.468-.1-.453.153-.45.164.467-.105.47-.094-.457.143-.454.154.469-.091.472-.081-.461.127-.459.138.472-.079.474-.068-.464.117-.461.127.473-.067.475-.057-.466.106-.464.117.474-.057.476-.046-.468.095-.467.106.476-.046.478-.035-.471.084-.47.095.477-.035.479-.024-.473.074-.472.084.478-.024.479-.013-.474.063-.473.074.478-.014.479,0-.475.053-.475.064.479,0,.479.007-.476.043-.476.054.479.006.479.017-.477.033-.477.044.478.017.478.028-.478.022-.478.033.478.027.478.038-.478.012-.479.023.477.038.477.049-.479,0-.479.012.476.048.475.059-.478-.009-.479,0,.475.058.474.069-.478-.019-.479-.008.473.068.472.079-.477-.03-.478-.019.472.079.47.09-.476-.04-.478-.029.47.089.468.1-.475-.05-.477-.04.468.1.466.111-.474-.061-.476-.05.466.109.463.12-.472-.071-.475-.06.463.12.461.13-.471-.082-.473-.071.46.13.457.141-.469-.092-.472-.081.458.14.455.151-.467-.1-.47-.092.454.15.451.161-.465-.113-.468-.1.45.161.447.171-.462-.123-.465-.113.447.171.443.182-.459-.134-.463-.124.443.181.439.192-.455-.145-.459-.135.438.192.434.2-.452-.155-.456-.145.433.2.429.212-.448-.166-.453-.156.429.212.424.222-.444-.177-.448-.167.423.223.418.233-.44-.188-.444-.178.418.232.413.242-.436-.2-.441-.188.413.243.407.252-.43-.208-.435-.2.406.253.4.263-.425-.22-.431-.21.4.263.394.272-.419-.23-.425-.221.393.273.387.282-.413-.24-.419-.231.385.283.379.292-.406-.252-.413-.243.378.293.372.3-.4-.262-.406-.253.37.3.363.312-.393-.273-.4-.264.361.313.355.321-.386-.283-.393-.275.354.323.347.331-.378-.294-.385-.285.344.332.337.34-.369-.3-.376-.3.334.342.327.35-.361-.315-.368-.307.325.351.317.359-.351-.325-.359-.317.315.36.307.368S88.94,74,88.932,74s.3.369.3.376-.332-.344-.34-.337.294.378.285.385-.322-.354-.33-.347.282.386.274.393-.312-.363-.321-.356.271.394.262.4-.3-.372-.309-.366.259.4.25.408l-.306-.364.334.341-.334-.341.332.344-.331-.345.328.348-.328-.348.325.351-.324-.352.321.354-.321-.354.318.357-.317-.358.314.361-.314-.361.311.363-.31-.364L89,74.56l-.307-.367.3.369-.3-.369.3.371-.3-.372.3.375-.3-.375.294.377-.293-.377.291.379-.291-.379.288.381-.288-.381.285.383-.285-.383.282.385-.282-.386.28.388-.28-.388.277.39-.277-.389.275.391-.275-.391.272.392-.272-.392.27.394-.27-.394.268.4-.269-.4.266.4-.266-.4.264.4-.265-.4.263.4-.263-.4.261.4-.262-.4.26.4-.261-.4.259.4-.26-.4.258.4-.259-.4.257.4-.258-.4.257.4-.258-.4.256.4-.258-.4.256.4-.257-.4.256.4-.257-.4.255.4-.257-.4.255.4-.256-.4.255.4-.257-.4.256.4-.258-.4.256.4-.258-.4.257.4-.259-.4.257.4-.259-.4.258.4-.26-.4.259.4-.261-.4.26.4-.262-.4.26.4-.262-.4.261.4-.263-.4.262.4-.265-.4.264.4-.372-.194.238-.243.005.477-.006-.477.011.477-.012-.477.017.477-.018-.477.022.477-.023-.477.027.477-.027-.477.031.476-.032-.476.036.476-.036-.476.039.476-.038-.476.042.476-.042-.476.045.475-.044-.475.047.475-.047-.475.05.475-.049-.476.051.475-.05-.475.053.475-.051-.475.053.475-.052-.475.054.475-.052-.475.054.475-.052-.475.053.474-.051-.475.053.475-.051-.475.052.475-.049-.475.05.475-.047-.475.048.475-.046-.476.047.476-.044-.476.044.476-.04-.476.04.476-.037-.477.037.477-.033-.477.033.477-.029-.477.029.477-.025-.477.024.477-.02-.478.02.478-.016-.478.015.478-.01-.478.009.478,0-.478,0,.478,0-.478,0,.478.009-.478-.011.478.017-.478-.019.478.024-.477-.026.477.032-.477-.034.476.04-.476-.042.476.048-.475-.051.475.058-.474-.061.474.067-.473-.07.472.077-.471-.08.471.086-.47-.089.469.1-.468-.1.467.106-.465-.11.465.117-.464-.12.463.128-.461-.132.46.139-.457-.142.456.056-.466c.022,0,.079.473.1.472s.015-.48.038-.481.07.474.092.473.026-.479.049-.48.059.476.081.476.037-.479.06-.479.048.477.07.477.048-.477.071-.477.037.478.059.479.059-.477.082-.476.026.479.048.48.07-.475.092-.474.016.48.038.481.08-.473.1-.471,0,.48.027.482.09-.472.113-.469-.006.479.017.482.1-.47.123-.467-.016.48.006.483.111-.467.133-.464-.026.479,0,.482.121-.464.143-.46-.037.478-.015.482.131-.462.153-.458-.047.478-.025.482.141-.459.163-.454-.057.476-.035.481.15-.456.172-.451-.067.475-.045.481.16-.453.182-.447-.078.473-.056.479.17-.449.191-.443-.087.472-.065.478.179-.445.2-.439-.1.47-.075.477.188-.442.209-.435-.107.468-.085.475.2-.437.218-.43-.116.465-.095.473.206-.433.228-.425-.127.462-.106.471.216-.429.237-.421-.136.46-.115.469.224-.425.245-.416-.146.457-.125.466.233-.42.254-.41-.155.454-.135.463.242-.415.262-.4-.164.451-.144.46.251-.409.271-.4-.174.447-.154.457.259-.4.279-.394-.183.444-.163.455.267-.4.287-.389-.192.44-.172.451.275-.393.294-.382-.2.436-.181.447.283-.387.3-.376-.209.432-.19.444.291-.382.31-.37-.219.427-.2.439.3-.375.318-.363-.228.422-.209.435.307-.369.325-.356-.236.417-.218.43.315-.362.333-.349-.245.412-.227.426.322-.356.34-.342-.254.407-.236.42.33-.349.348-.335-.263.4-.246.416.337-.342.355-.327-.271.395-.254.41.344-.334.361-.32-.279.39-.262.405.351-.327.368-.312-.288.384-.271.4.358-.319.374-.3-.3.378-.279.393.365-.311.381-.3-.3.371-.289.387.372-.3.388-.288-.312.364-.3.381.379-.3.394-.279-.32.357-.305.374.385-.287.4-.27-.328.35-.313.367.391-.278.406-.261-.337.343-.322.36.4-.269.412-.251-.344.334-.33.352.4-.26.417-.242-.351.326-.337.344.409-.25.423-.232-.359.319-.346.337.415-.241.428-.223-.366.311-.353.329.421-.231.433-.212-.373.3-.36.321.425-.223.438-.2-.379.3-.366.315.43-.213.442-.194-.385.287-.374.306.435-.2.447-.183-.392.277-.381.3.44-.193.451-.173-.4.268-.387.288.444-.183.454-.162-.4.259-.393.279.448-.173.458-.152-.41.25-.4.27.452-.162.461-.142-.415.241-.405.262.455-.153.464-.132-.42.232-.411.253.458-.143.467-.122-.425.222-.417.244.462-.133.47-.112-.43.213-.422.235.464-.123.472-.1-.435.2-.427.225.467-.113.474-.091-.439.194-.432.216.469-.1.476-.081-.443.185-.436.206.471-.092.477-.07-.446.175-.44.2.473-.082.479-.06-.451.166-.445.188.474-.073.48-.05-.454.156-.449.178.476-.062.481-.04-.456.147-.452.169.477-.052.482-.03-.46.137-.456.159.479-.042.483-.019-.463.127-.459.149.479-.032.482-.009-.465.117-.461.14.479-.022.482,0-.467.108-.464.131.479-.012.482.01-.47.1-.467.121.48,0,.482.021-.472.088-.47.111.48.007.482.03-.473.079-.472.1.48.017.481.04-.475.069-.474.092.48.027.48.05-.476.059-.475.082.478.037.479.06-.478.049-.478.072.478.047.478.07-.478.039-.479.062.477.057.476.08-.479.029-.48.052.476.067.475.09-.48.019-.481.042.474.077.472.1-.48.009-.482.032.473.087.47.11-.479,0-.482.022.47.1.468.119-.48-.011-.483.012.468.107.465.129-.479-.021-.482,0,.465.117.462.139-.479-.031-.483-.009.463.127.459.149-.478-.041-.482-.019.46.137.456.159-.477-.051-.482-.029.457.146.452.168-.475-.062-.481-.039.454.156.449.178-.474-.072-.48-.05.45.166.444.188-.472-.083-.478-.061.446.176.44.2-.471-.093-.478-.071.443.185.436.207-.468-.1-.475-.082.438.2.43.217-.466-.114-.473-.092.434.2.426.227-.463-.125-.472-.1.43.216.421.237-.46-.135-.469-.114.424.225.415.246-.457-.146-.466-.125.419.235.41.256-.454-.157-.464-.136.414.244.4.265-.45-.167-.46-.146.407.254.4.274-.446-.177-.456-.157S95.163,83.789,95.152,83.809Z" fill="none" stroke="#fff8f9" stroke-miterlimit="10" stroke-width="0.25"/>
          </g>
          <path d="M71.331,39.177C78.174,54.551,82.176,72.03,83.844,91.238c-17.661,13.57-37.5,12.029-58.863,0A309.393,309.393,0,0,1,43.587,39.39a6.761,6.761,0,0,1,4.98-3.8,63.132,63.132,0,0,1,17.3-.453A6.818,6.818,0,0,1,71.331,39.177Z" fill="#cccbcb"/>
          <g>
            <path d="M92.972,104.914c3.067-13.61-25-14.92-25.54-.794a.639.639,0,0,0,.6.656l23.061,1.507A1.8,1.8,0,0,0,92.972,104.914Z"/>
            <path d="M20.7,104.914c-3.067-13.61,25-14.92,25.54-.794a.639.639,0,0,1-.6.656l-23.061,1.507A1.8,1.8,0,0,1,20.7,104.914Z"/>
          </g>
        </g>
        <path d="M64.821,70.016c.03.02.07.05.1.07l-2.73-.11-3.24-.13a5.764,5.764,0,0,1,3.18-.7A5.706,5.706,0,0,1,64.821,70.016Z" fill="#eff3f0"/>
        <path d="M73.381,93.856a4.778,4.778,0,0,1-2.43,4.29,2.5,2.5,0,0,1-4.41,2.04,10.035,10.035,0,0,1-1.88,1.43,11.379,11.379,0,0,1-8.49,1.34,16.07,16.07,0,0,0-4.12-.89,15.5,15.5,0,0,1-1.8.09,1.594,1.594,0,0,1-1.43-.93,4.854,4.854,0,0,1-5.67-3.32.853.853,0,0,1-.72-1.21,4.834,4.834,0,0,1-2.92-7.4,3.8,3.8,0,0,1,.83-6.4,3.853,3.853,0,0,1,2.52-6.54c-1.19-1.13-.63-3.29.67-4.28a6.828,6.828,0,0,1,3.51-1.16c.4-.04.8-.07,1.19-.1,4.66-.3,9.32-.53,13.98-.66.9-.03,1.81-.05,2.71-.07a5.09,5.09,0,0,1,.58.46,5.8,5.8,0,0,1,1.9,4.75,4.576,4.576,0,0,1,2.72,4.89,5.162,5.162,0,0,1,.49,9.6A4.763,4.763,0,0,1,73.381,93.856Z" fill="#eff3f0"/>
        <g>
          <path d="M69.591,63.7a2.358,2.358,0,0,1-.02.38,7.645,7.645,0,0,1-2.14,4.8,10.838,10.838,0,0,1-1.93,1.67,13.482,13.482,0,0,1-3.14,1.62,18.042,18.042,0,0,1-6.37,1.12,17.089,17.089,0,0,1-8.95-2.37,10.454,10.454,0,0,1-3.65-3.62,7.169,7.169,0,0,1-.99-3.6,2.62,2.62,0,0,1,.01-.28,7.542,7.542,0,0,1,1.94-4.66,13.672,13.672,0,0,1,7.44-4.18,18.386,18.386,0,0,1,4.2-.47c.21,0,.42,0,.62.01a19.407,19.407,0,0,1,3.38.41c.34.07.68.16,1.01.25a13.568,13.568,0,0,1,6.52,3.84A7.559,7.559,0,0,1,69.591,63.7Z" fill="#808184"/>
          <g opacity="0.4">
            <path d="M56.614,54.117c.045.456.074.913.1,1.369a7.887,7.887,0,0,1,.027,1.365l-.1,2.72c-.023.906-.037,1.812-.021,2.714a14.513,14.513,0,0,0,.233,2.658l-.089-.139a4.455,4.455,0,0,0,2.9.929c.263,0,.525-.027.79-.044.286.121.492-.323.679-.655.183-.36.449-.294.73-.252a2.365,2.365,0,0,1,1.007.6,1.906,1.906,0,0,1-.562,1.057c-.247.182-.511.379-.863.127-.347-.224-.679-.576-.934-.393a5.382,5.382,0,0,1-.843.062A4.958,4.958,0,0,1,56.46,65.2l-.072-.058-.017-.081a14.885,14.885,0,0,1-.246-2.764c-.016-.914,0-1.826.021-2.737l.1-2.728a7.612,7.612,0,0,1,.146-1.358C56.46,55.019,56.529,54.568,56.614,54.117Z" fill="#11120f"/>
          </g>
          <g>
            <g opacity="0.4">
              <path d="M56.614,54.117c.085.451.154.9.224,1.354a7.706,7.706,0,0,1,.146,1.358l.1,2.728c.024.911.038,1.823.022,2.737a14.885,14.885,0,0,1-.246,2.764l-.017.081-.072.058a4.959,4.959,0,0,1-3.21,1.036,5.378,5.378,0,0,1-.842-.062c-.256-.183-.587.169-.935.393-.351.252-.615.055-.862-.127a1.9,1.9,0,0,1-.562-1.057,2.36,2.36,0,0,1,1.007-.6c.28-.042.546-.108.729.252.188.332.394.776.68.655.264.017.527.046.789.044a4.458,4.458,0,0,0,2.9-.929l-.089.139a14.513,14.513,0,0,0,.233-2.658c.016-.9,0-1.808-.022-2.714l-.1-2.72a7.789,7.789,0,0,1,.027-1.365C56.541,55.03,56.57,54.573,56.614,54.117Z" fill="#11120f"/>
            </g>
            <path d="M59.991,54.526a.6.6,0,0,1-.25.41.55.55,0,0,0-.09.07l-.03.02a2.863,2.863,0,0,0-2,1.95,1.71,1.71,0,0,0-.11.14c-.2.25-.39.51-.58.78a.534.534,0,0,1-.15.15.513.513,0,0,1-.34.14.673.673,0,0,1-.59-.24,11.568,11.568,0,0,0-.97-1.01,2.646,2.646,0,0,0-2.35-1.72c-.15-.09-.3-.17-.45-.25a.546.546,0,0,1-.29-.39.508.508,0,0,1,.13-.45c2.83-3.08,5.49-3.21,7.96-.04A.548.548,0,0,1,59.991,54.526Z" fill="#11120f"/>
            <path d="M54.878,56.934a2.646,2.646,0,0,0-2.35-1.72C53.7,54.324,54.488,54.874,54.878,56.934Z" fill="#524d4c"/>
            <path d="M59.648,55c-1.25-.7-1.97.15-2.14,2.11a1.71,1.71,0,0,1,.11-.14,2.863,2.863,0,0,1,2-1.95Z" fill="#524d4c"/>
            <path d="M65.753,60.07c.02-.222.15-.259.234-.37.095-.094.194-.18.294-.266.2-.171.406-.335.613-.5.415-.322.836-.634,1.26-.942.848-.615,1.707-1.215,2.57-1.809q2.6-1.759,5.249-3.452c1.76-1.134,3.5-2.3,5.352-3.294.935-.478,1.86-.973,2.818-1.409.481-.215.963-.428,1.453-.627l.751-.265a1.682,1.682,0,0,1,.826-.135l-.052.086a6.8,6.8,0,0,0-1.321.722l-1.324.831-2.651,1.664c-1.774,1.1-3.623,2.071-5.436,3.11s-3.61,2.1-5.395,3.19c-.9.536-1.789,1.078-2.671,1.636-.441.28-.88.563-1.311.856-.216.146-.429.3-.637.451a2.374,2.374,0,0,0-.529.482Z" fill="#524d4c"/>
            <path d="M67.035,63.859a2.389,2.389,0,0,0,.71.1c.259.01.519.012.78.011.521,0,1.043-.019,1.565-.039,1.043-.041,2.086-.1,3.128-.166,2.086-.118,4.17-.266,6.252-.432s4.158-.418,6.242-.519l3.126-.133,1.563-.067a6.705,6.705,0,0,0,1.5-.154l.091.042a1.683,1.683,0,0,1-.756.357l-.769.207c-.516.114-1.034.212-1.552.308-1.037.183-2.08.3-3.12.437-2.085.232-4.184.257-6.277.321s-4.186.115-6.281.132c-1.047,0-2.095-.007-3.142-.033-.524-.013-1.048-.031-1.572-.061-.262-.015-.524-.034-.786-.062-.131-.013-.262-.028-.394-.052-.132-.044-.26,0-.4-.172Z" fill="#524d4c"/>
            <path d="M66.3,68.749c.181-.129.294-.054.433-.063.133.012.263.031.393.052.26.041.518.09.775.144.514.1,1.025.223,1.535.346,1.019.246,2.032.509,3.044.779,2.019.558,4.029,1.146,6.034,1.751s4.026,1.168,5.981,1.931c.97.4,1.947.783,2.9,1.228.476.226.951.454,1.42.7l.69.4a1.693,1.693,0,0,1,.638.54l-.1.017a6.759,6.759,0,0,0-1.407-.536l-1.492-.467-2.986-.937c-1.987-.635-3.928-1.41-5.9-2.113s-3.945-1.38-5.929-2.032c-.99-.333-1.982-.66-2.98-.969-.5-.154-1-.3-1.5-.441-.251-.069-.5-.134-.757-.191a2.372,2.372,0,0,0-.71-.089Z" fill="#524d4c"/>
            <path d="M47.081,60.64a2.429,2.429,0,0,0-.559-.447c-.218-.142-.44-.277-.665-.409-.449-.265-.905-.519-1.363-.769-.917-.5-1.843-.983-2.772-1.46q-2.776-1.453-5.59-2.834c-1.876-.92-3.784-1.772-5.625-2.753l-2.753-1.489-1.375-.743a6.778,6.778,0,0,0-1.366-.636l-.056-.082a1.687,1.687,0,0,1,.832.081l.767.216c.5.167,1,.348,1.49.532.984.373,1.94.807,2.9,1.224,1.91.869,3.724,1.923,5.554,2.941s3.654,2.047,5.461,3.1c.9.537,1.8,1.08,2.682,1.64.443.28.884.563,1.318.858.217.147.433.3.644.455.105.079.21.16.311.247.09.106.223.134.257.354Z" fill="#524d4c"/>
            <path d="M46.353,63.409c-.15.164-.276.115-.41.153-.132.017-.264.027-.395.034-.263.015-.526.022-.788.025-.525.007-1.049,0-1.573-.01-1.048-.023-2.095-.064-3.141-.111q-3.138-.171-6.268-.421c-2.088-.16-4.183-.281-6.256-.609-1.033-.183-2.069-.348-3.1-.579-.514-.119-1.026-.241-1.537-.379l-.759-.242a1.683,1.683,0,0,1-.739-.392l.093-.037a6.768,6.768,0,0,0,1.489.223l1.558.138,3.117.276c2.077.2,4.139.538,6.211.8s4.148.5,6.226.718c1.038.114,2.077.221,3.117.31.521.044,1.041.083,1.562.11.26.014.52.024.78.025a2.4,2.4,0,0,0,.713-.064Z" fill="#524d4c"/>
            <path d="M46.367,67.214a2.369,2.369,0,0,0-.715-.023c-.259.017-.519.041-.778.07-.518.057-1.035.126-1.552.2-1.033.149-2.064.316-3.1.489-2.062.333-4.12.7-6.174,1.076s-4.091.846-6.154,1.162l-3.1.456-1.547.227a6.79,6.79,0,0,0-1.474.308l-.094-.031a1.678,1.678,0,0,1,.715-.434l.744-.286c.5-.167,1.006-.318,1.511-.466,1.013-.29,2.038-.515,3.059-.757,2.05-.447,4.134-.689,6.209-.969s4.153-.547,6.234-.781c1.042-.108,2.084-.209,3.129-.292.523-.041,1.046-.077,1.57-.1.262-.013.525-.021.788-.021.132,0,.264,0,.4.012.136.03.259-.027.418.129Z" fill="#524d4c"/>
          </g>
        </g>
        <g>
          <g>
            <g>
              <g>
                <path d="M65.191,50.416c0,2.08-1.27,3.77-2.84,3.77a1.581,1.581,0,0,1-.38-.04h-.02a.847.847,0,0,1-.17-.04,1.426,1.426,0,0,1-.27-.09,2.091,2.091,0,0,1-.59-.35,4.094,4.094,0,0,1-1.41-3.25,4.322,4.322,0,0,1,.94-2.79,2.493,2.493,0,0,1,1.9-.97C63.921,46.656,65.191,48.336,65.191,50.416Z" fill="#f3f4e6"/>
                <path d="M65.2,50.416a4.816,4.816,0,0,1-.752,2.683,2.454,2.454,0,0,1-2.5,1.139l.022,0h-.035l-.188-.05.014.005a3.659,3.659,0,0,1-2.228-2.9,4.629,4.629,0,0,1,.751-3.655,2.733,2.733,0,0,1,1.606-1.068,2.352,2.352,0,0,1,1.875.442A4.231,4.231,0,0,1,65.2,50.416Zm-.025,0A3.959,3.959,0,0,0,63.635,47.2a2.247,2.247,0,0,0-1.691-.369,2.607,2.607,0,0,0-1.47.961,4.5,4.5,0,0,0-.83,3.486A3.213,3.213,0,0,0,61.8,54.019l.014,0,.152.031-.015,0h.024l.018,0a2.107,2.107,0,0,0,1.289-.2A2.889,2.889,0,0,0,64.314,53,4.243,4.243,0,0,0,65.179,50.416Z"/>
              </g>
              <ellipse cx="62.351" cy="51.801" rx="2.385" ry="1.8" transform="translate(-2.682 100.192) rotate(-76.372)"/>
            </g>
            <g>
              <path d="M51.081,50.416a3.816,3.816,0,0,1-1.99,3.6,1.309,1.309,0,0,1-.28.09,1.163,1.163,0,0,1-.18.04h-.01a1.581,1.581,0,0,1-.38.04c-1.57,0-2.84-1.69-2.84-3.77s1.27-3.76,2.84-3.76S51.081,48.336,51.081,50.416Z" fill="#f3f4e6"/>
              <path d="M51.094,50.416a5.075,5.075,0,0,1-.5,2.262,3.229,3.229,0,0,1-.707.949,2.339,2.339,0,0,1-1.051.586l.013,0-.2.043h-.027l.025,0a2.294,2.294,0,0,1-1.929-.578A3.981,3.981,0,0,1,45.618,52a4.881,4.881,0,0,1,.282-3.944,3.048,3.048,0,0,1,1.516-1.374,2.331,2.331,0,0,1,2.033.2A4.115,4.115,0,0,1,51.094,50.416Zm-.025,0a3.866,3.866,0,0,0-1.741-3.335,2.122,2.122,0,0,0-1.819-.155A2.859,2.859,0,0,0,46.1,48.17a4.665,4.665,0,0,0-.4,3.8A3.312,3.312,0,0,0,46.8,53.578a2.232,2.232,0,0,0,1.8.465l.016,0h0L48.777,54l.013,0a2.493,2.493,0,0,0,.959-.525,3.558,3.558,0,0,0,.722-.863A4.313,4.313,0,0,0,51.069,50.416Z"/>
            </g>
            <path d="M49.091,54.016a1.309,1.309,0,0,1-.28.09l-.01.01a.858.858,0,0,1-.17.03h-.01a2.225,2.225,0,0,1-2.13-1.92,2.149,2.149,0,0,1,1.19-2.74c.97-.24,2,.61,2.31,1.89A2.294,2.294,0,0,1,49.091,54.016Z"/>
          </g>
          <path d="M56.382,49.511a2.043,2.043,0,0,1-.346-1.625,1.1,1.1,0,0,1,.575-.814.974.974,0,0,1,.945.1l.022.1a5.006,5.006,0,0,1-.427.642c-.093.144-.266.144-.38.289a2.147,2.147,0,0,0-.293,1.279Z"/>
          <path d="M54.252,49.715c.077-.557-.007-1.119-.321-1.317-.152-.12-.374-.109-.545-.258a2.824,2.824,0,0,1-.616-.631l.016-.1a1.24,1.24,0,0,1,.983-.194,1.312,1.312,0,0,1,.794.691,1.439,1.439,0,0,1,.172,1.029,2.461,2.461,0,0,1-.39.816Z"/>
          <path d="M64.965,44.525a7.285,7.285,0,0,0-1.37-.755A2.305,2.305,0,0,0,62.2,43.5a.9.9,0,0,0-.533.408,1.08,1.08,0,0,1-.388.413,5.015,5.015,0,0,1-1.536.515l-.085-.053a1.819,1.819,0,0,1,.527-1.886,1.414,1.414,0,0,1,1-.353,5.714,5.714,0,0,1,1.029.156,4.28,4.28,0,0,1,1.623.632,7.53,7.53,0,0,1,1.195,1.117Z"/>
          <path d="M45.072,44.756a13.131,13.131,0,0,1,1.342-.835,12.413,12.413,0,0,1,1.524-.568c.506-.165,1.186-.636,1.866-.309a1.507,1.507,0,0,1,.932,1.745l-.086.051a13.391,13.391,0,0,0-1.407-.183c-.3-.006-.682-.494-1.193-.512a4.641,4.641,0,0,0-1.459.244,12.721,12.721,0,0,0-1.472.455Z"/>
          <path d="M69.311,40.406l-.3.16-3.55,1.92a2.434,2.434,0,0,1-2.07-1.72,3.933,3.933,0,0,1-3.24-2.7,5.334,5.334,0,0,1-.42.4,6.183,6.183,0,0,1-4.82.99c-1.53.28-2.14-.26-2.13-1.37l-.01.01a4.506,4.506,0,0,1-3.04,2.24,5.632,5.632,0,0,1-2.35-.44l-1.14-.82-.4-.28-1.41-1.02-.19-.14c.02-.04.03-.08.05-.12a12.974,12.974,0,0,0,.6-1.79c.59-2.29.16-3.98-1.56-4.92a6.108,6.108,0,0,1,4.14,3.53c2.2-4.23,1.03-6.15-2.12-6.71,5.89-.54,7.15,2.51,6.47,7.05,2.67-1.82,3.18-3.19.96-4,2.81-.36,3.94.84,2.97,3.98,4.74-5.54.63-11.24-3.93-5.81-.24-5.16,3.74-7.77,6.64-6.64,1.68.66,3,2.58,2.89,6.01,1.47.27,2.44,1.18,2.59,3.15,1.83-.49,2.68.26,2.4,2.47a2.933,2.933,0,0,1,1.9,1.43,3.837,3.837,0,0,1,.38,2.17l.02.02A3.417,3.417,0,0,1,69.311,40.406Z"/>
          <path d="M47.381,39.9a3.438,3.438,0,0,1-1.14-.82Z"/>
          <path d="M52.782,38.066v.02l-.01.01A.037.037,0,0,1,52.782,38.066Z"/>
        </g>
        <path d="M85.984,105.95a10.558,10.558,0,0,0-.542-2.445,10.2,10.2,0,0,0-1.074-2.227A15.308,15.308,0,0,0,80.8,97.72l.028-.041a14.149,14.149,0,0,1,3.869,3.367,6.878,6.878,0,0,1,1.225,2.31,5.653,5.653,0,0,1,.115,2.6Z" fill="#fff"/>
        <path d="M90.069,105.95c-.115-.859-.187-1.7-.36-2.522a13.518,13.518,0,0,0-.633-2.423,9.234,9.234,0,0,0-3.082-3.948l.029-.041a8.966,8.966,0,0,1,3.42,3.83,8.11,8.11,0,0,1,.761,2.506,8.711,8.711,0,0,1-.085,2.6Z" fill="#fff"/>
        <path d="M92.226,105.926c.406-.132.381-.632.384-1.01a7.619,7.619,0,0,0-.148-1.222c-.149-.814-.3-1.639-.523-2.448a15.345,15.345,0,0,0-.864-2.362,6.913,6.913,0,0,0-.613-1.092,1.516,1.516,0,0,0-.948-.731v-.05a1.6,1.6,0,0,1,1.067.689,7.17,7.17,0,0,1,.717,1.071,15.653,15.653,0,0,1,1.023,2.355,11.158,11.158,0,0,1,.636,2.5,6.13,6.13,0,0,1,0,1.313,2.333,2.333,0,0,1-.178.653.6.6,0,0,1-.551.386Z" fill="#fff"/>
        <path d="M27.059,105.952a5.639,5.639,0,0,1,.114-2.6,6.878,6.878,0,0,1,1.225-2.31,14.149,14.149,0,0,1,3.869-3.367l.029.041a15.293,15.293,0,0,0-3.572,3.558,10.2,10.2,0,0,0-1.074,2.227,10.557,10.557,0,0,0-.541,2.445Z" fill="#fff"/>
        <path d="M22.974,105.952a8.711,8.711,0,0,1-.085-2.6,8.108,8.108,0,0,1,.76-2.506,8.966,8.966,0,0,1,3.42-3.83l.029.041a9.242,9.242,0,0,0-3.082,3.948,13.518,13.518,0,0,0-.633,2.423c-.173.822-.245,1.663-.359,2.522Z" fill="#fff"/>
        <path d="M21.147,105.976a.6.6,0,0,1-.551-.386,2.336,2.336,0,0,1-.179-.653,6.13,6.13,0,0,1,0-1.313,11.158,11.158,0,0,1,.636-2.5,15.653,15.653,0,0,1,1.023-2.355A7.17,7.17,0,0,1,22.8,97.7a1.6,1.6,0,0,1,1.067-.689v.05a1.516,1.516,0,0,0-.948.731,7,7,0,0,0-.614,1.092,15.45,15.45,0,0,0-.864,2.362c-.224.809-.374,1.634-.522,2.448a7.622,7.622,0,0,0-.149,1.222c0,.378-.022.878.385,1.01Z" fill="#fff"/>
        <path d="M42.941,41.426a68.118,68.118,0,0,1-20.02-22.3c-2.71,4.1-7.34,7.11-13.47,9.28,4.08-8.37,7.06-16.33,8.43-23.71l6.76-2.22a328.6,328.6,0,0,1,20.25,33.25c.59-2.29.16-3.98-1.56-4.92a6.108,6.108,0,0,1,4.14,3.53c2.2-4.23,1.03-6.15-2.12-6.71,5.89-.54,7.15,2.51,6.47,7.05,2.67-1.82,3.18-3.19.96-4,2.81-.36,3.94.84,2.97,3.98,4.74-5.54.63-11.24-3.93-5.81-.24-5.16,3.74-7.77,6.64-6.64l1.27,16.26a6.183,6.183,0,0,1-4.82.99c-1.53.28-2.14-.26-2.13-1.37l-.01.01a4.506,4.506,0,0,1-3.04,2.24,5.632,5.632,0,0,1-2.35-.44,3.438,3.438,0,0,1-1.14-.82l-.4-.28-.57.51-.66.61-1.02.93h-.01Z" fill="#666667" opacity="0.14" style="mix-blend-mode: multiply"/>
        <path d="M48.241,46.656c1.57,0,2.84,1.68,2.84,3.76a3.816,3.816,0,0,1-1.99,3.6,1.309,1.309,0,0,1-.28.09l-.01.01a.858.858,0,0,1-.17.03h-.01a1.581,1.581,0,0,1-.38.04c-1.57,0-2.84-1.69-2.84-3.77S46.671,46.656,48.241,46.656Z" fill="#666667" opacity="0.14" style="mix-blend-mode: multiply"/>
        <path d="M59.511,50.416a4.322,4.322,0,0,1,.94-2.79c-.345,2.052-.424,3.539.26,3.4l.19,2.45.02.19A4.094,4.094,0,0,1,59.511,50.416Z" fill="#666667" opacity="0.14" style="mix-blend-mode: multiply"/>
        <path d="M64.661,101.616a11.379,11.379,0,0,1-8.49,1.34,16.07,16.07,0,0,0-4.12-.89,15.5,15.5,0,0,1-1.8.09,1.594,1.594,0,0,1-1.43-.93,4.854,4.854,0,0,1-5.67-3.32.853.853,0,0,1-.72-1.21,4.834,4.834,0,0,1-2.92-7.4,3.8,3.8,0,0,1,.83-6.4,3.853,3.853,0,0,1,2.52-6.54c-1.19-1.13-.63-3.29.67-4.28a6.828,6.828,0,0,1,3.51-1.16,10.454,10.454,0,0,1-3.65-3.62,7.169,7.169,0,0,1-.99-3.6,2.62,2.62,0,0,1,.01-.28,7.542,7.542,0,0,1,1.94-4.66,13.672,13.672,0,0,1,7.44-4.18.508.508,0,0,1,.13-.45c2.83-3.08,5.49-3.21,7.96-.04a.548.548,0,0,1,.11.44c.34.07.68.16,1.01.25-2.834,5.023-.747,18.03,1.36,17.39C58.331,83.418,60.37,92.854,64.661,101.616Z" fill="#666667" opacity="0.14" style="mix-blend-mode: multiply"/>
        <g opacity="0.14" style="mix-blend-mode: multiply">
          <path d="M88.284,85.977c.011.01-.352.164-.341.174s.328-.306.339-.3-.289.342-.278.353.336-.3.347-.286-.3.334-.288.345.344-.287.354-.276-.307.326-.3.337.352-.277.362-.266-.316.317-.307.329.36-.268.37-.257-.325.309-.316.32.367-.258.376-.246-.333.3-.324.312.374-.249.383-.237-.341.291-.332.3.379-.238.388-.226-.348.282-.34.294.386-.229.394-.217-.355.274-.347.287.391-.22.4-.208-.361.266-.353.278.4-.21.4-.2-.368.257-.36.27.4-.2.408-.189-.373.249-.366.262.405-.193.412-.18-.378.24-.371.253.409-.183.416-.17-.384.232-.377.245.413-.174.419-.161-.388.224-.382.237.417-.166.423-.153-.393.216-.386.23.419-.158.425-.145-.4.209-.391.222.423-.15.429-.136-.4.2-.395.215.425-.142.431-.129-.405.194-.4.207.427-.135.433-.121-.408.186-.4.2.43-.128.435-.114-.411.18-.406.194.432-.121.437-.107-.414.173-.409.187.434-.114.438-.1-.416.167-.412.181.436-.107.44-.093-.418.16-.414.175.437-.1.441-.087-.421.154-.417.169.439-.094.443-.08-.423.148-.419.163.439-.089.443-.074-.425.143-.421.157.441-.082.444-.068-.426.137-.423.152.442-.077.446-.062-.429.132-.426.146.443-.071.447-.056-.43.127-.427.141.443-.066.446-.051-.431.122-.428.137.444-.061.447-.046-.433.116-.43.131.445-.056.448-.042-.434.112-.431.127.445-.052.448-.037-.435.108-.433.123.446-.047.449-.033-.437.1-.434.119.446-.043.449-.028-.438.1-.435.114.447-.038.449-.023-.438.1-.436.111.447-.034.449-.019-.439.091-.437.106.448-.03.45-.015-.44.088-.438.1.448-.027.45-.012-.441.085-.439.1.448-.022.45-.007-.441.08-.44.095.448-.019.45,0-.442.078-.44.093.448-.015.45,0-.442.074-.441.09.448-.013.45,0-.443.071-.442.087.449-.009.45.006-.443.069-.442.084.449,0,.45.01-.444.066-.442.082.448,0,.449.013-.444.063-.443.078.449,0,.45.017-.445.06-.444.076.449,0,.45.02-.44,0-.439.013.382.2.376.209-.363-.262-.369-.254.335.3.328.305-.357-.27-.363-.263.328.305.322.312-.352-.277-.358-.269.322.311.315.318-.345-.284-.352-.277.316.317.309.325-.34-.292-.347-.284.31.323.3.33-.334-.3-.341-.29.3.329.3.336-.329-.3-.336-.3.3.335.29.342-.323-.311-.33-.3.29.341.283.348-.316-.317-.324-.31.284.346.277.353-.311-.323-.318-.316.277.351.27.358-.3-.328-.313-.322.271.357.264.363-.3-.334-.307-.327.265.361.257.367-.292-.339-.3-.333.258.366.25.372-.287-.344-.295-.338.252.371.244.377-.28-.349-.289-.343.246.374.238.38-.275-.354-.283-.348.239.379.231.384-.269-.358-.277-.352.233.382.225.388-.263-.363-.272-.357.227.386.219.391-.257-.366-.266-.361.221.39.212.4-.251-.37-.26-.365.215.393.207.4-.246-.374-.255-.369.209.4.2.4-.24-.378-.249-.373.2.4.195.4-.235-.381-.244-.376.2.4.188.407-.229-.385-.238-.38.192.405.183.409-.224-.388-.233-.383.186.408.177.412-.218-.391-.227-.387.18.411.171.415-.213-.394-.222-.39.174.413.165.417-.208-.4-.217-.392.169.414.16.419-.2-.4-.211-.4.163.417.154.421-.2-.4-.207-.4.158.419.149.423-.192-.4-.2-.4.152.422.143.425-.187-.407-.2-.4.147.423.138.427-.182-.41-.191-.406.142.425.133.428-.177-.411-.187-.408.137.427.128.43-.172-.413-.181-.41.132.428.122.432-.167-.416-.176-.413.127.43.117.433-.162-.417-.172-.414.122.431.113.434-.158-.419-.167-.416.117.432.107.435-.153-.421-.162-.418.112.434.1.437-.149-.423-.158-.42.107.435.1.438-.144-.424-.154-.422.1.436.093.439-.139-.426-.148-.423.1.437.088.44-.135-.427-.144-.425.093.438.084.441-.131-.429-.14-.426.089.438.079.441-.126-.43-.135-.428.085.44.075.443-.122-.431-.131-.429.08.44.07.443-.117-.433-.127-.43.076.441.067.443-.113-.433-.123-.431.072.442.062.444-.109-.435-.118-.433.068.443.058.445-.1-.436-.109-.435.075.442.068.443-.1-.436-.108-.435.072.442.065.444-.1-.437-.105-.436.069.442.062.444-.095-.438-.1-.436.066.442.06.444-.093-.438-.1-.437.064.443.057.444-.091-.438-.1-.437.062.443.055.445-.088-.439-.095-.438.059.444.052.445-.085-.44-.092-.439.056.445.049.446-.083-.44-.09-.439.054.444.047.445-.08-.44-.087-.439.051.445.044.446-.078-.441-.085-.44.049.445.042.446-.075-.442-.082-.441.045.446.038.447-.072-.442-.079-.441.043.445.036.446-.069-.442-.076-.441.04.446.033.447-.067-.443-.074-.442.038.446.031.447-.065-.443-.072-.443.036.447.029.447-.062-.443-.069-.442.032.446.025.447-.059-.444-.066-.443.03.447.023.447-.057-.444-.064-.443.028.447.021.447-.054-.444-.061-.443.024.447.017.447-.051-.444-.058-.444.022.447.015.448-.049-.445-.056-.445.02.448.013.448-.046-.445-.053-.445.016.448.009.448-.043-.445-.05-.445.014.448.007.448-.041-.446-.048-.445.011.447,0,.447-.038-.445-.045-.445.009.447,0,.448-.036-.446-.043-.446.007.448,0,.448-.034-.447-.041-.446,0,.447,0,.448-.03-.447-.037-.447,0,.448-.006.448-.028-.447-.035-.446,0,.447-.009.447-.025-.446-.032-.446,0,.447-.011.447-.023-.447-.03-.446-.007.447-.014.447-.02-.447-.027-.447-.009.448-.016.448-.018-.447-.025-.447-.012.447-.019.447-.015-.447-.022-.447-.014.447-.021.447-.013-.447-.02-.447-.017.447-.024.447-.01-.448-.017-.448-.019.447-.026.447-.008-.447-.015-.447-.022.447-.029.447,0-.448-.012-.448-.024.447-.031.447,0-.448-.01-.448-.027.447-.034.446,0-.447-.007-.447-.029.446-.036.446,0-.448,0-.448-.033.447-.04.446.006-.447,0-.448-.036.447-.043.446.009-.447,0-.448-.038.446-.045.446.011-.447,0-.448-.041.446-.048.446.014-.448.007-.448-.043.445-.05.445.016-.448.009-.448-.046.445-.053.445.019-.447.012-.448-.048.445-.055.445.021-.448.014-.448-.051.445-.058.444.052-.443.045-.443-.119.43-.124.429.128-.429.123-.43-.137.425-.142.424.128-.429.123-.43-.138.425-.143.424.127-.429.122-.431-.138.426-.143.424.128-.429.123-.43-.139.425-.144.424.128-.429.122-.431-.138.426-.143.424.127-.429.122-.43-.138.425-.144.423.128-.428.123-.43-.139.425-.144.424.128-.429.122-.431-.138.426-.143.424.127-.429.122-.43-.138.425-.143.424.127-.429.122-.431-.138.426-.143.424.128-.429.122-.43-.138.425-.143.424.128-.429.123-.431-.138.426-.144.424.128-.429.123-.43-.138.425-.143.424.128-.429.123-.431-.139.426-.144.424.128-.428.123-.43-.138.426-.143.424.128-.429.123-.43-.138.425-.143.424.128-.429.122-.431-.138.426-.143.424.128-.428.123-.43l-.137.426.129-.429-.138.426.129-.428-.138.425.128-.428-.138.425.128-.429-.138.426.127-.429-.138.426.127-.429-.139.425.127-.429-.139.425.126-.429-.14.425.127-.429-.14.425.125-.43-.14.425.125-.43s-.137.426-.141.425.129-.428.124-.43-.137.426-.141.425.128-.429.124-.43-.138.426-.142.424.128-.429.123-.43-.138.426-.143.424.128-.429.123-.43-.139.425-.144.424.127-.429.122-.431-.139.425-.145.423.127-.429.121-.43-.139.425-.145.423.126-.429.12-.431-.14.425-.147.423.126-.43.119-.432-.14.425-.147.423.125-.43.118-.432-.141.425-.149.422.125-.429.118-.432-.141.425-.149.423.126-.43.118-.432-.14.425-.148.422.126-.429.118-.432-.14.425-.147.423.125-.429.118-.432-.14.425-.148.423.126-.43.118-.432-.14.425-.147.423.125-.43.118-.432-.138.425-.144.424.128-.429.122-.431-.14.425-.146.423.125-.429.118-.432-.142.425-.151.422.124-.43.115-.433-.142.424-.151.422.124-.43.115-.433-.141.425-.148.422.122-.43.111-.434-.3.283-.3.272c0-.075.431-.224.428-.3s-.454-.128-.458-.2.44-.171.436-.246-.455-.124-.459-.2.438-.174.434-.248-.456-.122-.46-.2.437-.177.432-.251-.456-.118-.461-.192.436-.179.43-.253-.457-.115-.462-.189.435-.182.429-.256-.458-.112-.464-.186.434-.185.427-.258-.458-.109-.465-.183.433-.187.426-.261-.459-.106-.466-.179.432-.191.424-.265-.459-.1-.467-.177.43-.193.423-.267-.461-.1-.469-.174.429-.2.421-.269-.46-.1-.469-.171.428-.2.42-.27-.462-.095-.47-.168.427-.2.418-.273-.462-.092-.471-.165.426-.2.416-.275-.462-.089-.471-.162.424-.2.415-.277-.463-.086-.473-.159.424-.206.414-.278-.463-.085-.473-.158.423-.207.413-.279-.464-.083-.474-.155.422-.209.412-.281-.464-.081-.475-.153.421-.211.41-.283-.464-.078-.475-.151.421-.211.41-.284-.464-.076-.476-.149.42-.213.409-.285-.465-.075-.476-.147.419-.214.407-.287-.464-.073-.476-.145.418-.216.407-.288-.465-.072-.477-.144.418-.217.406-.289-.465-.071-.477-.143.417-.217.4-.289-.465-.071-.477-.143.417-.218.405-.29-.466-.069-.478-.141.417-.219.405-.291-.466-.069-.478-.141.416-.219.4-.291-.466-.068-.478-.14.416-.22.4-.292-.466-.068-.478-.14.416-.22.4-.292-.466-.068-.478-.14.416-.22.4-.292-.466-.068-.478-.14.416-.22.4-.293-.466-.067-.478-.139.416-.221.4-.293-.466-.068-.478-.14.416-.22.4-.293-.466-.068-.478-.14.416-.22.4-.293-.465-.067-.478-.138.416-.219.4-.291-.465-.068-.478-.14.417-.219.4-.291-.465-.068-.478-.14.417-.219.405-.291-.466-.069-.478-.141.417-.219.405-.291-.466-.07-.478-.142.417-.219.405-.291-.466-.071-.478-.144.418-.218.406-.29-.466-.072-.478-.145.418-.218.406-.291-.465-.073-.477-.146.418-.217.406-.29-.465-.074-.477-.147.418-.216.407-.288-.465-.075-.477-.148.419-.215.407-.288-.465-.076-.476-.149.419-.216.408-.289-.465-.078-.477-.151.42-.216.408-.289-.464-.079-.475-.152.419-.214.408-.288-.464-.081-.476-.155.421-.215.409-.29-.464-.084-.476-.159.422-.162.411-.237c.019-.007-.258-.247-.239-.254s.186.409.2.4-.1-.437-.085-.443.179.412.2.405-.1-.438-.078-.444.172.414.192.408-.091-.44-.071-.446.165.418.185.412-.083-.441-.064-.447.158.421.178.415-.075-.443-.055-.448.15.423.17.419-.067-.445-.047-.45.142.426.162.422-.059-.446-.039-.45.134.429.154.425-.05-.447-.03-.451.125.431.145.428-.04-.448-.02-.451.115.434.135.43-.03-.448-.01-.451.106.436.126.434-.02-.449,0-.452.095.439.115.437-.009-.45.011-.452.085.441.105.439,0-.449.022-.451.073.444.093.442.013-.449.034-.45.061.445.081.444.026-.449.046-.449.049.446.069.446.038-.448.058-.448.037.448.057.448.051-.447.071-.446.024.448.044.449.064-.444.085-.443.01.449.03.45.078-.442.1-.44,0,.449.016.451.092-.44.112-.438-.019.449,0,.452.106-.437.126-.434-.034.448-.014.451.12-.432.14-.429-.049.447-.029.451.135-.429.154-.424-.064.444-.045.449.15-.424.17-.419-.081.442-.061.448.164-.418.183-.413-.095.439-.076.445.179-.412.2-.405-.112.435-.093.441.194-.405.213-.4-.127.431-.109.438.209-.4.227-.39-.143.426-.125.434.223-.39.241-.382-.158.421-.14.429.237-.382.254-.373-.173.415-.155.424.25-.373.267-.363-.187.407-.17.417.263-.364.28-.354-.2.4-.186.412.276-.355.292-.344-.216.393-.2.4.287-.345.3-.334-.229.387-.213.4.3-.336.314-.324-.241.379-.225.391.309-.326.324-.314-.253.371-.238.384.32-.316.335-.3-.265.362-.25.376.329-.306.343-.293-.275.355-.261.368.338-.3.353-.282-.286.346-.272.36.346-.286.36-.271-.3.338-.281.352.354-.276.367-.262-.3.33-.292.345.362-.267.375-.252-.313.321-.3.337.369-.258.381-.242-.321.314-.308.329.375-.248.387-.232-.329.306-.316.322.38-.239.392-.223-.336.3-.324.314.386-.23.4-.213-.342.291-.331.307.392-.22.4-.2-.348.284-.337.3.4-.211.408-.194-.354.277-.343.294.373-.239.384-.221-.246.363-.233.37.245-.375.258-.368-.2.4-.187.409.252-.371.264-.363-.206.4-.194.405.259-.366.272-.358-.215.394-.2.4.266-.361.278-.353-.222.39-.209.4.272-.356.284-.348-.228.386-.216.394.278-.351.29-.343-.234.382-.222.391.284-.347.3-.339-.241.379-.229.387.29-.342.3-.333-.246.374-.235.383.3-.337.307-.328-.252.37-.241.379.3-.333.312-.324-.258.367-.247.376.306-.328.317-.319-.263.363-.252.372.31-.324.321-.314-.268.359-.257.368.315-.319.326-.309-.274.355-.263.365.319-.315.33-.306-.278.352-.267.362.323-.311.334-.3-.283.348-.272.358.327-.307.338-.3-.287.344-.277.354.332-.3.342-.292-.291.34-.281.351.335-.3.346-.288-.3.337-.286.347.339-.293.349-.283-.3.333-.29.343.342-.289.352-.279-.3.33-.294.34.346-.286.356-.275-.308.326-.3.337.349-.282.358-.271-.311.322-.3.333.352-.278.362-.267-.315.319-.306.33.356-.273.365-.262-.318.315-.309.326.358-.269.368-.258-.322.312-.313.323.362-.266.371-.255-.325.309-.316.32.364-.262.373-.25-.328.3-.319.316.367-.258.376-.246-.331.3-.322.313.369-.254.378-.243-.334.3-.325.31.372-.25.381-.238-.338.3-.329.307.375-.247.383-.235-.34.291-.331.3.377-.242.386-.231-.344.289-.335.3.379-.239.387-.227-.346.285-.337.3.381-.236.39-.224-.349.282-.341.294.384-.232.393-.22-.352.278-.344.291.386-.228.395-.216-.354.275-.346.287.388-.224.4-.212-.356.272-.348.284.39-.221.4-.208-.359.268-.351.28.392-.216.4-.2-.361.265-.353.278.394-.214.4-.2-.364.262-.356.274.4-.21.4-.2-.367.258-.359.271.4-.206.406-.193-.369.255-.361.267.4-.2.408-.189-.371.252-.364.265.4-.2.41-.186-.373.248-.366.261.4-.195.411-.182-.375.246-.368.259.406-.192.413-.178-.377.242-.37.255.407-.188.414-.175-.379.239-.372.253.409-.184.416-.171-.381.235-.374.249.41-.181.417-.167-.383.233-.376.246l.359-.258-.322.311.326-.308-.328.305.331-.3-.333.3.336-.3-.338.292.341-.289-.343.287.346-.283-.348.281.351-.277-.352.275.355-.272-.357.27.36-.266-.361.264.363-.261-.365.259.368-.255-.369.253.371-.249-.372.247.375-.244-.377.242.379-.238-.38.237.382-.234-.383.232.385-.228-.386.226.388-.222-.389.22.391-.217-.392.215.394-.211-.395.21.4-.206-.4.2.4-.2-.4.2.4-.195-.4.193.405-.189-.406.188.408-.184-.409.182.41-.178-.411.176.413-.172-.413.17.415-.166-.416.165.417-.161-.418.159.42-.155-.421.153.422-.149-.422.147.424-.143-.425.141.426-.137-.427.135.428-.13-.428.128.43-.124-.431.122.432-.118-.432.116.433-.111-.434.108.435-.1-.435.1.436-.1-.437.095.438-.09-.438.087.439-.082-.44.08.441-.075-.441.072.442-.068-.443.066.444-.06-.444.057.444-.052-.444.049.445-.044-.446.041.446-.036-.446.033.447-.027-.447.024.447-.019-.447.016.447-.01-.447.007.423-.1c.011.02-.38.24-.37.26s.421-.158.431-.138-.383.236-.373.256.423-.152.433-.132-.387.23-.377.251.425-.147.434-.126-.389.225-.38.245.427-.14.436-.12-.392.22-.383.241.429-.135.438-.114-.4.214-.387.235.431-.129.44-.108-.4.209-.39.23.433-.123.441-.1-.4.2-.393.224.434-.117.442-.1-.4.2-.395.22.435-.111.443-.09-.406.192-.4.214.438-.1.445-.084-.409.187-.4.208.439-.1.446-.077-.411.181-.4.2.44-.093.447-.072-.414.176-.408.2.442-.086.448-.065-.416.17-.41.192.443-.081.449-.059-.419.164-.413.186.444-.074.45-.053-.421.158-.415.18.444-.068.45-.046-.423.152-.418.174.446-.061.451-.039-.425.146-.42.168.446-.055.451-.033-.427.139-.423.161.448-.048.452-.026-.429.134-.425.156.448-.042.452-.02-.431.127-.427.149.448-.035.452-.012-.433.12-.429.142.449-.028.452-.006-.434.114-.431.137.449-.022.452,0-.436.107-.433.129.449-.014.452.008-.438.1-.435.123.449-.007.452.015-.44.093-.437.116.449,0,.451.022-.441.086-.439.109.45.007.452.03-.443.079-.441.1.449.015.451.037-.444.072-.443.095.449.022.45.044-.445.065-.444.087.449.03.45.052-.446.057-.446.08.449.037.449.06-.447.049-.447.071.448.045.447.068-.447.041-.448.064.447.053.447.075-.449.033-.449.056.445.061.444.083-.449.026-.45.048.445.069.443.092-.449.017-.45.039.443.077.441.1-.449.008-.451.031.441.085.439.108-.449,0-.452.022.44.094.438.116-.45-.008-.453.015.438.1.436.124-.45-.017-.453,0,.436.111.433.133-.449-.026-.453,0,.434.118.43.141-.448-.035-.452-.012.431.127.427.149-.447-.043-.452-.021.429.136.424.158-.446-.052-.451-.03.425.144.42.166-.445-.061-.45-.039.422.153.417.175-.444-.071-.45-.049.42.162.414.184-.443-.08-.449-.058.416.17.409.192-.44-.089-.447-.067.412.179.405.2-.438-.1-.446-.076.409.188.4.209-.449-.022-.457,0c.009.018.442-.074.45-.056s-.383.234-.374.252.421-.157.429-.139-.389.224-.38.242.424-.147.432-.129-.395.214-.387.232.429-.135.436-.116-.4.2-.394.22.433-.122.439-.1-.406.19-.4.209.436-.109.442-.091-.412.177-.406.2.439-.095.444-.077-.418.164-.412.183.442-.081.447-.062-.424.149-.419.168.444-.066.449-.047-.429.134-.425.153.447-.05.451-.031-.433.119-.43.138.448-.034.451-.014-.437.1-.435.121.449-.017.452,0-.441.086-.439.105.449,0,.451.02-.444.068-.443.087.449.018.45.037-.446.051-.446.07.448.035.448.054-.448.034-.448.053.446.053.445.072-.448.015-.45.034.444.071.442.09-.448,0-.45.016.44.088.438.107-.449-.021-.451,0,.437.105.433.124-.447-.038-.45-.019.432.122.428.141-.445-.055-.449-.037.427.138.423.157-.443-.072-.448-.053.422.153.417.171-.44-.087-.446-.069.417.168.411.186-.437-.1-.443-.084.411.182.405.2-.434-.118-.44-.1.4.195.4.213-.429-.131-.436-.113.4.208.391.225-.426-.144-.433-.126.392.219.384.236-.421-.156-.43-.139.386.231.378.248-.417-.168-.425-.151.379.241.37.257-.412-.178-.421-.161.373.25.364.266-.408-.188-.417-.172.367.259.358.275-.4-.2-.413-.181.361.266.351.282-.4-.206-.409-.19.356.274.346.29-.395-.214-.405-.2.35.281.34.3-.391-.221-.4-.206.346.287.335.3-.387-.228-.4-.213.341.293.329.308-.383-.234-.394-.218.336.3.324.313-.379-.24-.391-.225.332.3.32.318-.376-.245-.387-.23.327.307.315.322-.373-.25-.385-.235.324.311.312.326-.37-.255-.382-.24.32.315.307.33-.367-.258-.379-.244.316.319.3.334-.365-.262-.377-.248.313.322.3.336-.363-.265-.375-.251.31.324.3.339-.36-.268-.373-.254.308.327.3.341-.358-.271-.371-.256.305.329.292.343-.356-.273-.369-.258.3.331.29.345-.355-.275-.368-.261.3.333.288.347-.354-.276-.367-.262.3.334.287.348-.353-.278-.366-.264S88.3,85.963,88.284,85.977Z" fill="#666667"/>
        </g>
        <circle cx="64.07" cy="58.983" r="0.348"/>
        <circle cx="62.871" cy="59.953" r="0.348"/>
        <circle cx="63.722" cy="57.796" r="0.348"/>
        <circle cx="65.449" cy="58.983" r="0.348"/>
        <circle cx="65.797" cy="63.696" r="0.348"/>
        <circle cx="66.343" cy="66.417" r="0.348"/>
        <circle cx="65.797" cy="67.253" r="0.348"/>
        <circle cx="64.844" cy="64.044" r="0.348"/>
        <circle cx="65.191" cy="60.656" r="0.348"/>
        <circle cx="64.661" cy="61.61" r="0.348"/>
        <circle cx="66.987" cy="61.372" r="0.348"/>
        <circle cx="67.619" cy="65.649" r="0.348"/>
        <circle cx="67.966" cy="62.063" r="0.348"/>
        <circle cx="49.493" cy="58.983" r="0.348"/>
        <circle cx="50.692" cy="59.953" r="0.348"/>
        <circle cx="49.841" cy="57.796" r="0.348"/>
        <circle cx="48.114" cy="58.983" r="0.348"/>
        <circle cx="47.418" cy="57.796" r="0.348"/>
        <circle cx="47.766" cy="63.696" r="0.348"/>
        <circle cx="47.22" cy="66.417" r="0.348"/>
        <circle cx="46.228" cy="68.683" r="0.348"/>
        <circle cx="48.719" cy="64.044" r="0.348"/>
        <circle cx="48.371" cy="60.656" r="0.348"/>
        <circle cx="48.901" cy="61.61" r="0.348"/>
        <circle cx="46.576" cy="61.372" r="0.348"/>
        <circle cx="45.271" cy="59.605" r="0.348"/>
        <circle cx="44.748" cy="62.478" r="0.348"/>
        <circle cx="45.944" cy="65.649" r="0.348"/>
        <circle cx="44.4" cy="64.883" r="0.348"/>
      </g>
    </g>
  </g>
</svg>
