<svg xmlns="http://www.w3.org/2000/svg" width="112.892" height="112.892" viewBox="0 0 112.892 112.892">
  <title>Asset 12owl</title>
  <g style="isolation: isolate">
    <g>
      <rect x="0.125" y="0.125" width="112.642" height="112.642" rx="8.069" fill="#e2e3e8" stroke="#f9fcff" stroke-miterlimit="10" stroke-width="0.25"/>
      <g>
        <g>
          <g>
            <path d="M71.875,98.687h3.79A33.818,33.818,0,0,0,77.56,86.561h-7.2C71.9,91.308,72.649,95.516,71.875,98.687Z"/>
            <path d="M45.35,86.56c-.4,1.24-.75,2.44-1.03,3.59-.13.55-.25,1.09-.35,1.62a19.123,19.123,0,0,0-.4,5.08,10.726,10.726,0,0,0,.27,1.84H40.05a35.121,35.121,0,0,1-1.32-4.97,30.143,30.143,0,0,1-.51-3.75c-.05-.72-.08-1.44-.08-2.16-.01-.41,0-.83.01-1.25Z"/>
          </g>
          <path d="M84.25,83.97a50.988,50.988,0,0,1-6.69,4.37,43.37,43.37,0,0,1-5.97,2.7c-.49.18-.97.35-1.46.51-8.34,2.69-17.08,2.64-26.16.22-1.9-.49-3.82-1.1-5.75-1.8a87.012,87.012,0,0,1-12.83-6c.57-2.14,1.16-4.26,1.76-6.38q1.56-5.415,3.27-10.74c.29-.89.57-1.77.87-2.65.42-1.29.86-2.57,1.3-3.85q1.065-3.09,2.2-6.14V54.2q2.505-6.81,5.34-13.43c.05-.12.1-.24.16-.36q1.005-2.385,2.07-4.72c.13-.3.27-.6.41-.9.56-1.23,1.12-2.45,1.71-3.67.04-.09.08-.18.13-.27a1.472,1.472,0,0,1,.1-.22c.25-.54.51-1.08.77-1.61.17-.04.34-.08.51-.11a59.812,59.812,0,0,1,10.67-1.37c.05,0,.11-.01.17-.01h.03c.84-.03,1.68-.05,2.52-.04h.11c.63,0,1.27.02,1.91.04a68.478,68.478,0,0,1,8.71.86c.38.78.75,1.57,1.1,2.37a.8.8,0,0,1,.11.23.818.818,0,0,1,.09.19c.49,1.07.96,2.15,1.42,3.24.94,2.25,1.83,4.55,2.65,6.89l.12.33q2.265,6.42,3.95,13.28c.09.34.17.68.25,1.02q1.08,4.44,1.92,9.05a1.062,1.062,0,0,1,.04.19c.05.3.11.61.16.92q1.11,6.165,1.8,12.62a.375.375,0,0,0,.01.11q.09.66.15,1.32C84.02,81.41,84.14,82.69,84.25,83.97Z"/>
          <g>
            <path d="M84.854,99.21c1.547-7.1-13.112-7.769-13.4-.38a.341.341,0,0,0,.318.346l12.083.79A.961.961,0,0,0,84.854,99.21Z"/>
            <path d="M44.07,98.83a.356.356,0,0,1-.32.35l-12.08.79a.972.972,0,0,1-1-.76c-.93-4.24,3.94-6.19,8.06-5.49a6.346,6.346,0,0,1,4.84,3.13A4.671,4.671,0,0,1,44.07,98.83Z"/>
          </g>
        </g>
        <path d="M42.86,34.83c-.17.28-.33.57-.5.86-.65,1.16-1.31,2.42-1.94,3.77-.07.13-.13.25-.19.38A109.967,109.967,0,0,0,34.79,54.2v.01c-.2.64-.39,1.28-.58,1.92-.74,2.56-1.42,5.16-2,7.75A91.8,91.8,0,0,0,29.9,80.19a5.25,5.25,0,0,1-3.05-6.33c-2.19-14.63.95-27.05,10.68-36.74a3.725,3.725,0,0,1,2.87-2.63,3.335,3.335,0,0,1,1.22-.05c.05.01.09.01.14.02a3.515,3.515,0,0,1,1.01.33A.355.355,0,0,1,42.86,34.83Z"/>
        <path d="M70.829,34.829h0a3.757,3.757,0,0,1,5.335,2.288c9.723,9.7,12.867,22.116,10.673,36.745a5.26,5.26,0,0,1-3.043,6.328h0C83.279,65.913,77.129,45.434,70.829,34.829Z"/>
        <path d="M69.54,90.1c-7.572,3.7-16.2,3.044-25.4,0A9.043,9.043,0,0,1,35.1,81.051V60.439A21.742,21.742,0,0,1,56.842,38.7h0A21.743,21.743,0,0,1,78.584,60.439V81.051A9.044,9.044,0,0,1,69.54,90.1Z" fill="#ffe2c4"/>
        <path d="M77.051,38.642l0,0-4.4-10.247a57.962,57.962,0,0,0-14.821-.786v21.5l.024-.013a12.194,12.194,0,1,0,19.19-10.455Z"/>
        <path d="M73.12,29.45c-.46.5-.97,1.02-1.52,1.56-.04.03-.07.06-.11.09a.6.6,0,0,1-.08.08,1.593,1.593,0,0,1-.13.13l-2.8-.62-.09-.02-2.12-.46-4.63-1.02-3.66-.81,1.38-.88.02-.01,1.76-1.12c.03-.01.06-.01.09-.02,10.14-1.76,13.06-6.67,11.71-13.43C78.01,17.02,79.97,21.99,73.12,29.45Z"/>
        <path d="M60.829,61.757a10.282,10.282,0,0,0,4.54.985,12.861,12.861,0,0,0,2.28-.352c.759-.153,1.493-.4,2.26-.633l.023.045a7.2,7.2,0,0,1-2.155,1.071,7.364,7.364,0,0,1-2.408.269,9.789,9.789,0,0,1-4.563-1.34Z"/>
        <polygon points="63.798 59.09 57.837 65.5 57.861 49.097 63.798 59.09" fill="#716558"/>
        <path d="M57.98,28.38l-.14.03L47.37,30.72l-.08.02-2.61.57c-.07-.06-.13-.13-.2-.19a1.593,1.593,0,0,1-.13-.13.943.943,0,0,1-.1-.1c-.58-.56-1.12-1.11-1.6-1.65-6.64-7.34-4.66-12.26.36-16.32-1.35,6.78,1.59,11.7,11.8,13.45l1.81,1.15.04.02,1.18.75Z"/>
        <g>
          <ellipse cx="69.719" cy="43.142" rx="5.921" ry="12.789" fill="#fff" stroke="#000" stroke-miterlimit="10" stroke-width="0.25"/>
          <ellipse cx="69.766" cy="43.142" rx="2.084" ry="2.937"/>
          <g>
            <path d="M63.8,43.994c0-17.715,11.368-18.378,11.842,0C71.714,41.2,67.766,41.23,63.8,43.994Z"/>
            <path d="M63.792,44.006a27.231,27.231,0,0,1,.881-7.916,12.053,12.053,0,0,1,1.662-3.633,4.259,4.259,0,0,1,3.305-2.046,3.152,3.152,0,0,1,1.869.67A5.666,5.666,0,0,1,72.9,32.507a13,13,0,0,1,1.7,3.605,29.382,29.382,0,0,1,1.163,7.879l.009.241-.2-.14a10.416,10.416,0,0,0-5.848-2.082A10.814,10.814,0,0,0,63.792,44.006Zm.012-.023a10.349,10.349,0,0,1,5.918-2.171A10.1,10.1,0,0,1,75.709,43.9l-.188.1a31.894,31.894,0,0,0-1.085-7.836,12.515,12.515,0,0,0-1.619-3.594A4.049,4.049,0,0,0,69.64,30.52a4.131,4.131,0,0,0-3.161,2.039,13.318,13.318,0,0,0-1.605,3.589A31.247,31.247,0,0,0,63.8,43.983Z" fill="#fff"/>
          </g>
          <g>
            <path d="M63.8,46.647c0,12.013,11.368,12.462,11.842,0A13.112,13.112,0,0,1,63.8,46.647Z"/>
            <path d="M63.805,46.658A13.84,13.84,0,0,0,65.1,52.445a7.322,7.322,0,0,0,1.823,2.311,4.458,4.458,0,0,0,2.724,1,4.357,4.357,0,0,0,2.746-.99,6.994,6.994,0,0,0,1.83-2.331,14.552,14.552,0,0,0,1.3-5.792l.167.109a13.3,13.3,0,0,1-5.971,1.419A13.5,13.5,0,0,1,63.805,46.658Zm-.014-.021a14.514,14.514,0,0,0,5.93,1.312,13.784,13.784,0,0,0,5.869-1.407l.175-.085-.008.2A13.787,13.787,0,0,1,74.343,52.5a7.106,7.106,0,0,1-1.9,2.335,4.651,4.651,0,0,1-2.8,1.053,4.6,4.6,0,0,1-2.842-.979,6.6,6.6,0,0,1-1.885-2.37A12.589,12.589,0,0,1,63.791,46.637Z" fill="#fff"/>
          </g>
        </g>
        <path d="M57.84,27.61v21.5l-.03-.01a12.182,12.182,0,0,1-22.17,6.5,10.439,10.439,0,0,1-.85-1.4,11.869,11.869,0,0,1-1.15-3.4,12.17,12.17,0,0,1,4.98-12.16l1.78-4.15,2.25-5.25.37-.85a59.8,59.8,0,0,1,13.6-.87,1.477,1.477,0,0,1,.21.01h.03C57.19,27.55,57.51,27.58,57.84,27.61Z"/>
        <polygon points="51.876 59.09 57.837 65.5 57.813 49.097 51.876 59.09" fill="#716558"/>
        <path d="M53.435,42.538a10.283,10.283,0,0,0,4.541.985,12.889,12.889,0,0,0,2.28-.352c.758-.152,1.493-.4,2.26-.633l.022.045a7.2,7.2,0,0,1-2.155,1.072,7.357,7.357,0,0,1-2.407.268,9.786,9.786,0,0,1-4.563-1.34Z" fill="#beaa93"/>
        <path d="M55.152,35.351a10.279,10.279,0,0,0,4.54.985,12.875,12.875,0,0,0,2.28-.352c.758-.153,1.493-.4,2.26-.633l.023.045A7.191,7.191,0,0,1,62.1,36.467a7.358,7.358,0,0,1-2.407.269,9.789,9.789,0,0,1-4.563-1.34Z" fill="#beaa93"/>
        <path d="M49.42,33.222a10.3,10.3,0,0,0,4.54.985,12.886,12.886,0,0,0,2.281-.352c.758-.153,1.493-.4,2.26-.633l.022.045a7.174,7.174,0,0,1-2.155,1.071,7.388,7.388,0,0,1-2.408.269,9.785,9.785,0,0,1-4.562-1.34Z" fill="#beaa93"/>
        <path d="M57.283,31.673a10.282,10.282,0,0,0,4.541.984,12.784,12.784,0,0,0,2.28-.352c.758-.152,1.493-.4,2.26-.632l.022.044a7.177,7.177,0,0,1-2.155,1.072,7.357,7.357,0,0,1-2.407.268,9.774,9.774,0,0,1-4.563-1.34Z" fill="#beaa93"/>
        <path d="M49.42,31.092a10.281,10.281,0,0,0,4.54.984,12.886,12.886,0,0,0,2.281-.352c.758-.152,1.493-.4,2.26-.632l.022.044a7.2,7.2,0,0,1-2.155,1.072,7.36,7.36,0,0,1-2.408.268,9.774,9.774,0,0,1-4.562-1.34Z" fill="#beaa93"/>
        <path d="M53.3,29.749a10.281,10.281,0,0,0,4.54.984,12.86,12.86,0,0,0,2.28-.351c.759-.153,1.493-.4,2.26-.633l.023.044a7.177,7.177,0,0,1-2.155,1.072,7.363,7.363,0,0,1-2.408.268,9.778,9.778,0,0,1-4.563-1.34Z" fill="#beaa93"/>
        <path d="M45.362,28.587a10.281,10.281,0,0,0,4.54.984,12.861,12.861,0,0,0,2.28-.352c.759-.152,1.493-.4,2.26-.632l.023.044A7.224,7.224,0,0,1,52.31,29.7a7.363,7.363,0,0,1-2.408.268,9.778,9.778,0,0,1-4.563-1.34Z" fill="#beaa93"/>
        <path d="M60.124,29.168a10.281,10.281,0,0,0,4.54.984,12.8,12.8,0,0,0,2.281-.352c.758-.152,1.493-.4,2.26-.632l.022.044a7.188,7.188,0,0,1-2.155,1.072,7.36,7.36,0,0,1-2.408.268,9.774,9.774,0,0,1-4.562-1.34Z" fill="#beaa93"/>
        <path d="M65.179,56.7a10.281,10.281,0,0,0,4.54.984A12.86,12.86,0,0,0,72,57.328c.759-.153,1.493-.4,2.26-.633l.023.044a7.165,7.165,0,0,1-2.155,1.072,7.363,7.363,0,0,1-2.408.268,9.778,9.778,0,0,1-4.563-1.34Z" fill="#beaa93"/>
        <path d="M40.317,56.7a10.281,10.281,0,0,0,4.54.984,12.885,12.885,0,0,0,2.281-.351c.758-.153,1.493-.4,2.26-.633l.022.044a7.165,7.165,0,0,1-2.155,1.072,7.36,7.36,0,0,1-2.408.268,9.774,9.774,0,0,1-4.562-1.34Z" fill="#beaa93"/>
        <path d="M52.732,45.387a5.269,5.269,0,0,0,2.264.4,11.033,11.033,0,0,0,1.109-.2c.376-.052.741-.156,1.156-.206l.022.044a2.744,2.744,0,0,1-1.051.646A3.129,3.129,0,0,1,55,46.19a4.771,4.771,0,0,1-2.287-.759Z" fill="#beaa93"/>
        <path d="M57.987,44.806a5.269,5.269,0,0,0,2.264.4c.38-.028.74-.133,1.109-.2s.741-.156,1.156-.206l.022.044a2.744,2.744,0,0,1-1.051.646,3.129,3.129,0,0,1-1.236.113,4.771,4.771,0,0,1-2.287-.759Z" fill="#beaa93"/>
        <path d="M55.573,47.587a5.267,5.267,0,0,0,2.264.4c.38-.028.74-.134,1.109-.2s.741-.157,1.156-.207l.022.045a2.741,2.741,0,0,1-1.051.645,3.111,3.111,0,0,1-1.236.114,4.782,4.782,0,0,1-2.287-.759Z" fill="#beaa93"/>
        <path d="M79.954,50.633a5.258,5.258,0,0,0,2.265.4c.379-.027.739-.133,1.108-.2s.741-.157,1.156-.207l.023.045a2.745,2.745,0,0,1-1.052.645,3.105,3.105,0,0,1-1.235.113,4.766,4.766,0,0,1-2.287-.758Z" fill="#beaa93"/>
        <path d="M80.557,53.057a6.711,6.711,0,0,0,2.38.544,5.888,5.888,0,0,0,1.155-.159,3.142,3.142,0,0,0,.559-.15,1.831,1.831,0,0,0,.27-.113c.081-.015.208-.151.188-.078l-.023-.044c.015-.009.018-.022.048-.028.031-.025.087.065.064.078a.415.415,0,0,1-.035.1,1.079,1.079,0,0,1-.095.149,1.792,1.792,0,0,1-.244.241,2.357,2.357,0,0,1-.593.329A2.759,2.759,0,0,1,82.91,54a5.889,5.889,0,0,1-2.376-.9Z" fill="#beaa93"/>
        <path d="M81.422,55.618a5.27,5.27,0,0,0,2.264.4c.38-.028.74-.134,1.109-.2s.741-.156,1.156-.207l.022.045a2.756,2.756,0,0,1-1.051.646,3.129,3.129,0,0,1-1.236.113,4.771,4.771,0,0,1-2.287-.759Z" fill="#beaa93"/>
        <path d="M80.585,57.567a5.266,5.266,0,0,0,2.264.4c.38-.028.739-.133,1.108-.2s.742-.156,1.156-.206l.023.044a2.747,2.747,0,0,1-1.052.646,3.124,3.124,0,0,1-1.235.113,4.771,4.771,0,0,1-2.287-.759Z" fill="#beaa93"/>
        <path d="M82.23,60.794a5.27,5.27,0,0,0,2.264.4c.38-.028.74-.134,1.109-.2s.741-.157,1.156-.207l.023.045a2.745,2.745,0,0,1-1.052.645,3.129,3.129,0,0,1-1.236.114,4.785,4.785,0,0,1-2.287-.759Z" fill="#beaa93"/>
        <path d="M81.99,64.022a5.269,5.269,0,0,0,2.264.4c.38-.028.74-.134,1.109-.2s.741-.156,1.156-.206l.022.044a2.736,2.736,0,0,1-1.051.646,3.129,3.129,0,0,1-1.236.113,4.771,4.771,0,0,1-2.287-.759Z" fill="#beaa93"/>
        <path d="M81.6,65.932a5.269,5.269,0,0,0,2.264.4c.38-.027.74-.133,1.109-.2s.741-.157,1.156-.207l.022.045a2.741,2.741,0,0,1-1.051.645,3.11,3.11,0,0,1-1.236.113,4.77,4.77,0,0,1-2.287-.758Z" fill="#beaa93"/>
        <path d="M82.86,67.843a5.288,5.288,0,0,0,2.265.4c.379-.028.739-.134,1.108-.2s.741-.156,1.156-.206l.023.044a2.747,2.747,0,0,1-1.052.646,3.124,3.124,0,0,1-1.235.113,4.767,4.767,0,0,1-2.287-.759Z" fill="#beaa93"/>
        <path d="M29.4,50.633a5.254,5.254,0,0,0,2.264.4c.38-.027.74-.133,1.109-.2s.741-.157,1.156-.207l.023.045a2.745,2.745,0,0,1-1.052.645,3.11,3.11,0,0,1-1.236.113,4.773,4.773,0,0,1-2.287-.758Z" fill="#beaa93"/>
        <path d="M28.291,53.7a5.269,5.269,0,0,0,2.264.4c.38-.027.74-.133,1.109-.2s.741-.157,1.156-.207l.022.045a2.741,2.741,0,0,1-1.051.645,3.11,3.11,0,0,1-1.236.113,4.77,4.77,0,0,1-2.287-.758Z" fill="#beaa93"/>
        <path d="M28.9,55.909a5.273,5.273,0,0,0,2.265.4c.379-.027.739-.133,1.108-.2s.742-.157,1.156-.207l.023.045A2.745,2.745,0,0,1,32.4,56.6a3.105,3.105,0,0,1-1.235.113,4.766,4.766,0,0,1-2.287-.758Z" fill="#beaa93"/>
        <path d="M27.125,57.857a5.274,5.274,0,0,0,2.265.4c.379-.028.739-.134,1.108-.2s.741-.157,1.156-.207l.023.045a2.745,2.745,0,0,1-1.052.645,3.124,3.124,0,0,1-1.235.114A4.778,4.778,0,0,1,27.1,57.9Z" fill="#beaa93"/>
        <path d="M28.291,60.22a5.27,5.27,0,0,0,2.264.4c.38-.028.74-.134,1.109-.2s.741-.157,1.156-.207l.022.045a2.741,2.741,0,0,1-1.051.645,3.129,3.129,0,0,1-1.236.114,4.782,4.782,0,0,1-2.287-.759Z" fill="#beaa93"/>
        <path d="M27.125,62.048a5.273,5.273,0,0,0,2.265.4,11.064,11.064,0,0,0,1.108-.2c.376-.052.741-.156,1.156-.206l.023.044a2.747,2.747,0,0,1-1.052.646,3.124,3.124,0,0,1-1.235.113,4.767,4.767,0,0,1-2.287-.759Z" fill="#beaa93"/>
        <path d="M27.959,63.731a5.273,5.273,0,0,0,2.265.4c.38-.027.739-.133,1.108-.2s.741-.157,1.156-.207l.023.045a2.745,2.745,0,0,1-1.052.645,3.105,3.105,0,0,1-1.235.113,4.77,4.77,0,0,1-2.287-.758Z" fill="#beaa93"/>
        <path d="M26.62,66.513a5.267,5.267,0,0,0,2.264.4c.38-.028.739-.134,1.108-.2s.742-.157,1.156-.207l.023.045a2.741,2.741,0,0,1-1.051.645,3.129,3.129,0,0,1-1.236.114,4.782,4.782,0,0,1-2.287-.759Z" fill="#beaa93"/>
        <path d="M51.888,37.2a10.278,10.278,0,0,0,4.54.984,12.784,12.784,0,0,0,2.28-.352c.758-.152,1.493-.4,2.26-.632l.023.044a7.194,7.194,0,0,1-2.156,1.072,7.357,7.357,0,0,1-2.407.268,9.774,9.774,0,0,1-4.563-1.34Z" fill="#beaa93"/>
        <path d="M54.834,39.6a10.3,10.3,0,0,0,4.54.984,12.886,12.886,0,0,0,2.281-.352c.758-.152,1.493-.4,2.259-.632l.023.044a7.212,7.212,0,0,1-2.155,1.072,7.363,7.363,0,0,1-2.408.268,9.778,9.778,0,0,1-4.563-1.34Z" fill="#beaa93"/>
        <g>
          <ellipse cx="45.955" cy="43.142" rx="5.921" ry="12.789" fill="#fff" stroke="#000" stroke-miterlimit="10" stroke-width="0.25"/>
          <ellipse cx="45.908" cy="43.142" rx="2.084" ry="2.937"/>
          <g>
            <path d="M51.876,43.994c0-17.715-11.368-18.378-11.842,0C43.96,41.2,47.908,41.23,51.876,43.994Z"/>
            <path d="M51.87,43.983a31.247,31.247,0,0,0-1.07-7.835,13.287,13.287,0,0,0-1.6-3.589,4.131,4.131,0,0,0-3.161-2.039,4.048,4.048,0,0,0-3.176,2.047,12.491,12.491,0,0,0-1.62,3.594A31.941,31.941,0,0,0,40.154,44l-.189-.1a10.1,10.1,0,0,1,5.987-2.085A10.344,10.344,0,0,1,51.87,43.983Zm.012.023a10.813,10.813,0,0,0-5.93-2A10.413,10.413,0,0,0,40.1,44.092l-.2.14.009-.241a29.381,29.381,0,0,1,1.162-7.879,13,13,0,0,1,1.7-3.605,5.67,5.67,0,0,1,1.393-1.426,3.149,3.149,0,0,1,1.868-.67,4.259,4.259,0,0,1,3.306,2.046A12.05,12.05,0,0,1,51,36.09,27.2,27.2,0,0,1,51.882,44.006Z" fill="#fff"/>
          </g>
          <g>
            <path d="M51.876,46.647c0,12.013-11.368,12.462-11.842,0A13.112,13.112,0,0,0,51.876,46.647Z"/>
            <path d="M51.883,46.637a12.577,12.577,0,0,1-1.13,5.9,6.578,6.578,0,0,1-1.885,2.37,4.593,4.593,0,0,1-2.841.979,4.654,4.654,0,0,1-2.8-1.053,7.106,7.106,0,0,1-1.9-2.335,13.786,13.786,0,0,1-1.413-5.845l-.009-.2.176.085a13.776,13.776,0,0,0,5.868,1.407A14.514,14.514,0,0,0,51.883,46.637Zm-.014.021a13.5,13.5,0,0,1-5.915,1.513,13.294,13.294,0,0,1-5.97-1.419l.166-.109a14.552,14.552,0,0,0,1.3,5.792,6.984,6.984,0,0,0,1.831,2.331,4.355,4.355,0,0,0,2.746.99,4.462,4.462,0,0,0,2.724-1,7.319,7.319,0,0,0,1.822-2.311A13.84,13.84,0,0,0,51.869,46.658Z" fill="#fff"/>
          </g>
        </g>
        <path d="M38.9,65.642a10.3,10.3,0,0,0,4.54.984,12.886,12.886,0,0,0,2.281-.352c.758-.152,1.493-.4,2.26-.632l.022.044a7.2,7.2,0,0,1-2.155,1.072,7.36,7.36,0,0,1-2.408.268,9.785,9.785,0,0,1-4.562-1.34Z"/>
        <path d="M44.869,61.757a10.279,10.279,0,0,0,4.54.985,12.875,12.875,0,0,0,2.28-.352c.758-.153,1.493-.4,2.26-.633l.023.045a7.191,7.191,0,0,1-2.156,1.071,7.358,7.358,0,0,1-2.407.269,9.786,9.786,0,0,1-4.563-1.34Z"/>
        <path d="M38.9,71.651a10.282,10.282,0,0,0,4.54.985,12.886,12.886,0,0,0,2.281-.352c.758-.153,1.493-.4,2.26-.633L48,71.7a7.174,7.174,0,0,1-2.155,1.071,7.361,7.361,0,0,1-2.408.269,9.785,9.785,0,0,1-4.562-1.34Z"/>
        <path d="M38.9,77.661a10.281,10.281,0,0,0,4.54.984,12.8,12.8,0,0,0,2.281-.352c.758-.152,1.493-.4,2.26-.632l.022.044a7.2,7.2,0,0,1-2.155,1.072,7.36,7.36,0,0,1-2.408.268,9.774,9.774,0,0,1-4.562-1.34Z"/>
        <path d="M38.9,83.266a10.282,10.282,0,0,0,4.54.985,12.886,12.886,0,0,0,2.281-.352c.758-.153,1.493-.4,2.26-.633l.022.045a7.174,7.174,0,0,1-2.155,1.071,7.361,7.361,0,0,1-2.408.269,9.785,9.785,0,0,1-4.562-1.34Z"/>
        <path d="M52.3,65.06a10.283,10.283,0,0,0,4.541.985,12.875,12.875,0,0,0,2.28-.352c.758-.153,1.493-.4,2.26-.633l.023.045a7.217,7.217,0,0,1-2.156,1.072,7.384,7.384,0,0,1-2.407.268,9.786,9.786,0,0,1-4.563-1.34Z"/>
        <path d="M52.3,71.07a10.3,10.3,0,0,0,4.541.985,12.875,12.875,0,0,0,2.28-.352c.758-.153,1.493-.4,2.26-.633l.023.045a7.191,7.191,0,0,1-2.156,1.071,7.385,7.385,0,0,1-2.407.269,9.786,9.786,0,0,1-4.563-1.34Z"/>
        <path d="M52.3,77.08a10.282,10.282,0,0,0,4.541.984,12.875,12.875,0,0,0,2.28-.352c.758-.152,1.493-.4,2.26-.632l.023.044A7.217,7.217,0,0,1,59.249,78.2a7.357,7.357,0,0,1-2.407.268,9.774,9.774,0,0,1-4.563-1.34Z"/>
        <path d="M52.3,82.685a10.3,10.3,0,0,0,4.541.985,12.875,12.875,0,0,0,2.28-.352c.758-.153,1.493-.4,2.26-.633l.023.045A7.191,7.191,0,0,1,59.249,83.8a7.385,7.385,0,0,1-2.407.269,9.786,9.786,0,0,1-4.563-1.34Z"/>
        <path d="M45.967,86.539a10.289,10.289,0,0,0,4.54.984,12.875,12.875,0,0,0,2.28-.352c.758-.152,1.493-.4,2.26-.632l.023.044a7.217,7.217,0,0,1-2.156,1.072,7.357,7.357,0,0,1-2.407.268,9.774,9.774,0,0,1-4.563-1.34Z"/>
        <path d="M59.7,86.539a10.3,10.3,0,0,0,4.541.984,12.889,12.889,0,0,0,2.28-.352c.758-.152,1.493-.4,2.26-.632l.022.044a7.2,7.2,0,0,1-2.155,1.072,7.357,7.357,0,0,1-2.407.268,9.774,9.774,0,0,1-4.563-1.34Z"/>
        <path d="M53.3,89.854a10.282,10.282,0,0,0,4.54.985,12.861,12.861,0,0,0,2.28-.352c.759-.153,1.493-.4,2.26-.633l.023.045a7.224,7.224,0,0,1-2.155,1.072,7.39,7.39,0,0,1-2.408.268,9.789,9.789,0,0,1-4.563-1.34Z"/>
        <path d="M67.311,64.479a10.279,10.279,0,0,0,4.54.985,12.875,12.875,0,0,0,2.28-.352c.758-.153,1.493-.4,2.26-.633l.023.045A7.191,7.191,0,0,1,74.258,65.6a7.358,7.358,0,0,1-2.407.269,9.786,9.786,0,0,1-4.563-1.34Z"/>
        <path d="M67.311,70.489a10.278,10.278,0,0,0,4.54.984,12.784,12.784,0,0,0,2.28-.352c.758-.152,1.493-.4,2.26-.632l.023.044a7.194,7.194,0,0,1-2.156,1.072,7.357,7.357,0,0,1-2.407.268,9.774,9.774,0,0,1-4.563-1.34Z"/>
        <path d="M67.311,76.5a10.292,10.292,0,0,0,4.54.984,12.875,12.875,0,0,0,2.28-.352c.758-.152,1.493-.4,2.26-.632l.023.044a7.217,7.217,0,0,1-2.156,1.072,7.357,7.357,0,0,1-2.407.268,9.786,9.786,0,0,1-4.563-1.34Z"/>
        <path d="M67.311,82.1a10.278,10.278,0,0,0,4.54.984,12.874,12.874,0,0,0,2.28-.351c.758-.153,1.493-.4,2.26-.633l.023.044a7.17,7.17,0,0,1-2.156,1.072,7.357,7.357,0,0,1-2.407.268,9.774,9.774,0,0,1-4.563-1.34Z"/>
        <path d="M83.833,99.965a5.089,5.089,0,0,0-.815-2.875,4.108,4.108,0,0,0-1.1-.924,12.137,12.137,0,0,0-1.347-.7l.009-.049a3.3,3.3,0,0,1,1.581.316,2.9,2.9,0,0,1,1.191,1.138,4.9,4.9,0,0,1,.533,3.1Z" fill="#beaa93"/>
        <path d="M31.641,99.966a6.421,6.421,0,0,1,.293-2.823,2.688,2.688,0,0,1,.832-1.233,2.434,2.434,0,0,1,1.379-.5l.015.047a6.668,6.668,0,0,0-1.067.828,4.281,4.281,0,0,0-.794,1.017,7.162,7.162,0,0,0-.608,2.661Z" fill="#beaa93"/>
        <path d="M79.121,55.62a2.775,2.775,0,0,0,.543-1.54,15.933,15.933,0,0,0,.127-1.678c.042-1.123.016-2.249-.052-3.371s-.21-2.237-.327-3.348c-.05-.557-.127-1.111-.223-1.658A5.861,5.861,0,0,0,79,43.219c-.082-.25-.171-.547-.418-.633v-.05c.337.025.489.361.629.6a5.923,5.923,0,0,1,.315.81,14.284,14.284,0,0,1,.38,1.673,23.075,23.075,0,0,1,.231,3.4c.018,1.134,0,2.269-.1,3.4a16.294,16.294,0,0,1-.229,1.688,6.407,6.407,0,0,1-.217.827,1.45,1.45,0,0,1-.447.73Z" fill="#beaa93"/>
        <path d="M62.546,58.979q-.706,1.066-1.441,2.1a9.011,9.011,0,0,1-.748,1.024,5.811,5.811,0,0,1-.963.853l-.039-.031a5.764,5.764,0,0,1,.613-1.136,9.055,9.055,0,0,1,.829-.965q.841-.956,1.711-1.879Z" fill="#beaa93"/>
        <path d="M59.136,54.009q.174.813.306,1.63a3.788,3.788,0,0,1,.116.818,2.607,2.607,0,0,1-.159.839l-.05,0a2.625,2.625,0,0,1-.29-.8,3.789,3.789,0,0,1-.015-.825q0-.828.043-1.658Z"/>
        <path d="M56.588,54.013q.042.831.043,1.658a3.852,3.852,0,0,1-.016.825,2.573,2.573,0,0,1-.29.8l-.05,0a2.579,2.579,0,0,1-.158-.839,3.786,3.786,0,0,1,.115-.818q.132-.818.306-1.63Z"/>
        <path d="M58,50.946q.072,1.591.1,3.181a14.044,14.044,0,0,1,.013,1.589A8.957,8.957,0,0,1,57.85,57.3H57.8a8.86,8.86,0,0,1-.187-1.594,14.291,14.291,0,0,1,.087-1.587q.105-1.585.25-3.172Z" fill="#beaa93"/>
        <path d="M43.97,91.77a19.123,19.123,0,0,0-.4,5.08,4.671,4.671,0,0,1,.5,1.98.356.356,0,0,1-.32.35l-12.08.79a.972.972,0,0,1-1-.76c-.93-4.24,3.94-6.19,8.06-5.49a30.143,30.143,0,0,1-.51-3.75,87.012,87.012,0,0,1-12.83-6c.57-2.14,1.16-4.26,1.76-6.38a5.3,5.3,0,0,1-.3-3.73c-2.19-14.63.95-27.05,10.68-36.74a3.725,3.725,0,0,1,2.87-2.63l2.25-5.25c-6.64-7.34-4.66-12.26.36-16.32-1.35,6.78,1.59,11.7,11.8,13.45l1.81,1.15a1.477,1.477,0,0,1,.21.01h.03c.84-.03,1.68-.05,2.52-.04l1.76-1.12c.03-.01.06-.01.09-.02.05.36.11.72.16,1.08,0,.04.01.07.01.1.08.55.16,1.1.24,1.66.03.22.07.45.1.68.01.06.02.13.03.19.13.91.26,1.84.39,2.78.16,1.05.31,2.13.46,3.21.17,1.18.34,2.37.52,3.58.01.11.03.22.04.33.22,1.53.44,3.07.66,4.64.1.73.2,1.46.31,2.2s.21,1.49.31,2.23c.15,1.09.31,2.18.46,3.28.21,1.53.43,3.07.64,4.6.15,1.07.44,3.22.44,3.22-1.744.459-1.431,1.421.38,2.75a7.682,7.682,0,0,0,1.05,7.69c-1.232,1.3-.207,3.837.84,6.39-1.079.031-.557,4,.77,5.89a10.686,10.686,0,0,0,.91,7.23,4.985,4.985,0,0,1,.18,1.47C61.79,94.24,53.05,94.19,43.97,91.77Z" fill="#471e0e" opacity="0.14" style="mix-blend-mode: multiply"/>
      </g>
    </g>
  </g>
</svg>
